0
SECTION
2
HEADER
9
$INSUNITS
70
4
0
ENDSEC
0
SECTION
2
TABLES
0
TABLE
2
LTYPE
0
LTYPE
72
65
70
64
2
CONTINUOUS
3
______
73
0
40
0
0
ENDTAB
0
TABLE
2
LAYER
0
ENDTAB
0
ENDSEC
0
SECTION
2
ENTITIES
0
ARC
8
0
10
2.275
20
-15.425
40
0.5
50
180
51
270
0
ARC
8
0
10
16.775
20
-15.425
40
0.5
50
270
51
0
0
ARC
8
0
10
16.775
20
-3.625
40
0.5
50
0
51
90
0
ARC
8
0
10
2.275
20
-3.625
40
0.5
50
90
51
180
0
LINE
8
0
10
2.275
20
-15.925
11
16.775
21
-15.925
0
LINE
8
0
10
16.775
20
-3.125
11
2.275
21
-3.125
0
LINE
8
0
10
17.275
20
-15.425
11
17.275
21
-3.625
0
LINE
8
0
10
1.775
20
-3.625
11
1.775
21
-15.425
0
ARC
8
0
10
21.325
20
-15.425
40
0.5
50
180
51
270
0
ARC
8
0
10
35.825
20
-15.425
40
0.5
50
270
51
0
0
ARC
8
0
10
35.825
20
-3.625
40
0.5
50
0
51
90
0
ARC
8
0
10
21.325
20
-3.625
40
0.5
50
90
51
180
0
LINE
8
0
10
21.325
20
-15.925
11
35.825
21
-15.925
0
LINE
8
0
10
35.825
20
-3.125
11
21.325
21
-3.125
0
LINE
8
0
10
36.325
20
-15.425
11
36.325
21
-3.625
0
LINE
8
0
10
20.825
20
-3.625
11
20.825
21
-15.425
0
ARC
8
0
10
40.375
20
-15.425
40
0.5
50
180
51
270
0
ARC
8
0
10
54.875
20
-15.425
40
0.5
50
270
51
0
0
ARC
8
0
10
54.875
20
-3.625
40
0.5
50
0
51
90
0
ARC
8
0
10
40.375
20
-3.625
40
0.5
50
90
51
180
0
LINE
8
0
10
40.375
20
-15.925
11
54.875
21
-15.925
0
LINE
8
0
10
54.875
20
-3.125
11
40.375
21
-3.125
0
LINE
8
0
10
55.375
20
-15.425
11
55.375
21
-3.625
0
LINE
8
0
10
39.875
20
-3.625
11
39.875
21
-15.425
0
ARC
8
0
10
59.425
20
-15.425
40
0.5
50
180
51
270
0
ARC
8
0
10
73.925
20
-15.425
40
0.5
50
270
51
0
0
ARC
8
0
10
73.925
20
-3.625
40
0.5
50
0
51
90
0
ARC
8
0
10
59.425
20
-3.625
40
0.5
50
90
51
180
0
LINE
8
0
10
59.425
20
-15.925
11
73.925
21
-15.925
0
LINE
8
0
10
73.925
20
-3.125
11
59.425
21
-3.125
0
LINE
8
0
10
74.425
20
-15.425
11
74.425
21
-3.625
0
LINE
8
0
10
58.925
20
-3.625
11
58.925
21
-15.425
0
ARC
8
0
10
78.475
20
-15.425
40
0.5
50
180
51
270
0
ARC
8
0
10
92.975
20
-15.425
40
0.5
50
270
51
0
0
ARC
8
0
10
92.975
20
-3.625
40
0.5
50
0
51
90
0
ARC
8
0
10
78.475
20
-3.625
40
0.5
50
90
51
180
0
LINE
8
0
10
78.475
20
-15.925
11
92.975
21
-15.925
0
LINE
8
0
10
92.975
20
-3.125
11
78.475
21
-3.125
0
LINE
8
0
10
93.475
20
-15.425
11
93.475
21
-3.625
0
LINE
8
0
10
77.975
20
-3.625
11
77.975
21
-15.425
0
ARC
8
0
10
135.625
20
-15.425
40
0.5
50
180
51
270
0
ARC
8
0
10
150.125
20
-15.425
40
0.5
50
270
51
0
0
ARC
8
0
10
150.125
20
-3.625
40
0.5
50
0
51
90
0
ARC
8
0
10
135.625
20
-3.625
40
0.5
50
90
51
180
0
LINE
8
0
10
135.625
20
-15.925
11
150.125
21
-15.925
0
LINE
8
0
10
150.125
20
-3.125
11
135.625
21
-3.125
0
LINE
8
0
10
150.625
20
-15.425
11
150.625
21
-3.625
0
LINE
8
0
10
135.125
20
-3.625
11
135.125
21
-15.425
0
ARC
8
0
10
154.675
20
-15.425
40
0.5
50
180
51
270
0
ARC
8
0
10
169.175
20
-15.425
40
0.5
50
270
51
0
0
ARC
8
0
10
169.175
20
-3.625
40
0.5
50
0
51
90
0
ARC
8
0
10
154.675
20
-3.625
40
0.5
50
90
51
180
0
LINE
8
0
10
154.675
20
-15.925
11
169.175
21
-15.925
0
LINE
8
0
10
169.175
20
-3.125
11
154.675
21
-3.125
0
LINE
8
0
10
169.675
20
-15.425
11
169.675
21
-3.625
0
LINE
8
0
10
154.175
20
-3.625
11
154.175
21
-15.425
0
ARC
8
0
10
173.725
20
-15.425
40
0.5
50
180
51
270
0
ARC
8
0
10
188.225
20
-15.425
40
0.5
50
270
51
0
0
ARC
8
0
10
188.225
20
-3.625
40
0.5
50
0
51
90
0
ARC
8
0
10
173.725
20
-3.625
40
0.5
50
90
51
180
0
LINE
8
0
10
173.725
20
-15.925
11
188.225
21
-15.925
0
LINE
8
0
10
188.225
20
-3.125
11
173.725
21
-3.125
0
LINE
8
0
10
188.725
20
-15.425
11
188.725
21
-3.625
0
LINE
8
0
10
173.225
20
-3.625
11
173.225
21
-15.425
0
ARC
8
0
10
192.775
20
-15.425
40
0.5
50
180
51
270
0
ARC
8
0
10
207.275
20
-15.425
40
0.5
50
270
51
0
0
ARC
8
0
10
207.275
20
-3.625
40
0.5
50
0
51
90
0
ARC
8
0
10
192.775
20
-3.625
40
0.5
50
90
51
180
0
LINE
8
0
10
192.775
20
-15.925
11
207.275
21
-15.925
0
LINE
8
0
10
207.275
20
-3.125
11
192.775
21
-3.125
0
LINE
8
0
10
207.775
20
-15.425
11
207.775
21
-3.625
0
LINE
8
0
10
192.275
20
-3.625
11
192.275
21
-15.425
0
ARC
8
0
10
211.825
20
-15.425
40
0.5
50
180
51
270
0
ARC
8
0
10
226.325
20
-15.425
40
0.5
50
270
51
0
0
ARC
8
0
10
226.325
20
-3.625
40
0.5
50
0
51
90
0
ARC
8
0
10
211.825
20
-3.625
40
0.5
50
90
51
180
0
LINE
8
0
10
211.825
20
-15.925
11
226.325
21
-15.925
0
LINE
8
0
10
226.325
20
-3.125
11
211.825
21
-3.125
0
LINE
8
0
10
226.825
20
-15.425
11
226.825
21
-3.625
0
LINE
8
0
10
211.325
20
-3.625
11
211.325
21
-15.425
0
ARC
8
0
10
230.875
20
-15.425
40
0.5
50
180
51
270
0
ARC
8
0
10
245.375
20
-15.425
40
0.5
50
270
51
0
0
ARC
8
0
10
245.375
20
-3.625
40
0.5
50
0
51
90
0
ARC
8
0
10
230.875
20
-3.625
40
0.5
50
90
51
180
0
LINE
8
0
10
230.875
20
-15.925
11
245.375
21
-15.925
0
LINE
8
0
10
245.375
20
-3.125
11
230.875
21
-3.125
0
LINE
8
0
10
245.875
20
-15.425
11
245.875
21
-3.625
0
LINE
8
0
10
230.375
20
-3.625
11
230.375
21
-15.425
0
ARC
8
0
10
2.275
20
-34.475
40
0.5
50
180
51
270
0
ARC
8
0
10
16.775
20
-34.475
40
0.5
50
270
51
0
0
ARC
8
0
10
16.775
20
-22.675
40
0.5
50
0
51
90
0
ARC
8
0
10
2.275
20
-22.675
40
0.5
50
90
51
180
0
LINE
8
0
10
2.275
20
-34.975
11
16.775
21
-34.975
0
LINE
8
0
10
16.775
20
-22.175
11
2.275
21
-22.175
0
LINE
8
0
10
17.275
20
-34.475
11
17.275
21
-22.675
0
LINE
8
0
10
1.775
20
-22.675
11
1.775
21
-34.475
0
ARC
8
0
10
21.325
20
-34.475
40
0.5
50
180
51
270
0
ARC
8
0
10
35.825
20
-34.475
40
0.5
50
270
51
0
0
ARC
8
0
10
35.825
20
-22.675
40
0.5
50
0
51
90
0
ARC
8
0
10
21.325
20
-22.675
40
0.5
50
90
51
180
0
LINE
8
0
10
21.325
20
-34.975
11
35.825
21
-34.975
0
LINE
8
0
10
35.825
20
-22.175
11
21.325
21
-22.175
0
LINE
8
0
10
36.325
20
-34.475
11
36.325
21
-22.675
0
LINE
8
0
10
20.825
20
-22.675
11
20.825
21
-34.475
0
ARC
8
0
10
40.375
20
-34.475
40
0.5
50
180
51
270
0
ARC
8
0
10
54.875
20
-34.475
40
0.5
50
270
51
0
0
ARC
8
0
10
54.875
20
-22.675
40
0.5
50
0
51
90
0
ARC
8
0
10
40.375
20
-22.675
40
0.5
50
90
51
180
0
LINE
8
0
10
40.375
20
-34.975
11
54.875
21
-34.975
0
LINE
8
0
10
54.875
20
-22.175
11
40.375
21
-22.175
0
LINE
8
0
10
55.375
20
-34.475
11
55.375
21
-22.675
0
LINE
8
0
10
39.875
20
-22.675
11
39.875
21
-34.475
0
ARC
8
0
10
59.425
20
-34.475
40
0.5
50
180
51
270
0
ARC
8
0
10
73.925
20
-34.475
40
0.5
50
270
51
0
0
ARC
8
0
10
73.925
20
-22.675
40
0.5
50
0
51
90
0
ARC
8
0
10
59.425
20
-22.675
40
0.5
50
90
51
180
0
LINE
8
0
10
59.425
20
-34.975
11
73.925
21
-34.975
0
LINE
8
0
10
73.925
20
-22.175
11
59.425
21
-22.175
0
LINE
8
0
10
74.425
20
-34.475
11
74.425
21
-22.675
0
LINE
8
0
10
58.925
20
-22.675
11
58.925
21
-34.475
0
ARC
8
0
10
78.475
20
-34.475
40
0.5
50
180
51
270
0
ARC
8
0
10
92.975
20
-34.475
40
0.5
50
270
51
0
0
ARC
8
0
10
92.975
20
-22.675
40
0.5
50
0
51
90
0
ARC
8
0
10
78.475
20
-22.675
40
0.5
50
90
51
180
0
LINE
8
0
10
78.475
20
-34.975
11
92.975
21
-34.975
0
LINE
8
0
10
92.975
20
-22.175
11
78.475
21
-22.175
0
LINE
8
0
10
93.475
20
-34.475
11
93.475
21
-22.675
0
LINE
8
0
10
77.975
20
-22.675
11
77.975
21
-34.475
0
ARC
8
0
10
135.625
20
-34.475
40
0.5
50
180
51
270
0
ARC
8
0
10
150.125
20
-34.475
40
0.5
50
270
51
0
0
ARC
8
0
10
150.125
20
-22.675
40
0.5
50
0
51
90
0
ARC
8
0
10
135.625
20
-22.675
40
0.5
50
90
51
180
0
LINE
8
0
10
135.625
20
-34.975
11
150.125
21
-34.975
0
LINE
8
0
10
150.125
20
-22.175
11
135.625
21
-22.175
0
LINE
8
0
10
150.625
20
-34.475
11
150.625
21
-22.675
0
LINE
8
0
10
135.125
20
-22.675
11
135.125
21
-34.475
0
ARC
8
0
10
154.675
20
-34.475
40
0.5
50
180
51
270
0
ARC
8
0
10
169.175
20
-34.475
40
0.5
50
270
51
0
0
ARC
8
0
10
169.175
20
-22.675
40
0.5
50
0
51
90
0
ARC
8
0
10
154.675
20
-22.675
40
0.5
50
90
51
180
0
LINE
8
0
10
154.675
20
-34.975
11
169.175
21
-34.975
0
LINE
8
0
10
169.175
20
-22.175
11
154.675
21
-22.175
0
LINE
8
0
10
169.675
20
-34.475
11
169.675
21
-22.675
0
LINE
8
0
10
154.175
20
-22.675
11
154.175
21
-34.475
0
ARC
8
0
10
173.725
20
-34.475
40
0.5
50
180
51
270
0
ARC
8
0
10
188.225
20
-34.475
40
0.5
50
270
51
0
0
ARC
8
0
10
188.225
20
-22.675
40
0.5
50
0
51
90
0
ARC
8
0
10
173.725
20
-22.675
40
0.5
50
90
51
180
0
LINE
8
0
10
173.725
20
-34.975
11
188.225
21
-34.975
0
LINE
8
0
10
188.225
20
-22.175
11
173.725
21
-22.175
0
LINE
8
0
10
188.725
20
-34.475
11
188.725
21
-22.675
0
LINE
8
0
10
173.225
20
-22.675
11
173.225
21
-34.475
0
ARC
8
0
10
192.775
20
-34.475
40
0.5
50
180
51
270
0
ARC
8
0
10
207.275
20
-34.475
40
0.5
50
270
51
0
0
ARC
8
0
10
207.275
20
-22.675
40
0.5
50
0
51
90
0
ARC
8
0
10
192.775
20
-22.675
40
0.5
50
90
51
180
0
LINE
8
0
10
192.775
20
-34.975
11
207.275
21
-34.975
0
LINE
8
0
10
207.275
20
-22.175
11
192.775
21
-22.175
0
LINE
8
0
10
207.775
20
-34.475
11
207.775
21
-22.675
0
LINE
8
0
10
192.275
20
-22.675
11
192.275
21
-34.475
0
ARC
8
0
10
211.825
20
-34.475
40
0.5
50
180
51
270
0
ARC
8
0
10
226.325
20
-34.475
40
0.5
50
270
51
0
0
ARC
8
0
10
226.325
20
-22.675
40
0.5
50
0
51
90
0
ARC
8
0
10
211.825
20
-22.675
40
0.5
50
90
51
180
0
LINE
8
0
10
211.825
20
-34.975
11
226.325
21
-34.975
0
LINE
8
0
10
226.325
20
-22.175
11
211.825
21
-22.175
0
LINE
8
0
10
226.825
20
-34.475
11
226.825
21
-22.675
0
LINE
8
0
10
211.325
20
-22.675
11
211.325
21
-34.475
0
ARC
8
0
10
230.875
20
-34.475
40
0.5
50
180
51
270
0
ARC
8
0
10
245.375
20
-34.475
40
0.5
50
270
51
0
0
ARC
8
0
10
245.375
20
-22.675
40
0.5
50
0
51
90
0
ARC
8
0
10
230.875
20
-22.675
40
0.5
50
90
51
180
0
LINE
8
0
10
230.875
20
-34.975
11
245.375
21
-34.975
0
LINE
8
0
10
245.375
20
-22.175
11
230.875
21
-22.175
0
LINE
8
0
10
245.875
20
-34.475
11
245.875
21
-22.675
0
LINE
8
0
10
230.375
20
-22.675
11
230.375
21
-34.475
0
ARC
8
0
10
40.375
20
-72.575
40
0.5
50
180
51
270
0
ARC
8
0
10
54.875
20
-72.575
40
0.5
50
270
51
0
0
ARC
8
0
10
54.875
20
-60.775
40
0.5
50
0
51
90
0
ARC
8
0
10
40.375
20
-60.775
40
0.5
50
90
51
180
0
LINE
8
0
10
40.375
20
-73.075
11
54.875
21
-73.075
0
LINE
8
0
10
54.875
20
-60.275
11
40.375
21
-60.275
0
LINE
8
0
10
55.375
20
-72.575
11
55.375
21
-60.775
0
LINE
8
0
10
39.875
20
-60.775
11
39.875
21
-72.575
0
ARC
8
0
10
59.425
20
-72.575
40
0.5
50
180
51
270
0
ARC
8
0
10
73.925
20
-72.575
40
0.5
50
270
51
0
0
ARC
8
0
10
73.925
20
-60.775
40
0.5
50
0
51
90
0
ARC
8
0
10
59.425
20
-60.775
40
0.5
50
90
51
180
0
LINE
8
0
10
59.425
20
-73.075
11
73.925
21
-73.075
0
LINE
8
0
10
73.925
20
-60.275
11
59.425
21
-60.275
0
LINE
8
0
10
74.425
20
-72.575
11
74.425
21
-60.775
0
LINE
8
0
10
58.925
20
-60.775
11
58.925
21
-72.575
0
ARC
8
0
10
78.475
20
-72.575
40
0.5
50
180
51
270
0
ARC
8
0
10
92.975
20
-72.575
40
0.5
50
270
51
0
0
ARC
8
0
10
92.975
20
-60.775
40
0.5
50
0
51
90
0
ARC
8
0
10
78.475
20
-60.775
40
0.5
50
90
51
180
0
LINE
8
0
10
78.475
20
-73.075
11
92.975
21
-73.075
0
LINE
8
0
10
92.975
20
-60.275
11
78.475
21
-60.275
0
LINE
8
0
10
93.475
20
-72.575
11
93.475
21
-60.775
0
LINE
8
0
10
77.975
20
-60.775
11
77.975
21
-72.575
0
ARC
8
0
10
135.625
20
-72.575
40
0.5
50
180
51
270
0
ARC
8
0
10
150.125
20
-72.575
40
0.5
50
270
51
0
0
ARC
8
0
10
150.125
20
-60.775
40
0.5
50
0
51
90
0
ARC
8
0
10
135.625
20
-60.775
40
0.5
50
90
51
180
0
LINE
8
0
10
135.625
20
-73.075
11
150.125
21
-73.075
0
LINE
8
0
10
150.125
20
-60.275
11
135.625
21
-60.275
0
LINE
8
0
10
150.625
20
-72.575
11
150.625
21
-60.775
0
LINE
8
0
10
135.125
20
-60.775
11
135.125
21
-72.575
0
ARC
8
0
10
154.675
20
-72.575
40
0.5
50
180
51
270
0
ARC
8
0
10
169.175
20
-72.575
40
0.5
50
270
51
0
0
ARC
8
0
10
169.175
20
-60.775
40
0.5
50
0
51
90
0
ARC
8
0
10
154.675
20
-60.775
40
0.5
50
90
51
180
0
LINE
8
0
10
154.675
20
-73.075
11
169.175
21
-73.075
0
LINE
8
0
10
169.175
20
-60.275
11
154.675
21
-60.275
0
LINE
8
0
10
169.675
20
-72.575
11
169.675
21
-60.775
0
LINE
8
0
10
154.175
20
-60.775
11
154.175
21
-72.575
0
ARC
8
0
10
173.725
20
-72.575
40
0.5
50
180
51
270
0
ARC
8
0
10
188.225
20
-72.575
40
0.5
50
270
51
0
0
ARC
8
0
10
188.225
20
-60.775
40
0.5
50
0
51
90
0
ARC
8
0
10
173.725
20
-60.775
40
0.5
50
90
51
180
0
LINE
8
0
10
173.725
20
-73.075
11
188.225
21
-73.075
0
LINE
8
0
10
188.225
20
-60.275
11
173.725
21
-60.275
0
LINE
8
0
10
188.725
20
-72.575
11
188.725
21
-60.775
0
LINE
8
0
10
173.225
20
-60.775
11
173.225
21
-72.575
0
ENDSEC
0
EOF