<?xml version="1.0" encoding="UTF-8" standalone="no"?>
<svg
   xmlns:dc="http://purl.org/dc/elements/1.1/"
   xmlns:cc="http://creativecommons.org/ns#"
   xmlns:rdf="http://www.w3.org/1999/02/22-rdf-syntax-ns#"
   xmlns:svg="http://www.w3.org/2000/svg"
   xmlns="http://www.w3.org/2000/svg"
   xmlns:sodipodi="http://sodipodi.sourceforge.net/DTD/sodipodi-0.dtd"
   xmlns:inkscape="http://www.inkscape.org/namespaces/inkscape"
   width="250.14999mm"
   height="78.699997mm"
   viewBox="0 0 250.15 78.699999"
   fill="none"
   version="1.1"
   id="svg121"
   sodipodi:docname="back-plate-figma-3.svg"
   inkscape:version="1.0.2-2 (e86c870879, 2021-01-15)">
  <metadata
     id="metadata127">
    <rdf:RDF>
      <cc:Work
         rdf:about="">
        <dc:format>image/svg+xml</dc:format>
        <dc:type
           rdf:resource="http://purl.org/dc/dcmitype/StillImage" />
        <dc:title></dc:title>
      </cc:Work>
    </rdf:RDF>
  </metadata>
  <defs
     id="defs125" />
  <sodipodi:namedview
     pagecolor="#505050"
     bordercolor="#ffffff"
     borderopacity="1"
     objecttolerance="10"
     gridtolerance="10"
     guidetolerance="10"
     inkscape:pageopacity="0"
     inkscape:pageshadow="2"
     inkscape:window-width="1920"
     inkscape:window-height="1018"
     id="namedview123"
     showgrid="false"
     inkscape:document-units="mm"
     units="mm"
     lock-margins="true"
     fit-margin-top="1"
     fit-margin-left="1"
     fit-margin-right="1"
     fit-margin-bottom="1"
     inkscape:zoom="1.4790082"
     inkscape:cx="525.5654"
     inkscape:cy="131.6907"
     inkscape:window-x="-6"
     inkscape:window-y="-6"
     inkscape:window-maximized="1"
     inkscape:current-layer="svg121" />
  <path
     d="m 20.3,21.4 c 0.6075,0 1.1,-0.4925 1.1,-1.1 0,-0.6075 -0.4925,-1.1 -1.1,-1.1 -0.6076,0 -1.1,0.4925 -1.1,1.1 0,0.6075 0.4924,1.1 1.1,1.1 z"
     fill="#000000"
     id="path109" />
  <path
     d="m 77.45,21.4 c 0.6075,0 1.1,-0.4925 1.1,-1.1 0,-0.6075 -0.4925,-1.1 -1.1,-1.1 -0.6075,0 -1.1,0.4925 -1.1,1.1 0,0.6075 0.4925,1.1 1.1,1.1 z"
     fill="#000000"
     id="path111" />
  <path
     d="m 58.3999,69.025 c 0.6075,0 1.1,-0.4925 1.1,-1.1 0,-0.6075 -0.4925,-1.1 -1.1,-1.1 -0.6075,0 -1.1,0.4925 -1.1,1.1 0,0.6075 0.4925,1.1 1.1,1.1 z"
     fill="#000000"
     id="path113" />
  <path
     d="m 172.7,69.025 c 0.607,0 1.1,-0.4925 1.1,-1.1 0,-0.6075 -0.493,-1.1 -1.1,-1.1 -0.608,0 -1.1,0.4925 -1.1,1.1 0,0.6075 0.492,1.1 1.1,1.1 z"
     fill="#000000"
     id="path115" />
  <path
     d="m 153.65,21.4 c 0.607,0 1.1,-0.4925 1.1,-1.1 0,-0.6075 -0.493,-1.1 -1.1,-1.1 -0.608,0 -1.1,0.4925 -1.1,1.1 0,0.6075 0.492,1.1 1.1,1.1 z"
     fill="#000000"
     id="path117" />
  <path
     d="m 229.85,21.4 c 0.608,0 1.1,-0.4925 1.1,-1.1 0,-0.6075 -0.492,-1.1 -1.1,-1.1 -0.608,0 -1.1,0.4925 -1.1,1.1 0,0.6075 0.492,1.1 1.1,1.1 z"
     fill="#000000"
     id="path119" />
</svg>
