<?xml version="1.0" encoding="UTF-8" standalone="no"?>
<svg
   xmlns:dc="http://purl.org/dc/elements/1.1/"
   xmlns:cc="http://creativecommons.org/ns#"
   xmlns:rdf="http://www.w3.org/1999/02/22-rdf-syntax-ns#"
   xmlns:svg="http://www.w3.org/2000/svg"
   xmlns="http://www.w3.org/2000/svg"
   xmlns:sodipodi="http://sodipodi.sourceforge.net/DTD/sodipodi-0.dtd"
   xmlns:inkscape="http://www.inkscape.org/namespaces/inkscape"
   width="249.64999mm"
   height="78.200005mm"
   viewBox="0 0 249.65 78.200004"
   fill="none"
   version="1.1"
   id="svg22"
   sodipodi:docname="back-plate-figma.svg"
   inkscape:version="1.0.2-2 (e86c870879, 2021-01-15)">
  <metadata
     id="metadata28">
    <rdf:RDF>
      <cc:Work
         rdf:about="">
        <dc:format>image/svg+xml</dc:format>
        <dc:type
           rdf:resource="http://purl.org/dc/dcmitype/StillImage" />
        <dc:title></dc:title>
      </cc:Work>
    </rdf:RDF>
  </metadata>
  <defs
     id="defs26" />
  <sodipodi:namedview
     pagecolor="#505050"
     bordercolor="#ffffff"
     borderopacity="1"
     objecttolerance="10"
     gridtolerance="10"
     guidetolerance="10"
     inkscape:pageopacity="0"
     inkscape:pageshadow="2"
     inkscape:window-width="1920"
     inkscape:window-height="1018"
     id="namedview24"
     showgrid="false"
     inkscape:document-units="mm"
     units="mm"
     lock-margins="true"
     inkscape:zoom="1.2324472"
     inkscape:cx="468.86534"
     inkscape:cy="170.15452"
     inkscape:window-x="-6"
     inkscape:window-y="-6"
     inkscape:window-maximized="1"
     inkscape:current-layer="svg22"
     fit-margin-top="1"
     fit-margin-left="1"
     fit-margin-right="1"
     fit-margin-bottom="1" />
  <path
     fill-rule="evenodd"
     clip-rule="evenodd"
     d="M 1.0000005,3.3812505 V 36.7188 c 0,0.631501 0.250881,1.237201 0.697452,1.683701 C 2.1440205,38.8491 2.7497005,39.1 3.3812505,39.1 H 36.7188 c 0.631501,0 1.237201,0.250901 1.683701,0.6975 C 38.8491,40.244 39.1,40.8497 39.1,41.4812 v 33.337501 c 0,0.6316 0.250901,1.2373 0.6975,1.683899 0.4465,0.4465 1.0522,0.697401 1.6837,0.697401 H 189.119 c 0.631,0 1.237,-0.250901 1.684,-0.697401 0.446,-0.4466 0.697,-1.0523 0.697,-1.683899 V 41.4812 c 0,-0.6315 0.251,-1.2372 0.697,-1.6837 0.447,-0.446599 1.053,-0.6975 1.684,-0.6975 h 52.388 c 0.631,0 1.237,-0.2509 1.684,-0.697499 0.446,-0.4465 0.697,-1.0522 0.697,-1.683701 V 3.3812505 c 0,-0.63155 -0.251,-1.23723 -0.697,-1.683798 -0.447,-0.446571 -1.053,-0.697452 -1.684,-0.697452 H 3.3812505 c -0.63155,0 -1.23723,0.250881 -1.683798,0.697452 -0.446571,0.446568 -0.697452,1.052248 -0.697452,1.683798 z M 20.05,21.15 c 0.6075,0 1.1,-0.4925 1.1,-1.1 0,-0.6075 -0.4925,-1.1 -1.1,-1.1 -0.6076,0 -1.1,0.4925 -1.1,1.1 0,0.6075 0.4924,1.1 1.1,1.1 z m 58.2499,-1.1 c 0,0.6075 -0.4924,1.1 -1.0999,1.1 -0.6076,0 -1.1,-0.4925 -1.1,-1.1 0,-0.6075 0.4924,-1.1 1.1,-1.1 0.6075,0 1.0999,0.4925 1.0999,1.1 z m -20.15,48.725001 c 0.6076,0 1.1001,-0.492501 1.1001,-1.1 0,-0.6075 -0.4925,-1.1 -1.1001,-1.1 -0.6075,0 -1.1,0.4925 -1.1,1.1 0,0.6075 0.4925,1.1 1.1,1.1 z M 173.55,67.675 c 0,0.6075 -0.493,1.1 -1.1,1.1 -0.608,0 -1.1,-0.4925 -1.1,-1.1 0,-0.6075 0.492,-1.099999 1.1,-1.099999 0.607,0 1.1,0.4925 1.1,1.099999 z M 153.4,21.15 c 0.607,0 1.1,-0.4925 1.1,-1.1 0,-0.6075 -0.493,-1.1 -1.1,-1.1 -0.608,0 -1.1,0.4925 -1.1,1.1 0,0.6075 0.492,1.1 1.1,1.1 z m 77.3,-1.1 c 0,0.6075 -0.493,1.1 -1.1,1.1 -0.608,0 -1.1,-0.4925 -1.1,-1.1 0,-0.6075 0.492,-1.1 1.1,-1.1 0.607,0 1.1,0.4925 1.1,1.1 z"
     fill="#000000"
     stroke="#000000"
     stroke-width="1e-06"
     stroke-linecap="round"
     stroke-linejoin="round"
     id="path20" />
</svg>
