<?xml version="1.0" encoding="UTF-8" standalone="no"?>
<svg
   xmlns:dc="http://purl.org/dc/elements/1.1/"
   xmlns:cc="http://creativecommons.org/ns#"
   xmlns:rdf="http://www.w3.org/1999/02/22-rdf-syntax-ns#"
   xmlns:svg="http://www.w3.org/2000/svg"
   xmlns="http://www.w3.org/2000/svg"
   xmlns:sodipodi="http://sodipodi.sourceforge.net/DTD/sodipodi-0.dtd"
   xmlns:inkscape="http://www.inkscape.org/namespaces/inkscape"
   width="250.14999mm"
   height="78.699997mm"
   viewBox="0 0 250.15 78.699999"
   fill="none"
   version="1.1"
   id="svg46"
   sodipodi:docname="back-plate-figma-2.svg"
   inkscape:version="1.0.2-2 (e86c870879, 2021-01-15)">
  <metadata
     id="metadata52">
    <rdf:RDF>
      <cc:Work
         rdf:about="">
        <dc:format>image/svg+xml</dc:format>
        <dc:type
           rdf:resource="http://purl.org/dc/dcmitype/StillImage" />
        <dc:title></dc:title>
      </cc:Work>
    </rdf:RDF>
  </metadata>
  <defs
     id="defs50" />
  <sodipodi:namedview
     pagecolor="#505050"
     bordercolor="#ffffff"
     borderopacity="1"
     objecttolerance="10"
     gridtolerance="10"
     guidetolerance="10"
     inkscape:pageopacity="0"
     inkscape:pageshadow="2"
     inkscape:window-width="1920"
     inkscape:window-height="1018"
     id="namedview48"
     showgrid="false"
     inkscape:document-units="mm"
     units="mm"
     lock-margins="true"
     fit-margin-top="1"
     fit-margin-left="1"
     fit-margin-right="1"
     fit-margin-bottom="1"
     inkscape:zoom="1.7221116"
     inkscape:cx="481.40653"
     inkscape:cy="172.02034"
     inkscape:window-x="-6"
     inkscape:window-y="-6"
     inkscape:window-maximized="1"
     inkscape:current-layer="svg46" />
  <path
     d="m 20.3,22.4 c 1.1597,0 2.1,-0.9402 2.1,-2.1 0,-1.1598 -0.9403,-2.1 -2.1,-2.1 -1.1598,0 -2.1,0.9402 -2.1,2.1 0,1.1598 0.9402,2.1 2.1,2.1 z"
     stroke="#000000"
     stroke-width="2"
     stroke-linecap="round"
     stroke-linejoin="round"
     id="path34" />
  <path
     d="m 77.45,22.4 c 1.1598,0 2.1,-0.9402 2.1,-2.1 0,-1.1598 -0.9402,-2.1 -2.1,-2.1 -1.1598,0 -2.1,0.9402 -2.1,2.1 0,1.1598 0.9402,2.1 2.1,2.1 z"
     stroke="#000000"
     stroke-width="2"
     stroke-linecap="round"
     stroke-linejoin="round"
     id="path36" />
  <path
     d="m 58.3999,70.025 c 1.1598,0 2.1,-0.9402 2.1,-2.1 0,-1.1598 -0.9402,-2.1 -2.1,-2.1 -1.1598,0 -2.1,0.9402 -2.1,2.1 0,1.1598 0.9402,2.1 2.1,2.1 z"
     stroke="#000000"
     stroke-width="2"
     stroke-linecap="round"
     stroke-linejoin="round"
     id="path38" />
  <path
     d="m 172.7,70.025 c 1.16,0 2.1,-0.9402 2.1,-2.1 0,-1.1598 -0.94,-2.1 -2.1,-2.1 -1.16,0 -2.1,0.9402 -2.1,2.1 0,1.1598 0.94,2.1 2.1,2.1 z"
     stroke="#000000"
     stroke-width="2"
     stroke-linecap="round"
     stroke-linejoin="round"
     id="path40" />
  <path
     d="m 153.65,22.4 c 1.16,0 2.1,-0.9402 2.1,-2.1 0,-1.1598 -0.94,-2.1 -2.1,-2.1 -1.16,0 -2.1,0.9402 -2.1,2.1 0,1.1598 0.94,2.1 2.1,2.1 z"
     stroke="#000000"
     stroke-width="2"
     stroke-linecap="round"
     stroke-linejoin="round"
     id="path42" />
  <path
     d="m 229.85,22.4 c 1.16,0 2.1,-0.9402 2.1,-2.1 0,-1.1598 -0.94,-2.1 -2.1,-2.1 -1.16,0 -2.1,0.9402 -2.1,2.1 0,1.1598 0.94,2.1 2.1,2.1 z"
     stroke="#000000"
     stroke-width="2"
     stroke-linecap="round"
     stroke-linejoin="round"
     id="path44" />
</svg>
