<?xml version="1.0"?>
<!DOCTYPE svg PUBLIC "-//W3C//DTD SVG 1.1//EN" "http://www.w3.org/Graphics/SVG/1.1/DTD/svg11.dtd">
<svg width="252.60299999999995mm" height="81.15300000000002mm" viewBox="0 0 252.60299999999995 81.15300000000002" xmlns="http://www.w3.org/2000/svg" version="1.1">
<g id="Sketch" transform="translate(-25.304750,-57.848500) scale(1,-1)">
<path id="Sketch_w0000"  d="M 65.88125 -100.80625000000003 L 65.88124999999998 -134.14374999999998 A 2.38125 2.38125 0 0 1 68.2625 -136.525L 215.89999999999998 -136.525 A 2.38125 2.38125 0 0 1 218.281 -134.144L 218.28125 -100.80625000000002 A 2.38125 2.38125 0 0 0 220.662 -98.425L 273.05 -98.42500000000001 A 2.38125 2.38125 0 0 1 275.431 -96.0438L 275.43125 -62.706249999999976 A 2.38125 2.38125 0 0 1 273.05 -60.325L 30.162499999999998 -60.325 A 2.38125 2.38125 0 0 1 27.7813 -62.7062L 27.78125 -96.04374999999999 A 2.38125 2.38125 0 0 1 30.1625 -98.425L 63.5 -98.42500000000001 A 2.38125 2.38125 0 0 0 65.8812 -100.806" stroke="#191919" stroke-width="0.35 px" style="stroke-width:0.35;stroke-miterlimit:4;stroke-dasharray:none;fill:none;fill-opacity:1;fill-rule: evenodd"/>
<circle cx="84.93125" cy="-127.0" r="1.1" stroke="#191919" stroke-width="0.35 px" style="stroke-width:0.35;stroke-miterlimit:4;stroke-dasharray:none;fill:none"/>
<circle cx="199.23125" cy="-127.0" r="1.1" stroke="#191919" stroke-width="0.35 px" style="stroke-width:0.35;stroke-miterlimit:4;stroke-dasharray:none;fill:none"/>
<circle cx="46.83125" cy="-79.375" r="1.1" stroke="#191919" stroke-width="0.35 px" style="stroke-width:0.35;stroke-miterlimit:4;stroke-dasharray:none;fill:none"/>
<circle cx="103.98125" cy="-79.375" r="1.1" stroke="#191919" stroke-width="0.35 px" style="stroke-width:0.35;stroke-miterlimit:4;stroke-dasharray:none;fill:none"/>
<circle cx="180.18125" cy="-79.375" r="1.1" stroke="#191919" stroke-width="0.35 px" style="stroke-width:0.35;stroke-miterlimit:4;stroke-dasharray:none;fill:none"/>
<circle cx="256.38125" cy="-79.375" r="1.1" stroke="#191919" stroke-width="0.35 px" style="stroke-width:0.35;stroke-miterlimit:4;stroke-dasharray:none;fill:none"/>
<title>b'Sketch'</title>
</g>
</svg>