<?xml version="1.0" encoding="UTF-8" standalone="no"?>
<svg
   xmlns:dc="http://purl.org/dc/elements/1.1/"
   xmlns:cc="http://creativecommons.org/ns#"
   xmlns:rdf="http://www.w3.org/1999/02/22-rdf-syntax-ns#"
   xmlns:svg="http://www.w3.org/2000/svg"
   xmlns="http://www.w3.org/2000/svg"
   xmlns:sodipodi="http://sodipodi.sourceforge.net/DTD/sodipodi-0.dtd"
   xmlns:inkscape="http://www.inkscape.org/namespaces/inkscape"
   width="257.652mm"
   height="86.202mm"
   viewBox="0.000 0.000 257.652 86.202"
   version="1.1"
   id="svg134"
   sodipodi:docname="original from swillkb.svg"
   inkscape:version="1.0.2 (e86c870879, 2021-01-15, custom)">
  <metadata
     id="metadata140">
    <rdf:RDF>
      <cc:Work
         rdf:about="">
        <dc:format>image/svg+xml</dc:format>
        <dc:type
           rdf:resource="http://purl.org/dc/dcmitype/StillImage" />
        <dc:title></dc:title>
      </cc:Work>
    </rdf:RDF>
  </metadata>
  <defs
     id="defs138" />
  <sodipodi:namedview
     pagecolor="#ffffff"
     bordercolor="#666666"
     borderopacity="1"
     objecttolerance="10"
     gridtolerance="10"
     guidetolerance="10"
     inkscape:pageopacity="0"
     inkscape:pageshadow="2"
     inkscape:window-width="1920"
     inkscape:window-height="1021"
     id="namedview136"
     showgrid="false"
     inkscape:document-units="mm"
     showborder="false"
     inkscape:zoom="1.0470784"
     inkscape:cx="383.75729"
     inkscape:cy="128.67808"
     inkscape:window-x="-7"
     inkscape:window-y="-7"
     inkscape:window-maximized="1"
     inkscape:current-layer="svg134"
     inkscape:document-rotation="0" />
  <polygon
     points="5.001,81.202 5.001,5.001 252.652,5.001 252.652,81.202 "
     style="display:none;fill:none;stroke:#000000;stroke-width:0.05mm"
     id="polygon76" />
  <polygon
     points="159.926,64.676 159.926,65.276 159.126,65.276 159.126,78.076 159.926,78.076 159.926,78.676 173.926,78.676 173.926,78.076 174.726,78.076 174.726,65.276 173.926,65.276 173.926,64.676"
     style="fill:none;stroke-width:0.050000mm;stroke:black"
     id="polygon78" />
  <polygon
     points="140.876,64.676 140.876,65.276 140.076,65.276 140.076,78.076 140.876,78.076 140.876,78.676 154.876,78.676 154.876,78.076 155.676,78.076 155.676,65.276 154.876,65.276 154.876,64.676"
     style="fill:none;stroke-width:0.050000mm;stroke:black"
     id="polygon80" />
  <polygon
     points="83.726,64.676 83.726,65.276 82.926,65.276 82.926,78.076 83.726,78.076 83.726,78.676 97.726,78.676 97.726,78.076 98.526,78.076 98.526,65.276 97.726,65.276 97.726,64.676"
     style="fill:none;stroke-width:0.050000mm;stroke:black"
     id="polygon82" />
  <polygon
     points="64.676,64.676 64.676,65.276 63.876,65.276 63.876,78.076 64.676,78.076 64.676,78.676 78.676,78.676 78.676,78.076 79.476,78.076 79.476,65.276 78.676,65.276 78.676,64.676"
     style="fill:none;stroke-width:0.050000mm;stroke:black"
     id="polygon84" />
  <polygon
     points="178.976,64.676 178.976,65.276 178.176,65.276 178.176,78.076 178.976,78.076 178.976,78.676 192.976,78.676 192.976,78.076 193.776,78.076 193.776,65.276 192.976,65.276 192.976,64.676"
     style="fill:none;stroke-width:0.050000mm;stroke:black"
     id="polygon86" />
  <polygon
     points="45.626,64.676 45.626,65.276 44.826,65.276 44.826,78.076 45.626,78.076 45.626,78.676 59.626,78.676 59.626,78.076 60.426,78.076 60.426,65.276 59.626,65.276 59.626,64.676"
     style="fill:none;stroke-width:0.050000mm;stroke:black"
     id="polygon88" />
  <polygon
     points="236.126,26.576 236.126,27.176 235.326,27.176 235.326,39.976 236.126,39.976 236.126,40.576 250.126,40.576 250.126,39.976 250.926,39.976 250.926,27.176 250.126,27.176 250.126,26.576"
     style="fill:none;stroke-width:0.050000mm;stroke:black"
     id="polygon90" />
  <polygon
     points="217.076,26.576 217.076,27.176 216.276,27.176 216.276,39.976 217.076,39.976 217.076,40.576 231.076,40.576 231.076,39.976 231.876,39.976 231.876,27.176 231.076,27.176 231.076,26.576"
     style="fill:none;stroke-width:0.050000mm;stroke:black"
     id="polygon92" />
  <polygon
     points="198.026,26.576 198.026,27.176 197.226,27.176 197.226,39.976 198.026,39.976 198.026,40.576 212.026,40.576 212.026,39.976 212.826,39.976 212.826,27.176 212.026,27.176 212.026,26.576"
     style="fill:none;stroke-width:0.050000mm;stroke:black"
     id="polygon94" />
  <polygon
     points="178.976,26.576 178.976,27.176 178.176,27.176 178.176,39.976 178.976,39.976 178.976,40.576 192.976,40.576 192.976,39.976 193.776,39.976 193.776,27.176 192.976,27.176 192.976,26.576"
     style="fill:none;stroke-width:0.050000mm;stroke:black"
     id="polygon96" />
  <polygon
     points="159.926,26.576 159.926,27.176 159.126,27.176 159.126,39.976 159.926,39.976 159.926,40.576 173.926,40.576 173.926,39.976 174.726,39.976 174.726,27.176 173.926,27.176 173.926,26.576"
     style="fill:none;stroke-width:0.050000mm;stroke:black"
     id="polygon98" />
  <polygon
     points="140.876,26.576 140.876,27.176 140.076,27.176 140.076,39.976 140.876,39.976 140.876,40.576 154.876,40.576 154.876,39.976 155.676,39.976 155.676,27.176 154.876,27.176 154.876,26.576"
     style="fill:none;stroke-width:0.050000mm;stroke:black"
     id="polygon100" />
  <polygon
     points="83.726,26.576 83.726,27.176 82.926,27.176 82.926,39.976 83.726,39.976 83.726,40.576 97.726,40.576 97.726,39.976 98.525,39.976 98.525,27.176 97.726,27.176 97.726,26.576"
     style="fill:none;stroke-width:0.050000mm;stroke:black"
     id="polygon102" />
  <polygon
     points="64.676,26.576 64.676,27.176 63.876,27.176 63.876,39.976 64.676,39.976 64.676,40.576 78.676,40.576 78.676,39.976 79.476,39.976 79.476,27.176 78.676,27.176 78.676,26.576"
     style="fill:none;stroke-width:0.050000mm;stroke:black"
     id="polygon104" />
  <polygon
     points="45.626,26.576 45.626,27.176 44.826,27.176 44.826,39.976 45.626,39.976 45.626,40.576 59.626,40.576 59.626,39.976 60.426,39.976 60.426,27.176 59.626,27.176 59.626,26.576"
     style="fill:none;stroke-width:0.050000mm;stroke:black"
     id="polygon106" />
  <polygon
     points="26.576,26.576 26.576,27.176 25.776,27.176 25.776,39.976 26.576,39.976 26.576,40.576 40.576,40.576 40.576,39.976 41.376,39.976 41.376,27.176 40.576,27.176 40.576,26.576"
     style="fill:none;stroke-width:0.050000mm;stroke:black"
     id="polygon108" />
  <polygon
     points="7.526,26.576 7.526,27.176 6.726,27.176 6.726,39.976 7.526,39.976 7.526,40.576 21.526,40.576 21.526,39.976 22.326,39.976 22.326,27.176 21.526,27.176 21.526,26.576"
     style="fill:none;stroke-width:0.050000mm;stroke:black"
     id="polygon110" />
  <polygon
     points="236.126,7.526 236.126,8.126 235.326,8.126 235.326,20.926 236.126,20.926 236.126,21.526 250.126,21.526 250.126,20.926 250.926,20.926 250.926,8.126 250.126,8.126 250.126,7.526"
     style="fill:none;stroke-width:0.050000mm;stroke:black"
     id="polygon112" />
  <polygon
     points="217.076,7.526 217.076,8.126 216.276,8.126 216.276,20.926 217.076,20.926 217.076,21.526 231.076,21.526 231.076,20.926 231.876,20.926 231.876,8.126 231.076,8.126 231.076,7.526"
     style="fill:none;stroke-width:0.050000mm;stroke:black"
     id="polygon114" />
  <polygon
     points="198.026,7.526 198.026,8.126 197.226,8.126 197.226,20.926 198.026,20.926 198.026,21.526 212.026,21.526 212.026,20.926 212.826,20.926 212.826,8.126 212.026,8.126 212.026,7.526"
     style="fill:none;stroke-width:0.050000mm;stroke:black"
     id="polygon116" />
  <polygon
     points="178.976,7.526 178.976,8.126 178.176,8.126 178.176,20.926 178.976,20.926 178.976,21.526 192.976,21.526 192.976,20.926 193.776,20.926 193.776,8.126 192.976,8.126 192.976,7.526"
     style="fill:none;stroke-width:0.050000mm;stroke:black"
     id="polygon118" />
  <polygon
     points="159.926,7.526 159.926,8.126 159.126,8.126 159.126,20.926 159.926,20.926 159.926,21.526 173.926,21.526 173.926,20.926 174.726,20.926 174.726,8.126 173.926,8.126 173.926,7.526"
     style="fill:none;stroke-width:0.050000mm;stroke:black"
     id="polygon120" />
  <polygon
     points="140.876,7.526 140.876,8.126 140.076,8.126 140.076,20.926 140.876,20.926 140.876,21.526 154.876,21.526 154.876,20.926 155.676,20.926 155.676,8.126 154.876,8.126 154.876,7.526"
     style="fill:none;stroke-width:0.050000mm;stroke:black"
     id="polygon122" />
  <polygon
     points="83.726,7.526 83.726,8.126 82.926,8.126 82.926,20.926 83.726,20.926 83.726,21.526 97.726,21.526 97.726,20.926 98.525,20.926 98.525,8.126 97.726,8.126 97.726,7.526"
     style="fill:none;stroke-width:0.050000mm;stroke:black"
     id="polygon124" />
  <polygon
     points="64.676,7.526 64.676,8.126 63.876,8.126 63.876,20.926 64.676,20.926 64.676,21.526 78.676,21.526 78.676,20.926 79.476,20.926 79.476,8.126 78.676,8.126 78.676,7.526"
     style="fill:none;stroke-width:0.050000mm;stroke:black"
     id="polygon126" />
  <polygon
     points="45.626,7.526 45.626,8.126 44.826,8.126 44.826,20.926 45.626,20.926 45.626,21.526 59.626,21.526 59.626,20.926 60.426,20.926 60.426,8.126 59.626,8.126 59.626,7.526"
     style="fill:none;stroke-width:0.050000mm;stroke:black"
     id="polygon128" />
  <polygon
     points="26.576,7.526 26.576,8.126 25.776,8.126 25.776,20.926 26.576,20.926 26.576,21.526 40.576,21.526 40.576,20.926 41.376,20.926 41.376,8.126 40.576,8.126 40.576,7.526"
     style="fill:none;stroke-width:0.050000mm;stroke:black"
     id="polygon130" />
  <polygon
     points="7.526,7.526 7.526,8.126 6.726,8.126 6.726,20.926 7.526,20.926 7.526,21.526 21.526,21.526 21.526,20.926 22.326,20.926 22.326,8.126 21.526,8.126 21.526,7.526"
     style="fill:none;stroke-width:0.050000mm;stroke:black"
     id="polygon132" />
</svg>
