  0
SECTION
  2
HEADER
  9
$ACADVER
  1
AC1009
  9
$EXTMIN
 10
0.0
 20
0.0
 30
0.0
  9
$EXTMAX
 10
1000.0
 20
1000.0
 30
0.0
  9
$FILLMODE
 70
 0
  9
$SPLFRAME
 70
 1
  0
ENDSEC
  0
SECTION
  2
TABLES
  0
TABLE
  2
LAYER
 70
1
  0
LAYER
  2
0
 70
     0
 62
     7
  6
CONTINUOUS
  0
ENDTAB
  0
ENDSEC
  0
SECTION
  2
ENTITIES
  0
LINE
  8
0
 62
     0
 10
0.0950846
 20
76.4575
 30
0.0
 11
247.745
 21
76.4575
 31
0.0
  0
LINE
  8
0
 62
     0
 10
247.745
 20
76.4575
 30
0.0
 11
247.745
 21
0.257693
 31
0.0
  0
LINE
  8
0
 62
     0
 10
247.745
 20
0.257693
 30
0.0
 11
0.0950846
 21
0.257693
 31
0.0
  0
LINE
  8
0
 62
     0
 10
0.0950846
 20
0.257693
 30
0.0
 11
0.0950846
 21
76.4575
 31
0.0
  0
LINE
  8
0
 62
     0
 10
155.02
 20
16.7831
 30
0.0
 11
155.02
 21
16.1837
 31
0.0
  0
LINE
  8
0
 62
     0
 10
155.02
 20
16.1837
 30
0.0
 11
154.219
 21
16.1837
 31
0.0
  0
LINE
  8
0
 62
     0
 10
154.219
 20
16.1837
 30
0.0
 11
154.219
 21
3.38308
 31
0.0
  0
LINE
  8
0
 62
     0
 10
154.219
 20
3.38308
 30
0.0
 11
155.02
 21
3.38308
 31
0.0
  0
LINE
  8
0
 62
     0
 10
155.02
 20
3.38308
 30
0.0
 11
155.02
 21
2.78364
 31
0.0
  0
LINE
  8
0
 62
     0
 10
155.02
 20
2.78364
 30
0.0
 11
169.019
 21
2.78364
 31
0.0
  0
LINE
  8
0
 62
     0
 10
169.019
 20
2.78364
 30
0.0
 11
169.019
 21
3.38308
 31
0.0
  0
LINE
  8
0
 62
     0
 10
169.019
 20
3.38308
 30
0.0
 11
169.82
 21
3.38308
 31
0.0
  0
LINE
  8
0
 62
     0
 10
169.82
 20
3.38308
 30
0.0
 11
169.82
 21
16.1837
 31
0.0
  0
LINE
  8
0
 62
     0
 10
169.82
 20
16.1837
 30
0.0
 11
169.019
 21
16.1837
 31
0.0
  0
LINE
  8
0
 62
     0
 10
169.019
 20
16.1837
 30
0.0
 11
169.019
 21
16.7831
 31
0.0
  0
LINE
  8
0
 62
     0
 10
169.019
 20
16.7831
 30
0.0
 11
155.02
 21
16.7831
 31
0.0
  0
LINE
  8
0
 62
     0
 10
135.97
 20
16.7831
 30
0.0
 11
135.97
 21
16.1837
 31
0.0
  0
LINE
  8
0
 62
     0
 10
135.97
 20
16.1837
 30
0.0
 11
135.169
 21
16.1837
 31
0.0
  0
LINE
  8
0
 62
     0
 10
135.169
 20
16.1837
 30
0.0
 11
135.169
 21
3.38308
 31
0.0
  0
LINE
  8
0
 62
     0
 10
135.169
 20
3.38308
 30
0.0
 11
135.97
 21
3.38308
 31
0.0
  0
LINE
  8
0
 62
     0
 10
135.97
 20
3.38308
 30
0.0
 11
135.97
 21
2.78364
 31
0.0
  0
LINE
  8
0
 62
     0
 10
135.97
 20
2.78364
 30
0.0
 11
149.969
 21
2.78364
 31
0.0
  0
LINE
  8
0
 62
     0
 10
149.969
 20
2.78364
 30
0.0
 11
149.969
 21
3.38308
 31
0.0
  0
LINE
  8
0
 62
     0
 10
149.969
 20
3.38308
 30
0.0
 11
150.77
 21
3.38308
 31
0.0
  0
LINE
  8
0
 62
     0
 10
150.77
 20
3.38308
 30
0.0
 11
150.77
 21
16.1837
 31
0.0
  0
LINE
  8
0
 62
     0
 10
150.77
 20
16.1837
 30
0.0
 11
149.969
 21
16.1837
 31
0.0
  0
LINE
  8
0
 62
     0
 10
149.969
 20
16.1837
 30
0.0
 11
149.969
 21
16.7831
 31
0.0
  0
LINE
  8
0
 62
     0
 10
149.969
 20
16.7831
 30
0.0
 11
135.97
 21
16.7831
 31
0.0
  0
LINE
  8
0
 62
     0
 10
78.8197
 20
16.7831
 30
0.0
 11
78.8197
 21
16.1837
 31
0.0
  0
LINE
  8
0
 62
     0
 10
78.8197
 20
16.1837
 30
0.0
 11
78.0189
 21
16.1837
 31
0.0
  0
LINE
  8
0
 62
     0
 10
78.0189
 20
16.1837
 30
0.0
 11
78.0189
 21
3.38308
 31
0.0
  0
LINE
  8
0
 62
     0
 10
78.0189
 20
3.38308
 30
0.0
 11
78.8197
 21
3.38308
 31
0.0
  0
LINE
  8
0
 62
     0
 10
78.8197
 20
3.38308
 30
0.0
 11
78.8197
 21
2.78364
 31
0.0
  0
LINE
  8
0
 62
     0
 10
78.8197
 20
2.78364
 30
0.0
 11
92.819
 21
2.78364
 31
0.0
  0
LINE
  8
0
 62
     0
 10
92.819
 20
2.78364
 30
0.0
 11
92.819
 21
3.38308
 31
0.0
  0
LINE
  8
0
 62
     0
 10
92.819
 20
3.38308
 30
0.0
 11
93.6198
 21
3.38308
 31
0.0
  0
LINE
  8
0
 62
     0
 10
93.6198
 20
3.38308
 30
0.0
 11
93.6198
 21
16.1837
 31
0.0
  0
LINE
  8
0
 62
     0
 10
93.6198
 20
16.1837
 30
0.0
 11
92.819
 21
16.1837
 31
0.0
  0
LINE
  8
0
 62
     0
 10
92.819
 20
16.1837
 30
0.0
 11
92.819
 21
16.7831
 31
0.0
  0
LINE
  8
0
 62
     0
 10
92.819
 20
16.7831
 30
0.0
 11
78.8197
 21
16.7831
 31
0.0
  0
LINE
  8
0
 62
     0
 10
59.7697
 20
16.7831
 30
0.0
 11
59.7697
 21
16.1837
 31
0.0
  0
LINE
  8
0
 62
     0
 10
59.7697
 20
16.1837
 30
0.0
 11
58.9689
 21
16.1837
 31
0.0
  0
LINE
  8
0
 62
     0
 10
58.9689
 20
16.1837
 30
0.0
 11
58.9689
 21
3.38308
 31
0.0
  0
LINE
  8
0
 62
     0
 10
58.9689
 20
3.38308
 30
0.0
 11
59.7697
 21
3.38308
 31
0.0
  0
LINE
  8
0
 62
     0
 10
59.7697
 20
3.38308
 30
0.0
 11
59.7697
 21
2.78364
 31
0.0
  0
LINE
  8
0
 62
     0
 10
59.7697
 20
2.78364
 30
0.0
 11
73.769
 21
2.78364
 31
0.0
  0
LINE
  8
0
 62
     0
 10
73.769
 20
2.78364
 30
0.0
 11
73.769
 21
3.38308
 31
0.0
  0
LINE
  8
0
 62
     0
 10
73.769
 20
3.38308
 30
0.0
 11
74.5698
 21
3.38308
 31
0.0
  0
LINE
  8
0
 62
     0
 10
74.5698
 20
3.38308
 30
0.0
 11
74.5698
 21
16.1837
 31
0.0
  0
LINE
  8
0
 62
     0
 10
74.5698
 20
16.1837
 30
0.0
 11
73.769
 21
16.1837
 31
0.0
  0
LINE
  8
0
 62
     0
 10
73.769
 20
16.1837
 30
0.0
 11
73.769
 21
16.7831
 31
0.0
  0
LINE
  8
0
 62
     0
 10
73.769
 20
16.7831
 30
0.0
 11
59.7697
 21
16.7831
 31
0.0
  0
LINE
  8
0
 62
     0
 10
107.395
 20
16.7831
 30
0.0
 11
107.395
 21
16.1837
 31
0.0
  0
LINE
  8
0
 62
     0
 10
107.395
 20
16.1837
 30
0.0
 11
106.594
 21
16.1837
 31
0.0
  0
LINE
  8
0
 62
     0
 10
106.594
 20
16.1837
 30
0.0
 11
106.594
 21
3.38308
 31
0.0
  0
LINE
  8
0
 62
     0
 10
106.594
 20
3.38308
 30
0.0
 11
107.395
 21
3.38308
 31
0.0
  0
LINE
  8
0
 62
     0
 10
107.395
 20
3.38308
 30
0.0
 11
107.395
 21
2.78364
 31
0.0
  0
LINE
  8
0
 62
     0
 10
107.395
 20
2.78364
 30
0.0
 11
121.394
 21
2.78364
 31
0.0
  0
LINE
  8
0
 62
     0
 10
121.394
 20
2.78364
 30
0.0
 11
121.394
 21
3.38308
 31
0.0
  0
LINE
  8
0
 62
     0
 10
121.394
 20
3.38308
 30
0.0
 11
122.195
 21
3.38308
 31
0.0
  0
LINE
  8
0
 62
     0
 10
122.195
 20
3.38308
 30
0.0
 11
122.195
 21
16.1837
 31
0.0
  0
LINE
  8
0
 62
     0
 10
122.195
 20
16.1837
 30
0.0
 11
121.394
 21
16.1837
 31
0.0
  0
LINE
  8
0
 62
     0
 10
121.394
 20
16.1837
 30
0.0
 11
121.394
 21
16.7831
 31
0.0
  0
LINE
  8
0
 62
     0
 10
121.394
 20
16.7831
 30
0.0
 11
107.395
 21
16.7831
 31
0.0
  0
LINE
  8
0
 62
     0
 10
231.22
 20
54.8831
 30
0.0
 11
231.22
 21
54.2837
 31
0.0
  0
LINE
  8
0
 62
     0
 10
231.22
 20
54.2837
 30
0.0
 11
230.419
 21
54.2837
 31
0.0
  0
LINE
  8
0
 62
     0
 10
230.419
 20
54.2837
 30
0.0
 11
230.419
 21
41.4831
 31
0.0
  0
LINE
  8
0
 62
     0
 10
230.419
 20
41.4831
 30
0.0
 11
231.22
 21
41.4831
 31
0.0
  0
LINE
  8
0
 62
     0
 10
231.22
 20
41.4831
 30
0.0
 11
231.22
 21
40.8838
 31
0.0
  0
LINE
  8
0
 62
     0
 10
231.22
 20
40.8838
 30
0.0
 11
245.219
 21
40.8838
 31
0.0
  0
LINE
  8
0
 62
     0
 10
245.219
 20
40.8838
 30
0.0
 11
245.219
 21
41.4831
 31
0.0
  0
LINE
  8
0
 62
     0
 10
245.219
 20
41.4831
 30
0.0
 11
246.02
 21
41.4831
 31
0.0
  0
LINE
  8
0
 62
     0
 10
246.02
 20
41.4831
 30
0.0
 11
246.02
 21
54.2837
 31
0.0
  0
LINE
  8
0
 62
     0
 10
246.02
 20
54.2837
 30
0.0
 11
245.219
 21
54.2837
 31
0.0
  0
LINE
  8
0
 62
     0
 10
245.219
 20
54.2837
 30
0.0
 11
245.219
 21
54.8831
 31
0.0
  0
LINE
  8
0
 62
     0
 10
245.219
 20
54.8831
 30
0.0
 11
231.22
 21
54.8831
 31
0.0
  0
LINE
  8
0
 62
     0
 10
212.17
 20
54.8831
 30
0.0
 11
212.17
 21
54.2837
 31
0.0
  0
LINE
  8
0
 62
     0
 10
212.17
 20
54.2837
 30
0.0
 11
211.369
 21
54.2837
 31
0.0
  0
LINE
  8
0
 62
     0
 10
211.369
 20
54.2837
 30
0.0
 11
211.369
 21
41.4831
 31
0.0
  0
LINE
  8
0
 62
     0
 10
211.369
 20
41.4831
 30
0.0
 11
212.17
 21
41.4831
 31
0.0
  0
LINE
  8
0
 62
     0
 10
212.17
 20
41.4831
 30
0.0
 11
212.17
 21
40.8838
 31
0.0
  0
LINE
  8
0
 62
     0
 10
212.17
 20
40.8838
 30
0.0
 11
226.169
 21
40.8838
 31
0.0
  0
LINE
  8
0
 62
     0
 10
226.169
 20
40.8838
 30
0.0
 11
226.169
 21
41.4831
 31
0.0
  0
LINE
  8
0
 62
     0
 10
226.169
 20
41.4831
 30
0.0
 11
226.97
 21
41.4831
 31
0.0
  0
LINE
  8
0
 62
     0
 10
226.97
 20
41.4831
 30
0.0
 11
226.97
 21
54.2837
 31
0.0
  0
LINE
  8
0
 62
     0
 10
226.97
 20
54.2837
 30
0.0
 11
226.169
 21
54.2837
 31
0.0
  0
LINE
  8
0
 62
     0
 10
226.169
 20
54.2837
 30
0.0
 11
226.169
 21
54.8831
 31
0.0
  0
LINE
  8
0
 62
     0
 10
226.169
 20
54.8831
 30
0.0
 11
212.17
 21
54.8831
 31
0.0
  0
LINE
  8
0
 62
     0
 10
193.12
 20
54.8831
 30
0.0
 11
193.12
 21
54.2837
 31
0.0
  0
LINE
  8
0
 62
     0
 10
193.12
 20
54.2837
 30
0.0
 11
192.319
 21
54.2837
 31
0.0
  0
LINE
  8
0
 62
     0
 10
192.319
 20
54.2837
 30
0.0
 11
192.319
 21
41.4831
 31
0.0
  0
LINE
  8
0
 62
     0
 10
192.319
 20
41.4831
 30
0.0
 11
193.12
 21
41.4831
 31
0.0
  0
LINE
  8
0
 62
     0
 10
193.12
 20
41.4831
 30
0.0
 11
193.12
 21
40.8838
 31
0.0
  0
LINE
  8
0
 62
     0
 10
193.12
 20
40.8838
 30
0.0
 11
207.119
 21
40.8838
 31
0.0
  0
LINE
  8
0
 62
     0
 10
207.119
 20
40.8838
 30
0.0
 11
207.119
 21
41.4831
 31
0.0
  0
LINE
  8
0
 62
     0
 10
207.119
 20
41.4831
 30
0.0
 11
207.92
 21
41.4831
 31
0.0
  0
LINE
  8
0
 62
     0
 10
207.92
 20
41.4831
 30
0.0
 11
207.92
 21
54.2837
 31
0.0
  0
LINE
  8
0
 62
     0
 10
207.92
 20
54.2837
 30
0.0
 11
207.119
 21
54.2837
 31
0.0
  0
LINE
  8
0
 62
     0
 10
207.119
 20
54.2837
 30
0.0
 11
207.119
 21
54.8831
 31
0.0
  0
LINE
  8
0
 62
     0
 10
207.119
 20
54.8831
 30
0.0
 11
193.12
 21
54.8831
 31
0.0
  0
LINE
  8
0
 62
     0
 10
174.07
 20
54.8831
 30
0.0
 11
174.07
 21
54.2837
 31
0.0
  0
LINE
  8
0
 62
     0
 10
174.07
 20
54.2837
 30
0.0
 11
173.269
 21
54.2837
 31
0.0
  0
LINE
  8
0
 62
     0
 10
173.269
 20
54.2837
 30
0.0
 11
173.269
 21
41.4831
 31
0.0
  0
LINE
  8
0
 62
     0
 10
173.269
 20
41.4831
 30
0.0
 11
174.07
 21
41.4831
 31
0.0
  0
LINE
  8
0
 62
     0
 10
174.07
 20
41.4831
 30
0.0
 11
174.07
 21
40.8838
 31
0.0
  0
LINE
  8
0
 62
     0
 10
174.07
 20
40.8838
 30
0.0
 11
188.069
 21
40.8838
 31
0.0
  0
LINE
  8
0
 62
     0
 10
188.069
 20
40.8838
 30
0.0
 11
188.069
 21
41.4831
 31
0.0
  0
LINE
  8
0
 62
     0
 10
188.069
 20
41.4831
 30
0.0
 11
188.87
 21
41.4831
 31
0.0
  0
LINE
  8
0
 62
     0
 10
188.87
 20
41.4831
 30
0.0
 11
188.87
 21
54.2837
 31
0.0
  0
LINE
  8
0
 62
     0
 10
188.87
 20
54.2837
 30
0.0
 11
188.069
 21
54.2837
 31
0.0
  0
LINE
  8
0
 62
     0
 10
188.069
 20
54.2837
 30
0.0
 11
188.069
 21
54.8831
 31
0.0
  0
LINE
  8
0
 62
     0
 10
188.069
 20
54.8831
 30
0.0
 11
174.07
 21
54.8831
 31
0.0
  0
LINE
  8
0
 62
     0
 10
155.02
 20
54.8831
 30
0.0
 11
155.02
 21
54.2837
 31
0.0
  0
LINE
  8
0
 62
     0
 10
155.02
 20
54.2837
 30
0.0
 11
154.219
 21
54.2837
 31
0.0
  0
LINE
  8
0
 62
     0
 10
154.219
 20
54.2837
 30
0.0
 11
154.219
 21
41.4831
 31
0.0
  0
LINE
  8
0
 62
     0
 10
154.219
 20
41.4831
 30
0.0
 11
155.02
 21
41.4831
 31
0.0
  0
LINE
  8
0
 62
     0
 10
155.02
 20
41.4831
 30
0.0
 11
155.02
 21
40.8838
 31
0.0
  0
LINE
  8
0
 62
     0
 10
155.02
 20
40.8838
 30
0.0
 11
169.019
 21
40.8838
 31
0.0
  0
LINE
  8
0
 62
     0
 10
169.019
 20
40.8838
 30
0.0
 11
169.019
 21
41.4831
 31
0.0
  0
LINE
  8
0
 62
     0
 10
169.019
 20
41.4831
 30
0.0
 11
169.82
 21
41.4831
 31
0.0
  0
LINE
  8
0
 62
     0
 10
169.82
 20
41.4831
 30
0.0
 11
169.82
 21
54.2837
 31
0.0
  0
LINE
  8
0
 62
     0
 10
169.82
 20
54.2837
 30
0.0
 11
169.019
 21
54.2837
 31
0.0
  0
LINE
  8
0
 62
     0
 10
169.019
 20
54.2837
 30
0.0
 11
169.019
 21
54.8831
 31
0.0
  0
LINE
  8
0
 62
     0
 10
169.019
 20
54.8831
 30
0.0
 11
155.02
 21
54.8831
 31
0.0
  0
LINE
  8
0
 62
     0
 10
135.97
 20
54.8831
 30
0.0
 11
135.97
 21
54.2837
 31
0.0
  0
LINE
  8
0
 62
     0
 10
135.97
 20
54.2837
 30
0.0
 11
135.169
 21
54.2837
 31
0.0
  0
LINE
  8
0
 62
     0
 10
135.169
 20
54.2837
 30
0.0
 11
135.169
 21
41.4831
 31
0.0
  0
LINE
  8
0
 62
     0
 10
135.169
 20
41.4831
 30
0.0
 11
135.97
 21
41.4831
 31
0.0
  0
LINE
  8
0
 62
     0
 10
135.97
 20
41.4831
 30
0.0
 11
135.97
 21
40.8838
 31
0.0
  0
LINE
  8
0
 62
     0
 10
135.97
 20
40.8838
 30
0.0
 11
149.969
 21
40.8838
 31
0.0
  0
LINE
  8
0
 62
     0
 10
149.969
 20
40.8838
 30
0.0
 11
149.969
 21
41.4831
 31
0.0
  0
LINE
  8
0
 62
     0
 10
149.969
 20
41.4831
 30
0.0
 11
150.77
 21
41.4831
 31
0.0
  0
LINE
  8
0
 62
     0
 10
150.77
 20
41.4831
 30
0.0
 11
150.77
 21
54.2837
 31
0.0
  0
LINE
  8
0
 62
     0
 10
150.77
 20
54.2837
 30
0.0
 11
149.969
 21
54.2837
 31
0.0
  0
LINE
  8
0
 62
     0
 10
149.969
 20
54.2837
 30
0.0
 11
149.969
 21
54.8831
 31
0.0
  0
LINE
  8
0
 62
     0
 10
149.969
 20
54.8831
 30
0.0
 11
135.97
 21
54.8831
 31
0.0
  0
LINE
  8
0
 62
     0
 10
78.8197
 20
54.8831
 30
0.0
 11
78.8197
 21
54.2837
 31
0.0
  0
LINE
  8
0
 62
     0
 10
78.8197
 20
54.2837
 30
0.0
 11
78.0189
 21
54.2837
 31
0.0
  0
LINE
  8
0
 62
     0
 10
78.0189
 20
54.2837
 30
0.0
 11
78.0189
 21
41.4831
 31
0.0
  0
LINE
  8
0
 62
     0
 10
78.0189
 20
41.4831
 30
0.0
 11
78.8197
 21
41.4831
 31
0.0
  0
LINE
  8
0
 62
     0
 10
78.8197
 20
41.4831
 30
0.0
 11
78.8197
 21
40.8838
 31
0.0
  0
LINE
  8
0
 62
     0
 10
78.8197
 20
40.8838
 30
0.0
 11
92.819
 21
40.8838
 31
0.0
  0
LINE
  8
0
 62
     0
 10
92.819
 20
40.8838
 30
0.0
 11
92.819
 21
41.4831
 31
0.0
  0
LINE
  8
0
 62
     0
 10
92.819
 20
41.4831
 30
0.0
 11
93.6184
 21
41.4831
 31
0.0
  0
LINE
  8
0
 62
     0
 10
93.6184
 20
41.4831
 30
0.0
 11
93.6184
 21
54.2837
 31
0.0
  0
LINE
  8
0
 62
     0
 10
93.6184
 20
54.2837
 30
0.0
 11
92.819
 21
54.2837
 31
0.0
  0
LINE
  8
0
 62
     0
 10
92.819
 20
54.2837
 30
0.0
 11
92.819
 21
54.8831
 31
0.0
  0
LINE
  8
0
 62
     0
 10
92.819
 20
54.8831
 30
0.0
 11
78.8197
 21
54.8831
 31
0.0
  0
LINE
  8
0
 62
     0
 10
59.7697
 20
54.8831
 30
0.0
 11
59.7697
 21
54.2837
 31
0.0
  0
LINE
  8
0
 62
     0
 10
59.7697
 20
54.2837
 30
0.0
 11
58.9689
 21
54.2837
 31
0.0
  0
LINE
  8
0
 62
     0
 10
58.9689
 20
54.2837
 30
0.0
 11
58.9689
 21
41.4831
 31
0.0
  0
LINE
  8
0
 62
     0
 10
58.9689
 20
41.4831
 30
0.0
 11
59.7697
 21
41.4831
 31
0.0
  0
LINE
  8
0
 62
     0
 10
59.7697
 20
41.4831
 30
0.0
 11
59.7697
 21
40.8838
 31
0.0
  0
LINE
  8
0
 62
     0
 10
59.7697
 20
40.8838
 30
0.0
 11
73.769
 21
40.8838
 31
0.0
  0
LINE
  8
0
 62
     0
 10
73.769
 20
40.8838
 30
0.0
 11
73.769
 21
41.4831
 31
0.0
  0
LINE
  8
0
 62
     0
 10
73.769
 20
41.4831
 30
0.0
 11
74.5698
 21
41.4831
 31
0.0
  0
LINE
  8
0
 62
     0
 10
74.5698
 20
41.4831
 30
0.0
 11
74.5698
 21
54.2837
 31
0.0
  0
LINE
  8
0
 62
     0
 10
74.5698
 20
54.2837
 30
0.0
 11
73.769
 21
54.2837
 31
0.0
  0
LINE
  8
0
 62
     0
 10
73.769
 20
54.2837
 30
0.0
 11
73.769
 21
54.8831
 31
0.0
  0
LINE
  8
0
 62
     0
 10
73.769
 20
54.8831
 30
0.0
 11
59.7697
 21
54.8831
 31
0.0
  0
LINE
  8
0
 62
     0
 10
40.7197
 20
54.8831
 30
0.0
 11
40.7197
 21
54.2837
 31
0.0
  0
LINE
  8
0
 62
     0
 10
40.7197
 20
54.2837
 30
0.0
 11
39.9189
 21
54.2837
 31
0.0
  0
LINE
  8
0
 62
     0
 10
39.9189
 20
54.2837
 30
0.0
 11
39.9189
 21
41.4831
 31
0.0
  0
LINE
  8
0
 62
     0
 10
39.9189
 20
41.4831
 30
0.0
 11
40.7197
 21
41.4831
 31
0.0
  0
LINE
  8
0
 62
     0
 10
40.7197
 20
41.4831
 30
0.0
 11
40.7197
 21
40.8838
 31
0.0
  0
LINE
  8
0
 62
     0
 10
40.7197
 20
40.8838
 30
0.0
 11
54.719
 21
40.8838
 31
0.0
  0
LINE
  8
0
 62
     0
 10
54.719
 20
40.8838
 30
0.0
 11
54.719
 21
41.4831
 31
0.0
  0
LINE
  8
0
 62
     0
 10
54.719
 20
41.4831
 30
0.0
 11
55.5198
 21
41.4831
 31
0.0
  0
LINE
  8
0
 62
     0
 10
55.5198
 20
41.4831
 30
0.0
 11
55.5198
 21
54.2837
 31
0.0
  0
LINE
  8
0
 62
     0
 10
55.5198
 20
54.2837
 30
0.0
 11
54.719
 21
54.2837
 31
0.0
  0
LINE
  8
0
 62
     0
 10
54.719
 20
54.2837
 30
0.0
 11
54.719
 21
54.8831
 31
0.0
  0
LINE
  8
0
 62
     0
 10
54.719
 20
54.8831
 30
0.0
 11
40.7197
 21
54.8831
 31
0.0
  0
LINE
  8
0
 62
     0
 10
21.6697
 20
54.8831
 30
0.0
 11
21.6697
 21
54.2837
 31
0.0
  0
LINE
  8
0
 62
     0
 10
21.6697
 20
54.2837
 30
0.0
 11
20.869
 21
54.2837
 31
0.0
  0
LINE
  8
0
 62
     0
 10
20.869
 20
54.2837
 30
0.0
 11
20.869
 21
41.4831
 31
0.0
  0
LINE
  8
0
 62
     0
 10
20.869
 20
41.4831
 30
0.0
 11
21.6697
 21
41.4831
 31
0.0
  0
LINE
  8
0
 62
     0
 10
21.6697
 20
41.4831
 30
0.0
 11
21.6697
 21
40.8838
 31
0.0
  0
LINE
  8
0
 62
     0
 10
21.6697
 20
40.8838
 30
0.0
 11
35.669
 21
40.8838
 31
0.0
  0
LINE
  8
0
 62
     0
 10
35.669
 20
40.8838
 30
0.0
 11
35.669
 21
41.4831
 31
0.0
  0
LINE
  8
0
 62
     0
 10
35.669
 20
41.4831
 30
0.0
 11
36.4698
 21
41.4831
 31
0.0
  0
LINE
  8
0
 62
     0
 10
36.4698
 20
41.4831
 30
0.0
 11
36.4698
 21
54.2837
 31
0.0
  0
LINE
  8
0
 62
     0
 10
36.4698
 20
54.2837
 30
0.0
 11
35.669
 21
54.2837
 31
0.0
  0
LINE
  8
0
 62
     0
 10
35.669
 20
54.2837
 30
0.0
 11
35.669
 21
54.8831
 31
0.0
  0
LINE
  8
0
 62
     0
 10
35.669
 20
54.8831
 30
0.0
 11
21.6697
 21
54.8831
 31
0.0
  0
LINE
  8
0
 62
     0
 10
2.61965
 20
54.8831
 30
0.0
 11
2.61965
 21
54.2837
 31
0.0
  0
LINE
  8
0
 62
     0
 10
2.61965
 20
54.2837
 30
0.0
 11
1.81901
 21
54.2837
 31
0.0
  0
LINE
  8
0
 62
     0
 10
1.81901
 20
54.2837
 30
0.0
 11
1.81901
 21
41.4831
 31
0.0
  0
LINE
  8
0
 62
     0
 10
1.81901
 20
41.4831
 30
0.0
 11
2.61965
 21
41.4831
 31
0.0
  0
LINE
  8
0
 62
     0
 10
2.61965
 20
41.4831
 30
0.0
 11
2.61965
 21
40.8838
 31
0.0
  0
LINE
  8
0
 62
     0
 10
2.61965
 20
40.8838
 30
0.0
 11
16.6192
 21
40.8838
 31
0.0
  0
LINE
  8
0
 62
     0
 10
16.6192
 20
40.8838
 30
0.0
 11
16.6192
 21
41.4831
 31
0.0
  0
LINE
  8
0
 62
     0
 10
16.6192
 20
41.4831
 30
0.0
 11
17.4198
 21
41.4831
 31
0.0
  0
LINE
  8
0
 62
     0
 10
17.4198
 20
41.4831
 30
0.0
 11
17.4198
 21
54.2837
 31
0.0
  0
LINE
  8
0
 62
     0
 10
17.4198
 20
54.2837
 30
0.0
 11
16.6192
 21
54.2837
 31
0.0
  0
LINE
  8
0
 62
     0
 10
16.6192
 20
54.2837
 30
0.0
 11
16.6192
 21
54.8831
 31
0.0
  0
LINE
  8
0
 62
     0
 10
16.6192
 20
54.8831
 30
0.0
 11
2.61965
 21
54.8831
 31
0.0
  0
LINE
  8
0
 62
     0
 10
231.22
 20
73.9331
 30
0.0
 11
231.22
 21
73.3337
 31
0.0
  0
LINE
  8
0
 62
     0
 10
231.22
 20
73.3337
 30
0.0
 11
230.419
 21
73.3337
 31
0.0
  0
LINE
  8
0
 62
     0
 10
230.419
 20
73.3337
 30
0.0
 11
230.419
 21
60.5331
 31
0.0
  0
LINE
  8
0
 62
     0
 10
230.419
 20
60.5331
 30
0.0
 11
231.22
 21
60.5331
 31
0.0
  0
LINE
  8
0
 62
     0
 10
231.22
 20
60.5331
 30
0.0
 11
231.22
 21
59.9338
 31
0.0
  0
LINE
  8
0
 62
     0
 10
231.22
 20
59.9338
 30
0.0
 11
245.219
 21
59.9338
 31
0.0
  0
LINE
  8
0
 62
     0
 10
245.219
 20
59.9338
 30
0.0
 11
245.219
 21
60.5331
 31
0.0
  0
LINE
  8
0
 62
     0
 10
245.219
 20
60.5331
 30
0.0
 11
246.02
 21
60.5331
 31
0.0
  0
LINE
  8
0
 62
     0
 10
246.02
 20
60.5331
 30
0.0
 11
246.02
 21
73.3337
 31
0.0
  0
LINE
  8
0
 62
     0
 10
246.02
 20
73.3337
 30
0.0
 11
245.219
 21
73.3337
 31
0.0
  0
LINE
  8
0
 62
     0
 10
245.219
 20
73.3337
 30
0.0
 11
245.219
 21
73.9331
 31
0.0
  0
LINE
  8
0
 62
     0
 10
245.219
 20
73.9331
 30
0.0
 11
231.22
 21
73.9331
 31
0.0
  0
LINE
  8
0
 62
     0
 10
212.17
 20
73.9331
 30
0.0
 11
212.17
 21
73.3337
 31
0.0
  0
LINE
  8
0
 62
     0
 10
212.17
 20
73.3337
 30
0.0
 11
211.369
 21
73.3337
 31
0.0
  0
LINE
  8
0
 62
     0
 10
211.369
 20
73.3337
 30
0.0
 11
211.369
 21
60.5331
 31
0.0
  0
LINE
  8
0
 62
     0
 10
211.369
 20
60.5331
 30
0.0
 11
212.17
 21
60.5331
 31
0.0
  0
LINE
  8
0
 62
     0
 10
212.17
 20
60.5331
 30
0.0
 11
212.17
 21
59.9338
 31
0.0
  0
LINE
  8
0
 62
     0
 10
212.17
 20
59.9338
 30
0.0
 11
226.169
 21
59.9338
 31
0.0
  0
LINE
  8
0
 62
     0
 10
226.169
 20
59.9338
 30
0.0
 11
226.169
 21
60.5331
 31
0.0
  0
LINE
  8
0
 62
     0
 10
226.169
 20
60.5331
 30
0.0
 11
226.97
 21
60.5331
 31
0.0
  0
LINE
  8
0
 62
     0
 10
226.97
 20
60.5331
 30
0.0
 11
226.97
 21
73.3337
 31
0.0
  0
LINE
  8
0
 62
     0
 10
226.97
 20
73.3337
 30
0.0
 11
226.169
 21
73.3337
 31
0.0
  0
LINE
  8
0
 62
     0
 10
226.169
 20
73.3337
 30
0.0
 11
226.169
 21
73.9331
 31
0.0
  0
LINE
  8
0
 62
     0
 10
226.169
 20
73.9331
 30
0.0
 11
212.17
 21
73.9331
 31
0.0
  0
LINE
  8
0
 62
     0
 10
193.12
 20
73.9331
 30
0.0
 11
193.12
 21
73.3337
 31
0.0
  0
LINE
  8
0
 62
     0
 10
193.12
 20
73.3337
 30
0.0
 11
192.319
 21
73.3337
 31
0.0
  0
LINE
  8
0
 62
     0
 10
192.319
 20
73.3337
 30
0.0
 11
192.319
 21
60.5331
 31
0.0
  0
LINE
  8
0
 62
     0
 10
192.319
 20
60.5331
 30
0.0
 11
193.12
 21
60.5331
 31
0.0
  0
LINE
  8
0
 62
     0
 10
193.12
 20
60.5331
 30
0.0
 11
193.12
 21
59.9338
 31
0.0
  0
LINE
  8
0
 62
     0
 10
193.12
 20
59.9338
 30
0.0
 11
207.119
 21
59.9338
 31
0.0
  0
LINE
  8
0
 62
     0
 10
207.119
 20
59.9338
 30
0.0
 11
207.119
 21
60.5331
 31
0.0
  0
LINE
  8
0
 62
     0
 10
207.119
 20
60.5331
 30
0.0
 11
207.92
 21
60.5331
 31
0.0
  0
LINE
  8
0
 62
     0
 10
207.92
 20
60.5331
 30
0.0
 11
207.92
 21
73.3337
 31
0.0
  0
LINE
  8
0
 62
     0
 10
207.92
 20
73.3337
 30
0.0
 11
207.119
 21
73.3337
 31
0.0
  0
LINE
  8
0
 62
     0
 10
207.119
 20
73.3337
 30
0.0
 11
207.119
 21
73.9331
 31
0.0
  0
LINE
  8
0
 62
     0
 10
207.119
 20
73.9331
 30
0.0
 11
193.12
 21
73.9331
 31
0.0
  0
LINE
  8
0
 62
     0
 10
174.07
 20
73.9331
 30
0.0
 11
174.07
 21
73.3337
 31
0.0
  0
LINE
  8
0
 62
     0
 10
174.07
 20
73.3337
 30
0.0
 11
173.269
 21
73.3337
 31
0.0
  0
LINE
  8
0
 62
     0
 10
173.269
 20
73.3337
 30
0.0
 11
173.269
 21
60.5331
 31
0.0
  0
LINE
  8
0
 62
     0
 10
173.269
 20
60.5331
 30
0.0
 11
174.07
 21
60.5331
 31
0.0
  0
LINE
  8
0
 62
     0
 10
174.07
 20
60.5331
 30
0.0
 11
174.07
 21
59.9338
 31
0.0
  0
LINE
  8
0
 62
     0
 10
174.07
 20
59.9338
 30
0.0
 11
188.069
 21
59.9338
 31
0.0
  0
LINE
  8
0
 62
     0
 10
188.069
 20
59.9338
 30
0.0
 11
188.069
 21
60.5331
 31
0.0
  0
LINE
  8
0
 62
     0
 10
188.069
 20
60.5331
 30
0.0
 11
188.87
 21
60.5331
 31
0.0
  0
LINE
  8
0
 62
     0
 10
188.87
 20
60.5331
 30
0.0
 11
188.87
 21
73.3337
 31
0.0
  0
LINE
  8
0
 62
     0
 10
188.87
 20
73.3337
 30
0.0
 11
188.069
 21
73.3337
 31
0.0
  0
LINE
  8
0
 62
     0
 10
188.069
 20
73.3337
 30
0.0
 11
188.069
 21
73.9331
 31
0.0
  0
LINE
  8
0
 62
     0
 10
188.069
 20
73.9331
 30
0.0
 11
174.07
 21
73.9331
 31
0.0
  0
LINE
  8
0
 62
     0
 10
155.02
 20
73.9331
 30
0.0
 11
155.02
 21
73.3337
 31
0.0
  0
LINE
  8
0
 62
     0
 10
155.02
 20
73.3337
 30
0.0
 11
154.219
 21
73.3337
 31
0.0
  0
LINE
  8
0
 62
     0
 10
154.219
 20
73.3337
 30
0.0
 11
154.219
 21
60.5331
 31
0.0
  0
LINE
  8
0
 62
     0
 10
154.219
 20
60.5331
 30
0.0
 11
155.02
 21
60.5331
 31
0.0
  0
LINE
  8
0
 62
     0
 10
155.02
 20
60.5331
 30
0.0
 11
155.02
 21
59.9338
 31
0.0
  0
LINE
  8
0
 62
     0
 10
155.02
 20
59.9338
 30
0.0
 11
169.019
 21
59.9338
 31
0.0
  0
LINE
  8
0
 62
     0
 10
169.019
 20
59.9338
 30
0.0
 11
169.019
 21
60.5331
 31
0.0
  0
LINE
  8
0
 62
     0
 10
169.019
 20
60.5331
 30
0.0
 11
169.82
 21
60.5331
 31
0.0
  0
LINE
  8
0
 62
     0
 10
169.82
 20
60.5331
 30
0.0
 11
169.82
 21
73.3337
 31
0.0
  0
LINE
  8
0
 62
     0
 10
169.82
 20
73.3337
 30
0.0
 11
169.019
 21
73.3337
 31
0.0
  0
LINE
  8
0
 62
     0
 10
169.019
 20
73.3337
 30
0.0
 11
169.019
 21
73.9331
 31
0.0
  0
LINE
  8
0
 62
     0
 10
169.019
 20
73.9331
 30
0.0
 11
155.02
 21
73.9331
 31
0.0
  0
LINE
  8
0
 62
     0
 10
135.97
 20
73.9331
 30
0.0
 11
135.97
 21
73.3337
 31
0.0
  0
LINE
  8
0
 62
     0
 10
135.97
 20
73.3337
 30
0.0
 11
135.169
 21
73.3337
 31
0.0
  0
LINE
  8
0
 62
     0
 10
135.169
 20
73.3337
 30
0.0
 11
135.169
 21
60.5331
 31
0.0
  0
LINE
  8
0
 62
     0
 10
135.169
 20
60.5331
 30
0.0
 11
135.97
 21
60.5331
 31
0.0
  0
LINE
  8
0
 62
     0
 10
135.97
 20
60.5331
 30
0.0
 11
135.97
 21
59.9338
 31
0.0
  0
LINE
  8
0
 62
     0
 10
135.97
 20
59.9338
 30
0.0
 11
149.969
 21
59.9338
 31
0.0
  0
LINE
  8
0
 62
     0
 10
149.969
 20
59.9338
 30
0.0
 11
149.969
 21
60.5331
 31
0.0
  0
LINE
  8
0
 62
     0
 10
149.969
 20
60.5331
 30
0.0
 11
150.77
 21
60.5331
 31
0.0
  0
LINE
  8
0
 62
     0
 10
150.77
 20
60.5331
 30
0.0
 11
150.77
 21
73.3337
 31
0.0
  0
LINE
  8
0
 62
     0
 10
150.77
 20
73.3337
 30
0.0
 11
149.969
 21
73.3337
 31
0.0
  0
LINE
  8
0
 62
     0
 10
149.969
 20
73.3337
 30
0.0
 11
149.969
 21
73.9331
 31
0.0
  0
LINE
  8
0
 62
     0
 10
149.969
 20
73.9331
 30
0.0
 11
135.97
 21
73.9331
 31
0.0
  0
LINE
  8
0
 62
     0
 10
78.8197
 20
73.9331
 30
0.0
 11
78.8197
 21
73.3337
 31
0.0
  0
LINE
  8
0
 62
     0
 10
78.8197
 20
73.3337
 30
0.0
 11
78.0189
 21
73.3337
 31
0.0
  0
LINE
  8
0
 62
     0
 10
78.0189
 20
73.3337
 30
0.0
 11
78.0189
 21
60.5331
 31
0.0
  0
LINE
  8
0
 62
     0
 10
78.0189
 20
60.5331
 30
0.0
 11
78.8197
 21
60.5331
 31
0.0
  0
LINE
  8
0
 62
     0
 10
78.8197
 20
60.5331
 30
0.0
 11
78.8197
 21
59.9338
 31
0.0
  0
LINE
  8
0
 62
     0
 10
78.8197
 20
59.9338
 30
0.0
 11
92.819
 21
59.9338
 31
0.0
  0
LINE
  8
0
 62
     0
 10
92.819
 20
59.9338
 30
0.0
 11
92.819
 21
60.5331
 31
0.0
  0
LINE
  8
0
 62
     0
 10
92.819
 20
60.5331
 30
0.0
 11
93.6184
 21
60.5331
 31
0.0
  0
LINE
  8
0
 62
     0
 10
93.6184
 20
60.5331
 30
0.0
 11
93.6184
 21
73.3337
 31
0.0
  0
LINE
  8
0
 62
     0
 10
93.6184
 20
73.3337
 30
0.0
 11
92.819
 21
73.3337
 31
0.0
  0
LINE
  8
0
 62
     0
 10
92.819
 20
73.3337
 30
0.0
 11
92.819
 21
73.9331
 31
0.0
  0
LINE
  8
0
 62
     0
 10
92.819
 20
73.9331
 30
0.0
 11
78.8197
 21
73.9331
 31
0.0
  0
LINE
  8
0
 62
     0
 10
59.7697
 20
73.9331
 30
0.0
 11
59.7697
 21
73.3337
 31
0.0
  0
LINE
  8
0
 62
     0
 10
59.7697
 20
73.3337
 30
0.0
 11
58.9689
 21
73.3337
 31
0.0
  0
LINE
  8
0
 62
     0
 10
58.9689
 20
73.3337
 30
0.0
 11
58.9689
 21
60.5331
 31
0.0
  0
LINE
  8
0
 62
     0
 10
58.9689
 20
60.5331
 30
0.0
 11
59.7697
 21
60.5331
 31
0.0
  0
LINE
  8
0
 62
     0
 10
59.7697
 20
60.5331
 30
0.0
 11
59.7697
 21
59.9338
 31
0.0
  0
LINE
  8
0
 62
     0
 10
59.7697
 20
59.9338
 30
0.0
 11
73.769
 21
59.9338
 31
0.0
  0
LINE
  8
0
 62
     0
 10
73.769
 20
59.9338
 30
0.0
 11
73.769
 21
60.5331
 31
0.0
  0
LINE
  8
0
 62
     0
 10
73.769
 20
60.5331
 30
0.0
 11
74.5698
 21
60.5331
 31
0.0
  0
LINE
  8
0
 62
     0
 10
74.5698
 20
60.5331
 30
0.0
 11
74.5698
 21
73.3337
 31
0.0
  0
LINE
  8
0
 62
     0
 10
74.5698
 20
73.3337
 30
0.0
 11
73.769
 21
73.3337
 31
0.0
  0
LINE
  8
0
 62
     0
 10
73.769
 20
73.3337
 30
0.0
 11
73.769
 21
73.9331
 31
0.0
  0
LINE
  8
0
 62
     0
 10
73.769
 20
73.9331
 30
0.0
 11
59.7697
 21
73.9331
 31
0.0
  0
LINE
  8
0
 62
     0
 10
40.7197
 20
73.9331
 30
0.0
 11
40.7197
 21
73.3337
 31
0.0
  0
LINE
  8
0
 62
     0
 10
40.7197
 20
73.3337
 30
0.0
 11
39.9189
 21
73.3337
 31
0.0
  0
LINE
  8
0
 62
     0
 10
39.9189
 20
73.3337
 30
0.0
 11
39.9189
 21
60.5331
 31
0.0
  0
LINE
  8
0
 62
     0
 10
39.9189
 20
60.5331
 30
0.0
 11
40.7197
 21
60.5331
 31
0.0
  0
LINE
  8
0
 62
     0
 10
40.7197
 20
60.5331
 30
0.0
 11
40.7197
 21
59.9338
 31
0.0
  0
LINE
  8
0
 62
     0
 10
40.7197
 20
59.9338
 30
0.0
 11
54.719
 21
59.9338
 31
0.0
  0
LINE
  8
0
 62
     0
 10
54.719
 20
59.9338
 30
0.0
 11
54.719
 21
60.5331
 31
0.0
  0
LINE
  8
0
 62
     0
 10
54.719
 20
60.5331
 30
0.0
 11
55.5198
 21
60.5331
 31
0.0
  0
LINE
  8
0
 62
     0
 10
55.5198
 20
60.5331
 30
0.0
 11
55.5198
 21
73.3337
 31
0.0
  0
LINE
  8
0
 62
     0
 10
55.5198
 20
73.3337
 30
0.0
 11
54.719
 21
73.3337
 31
0.0
  0
LINE
  8
0
 62
     0
 10
54.719
 20
73.3337
 30
0.0
 11
54.719
 21
73.9331
 31
0.0
  0
LINE
  8
0
 62
     0
 10
54.719
 20
73.9331
 30
0.0
 11
40.7197
 21
73.9331
 31
0.0
  0
LINE
  8
0
 62
     0
 10
21.6697
 20
73.9331
 30
0.0
 11
21.6697
 21
73.3337
 31
0.0
  0
LINE
  8
0
 62
     0
 10
21.6697
 20
73.3337
 30
0.0
 11
20.869
 21
73.3337
 31
0.0
  0
LINE
  8
0
 62
     0
 10
20.869
 20
73.3337
 30
0.0
 11
20.869
 21
60.5331
 31
0.0
  0
LINE
  8
0
 62
     0
 10
20.869
 20
60.5331
 30
0.0
 11
21.6697
 21
60.5331
 31
0.0
  0
LINE
  8
0
 62
     0
 10
21.6697
 20
60.5331
 30
0.0
 11
21.6697
 21
59.9338
 31
0.0
  0
LINE
  8
0
 62
     0
 10
21.6697
 20
59.9338
 30
0.0
 11
35.669
 21
59.9338
 31
0.0
  0
LINE
  8
0
 62
     0
 10
35.669
 20
59.9338
 30
0.0
 11
35.669
 21
60.5331
 31
0.0
  0
LINE
  8
0
 62
     0
 10
35.669
 20
60.5331
 30
0.0
 11
36.4698
 21
60.5331
 31
0.0
  0
LINE
  8
0
 62
     0
 10
36.4698
 20
60.5331
 30
0.0
 11
36.4698
 21
73.3337
 31
0.0
  0
LINE
  8
0
 62
     0
 10
36.4698
 20
73.3337
 30
0.0
 11
35.669
 21
73.3337
 31
0.0
  0
LINE
  8
0
 62
     0
 10
35.669
 20
73.3337
 30
0.0
 11
35.669
 21
73.9331
 31
0.0
  0
LINE
  8
0
 62
     0
 10
35.669
 20
73.9331
 30
0.0
 11
21.6697
 21
73.9331
 31
0.0
  0
LINE
  8
0
 62
     0
 10
2.61965
 20
73.9331
 30
0.0
 11
2.61965
 21
73.3337
 31
0.0
  0
LINE
  8
0
 62
     0
 10
2.61965
 20
73.3337
 30
0.0
 11
1.81901
 21
73.3337
 31
0.0
  0
LINE
  8
0
 62
     0
 10
1.81901
 20
73.3337
 30
0.0
 11
1.81901
 21
60.5331
 31
0.0
  0
LINE
  8
0
 62
     0
 10
1.81901
 20
60.5331
 30
0.0
 11
2.61965
 21
60.5331
 31
0.0
  0
LINE
  8
0
 62
     0
 10
2.61965
 20
60.5331
 30
0.0
 11
2.61965
 21
59.9338
 31
0.0
  0
LINE
  8
0
 62
     0
 10
2.61965
 20
59.9338
 30
0.0
 11
16.6192
 21
59.9338
 31
0.0
  0
LINE
  8
0
 62
     0
 10
16.6192
 20
59.9338
 30
0.0
 11
16.6192
 21
60.5331
 31
0.0
  0
LINE
  8
0
 62
     0
 10
16.6192
 20
60.5331
 30
0.0
 11
17.4198
 21
60.5331
 31
0.0
  0
LINE
  8
0
 62
     0
 10
17.4198
 20
60.5331
 30
0.0
 11
17.4198
 21
73.3337
 31
0.0
  0
LINE
  8
0
 62
     0
 10
17.4198
 20
73.3337
 30
0.0
 11
16.6192
 21
73.3337
 31
0.0
  0
LINE
  8
0
 62
     0
 10
16.6192
 20
73.3337
 30
0.0
 11
16.6192
 21
73.9331
 31
0.0
  0
LINE
  8
0
 62
     0
 10
16.6192
 20
73.9331
 30
0.0
 11
2.61965
 21
73.9331
 31
0.0
  0
ENDSEC
  0
EOF
