<?xml version="1.0"?>
<!-- Generated by SVGo -->
<svg width="257.652mm" height="67.152mm"
     viewBox="0.000 0.000 257.652 67.152"
     xmlns="http://www.w3.org/2000/svg" 
     xmlns:xlink="http://www.w3.org/1999/xlink">
<polygon points="252.652,62.151 5.001,62.151 5.001,5.001 252.652,5.001" style="fill:none;stroke-width:0.050000mm;stroke:black"/>
<polygon points="178.976,45.626 178.976,46.226 178.176,46.226 178.176,59.026 178.976,59.026 178.976,59.626 192.976,59.626 192.976,59.026 193.776,59.026 193.776,46.226 192.976,46.226 192.976,45.626" style="fill:none;stroke-width:0.050000mm;stroke:black"/>
<polygon points="159.926,45.626 159.926,46.226 159.126,46.226 159.126,59.026 159.926,59.026 159.926,59.626 173.926,59.626 173.926,59.026 174.726,59.026 174.726,46.226 173.926,46.226 173.926,45.626" style="fill:none;stroke-width:0.050000mm;stroke:black"/>
<polygon points="64.676,45.626 64.676,46.226 63.876,46.226 63.876,59.026 64.676,59.026 64.676,59.626 78.676,59.626 78.676,59.026 79.476,59.026 79.476,46.226 78.676,46.226 78.676,45.626" style="fill:none;stroke-width:0.050000mm;stroke:black"/>
<polygon points="45.626,45.626 45.626,46.226 44.826,46.226 44.826,59.026 45.626,59.026 45.626,59.626 59.626,59.626 59.626,59.026 60.426,59.026 60.426,46.226 59.626,46.226 59.626,45.626" style="fill:none;stroke-width:0.050000mm;stroke:black"/>
<polygon points="236.126,26.576 236.126,27.176 235.326,27.176 235.326,39.976 236.126,39.976 236.126,40.576 250.126,40.576 250.126,39.976 250.926,39.976 250.926,27.176 250.126,27.176 250.126,26.576" style="fill:none;stroke-width:0.050000mm;stroke:black"/>
<polygon points="217.076,26.576 217.076,27.176 216.276,27.176 216.276,39.976 217.076,39.976 217.076,40.576 231.076,40.576 231.076,39.976 231.876,39.976 231.876,27.176 231.076,27.176 231.076,26.576" style="fill:none;stroke-width:0.050000mm;stroke:black"/>
<polygon points="198.026,26.576 198.026,27.176 197.226,27.176 197.226,39.976 198.026,39.976 198.026,40.576 212.026,40.576 212.026,39.976 212.826,39.976 212.826,27.176 212.026,27.176 212.026,26.576" style="fill:none;stroke-width:0.050000mm;stroke:black"/>
<polygon points="178.976,26.576 178.976,27.176 178.176,27.176 178.176,39.976 178.976,39.976 178.976,40.576 192.976,40.576 192.976,39.976 193.776,39.976 193.776,27.176 192.976,27.176 192.976,26.576" style="fill:none;stroke-width:0.050000mm;stroke:black"/>
<polygon points="159.926,26.576 159.926,27.176 159.126,27.176 159.126,39.976 159.926,39.976 159.926,40.576 173.926,40.576 173.926,39.976 174.726,39.976 174.726,27.176 173.926,27.176 173.926,26.576" style="fill:none;stroke-width:0.050000mm;stroke:black"/>
<polygon points="140.876,26.576 140.876,27.176 140.076,27.176 140.076,39.976 140.876,39.976 140.876,40.576 154.876,40.576 154.876,39.976 155.676,39.976 155.676,27.176 154.876,27.176 154.876,26.576" style="fill:none;stroke-width:0.050000mm;stroke:black"/>
<polygon points="83.726,26.576 83.726,27.176 82.926,27.176 82.926,39.976 83.726,39.976 83.726,40.576 97.726,40.576 97.726,39.976 98.525,39.976 98.525,27.176 97.726,27.176 97.726,26.576" style="fill:none;stroke-width:0.050000mm;stroke:black"/>
<polygon points="64.676,26.576 64.676,27.176 63.876,27.176 63.876,39.976 64.676,39.976 64.676,40.576 78.676,40.576 78.676,39.976 79.476,39.976 79.476,27.176 78.676,27.176 78.676,26.576" style="fill:none;stroke-width:0.050000mm;stroke:black"/>
<polygon points="45.626,26.576 45.626,27.176 44.826,27.176 44.826,39.976 45.626,39.976 45.626,40.576 59.626,40.576 59.626,39.976 60.426,39.976 60.426,27.176 59.626,27.176 59.626,26.576" style="fill:none;stroke-width:0.050000mm;stroke:black"/>
<polygon points="26.576,26.576 26.576,27.176 25.776,27.176 25.776,39.976 26.576,39.976 26.576,40.576 40.576,40.576 40.576,39.976 41.376,39.976 41.376,27.176 40.576,27.176 40.576,26.576" style="fill:none;stroke-width:0.050000mm;stroke:black"/>
<polygon points="7.526,26.576 7.526,27.176 6.726,27.176 6.726,39.976 7.526,39.976 7.526,40.576 21.526,40.576 21.526,39.976 22.326,39.976 22.326,27.176 21.526,27.176 21.526,26.576" style="fill:none;stroke-width:0.050000mm;stroke:black"/>
<polygon points="236.126,7.526 236.126,8.126 235.326,8.126 235.326,20.926 236.126,20.926 236.126,21.526 250.126,21.526 250.126,20.926 250.926,20.926 250.926,8.126 250.126,8.126 250.126,7.526" style="fill:none;stroke-width:0.050000mm;stroke:black"/>
<polygon points="217.076,7.526 217.076,8.126 216.276,8.126 216.276,20.926 217.076,20.926 217.076,21.526 231.076,21.526 231.076,20.926 231.876,20.926 231.876,8.126 231.076,8.126 231.076,7.526" style="fill:none;stroke-width:0.050000mm;stroke:black"/>
<polygon points="198.026,7.526 198.026,8.126 197.226,8.126 197.226,20.926 198.026,20.926 198.026,21.526 212.026,21.526 212.026,20.926 212.826,20.926 212.826,8.126 212.026,8.126 212.026,7.526" style="fill:none;stroke-width:0.050000mm;stroke:black"/>
<polygon points="178.976,7.526 178.976,8.126 178.176,8.126 178.176,20.926 178.976,20.926 178.976,21.526 192.976,21.526 192.976,20.926 193.776,20.926 193.776,8.126 192.976,8.126 192.976,7.526" style="fill:none;stroke-width:0.050000mm;stroke:black"/>
<polygon points="159.926,7.526 159.926,8.126 159.126,8.126 159.126,20.926 159.926,20.926 159.926,21.526 173.926,21.526 173.926,20.926 174.726,20.926 174.726,8.126 173.926,8.126 173.926,7.526" style="fill:none;stroke-width:0.050000mm;stroke:black"/>
<polygon points="140.876,7.526 140.876,8.126 140.076,8.126 140.076,20.926 140.876,20.926 140.876,21.526 154.876,21.526 154.876,20.926 155.676,20.926 155.676,8.126 154.876,8.126 154.876,7.526" style="fill:none;stroke-width:0.050000mm;stroke:black"/>
<polygon points="83.726,7.526 83.726,8.126 82.926,8.126 82.926,20.926 83.726,20.926 83.726,21.526 97.726,21.526 97.726,20.926 98.525,20.926 98.525,8.126 97.726,8.126 97.726,7.526" style="fill:none;stroke-width:0.050000mm;stroke:black"/>
<polygon points="64.676,7.526 64.676,8.126 63.876,8.126 63.876,20.926 64.676,20.926 64.676,21.526 78.676,21.526 78.676,20.926 79.476,20.926 79.476,8.126 78.676,8.126 78.676,7.526" style="fill:none;stroke-width:0.050000mm;stroke:black"/>
<polygon points="45.626,7.526 45.626,8.126 44.826,8.126 44.826,20.926 45.626,20.926 45.626,21.526 59.626,21.526 59.626,20.926 60.426,20.926 60.426,8.126 59.626,8.126 59.626,7.526" style="fill:none;stroke-width:0.050000mm;stroke:black"/>
<polygon points="26.576,7.526 26.576,8.126 25.776,8.126 25.776,20.926 26.576,20.926 26.576,21.526 40.576,21.526 40.576,20.926 41.376,20.926 41.376,8.126 40.576,8.126 40.576,7.526" style="fill:none;stroke-width:0.050000mm;stroke:black"/>
<polygon points="7.526,7.526 7.526,8.126 6.726,8.126 6.726,20.926 7.526,20.926 7.526,21.526 21.526,21.526 21.526,20.926 22.326,20.926 22.326,8.126 21.526,8.126 21.526,7.526" style="fill:none;stroke-width:0.050000mm;stroke:black"/>
</svg>
