G04 #@! TF.GenerationSoftware,KiCad,Pcbnew,(5.99.0-10014-g15e640b5fe)*
G04 #@! TF.CreationDate,2021-03-28T13:55:16-07:00*
G04 #@! TF.ProjectId,unisplit_orthosteno,756e6973-706c-4697-945f-6f7274686f73,rev?*
G04 #@! TF.SameCoordinates,Original*
G04 #@! TF.FileFunction,Soldermask,Bot*
G04 #@! TF.FilePolarity,Negative*
%FSLAX46Y46*%
G04 Gerber Fmt 4.6, Leading zero omitted, Abs format (unit mm)*
G04 Created by KiCad (PCBNEW (5.99.0-10014-g15e640b5fe)) date 2021-03-28 13:55:16*
%MOMM*%
%LPD*%
G01*
G04 APERTURE LIST*
G04 Aperture macros list*
%AMRoundRect*
0 Rectangle with rounded corners*
0 $1 Rounding radius*
0 $2 $3 $4 $5 $6 $7 $8 $9 X,Y pos of 4 corners*
0 Add a 4 corners polygon primitive as box body*
4,1,4,$2,$3,$4,$5,$6,$7,$8,$9,$2,$3,0*
0 Add four circle primitives for the rounded corners*
1,1,$1+$1,$2,$3*
1,1,$1+$1,$4,$5*
1,1,$1+$1,$6,$7*
1,1,$1+$1,$8,$9*
0 Add four rect primitives between the rounded corners*
20,1,$1+$1,$2,$3,$4,$5,0*
20,1,$1+$1,$4,$5,$6,$7,0*
20,1,$1+$1,$6,$7,$8,$9,0*
20,1,$1+$1,$8,$9,$2,$3,0*%
%AMHorizOval*
0 Thick line with rounded ends*
0 $1 width*
0 $2 $3 position (X,Y) of the first rounded end (center of the circle)*
0 $4 $5 position (X,Y) of the second rounded end (center of the circle)*
0 Add line between two ends*
20,1,$1,$2,$3,$4,$5,0*
0 Add two circle primitives to create the rounded ends*
1,1,$1,$2,$3*
1,1,$1,$4,$5*%
G04 Aperture macros list end*
%ADD10C,1.700000*%
%ADD11C,1.750000*%
%ADD12C,1.200000*%
%ADD13C,3.987800*%
%ADD14HorizOval,2.250000X0.019771X0.290016X-0.019771X-0.290016X0*%
%ADD15C,2.000000*%
%ADD16C,2.250000*%
%ADD17HorizOval,2.250000X0.654995X0.730004X-0.654995X-0.730004X0*%
%ADD18C,2.200000*%
%ADD19R,1.200000X1.400000*%
%ADD20RoundRect,0.250000X-0.250000X-0.475000X0.250000X-0.475000X0.250000X0.475000X-0.250000X0.475000X0*%
%ADD21RoundRect,0.250000X0.262500X0.450000X-0.262500X0.450000X-0.262500X-0.450000X0.262500X-0.450000X0*%
%ADD22R,1.800000X1.100000*%
%ADD23RoundRect,0.250000X-0.450000X0.262500X-0.450000X-0.262500X0.450000X-0.262500X0.450000X0.262500X0*%
%ADD24C,0.750000*%
%ADD25RoundRect,0.050000X-0.300000X-0.725000X0.300000X-0.725000X0.300000X0.725000X-0.300000X0.725000X0*%
%ADD26RoundRect,0.050000X-0.150000X-0.725000X0.150000X-0.725000X0.150000X0.725000X-0.150000X0.725000X0*%
%ADD27O,1.100000X2.200000*%
%ADD28O,1.100000X1.700000*%
%ADD29RoundRect,0.250000X0.450000X-0.262500X0.450000X0.262500X-0.450000X0.262500X-0.450000X-0.262500X0*%
%ADD30RoundRect,0.250000X0.250000X0.475000X-0.250000X0.475000X-0.250000X-0.475000X0.250000X-0.475000X0*%
%ADD31R,0.550000X1.500000*%
%ADD32R,1.500000X0.550000*%
%ADD33RoundRect,0.250000X-0.262500X-0.450000X0.262500X-0.450000X0.262500X0.450000X-0.262500X0.450000X0*%
%ADD34RoundRect,0.250000X-0.475000X0.250000X-0.475000X-0.250000X0.475000X-0.250000X0.475000X0.250000X0*%
%ADD35RoundRect,0.250000X0.475000X-0.250000X0.475000X0.250000X-0.475000X0.250000X-0.475000X-0.250000X0*%
%ADD36RoundRect,0.250000X-0.625000X0.375000X-0.625000X-0.375000X0.625000X-0.375000X0.625000X0.375000X0*%
%ADD37R,1.400000X1.200000*%
%ADD38R,1.400000X1.000000*%
G04 APERTURE END LIST*
D10*
X42806250Y-69850000D03*
D11*
X42386250Y-69850000D03*
D12*
X32086250Y-74050000D03*
D11*
X32226250Y-69850000D03*
D13*
X37306250Y-69850000D03*
D10*
X31806250Y-69850000D03*
D14*
X39826021Y-65059984D03*
D15*
X42306250Y-66050000D03*
D16*
X39846250Y-64770000D03*
D15*
X37306250Y-63950000D03*
D17*
X34151245Y-66579996D03*
D16*
X34806250Y-65850000D03*
D10*
X61856250Y-69850000D03*
D13*
X56356250Y-69850000D03*
D12*
X51136250Y-74050000D03*
D10*
X50856250Y-69850000D03*
D11*
X51276250Y-69850000D03*
X61436250Y-69850000D03*
D14*
X58876021Y-65059984D03*
D15*
X61356250Y-66050000D03*
D16*
X58896250Y-64770000D03*
X53856250Y-65850000D03*
D17*
X53201245Y-66579996D03*
D15*
X56356250Y-63950000D03*
D11*
X80486250Y-69850000D03*
D12*
X70186250Y-74050000D03*
D13*
X75406250Y-69850000D03*
D10*
X69906250Y-69850000D03*
X80906250Y-69850000D03*
D11*
X70326250Y-69850000D03*
D16*
X77946250Y-64770000D03*
D14*
X77926021Y-65059984D03*
D15*
X80406250Y-66050000D03*
X75406250Y-63950000D03*
D16*
X72906250Y-65850000D03*
D17*
X72251245Y-66579996D03*
D10*
X99956250Y-69850000D03*
D11*
X89376250Y-69850000D03*
D10*
X88956250Y-69850000D03*
D12*
X89236250Y-74050000D03*
D13*
X94456250Y-69850000D03*
D11*
X99536250Y-69850000D03*
D14*
X96976021Y-65059984D03*
D15*
X99456250Y-66050000D03*
D16*
X96996250Y-64770000D03*
X91956250Y-65850000D03*
D15*
X94456250Y-63950000D03*
D17*
X91301245Y-66579996D03*
D12*
X108286250Y-74050000D03*
D10*
X108006250Y-69850000D03*
D13*
X113506250Y-69850000D03*
D10*
X119006250Y-69850000D03*
D11*
X118586250Y-69850000D03*
X108426250Y-69850000D03*
D15*
X118506250Y-66050000D03*
D14*
X116026021Y-65059984D03*
D16*
X116046250Y-64770000D03*
D17*
X110351245Y-66579996D03*
D16*
X111006250Y-65850000D03*
D15*
X113506250Y-63950000D03*
D10*
X165156250Y-69850000D03*
D11*
X165576250Y-69850000D03*
D10*
X176156250Y-69850000D03*
D13*
X170656250Y-69850000D03*
D12*
X165436250Y-74050000D03*
D11*
X175736250Y-69850000D03*
D16*
X173196250Y-64770000D03*
D14*
X173176021Y-65059984D03*
D15*
X175656250Y-66050000D03*
D17*
X167501245Y-66579996D03*
D15*
X170656250Y-63950000D03*
D16*
X168156250Y-65850000D03*
D11*
X184626250Y-69850000D03*
X194786250Y-69850000D03*
D12*
X184486250Y-74050000D03*
D10*
X184206250Y-69850000D03*
D13*
X189706250Y-69850000D03*
D10*
X195206250Y-69850000D03*
D14*
X192226021Y-65059984D03*
D15*
X194706250Y-66050000D03*
D16*
X192246250Y-64770000D03*
X187206250Y-65850000D03*
D15*
X189706250Y-63950000D03*
D17*
X186551245Y-66579996D03*
D12*
X203536250Y-74050000D03*
D13*
X208756250Y-69850000D03*
D11*
X203676250Y-69850000D03*
D10*
X203256250Y-69850000D03*
D11*
X213836250Y-69850000D03*
D10*
X214256250Y-69850000D03*
D15*
X213756250Y-66050000D03*
D14*
X211276021Y-65059984D03*
D16*
X211296250Y-64770000D03*
D17*
X205601245Y-66579996D03*
D15*
X208756250Y-63950000D03*
D16*
X206256250Y-65850000D03*
D13*
X227806250Y-69850000D03*
D10*
X222306250Y-69850000D03*
X233306250Y-69850000D03*
D12*
X222586250Y-74050000D03*
D11*
X232886250Y-69850000D03*
X222726250Y-69850000D03*
D16*
X230346250Y-64770000D03*
D14*
X230326021Y-65059984D03*
D15*
X232806250Y-66050000D03*
X227806250Y-63950000D03*
D16*
X225306250Y-65850000D03*
D17*
X224651245Y-66579996D03*
D11*
X241776250Y-69850000D03*
D10*
X252356250Y-69850000D03*
D11*
X251936250Y-69850000D03*
D12*
X241636250Y-74050000D03*
D13*
X246856250Y-69850000D03*
D10*
X241356250Y-69850000D03*
D15*
X251856250Y-66050000D03*
D14*
X249376021Y-65059984D03*
D16*
X249396250Y-64770000D03*
X244356250Y-65850000D03*
D17*
X243701245Y-66579996D03*
D15*
X246856250Y-63950000D03*
D10*
X271406250Y-69850000D03*
D11*
X270986250Y-69850000D03*
D12*
X260686250Y-74050000D03*
D10*
X260406250Y-69850000D03*
D13*
X265906250Y-69850000D03*
D11*
X260826250Y-69850000D03*
D14*
X268426021Y-65059984D03*
D16*
X268446250Y-64770000D03*
D15*
X270906250Y-66050000D03*
D16*
X263406250Y-65850000D03*
D17*
X262751245Y-66579996D03*
D15*
X265906250Y-63950000D03*
D11*
X32226250Y-88900000D03*
D10*
X42806250Y-88900000D03*
X31806250Y-88900000D03*
D13*
X37306250Y-88900000D03*
D12*
X32086250Y-93100000D03*
D11*
X42386250Y-88900000D03*
D16*
X39846250Y-83820000D03*
D15*
X42306250Y-85100000D03*
D14*
X39826021Y-84109984D03*
D17*
X34151245Y-85629996D03*
D16*
X34806250Y-84900000D03*
D15*
X37306250Y-83000000D03*
D11*
X51276250Y-88900000D03*
X61436250Y-88900000D03*
D13*
X56356250Y-88900000D03*
D10*
X50856250Y-88900000D03*
X61856250Y-88900000D03*
D12*
X51136250Y-93100000D03*
D14*
X58876021Y-84109984D03*
D16*
X58896250Y-83820000D03*
D15*
X61356250Y-85100000D03*
X56356250Y-83000000D03*
D17*
X53201245Y-85629996D03*
D16*
X53856250Y-84900000D03*
D11*
X70326250Y-88900000D03*
X80486250Y-88900000D03*
D10*
X80906250Y-88900000D03*
X69906250Y-88900000D03*
D12*
X70186250Y-93100000D03*
D13*
X75406250Y-88900000D03*
D16*
X77946250Y-83820000D03*
D15*
X80406250Y-85100000D03*
D14*
X77926021Y-84109984D03*
D15*
X75406250Y-83000000D03*
D16*
X72906250Y-84900000D03*
D17*
X72251245Y-85629996D03*
D10*
X88956250Y-88900000D03*
D13*
X94456250Y-88900000D03*
D10*
X99956250Y-88900000D03*
D11*
X89376250Y-88900000D03*
D12*
X89236250Y-93100000D03*
D11*
X99536250Y-88900000D03*
D14*
X96976021Y-84109984D03*
D16*
X96996250Y-83820000D03*
D15*
X99456250Y-85100000D03*
D16*
X91956250Y-84900000D03*
D17*
X91301245Y-85629996D03*
D15*
X94456250Y-83000000D03*
D10*
X119006250Y-88900000D03*
D12*
X108286250Y-93100000D03*
D11*
X118586250Y-88900000D03*
X108426250Y-88900000D03*
D10*
X108006250Y-88900000D03*
D13*
X113506250Y-88900000D03*
D16*
X116046250Y-83820000D03*
D14*
X116026021Y-84109984D03*
D15*
X118506250Y-85100000D03*
D16*
X111006250Y-84900000D03*
D17*
X110351245Y-85629996D03*
D15*
X113506250Y-83000000D03*
D10*
X165156250Y-88900000D03*
D12*
X165436250Y-93100000D03*
D10*
X176156250Y-88900000D03*
D11*
X175736250Y-88900000D03*
X165576250Y-88900000D03*
D13*
X170656250Y-88900000D03*
D16*
X173196250Y-83820000D03*
D14*
X173176021Y-84109984D03*
D15*
X175656250Y-85100000D03*
D16*
X168156250Y-84900000D03*
D15*
X170656250Y-83000000D03*
D17*
X167501245Y-85629996D03*
D12*
X184486250Y-93100000D03*
D13*
X189706250Y-88900000D03*
D11*
X194786250Y-88900000D03*
D10*
X195206250Y-88900000D03*
D11*
X184626250Y-88900000D03*
D10*
X184206250Y-88900000D03*
D15*
X194706250Y-85100000D03*
D16*
X192246250Y-83820000D03*
D14*
X192226021Y-84109984D03*
D16*
X187206250Y-84900000D03*
D17*
X186551245Y-85629996D03*
D15*
X189706250Y-83000000D03*
D11*
X203676250Y-88900000D03*
D10*
X203256250Y-88900000D03*
D12*
X203536250Y-93100000D03*
D13*
X208756250Y-88900000D03*
D10*
X214256250Y-88900000D03*
D11*
X213836250Y-88900000D03*
D16*
X211296250Y-83820000D03*
D14*
X211276021Y-84109984D03*
D15*
X213756250Y-85100000D03*
X208756250Y-83000000D03*
D17*
X205601245Y-85629996D03*
D16*
X206256250Y-84900000D03*
D10*
X233306250Y-88900000D03*
D13*
X227806250Y-88900000D03*
D10*
X222306250Y-88900000D03*
D11*
X232886250Y-88900000D03*
X222726250Y-88900000D03*
D12*
X222586250Y-93100000D03*
D15*
X232806250Y-85100000D03*
D16*
X230346250Y-83820000D03*
D14*
X230326021Y-84109984D03*
D15*
X227806250Y-83000000D03*
D17*
X224651245Y-85629996D03*
D16*
X225306250Y-84900000D03*
D13*
X246856250Y-88900000D03*
D10*
X252356250Y-88900000D03*
D12*
X241636250Y-93100000D03*
D11*
X251936250Y-88900000D03*
X241776250Y-88900000D03*
D10*
X241356250Y-88900000D03*
D16*
X249396250Y-83820000D03*
D14*
X249376021Y-84109984D03*
D15*
X251856250Y-85100000D03*
D17*
X243701245Y-85629996D03*
D16*
X244356250Y-84900000D03*
D15*
X246856250Y-83000000D03*
D11*
X260826250Y-88900000D03*
D12*
X260686250Y-93100000D03*
D11*
X270986250Y-88900000D03*
D13*
X265906250Y-88900000D03*
D10*
X260406250Y-88900000D03*
X271406250Y-88900000D03*
D16*
X268446250Y-83820000D03*
D15*
X270906250Y-85100000D03*
D14*
X268426021Y-84109984D03*
D16*
X263406250Y-84900000D03*
D15*
X265906250Y-83000000D03*
D17*
X262751245Y-85629996D03*
D11*
X70326250Y-127000000D03*
D10*
X69906250Y-127000000D03*
D13*
X75406250Y-127000000D03*
D10*
X80906250Y-127000000D03*
D11*
X80486250Y-127000000D03*
D12*
X70186250Y-131200000D03*
D14*
X77926021Y-122209984D03*
D16*
X77946250Y-121920000D03*
D15*
X80406250Y-123200000D03*
D16*
X72906250Y-123000000D03*
D17*
X72251245Y-123729996D03*
D15*
X75406250Y-121100000D03*
D11*
X89376250Y-127000000D03*
X99536250Y-127000000D03*
D12*
X89236250Y-131200000D03*
D13*
X94456250Y-127000000D03*
D10*
X88956250Y-127000000D03*
X99956250Y-127000000D03*
D15*
X99456250Y-123200000D03*
D14*
X96976021Y-122209984D03*
D16*
X96996250Y-121920000D03*
D17*
X91301245Y-123729996D03*
D15*
X94456250Y-121100000D03*
D16*
X91956250Y-123000000D03*
D13*
X170656250Y-127000000D03*
D12*
X165436250Y-131200000D03*
D10*
X176156250Y-127000000D03*
D11*
X175736250Y-127000000D03*
D10*
X165156250Y-127000000D03*
D11*
X165576250Y-127000000D03*
D15*
X175656250Y-123200000D03*
D16*
X173196250Y-121920000D03*
D14*
X173176021Y-122209984D03*
D15*
X170656250Y-121100000D03*
D17*
X167501245Y-123729996D03*
D16*
X168156250Y-123000000D03*
D12*
X184486250Y-131200000D03*
D13*
X189706250Y-127000000D03*
D10*
X184206250Y-127000000D03*
X195206250Y-127000000D03*
D11*
X184626250Y-127000000D03*
X194786250Y-127000000D03*
D15*
X194706250Y-123200000D03*
D14*
X192226021Y-122209984D03*
D16*
X192246250Y-121920000D03*
D15*
X189706250Y-121100000D03*
D17*
X186551245Y-123729996D03*
D16*
X187206250Y-123000000D03*
D11*
X118586250Y-127000000D03*
D13*
X113506250Y-127000000D03*
D10*
X108006250Y-127000000D03*
D12*
X108286250Y-131200000D03*
D11*
X108426250Y-127000000D03*
D10*
X119006250Y-127000000D03*
D14*
X116026021Y-122209984D03*
D15*
X118506250Y-123200000D03*
D16*
X116046250Y-121920000D03*
D17*
X110351245Y-123729996D03*
D15*
X113506250Y-121100000D03*
D16*
X111006250Y-123000000D03*
D12*
X203536250Y-131200000D03*
D13*
X208756250Y-127000000D03*
D11*
X213836250Y-127000000D03*
D10*
X203256250Y-127000000D03*
D11*
X203676250Y-127000000D03*
D10*
X214256250Y-127000000D03*
D16*
X211296250Y-121920000D03*
D14*
X211276021Y-122209984D03*
D15*
X213756250Y-123200000D03*
D16*
X206256250Y-123000000D03*
D15*
X208756250Y-121100000D03*
D17*
X205601245Y-123729996D03*
D18*
X46831250Y-79375000D03*
X103981250Y-79375000D03*
X84931250Y-127000000D03*
X199231250Y-127000000D03*
X180181250Y-79375000D03*
X256381250Y-79375000D03*
D19*
X39006250Y-74612500D03*
X35606250Y-74612500D03*
X58056250Y-74612500D03*
X54656250Y-74612500D03*
X76993750Y-74612500D03*
X73593750Y-74612500D03*
X96156250Y-74612500D03*
X92756250Y-74612500D03*
X115206250Y-74612500D03*
X111806250Y-74612500D03*
X172356250Y-74612500D03*
X168956250Y-74612500D03*
X191406250Y-74612500D03*
X188006250Y-74612500D03*
X210456250Y-74612500D03*
X207056250Y-74612500D03*
X229506250Y-74612500D03*
X226106250Y-74612500D03*
X248556250Y-74612500D03*
X245156250Y-74612500D03*
X267606250Y-74612500D03*
X264206250Y-74612500D03*
X39006250Y-93662500D03*
X35606250Y-93662500D03*
X58056250Y-93662500D03*
X54656250Y-93662500D03*
X77106250Y-93662500D03*
X73706250Y-93662500D03*
X96156250Y-93662500D03*
X92756250Y-93662500D03*
X115206250Y-93662500D03*
X111806250Y-93662500D03*
X172356250Y-93662500D03*
X168956250Y-93662500D03*
X191406250Y-93662500D03*
X188006250Y-93662500D03*
X210456250Y-93662500D03*
X207056250Y-93662500D03*
X229506250Y-93662500D03*
X226106250Y-93662500D03*
X248556250Y-93662500D03*
X245156250Y-93662500D03*
X267606250Y-93662500D03*
X264206250Y-93662500D03*
X77106250Y-131762500D03*
X73706250Y-131762500D03*
X96156250Y-131762500D03*
X92756250Y-131762500D03*
X172356250Y-131762500D03*
X168956250Y-131762500D03*
X191406250Y-131762500D03*
X188006250Y-131762500D03*
X115206250Y-131762500D03*
X111806250Y-131762500D03*
X210456250Y-131762500D03*
X207056250Y-131762500D03*
D20*
X149418000Y-81788000D03*
X151318000Y-81788000D03*
D21*
X138580500Y-72898000D03*
X136755500Y-72898000D03*
D19*
X151550000Y-89844000D03*
X151550000Y-87644000D03*
X153250000Y-87644000D03*
X153250000Y-89844000D03*
D22*
X138124000Y-122500000D03*
X144324000Y-118800000D03*
X138124000Y-118800000D03*
X144324000Y-122500000D03*
D20*
X145862000Y-97536000D03*
X147762000Y-97536000D03*
D23*
X142779750Y-78081500D03*
X142779750Y-79906500D03*
D20*
X151450000Y-85124500D03*
X153350000Y-85124500D03*
D24*
X144971250Y-67175000D03*
X139191250Y-67175000D03*
D25*
X138856250Y-68620000D03*
X139631250Y-68620000D03*
D26*
X140331250Y-68620000D03*
X140831250Y-68620000D03*
X141331250Y-68620000D03*
X141831250Y-68620000D03*
X142331250Y-68620000D03*
X142831250Y-68620000D03*
X143331250Y-68620000D03*
X143831250Y-68620000D03*
D25*
X144531250Y-68620000D03*
X145306250Y-68620000D03*
D27*
X146401250Y-67705000D03*
X137761250Y-67705000D03*
D28*
X137761250Y-63525000D03*
X146401250Y-63525000D03*
D29*
X131064000Y-94384500D03*
X131064000Y-92559500D03*
D30*
X153350000Y-91982500D03*
X151450000Y-91982500D03*
D31*
X138081250Y-83993750D03*
X138881250Y-83993750D03*
X139681250Y-83993750D03*
X140481250Y-83993750D03*
X141281250Y-83993750D03*
X142081250Y-83993750D03*
X142881250Y-83993750D03*
X143681250Y-83993750D03*
X144481250Y-83993750D03*
X145281250Y-83993750D03*
X146081250Y-83993750D03*
D32*
X147781250Y-85693750D03*
X147781250Y-86493750D03*
X147781250Y-87293750D03*
X147781250Y-88093750D03*
X147781250Y-88893750D03*
X147781250Y-89693750D03*
X147781250Y-90493750D03*
X147781250Y-91293750D03*
X147781250Y-92093750D03*
X147781250Y-92893750D03*
X147781250Y-93693750D03*
D31*
X146081250Y-95393750D03*
X145281250Y-95393750D03*
X144481250Y-95393750D03*
X143681250Y-95393750D03*
X142881250Y-95393750D03*
X142081250Y-95393750D03*
X141281250Y-95393750D03*
X140481250Y-95393750D03*
X139681250Y-95393750D03*
X138881250Y-95393750D03*
X138081250Y-95393750D03*
D32*
X136381250Y-93693750D03*
X136381250Y-92893750D03*
X136381250Y-92093750D03*
X136381250Y-91293750D03*
X136381250Y-90493750D03*
X136381250Y-89693750D03*
X136381250Y-88893750D03*
X136381250Y-88093750D03*
X136381250Y-87293750D03*
X136381250Y-86493750D03*
X136381250Y-85693750D03*
D33*
X145137500Y-72898000D03*
X146962500Y-72898000D03*
D23*
X148844000Y-66905500D03*
X148844000Y-68730500D03*
D34*
X135382000Y-66868000D03*
X135382000Y-68768000D03*
D30*
X137856000Y-81280000D03*
X135956000Y-81280000D03*
D21*
X147724500Y-100330000D03*
X145899500Y-100330000D03*
D23*
X140716000Y-78081500D03*
X140716000Y-79906500D03*
D35*
X133350000Y-94422000D03*
X133350000Y-92522000D03*
X146050000Y-81976000D03*
X146050000Y-80076000D03*
D36*
X146304000Y-75054000D03*
X146304000Y-77854000D03*
D37*
X140726250Y-74938000D03*
D38*
X140726250Y-73218000D03*
X142926250Y-73218000D03*
X142926250Y-75118000D03*
M02*
