G04 #@! TF.GenerationSoftware,KiCad,Pcbnew,(5.99.0-10014-g15e640b5fe)*
G04 #@! TF.CreationDate,2021-03-28T13:55:16-07:00*
G04 #@! TF.ProjectId,unisplit_orthosteno,756e6973-706c-4697-945f-6f7274686f73,rev?*
G04 #@! TF.SameCoordinates,Original*
G04 #@! TF.FileFunction,Soldermask,Top*
G04 #@! TF.FilePolarity,Negative*
%FSLAX46Y46*%
G04 Gerber Fmt 4.6, Leading zero omitted, Abs format (unit mm)*
G04 Created by KiCad (PCBNEW (5.99.0-10014-g15e640b5fe)) date 2021-03-28 13:55:16*
%MOMM*%
%LPD*%
G01*
G04 APERTURE LIST*
G04 Aperture macros list*
%AMHorizOval*
0 Thick line with rounded ends*
0 $1 width*
0 $2 $3 position (X,Y) of the first rounded end (center of the circle)*
0 $4 $5 position (X,Y) of the second rounded end (center of the circle)*
0 Add line between two ends*
20,1,$1,$2,$3,$4,$5,0*
0 Add two circle primitives to create the rounded ends*
1,1,$1,$2,$3*
1,1,$1,$4,$5*%
G04 Aperture macros list end*
%ADD10C,1.700000*%
%ADD11C,1.750000*%
%ADD12C,1.200000*%
%ADD13C,3.987800*%
%ADD14HorizOval,2.250000X0.019771X0.290016X-0.019771X-0.290016X0*%
%ADD15C,2.000000*%
%ADD16C,2.250000*%
%ADD17HorizOval,2.250000X0.654995X0.730004X-0.654995X-0.730004X0*%
%ADD18C,2.200000*%
%ADD19C,0.750000*%
%ADD20O,1.100000X2.200000*%
%ADD21O,1.100000X1.700000*%
G04 APERTURE END LIST*
D10*
X42806250Y-69850000D03*
D11*
X42386250Y-69850000D03*
D12*
X32086250Y-74050000D03*
D11*
X32226250Y-69850000D03*
D13*
X37306250Y-69850000D03*
D10*
X31806250Y-69850000D03*
D14*
X39826021Y-65059984D03*
D15*
X42306250Y-66050000D03*
D16*
X39846250Y-64770000D03*
D15*
X37306250Y-63950000D03*
D17*
X34151245Y-66579996D03*
D16*
X34806250Y-65850000D03*
D10*
X61856250Y-69850000D03*
D13*
X56356250Y-69850000D03*
D12*
X51136250Y-74050000D03*
D10*
X50856250Y-69850000D03*
D11*
X51276250Y-69850000D03*
X61436250Y-69850000D03*
D14*
X58876021Y-65059984D03*
D15*
X61356250Y-66050000D03*
D16*
X58896250Y-64770000D03*
X53856250Y-65850000D03*
D17*
X53201245Y-66579996D03*
D15*
X56356250Y-63950000D03*
D11*
X80486250Y-69850000D03*
D12*
X70186250Y-74050000D03*
D13*
X75406250Y-69850000D03*
D10*
X69906250Y-69850000D03*
X80906250Y-69850000D03*
D11*
X70326250Y-69850000D03*
D16*
X77946250Y-64770000D03*
D14*
X77926021Y-65059984D03*
D15*
X80406250Y-66050000D03*
X75406250Y-63950000D03*
D16*
X72906250Y-65850000D03*
D17*
X72251245Y-66579996D03*
D10*
X99956250Y-69850000D03*
D11*
X89376250Y-69850000D03*
D10*
X88956250Y-69850000D03*
D12*
X89236250Y-74050000D03*
D13*
X94456250Y-69850000D03*
D11*
X99536250Y-69850000D03*
D14*
X96976021Y-65059984D03*
D15*
X99456250Y-66050000D03*
D16*
X96996250Y-64770000D03*
X91956250Y-65850000D03*
D15*
X94456250Y-63950000D03*
D17*
X91301245Y-66579996D03*
D12*
X108286250Y-74050000D03*
D10*
X108006250Y-69850000D03*
D13*
X113506250Y-69850000D03*
D10*
X119006250Y-69850000D03*
D11*
X118586250Y-69850000D03*
X108426250Y-69850000D03*
D15*
X118506250Y-66050000D03*
D14*
X116026021Y-65059984D03*
D16*
X116046250Y-64770000D03*
D17*
X110351245Y-66579996D03*
D16*
X111006250Y-65850000D03*
D15*
X113506250Y-63950000D03*
D10*
X165156250Y-69850000D03*
D11*
X165576250Y-69850000D03*
D10*
X176156250Y-69850000D03*
D13*
X170656250Y-69850000D03*
D12*
X165436250Y-74050000D03*
D11*
X175736250Y-69850000D03*
D16*
X173196250Y-64770000D03*
D14*
X173176021Y-65059984D03*
D15*
X175656250Y-66050000D03*
D17*
X167501245Y-66579996D03*
D15*
X170656250Y-63950000D03*
D16*
X168156250Y-65850000D03*
D11*
X184626250Y-69850000D03*
X194786250Y-69850000D03*
D12*
X184486250Y-74050000D03*
D10*
X184206250Y-69850000D03*
D13*
X189706250Y-69850000D03*
D10*
X195206250Y-69850000D03*
D14*
X192226021Y-65059984D03*
D15*
X194706250Y-66050000D03*
D16*
X192246250Y-64770000D03*
X187206250Y-65850000D03*
D15*
X189706250Y-63950000D03*
D17*
X186551245Y-66579996D03*
D12*
X203536250Y-74050000D03*
D13*
X208756250Y-69850000D03*
D11*
X203676250Y-69850000D03*
D10*
X203256250Y-69850000D03*
D11*
X213836250Y-69850000D03*
D10*
X214256250Y-69850000D03*
D15*
X213756250Y-66050000D03*
D14*
X211276021Y-65059984D03*
D16*
X211296250Y-64770000D03*
D17*
X205601245Y-66579996D03*
D15*
X208756250Y-63950000D03*
D16*
X206256250Y-65850000D03*
D13*
X227806250Y-69850000D03*
D10*
X222306250Y-69850000D03*
X233306250Y-69850000D03*
D12*
X222586250Y-74050000D03*
D11*
X232886250Y-69850000D03*
X222726250Y-69850000D03*
D16*
X230346250Y-64770000D03*
D14*
X230326021Y-65059984D03*
D15*
X232806250Y-66050000D03*
X227806250Y-63950000D03*
D16*
X225306250Y-65850000D03*
D17*
X224651245Y-66579996D03*
D11*
X241776250Y-69850000D03*
D10*
X252356250Y-69850000D03*
D11*
X251936250Y-69850000D03*
D12*
X241636250Y-74050000D03*
D13*
X246856250Y-69850000D03*
D10*
X241356250Y-69850000D03*
D15*
X251856250Y-66050000D03*
D14*
X249376021Y-65059984D03*
D16*
X249396250Y-64770000D03*
X244356250Y-65850000D03*
D17*
X243701245Y-66579996D03*
D15*
X246856250Y-63950000D03*
D10*
X271406250Y-69850000D03*
D11*
X270986250Y-69850000D03*
D12*
X260686250Y-74050000D03*
D10*
X260406250Y-69850000D03*
D13*
X265906250Y-69850000D03*
D11*
X260826250Y-69850000D03*
D14*
X268426021Y-65059984D03*
D16*
X268446250Y-64770000D03*
D15*
X270906250Y-66050000D03*
D16*
X263406250Y-65850000D03*
D17*
X262751245Y-66579996D03*
D15*
X265906250Y-63950000D03*
D11*
X32226250Y-88900000D03*
D10*
X42806250Y-88900000D03*
X31806250Y-88900000D03*
D13*
X37306250Y-88900000D03*
D12*
X32086250Y-93100000D03*
D11*
X42386250Y-88900000D03*
D16*
X39846250Y-83820000D03*
D15*
X42306250Y-85100000D03*
D14*
X39826021Y-84109984D03*
D17*
X34151245Y-85629996D03*
D16*
X34806250Y-84900000D03*
D15*
X37306250Y-83000000D03*
D11*
X51276250Y-88900000D03*
X61436250Y-88900000D03*
D13*
X56356250Y-88900000D03*
D10*
X50856250Y-88900000D03*
X61856250Y-88900000D03*
D12*
X51136250Y-93100000D03*
D14*
X58876021Y-84109984D03*
D16*
X58896250Y-83820000D03*
D15*
X61356250Y-85100000D03*
X56356250Y-83000000D03*
D17*
X53201245Y-85629996D03*
D16*
X53856250Y-84900000D03*
D11*
X70326250Y-88900000D03*
X80486250Y-88900000D03*
D10*
X80906250Y-88900000D03*
X69906250Y-88900000D03*
D12*
X70186250Y-93100000D03*
D13*
X75406250Y-88900000D03*
D16*
X77946250Y-83820000D03*
D15*
X80406250Y-85100000D03*
D14*
X77926021Y-84109984D03*
D15*
X75406250Y-83000000D03*
D16*
X72906250Y-84900000D03*
D17*
X72251245Y-85629996D03*
D10*
X88956250Y-88900000D03*
D13*
X94456250Y-88900000D03*
D10*
X99956250Y-88900000D03*
D11*
X89376250Y-88900000D03*
D12*
X89236250Y-93100000D03*
D11*
X99536250Y-88900000D03*
D14*
X96976021Y-84109984D03*
D16*
X96996250Y-83820000D03*
D15*
X99456250Y-85100000D03*
D16*
X91956250Y-84900000D03*
D17*
X91301245Y-85629996D03*
D15*
X94456250Y-83000000D03*
D10*
X119006250Y-88900000D03*
D12*
X108286250Y-93100000D03*
D11*
X118586250Y-88900000D03*
X108426250Y-88900000D03*
D10*
X108006250Y-88900000D03*
D13*
X113506250Y-88900000D03*
D16*
X116046250Y-83820000D03*
D14*
X116026021Y-84109984D03*
D15*
X118506250Y-85100000D03*
D16*
X111006250Y-84900000D03*
D17*
X110351245Y-85629996D03*
D15*
X113506250Y-83000000D03*
D10*
X165156250Y-88900000D03*
D12*
X165436250Y-93100000D03*
D10*
X176156250Y-88900000D03*
D11*
X175736250Y-88900000D03*
X165576250Y-88900000D03*
D13*
X170656250Y-88900000D03*
D16*
X173196250Y-83820000D03*
D14*
X173176021Y-84109984D03*
D15*
X175656250Y-85100000D03*
D16*
X168156250Y-84900000D03*
D15*
X170656250Y-83000000D03*
D17*
X167501245Y-85629996D03*
D12*
X184486250Y-93100000D03*
D13*
X189706250Y-88900000D03*
D11*
X194786250Y-88900000D03*
D10*
X195206250Y-88900000D03*
D11*
X184626250Y-88900000D03*
D10*
X184206250Y-88900000D03*
D15*
X194706250Y-85100000D03*
D16*
X192246250Y-83820000D03*
D14*
X192226021Y-84109984D03*
D16*
X187206250Y-84900000D03*
D17*
X186551245Y-85629996D03*
D15*
X189706250Y-83000000D03*
D11*
X203676250Y-88900000D03*
D10*
X203256250Y-88900000D03*
D12*
X203536250Y-93100000D03*
D13*
X208756250Y-88900000D03*
D10*
X214256250Y-88900000D03*
D11*
X213836250Y-88900000D03*
D16*
X211296250Y-83820000D03*
D14*
X211276021Y-84109984D03*
D15*
X213756250Y-85100000D03*
X208756250Y-83000000D03*
D17*
X205601245Y-85629996D03*
D16*
X206256250Y-84900000D03*
D10*
X233306250Y-88900000D03*
D13*
X227806250Y-88900000D03*
D10*
X222306250Y-88900000D03*
D11*
X232886250Y-88900000D03*
X222726250Y-88900000D03*
D12*
X222586250Y-93100000D03*
D15*
X232806250Y-85100000D03*
D16*
X230346250Y-83820000D03*
D14*
X230326021Y-84109984D03*
D15*
X227806250Y-83000000D03*
D17*
X224651245Y-85629996D03*
D16*
X225306250Y-84900000D03*
D13*
X246856250Y-88900000D03*
D10*
X252356250Y-88900000D03*
D12*
X241636250Y-93100000D03*
D11*
X251936250Y-88900000D03*
X241776250Y-88900000D03*
D10*
X241356250Y-88900000D03*
D16*
X249396250Y-83820000D03*
D14*
X249376021Y-84109984D03*
D15*
X251856250Y-85100000D03*
D17*
X243701245Y-85629996D03*
D16*
X244356250Y-84900000D03*
D15*
X246856250Y-83000000D03*
D11*
X260826250Y-88900000D03*
D12*
X260686250Y-93100000D03*
D11*
X270986250Y-88900000D03*
D13*
X265906250Y-88900000D03*
D10*
X260406250Y-88900000D03*
X271406250Y-88900000D03*
D16*
X268446250Y-83820000D03*
D15*
X270906250Y-85100000D03*
D14*
X268426021Y-84109984D03*
D16*
X263406250Y-84900000D03*
D15*
X265906250Y-83000000D03*
D17*
X262751245Y-85629996D03*
D11*
X70326250Y-127000000D03*
D10*
X69906250Y-127000000D03*
D13*
X75406250Y-127000000D03*
D10*
X80906250Y-127000000D03*
D11*
X80486250Y-127000000D03*
D12*
X70186250Y-131200000D03*
D14*
X77926021Y-122209984D03*
D16*
X77946250Y-121920000D03*
D15*
X80406250Y-123200000D03*
D16*
X72906250Y-123000000D03*
D17*
X72251245Y-123729996D03*
D15*
X75406250Y-121100000D03*
D11*
X89376250Y-127000000D03*
X99536250Y-127000000D03*
D12*
X89236250Y-131200000D03*
D13*
X94456250Y-127000000D03*
D10*
X88956250Y-127000000D03*
X99956250Y-127000000D03*
D15*
X99456250Y-123200000D03*
D14*
X96976021Y-122209984D03*
D16*
X96996250Y-121920000D03*
D17*
X91301245Y-123729996D03*
D15*
X94456250Y-121100000D03*
D16*
X91956250Y-123000000D03*
D13*
X170656250Y-127000000D03*
D12*
X165436250Y-131200000D03*
D10*
X176156250Y-127000000D03*
D11*
X175736250Y-127000000D03*
D10*
X165156250Y-127000000D03*
D11*
X165576250Y-127000000D03*
D15*
X175656250Y-123200000D03*
D16*
X173196250Y-121920000D03*
D14*
X173176021Y-122209984D03*
D15*
X170656250Y-121100000D03*
D17*
X167501245Y-123729996D03*
D16*
X168156250Y-123000000D03*
D12*
X184486250Y-131200000D03*
D13*
X189706250Y-127000000D03*
D10*
X184206250Y-127000000D03*
X195206250Y-127000000D03*
D11*
X184626250Y-127000000D03*
X194786250Y-127000000D03*
D15*
X194706250Y-123200000D03*
D14*
X192226021Y-122209984D03*
D16*
X192246250Y-121920000D03*
D15*
X189706250Y-121100000D03*
D17*
X186551245Y-123729996D03*
D16*
X187206250Y-123000000D03*
D11*
X118586250Y-127000000D03*
D13*
X113506250Y-127000000D03*
D10*
X108006250Y-127000000D03*
D12*
X108286250Y-131200000D03*
D11*
X108426250Y-127000000D03*
D10*
X119006250Y-127000000D03*
D14*
X116026021Y-122209984D03*
D15*
X118506250Y-123200000D03*
D16*
X116046250Y-121920000D03*
D17*
X110351245Y-123729996D03*
D15*
X113506250Y-121100000D03*
D16*
X111006250Y-123000000D03*
D12*
X203536250Y-131200000D03*
D13*
X208756250Y-127000000D03*
D11*
X213836250Y-127000000D03*
D10*
X203256250Y-127000000D03*
D11*
X203676250Y-127000000D03*
D10*
X214256250Y-127000000D03*
D16*
X211296250Y-121920000D03*
D14*
X211276021Y-122209984D03*
D15*
X213756250Y-123200000D03*
D16*
X206256250Y-123000000D03*
D15*
X208756250Y-121100000D03*
D17*
X205601245Y-123729996D03*
D18*
X46831250Y-79375000D03*
X103981250Y-79375000D03*
X84931250Y-127000000D03*
X199231250Y-127000000D03*
X180181250Y-79375000D03*
X256381250Y-79375000D03*
D19*
X144971250Y-67175000D03*
X139191250Y-67175000D03*
D20*
X146401250Y-67705000D03*
X137761250Y-67705000D03*
D21*
X137761250Y-63525000D03*
X146401250Y-63525000D03*
M02*
