G04 #@! TF.GenerationSoftware,KiCad,Pcbnew,(5.99.0-10431-gb63c482347)*
G04 #@! TF.CreationDate,2021-05-27T19:26:51-07:00*
G04 #@! TF.ProjectId,unisplit_orthosteno,756e6973-706c-4697-945f-6f7274686f73,rev?*
G04 #@! TF.SameCoordinates,Original*
G04 #@! TF.FileFunction,Soldermask,Bot*
G04 #@! TF.FilePolarity,Negative*
%FSLAX46Y46*%
G04 Gerber Fmt 4.6, Leading zero omitted, Abs format (unit mm)*
G04 Created by KiCad (PCBNEW (5.99.0-10431-gb63c482347)) date 2021-05-27 19:26:51*
%MOMM*%
%LPD*%
G01*
G04 APERTURE LIST*
G04 Aperture macros list*
%AMHorizOval*
0 Thick line with rounded ends*
0 $1 width*
0 $2 $3 position (X,Y) of the first rounded end (center of the circle)*
0 $4 $5 position (X,Y) of the second rounded end (center of the circle)*
0 Add line between two ends*
20,1,$1,$2,$3,$4,$5,0*
0 Add two circle primitives to create the rounded ends*
1,1,$1,$2,$3*
1,1,$1,$4,$5*%
%AMFreePoly0*
4,1,22,0.500000,-0.750000,0.000000,-0.750000,0.000000,-0.745033,-0.079941,-0.743568,-0.215256,-0.701293,-0.333266,-0.622738,-0.424486,-0.514219,-0.481581,-0.384460,-0.499164,-0.250000,-0.500000,-0.250000,-0.500000,0.250000,-0.499164,0.250000,-0.499963,0.256109,-0.478152,0.396186,-0.417904,0.524511,-0.324060,0.630769,-0.204165,0.706417,-0.067858,0.745374,0.000000,0.744959,0.000000,0.750000,
0.500000,0.750000,0.500000,-0.750000,0.500000,-0.750000,$1*%
%AMFreePoly1*
4,1,20,0.000000,0.744959,0.073905,0.744508,0.209726,0.703889,0.328688,0.626782,0.421226,0.519385,0.479903,0.390333,0.500000,0.250000,0.500000,-0.250000,0.499851,-0.262216,0.476331,-0.402017,0.414519,-0.529596,0.319384,-0.634700,0.198574,-0.708877,0.061801,-0.746166,0.000000,-0.745033,0.000000,-0.750000,-0.500000,-0.750000,-0.500000,0.750000,0.000000,0.750000,0.000000,0.744959,
0.000000,0.744959,$1*%
G04 Aperture macros list end*
%ADD10C,0.200000*%
%ADD11C,1.200000*%
%ADD12C,1.700000*%
%ADD13C,1.750000*%
%ADD14C,3.987800*%
%ADD15HorizOval,2.250000X0.019771X0.290016X-0.019771X-0.290016X0*%
%ADD16C,2.000000*%
%ADD17C,2.250000*%
%ADD18HorizOval,2.250000X0.654995X0.730004X-0.654995X-0.730004X0*%
%ADD19C,3.800000*%
%ADD20C,1.448000*%
%ADD21FreePoly0,0.000000*%
%ADD22FreePoly1,0.000000*%
%ADD23R,1.200000X1.400000*%
%ADD24R,1.752600X1.752600*%
%ADD25C,1.752600*%
G04 APERTURE END LIST*
D10*
X156795535Y-128603273D02*
X156605059Y-128698511D01*
X156224107Y-128698511D01*
X156033630Y-128603273D01*
X155938392Y-128412797D01*
X155938392Y-128317559D01*
X156033630Y-128127083D01*
X156224107Y-128031845D01*
X156509821Y-128031845D01*
X156700297Y-127936607D01*
X156795535Y-127746130D01*
X156795535Y-127650892D01*
X156700297Y-127460416D01*
X156509821Y-127365178D01*
X156224107Y-127365178D01*
X156033630Y-127460416D01*
X155366964Y-127365178D02*
X154605059Y-127365178D01*
X155081250Y-126698511D02*
X155081250Y-128412797D01*
X154986011Y-128603273D01*
X154795535Y-128698511D01*
X154605059Y-128698511D01*
X153176488Y-128603273D02*
X153366964Y-128698511D01*
X153747916Y-128698511D01*
X153938392Y-128603273D01*
X154033630Y-128412797D01*
X154033630Y-127650892D01*
X153938392Y-127460416D01*
X153747916Y-127365178D01*
X153366964Y-127365178D01*
X153176488Y-127460416D01*
X153081250Y-127650892D01*
X153081250Y-127841369D01*
X154033630Y-128031845D01*
X152224107Y-127365178D02*
X152224107Y-128698511D01*
X152224107Y-127555654D02*
X152128869Y-127460416D01*
X151938392Y-127365178D01*
X151652678Y-127365178D01*
X151462202Y-127460416D01*
X151366964Y-127650892D01*
X151366964Y-128698511D01*
X150128869Y-128698511D02*
X150319345Y-128603273D01*
X150414583Y-128508035D01*
X150509821Y-128317559D01*
X150509821Y-127746130D01*
X150414583Y-127555654D01*
X150319345Y-127460416D01*
X150128869Y-127365178D01*
X149843154Y-127365178D01*
X149652678Y-127460416D01*
X149557440Y-127555654D01*
X149462202Y-127746130D01*
X149462202Y-128317559D01*
X149557440Y-128508035D01*
X149652678Y-128603273D01*
X149843154Y-128698511D01*
X150128869Y-128698511D01*
X148605059Y-128698511D02*
X148605059Y-126698511D01*
X148414583Y-127936607D02*
X147843154Y-128698511D01*
X147843154Y-127365178D02*
X148605059Y-128127083D01*
X146224107Y-128603273D02*
X146414583Y-128698511D01*
X146795535Y-128698511D01*
X146986011Y-128603273D01*
X147081250Y-128412797D01*
X147081250Y-127650892D01*
X146986011Y-127460416D01*
X146795535Y-127365178D01*
X146414583Y-127365178D01*
X146224107Y-127460416D01*
X146128869Y-127650892D01*
X146128869Y-127841369D01*
X147081250Y-128031845D01*
X145462202Y-127365178D02*
X144986011Y-128698511D01*
X144509821Y-127365178D02*
X144986011Y-128698511D01*
X145176488Y-129174702D01*
X145271726Y-129269940D01*
X145462202Y-129365178D01*
X143747916Y-128698511D02*
X143747916Y-126698511D01*
X143747916Y-127460416D02*
X143557440Y-127365178D01*
X143176488Y-127365178D01*
X142986011Y-127460416D01*
X142890773Y-127555654D01*
X142795535Y-127746130D01*
X142795535Y-128317559D01*
X142890773Y-128508035D01*
X142986011Y-128603273D01*
X143176488Y-128698511D01*
X143557440Y-128698511D01*
X143747916Y-128603273D01*
X141652678Y-128698511D02*
X141843154Y-128603273D01*
X141938392Y-128508035D01*
X142033630Y-128317559D01*
X142033630Y-127746130D01*
X141938392Y-127555654D01*
X141843154Y-127460416D01*
X141652678Y-127365178D01*
X141366964Y-127365178D01*
X141176488Y-127460416D01*
X141081250Y-127555654D01*
X140986011Y-127746130D01*
X140986011Y-128317559D01*
X141081250Y-128508035D01*
X141176488Y-128603273D01*
X141366964Y-128698511D01*
X141652678Y-128698511D01*
X139271726Y-128698511D02*
X139271726Y-127650892D01*
X139366964Y-127460416D01*
X139557440Y-127365178D01*
X139938392Y-127365178D01*
X140128869Y-127460416D01*
X139271726Y-128603273D02*
X139462202Y-128698511D01*
X139938392Y-128698511D01*
X140128869Y-128603273D01*
X140224107Y-128412797D01*
X140224107Y-128222321D01*
X140128869Y-128031845D01*
X139938392Y-127936607D01*
X139462202Y-127936607D01*
X139271726Y-127841369D01*
X138319345Y-128698511D02*
X138319345Y-127365178D01*
X138319345Y-127746130D02*
X138224107Y-127555654D01*
X138128869Y-127460416D01*
X137938392Y-127365178D01*
X137747916Y-127365178D01*
X136224107Y-128698511D02*
X136224107Y-126698511D01*
X136224107Y-128603273D02*
X136414583Y-128698511D01*
X136795535Y-128698511D01*
X136986011Y-128603273D01*
X137081250Y-128508035D01*
X137176488Y-128317559D01*
X137176488Y-127746130D01*
X137081250Y-127555654D01*
X136986011Y-127460416D01*
X136795535Y-127365178D01*
X136414583Y-127365178D01*
X136224107Y-127460416D01*
X135366964Y-128603273D02*
X135176488Y-128698511D01*
X134795535Y-128698511D01*
X134605059Y-128603273D01*
X134509821Y-128412797D01*
X134509821Y-128317559D01*
X134605059Y-128127083D01*
X134795535Y-128031845D01*
X135081250Y-128031845D01*
X135271726Y-127936607D01*
X135366964Y-127746130D01*
X135366964Y-127650892D01*
X135271726Y-127460416D01*
X135081250Y-127365178D01*
X134795535Y-127365178D01*
X134605059Y-127460416D01*
X133652678Y-128508035D02*
X133557440Y-128603273D01*
X133652678Y-128698511D01*
X133747916Y-128603273D01*
X133652678Y-128508035D01*
X133652678Y-128698511D01*
X131843154Y-128603273D02*
X132033630Y-128698511D01*
X132414583Y-128698511D01*
X132605059Y-128603273D01*
X132700297Y-128508035D01*
X132795535Y-128317559D01*
X132795535Y-127746130D01*
X132700297Y-127555654D01*
X132605059Y-127460416D01*
X132414583Y-127365178D01*
X132033630Y-127365178D01*
X131843154Y-127460416D01*
X130700297Y-128698511D02*
X130890773Y-128603273D01*
X130986011Y-128508035D01*
X131081250Y-128317559D01*
X131081250Y-127746130D01*
X130986011Y-127555654D01*
X130890773Y-127460416D01*
X130700297Y-127365178D01*
X130414583Y-127365178D01*
X130224107Y-127460416D01*
X130128869Y-127555654D01*
X130033630Y-127746130D01*
X130033630Y-128317559D01*
X130128869Y-128508035D01*
X130224107Y-128603273D01*
X130414583Y-128698511D01*
X130700297Y-128698511D01*
X129176488Y-128698511D02*
X129176488Y-127365178D01*
X129176488Y-127555654D02*
X129081250Y-127460416D01*
X128890773Y-127365178D01*
X128605059Y-127365178D01*
X128414583Y-127460416D01*
X128319345Y-127650892D01*
X128319345Y-128698511D01*
X128319345Y-127650892D02*
X128224107Y-127460416D01*
X128033630Y-127365178D01*
X127747916Y-127365178D01*
X127557440Y-127460416D01*
X127462202Y-127650892D01*
X127462202Y-128698511D01*
G36*
X139635609Y-121992910D02*
G01*
X139651822Y-121994341D01*
X139669178Y-121996713D01*
X139689012Y-122000541D01*
X139712657Y-122006341D01*
X139741446Y-122014629D01*
X139776712Y-122025920D01*
X139819791Y-122040731D01*
X139872014Y-122059578D01*
X139934715Y-122082977D01*
X140009228Y-122111443D01*
X140096886Y-122145493D01*
X140199023Y-122185642D01*
X140316973Y-122232406D01*
X140452068Y-122286301D01*
X140605642Y-122347844D01*
X140779029Y-122417550D01*
X140973562Y-122495935D01*
X141190575Y-122583514D01*
X141431400Y-122680805D01*
X141697373Y-122788323D01*
X141989826Y-122906583D01*
X142166677Y-122978123D01*
X142410510Y-123076827D01*
X142646283Y-123172345D01*
X142872474Y-123264060D01*
X143087564Y-123351352D01*
X143290033Y-123433601D01*
X143478360Y-123510188D01*
X143651026Y-123580496D01*
X143806509Y-123643903D01*
X143943290Y-123699791D01*
X144059849Y-123747542D01*
X144154665Y-123786535D01*
X144226218Y-123816152D01*
X144272987Y-123835773D01*
X144293453Y-123844780D01*
X144349748Y-123882302D01*
X144414641Y-123942953D01*
X144472779Y-124013977D01*
X144515398Y-124085854D01*
X144519656Y-124095750D01*
X144539417Y-124169398D01*
X144548762Y-124258576D01*
X144547711Y-124352467D01*
X144536288Y-124440254D01*
X144514516Y-124511118D01*
X144470304Y-124587837D01*
X144390242Y-124678215D01*
X144290485Y-124751275D01*
X144175965Y-124802767D01*
X144154784Y-124808430D01*
X144086547Y-124817413D01*
X144007723Y-124817857D01*
X143997190Y-124817096D01*
X143981098Y-124815071D01*
X143962112Y-124811459D01*
X143938922Y-124805750D01*
X143910216Y-124797435D01*
X143874681Y-124786003D01*
X143831008Y-124770946D01*
X143777885Y-124751753D01*
X143714000Y-124727915D01*
X143638042Y-124698922D01*
X143548699Y-124664265D01*
X143444662Y-124623434D01*
X143324617Y-124575919D01*
X143187254Y-124521212D01*
X143031261Y-124458801D01*
X142855328Y-124388178D01*
X142658142Y-124308832D01*
X142438392Y-124220255D01*
X142194768Y-124121937D01*
X141925958Y-124013367D01*
X141630649Y-123894037D01*
X141430076Y-123812905D01*
X141185174Y-123713651D01*
X140948441Y-123617498D01*
X140721389Y-123525070D01*
X140505531Y-123436989D01*
X140302381Y-123353878D01*
X140113451Y-123276362D01*
X139940254Y-123205062D01*
X139784303Y-123140602D01*
X139647112Y-123083604D01*
X139530192Y-123034693D01*
X139435058Y-122994490D01*
X139363221Y-122963619D01*
X139316196Y-122942704D01*
X139295494Y-122932367D01*
X139277975Y-122919288D01*
X139227849Y-122873760D01*
X139185771Y-122825557D01*
X139157278Y-122783031D01*
X139105345Y-122671098D01*
X139081035Y-122554796D01*
X139083973Y-122438083D01*
X139113782Y-122324917D01*
X139170083Y-122219257D01*
X139252500Y-122125061D01*
X139320617Y-122069965D01*
X139412506Y-122020095D01*
X139512092Y-121995107D01*
X139626860Y-121992346D01*
X139635609Y-121992910D01*
G37*
G36*
X149511991Y-119803064D02*
G01*
X149506325Y-119913866D01*
X149497777Y-120009393D01*
X149486408Y-120082342D01*
X149461982Y-120185695D01*
X149385558Y-120431373D01*
X149287197Y-120662186D01*
X149168206Y-120876194D01*
X149029894Y-121071460D01*
X148873569Y-121246047D01*
X148700539Y-121398017D01*
X148512114Y-121525431D01*
X148393526Y-121587472D01*
X148221863Y-121657669D01*
X148041432Y-121712132D01*
X147863482Y-121747016D01*
X147810066Y-121752099D01*
X147722203Y-121755696D01*
X147616330Y-121756489D01*
X147498992Y-121754659D01*
X147376729Y-121750382D01*
X147256085Y-121743839D01*
X147143602Y-121735207D01*
X147045821Y-121724667D01*
X147002405Y-121718758D01*
X146729968Y-121668083D01*
X146473463Y-121596389D01*
X146234609Y-121504421D01*
X146015125Y-121392927D01*
X145816729Y-121262653D01*
X145641142Y-121114348D01*
X145532729Y-121002608D01*
X145397587Y-120833223D01*
X145288461Y-120653505D01*
X145203131Y-120459621D01*
X145139376Y-120247733D01*
X145134330Y-120225314D01*
X145116992Y-120115073D01*
X145106257Y-119987036D01*
X145102222Y-119850505D01*
X145103502Y-119787699D01*
X146149422Y-119787699D01*
X146149696Y-119932403D01*
X146177487Y-120067018D01*
X146232179Y-120190857D01*
X146313157Y-120303237D01*
X146419808Y-120403472D01*
X146551515Y-120490876D01*
X146707664Y-120564765D01*
X146887641Y-120624453D01*
X147090830Y-120669254D01*
X147112716Y-120672895D01*
X147218366Y-120687149D01*
X147331440Y-120697822D01*
X147445761Y-120704724D01*
X147555153Y-120707664D01*
X147653441Y-120706454D01*
X147734448Y-120700902D01*
X147792000Y-120690819D01*
X147918285Y-120643560D01*
X148051817Y-120564554D01*
X148170713Y-120460777D01*
X148273626Y-120333667D01*
X148359207Y-120184658D01*
X148426110Y-120015188D01*
X148442310Y-119951529D01*
X148458435Y-119847517D01*
X148467634Y-119731857D01*
X148469507Y-119614654D01*
X148463659Y-119506013D01*
X148449690Y-119416039D01*
X148416885Y-119306544D01*
X148350649Y-119167901D01*
X148261672Y-119048295D01*
X148150738Y-118948718D01*
X148018632Y-118870162D01*
X147976588Y-118850680D01*
X147892933Y-118816141D01*
X147813205Y-118790737D01*
X147730646Y-118773220D01*
X147638496Y-118762340D01*
X147529997Y-118756847D01*
X147398390Y-118755491D01*
X147386754Y-118755516D01*
X147292428Y-118755962D01*
X147221064Y-118757318D01*
X147166294Y-118760332D01*
X147121751Y-118765749D01*
X147081067Y-118774317D01*
X147037876Y-118786784D01*
X146985809Y-118803895D01*
X146878874Y-118844662D01*
X146708414Y-118932547D01*
X146556768Y-119041232D01*
X146425709Y-119168878D01*
X146317008Y-119313645D01*
X146232437Y-119473694D01*
X146173765Y-119647185D01*
X146149422Y-119787699D01*
X145103502Y-119787699D01*
X145104987Y-119714784D01*
X145114650Y-119589176D01*
X145131307Y-119482986D01*
X145176249Y-119310881D01*
X145260656Y-119079322D01*
X145369097Y-118856582D01*
X145498299Y-118650092D01*
X145554513Y-118576848D01*
X145639577Y-118479103D01*
X145736955Y-118377578D01*
X145839661Y-118279200D01*
X145940712Y-118190897D01*
X146033122Y-118119598D01*
X146067965Y-118095886D01*
X146159171Y-118039309D01*
X146262170Y-117981278D01*
X146369666Y-117925496D01*
X146474362Y-117875662D01*
X146568962Y-117835478D01*
X146646169Y-117808645D01*
X146695653Y-117792100D01*
X146732166Y-117774700D01*
X146745762Y-117760542D01*
X146745397Y-117756062D01*
X146737850Y-117723031D01*
X146721906Y-117668615D01*
X146699360Y-117598083D01*
X146672012Y-117516705D01*
X146641658Y-117429754D01*
X146610096Y-117342498D01*
X146579124Y-117260208D01*
X146550539Y-117188155D01*
X146514996Y-117103785D01*
X146346933Y-116751654D01*
X146153524Y-116415416D01*
X145934550Y-116094742D01*
X145689788Y-115789302D01*
X145419019Y-115498766D01*
X145223490Y-115313634D01*
X144983204Y-115111492D01*
X144737945Y-114931551D01*
X144489555Y-114774774D01*
X144239874Y-114642125D01*
X143990745Y-114534565D01*
X143744008Y-114453059D01*
X143501505Y-114398570D01*
X143265077Y-114372061D01*
X143184852Y-114369893D01*
X143017351Y-114378716D01*
X142861607Y-114405106D01*
X142724553Y-114448089D01*
X142668403Y-114472869D01*
X142590806Y-114518797D01*
X142536354Y-114572520D01*
X142501768Y-114639159D01*
X142483772Y-114723835D01*
X142479090Y-114831667D01*
X142480181Y-114870682D01*
X142499608Y-115032492D01*
X142542897Y-115210814D01*
X142609654Y-115404849D01*
X142699483Y-115613799D01*
X142811986Y-115836863D01*
X142946770Y-116073243D01*
X143103438Y-116322139D01*
X143281593Y-116582753D01*
X143480841Y-116854285D01*
X143546448Y-116941176D01*
X143621191Y-117041775D01*
X143680373Y-117124655D01*
X143725701Y-117193216D01*
X143758886Y-117250857D01*
X143781633Y-117300979D01*
X143795653Y-117346981D01*
X143802653Y-117392262D01*
X143804341Y-117440222D01*
X143802425Y-117494261D01*
X143796491Y-117550535D01*
X143763321Y-117668348D01*
X143703956Y-117773331D01*
X143620020Y-117863011D01*
X143513135Y-117934918D01*
X143437611Y-117974786D01*
X141819538Y-117978800D01*
X141573783Y-117979427D01*
X141345472Y-117980067D01*
X141143939Y-117980724D01*
X140967539Y-117981426D01*
X140814624Y-117982207D01*
X140683548Y-117983095D01*
X140572663Y-117984123D01*
X140480323Y-117985320D01*
X140404881Y-117986718D01*
X140344690Y-117988347D01*
X140298103Y-117990238D01*
X140263474Y-117992421D01*
X140239155Y-117994928D01*
X140223500Y-117997790D01*
X140214862Y-118001036D01*
X140211594Y-118004698D01*
X140212049Y-118008806D01*
X140233363Y-118064852D01*
X140266757Y-118164884D01*
X140297355Y-118269690D01*
X140320585Y-118364291D01*
X140321561Y-118368951D01*
X140336750Y-118472464D01*
X140345079Y-118595608D01*
X140345908Y-118665958D01*
X140346654Y-118729300D01*
X140341582Y-118864457D01*
X140329969Y-118991996D01*
X140311922Y-119102834D01*
X140291561Y-119190795D01*
X140214557Y-119441317D01*
X140112036Y-119677605D01*
X139983154Y-119901186D01*
X139827072Y-120113586D01*
X139642947Y-120316331D01*
X139555132Y-120400851D01*
X139365281Y-120560867D01*
X139169775Y-120694091D01*
X138964730Y-120802713D01*
X138746260Y-120888924D01*
X138510480Y-120954915D01*
X138435510Y-120968577D01*
X138328770Y-120981107D01*
X138207395Y-120990047D01*
X138079502Y-120995092D01*
X137953211Y-120995939D01*
X137836640Y-120992285D01*
X137737907Y-120983825D01*
X137709372Y-120980055D01*
X137475232Y-120934466D01*
X137259000Y-120864914D01*
X137060330Y-120771239D01*
X136878877Y-120653282D01*
X136714295Y-120510884D01*
X136706001Y-120502625D01*
X136568128Y-120347280D01*
X136455335Y-120181557D01*
X136365944Y-120002120D01*
X136298278Y-119805631D01*
X136250658Y-119588752D01*
X136244857Y-119549001D01*
X136234355Y-119429058D01*
X136230741Y-119307754D01*
X137277359Y-119307754D01*
X137295246Y-119451348D01*
X137332390Y-119579436D01*
X137388523Y-119689300D01*
X137463377Y-119778221D01*
X137479855Y-119793127D01*
X137534073Y-119836428D01*
X137588999Y-119868477D01*
X137654330Y-119894195D01*
X137739763Y-119918506D01*
X137747354Y-119920392D01*
X137853193Y-119938393D01*
X137975271Y-119947038D01*
X138102392Y-119946355D01*
X138223361Y-119936369D01*
X138326980Y-119917107D01*
X138498372Y-119857911D01*
X138664129Y-119771276D01*
X138816529Y-119661355D01*
X138953013Y-119530963D01*
X139071017Y-119382912D01*
X139167980Y-119220018D01*
X139241339Y-119045095D01*
X139288533Y-118860956D01*
X139295570Y-118814849D01*
X139301712Y-118665958D01*
X139281148Y-118528761D01*
X139234544Y-118404679D01*
X139162561Y-118295132D01*
X139065864Y-118201541D01*
X138945114Y-118125326D01*
X138872877Y-118092919D01*
X138728103Y-118045884D01*
X138562480Y-118011222D01*
X138380481Y-117989776D01*
X138186577Y-117982388D01*
X138114227Y-117982628D01*
X138053126Y-117984247D01*
X138008132Y-117988407D01*
X137971829Y-117996264D01*
X137936798Y-118008972D01*
X137895623Y-118027686D01*
X137862235Y-118045153D01*
X137764296Y-118114721D01*
X137668129Y-118208726D01*
X137576763Y-118323083D01*
X137493228Y-118453710D01*
X137420551Y-118596523D01*
X137361763Y-118747438D01*
X137341917Y-118811121D01*
X137300426Y-118984922D01*
X137278996Y-119151373D01*
X137277359Y-119307754D01*
X136230741Y-119307754D01*
X136230281Y-119292302D01*
X136232390Y-119147701D01*
X136240438Y-119004226D01*
X136254179Y-118870846D01*
X136273368Y-118756530D01*
X136282539Y-118715159D01*
X136352692Y-118460094D01*
X136442678Y-118218324D01*
X136551081Y-117991612D01*
X136676482Y-117781720D01*
X136817464Y-117590413D01*
X136972610Y-117419451D01*
X137140502Y-117270598D01*
X137319723Y-117145616D01*
X137508856Y-117046269D01*
X137706482Y-116974318D01*
X137826506Y-116939954D01*
X140035829Y-116932266D01*
X142245151Y-116924579D01*
X142189450Y-116842063D01*
X142130827Y-116752149D01*
X142040301Y-116603202D01*
X141947901Y-116440627D01*
X141857614Y-116271943D01*
X141773426Y-116104668D01*
X141699323Y-115946321D01*
X141639291Y-115804419D01*
X141565223Y-115600179D01*
X141492504Y-115346142D01*
X141446444Y-115105195D01*
X141427071Y-114877506D01*
X141434417Y-114663245D01*
X141445660Y-114573382D01*
X141490346Y-114368092D01*
X141559623Y-114179857D01*
X141653272Y-114008903D01*
X141771072Y-113855454D01*
X141912804Y-113719734D01*
X142078247Y-113601967D01*
X142267181Y-113502378D01*
X142479386Y-113421191D01*
X142714642Y-113358631D01*
X142748585Y-113352057D01*
X142859585Y-113337404D01*
X142989948Y-113327913D01*
X143132186Y-113323589D01*
X143278814Y-113324437D01*
X143422343Y-113330460D01*
X143555286Y-113341665D01*
X143670156Y-113358054D01*
X143690862Y-113361922D01*
X144006877Y-113436697D01*
X144321639Y-113540119D01*
X144633552Y-113670914D01*
X144941018Y-113827811D01*
X145242437Y-114009536D01*
X145536212Y-114214817D01*
X145820746Y-114442380D01*
X146094439Y-114690955D01*
X146355694Y-114959266D01*
X146602912Y-115246043D01*
X146834496Y-115550013D01*
X147048848Y-115869902D01*
X147244368Y-116204438D01*
X147262254Y-116237670D01*
X147376168Y-116464457D01*
X147485439Y-116707247D01*
X147587073Y-116958295D01*
X147678077Y-117209861D01*
X147755458Y-117454201D01*
X147816222Y-117683572D01*
X147819727Y-117695545D01*
X147830280Y-117711428D01*
X147851803Y-117723430D01*
X147890510Y-117734462D01*
X147952615Y-117747431D01*
X147952883Y-117747484D01*
X148135974Y-117793331D01*
X148323322Y-117858314D01*
X148501107Y-117937641D01*
X148570911Y-117974626D01*
X148768668Y-118101258D01*
X148946052Y-118249311D01*
X149102081Y-118417476D01*
X149235778Y-118604442D01*
X149346163Y-118808898D01*
X149432257Y-119029534D01*
X149493080Y-119265040D01*
X149495008Y-119275453D01*
X149504645Y-119353118D01*
X149511102Y-119452013D01*
X149514439Y-119564836D01*
X149514554Y-119614654D01*
X149514715Y-119684287D01*
X149511991Y-119803064D01*
G37*
G36*
X142634953Y-121595589D02*
G01*
X142798803Y-121659489D01*
X143044294Y-121755277D01*
X143282039Y-121848102D01*
X143510483Y-121937354D01*
X143728072Y-122022424D01*
X143933249Y-122102702D01*
X144124461Y-122177579D01*
X144300151Y-122246444D01*
X144458766Y-122308689D01*
X144598750Y-122363703D01*
X144718548Y-122410877D01*
X144816606Y-122449602D01*
X144891367Y-122479268D01*
X144941278Y-122499264D01*
X144964783Y-122508982D01*
X145037606Y-122550680D01*
X145125006Y-122628080D01*
X145135712Y-122640148D01*
X145203126Y-122739336D01*
X145244497Y-122846513D01*
X145260902Y-122957658D01*
X145253422Y-123068748D01*
X145223137Y-123175764D01*
X145171126Y-123274685D01*
X145098469Y-123361490D01*
X145006245Y-123432157D01*
X144895535Y-123482666D01*
X144872227Y-123488758D01*
X144802826Y-123497348D01*
X144720363Y-123497650D01*
X144718338Y-123497547D01*
X144702773Y-123496401D01*
X144685777Y-123494251D01*
X144666026Y-123490603D01*
X144642192Y-123484960D01*
X144612950Y-123476828D01*
X144576974Y-123465712D01*
X144532937Y-123451116D01*
X144479513Y-123432545D01*
X144415376Y-123409505D01*
X144339199Y-123381499D01*
X144249658Y-123348033D01*
X144145425Y-123308611D01*
X144025174Y-123262738D01*
X143887579Y-123209920D01*
X143731315Y-123149660D01*
X143555054Y-123081464D01*
X143357471Y-123004836D01*
X143137240Y-122919281D01*
X142893033Y-122824305D01*
X142623526Y-122719411D01*
X142327392Y-122604105D01*
X142127946Y-122526391D01*
X141881967Y-122430417D01*
X141644194Y-122337502D01*
X141416148Y-122248249D01*
X141199349Y-122163256D01*
X140995317Y-122083123D01*
X140805573Y-122008451D01*
X140631638Y-121939839D01*
X140475031Y-121877887D01*
X140337274Y-121823196D01*
X140219886Y-121776364D01*
X140124388Y-121737993D01*
X140052301Y-121708681D01*
X140005145Y-121689029D01*
X139984440Y-121679637D01*
X139977930Y-121675734D01*
X139904431Y-121617427D01*
X139836361Y-121539164D01*
X139781723Y-121450012D01*
X139780821Y-121448180D01*
X139763902Y-121407892D01*
X139753658Y-121365634D01*
X139748570Y-121312087D01*
X139747117Y-121237928D01*
X139747286Y-121197312D01*
X139749633Y-121138476D01*
X139756172Y-121094647D01*
X139768730Y-121056043D01*
X139789131Y-121012884D01*
X139845055Y-120924211D01*
X139932630Y-120832558D01*
X140037105Y-120763901D01*
X140049707Y-120757696D01*
X140093944Y-120738750D01*
X140136121Y-120727743D01*
X140186910Y-120722604D01*
X140256984Y-120721265D01*
X140392011Y-120721056D01*
X142634953Y-121595589D01*
G37*
D11*
X32086250Y-74050000D03*
D12*
X42806250Y-69850000D03*
D13*
X32226250Y-69850000D03*
X42386250Y-69850000D03*
D12*
X31806250Y-69850000D03*
D14*
X37306250Y-69850000D03*
D15*
X39826021Y-65059984D03*
D16*
X42306250Y-66050000D03*
D17*
X39846250Y-64770000D03*
X34806250Y-65850000D03*
D18*
X34151245Y-66579996D03*
D16*
X37306250Y-63950000D03*
D13*
X61436250Y-69850000D03*
D14*
X56356250Y-69850000D03*
D12*
X61856250Y-69850000D03*
D13*
X51276250Y-69850000D03*
D11*
X51136250Y-74050000D03*
D12*
X50856250Y-69850000D03*
D15*
X58876021Y-65059984D03*
D17*
X58896250Y-64770000D03*
D16*
X61356250Y-66050000D03*
D17*
X53856250Y-65850000D03*
D18*
X53201245Y-66579996D03*
D16*
X56356250Y-63950000D03*
D13*
X80486250Y-69850000D03*
D14*
X75406250Y-69850000D03*
D13*
X70326250Y-69850000D03*
D12*
X69906250Y-69850000D03*
X80906250Y-69850000D03*
D11*
X70186250Y-74050000D03*
D15*
X77926021Y-65059984D03*
D17*
X77946250Y-64770000D03*
D16*
X80406250Y-66050000D03*
X75406250Y-63950000D03*
D18*
X72251245Y-66579996D03*
D17*
X72906250Y-65850000D03*
D11*
X89236250Y-74050000D03*
D14*
X94456250Y-69850000D03*
D12*
X88956250Y-69850000D03*
D13*
X89376250Y-69850000D03*
X99536250Y-69850000D03*
D12*
X99956250Y-69850000D03*
D16*
X99456250Y-66050000D03*
D15*
X96976021Y-65059984D03*
D17*
X96996250Y-64770000D03*
D16*
X94456250Y-63950000D03*
D17*
X91956250Y-65850000D03*
D18*
X91301245Y-66579996D03*
D14*
X113506250Y-69850000D03*
D11*
X108286250Y-74050000D03*
D13*
X108426250Y-69850000D03*
X118586250Y-69850000D03*
D12*
X108006250Y-69850000D03*
X119006250Y-69850000D03*
D15*
X116026021Y-65059984D03*
D17*
X116046250Y-64770000D03*
D16*
X118506250Y-66050000D03*
D18*
X110351245Y-66579996D03*
D17*
X111006250Y-65850000D03*
D16*
X113506250Y-63950000D03*
D13*
X175736250Y-69850000D03*
D11*
X165436250Y-74050000D03*
D12*
X165156250Y-69850000D03*
D13*
X165576250Y-69850000D03*
D12*
X176156250Y-69850000D03*
D14*
X170656250Y-69850000D03*
D17*
X173196250Y-64770000D03*
D16*
X175656250Y-66050000D03*
D15*
X173176021Y-65059984D03*
D17*
X168156250Y-65850000D03*
D16*
X170656250Y-63950000D03*
D18*
X167501245Y-66579996D03*
D13*
X184626250Y-69850000D03*
D14*
X189706250Y-69850000D03*
D13*
X194786250Y-69850000D03*
D11*
X184486250Y-74050000D03*
D12*
X184206250Y-69850000D03*
X195206250Y-69850000D03*
D17*
X192246250Y-64770000D03*
D16*
X194706250Y-66050000D03*
D15*
X192226021Y-65059984D03*
D18*
X186551245Y-66579996D03*
D16*
X189706250Y-63950000D03*
D17*
X187206250Y-65850000D03*
D12*
X203256250Y-69850000D03*
D13*
X213836250Y-69850000D03*
D12*
X214256250Y-69850000D03*
D13*
X203676250Y-69850000D03*
D11*
X203536250Y-74050000D03*
D14*
X208756250Y-69850000D03*
D16*
X213756250Y-66050000D03*
D17*
X211296250Y-64770000D03*
D15*
X211276021Y-65059984D03*
D18*
X205601245Y-66579996D03*
D16*
X208756250Y-63950000D03*
D17*
X206256250Y-65850000D03*
D11*
X222586250Y-74050000D03*
D13*
X222726250Y-69850000D03*
X232886250Y-69850000D03*
D14*
X227806250Y-69850000D03*
D12*
X222306250Y-69850000D03*
X233306250Y-69850000D03*
D16*
X232806250Y-66050000D03*
D15*
X230326021Y-65059984D03*
D17*
X230346250Y-64770000D03*
X225306250Y-65850000D03*
D18*
X224651245Y-66579996D03*
D16*
X227806250Y-63950000D03*
D12*
X241356250Y-69850000D03*
D11*
X241636250Y-74050000D03*
D13*
X251936250Y-69850000D03*
X241776250Y-69850000D03*
D12*
X252356250Y-69850000D03*
D14*
X246856250Y-69850000D03*
D16*
X251856250Y-66050000D03*
D15*
X249376021Y-65059984D03*
D17*
X249396250Y-64770000D03*
X244356250Y-65850000D03*
D16*
X246856250Y-63950000D03*
D18*
X243701245Y-66579996D03*
D12*
X271406250Y-69850000D03*
D11*
X260686250Y-74050000D03*
D12*
X260406250Y-69850000D03*
D13*
X270986250Y-69850000D03*
X260826250Y-69850000D03*
D14*
X265906250Y-69850000D03*
D17*
X268446250Y-64770000D03*
D16*
X270906250Y-66050000D03*
D15*
X268426021Y-65059984D03*
D17*
X263406250Y-65850000D03*
D16*
X265906250Y-63950000D03*
D18*
X262751245Y-66579996D03*
D13*
X42386250Y-88900000D03*
D12*
X42806250Y-88900000D03*
X31806250Y-88900000D03*
D11*
X32086250Y-93100000D03*
D14*
X37306250Y-88900000D03*
D13*
X32226250Y-88900000D03*
D15*
X39826021Y-84109984D03*
D17*
X39846250Y-83820000D03*
D16*
X42306250Y-85100000D03*
D18*
X34151245Y-85629996D03*
D16*
X37306250Y-83000000D03*
D17*
X34806250Y-84900000D03*
D11*
X51136250Y-93100000D03*
D13*
X51276250Y-88900000D03*
D12*
X61856250Y-88900000D03*
X50856250Y-88900000D03*
D14*
X56356250Y-88900000D03*
D13*
X61436250Y-88900000D03*
D15*
X58876021Y-84109984D03*
D17*
X58896250Y-83820000D03*
D16*
X61356250Y-85100000D03*
X56356250Y-83000000D03*
D18*
X53201245Y-85629996D03*
D17*
X53856250Y-84900000D03*
D11*
X70186250Y-93100000D03*
D14*
X75406250Y-88900000D03*
D13*
X80486250Y-88900000D03*
D12*
X69906250Y-88900000D03*
X80906250Y-88900000D03*
D13*
X70326250Y-88900000D03*
D17*
X77946250Y-83820000D03*
D16*
X80406250Y-85100000D03*
D15*
X77926021Y-84109984D03*
D16*
X75406250Y-83000000D03*
D17*
X72906250Y-84900000D03*
D18*
X72251245Y-85629996D03*
D12*
X88956250Y-88900000D03*
D13*
X89376250Y-88900000D03*
D11*
X89236250Y-93100000D03*
D12*
X99956250Y-88900000D03*
D13*
X99536250Y-88900000D03*
D14*
X94456250Y-88900000D03*
D16*
X99456250Y-85100000D03*
D15*
X96976021Y-84109984D03*
D17*
X96996250Y-83820000D03*
D18*
X91301245Y-85629996D03*
D17*
X91956250Y-84900000D03*
D16*
X94456250Y-83000000D03*
D12*
X108006250Y-88900000D03*
D14*
X113506250Y-88900000D03*
D13*
X118586250Y-88900000D03*
D12*
X119006250Y-88900000D03*
D13*
X108426250Y-88900000D03*
D11*
X108286250Y-93100000D03*
D17*
X116046250Y-83820000D03*
D15*
X116026021Y-84109984D03*
D16*
X118506250Y-85100000D03*
D18*
X110351245Y-85629996D03*
D17*
X111006250Y-84900000D03*
D16*
X113506250Y-83000000D03*
D14*
X170656250Y-88900000D03*
D12*
X176156250Y-88900000D03*
D11*
X165436250Y-93100000D03*
D13*
X165576250Y-88900000D03*
D12*
X165156250Y-88900000D03*
D13*
X175736250Y-88900000D03*
D17*
X173196250Y-83820000D03*
D15*
X173176021Y-84109984D03*
D16*
X175656250Y-85100000D03*
D18*
X167501245Y-85629996D03*
D17*
X168156250Y-84900000D03*
D16*
X170656250Y-83000000D03*
D14*
X189706250Y-88900000D03*
D12*
X195206250Y-88900000D03*
D11*
X184486250Y-93100000D03*
D13*
X184626250Y-88900000D03*
X194786250Y-88900000D03*
D12*
X184206250Y-88900000D03*
D17*
X192246250Y-83820000D03*
D16*
X194706250Y-85100000D03*
D15*
X192226021Y-84109984D03*
D18*
X186551245Y-85629996D03*
D16*
X189706250Y-83000000D03*
D17*
X187206250Y-84900000D03*
D12*
X214256250Y-88900000D03*
X203256250Y-88900000D03*
D13*
X203676250Y-88900000D03*
X213836250Y-88900000D03*
D14*
X208756250Y-88900000D03*
D11*
X203536250Y-93100000D03*
D15*
X211276021Y-84109984D03*
D17*
X211296250Y-83820000D03*
D16*
X213756250Y-85100000D03*
X208756250Y-83000000D03*
D17*
X206256250Y-84900000D03*
D18*
X205601245Y-85629996D03*
D12*
X222306250Y-88900000D03*
D13*
X222726250Y-88900000D03*
D12*
X233306250Y-88900000D03*
D13*
X232886250Y-88900000D03*
D14*
X227806250Y-88900000D03*
D11*
X222586250Y-93100000D03*
D15*
X230326021Y-84109984D03*
D16*
X232806250Y-85100000D03*
D17*
X230346250Y-83820000D03*
D16*
X227806250Y-83000000D03*
D17*
X225306250Y-84900000D03*
D18*
X224651245Y-85629996D03*
D13*
X241776250Y-88900000D03*
D12*
X241356250Y-88900000D03*
D13*
X251936250Y-88900000D03*
D12*
X252356250Y-88900000D03*
D11*
X241636250Y-93100000D03*
D14*
X246856250Y-88900000D03*
D17*
X249396250Y-83820000D03*
D16*
X251856250Y-85100000D03*
D15*
X249376021Y-84109984D03*
D17*
X244356250Y-84900000D03*
D18*
X243701245Y-85629996D03*
D16*
X246856250Y-83000000D03*
D12*
X260406250Y-88900000D03*
D13*
X270986250Y-88900000D03*
D14*
X265906250Y-88900000D03*
D13*
X260826250Y-88900000D03*
D12*
X271406250Y-88900000D03*
D11*
X260686250Y-93100000D03*
D16*
X270906250Y-85100000D03*
D17*
X268446250Y-83820000D03*
D15*
X268426021Y-84109984D03*
D18*
X262751245Y-85629996D03*
D17*
X263406250Y-84900000D03*
D16*
X265906250Y-83000000D03*
D12*
X80906250Y-127000000D03*
D13*
X70326250Y-127000000D03*
D14*
X75406250Y-127000000D03*
D13*
X80486250Y-127000000D03*
D11*
X70186250Y-131200000D03*
D12*
X69906250Y-127000000D03*
D16*
X80406250Y-123200000D03*
D15*
X77926021Y-122209984D03*
D17*
X77946250Y-121920000D03*
X72906250Y-123000000D03*
D16*
X75406250Y-121100000D03*
D18*
X72251245Y-123729996D03*
D11*
X89236250Y-131200000D03*
D12*
X99956250Y-127000000D03*
X88956250Y-127000000D03*
D14*
X94456250Y-127000000D03*
D13*
X99536250Y-127000000D03*
X89376250Y-127000000D03*
D16*
X99456250Y-123200000D03*
D17*
X96996250Y-121920000D03*
D15*
X96976021Y-122209984D03*
D18*
X91301245Y-123729996D03*
D17*
X91956250Y-123000000D03*
D16*
X94456250Y-121100000D03*
D13*
X165576250Y-127000000D03*
D12*
X176156250Y-127000000D03*
D13*
X175736250Y-127000000D03*
D14*
X170656250Y-127000000D03*
D12*
X165156250Y-127000000D03*
D11*
X165436250Y-131200000D03*
D17*
X173196250Y-121920000D03*
D15*
X173176021Y-122209984D03*
D16*
X175656250Y-123200000D03*
D18*
X167501245Y-123729996D03*
D17*
X168156250Y-123000000D03*
D16*
X170656250Y-121100000D03*
D12*
X184206250Y-127000000D03*
X195206250Y-127000000D03*
D13*
X194786250Y-127000000D03*
D14*
X189706250Y-127000000D03*
D13*
X184626250Y-127000000D03*
D11*
X184486250Y-131200000D03*
D16*
X194706250Y-123200000D03*
D15*
X192226021Y-122209984D03*
D17*
X192246250Y-121920000D03*
D16*
X189706250Y-121100000D03*
D17*
X187206250Y-123000000D03*
D18*
X186551245Y-123729996D03*
D14*
X113506250Y-127000000D03*
D12*
X119006250Y-127000000D03*
D11*
X108286250Y-131200000D03*
D12*
X108006250Y-127000000D03*
D13*
X108426250Y-127000000D03*
X118586250Y-127000000D03*
D15*
X116026021Y-122209984D03*
D17*
X116046250Y-121920000D03*
D16*
X118506250Y-123200000D03*
X113506250Y-121100000D03*
D18*
X110351245Y-123729996D03*
D17*
X111006250Y-123000000D03*
D11*
X203536250Y-131200000D03*
D13*
X203676250Y-127000000D03*
D12*
X214256250Y-127000000D03*
D13*
X213836250Y-127000000D03*
D14*
X208756250Y-127000000D03*
D12*
X203256250Y-127000000D03*
D17*
X211296250Y-121920000D03*
D16*
X213756250Y-123200000D03*
D15*
X211276021Y-122209984D03*
D16*
X208756250Y-121100000D03*
D17*
X206256250Y-123000000D03*
D18*
X205601245Y-123729996D03*
D19*
X84931250Y-127000000D03*
X103981250Y-79375000D03*
X180181250Y-79375000D03*
D20*
X215900000Y-133350000D03*
D19*
X256381250Y-79375000D03*
X46831250Y-79375000D03*
D20*
X30162500Y-62706250D03*
D21*
X127143750Y-63500000D03*
D22*
X128443750Y-63500000D03*
D19*
X199231250Y-127000000D03*
D23*
X39006250Y-74612500D03*
X35606250Y-74612500D03*
X58056250Y-74612500D03*
X54656250Y-74612500D03*
X76993750Y-74612500D03*
X73593750Y-74612500D03*
X96156250Y-74612500D03*
X92756250Y-74612500D03*
X115206250Y-74612500D03*
X111806250Y-74612500D03*
X172356250Y-74612500D03*
X168956250Y-74612500D03*
X191406250Y-74612500D03*
X188006250Y-74612500D03*
X210456250Y-74612500D03*
X207056250Y-74612500D03*
X229506250Y-74612500D03*
X226106250Y-74612500D03*
X248556250Y-74612500D03*
X245156250Y-74612500D03*
X267606250Y-74612500D03*
X264206250Y-74612500D03*
X39006250Y-93662500D03*
X35606250Y-93662500D03*
X58056250Y-93662500D03*
X54656250Y-93662500D03*
X77106250Y-93662500D03*
X73706250Y-93662500D03*
X96156250Y-93662500D03*
X92756250Y-93662500D03*
X115206250Y-93662500D03*
X111806250Y-93662500D03*
X172356250Y-93662500D03*
X168956250Y-93662500D03*
X191406250Y-93662500D03*
X188006250Y-93662500D03*
X210456250Y-93662500D03*
X207056250Y-93662500D03*
X229506250Y-93662500D03*
X226106250Y-93662500D03*
X248556250Y-93662500D03*
X245156250Y-93662500D03*
X267606250Y-93662500D03*
X264206250Y-93662500D03*
X77106250Y-131762500D03*
X73706250Y-131762500D03*
X96156250Y-131762500D03*
X92756250Y-131762500D03*
X172356250Y-131762500D03*
X168956250Y-131762500D03*
X191406250Y-131762500D03*
X188006250Y-131762500D03*
D24*
X149701250Y-65804250D03*
D25*
X149701250Y-68344250D03*
X149701250Y-70884250D03*
X149701250Y-73424250D03*
X149701250Y-75964250D03*
X149701250Y-78504250D03*
X149701250Y-81044250D03*
X149701250Y-83584250D03*
X149701250Y-86124250D03*
X149701250Y-88664250D03*
X149701250Y-91204250D03*
X149701250Y-93744250D03*
X134461250Y-93744250D03*
X134461250Y-91204250D03*
X134461250Y-88664250D03*
X134461250Y-86124250D03*
X134461250Y-83584250D03*
X134461250Y-81044250D03*
X134461250Y-78504250D03*
X134461250Y-75964250D03*
X134461250Y-73424250D03*
X134461250Y-70884250D03*
X134461250Y-68344250D03*
X134461250Y-65804250D03*
D23*
X115206250Y-131762500D03*
X111806250Y-131762500D03*
X210456250Y-131762500D03*
X207056250Y-131762500D03*
M02*
