M48
; DRILL file {KiCad (5.99.0-10034-g38c849bde7)} date Mon Apr 26 20:35:43 2021
; FORMAT={-:-/ absolute / inch / decimal}
; #@! TF.CreationDate,2021-04-26T20:35:43-07:00
; #@! TF.GenerationSoftware,Kicad,Pcbnew,(5.99.0-10034-g38c849bde7)
; #@! TF.FileFunction,Plated,1,2,PTH
FMAT,2
INCH
; #@! TA.AperFunction,ComponentDrill,Plated,PTH
T1C0.0079
; #@! TA.AperFunction,ViaDrill
T2C0.0157
; #@! TA.AperFunction,ComponentDrill,Plated,PTH
T3C0.0430
; #@! TA.AperFunction,ComponentDrill,Plated,PTH
T4C0.0472
; #@! TA.AperFunction,ComponentDrill,Plated,PTH
T5C0.0579
; #@! TA.AperFunction,ComponentDrill,Plated,PTH
T6C0.0866
%
G90
G05
T1
X5.0057Y-2.5
X5.0568Y-2.5
T2
X2.22Y-3.36
X2.97Y-3.365
X3.17Y-3.265
X3.72Y-3.365
X3.925Y-3.26
X4.47Y-3.365
X4.68Y-3.265
X5.59Y-3.63
X6.51Y-3.585
X6.72Y-3.36
X7.47Y-3.36
X8.22Y-3.36
X8.97Y-3.365
X9.72Y-3.365
T3
X5.2938Y-2.5907
X5.2938Y-2.6907
X5.2938Y-2.7907
X5.2938Y-2.8907
X5.2938Y-2.9907
X5.2938Y-3.0907
X5.2938Y-3.1907
X5.2938Y-3.2907
X5.2938Y-3.3907
X5.2938Y-3.4907
X5.2938Y-3.5907
X5.2938Y-3.6907
X5.8937Y-2.5907
X5.8937Y-2.6907
X5.8937Y-2.7907
X5.8937Y-2.8907
X5.8937Y-2.9907
X5.8937Y-3.0907
X5.8937Y-3.1907
X5.8937Y-3.2907
X5.8937Y-3.3907
X5.8937Y-3.4907
X5.8937Y-3.5907
X5.8937Y-3.6907
T4
X1.4688Y-2.5177
X1.4688Y-3.2677
X1.6656Y-2.6004
X1.6656Y-3.3504
X2.2188Y-2.5177
X2.2188Y-3.2677
X2.4156Y-2.6004
X2.4156Y-3.3504
X2.9688Y-2.5177
X2.9688Y-3.2677
X2.9688Y-4.7677
X3.1656Y-2.6004
X3.1656Y-3.3504
X3.1656Y-4.8504
X3.7188Y-2.5177
X3.7188Y-3.2677
X3.7188Y-4.7677
X3.9156Y-2.6004
X3.9156Y-3.3504
X3.9156Y-4.8504
X4.4688Y-2.5177
X4.4688Y-3.2677
X4.4688Y-4.7677
X4.6656Y-2.6004
X4.6656Y-3.3504
X4.6656Y-4.8504
X6.7188Y-2.5177
X6.7188Y-3.2677
X6.7188Y-4.7677
X6.9156Y-2.6004
X6.9156Y-3.3504
X6.9156Y-4.8504
X7.4688Y-2.5177
X7.4688Y-3.2677
X7.4688Y-4.7677
X7.6656Y-2.6004
X7.6656Y-3.3504
X7.6656Y-4.8504
X8.2188Y-2.5177
X8.2188Y-3.2677
X8.2188Y-4.7677
X8.4156Y-2.6004
X8.4156Y-3.3504
X8.4156Y-4.8504
X8.9688Y-2.5177
X8.9688Y-3.2677
X9.1656Y-2.6004
X9.1656Y-3.3504
X9.7188Y-2.5177
X9.7188Y-3.2677
X9.9156Y-2.6004
X9.9156Y-3.3504
X10.4688Y-2.5177
X10.4688Y-3.2677
X10.6656Y-2.6004
X10.6656Y-3.3504
T5
X1.3187Y-2.65
X1.3187Y-3.4
X1.3703Y-2.5925
X1.3703Y-3.3425
X1.5672Y-2.5728
X1.5672Y-3.3228
X1.5687Y-2.55
X1.5687Y-3.3
X2.0688Y-2.65
X2.0688Y-3.4
X2.1203Y-2.5925
X2.1203Y-3.3425
X2.3172Y-2.5728
X2.3172Y-3.3228
X2.3188Y-2.55
X2.3188Y-3.3
X2.8188Y-2.65
X2.8188Y-3.4
X2.8188Y-4.9
X2.8703Y-2.5925
X2.8703Y-3.3425
X2.8703Y-4.8425
X3.0672Y-2.5728
X3.0672Y-3.3228
X3.0672Y-4.8228
X3.0688Y-2.55
X3.0688Y-3.3
X3.0688Y-4.8
X3.5688Y-2.65
X3.5688Y-3.4
X3.5688Y-4.9
X3.6203Y-2.5925
X3.6203Y-3.3425
X3.6203Y-4.8425
X3.8172Y-2.5728
X3.8172Y-3.3228
X3.8172Y-4.8228
X3.8188Y-2.55
X3.8188Y-3.3
X3.8188Y-4.8
X4.3187Y-2.65
X4.3187Y-3.4
X4.3187Y-4.9
X4.3703Y-2.5925
X4.3703Y-3.3425
X4.3703Y-4.8425
X4.5672Y-2.5728
X4.5672Y-3.3228
X4.5672Y-4.8228
X4.5687Y-2.55
X4.5687Y-3.3
X4.5687Y-4.8
X6.5687Y-2.65
X6.5687Y-3.4
X6.5687Y-4.9
X6.6203Y-2.5925
X6.6203Y-3.3425
X6.6203Y-4.8425
X6.8172Y-2.5728
X6.8172Y-3.3228
X6.8172Y-4.8228
X6.8187Y-2.55
X6.8187Y-3.3
X6.8187Y-4.8
X7.3187Y-2.65
X7.3187Y-3.4
X7.3187Y-4.9
X7.3703Y-2.5925
X7.3703Y-3.3425
X7.3703Y-4.8425
X7.5672Y-2.5728
X7.5672Y-3.3228
X7.5672Y-4.8228
X7.5687Y-2.55
X7.5687Y-3.3
X7.5687Y-4.8
X8.0687Y-2.65
X8.0687Y-3.4
X8.0687Y-4.9
X8.1203Y-2.5925
X8.1203Y-3.3425
X8.1203Y-4.8425
X8.3172Y-2.5728
X8.3172Y-3.3228
X8.3172Y-4.8228
X8.3187Y-2.55
X8.3187Y-3.3
X8.3187Y-4.8
X8.8187Y-2.65
X8.8187Y-3.4
X8.8703Y-2.5925
X8.8703Y-3.3425
X9.0672Y-2.5728
X9.0672Y-3.3228
X9.0687Y-2.55
X9.0687Y-3.3
X9.5687Y-2.65
X9.5687Y-3.4
X9.6203Y-2.5925
X9.6203Y-3.3425
X9.8172Y-2.5728
X9.8172Y-3.3228
X9.8187Y-2.55
X9.8187Y-3.3
X10.3187Y-2.65
X10.3187Y-3.4
X10.3703Y-2.5925
X10.3703Y-3.3425
X10.5672Y-2.5728
X10.5672Y-3.3228
X10.5687Y-2.55
X10.5687Y-3.3
T6
X1.8438Y-3.125
X3.3438Y-5.0
X4.0938Y-3.125
X7.0938Y-3.125
X7.8438Y-5.0
X10.0938Y-3.125
T0
M30
