G04 #@! TF.GenerationSoftware,KiCad,Pcbnew,(5.99.0-10034-g38c849bde7)*
G04 #@! TF.CreationDate,2021-03-31T23:04:10-07:00*
G04 #@! TF.ProjectId,unisplit_orthosteno,756e6973-706c-4697-945f-6f7274686f73,rev?*
G04 #@! TF.SameCoordinates,Original*
G04 #@! TF.FileFunction,Legend,Bot*
G04 #@! TF.FilePolarity,Positive*
%FSLAX46Y46*%
G04 Gerber Fmt 4.6, Leading zero omitted, Abs format (unit mm)*
G04 Created by KiCad (PCBNEW (5.99.0-10034-g38c849bde7)) date 2021-03-31 23:04:10*
%MOMM*%
%LPD*%
G01*
G04 APERTURE LIST*
G04 Aperture macros list*
%AMHorizOval*
0 Thick line with rounded ends*
0 $1 width*
0 $2 $3 position (X,Y) of the first rounded end (center of the circle)*
0 $4 $5 position (X,Y) of the second rounded end (center of the circle)*
0 Add line between two ends*
20,1,$1,$2,$3,$4,$5,0*
0 Add two circle primitives to create the rounded ends*
1,1,$1,$2,$3*
1,1,$1,$4,$5*%
%AMFreePoly0*
4,1,22,0.500000,-0.750000,0.000000,-0.750000,0.000000,-0.745033,-0.079941,-0.743568,-0.215256,-0.701293,-0.333266,-0.622738,-0.424486,-0.514219,-0.481581,-0.384460,-0.499164,-0.250000,-0.500000,-0.250000,-0.500000,0.250000,-0.499164,0.250000,-0.499963,0.256109,-0.478152,0.396186,-0.417904,0.524511,-0.324060,0.630769,-0.204165,0.706417,-0.067858,0.745374,0.000000,0.744959,0.000000,0.750000,
0.500000,0.750000,0.500000,-0.750000,0.500000,-0.750000,$1*%
%AMFreePoly1*
4,1,20,0.000000,0.744959,0.073905,0.744508,0.209726,0.703889,0.328688,0.626782,0.421226,0.519385,0.479903,0.390333,0.500000,0.250000,0.500000,-0.250000,0.499851,-0.262216,0.476331,-0.402017,0.414519,-0.529596,0.319384,-0.634700,0.198574,-0.708877,0.061801,-0.746166,0.000000,-0.745033,0.000000,-0.750000,-0.500000,-0.750000,-0.500000,0.750000,0.000000,0.750000,0.000000,0.744959,
0.000000,0.744959,$1*%
G04 Aperture macros list end*
%ADD10C,0.150000*%
%ADD11C,0.200000*%
%ADD12C,0.381000*%
%ADD13R,1.752600X1.752600*%
%ADD14C,1.752600*%
%ADD15C,1.200000*%
%ADD16C,1.700000*%
%ADD17C,1.750000*%
%ADD18C,3.987800*%
%ADD19HorizOval,2.250000X0.019771X0.290016X-0.019771X-0.290016X0*%
%ADD20C,2.000000*%
%ADD21C,2.250000*%
%ADD22HorizOval,2.250000X0.654995X0.730004X-0.654995X-0.730004X0*%
%ADD23C,3.800000*%
%ADD24FreePoly0,0.000000*%
%ADD25FreePoly1,0.000000*%
%ADD26R,1.200000X1.400000*%
G04 APERTURE END LIST*
D10*
X38591964Y-73477380D02*
X38591964Y-72477380D01*
X38258630Y-73191666D01*
X37925297Y-72477380D01*
X37925297Y-73477380D01*
X37544345Y-72477380D02*
X36877678Y-73477380D01*
X36877678Y-72477380D02*
X37544345Y-73477380D01*
X35972916Y-73477380D02*
X36544345Y-73477380D01*
X36258630Y-73477380D02*
X36258630Y-72477380D01*
X36353869Y-72620238D01*
X36449107Y-72715476D01*
X36544345Y-72763095D01*
X57641964Y-73477380D02*
X57641964Y-72477380D01*
X57308630Y-73191666D01*
X56975297Y-72477380D01*
X56975297Y-73477380D01*
X56594345Y-72477380D02*
X55927678Y-73477380D01*
X55927678Y-72477380D02*
X56594345Y-73477380D01*
X55594345Y-72572619D02*
X55546726Y-72525000D01*
X55451488Y-72477380D01*
X55213392Y-72477380D01*
X55118154Y-72525000D01*
X55070535Y-72572619D01*
X55022916Y-72667857D01*
X55022916Y-72763095D01*
X55070535Y-72905952D01*
X55641964Y-73477380D01*
X55022916Y-73477380D01*
X76691964Y-73477380D02*
X76691964Y-72477380D01*
X76358630Y-73191666D01*
X76025297Y-72477380D01*
X76025297Y-73477380D01*
X75644345Y-72477380D02*
X74977678Y-73477380D01*
X74977678Y-72477380D02*
X75644345Y-73477380D01*
X74691964Y-72477380D02*
X74072916Y-72477380D01*
X74406250Y-72858333D01*
X74263392Y-72858333D01*
X74168154Y-72905952D01*
X74120535Y-72953571D01*
X74072916Y-73048809D01*
X74072916Y-73286904D01*
X74120535Y-73382142D01*
X74168154Y-73429761D01*
X74263392Y-73477380D01*
X74549107Y-73477380D01*
X74644345Y-73429761D01*
X74691964Y-73382142D01*
X95741964Y-73477380D02*
X95741964Y-72477380D01*
X95408630Y-73191666D01*
X95075297Y-72477380D01*
X95075297Y-73477380D01*
X94694345Y-72477380D02*
X94027678Y-73477380D01*
X94027678Y-72477380D02*
X94694345Y-73477380D01*
X93218154Y-72810714D02*
X93218154Y-73477380D01*
X93456250Y-72429761D02*
X93694345Y-73144047D01*
X93075297Y-73144047D01*
X114791964Y-73477380D02*
X114791964Y-72477380D01*
X114458630Y-73191666D01*
X114125297Y-72477380D01*
X114125297Y-73477380D01*
X113744345Y-72477380D02*
X113077678Y-73477380D01*
X113077678Y-72477380D02*
X113744345Y-73477380D01*
X112220535Y-72477380D02*
X112696726Y-72477380D01*
X112744345Y-72953571D01*
X112696726Y-72905952D01*
X112601488Y-72858333D01*
X112363392Y-72858333D01*
X112268154Y-72905952D01*
X112220535Y-72953571D01*
X112172916Y-73048809D01*
X112172916Y-73286904D01*
X112220535Y-73382142D01*
X112268154Y-73429761D01*
X112363392Y-73477380D01*
X112601488Y-73477380D01*
X112696726Y-73429761D01*
X112744345Y-73382142D01*
X171941964Y-73477380D02*
X171941964Y-72477380D01*
X171608630Y-73191666D01*
X171275297Y-72477380D01*
X171275297Y-73477380D01*
X170894345Y-72477380D02*
X170227678Y-73477380D01*
X170227678Y-72477380D02*
X170894345Y-73477380D01*
X169418154Y-72477380D02*
X169608630Y-72477380D01*
X169703869Y-72525000D01*
X169751488Y-72572619D01*
X169846726Y-72715476D01*
X169894345Y-72905952D01*
X169894345Y-73286904D01*
X169846726Y-73382142D01*
X169799107Y-73429761D01*
X169703869Y-73477380D01*
X169513392Y-73477380D01*
X169418154Y-73429761D01*
X169370535Y-73382142D01*
X169322916Y-73286904D01*
X169322916Y-73048809D01*
X169370535Y-72953571D01*
X169418154Y-72905952D01*
X169513392Y-72858333D01*
X169703869Y-72858333D01*
X169799107Y-72905952D01*
X169846726Y-72953571D01*
X169894345Y-73048809D01*
X190991964Y-73477380D02*
X190991964Y-72477380D01*
X190658630Y-73191666D01*
X190325297Y-72477380D01*
X190325297Y-73477380D01*
X189944345Y-72477380D02*
X189277678Y-73477380D01*
X189277678Y-72477380D02*
X189944345Y-73477380D01*
X188991964Y-72477380D02*
X188325297Y-72477380D01*
X188753869Y-73477380D01*
X210041964Y-73477380D02*
X210041964Y-72477380D01*
X209708630Y-73191666D01*
X209375297Y-72477380D01*
X209375297Y-73477380D01*
X208994345Y-72477380D02*
X208327678Y-73477380D01*
X208327678Y-72477380D02*
X208994345Y-73477380D01*
X207803869Y-72905952D02*
X207899107Y-72858333D01*
X207946726Y-72810714D01*
X207994345Y-72715476D01*
X207994345Y-72667857D01*
X207946726Y-72572619D01*
X207899107Y-72525000D01*
X207803869Y-72477380D01*
X207613392Y-72477380D01*
X207518154Y-72525000D01*
X207470535Y-72572619D01*
X207422916Y-72667857D01*
X207422916Y-72715476D01*
X207470535Y-72810714D01*
X207518154Y-72858333D01*
X207613392Y-72905952D01*
X207803869Y-72905952D01*
X207899107Y-72953571D01*
X207946726Y-73001190D01*
X207994345Y-73096428D01*
X207994345Y-73286904D01*
X207946726Y-73382142D01*
X207899107Y-73429761D01*
X207803869Y-73477380D01*
X207613392Y-73477380D01*
X207518154Y-73429761D01*
X207470535Y-73382142D01*
X207422916Y-73286904D01*
X207422916Y-73096428D01*
X207470535Y-73001190D01*
X207518154Y-72953571D01*
X207613392Y-72905952D01*
X229091964Y-73477380D02*
X229091964Y-72477380D01*
X228758630Y-73191666D01*
X228425297Y-72477380D01*
X228425297Y-73477380D01*
X228044345Y-72477380D02*
X227377678Y-73477380D01*
X227377678Y-72477380D02*
X228044345Y-73477380D01*
X226949107Y-73477380D02*
X226758630Y-73477380D01*
X226663392Y-73429761D01*
X226615773Y-73382142D01*
X226520535Y-73239285D01*
X226472916Y-73048809D01*
X226472916Y-72667857D01*
X226520535Y-72572619D01*
X226568154Y-72525000D01*
X226663392Y-72477380D01*
X226853869Y-72477380D01*
X226949107Y-72525000D01*
X226996726Y-72572619D01*
X227044345Y-72667857D01*
X227044345Y-72905952D01*
X226996726Y-73001190D01*
X226949107Y-73048809D01*
X226853869Y-73096428D01*
X226663392Y-73096428D01*
X226568154Y-73048809D01*
X226520535Y-73001190D01*
X226472916Y-72905952D01*
X248618154Y-73477380D02*
X248618154Y-72477380D01*
X248284821Y-73191666D01*
X247951488Y-72477380D01*
X247951488Y-73477380D01*
X247570535Y-72477380D02*
X246903869Y-73477380D01*
X246903869Y-72477380D02*
X247570535Y-73477380D01*
X245999107Y-73477380D02*
X246570535Y-73477380D01*
X246284821Y-73477380D02*
X246284821Y-72477380D01*
X246380059Y-72620238D01*
X246475297Y-72715476D01*
X246570535Y-72763095D01*
X245380059Y-72477380D02*
X245284821Y-72477380D01*
X245189583Y-72525000D01*
X245141964Y-72572619D01*
X245094345Y-72667857D01*
X245046726Y-72858333D01*
X245046726Y-73096428D01*
X245094345Y-73286904D01*
X245141964Y-73382142D01*
X245189583Y-73429761D01*
X245284821Y-73477380D01*
X245380059Y-73477380D01*
X245475297Y-73429761D01*
X245522916Y-73382142D01*
X245570535Y-73286904D01*
X245618154Y-73096428D01*
X245618154Y-72858333D01*
X245570535Y-72667857D01*
X245522916Y-72572619D01*
X245475297Y-72525000D01*
X245380059Y-72477380D01*
X267668154Y-73477380D02*
X267668154Y-72477380D01*
X267334821Y-73191666D01*
X267001488Y-72477380D01*
X267001488Y-73477380D01*
X266620535Y-72477380D02*
X265953869Y-73477380D01*
X265953869Y-72477380D02*
X266620535Y-73477380D01*
X265049107Y-73477380D02*
X265620535Y-73477380D01*
X265334821Y-73477380D02*
X265334821Y-72477380D01*
X265430059Y-72620238D01*
X265525297Y-72715476D01*
X265620535Y-72763095D01*
X264096726Y-73477380D02*
X264668154Y-73477380D01*
X264382440Y-73477380D02*
X264382440Y-72477380D01*
X264477678Y-72620238D01*
X264572916Y-72715476D01*
X264668154Y-72763095D01*
X39068154Y-92527380D02*
X39068154Y-91527380D01*
X38734821Y-92241666D01*
X38401488Y-91527380D01*
X38401488Y-92527380D01*
X38020535Y-91527380D02*
X37353869Y-92527380D01*
X37353869Y-91527380D02*
X38020535Y-92527380D01*
X36449107Y-92527380D02*
X37020535Y-92527380D01*
X36734821Y-92527380D02*
X36734821Y-91527380D01*
X36830059Y-91670238D01*
X36925297Y-91765476D01*
X37020535Y-91813095D01*
X36068154Y-91622619D02*
X36020535Y-91575000D01*
X35925297Y-91527380D01*
X35687202Y-91527380D01*
X35591964Y-91575000D01*
X35544345Y-91622619D01*
X35496726Y-91717857D01*
X35496726Y-91813095D01*
X35544345Y-91955952D01*
X36115773Y-92527380D01*
X35496726Y-92527380D01*
X58118154Y-92527380D02*
X58118154Y-91527380D01*
X57784821Y-92241666D01*
X57451488Y-91527380D01*
X57451488Y-92527380D01*
X57070535Y-91527380D02*
X56403869Y-92527380D01*
X56403869Y-91527380D02*
X57070535Y-92527380D01*
X55499107Y-92527380D02*
X56070535Y-92527380D01*
X55784821Y-92527380D02*
X55784821Y-91527380D01*
X55880059Y-91670238D01*
X55975297Y-91765476D01*
X56070535Y-91813095D01*
X55165773Y-91527380D02*
X54546726Y-91527380D01*
X54880059Y-91908333D01*
X54737202Y-91908333D01*
X54641964Y-91955952D01*
X54594345Y-92003571D01*
X54546726Y-92098809D01*
X54546726Y-92336904D01*
X54594345Y-92432142D01*
X54641964Y-92479761D01*
X54737202Y-92527380D01*
X55022916Y-92527380D01*
X55118154Y-92479761D01*
X55165773Y-92432142D01*
X77168154Y-92527380D02*
X77168154Y-91527380D01*
X76834821Y-92241666D01*
X76501488Y-91527380D01*
X76501488Y-92527380D01*
X76120535Y-91527380D02*
X75453869Y-92527380D01*
X75453869Y-91527380D02*
X76120535Y-92527380D01*
X74549107Y-92527380D02*
X75120535Y-92527380D01*
X74834821Y-92527380D02*
X74834821Y-91527380D01*
X74930059Y-91670238D01*
X75025297Y-91765476D01*
X75120535Y-91813095D01*
X73691964Y-91860714D02*
X73691964Y-92527380D01*
X73930059Y-91479761D02*
X74168154Y-92194047D01*
X73549107Y-92194047D01*
X96218154Y-92527380D02*
X96218154Y-91527380D01*
X95884821Y-92241666D01*
X95551488Y-91527380D01*
X95551488Y-92527380D01*
X95170535Y-91527380D02*
X94503869Y-92527380D01*
X94503869Y-91527380D02*
X95170535Y-92527380D01*
X93599107Y-92527380D02*
X94170535Y-92527380D01*
X93884821Y-92527380D02*
X93884821Y-91527380D01*
X93980059Y-91670238D01*
X94075297Y-91765476D01*
X94170535Y-91813095D01*
X92694345Y-91527380D02*
X93170535Y-91527380D01*
X93218154Y-92003571D01*
X93170535Y-91955952D01*
X93075297Y-91908333D01*
X92837202Y-91908333D01*
X92741964Y-91955952D01*
X92694345Y-92003571D01*
X92646726Y-92098809D01*
X92646726Y-92336904D01*
X92694345Y-92432142D01*
X92741964Y-92479761D01*
X92837202Y-92527380D01*
X93075297Y-92527380D01*
X93170535Y-92479761D01*
X93218154Y-92432142D01*
X115268154Y-92527380D02*
X115268154Y-91527380D01*
X114934821Y-92241666D01*
X114601488Y-91527380D01*
X114601488Y-92527380D01*
X114220535Y-91527380D02*
X113553869Y-92527380D01*
X113553869Y-91527380D02*
X114220535Y-92527380D01*
X112649107Y-92527380D02*
X113220535Y-92527380D01*
X112934821Y-92527380D02*
X112934821Y-91527380D01*
X113030059Y-91670238D01*
X113125297Y-91765476D01*
X113220535Y-91813095D01*
X111791964Y-91527380D02*
X111982440Y-91527380D01*
X112077678Y-91575000D01*
X112125297Y-91622619D01*
X112220535Y-91765476D01*
X112268154Y-91955952D01*
X112268154Y-92336904D01*
X112220535Y-92432142D01*
X112172916Y-92479761D01*
X112077678Y-92527380D01*
X111887202Y-92527380D01*
X111791964Y-92479761D01*
X111744345Y-92432142D01*
X111696726Y-92336904D01*
X111696726Y-92098809D01*
X111744345Y-92003571D01*
X111791964Y-91955952D01*
X111887202Y-91908333D01*
X112077678Y-91908333D01*
X112172916Y-91955952D01*
X112220535Y-92003571D01*
X112268154Y-92098809D01*
X172418154Y-92527380D02*
X172418154Y-91527380D01*
X172084821Y-92241666D01*
X171751488Y-91527380D01*
X171751488Y-92527380D01*
X171370535Y-91527380D02*
X170703869Y-92527380D01*
X170703869Y-91527380D02*
X171370535Y-92527380D01*
X169799107Y-92527380D02*
X170370535Y-92527380D01*
X170084821Y-92527380D02*
X170084821Y-91527380D01*
X170180059Y-91670238D01*
X170275297Y-91765476D01*
X170370535Y-91813095D01*
X169465773Y-91527380D02*
X168799107Y-91527380D01*
X169227678Y-92527380D01*
X191468154Y-92527380D02*
X191468154Y-91527380D01*
X191134821Y-92241666D01*
X190801488Y-91527380D01*
X190801488Y-92527380D01*
X190420535Y-91527380D02*
X189753869Y-92527380D01*
X189753869Y-91527380D02*
X190420535Y-92527380D01*
X188849107Y-92527380D02*
X189420535Y-92527380D01*
X189134821Y-92527380D02*
X189134821Y-91527380D01*
X189230059Y-91670238D01*
X189325297Y-91765476D01*
X189420535Y-91813095D01*
X188277678Y-91955952D02*
X188372916Y-91908333D01*
X188420535Y-91860714D01*
X188468154Y-91765476D01*
X188468154Y-91717857D01*
X188420535Y-91622619D01*
X188372916Y-91575000D01*
X188277678Y-91527380D01*
X188087202Y-91527380D01*
X187991964Y-91575000D01*
X187944345Y-91622619D01*
X187896726Y-91717857D01*
X187896726Y-91765476D01*
X187944345Y-91860714D01*
X187991964Y-91908333D01*
X188087202Y-91955952D01*
X188277678Y-91955952D01*
X188372916Y-92003571D01*
X188420535Y-92051190D01*
X188468154Y-92146428D01*
X188468154Y-92336904D01*
X188420535Y-92432142D01*
X188372916Y-92479761D01*
X188277678Y-92527380D01*
X188087202Y-92527380D01*
X187991964Y-92479761D01*
X187944345Y-92432142D01*
X187896726Y-92336904D01*
X187896726Y-92146428D01*
X187944345Y-92051190D01*
X187991964Y-92003571D01*
X188087202Y-91955952D01*
X210518154Y-92527380D02*
X210518154Y-91527380D01*
X210184821Y-92241666D01*
X209851488Y-91527380D01*
X209851488Y-92527380D01*
X209470535Y-91527380D02*
X208803869Y-92527380D01*
X208803869Y-91527380D02*
X209470535Y-92527380D01*
X207899107Y-92527380D02*
X208470535Y-92527380D01*
X208184821Y-92527380D02*
X208184821Y-91527380D01*
X208280059Y-91670238D01*
X208375297Y-91765476D01*
X208470535Y-91813095D01*
X207422916Y-92527380D02*
X207232440Y-92527380D01*
X207137202Y-92479761D01*
X207089583Y-92432142D01*
X206994345Y-92289285D01*
X206946726Y-92098809D01*
X206946726Y-91717857D01*
X206994345Y-91622619D01*
X207041964Y-91575000D01*
X207137202Y-91527380D01*
X207327678Y-91527380D01*
X207422916Y-91575000D01*
X207470535Y-91622619D01*
X207518154Y-91717857D01*
X207518154Y-91955952D01*
X207470535Y-92051190D01*
X207422916Y-92098809D01*
X207327678Y-92146428D01*
X207137202Y-92146428D01*
X207041964Y-92098809D01*
X206994345Y-92051190D01*
X206946726Y-91955952D01*
X229568154Y-92527380D02*
X229568154Y-91527380D01*
X229234821Y-92241666D01*
X228901488Y-91527380D01*
X228901488Y-92527380D01*
X228520535Y-91527380D02*
X227853869Y-92527380D01*
X227853869Y-91527380D02*
X228520535Y-92527380D01*
X227520535Y-91622619D02*
X227472916Y-91575000D01*
X227377678Y-91527380D01*
X227139583Y-91527380D01*
X227044345Y-91575000D01*
X226996726Y-91622619D01*
X226949107Y-91717857D01*
X226949107Y-91813095D01*
X226996726Y-91955952D01*
X227568154Y-92527380D01*
X226949107Y-92527380D01*
X226330059Y-91527380D02*
X226234821Y-91527380D01*
X226139583Y-91575000D01*
X226091964Y-91622619D01*
X226044345Y-91717857D01*
X225996726Y-91908333D01*
X225996726Y-92146428D01*
X226044345Y-92336904D01*
X226091964Y-92432142D01*
X226139583Y-92479761D01*
X226234821Y-92527380D01*
X226330059Y-92527380D01*
X226425297Y-92479761D01*
X226472916Y-92432142D01*
X226520535Y-92336904D01*
X226568154Y-92146428D01*
X226568154Y-91908333D01*
X226520535Y-91717857D01*
X226472916Y-91622619D01*
X226425297Y-91575000D01*
X226330059Y-91527380D01*
X248618154Y-92527380D02*
X248618154Y-91527380D01*
X248284821Y-92241666D01*
X247951488Y-91527380D01*
X247951488Y-92527380D01*
X247570535Y-91527380D02*
X246903869Y-92527380D01*
X246903869Y-91527380D02*
X247570535Y-92527380D01*
X246570535Y-91622619D02*
X246522916Y-91575000D01*
X246427678Y-91527380D01*
X246189583Y-91527380D01*
X246094345Y-91575000D01*
X246046726Y-91622619D01*
X245999107Y-91717857D01*
X245999107Y-91813095D01*
X246046726Y-91955952D01*
X246618154Y-92527380D01*
X245999107Y-92527380D01*
X245046726Y-92527380D02*
X245618154Y-92527380D01*
X245332440Y-92527380D02*
X245332440Y-91527380D01*
X245427678Y-91670238D01*
X245522916Y-91765476D01*
X245618154Y-91813095D01*
X267668154Y-92527380D02*
X267668154Y-91527380D01*
X267334821Y-92241666D01*
X267001488Y-91527380D01*
X267001488Y-92527380D01*
X266620535Y-91527380D02*
X265953869Y-92527380D01*
X265953869Y-91527380D02*
X266620535Y-92527380D01*
X265620535Y-91622619D02*
X265572916Y-91575000D01*
X265477678Y-91527380D01*
X265239583Y-91527380D01*
X265144345Y-91575000D01*
X265096726Y-91622619D01*
X265049107Y-91717857D01*
X265049107Y-91813095D01*
X265096726Y-91955952D01*
X265668154Y-92527380D01*
X265049107Y-92527380D01*
X264668154Y-91622619D02*
X264620535Y-91575000D01*
X264525297Y-91527380D01*
X264287202Y-91527380D01*
X264191964Y-91575000D01*
X264144345Y-91622619D01*
X264096726Y-91717857D01*
X264096726Y-91813095D01*
X264144345Y-91955952D01*
X264715773Y-92527380D01*
X264096726Y-92527380D01*
X77168154Y-130627380D02*
X77168154Y-129627380D01*
X76834821Y-130341666D01*
X76501488Y-129627380D01*
X76501488Y-130627380D01*
X76120535Y-129627380D02*
X75453869Y-130627380D01*
X75453869Y-129627380D02*
X76120535Y-130627380D01*
X75120535Y-129722619D02*
X75072916Y-129675000D01*
X74977678Y-129627380D01*
X74739583Y-129627380D01*
X74644345Y-129675000D01*
X74596726Y-129722619D01*
X74549107Y-129817857D01*
X74549107Y-129913095D01*
X74596726Y-130055952D01*
X75168154Y-130627380D01*
X74549107Y-130627380D01*
X74215773Y-129627380D02*
X73596726Y-129627380D01*
X73930059Y-130008333D01*
X73787202Y-130008333D01*
X73691964Y-130055952D01*
X73644345Y-130103571D01*
X73596726Y-130198809D01*
X73596726Y-130436904D01*
X73644345Y-130532142D01*
X73691964Y-130579761D01*
X73787202Y-130627380D01*
X74072916Y-130627380D01*
X74168154Y-130579761D01*
X74215773Y-130532142D01*
X96218154Y-130627380D02*
X96218154Y-129627380D01*
X95884821Y-130341666D01*
X95551488Y-129627380D01*
X95551488Y-130627380D01*
X95170535Y-129627380D02*
X94503869Y-130627380D01*
X94503869Y-129627380D02*
X95170535Y-130627380D01*
X94170535Y-129722619D02*
X94122916Y-129675000D01*
X94027678Y-129627380D01*
X93789583Y-129627380D01*
X93694345Y-129675000D01*
X93646726Y-129722619D01*
X93599107Y-129817857D01*
X93599107Y-129913095D01*
X93646726Y-130055952D01*
X94218154Y-130627380D01*
X93599107Y-130627380D01*
X92741964Y-129960714D02*
X92741964Y-130627380D01*
X92980059Y-129579761D02*
X93218154Y-130294047D01*
X92599107Y-130294047D01*
X172418154Y-130627380D02*
X172418154Y-129627380D01*
X172084821Y-130341666D01*
X171751488Y-129627380D01*
X171751488Y-130627380D01*
X171370535Y-129627380D02*
X170703869Y-130627380D01*
X170703869Y-129627380D02*
X171370535Y-130627380D01*
X170370535Y-129722619D02*
X170322916Y-129675000D01*
X170227678Y-129627380D01*
X169989583Y-129627380D01*
X169894345Y-129675000D01*
X169846726Y-129722619D01*
X169799107Y-129817857D01*
X169799107Y-129913095D01*
X169846726Y-130055952D01*
X170418154Y-130627380D01*
X169799107Y-130627380D01*
X168941964Y-129627380D02*
X169132440Y-129627380D01*
X169227678Y-129675000D01*
X169275297Y-129722619D01*
X169370535Y-129865476D01*
X169418154Y-130055952D01*
X169418154Y-130436904D01*
X169370535Y-130532142D01*
X169322916Y-130579761D01*
X169227678Y-130627380D01*
X169037202Y-130627380D01*
X168941964Y-130579761D01*
X168894345Y-130532142D01*
X168846726Y-130436904D01*
X168846726Y-130198809D01*
X168894345Y-130103571D01*
X168941964Y-130055952D01*
X169037202Y-130008333D01*
X169227678Y-130008333D01*
X169322916Y-130055952D01*
X169370535Y-130103571D01*
X169418154Y-130198809D01*
X191468154Y-130627380D02*
X191468154Y-129627380D01*
X191134821Y-130341666D01*
X190801488Y-129627380D01*
X190801488Y-130627380D01*
X190420535Y-129627380D02*
X189753869Y-130627380D01*
X189753869Y-129627380D02*
X190420535Y-130627380D01*
X189420535Y-129722619D02*
X189372916Y-129675000D01*
X189277678Y-129627380D01*
X189039583Y-129627380D01*
X188944345Y-129675000D01*
X188896726Y-129722619D01*
X188849107Y-129817857D01*
X188849107Y-129913095D01*
X188896726Y-130055952D01*
X189468154Y-130627380D01*
X188849107Y-130627380D01*
X188515773Y-129627380D02*
X187849107Y-129627380D01*
X188277678Y-130627380D01*
X115268154Y-130627380D02*
X115268154Y-129627380D01*
X114934821Y-130341666D01*
X114601488Y-129627380D01*
X114601488Y-130627380D01*
X114220535Y-129627380D02*
X113553869Y-130627380D01*
X113553869Y-129627380D02*
X114220535Y-130627380D01*
X113220535Y-129722619D02*
X113172916Y-129675000D01*
X113077678Y-129627380D01*
X112839583Y-129627380D01*
X112744345Y-129675000D01*
X112696726Y-129722619D01*
X112649107Y-129817857D01*
X112649107Y-129913095D01*
X112696726Y-130055952D01*
X113268154Y-130627380D01*
X112649107Y-130627380D01*
X111744345Y-129627380D02*
X112220535Y-129627380D01*
X112268154Y-130103571D01*
X112220535Y-130055952D01*
X112125297Y-130008333D01*
X111887202Y-130008333D01*
X111791964Y-130055952D01*
X111744345Y-130103571D01*
X111696726Y-130198809D01*
X111696726Y-130436904D01*
X111744345Y-130532142D01*
X111791964Y-130579761D01*
X111887202Y-130627380D01*
X112125297Y-130627380D01*
X112220535Y-130579761D01*
X112268154Y-130532142D01*
X210518154Y-130627380D02*
X210518154Y-129627380D01*
X210184821Y-130341666D01*
X209851488Y-129627380D01*
X209851488Y-130627380D01*
X209470535Y-129627380D02*
X208803869Y-130627380D01*
X208803869Y-129627380D02*
X209470535Y-130627380D01*
X208470535Y-129722619D02*
X208422916Y-129675000D01*
X208327678Y-129627380D01*
X208089583Y-129627380D01*
X207994345Y-129675000D01*
X207946726Y-129722619D01*
X207899107Y-129817857D01*
X207899107Y-129913095D01*
X207946726Y-130055952D01*
X208518154Y-130627380D01*
X207899107Y-130627380D01*
X207327678Y-130055952D02*
X207422916Y-130008333D01*
X207470535Y-129960714D01*
X207518154Y-129865476D01*
X207518154Y-129817857D01*
X207470535Y-129722619D01*
X207422916Y-129675000D01*
X207327678Y-129627380D01*
X207137202Y-129627380D01*
X207041964Y-129675000D01*
X206994345Y-129722619D01*
X206946726Y-129817857D01*
X206946726Y-129865476D01*
X206994345Y-129960714D01*
X207041964Y-130008333D01*
X207137202Y-130055952D01*
X207327678Y-130055952D01*
X207422916Y-130103571D01*
X207470535Y-130151190D01*
X207518154Y-130246428D01*
X207518154Y-130436904D01*
X207470535Y-130532142D01*
X207422916Y-130579761D01*
X207327678Y-130627380D01*
X207137202Y-130627380D01*
X207041964Y-130579761D01*
X206994345Y-130532142D01*
X206946726Y-130436904D01*
X206946726Y-130246428D01*
X206994345Y-130151190D01*
X207041964Y-130103571D01*
X207137202Y-130055952D01*
X37896726Y-76899404D02*
X37896726Y-76099404D01*
X37706250Y-76099404D01*
X37591964Y-76137500D01*
X37515773Y-76213690D01*
X37477678Y-76289880D01*
X37439583Y-76442261D01*
X37439583Y-76556547D01*
X37477678Y-76708928D01*
X37515773Y-76785119D01*
X37591964Y-76861309D01*
X37706250Y-76899404D01*
X37896726Y-76899404D01*
X36677678Y-76899404D02*
X37134821Y-76899404D01*
X36906250Y-76899404D02*
X36906250Y-76099404D01*
X36982440Y-76213690D01*
X37058630Y-76289880D01*
X37134821Y-76327976D01*
X56946726Y-76899404D02*
X56946726Y-76099404D01*
X56756250Y-76099404D01*
X56641964Y-76137500D01*
X56565773Y-76213690D01*
X56527678Y-76289880D01*
X56489583Y-76442261D01*
X56489583Y-76556547D01*
X56527678Y-76708928D01*
X56565773Y-76785119D01*
X56641964Y-76861309D01*
X56756250Y-76899404D01*
X56946726Y-76899404D01*
X56184821Y-76175595D02*
X56146726Y-76137500D01*
X56070535Y-76099404D01*
X55880059Y-76099404D01*
X55803869Y-76137500D01*
X55765773Y-76175595D01*
X55727678Y-76251785D01*
X55727678Y-76327976D01*
X55765773Y-76442261D01*
X56222916Y-76899404D01*
X55727678Y-76899404D01*
X75884226Y-76899404D02*
X75884226Y-76099404D01*
X75693750Y-76099404D01*
X75579464Y-76137500D01*
X75503273Y-76213690D01*
X75465178Y-76289880D01*
X75427083Y-76442261D01*
X75427083Y-76556547D01*
X75465178Y-76708928D01*
X75503273Y-76785119D01*
X75579464Y-76861309D01*
X75693750Y-76899404D01*
X75884226Y-76899404D01*
X75160416Y-76099404D02*
X74665178Y-76099404D01*
X74931845Y-76404166D01*
X74817559Y-76404166D01*
X74741369Y-76442261D01*
X74703273Y-76480357D01*
X74665178Y-76556547D01*
X74665178Y-76747023D01*
X74703273Y-76823214D01*
X74741369Y-76861309D01*
X74817559Y-76899404D01*
X75046130Y-76899404D01*
X75122321Y-76861309D01*
X75160416Y-76823214D01*
X95046726Y-76899404D02*
X95046726Y-76099404D01*
X94856250Y-76099404D01*
X94741964Y-76137500D01*
X94665773Y-76213690D01*
X94627678Y-76289880D01*
X94589583Y-76442261D01*
X94589583Y-76556547D01*
X94627678Y-76708928D01*
X94665773Y-76785119D01*
X94741964Y-76861309D01*
X94856250Y-76899404D01*
X95046726Y-76899404D01*
X93903869Y-76366071D02*
X93903869Y-76899404D01*
X94094345Y-76061309D02*
X94284821Y-76632738D01*
X93789583Y-76632738D01*
X114096726Y-76899404D02*
X114096726Y-76099404D01*
X113906250Y-76099404D01*
X113791964Y-76137500D01*
X113715773Y-76213690D01*
X113677678Y-76289880D01*
X113639583Y-76442261D01*
X113639583Y-76556547D01*
X113677678Y-76708928D01*
X113715773Y-76785119D01*
X113791964Y-76861309D01*
X113906250Y-76899404D01*
X114096726Y-76899404D01*
X112915773Y-76099404D02*
X113296726Y-76099404D01*
X113334821Y-76480357D01*
X113296726Y-76442261D01*
X113220535Y-76404166D01*
X113030059Y-76404166D01*
X112953869Y-76442261D01*
X112915773Y-76480357D01*
X112877678Y-76556547D01*
X112877678Y-76747023D01*
X112915773Y-76823214D01*
X112953869Y-76861309D01*
X113030059Y-76899404D01*
X113220535Y-76899404D01*
X113296726Y-76861309D01*
X113334821Y-76823214D01*
X171246726Y-76899404D02*
X171246726Y-76099404D01*
X171056250Y-76099404D01*
X170941964Y-76137500D01*
X170865773Y-76213690D01*
X170827678Y-76289880D01*
X170789583Y-76442261D01*
X170789583Y-76556547D01*
X170827678Y-76708928D01*
X170865773Y-76785119D01*
X170941964Y-76861309D01*
X171056250Y-76899404D01*
X171246726Y-76899404D01*
X170103869Y-76099404D02*
X170256250Y-76099404D01*
X170332440Y-76137500D01*
X170370535Y-76175595D01*
X170446726Y-76289880D01*
X170484821Y-76442261D01*
X170484821Y-76747023D01*
X170446726Y-76823214D01*
X170408630Y-76861309D01*
X170332440Y-76899404D01*
X170180059Y-76899404D01*
X170103869Y-76861309D01*
X170065773Y-76823214D01*
X170027678Y-76747023D01*
X170027678Y-76556547D01*
X170065773Y-76480357D01*
X170103869Y-76442261D01*
X170180059Y-76404166D01*
X170332440Y-76404166D01*
X170408630Y-76442261D01*
X170446726Y-76480357D01*
X170484821Y-76556547D01*
X190296726Y-76899404D02*
X190296726Y-76099404D01*
X190106250Y-76099404D01*
X189991964Y-76137500D01*
X189915773Y-76213690D01*
X189877678Y-76289880D01*
X189839583Y-76442261D01*
X189839583Y-76556547D01*
X189877678Y-76708928D01*
X189915773Y-76785119D01*
X189991964Y-76861309D01*
X190106250Y-76899404D01*
X190296726Y-76899404D01*
X189572916Y-76099404D02*
X189039583Y-76099404D01*
X189382440Y-76899404D01*
X209346726Y-76899404D02*
X209346726Y-76099404D01*
X209156250Y-76099404D01*
X209041964Y-76137500D01*
X208965773Y-76213690D01*
X208927678Y-76289880D01*
X208889583Y-76442261D01*
X208889583Y-76556547D01*
X208927678Y-76708928D01*
X208965773Y-76785119D01*
X209041964Y-76861309D01*
X209156250Y-76899404D01*
X209346726Y-76899404D01*
X208432440Y-76442261D02*
X208508630Y-76404166D01*
X208546726Y-76366071D01*
X208584821Y-76289880D01*
X208584821Y-76251785D01*
X208546726Y-76175595D01*
X208508630Y-76137500D01*
X208432440Y-76099404D01*
X208280059Y-76099404D01*
X208203869Y-76137500D01*
X208165773Y-76175595D01*
X208127678Y-76251785D01*
X208127678Y-76289880D01*
X208165773Y-76366071D01*
X208203869Y-76404166D01*
X208280059Y-76442261D01*
X208432440Y-76442261D01*
X208508630Y-76480357D01*
X208546726Y-76518452D01*
X208584821Y-76594642D01*
X208584821Y-76747023D01*
X208546726Y-76823214D01*
X208508630Y-76861309D01*
X208432440Y-76899404D01*
X208280059Y-76899404D01*
X208203869Y-76861309D01*
X208165773Y-76823214D01*
X208127678Y-76747023D01*
X208127678Y-76594642D01*
X208165773Y-76518452D01*
X208203869Y-76480357D01*
X208280059Y-76442261D01*
X228396726Y-76899404D02*
X228396726Y-76099404D01*
X228206250Y-76099404D01*
X228091964Y-76137500D01*
X228015773Y-76213690D01*
X227977678Y-76289880D01*
X227939583Y-76442261D01*
X227939583Y-76556547D01*
X227977678Y-76708928D01*
X228015773Y-76785119D01*
X228091964Y-76861309D01*
X228206250Y-76899404D01*
X228396726Y-76899404D01*
X227558630Y-76899404D02*
X227406250Y-76899404D01*
X227330059Y-76861309D01*
X227291964Y-76823214D01*
X227215773Y-76708928D01*
X227177678Y-76556547D01*
X227177678Y-76251785D01*
X227215773Y-76175595D01*
X227253869Y-76137500D01*
X227330059Y-76099404D01*
X227482440Y-76099404D01*
X227558630Y-76137500D01*
X227596726Y-76175595D01*
X227634821Y-76251785D01*
X227634821Y-76442261D01*
X227596726Y-76518452D01*
X227558630Y-76556547D01*
X227482440Y-76594642D01*
X227330059Y-76594642D01*
X227253869Y-76556547D01*
X227215773Y-76518452D01*
X227177678Y-76442261D01*
X247827678Y-76899404D02*
X247827678Y-76099404D01*
X247637202Y-76099404D01*
X247522916Y-76137500D01*
X247446726Y-76213690D01*
X247408630Y-76289880D01*
X247370535Y-76442261D01*
X247370535Y-76556547D01*
X247408630Y-76708928D01*
X247446726Y-76785119D01*
X247522916Y-76861309D01*
X247637202Y-76899404D01*
X247827678Y-76899404D01*
X246608630Y-76899404D02*
X247065773Y-76899404D01*
X246837202Y-76899404D02*
X246837202Y-76099404D01*
X246913392Y-76213690D01*
X246989583Y-76289880D01*
X247065773Y-76327976D01*
X246113392Y-76099404D02*
X246037202Y-76099404D01*
X245961011Y-76137500D01*
X245922916Y-76175595D01*
X245884821Y-76251785D01*
X245846726Y-76404166D01*
X245846726Y-76594642D01*
X245884821Y-76747023D01*
X245922916Y-76823214D01*
X245961011Y-76861309D01*
X246037202Y-76899404D01*
X246113392Y-76899404D01*
X246189583Y-76861309D01*
X246227678Y-76823214D01*
X246265773Y-76747023D01*
X246303869Y-76594642D01*
X246303869Y-76404166D01*
X246265773Y-76251785D01*
X246227678Y-76175595D01*
X246189583Y-76137500D01*
X246113392Y-76099404D01*
X266877678Y-76899404D02*
X266877678Y-76099404D01*
X266687202Y-76099404D01*
X266572916Y-76137500D01*
X266496726Y-76213690D01*
X266458630Y-76289880D01*
X266420535Y-76442261D01*
X266420535Y-76556547D01*
X266458630Y-76708928D01*
X266496726Y-76785119D01*
X266572916Y-76861309D01*
X266687202Y-76899404D01*
X266877678Y-76899404D01*
X265658630Y-76899404D02*
X266115773Y-76899404D01*
X265887202Y-76899404D02*
X265887202Y-76099404D01*
X265963392Y-76213690D01*
X266039583Y-76289880D01*
X266115773Y-76327976D01*
X264896726Y-76899404D02*
X265353869Y-76899404D01*
X265125297Y-76899404D02*
X265125297Y-76099404D01*
X265201488Y-76213690D01*
X265277678Y-76289880D01*
X265353869Y-76327976D01*
X38277678Y-95949404D02*
X38277678Y-95149404D01*
X38087202Y-95149404D01*
X37972916Y-95187500D01*
X37896726Y-95263690D01*
X37858630Y-95339880D01*
X37820535Y-95492261D01*
X37820535Y-95606547D01*
X37858630Y-95758928D01*
X37896726Y-95835119D01*
X37972916Y-95911309D01*
X38087202Y-95949404D01*
X38277678Y-95949404D01*
X37058630Y-95949404D02*
X37515773Y-95949404D01*
X37287202Y-95949404D02*
X37287202Y-95149404D01*
X37363392Y-95263690D01*
X37439583Y-95339880D01*
X37515773Y-95377976D01*
X36753869Y-95225595D02*
X36715773Y-95187500D01*
X36639583Y-95149404D01*
X36449107Y-95149404D01*
X36372916Y-95187500D01*
X36334821Y-95225595D01*
X36296726Y-95301785D01*
X36296726Y-95377976D01*
X36334821Y-95492261D01*
X36791964Y-95949404D01*
X36296726Y-95949404D01*
X57327678Y-95949404D02*
X57327678Y-95149404D01*
X57137202Y-95149404D01*
X57022916Y-95187500D01*
X56946726Y-95263690D01*
X56908630Y-95339880D01*
X56870535Y-95492261D01*
X56870535Y-95606547D01*
X56908630Y-95758928D01*
X56946726Y-95835119D01*
X57022916Y-95911309D01*
X57137202Y-95949404D01*
X57327678Y-95949404D01*
X56108630Y-95949404D02*
X56565773Y-95949404D01*
X56337202Y-95949404D02*
X56337202Y-95149404D01*
X56413392Y-95263690D01*
X56489583Y-95339880D01*
X56565773Y-95377976D01*
X55841964Y-95149404D02*
X55346726Y-95149404D01*
X55613392Y-95454166D01*
X55499107Y-95454166D01*
X55422916Y-95492261D01*
X55384821Y-95530357D01*
X55346726Y-95606547D01*
X55346726Y-95797023D01*
X55384821Y-95873214D01*
X55422916Y-95911309D01*
X55499107Y-95949404D01*
X55727678Y-95949404D01*
X55803869Y-95911309D01*
X55841964Y-95873214D01*
X76377678Y-95949404D02*
X76377678Y-95149404D01*
X76187202Y-95149404D01*
X76072916Y-95187500D01*
X75996726Y-95263690D01*
X75958630Y-95339880D01*
X75920535Y-95492261D01*
X75920535Y-95606547D01*
X75958630Y-95758928D01*
X75996726Y-95835119D01*
X76072916Y-95911309D01*
X76187202Y-95949404D01*
X76377678Y-95949404D01*
X75158630Y-95949404D02*
X75615773Y-95949404D01*
X75387202Y-95949404D02*
X75387202Y-95149404D01*
X75463392Y-95263690D01*
X75539583Y-95339880D01*
X75615773Y-95377976D01*
X74472916Y-95416071D02*
X74472916Y-95949404D01*
X74663392Y-95111309D02*
X74853869Y-95682738D01*
X74358630Y-95682738D01*
X95427678Y-95949404D02*
X95427678Y-95149404D01*
X95237202Y-95149404D01*
X95122916Y-95187500D01*
X95046726Y-95263690D01*
X95008630Y-95339880D01*
X94970535Y-95492261D01*
X94970535Y-95606547D01*
X95008630Y-95758928D01*
X95046726Y-95835119D01*
X95122916Y-95911309D01*
X95237202Y-95949404D01*
X95427678Y-95949404D01*
X94208630Y-95949404D02*
X94665773Y-95949404D01*
X94437202Y-95949404D02*
X94437202Y-95149404D01*
X94513392Y-95263690D01*
X94589583Y-95339880D01*
X94665773Y-95377976D01*
X93484821Y-95149404D02*
X93865773Y-95149404D01*
X93903869Y-95530357D01*
X93865773Y-95492261D01*
X93789583Y-95454166D01*
X93599107Y-95454166D01*
X93522916Y-95492261D01*
X93484821Y-95530357D01*
X93446726Y-95606547D01*
X93446726Y-95797023D01*
X93484821Y-95873214D01*
X93522916Y-95911309D01*
X93599107Y-95949404D01*
X93789583Y-95949404D01*
X93865773Y-95911309D01*
X93903869Y-95873214D01*
X114477678Y-95949404D02*
X114477678Y-95149404D01*
X114287202Y-95149404D01*
X114172916Y-95187500D01*
X114096726Y-95263690D01*
X114058630Y-95339880D01*
X114020535Y-95492261D01*
X114020535Y-95606547D01*
X114058630Y-95758928D01*
X114096726Y-95835119D01*
X114172916Y-95911309D01*
X114287202Y-95949404D01*
X114477678Y-95949404D01*
X113258630Y-95949404D02*
X113715773Y-95949404D01*
X113487202Y-95949404D02*
X113487202Y-95149404D01*
X113563392Y-95263690D01*
X113639583Y-95339880D01*
X113715773Y-95377976D01*
X112572916Y-95149404D02*
X112725297Y-95149404D01*
X112801488Y-95187500D01*
X112839583Y-95225595D01*
X112915773Y-95339880D01*
X112953869Y-95492261D01*
X112953869Y-95797023D01*
X112915773Y-95873214D01*
X112877678Y-95911309D01*
X112801488Y-95949404D01*
X112649107Y-95949404D01*
X112572916Y-95911309D01*
X112534821Y-95873214D01*
X112496726Y-95797023D01*
X112496726Y-95606547D01*
X112534821Y-95530357D01*
X112572916Y-95492261D01*
X112649107Y-95454166D01*
X112801488Y-95454166D01*
X112877678Y-95492261D01*
X112915773Y-95530357D01*
X112953869Y-95606547D01*
X171627678Y-95949404D02*
X171627678Y-95149404D01*
X171437202Y-95149404D01*
X171322916Y-95187500D01*
X171246726Y-95263690D01*
X171208630Y-95339880D01*
X171170535Y-95492261D01*
X171170535Y-95606547D01*
X171208630Y-95758928D01*
X171246726Y-95835119D01*
X171322916Y-95911309D01*
X171437202Y-95949404D01*
X171627678Y-95949404D01*
X170408630Y-95949404D02*
X170865773Y-95949404D01*
X170637202Y-95949404D02*
X170637202Y-95149404D01*
X170713392Y-95263690D01*
X170789583Y-95339880D01*
X170865773Y-95377976D01*
X170141964Y-95149404D02*
X169608630Y-95149404D01*
X169951488Y-95949404D01*
X190677678Y-95949404D02*
X190677678Y-95149404D01*
X190487202Y-95149404D01*
X190372916Y-95187500D01*
X190296726Y-95263690D01*
X190258630Y-95339880D01*
X190220535Y-95492261D01*
X190220535Y-95606547D01*
X190258630Y-95758928D01*
X190296726Y-95835119D01*
X190372916Y-95911309D01*
X190487202Y-95949404D01*
X190677678Y-95949404D01*
X189458630Y-95949404D02*
X189915773Y-95949404D01*
X189687202Y-95949404D02*
X189687202Y-95149404D01*
X189763392Y-95263690D01*
X189839583Y-95339880D01*
X189915773Y-95377976D01*
X189001488Y-95492261D02*
X189077678Y-95454166D01*
X189115773Y-95416071D01*
X189153869Y-95339880D01*
X189153869Y-95301785D01*
X189115773Y-95225595D01*
X189077678Y-95187500D01*
X189001488Y-95149404D01*
X188849107Y-95149404D01*
X188772916Y-95187500D01*
X188734821Y-95225595D01*
X188696726Y-95301785D01*
X188696726Y-95339880D01*
X188734821Y-95416071D01*
X188772916Y-95454166D01*
X188849107Y-95492261D01*
X189001488Y-95492261D01*
X189077678Y-95530357D01*
X189115773Y-95568452D01*
X189153869Y-95644642D01*
X189153869Y-95797023D01*
X189115773Y-95873214D01*
X189077678Y-95911309D01*
X189001488Y-95949404D01*
X188849107Y-95949404D01*
X188772916Y-95911309D01*
X188734821Y-95873214D01*
X188696726Y-95797023D01*
X188696726Y-95644642D01*
X188734821Y-95568452D01*
X188772916Y-95530357D01*
X188849107Y-95492261D01*
X209727678Y-95949404D02*
X209727678Y-95149404D01*
X209537202Y-95149404D01*
X209422916Y-95187500D01*
X209346726Y-95263690D01*
X209308630Y-95339880D01*
X209270535Y-95492261D01*
X209270535Y-95606547D01*
X209308630Y-95758928D01*
X209346726Y-95835119D01*
X209422916Y-95911309D01*
X209537202Y-95949404D01*
X209727678Y-95949404D01*
X208508630Y-95949404D02*
X208965773Y-95949404D01*
X208737202Y-95949404D02*
X208737202Y-95149404D01*
X208813392Y-95263690D01*
X208889583Y-95339880D01*
X208965773Y-95377976D01*
X208127678Y-95949404D02*
X207975297Y-95949404D01*
X207899107Y-95911309D01*
X207861011Y-95873214D01*
X207784821Y-95758928D01*
X207746726Y-95606547D01*
X207746726Y-95301785D01*
X207784821Y-95225595D01*
X207822916Y-95187500D01*
X207899107Y-95149404D01*
X208051488Y-95149404D01*
X208127678Y-95187500D01*
X208165773Y-95225595D01*
X208203869Y-95301785D01*
X208203869Y-95492261D01*
X208165773Y-95568452D01*
X208127678Y-95606547D01*
X208051488Y-95644642D01*
X207899107Y-95644642D01*
X207822916Y-95606547D01*
X207784821Y-95568452D01*
X207746726Y-95492261D01*
X228777678Y-95949404D02*
X228777678Y-95149404D01*
X228587202Y-95149404D01*
X228472916Y-95187500D01*
X228396726Y-95263690D01*
X228358630Y-95339880D01*
X228320535Y-95492261D01*
X228320535Y-95606547D01*
X228358630Y-95758928D01*
X228396726Y-95835119D01*
X228472916Y-95911309D01*
X228587202Y-95949404D01*
X228777678Y-95949404D01*
X228015773Y-95225595D02*
X227977678Y-95187500D01*
X227901488Y-95149404D01*
X227711011Y-95149404D01*
X227634821Y-95187500D01*
X227596726Y-95225595D01*
X227558630Y-95301785D01*
X227558630Y-95377976D01*
X227596726Y-95492261D01*
X228053869Y-95949404D01*
X227558630Y-95949404D01*
X227063392Y-95149404D02*
X226987202Y-95149404D01*
X226911011Y-95187500D01*
X226872916Y-95225595D01*
X226834821Y-95301785D01*
X226796726Y-95454166D01*
X226796726Y-95644642D01*
X226834821Y-95797023D01*
X226872916Y-95873214D01*
X226911011Y-95911309D01*
X226987202Y-95949404D01*
X227063392Y-95949404D01*
X227139583Y-95911309D01*
X227177678Y-95873214D01*
X227215773Y-95797023D01*
X227253869Y-95644642D01*
X227253869Y-95454166D01*
X227215773Y-95301785D01*
X227177678Y-95225595D01*
X227139583Y-95187500D01*
X227063392Y-95149404D01*
X247827678Y-95949404D02*
X247827678Y-95149404D01*
X247637202Y-95149404D01*
X247522916Y-95187500D01*
X247446726Y-95263690D01*
X247408630Y-95339880D01*
X247370535Y-95492261D01*
X247370535Y-95606547D01*
X247408630Y-95758928D01*
X247446726Y-95835119D01*
X247522916Y-95911309D01*
X247637202Y-95949404D01*
X247827678Y-95949404D01*
X247065773Y-95225595D02*
X247027678Y-95187500D01*
X246951488Y-95149404D01*
X246761011Y-95149404D01*
X246684821Y-95187500D01*
X246646726Y-95225595D01*
X246608630Y-95301785D01*
X246608630Y-95377976D01*
X246646726Y-95492261D01*
X247103869Y-95949404D01*
X246608630Y-95949404D01*
X245846726Y-95949404D02*
X246303869Y-95949404D01*
X246075297Y-95949404D02*
X246075297Y-95149404D01*
X246151488Y-95263690D01*
X246227678Y-95339880D01*
X246303869Y-95377976D01*
X266877678Y-95949404D02*
X266877678Y-95149404D01*
X266687202Y-95149404D01*
X266572916Y-95187500D01*
X266496726Y-95263690D01*
X266458630Y-95339880D01*
X266420535Y-95492261D01*
X266420535Y-95606547D01*
X266458630Y-95758928D01*
X266496726Y-95835119D01*
X266572916Y-95911309D01*
X266687202Y-95949404D01*
X266877678Y-95949404D01*
X266115773Y-95225595D02*
X266077678Y-95187500D01*
X266001488Y-95149404D01*
X265811011Y-95149404D01*
X265734821Y-95187500D01*
X265696726Y-95225595D01*
X265658630Y-95301785D01*
X265658630Y-95377976D01*
X265696726Y-95492261D01*
X266153869Y-95949404D01*
X265658630Y-95949404D01*
X265353869Y-95225595D02*
X265315773Y-95187500D01*
X265239583Y-95149404D01*
X265049107Y-95149404D01*
X264972916Y-95187500D01*
X264934821Y-95225595D01*
X264896726Y-95301785D01*
X264896726Y-95377976D01*
X264934821Y-95492261D01*
X265391964Y-95949404D01*
X264896726Y-95949404D01*
X76377678Y-134049404D02*
X76377678Y-133249404D01*
X76187202Y-133249404D01*
X76072916Y-133287500D01*
X75996726Y-133363690D01*
X75958630Y-133439880D01*
X75920535Y-133592261D01*
X75920535Y-133706547D01*
X75958630Y-133858928D01*
X75996726Y-133935119D01*
X76072916Y-134011309D01*
X76187202Y-134049404D01*
X76377678Y-134049404D01*
X75615773Y-133325595D02*
X75577678Y-133287500D01*
X75501488Y-133249404D01*
X75311011Y-133249404D01*
X75234821Y-133287500D01*
X75196726Y-133325595D01*
X75158630Y-133401785D01*
X75158630Y-133477976D01*
X75196726Y-133592261D01*
X75653869Y-134049404D01*
X75158630Y-134049404D01*
X74891964Y-133249404D02*
X74396726Y-133249404D01*
X74663392Y-133554166D01*
X74549107Y-133554166D01*
X74472916Y-133592261D01*
X74434821Y-133630357D01*
X74396726Y-133706547D01*
X74396726Y-133897023D01*
X74434821Y-133973214D01*
X74472916Y-134011309D01*
X74549107Y-134049404D01*
X74777678Y-134049404D01*
X74853869Y-134011309D01*
X74891964Y-133973214D01*
X95427678Y-134049404D02*
X95427678Y-133249404D01*
X95237202Y-133249404D01*
X95122916Y-133287500D01*
X95046726Y-133363690D01*
X95008630Y-133439880D01*
X94970535Y-133592261D01*
X94970535Y-133706547D01*
X95008630Y-133858928D01*
X95046726Y-133935119D01*
X95122916Y-134011309D01*
X95237202Y-134049404D01*
X95427678Y-134049404D01*
X94665773Y-133325595D02*
X94627678Y-133287500D01*
X94551488Y-133249404D01*
X94361011Y-133249404D01*
X94284821Y-133287500D01*
X94246726Y-133325595D01*
X94208630Y-133401785D01*
X94208630Y-133477976D01*
X94246726Y-133592261D01*
X94703869Y-134049404D01*
X94208630Y-134049404D01*
X93522916Y-133516071D02*
X93522916Y-134049404D01*
X93713392Y-133211309D02*
X93903869Y-133782738D01*
X93408630Y-133782738D01*
X171627678Y-134049404D02*
X171627678Y-133249404D01*
X171437202Y-133249404D01*
X171322916Y-133287500D01*
X171246726Y-133363690D01*
X171208630Y-133439880D01*
X171170535Y-133592261D01*
X171170535Y-133706547D01*
X171208630Y-133858928D01*
X171246726Y-133935119D01*
X171322916Y-134011309D01*
X171437202Y-134049404D01*
X171627678Y-134049404D01*
X170865773Y-133325595D02*
X170827678Y-133287500D01*
X170751488Y-133249404D01*
X170561011Y-133249404D01*
X170484821Y-133287500D01*
X170446726Y-133325595D01*
X170408630Y-133401785D01*
X170408630Y-133477976D01*
X170446726Y-133592261D01*
X170903869Y-134049404D01*
X170408630Y-134049404D01*
X169722916Y-133249404D02*
X169875297Y-133249404D01*
X169951488Y-133287500D01*
X169989583Y-133325595D01*
X170065773Y-133439880D01*
X170103869Y-133592261D01*
X170103869Y-133897023D01*
X170065773Y-133973214D01*
X170027678Y-134011309D01*
X169951488Y-134049404D01*
X169799107Y-134049404D01*
X169722916Y-134011309D01*
X169684821Y-133973214D01*
X169646726Y-133897023D01*
X169646726Y-133706547D01*
X169684821Y-133630357D01*
X169722916Y-133592261D01*
X169799107Y-133554166D01*
X169951488Y-133554166D01*
X170027678Y-133592261D01*
X170065773Y-133630357D01*
X170103869Y-133706547D01*
X190677678Y-134049404D02*
X190677678Y-133249404D01*
X190487202Y-133249404D01*
X190372916Y-133287500D01*
X190296726Y-133363690D01*
X190258630Y-133439880D01*
X190220535Y-133592261D01*
X190220535Y-133706547D01*
X190258630Y-133858928D01*
X190296726Y-133935119D01*
X190372916Y-134011309D01*
X190487202Y-134049404D01*
X190677678Y-134049404D01*
X189915773Y-133325595D02*
X189877678Y-133287500D01*
X189801488Y-133249404D01*
X189611011Y-133249404D01*
X189534821Y-133287500D01*
X189496726Y-133325595D01*
X189458630Y-133401785D01*
X189458630Y-133477976D01*
X189496726Y-133592261D01*
X189953869Y-134049404D01*
X189458630Y-134049404D01*
X189191964Y-133249404D02*
X188658630Y-133249404D01*
X189001488Y-134049404D01*
X148151773Y-70484250D02*
X148227964Y-70446154D01*
X148342250Y-70446154D01*
X148456535Y-70484250D01*
X148532726Y-70560440D01*
X148570821Y-70636630D01*
X148608916Y-70789011D01*
X148608916Y-70903297D01*
X148570821Y-71055678D01*
X148532726Y-71131869D01*
X148456535Y-71208059D01*
X148342250Y-71246154D01*
X148266059Y-71246154D01*
X148151773Y-71208059D01*
X148113678Y-71169964D01*
X148113678Y-70903297D01*
X148266059Y-70903297D01*
X147770821Y-71246154D02*
X147770821Y-70446154D01*
X147313678Y-71246154D01*
X147313678Y-70446154D01*
X146932726Y-71246154D02*
X146932726Y-70446154D01*
X146742250Y-70446154D01*
X146627964Y-70484250D01*
X146551773Y-70560440D01*
X146513678Y-70636630D01*
X146475583Y-70789011D01*
X146475583Y-70903297D01*
X146513678Y-71055678D01*
X146551773Y-71131869D01*
X146627964Y-71208059D01*
X146742250Y-71246154D01*
X146932726Y-71246154D01*
X148151773Y-73024250D02*
X148227964Y-72986154D01*
X148342250Y-72986154D01*
X148456535Y-73024250D01*
X148532726Y-73100440D01*
X148570821Y-73176630D01*
X148608916Y-73329011D01*
X148608916Y-73443297D01*
X148570821Y-73595678D01*
X148532726Y-73671869D01*
X148456535Y-73748059D01*
X148342250Y-73786154D01*
X148266059Y-73786154D01*
X148151773Y-73748059D01*
X148113678Y-73709964D01*
X148113678Y-73443297D01*
X148266059Y-73443297D01*
X147770821Y-73786154D02*
X147770821Y-72986154D01*
X147313678Y-73786154D01*
X147313678Y-72986154D01*
X146932726Y-73786154D02*
X146932726Y-72986154D01*
X146742250Y-72986154D01*
X146627964Y-73024250D01*
X146551773Y-73100440D01*
X146513678Y-73176630D01*
X146475583Y-73329011D01*
X146475583Y-73443297D01*
X146513678Y-73595678D01*
X146551773Y-73671869D01*
X146627964Y-73748059D01*
X146742250Y-73786154D01*
X146932726Y-73786154D01*
X148132726Y-81406154D02*
X148132726Y-80606154D01*
X147942250Y-80606154D01*
X147827964Y-80644250D01*
X147751773Y-80720440D01*
X147713678Y-80796630D01*
X147675583Y-80949011D01*
X147675583Y-81063297D01*
X147713678Y-81215678D01*
X147751773Y-81291869D01*
X147827964Y-81368059D01*
X147942250Y-81406154D01*
X148132726Y-81406154D01*
X146989869Y-80872821D02*
X146989869Y-81406154D01*
X147180345Y-80568059D02*
X147370821Y-81139488D01*
X146875583Y-81139488D01*
X137172630Y-66166154D02*
X137439297Y-65785202D01*
X137629773Y-66166154D02*
X137629773Y-65366154D01*
X137325011Y-65366154D01*
X137248821Y-65404250D01*
X137210726Y-65442345D01*
X137172630Y-65518535D01*
X137172630Y-65632821D01*
X137210726Y-65709011D01*
X137248821Y-65747107D01*
X137325011Y-65785202D01*
X137629773Y-65785202D01*
X136867869Y-65937583D02*
X136486916Y-65937583D01*
X136944059Y-66166154D02*
X136677392Y-65366154D01*
X136410726Y-66166154D01*
X136220250Y-65366154D02*
X136029773Y-66166154D01*
X135877392Y-65594726D01*
X135725011Y-66166154D01*
X135534535Y-65366154D01*
X147843598Y-65366154D02*
X147386455Y-65366154D01*
X147615026Y-66166154D02*
X147615026Y-65366154D01*
X147195979Y-65366154D02*
X146662645Y-66166154D01*
X146662645Y-65366154D02*
X147195979Y-66166154D01*
X146205502Y-65366154D02*
X146129312Y-65366154D01*
X146053122Y-65404250D01*
X146015026Y-65442345D01*
X145976931Y-65518535D01*
X145938836Y-65670916D01*
X145938836Y-65861392D01*
X145976931Y-66013773D01*
X146015026Y-66089964D01*
X146053122Y-66128059D01*
X146129312Y-66166154D01*
X146205502Y-66166154D01*
X146281693Y-66128059D01*
X146319788Y-66089964D01*
X146357883Y-66013773D01*
X146395979Y-65861392D01*
X146395979Y-65670916D01*
X146357883Y-65518535D01*
X146319788Y-65442345D01*
X146281693Y-65404250D01*
X146205502Y-65366154D01*
X145024550Y-65328059D02*
X145710264Y-66356630D01*
X144757883Y-66166154D02*
X144757883Y-65366154D01*
X144567407Y-65366154D01*
X144453122Y-65404250D01*
X144376931Y-65480440D01*
X144338836Y-65556630D01*
X144300741Y-65709011D01*
X144300741Y-65823297D01*
X144338836Y-65975678D01*
X144376931Y-66051869D01*
X144453122Y-66128059D01*
X144567407Y-66166154D01*
X144757883Y-66166154D01*
X144034074Y-65366154D02*
X143538836Y-65366154D01*
X143805502Y-65670916D01*
X143691217Y-65670916D01*
X143615026Y-65709011D01*
X143576931Y-65747107D01*
X143538836Y-65823297D01*
X143538836Y-66013773D01*
X143576931Y-66089964D01*
X143615026Y-66128059D01*
X143691217Y-66166154D01*
X143919788Y-66166154D01*
X143995979Y-66128059D01*
X144034074Y-66089964D01*
X137686916Y-72986154D02*
X137420250Y-73786154D01*
X137153583Y-72986154D01*
X136429773Y-73709964D02*
X136467869Y-73748059D01*
X136582154Y-73786154D01*
X136658345Y-73786154D01*
X136772630Y-73748059D01*
X136848821Y-73671869D01*
X136886916Y-73595678D01*
X136925011Y-73443297D01*
X136925011Y-73329011D01*
X136886916Y-73176630D01*
X136848821Y-73100440D01*
X136772630Y-73024250D01*
X136658345Y-72986154D01*
X136582154Y-72986154D01*
X136467869Y-73024250D01*
X136429773Y-73062345D01*
X135629773Y-73709964D02*
X135667869Y-73748059D01*
X135782154Y-73786154D01*
X135858345Y-73786154D01*
X135972630Y-73748059D01*
X136048821Y-73671869D01*
X136086916Y-73595678D01*
X136125011Y-73443297D01*
X136125011Y-73329011D01*
X136086916Y-73176630D01*
X136048821Y-73100440D01*
X135972630Y-73024250D01*
X135858345Y-72986154D01*
X135782154Y-72986154D01*
X135667869Y-73024250D01*
X135629773Y-73062345D01*
X147675583Y-83869964D02*
X147713678Y-83908059D01*
X147827964Y-83946154D01*
X147904154Y-83946154D01*
X148018440Y-83908059D01*
X148094630Y-83831869D01*
X148132726Y-83755678D01*
X148170821Y-83603297D01*
X148170821Y-83489011D01*
X148132726Y-83336630D01*
X148094630Y-83260440D01*
X148018440Y-83184250D01*
X147904154Y-83146154D01*
X147827964Y-83146154D01*
X147713678Y-83184250D01*
X147675583Y-83222345D01*
X146989869Y-83146154D02*
X147142250Y-83146154D01*
X147218440Y-83184250D01*
X147256535Y-83222345D01*
X147332726Y-83336630D01*
X147370821Y-83489011D01*
X147370821Y-83793773D01*
X147332726Y-83869964D01*
X147294630Y-83908059D01*
X147218440Y-83946154D01*
X147066059Y-83946154D01*
X146989869Y-83908059D01*
X146951773Y-83869964D01*
X146913678Y-83793773D01*
X146913678Y-83603297D01*
X146951773Y-83527107D01*
X146989869Y-83489011D01*
X147066059Y-83450916D01*
X147218440Y-83450916D01*
X147294630Y-83489011D01*
X147332726Y-83527107D01*
X147370821Y-83603297D01*
X136886916Y-83527107D02*
X137153583Y-83527107D01*
X137153583Y-83946154D02*
X137153583Y-83146154D01*
X136772630Y-83146154D01*
X136544059Y-83146154D02*
X136010726Y-83146154D01*
X136353583Y-83946154D01*
X147866059Y-93687107D02*
X147751773Y-93725202D01*
X147713678Y-93763297D01*
X147675583Y-93839488D01*
X147675583Y-93953773D01*
X147713678Y-94029964D01*
X147751773Y-94068059D01*
X147827964Y-94106154D01*
X148132726Y-94106154D01*
X148132726Y-93306154D01*
X147866059Y-93306154D01*
X147789869Y-93344250D01*
X147751773Y-93382345D01*
X147713678Y-93458535D01*
X147713678Y-93534726D01*
X147751773Y-93610916D01*
X147789869Y-93649011D01*
X147866059Y-93687107D01*
X148132726Y-93687107D01*
X146951773Y-93306154D02*
X147332726Y-93306154D01*
X147370821Y-93687107D01*
X147332726Y-93649011D01*
X147256535Y-93610916D01*
X147066059Y-93610916D01*
X146989869Y-93649011D01*
X146951773Y-93687107D01*
X146913678Y-93763297D01*
X146913678Y-93953773D01*
X146951773Y-94029964D01*
X146989869Y-94068059D01*
X147066059Y-94106154D01*
X147256535Y-94106154D01*
X147332726Y-94068059D01*
X147370821Y-94029964D01*
X136886916Y-75907107D02*
X137153583Y-75907107D01*
X137153583Y-76326154D02*
X137153583Y-75526154D01*
X136772630Y-75526154D01*
X136125011Y-75792821D02*
X136125011Y-76326154D01*
X136315488Y-75488059D02*
X136505964Y-76059488D01*
X136010726Y-76059488D01*
X136944059Y-93687107D02*
X136829773Y-93725202D01*
X136791678Y-93763297D01*
X136753583Y-93839488D01*
X136753583Y-93953773D01*
X136791678Y-94029964D01*
X136829773Y-94068059D01*
X136905964Y-94106154D01*
X137210726Y-94106154D01*
X137210726Y-93306154D01*
X136944059Y-93306154D01*
X136867869Y-93344250D01*
X136829773Y-93382345D01*
X136791678Y-93458535D01*
X136791678Y-93534726D01*
X136829773Y-93610916D01*
X136867869Y-93649011D01*
X136944059Y-93687107D01*
X137210726Y-93687107D01*
X136067869Y-93306154D02*
X136220250Y-93306154D01*
X136296440Y-93344250D01*
X136334535Y-93382345D01*
X136410726Y-93496630D01*
X136448821Y-93649011D01*
X136448821Y-93953773D01*
X136410726Y-94029964D01*
X136372630Y-94068059D01*
X136296440Y-94106154D01*
X136144059Y-94106154D01*
X136067869Y-94068059D01*
X136029773Y-94029964D01*
X135991678Y-93953773D01*
X135991678Y-93763297D01*
X136029773Y-93687107D01*
X136067869Y-93649011D01*
X136144059Y-93610916D01*
X136296440Y-93610916D01*
X136372630Y-93649011D01*
X136410726Y-93687107D01*
X136448821Y-93763297D01*
X136944059Y-86067107D02*
X136829773Y-86105202D01*
X136791678Y-86143297D01*
X136753583Y-86219488D01*
X136753583Y-86333773D01*
X136791678Y-86409964D01*
X136829773Y-86448059D01*
X136905964Y-86486154D01*
X137210726Y-86486154D01*
X137210726Y-85686154D01*
X136944059Y-85686154D01*
X136867869Y-85724250D01*
X136829773Y-85762345D01*
X136791678Y-85838535D01*
X136791678Y-85914726D01*
X136829773Y-85990916D01*
X136867869Y-86029011D01*
X136944059Y-86067107D01*
X137210726Y-86067107D01*
X135991678Y-86486154D02*
X136448821Y-86486154D01*
X136220250Y-86486154D02*
X136220250Y-85686154D01*
X136296440Y-85800440D01*
X136372630Y-85876630D01*
X136448821Y-85914726D01*
X136944059Y-88607107D02*
X136829773Y-88645202D01*
X136791678Y-88683297D01*
X136753583Y-88759488D01*
X136753583Y-88873773D01*
X136791678Y-88949964D01*
X136829773Y-88988059D01*
X136905964Y-89026154D01*
X137210726Y-89026154D01*
X137210726Y-88226154D01*
X136944059Y-88226154D01*
X136867869Y-88264250D01*
X136829773Y-88302345D01*
X136791678Y-88378535D01*
X136791678Y-88454726D01*
X136829773Y-88530916D01*
X136867869Y-88569011D01*
X136944059Y-88607107D01*
X137210726Y-88607107D01*
X136486916Y-88226154D02*
X135991678Y-88226154D01*
X136258345Y-88530916D01*
X136144059Y-88530916D01*
X136067869Y-88569011D01*
X136029773Y-88607107D01*
X135991678Y-88683297D01*
X135991678Y-88873773D01*
X136029773Y-88949964D01*
X136067869Y-88988059D01*
X136144059Y-89026154D01*
X136372630Y-89026154D01*
X136448821Y-88988059D01*
X136486916Y-88949964D01*
X136886916Y-80987107D02*
X137153583Y-80987107D01*
X137153583Y-81406154D02*
X137153583Y-80606154D01*
X136772630Y-80606154D01*
X136125011Y-80606154D02*
X136277392Y-80606154D01*
X136353583Y-80644250D01*
X136391678Y-80682345D01*
X136467869Y-80796630D01*
X136505964Y-80949011D01*
X136505964Y-81253773D01*
X136467869Y-81329964D01*
X136429773Y-81368059D01*
X136353583Y-81406154D01*
X136201202Y-81406154D01*
X136125011Y-81368059D01*
X136086916Y-81329964D01*
X136048821Y-81253773D01*
X136048821Y-81063297D01*
X136086916Y-80987107D01*
X136125011Y-80949011D01*
X136201202Y-80910916D01*
X136353583Y-80910916D01*
X136429773Y-80949011D01*
X136467869Y-80987107D01*
X136505964Y-81063297D01*
X148094630Y-88607107D02*
X147827964Y-88607107D01*
X147713678Y-89026154D02*
X148094630Y-89026154D01*
X148094630Y-88226154D01*
X147713678Y-88226154D01*
X147027964Y-88226154D02*
X147180345Y-88226154D01*
X147256535Y-88264250D01*
X147294630Y-88302345D01*
X147370821Y-88416630D01*
X147408916Y-88569011D01*
X147408916Y-88873773D01*
X147370821Y-88949964D01*
X147332726Y-88988059D01*
X147256535Y-89026154D01*
X147104154Y-89026154D01*
X147027964Y-88988059D01*
X146989869Y-88949964D01*
X146951773Y-88873773D01*
X146951773Y-88683297D01*
X146989869Y-88607107D01*
X147027964Y-88569011D01*
X147104154Y-88530916D01*
X147256535Y-88530916D01*
X147332726Y-88569011D01*
X147370821Y-88607107D01*
X147408916Y-88683297D01*
X136886916Y-78447107D02*
X137153583Y-78447107D01*
X137153583Y-78866154D02*
X137153583Y-78066154D01*
X136772630Y-78066154D01*
X136086916Y-78066154D02*
X136467869Y-78066154D01*
X136505964Y-78447107D01*
X136467869Y-78409011D01*
X136391678Y-78370916D01*
X136201202Y-78370916D01*
X136125011Y-78409011D01*
X136086916Y-78447107D01*
X136048821Y-78523297D01*
X136048821Y-78713773D01*
X136086916Y-78789964D01*
X136125011Y-78828059D01*
X136201202Y-78866154D01*
X136391678Y-78866154D01*
X136467869Y-78828059D01*
X136505964Y-78789964D01*
X148132726Y-86486154D02*
X148132726Y-85686154D01*
X147942250Y-85686154D01*
X147827964Y-85724250D01*
X147751773Y-85800440D01*
X147713678Y-85876630D01*
X147675583Y-86029011D01*
X147675583Y-86143297D01*
X147713678Y-86295678D01*
X147751773Y-86371869D01*
X147827964Y-86448059D01*
X147942250Y-86486154D01*
X148132726Y-86486154D01*
X147408916Y-85686154D02*
X146875583Y-85686154D01*
X147218440Y-86486154D01*
X137229773Y-67944250D02*
X137305964Y-67906154D01*
X137420250Y-67906154D01*
X137534535Y-67944250D01*
X137610726Y-68020440D01*
X137648821Y-68096630D01*
X137686916Y-68249011D01*
X137686916Y-68363297D01*
X137648821Y-68515678D01*
X137610726Y-68591869D01*
X137534535Y-68668059D01*
X137420250Y-68706154D01*
X137344059Y-68706154D01*
X137229773Y-68668059D01*
X137191678Y-68629964D01*
X137191678Y-68363297D01*
X137344059Y-68363297D01*
X136848821Y-68706154D02*
X136848821Y-67906154D01*
X136391678Y-68706154D01*
X136391678Y-67906154D01*
X136010726Y-68706154D02*
X136010726Y-67906154D01*
X135820250Y-67906154D01*
X135705964Y-67944250D01*
X135629773Y-68020440D01*
X135591678Y-68096630D01*
X135553583Y-68249011D01*
X135553583Y-68363297D01*
X135591678Y-68515678D01*
X135629773Y-68591869D01*
X135705964Y-68668059D01*
X135820250Y-68706154D01*
X136010726Y-68706154D01*
X148132726Y-76326154D02*
X148132726Y-75526154D01*
X147942250Y-75526154D01*
X147827964Y-75564250D01*
X147751773Y-75640440D01*
X147713678Y-75716630D01*
X147675583Y-75869011D01*
X147675583Y-75983297D01*
X147713678Y-76135678D01*
X147751773Y-76211869D01*
X147827964Y-76288059D01*
X147942250Y-76326154D01*
X148132726Y-76326154D01*
X146913678Y-76326154D02*
X147370821Y-76326154D01*
X147142250Y-76326154D02*
X147142250Y-75526154D01*
X147218440Y-75640440D01*
X147294630Y-75716630D01*
X147370821Y-75754726D01*
X136881463Y-71178059D02*
X136767177Y-71216154D01*
X136576701Y-71216154D01*
X136500510Y-71178059D01*
X136462415Y-71139964D01*
X136424320Y-71063773D01*
X136424320Y-70987583D01*
X136462415Y-70911392D01*
X136500510Y-70873297D01*
X136576701Y-70835202D01*
X136729082Y-70797107D01*
X136805272Y-70759011D01*
X136843368Y-70720916D01*
X136881463Y-70644726D01*
X136881463Y-70568535D01*
X136843368Y-70492345D01*
X136805272Y-70454250D01*
X136729082Y-70416154D01*
X136538606Y-70416154D01*
X136424320Y-70454250D01*
X136195749Y-70416154D02*
X135738606Y-70416154D01*
X135967177Y-71216154D02*
X135967177Y-70416154D01*
X136944059Y-91147107D02*
X136829773Y-91185202D01*
X136791678Y-91223297D01*
X136753583Y-91299488D01*
X136753583Y-91413773D01*
X136791678Y-91489964D01*
X136829773Y-91528059D01*
X136905964Y-91566154D01*
X137210726Y-91566154D01*
X137210726Y-90766154D01*
X136944059Y-90766154D01*
X136867869Y-90804250D01*
X136829773Y-90842345D01*
X136791678Y-90918535D01*
X136791678Y-90994726D01*
X136829773Y-91070916D01*
X136867869Y-91109011D01*
X136944059Y-91147107D01*
X137210726Y-91147107D01*
X136448821Y-90842345D02*
X136410726Y-90804250D01*
X136334535Y-90766154D01*
X136144059Y-90766154D01*
X136067869Y-90804250D01*
X136029773Y-90842345D01*
X135991678Y-90918535D01*
X135991678Y-90994726D01*
X136029773Y-91109011D01*
X136486916Y-91566154D01*
X135991678Y-91566154D01*
X148132726Y-68706154D02*
X148132726Y-67906154D01*
X147942250Y-67906154D01*
X147827964Y-67944250D01*
X147751773Y-68020440D01*
X147713678Y-68096630D01*
X147675583Y-68249011D01*
X147675583Y-68363297D01*
X147713678Y-68515678D01*
X147751773Y-68591869D01*
X147827964Y-68668059D01*
X147942250Y-68706154D01*
X148132726Y-68706154D01*
X147370821Y-67982345D02*
X147332726Y-67944250D01*
X147256535Y-67906154D01*
X147066059Y-67906154D01*
X146989869Y-67944250D01*
X146951773Y-67982345D01*
X146913678Y-68058535D01*
X146913678Y-68134726D01*
X146951773Y-68249011D01*
X147408916Y-68706154D01*
X146913678Y-68706154D01*
X148132726Y-78866154D02*
X148132726Y-78066154D01*
X147942250Y-78066154D01*
X147827964Y-78104250D01*
X147751773Y-78180440D01*
X147713678Y-78256630D01*
X147675583Y-78409011D01*
X147675583Y-78523297D01*
X147713678Y-78675678D01*
X147751773Y-78751869D01*
X147827964Y-78828059D01*
X147942250Y-78866154D01*
X148132726Y-78866154D01*
X147180345Y-78066154D02*
X147104154Y-78066154D01*
X147027964Y-78104250D01*
X146989869Y-78142345D01*
X146951773Y-78218535D01*
X146913678Y-78370916D01*
X146913678Y-78561392D01*
X146951773Y-78713773D01*
X146989869Y-78789964D01*
X147027964Y-78828059D01*
X147104154Y-78866154D01*
X147180345Y-78866154D01*
X147256535Y-78828059D01*
X147294630Y-78789964D01*
X147332726Y-78713773D01*
X147370821Y-78561392D01*
X147370821Y-78370916D01*
X147332726Y-78218535D01*
X147294630Y-78142345D01*
X147256535Y-78104250D01*
X147180345Y-78066154D01*
X147866059Y-91147107D02*
X147751773Y-91185202D01*
X147713678Y-91223297D01*
X147675583Y-91299488D01*
X147675583Y-91413773D01*
X147713678Y-91489964D01*
X147751773Y-91528059D01*
X147827964Y-91566154D01*
X148132726Y-91566154D01*
X148132726Y-90766154D01*
X147866059Y-90766154D01*
X147789869Y-90804250D01*
X147751773Y-90842345D01*
X147713678Y-90918535D01*
X147713678Y-90994726D01*
X147751773Y-91070916D01*
X147789869Y-91109011D01*
X147866059Y-91147107D01*
X148132726Y-91147107D01*
X146989869Y-91032821D02*
X146989869Y-91566154D01*
X147180345Y-90728059D02*
X147370821Y-91299488D01*
X146875583Y-91299488D01*
X114477678Y-134049404D02*
X114477678Y-133249404D01*
X114287202Y-133249404D01*
X114172916Y-133287500D01*
X114096726Y-133363690D01*
X114058630Y-133439880D01*
X114020535Y-133592261D01*
X114020535Y-133706547D01*
X114058630Y-133858928D01*
X114096726Y-133935119D01*
X114172916Y-134011309D01*
X114287202Y-134049404D01*
X114477678Y-134049404D01*
X113715773Y-133325595D02*
X113677678Y-133287500D01*
X113601488Y-133249404D01*
X113411011Y-133249404D01*
X113334821Y-133287500D01*
X113296726Y-133325595D01*
X113258630Y-133401785D01*
X113258630Y-133477976D01*
X113296726Y-133592261D01*
X113753869Y-134049404D01*
X113258630Y-134049404D01*
X112534821Y-133249404D02*
X112915773Y-133249404D01*
X112953869Y-133630357D01*
X112915773Y-133592261D01*
X112839583Y-133554166D01*
X112649107Y-133554166D01*
X112572916Y-133592261D01*
X112534821Y-133630357D01*
X112496726Y-133706547D01*
X112496726Y-133897023D01*
X112534821Y-133973214D01*
X112572916Y-134011309D01*
X112649107Y-134049404D01*
X112839583Y-134049404D01*
X112915773Y-134011309D01*
X112953869Y-133973214D01*
X209727678Y-134049404D02*
X209727678Y-133249404D01*
X209537202Y-133249404D01*
X209422916Y-133287500D01*
X209346726Y-133363690D01*
X209308630Y-133439880D01*
X209270535Y-133592261D01*
X209270535Y-133706547D01*
X209308630Y-133858928D01*
X209346726Y-133935119D01*
X209422916Y-134011309D01*
X209537202Y-134049404D01*
X209727678Y-134049404D01*
X208965773Y-133325595D02*
X208927678Y-133287500D01*
X208851488Y-133249404D01*
X208661011Y-133249404D01*
X208584821Y-133287500D01*
X208546726Y-133325595D01*
X208508630Y-133401785D01*
X208508630Y-133477976D01*
X208546726Y-133592261D01*
X209003869Y-134049404D01*
X208508630Y-134049404D01*
X208051488Y-133592261D02*
X208127678Y-133554166D01*
X208165773Y-133516071D01*
X208203869Y-133439880D01*
X208203869Y-133401785D01*
X208165773Y-133325595D01*
X208127678Y-133287500D01*
X208051488Y-133249404D01*
X207899107Y-133249404D01*
X207822916Y-133287500D01*
X207784821Y-133325595D01*
X207746726Y-133401785D01*
X207746726Y-133439880D01*
X207784821Y-133516071D01*
X207822916Y-133554166D01*
X207899107Y-133592261D01*
X208051488Y-133592261D01*
X208127678Y-133630357D01*
X208165773Y-133668452D01*
X208203869Y-133744642D01*
X208203869Y-133897023D01*
X208165773Y-133973214D01*
X208127678Y-134011309D01*
X208051488Y-134049404D01*
X207899107Y-134049404D01*
X207822916Y-134011309D01*
X207784821Y-133973214D01*
X207746726Y-133897023D01*
X207746726Y-133744642D01*
X207784821Y-133668452D01*
X207822916Y-133630357D01*
X207899107Y-133592261D01*
D11*
X40106250Y-73412500D02*
X40106250Y-75812500D01*
X40506250Y-73412500D02*
X34506250Y-73412500D01*
X40506250Y-75812500D02*
X40506250Y-73412500D01*
X40231250Y-73412500D02*
X40231250Y-75812500D01*
X34506250Y-73412500D02*
X34506250Y-75812500D01*
X40381250Y-75812500D02*
X40381250Y-73412500D01*
X34506250Y-75812500D02*
X40506250Y-75812500D01*
X53556250Y-75812500D02*
X59556250Y-75812500D01*
X59556250Y-73412500D02*
X53556250Y-73412500D01*
X59281250Y-73412500D02*
X59281250Y-75812500D01*
X53556250Y-73412500D02*
X53556250Y-75812500D01*
X59156250Y-73412500D02*
X59156250Y-75812500D01*
X59556250Y-75812500D02*
X59556250Y-73412500D01*
X59431250Y-75812500D02*
X59431250Y-73412500D01*
X72493750Y-73412500D02*
X72493750Y-75812500D01*
X78493750Y-73412500D02*
X72493750Y-73412500D01*
X78493750Y-75812500D02*
X78493750Y-73412500D01*
X72493750Y-75812500D02*
X78493750Y-75812500D01*
X78368750Y-75812500D02*
X78368750Y-73412500D01*
X78218750Y-73412500D02*
X78218750Y-75812500D01*
X78093750Y-73412500D02*
X78093750Y-75812500D01*
X97656250Y-73412500D02*
X91656250Y-73412500D01*
X97381250Y-73412500D02*
X97381250Y-75812500D01*
X91656250Y-75812500D02*
X97656250Y-75812500D01*
X97531250Y-75812500D02*
X97531250Y-73412500D01*
X91656250Y-73412500D02*
X91656250Y-75812500D01*
X97656250Y-75812500D02*
X97656250Y-73412500D01*
X97256250Y-73412500D02*
X97256250Y-75812500D01*
X110706250Y-73412500D02*
X110706250Y-75812500D01*
X116706250Y-73412500D02*
X110706250Y-73412500D01*
X116581250Y-75812500D02*
X116581250Y-73412500D01*
X116431250Y-73412500D02*
X116431250Y-75812500D01*
X110706250Y-75812500D02*
X116706250Y-75812500D01*
X116706250Y-75812500D02*
X116706250Y-73412500D01*
X116306250Y-73412500D02*
X116306250Y-75812500D01*
X173731250Y-75812500D02*
X173731250Y-73412500D01*
X173856250Y-75812500D02*
X173856250Y-73412500D01*
X167856250Y-75812500D02*
X173856250Y-75812500D01*
X173456250Y-73412500D02*
X173456250Y-75812500D01*
X167856250Y-73412500D02*
X167856250Y-75812500D01*
X173581250Y-73412500D02*
X173581250Y-75812500D01*
X173856250Y-73412500D02*
X167856250Y-73412500D01*
X192781250Y-75812500D02*
X192781250Y-73412500D01*
X186906250Y-73412500D02*
X186906250Y-75812500D01*
X192506250Y-73412500D02*
X192506250Y-75812500D01*
X192631250Y-73412500D02*
X192631250Y-75812500D01*
X186906250Y-75812500D02*
X192906250Y-75812500D01*
X192906250Y-73412500D02*
X186906250Y-73412500D01*
X192906250Y-75812500D02*
X192906250Y-73412500D01*
X205956250Y-75812500D02*
X211956250Y-75812500D01*
X211556250Y-73412500D02*
X211556250Y-75812500D01*
X211681250Y-73412500D02*
X211681250Y-75812500D01*
X211956250Y-73412500D02*
X205956250Y-73412500D01*
X211831250Y-75812500D02*
X211831250Y-73412500D01*
X205956250Y-73412500D02*
X205956250Y-75812500D01*
X211956250Y-75812500D02*
X211956250Y-73412500D01*
X230881250Y-75812500D02*
X230881250Y-73412500D01*
X230731250Y-73412500D02*
X230731250Y-75812500D01*
X230606250Y-73412500D02*
X230606250Y-75812500D01*
X225006250Y-75812500D02*
X231006250Y-75812500D01*
X231006250Y-73412500D02*
X225006250Y-73412500D01*
X231006250Y-75812500D02*
X231006250Y-73412500D01*
X225006250Y-73412500D02*
X225006250Y-75812500D01*
X244056250Y-75812500D02*
X250056250Y-75812500D01*
X250056250Y-75812500D02*
X250056250Y-73412500D01*
X244056250Y-73412500D02*
X244056250Y-75812500D01*
X249656250Y-73412500D02*
X249656250Y-75812500D01*
X249781250Y-73412500D02*
X249781250Y-75812500D01*
X250056250Y-73412500D02*
X244056250Y-73412500D01*
X249931250Y-75812500D02*
X249931250Y-73412500D01*
X268706250Y-73412500D02*
X268706250Y-75812500D01*
X263106250Y-73412500D02*
X263106250Y-75812500D01*
X268981250Y-75812500D02*
X268981250Y-73412500D01*
X263106250Y-75812500D02*
X269106250Y-75812500D01*
X268831250Y-73412500D02*
X268831250Y-75812500D01*
X269106250Y-73412500D02*
X263106250Y-73412500D01*
X269106250Y-75812500D02*
X269106250Y-73412500D01*
X40106250Y-92462500D02*
X40106250Y-94862500D01*
X34506250Y-94862500D02*
X40506250Y-94862500D01*
X40231250Y-92462500D02*
X40231250Y-94862500D01*
X40381250Y-94862500D02*
X40381250Y-92462500D01*
X34506250Y-92462500D02*
X34506250Y-94862500D01*
X40506250Y-92462500D02*
X34506250Y-92462500D01*
X40506250Y-94862500D02*
X40506250Y-92462500D01*
X59281250Y-92462500D02*
X59281250Y-94862500D01*
X53556250Y-94862500D02*
X59556250Y-94862500D01*
X59431250Y-94862500D02*
X59431250Y-92462500D01*
X59556250Y-92462500D02*
X53556250Y-92462500D01*
X59156250Y-92462500D02*
X59156250Y-94862500D01*
X53556250Y-92462500D02*
X53556250Y-94862500D01*
X59556250Y-94862500D02*
X59556250Y-92462500D01*
X72606250Y-92462500D02*
X72606250Y-94862500D01*
X78606250Y-92462500D02*
X72606250Y-92462500D01*
X78331250Y-92462500D02*
X78331250Y-94862500D01*
X78481250Y-94862500D02*
X78481250Y-92462500D01*
X78206250Y-92462500D02*
X78206250Y-94862500D01*
X78606250Y-94862500D02*
X78606250Y-92462500D01*
X72606250Y-94862500D02*
X78606250Y-94862500D01*
X97531250Y-94862500D02*
X97531250Y-92462500D01*
X97656250Y-92462500D02*
X91656250Y-92462500D01*
X91656250Y-94862500D02*
X97656250Y-94862500D01*
X97381250Y-92462500D02*
X97381250Y-94862500D01*
X97656250Y-94862500D02*
X97656250Y-92462500D01*
X97256250Y-92462500D02*
X97256250Y-94862500D01*
X91656250Y-92462500D02*
X91656250Y-94862500D01*
X110706250Y-92462500D02*
X110706250Y-94862500D01*
X116431250Y-92462500D02*
X116431250Y-94862500D01*
X110706250Y-94862500D02*
X116706250Y-94862500D01*
X116706250Y-92462500D02*
X110706250Y-92462500D01*
X116706250Y-94862500D02*
X116706250Y-92462500D01*
X116306250Y-92462500D02*
X116306250Y-94862500D01*
X116581250Y-94862500D02*
X116581250Y-92462500D01*
X173856250Y-92462500D02*
X167856250Y-92462500D01*
X167856250Y-92462500D02*
X167856250Y-94862500D01*
X173731250Y-94862500D02*
X173731250Y-92462500D01*
X173856250Y-94862500D02*
X173856250Y-92462500D01*
X167856250Y-94862500D02*
X173856250Y-94862500D01*
X173456250Y-92462500D02*
X173456250Y-94862500D01*
X173581250Y-92462500D02*
X173581250Y-94862500D01*
X186906250Y-94862500D02*
X192906250Y-94862500D01*
X192906250Y-92462500D02*
X186906250Y-92462500D01*
X192506250Y-92462500D02*
X192506250Y-94862500D01*
X192906250Y-94862500D02*
X192906250Y-92462500D01*
X186906250Y-92462500D02*
X186906250Y-94862500D01*
X192631250Y-92462500D02*
X192631250Y-94862500D01*
X192781250Y-94862500D02*
X192781250Y-92462500D01*
X205956250Y-92462500D02*
X205956250Y-94862500D01*
X211956250Y-92462500D02*
X205956250Y-92462500D01*
X205956250Y-94862500D02*
X211956250Y-94862500D01*
X211556250Y-92462500D02*
X211556250Y-94862500D01*
X211831250Y-94862500D02*
X211831250Y-92462500D01*
X211956250Y-94862500D02*
X211956250Y-92462500D01*
X211681250Y-92462500D02*
X211681250Y-94862500D01*
X230606250Y-92462500D02*
X230606250Y-94862500D01*
X230731250Y-92462500D02*
X230731250Y-94862500D01*
X225006250Y-94862500D02*
X231006250Y-94862500D01*
X231006250Y-92462500D02*
X225006250Y-92462500D01*
X231006250Y-94862500D02*
X231006250Y-92462500D01*
X225006250Y-92462500D02*
X225006250Y-94862500D01*
X230881250Y-94862500D02*
X230881250Y-92462500D01*
X244056250Y-92462500D02*
X244056250Y-94862500D01*
X249931250Y-94862500D02*
X249931250Y-92462500D01*
X249781250Y-92462500D02*
X249781250Y-94862500D01*
X249656250Y-92462500D02*
X249656250Y-94862500D01*
X250056250Y-94862500D02*
X250056250Y-92462500D01*
X250056250Y-92462500D02*
X244056250Y-92462500D01*
X244056250Y-94862500D02*
X250056250Y-94862500D01*
X268831250Y-92462500D02*
X268831250Y-94862500D01*
X268981250Y-94862500D02*
X268981250Y-92462500D01*
X263106250Y-92462500D02*
X263106250Y-94862500D01*
X269106250Y-92462500D02*
X263106250Y-92462500D01*
X269106250Y-94862500D02*
X269106250Y-92462500D01*
X263106250Y-94862500D02*
X269106250Y-94862500D01*
X268706250Y-92462500D02*
X268706250Y-94862500D01*
X72606250Y-132962500D02*
X78606250Y-132962500D01*
X78206250Y-130562500D02*
X78206250Y-132962500D01*
X78331250Y-130562500D02*
X78331250Y-132962500D01*
X78606250Y-132962500D02*
X78606250Y-130562500D01*
X72606250Y-130562500D02*
X72606250Y-132962500D01*
X78481250Y-132962500D02*
X78481250Y-130562500D01*
X78606250Y-130562500D02*
X72606250Y-130562500D01*
X97381250Y-130562500D02*
X97381250Y-132962500D01*
X97656250Y-132962500D02*
X97656250Y-130562500D01*
X97531250Y-132962500D02*
X97531250Y-130562500D01*
X91656250Y-130562500D02*
X91656250Y-132962500D01*
X97256250Y-130562500D02*
X97256250Y-132962500D01*
X97656250Y-130562500D02*
X91656250Y-130562500D01*
X91656250Y-132962500D02*
X97656250Y-132962500D01*
X173456250Y-130562500D02*
X173456250Y-132962500D01*
X173856250Y-132962500D02*
X173856250Y-130562500D01*
X167856250Y-130562500D02*
X167856250Y-132962500D01*
X167856250Y-132962500D02*
X173856250Y-132962500D01*
X173731250Y-132962500D02*
X173731250Y-130562500D01*
X173581250Y-130562500D02*
X173581250Y-132962500D01*
X173856250Y-130562500D02*
X167856250Y-130562500D01*
X192906250Y-132962500D02*
X192906250Y-130562500D01*
X192781250Y-132962500D02*
X192781250Y-130562500D01*
X186906250Y-130562500D02*
X186906250Y-132962500D01*
X192631250Y-130562500D02*
X192631250Y-132962500D01*
X192506250Y-130562500D02*
X192506250Y-132962500D01*
X192906250Y-130562500D02*
X186906250Y-130562500D01*
X186906250Y-132962500D02*
X192906250Y-132962500D01*
D12*
X133191250Y-95014250D02*
X133191250Y-64534250D01*
X148431250Y-67074250D02*
X150971250Y-67074250D01*
X150971250Y-95014250D02*
X133191250Y-95014250D01*
X150971250Y-64534250D02*
X150971250Y-95014250D01*
X133191250Y-61994250D02*
X150971250Y-61994250D01*
X133191250Y-64534250D02*
X133191250Y-61994250D01*
X148431250Y-64534250D02*
X148431250Y-67074250D01*
X150971250Y-61994250D02*
X150971250Y-64534250D01*
X148431250Y-64534250D02*
X150971250Y-64534250D01*
D10*
X137349682Y-70813610D02*
X137349682Y-70913610D01*
X137349682Y-70913610D02*
X137449682Y-70913610D01*
X137449682Y-70913610D02*
X137449682Y-70813610D01*
X137449682Y-70813610D02*
X137349682Y-70813610D01*
G36*
X137449682Y-70913610D02*
G01*
X137349682Y-70913610D01*
X137349682Y-70813610D01*
X137449682Y-70813610D01*
X137449682Y-70913610D01*
G37*
X137449682Y-70913610D02*
X137349682Y-70913610D01*
X137349682Y-70813610D01*
X137449682Y-70813610D01*
X137449682Y-70913610D01*
X137149682Y-70413610D02*
X137149682Y-70513610D01*
X137149682Y-70513610D02*
X137649682Y-70513610D01*
X137649682Y-70513610D02*
X137649682Y-70413610D01*
X137649682Y-70413610D02*
X137149682Y-70413610D01*
G36*
X137649682Y-70513610D02*
G01*
X137149682Y-70513610D01*
X137149682Y-70413610D01*
X137649682Y-70413610D01*
X137649682Y-70513610D01*
G37*
X137649682Y-70513610D02*
X137149682Y-70513610D01*
X137149682Y-70413610D01*
X137649682Y-70413610D01*
X137649682Y-70513610D01*
X137149682Y-70413610D02*
X137149682Y-70713610D01*
X137149682Y-70713610D02*
X137249682Y-70713610D01*
X137249682Y-70713610D02*
X137249682Y-70413610D01*
X137249682Y-70413610D02*
X137149682Y-70413610D01*
G36*
X137249682Y-70713610D02*
G01*
X137149682Y-70713610D01*
X137149682Y-70413610D01*
X137249682Y-70413610D01*
X137249682Y-70713610D01*
G37*
X137249682Y-70713610D02*
X137149682Y-70713610D01*
X137149682Y-70413610D01*
X137249682Y-70413610D01*
X137249682Y-70713610D01*
X137149682Y-71013610D02*
X137149682Y-71213610D01*
X137149682Y-71213610D02*
X137249682Y-71213610D01*
X137249682Y-71213610D02*
X137249682Y-71013610D01*
X137249682Y-71013610D02*
X137149682Y-71013610D01*
G36*
X137249682Y-71213610D02*
G01*
X137149682Y-71213610D01*
X137149682Y-71013610D01*
X137249682Y-71013610D01*
X137249682Y-71213610D01*
G37*
X137249682Y-71213610D02*
X137149682Y-71213610D01*
X137149682Y-71013610D01*
X137249682Y-71013610D01*
X137249682Y-71213610D01*
X137549682Y-70413610D02*
X137549682Y-71213610D01*
X137549682Y-71213610D02*
X137649682Y-71213610D01*
X137649682Y-71213610D02*
X137649682Y-70413610D01*
X137649682Y-70413610D02*
X137549682Y-70413610D01*
G36*
X137649682Y-71213610D02*
G01*
X137549682Y-71213610D01*
X137549682Y-70413610D01*
X137649682Y-70413610D01*
X137649682Y-71213610D01*
G37*
X137649682Y-71213610D02*
X137549682Y-71213610D01*
X137549682Y-70413610D01*
X137649682Y-70413610D01*
X137649682Y-71213610D01*
D11*
X116306250Y-130562500D02*
X116306250Y-132962500D01*
X110706250Y-130562500D02*
X110706250Y-132962500D01*
X110706250Y-132962500D02*
X116706250Y-132962500D01*
X116431250Y-130562500D02*
X116431250Y-132962500D01*
X116581250Y-132962500D02*
X116581250Y-130562500D01*
X116706250Y-132962500D02*
X116706250Y-130562500D01*
X116706250Y-130562500D02*
X110706250Y-130562500D01*
X211556250Y-130562500D02*
X211556250Y-132962500D01*
X211956250Y-132962500D02*
X211956250Y-130562500D01*
X205956250Y-132962500D02*
X211956250Y-132962500D01*
X205956250Y-130562500D02*
X205956250Y-132962500D01*
X211831250Y-132962500D02*
X211831250Y-130562500D01*
X211681250Y-130562500D02*
X211681250Y-132962500D01*
X211956250Y-130562500D02*
X205956250Y-130562500D01*
D13*
X149701250Y-65804250D03*
D14*
X149701250Y-68344250D03*
X149701250Y-70884250D03*
X149701250Y-73424250D03*
X149701250Y-75964250D03*
X149701250Y-78504250D03*
X149701250Y-81044250D03*
X149701250Y-83584250D03*
X149701250Y-86124250D03*
X149701250Y-88664250D03*
X149701250Y-91204250D03*
X149701250Y-93744250D03*
X134461250Y-93744250D03*
X134461250Y-91204250D03*
X134461250Y-88664250D03*
X134461250Y-86124250D03*
X134461250Y-83584250D03*
X134461250Y-81044250D03*
X134461250Y-78504250D03*
X134461250Y-75964250D03*
X134461250Y-73424250D03*
X134461250Y-70884250D03*
X134461250Y-68344250D03*
X134461250Y-65804250D03*
%LPC*%
D11*
X156795535Y-128603273D02*
X156605059Y-128698511D01*
X156224107Y-128698511D01*
X156033630Y-128603273D01*
X155938392Y-128412797D01*
X155938392Y-128317559D01*
X156033630Y-128127083D01*
X156224107Y-128031845D01*
X156509821Y-128031845D01*
X156700297Y-127936607D01*
X156795535Y-127746130D01*
X156795535Y-127650892D01*
X156700297Y-127460416D01*
X156509821Y-127365178D01*
X156224107Y-127365178D01*
X156033630Y-127460416D01*
X155366964Y-127365178D02*
X154605059Y-127365178D01*
X155081250Y-126698511D02*
X155081250Y-128412797D01*
X154986011Y-128603273D01*
X154795535Y-128698511D01*
X154605059Y-128698511D01*
X153176488Y-128603273D02*
X153366964Y-128698511D01*
X153747916Y-128698511D01*
X153938392Y-128603273D01*
X154033630Y-128412797D01*
X154033630Y-127650892D01*
X153938392Y-127460416D01*
X153747916Y-127365178D01*
X153366964Y-127365178D01*
X153176488Y-127460416D01*
X153081250Y-127650892D01*
X153081250Y-127841369D01*
X154033630Y-128031845D01*
X152224107Y-127365178D02*
X152224107Y-128698511D01*
X152224107Y-127555654D02*
X152128869Y-127460416D01*
X151938392Y-127365178D01*
X151652678Y-127365178D01*
X151462202Y-127460416D01*
X151366964Y-127650892D01*
X151366964Y-128698511D01*
X150128869Y-128698511D02*
X150319345Y-128603273D01*
X150414583Y-128508035D01*
X150509821Y-128317559D01*
X150509821Y-127746130D01*
X150414583Y-127555654D01*
X150319345Y-127460416D01*
X150128869Y-127365178D01*
X149843154Y-127365178D01*
X149652678Y-127460416D01*
X149557440Y-127555654D01*
X149462202Y-127746130D01*
X149462202Y-128317559D01*
X149557440Y-128508035D01*
X149652678Y-128603273D01*
X149843154Y-128698511D01*
X150128869Y-128698511D01*
X148605059Y-128698511D02*
X148605059Y-126698511D01*
X148414583Y-127936607D02*
X147843154Y-128698511D01*
X147843154Y-127365178D02*
X148605059Y-128127083D01*
X146224107Y-128603273D02*
X146414583Y-128698511D01*
X146795535Y-128698511D01*
X146986011Y-128603273D01*
X147081250Y-128412797D01*
X147081250Y-127650892D01*
X146986011Y-127460416D01*
X146795535Y-127365178D01*
X146414583Y-127365178D01*
X146224107Y-127460416D01*
X146128869Y-127650892D01*
X146128869Y-127841369D01*
X147081250Y-128031845D01*
X145462202Y-127365178D02*
X144986011Y-128698511D01*
X144509821Y-127365178D02*
X144986011Y-128698511D01*
X145176488Y-129174702D01*
X145271726Y-129269940D01*
X145462202Y-129365178D01*
X143747916Y-128698511D02*
X143747916Y-126698511D01*
X143747916Y-127460416D02*
X143557440Y-127365178D01*
X143176488Y-127365178D01*
X142986011Y-127460416D01*
X142890773Y-127555654D01*
X142795535Y-127746130D01*
X142795535Y-128317559D01*
X142890773Y-128508035D01*
X142986011Y-128603273D01*
X143176488Y-128698511D01*
X143557440Y-128698511D01*
X143747916Y-128603273D01*
X141652678Y-128698511D02*
X141843154Y-128603273D01*
X141938392Y-128508035D01*
X142033630Y-128317559D01*
X142033630Y-127746130D01*
X141938392Y-127555654D01*
X141843154Y-127460416D01*
X141652678Y-127365178D01*
X141366964Y-127365178D01*
X141176488Y-127460416D01*
X141081250Y-127555654D01*
X140986011Y-127746130D01*
X140986011Y-128317559D01*
X141081250Y-128508035D01*
X141176488Y-128603273D01*
X141366964Y-128698511D01*
X141652678Y-128698511D01*
X139271726Y-128698511D02*
X139271726Y-127650892D01*
X139366964Y-127460416D01*
X139557440Y-127365178D01*
X139938392Y-127365178D01*
X140128869Y-127460416D01*
X139271726Y-128603273D02*
X139462202Y-128698511D01*
X139938392Y-128698511D01*
X140128869Y-128603273D01*
X140224107Y-128412797D01*
X140224107Y-128222321D01*
X140128869Y-128031845D01*
X139938392Y-127936607D01*
X139462202Y-127936607D01*
X139271726Y-127841369D01*
X138319345Y-128698511D02*
X138319345Y-127365178D01*
X138319345Y-127746130D02*
X138224107Y-127555654D01*
X138128869Y-127460416D01*
X137938392Y-127365178D01*
X137747916Y-127365178D01*
X136224107Y-128698511D02*
X136224107Y-126698511D01*
X136224107Y-128603273D02*
X136414583Y-128698511D01*
X136795535Y-128698511D01*
X136986011Y-128603273D01*
X137081250Y-128508035D01*
X137176488Y-128317559D01*
X137176488Y-127746130D01*
X137081250Y-127555654D01*
X136986011Y-127460416D01*
X136795535Y-127365178D01*
X136414583Y-127365178D01*
X136224107Y-127460416D01*
X135366964Y-128603273D02*
X135176488Y-128698511D01*
X134795535Y-128698511D01*
X134605059Y-128603273D01*
X134509821Y-128412797D01*
X134509821Y-128317559D01*
X134605059Y-128127083D01*
X134795535Y-128031845D01*
X135081250Y-128031845D01*
X135271726Y-127936607D01*
X135366964Y-127746130D01*
X135366964Y-127650892D01*
X135271726Y-127460416D01*
X135081250Y-127365178D01*
X134795535Y-127365178D01*
X134605059Y-127460416D01*
X133652678Y-128508035D02*
X133557440Y-128603273D01*
X133652678Y-128698511D01*
X133747916Y-128603273D01*
X133652678Y-128508035D01*
X133652678Y-128698511D01*
X131843154Y-128603273D02*
X132033630Y-128698511D01*
X132414583Y-128698511D01*
X132605059Y-128603273D01*
X132700297Y-128508035D01*
X132795535Y-128317559D01*
X132795535Y-127746130D01*
X132700297Y-127555654D01*
X132605059Y-127460416D01*
X132414583Y-127365178D01*
X132033630Y-127365178D01*
X131843154Y-127460416D01*
X130700297Y-128698511D02*
X130890773Y-128603273D01*
X130986011Y-128508035D01*
X131081250Y-128317559D01*
X131081250Y-127746130D01*
X130986011Y-127555654D01*
X130890773Y-127460416D01*
X130700297Y-127365178D01*
X130414583Y-127365178D01*
X130224107Y-127460416D01*
X130128869Y-127555654D01*
X130033630Y-127746130D01*
X130033630Y-128317559D01*
X130128869Y-128508035D01*
X130224107Y-128603273D01*
X130414583Y-128698511D01*
X130700297Y-128698511D01*
X129176488Y-128698511D02*
X129176488Y-127365178D01*
X129176488Y-127555654D02*
X129081250Y-127460416D01*
X128890773Y-127365178D01*
X128605059Y-127365178D01*
X128414583Y-127460416D01*
X128319345Y-127650892D01*
X128319345Y-128698511D01*
X128319345Y-127650892D02*
X128224107Y-127460416D01*
X128033630Y-127365178D01*
X127747916Y-127365178D01*
X127557440Y-127460416D01*
X127462202Y-127650892D01*
X127462202Y-128698511D01*
D15*
X32086250Y-74050000D03*
D16*
X42806250Y-69850000D03*
D17*
X32226250Y-69850000D03*
X42386250Y-69850000D03*
D16*
X31806250Y-69850000D03*
D18*
X37306250Y-69850000D03*
D19*
X39826021Y-65059984D03*
D20*
X42306250Y-66050000D03*
D21*
X39846250Y-64770000D03*
X34806250Y-65850000D03*
D22*
X34151245Y-66579996D03*
D20*
X37306250Y-63950000D03*
D17*
X61436250Y-69850000D03*
D18*
X56356250Y-69850000D03*
D16*
X61856250Y-69850000D03*
D17*
X51276250Y-69850000D03*
D15*
X51136250Y-74050000D03*
D16*
X50856250Y-69850000D03*
D19*
X58876021Y-65059984D03*
D21*
X58896250Y-64770000D03*
D20*
X61356250Y-66050000D03*
D21*
X53856250Y-65850000D03*
D22*
X53201245Y-66579996D03*
D20*
X56356250Y-63950000D03*
D17*
X80486250Y-69850000D03*
D18*
X75406250Y-69850000D03*
D17*
X70326250Y-69850000D03*
D16*
X69906250Y-69850000D03*
X80906250Y-69850000D03*
D15*
X70186250Y-74050000D03*
D19*
X77926021Y-65059984D03*
D21*
X77946250Y-64770000D03*
D20*
X80406250Y-66050000D03*
X75406250Y-63950000D03*
D22*
X72251245Y-66579996D03*
D21*
X72906250Y-65850000D03*
D15*
X89236250Y-74050000D03*
D18*
X94456250Y-69850000D03*
D16*
X88956250Y-69850000D03*
D17*
X89376250Y-69850000D03*
X99536250Y-69850000D03*
D16*
X99956250Y-69850000D03*
D20*
X99456250Y-66050000D03*
D19*
X96976021Y-65059984D03*
D21*
X96996250Y-64770000D03*
D20*
X94456250Y-63950000D03*
D21*
X91956250Y-65850000D03*
D22*
X91301245Y-66579996D03*
D18*
X113506250Y-69850000D03*
D15*
X108286250Y-74050000D03*
D17*
X108426250Y-69850000D03*
X118586250Y-69850000D03*
D16*
X108006250Y-69850000D03*
X119006250Y-69850000D03*
D19*
X116026021Y-65059984D03*
D21*
X116046250Y-64770000D03*
D20*
X118506250Y-66050000D03*
D22*
X110351245Y-66579996D03*
D21*
X111006250Y-65850000D03*
D20*
X113506250Y-63950000D03*
D17*
X175736250Y-69850000D03*
D15*
X165436250Y-74050000D03*
D16*
X165156250Y-69850000D03*
D17*
X165576250Y-69850000D03*
D16*
X176156250Y-69850000D03*
D18*
X170656250Y-69850000D03*
D21*
X173196250Y-64770000D03*
D20*
X175656250Y-66050000D03*
D19*
X173176021Y-65059984D03*
D21*
X168156250Y-65850000D03*
D20*
X170656250Y-63950000D03*
D22*
X167501245Y-66579996D03*
D17*
X184626250Y-69850000D03*
D18*
X189706250Y-69850000D03*
D17*
X194786250Y-69850000D03*
D15*
X184486250Y-74050000D03*
D16*
X184206250Y-69850000D03*
X195206250Y-69850000D03*
D21*
X192246250Y-64770000D03*
D20*
X194706250Y-66050000D03*
D19*
X192226021Y-65059984D03*
D22*
X186551245Y-66579996D03*
D20*
X189706250Y-63950000D03*
D21*
X187206250Y-65850000D03*
D16*
X203256250Y-69850000D03*
D17*
X213836250Y-69850000D03*
D16*
X214256250Y-69850000D03*
D17*
X203676250Y-69850000D03*
D15*
X203536250Y-74050000D03*
D18*
X208756250Y-69850000D03*
D20*
X213756250Y-66050000D03*
D21*
X211296250Y-64770000D03*
D19*
X211276021Y-65059984D03*
D22*
X205601245Y-66579996D03*
D20*
X208756250Y-63950000D03*
D21*
X206256250Y-65850000D03*
D15*
X222586250Y-74050000D03*
D17*
X222726250Y-69850000D03*
X232886250Y-69850000D03*
D18*
X227806250Y-69850000D03*
D16*
X222306250Y-69850000D03*
X233306250Y-69850000D03*
D20*
X232806250Y-66050000D03*
D19*
X230326021Y-65059984D03*
D21*
X230346250Y-64770000D03*
X225306250Y-65850000D03*
D22*
X224651245Y-66579996D03*
D20*
X227806250Y-63950000D03*
D16*
X241356250Y-69850000D03*
D15*
X241636250Y-74050000D03*
D17*
X251936250Y-69850000D03*
X241776250Y-69850000D03*
D16*
X252356250Y-69850000D03*
D18*
X246856250Y-69850000D03*
D20*
X251856250Y-66050000D03*
D19*
X249376021Y-65059984D03*
D21*
X249396250Y-64770000D03*
X244356250Y-65850000D03*
D20*
X246856250Y-63950000D03*
D22*
X243701245Y-66579996D03*
D16*
X271406250Y-69850000D03*
D15*
X260686250Y-74050000D03*
D16*
X260406250Y-69850000D03*
D17*
X270986250Y-69850000D03*
X260826250Y-69850000D03*
D18*
X265906250Y-69850000D03*
D21*
X268446250Y-64770000D03*
D20*
X270906250Y-66050000D03*
D19*
X268426021Y-65059984D03*
D21*
X263406250Y-65850000D03*
D20*
X265906250Y-63950000D03*
D22*
X262751245Y-66579996D03*
D17*
X42386250Y-88900000D03*
D16*
X42806250Y-88900000D03*
X31806250Y-88900000D03*
D15*
X32086250Y-93100000D03*
D18*
X37306250Y-88900000D03*
D17*
X32226250Y-88900000D03*
D19*
X39826021Y-84109984D03*
D21*
X39846250Y-83820000D03*
D20*
X42306250Y-85100000D03*
D22*
X34151245Y-85629996D03*
D20*
X37306250Y-83000000D03*
D21*
X34806250Y-84900000D03*
D15*
X51136250Y-93100000D03*
D17*
X51276250Y-88900000D03*
D16*
X61856250Y-88900000D03*
X50856250Y-88900000D03*
D18*
X56356250Y-88900000D03*
D17*
X61436250Y-88900000D03*
D19*
X58876021Y-84109984D03*
D21*
X58896250Y-83820000D03*
D20*
X61356250Y-85100000D03*
X56356250Y-83000000D03*
D22*
X53201245Y-85629996D03*
D21*
X53856250Y-84900000D03*
D15*
X70186250Y-93100000D03*
D18*
X75406250Y-88900000D03*
D17*
X80486250Y-88900000D03*
D16*
X69906250Y-88900000D03*
X80906250Y-88900000D03*
D17*
X70326250Y-88900000D03*
D21*
X77946250Y-83820000D03*
D20*
X80406250Y-85100000D03*
D19*
X77926021Y-84109984D03*
D20*
X75406250Y-83000000D03*
D21*
X72906250Y-84900000D03*
D22*
X72251245Y-85629996D03*
D16*
X88956250Y-88900000D03*
D17*
X89376250Y-88900000D03*
D15*
X89236250Y-93100000D03*
D16*
X99956250Y-88900000D03*
D17*
X99536250Y-88900000D03*
D18*
X94456250Y-88900000D03*
D20*
X99456250Y-85100000D03*
D19*
X96976021Y-84109984D03*
D21*
X96996250Y-83820000D03*
D22*
X91301245Y-85629996D03*
D21*
X91956250Y-84900000D03*
D20*
X94456250Y-83000000D03*
D16*
X108006250Y-88900000D03*
D18*
X113506250Y-88900000D03*
D17*
X118586250Y-88900000D03*
D16*
X119006250Y-88900000D03*
D17*
X108426250Y-88900000D03*
D15*
X108286250Y-93100000D03*
D21*
X116046250Y-83820000D03*
D19*
X116026021Y-84109984D03*
D20*
X118506250Y-85100000D03*
D22*
X110351245Y-85629996D03*
D21*
X111006250Y-84900000D03*
D20*
X113506250Y-83000000D03*
D18*
X170656250Y-88900000D03*
D16*
X176156250Y-88900000D03*
D15*
X165436250Y-93100000D03*
D17*
X165576250Y-88900000D03*
D16*
X165156250Y-88900000D03*
D17*
X175736250Y-88900000D03*
D21*
X173196250Y-83820000D03*
D19*
X173176021Y-84109984D03*
D20*
X175656250Y-85100000D03*
D22*
X167501245Y-85629996D03*
D21*
X168156250Y-84900000D03*
D20*
X170656250Y-83000000D03*
D18*
X189706250Y-88900000D03*
D16*
X195206250Y-88900000D03*
D15*
X184486250Y-93100000D03*
D17*
X184626250Y-88900000D03*
X194786250Y-88900000D03*
D16*
X184206250Y-88900000D03*
D21*
X192246250Y-83820000D03*
D20*
X194706250Y-85100000D03*
D19*
X192226021Y-84109984D03*
D22*
X186551245Y-85629996D03*
D20*
X189706250Y-83000000D03*
D21*
X187206250Y-84900000D03*
D16*
X214256250Y-88900000D03*
X203256250Y-88900000D03*
D17*
X203676250Y-88900000D03*
X213836250Y-88900000D03*
D18*
X208756250Y-88900000D03*
D15*
X203536250Y-93100000D03*
D19*
X211276021Y-84109984D03*
D21*
X211296250Y-83820000D03*
D20*
X213756250Y-85100000D03*
X208756250Y-83000000D03*
D21*
X206256250Y-84900000D03*
D22*
X205601245Y-85629996D03*
D16*
X222306250Y-88900000D03*
D17*
X222726250Y-88900000D03*
D16*
X233306250Y-88900000D03*
D17*
X232886250Y-88900000D03*
D18*
X227806250Y-88900000D03*
D15*
X222586250Y-93100000D03*
D19*
X230326021Y-84109984D03*
D20*
X232806250Y-85100000D03*
D21*
X230346250Y-83820000D03*
D20*
X227806250Y-83000000D03*
D21*
X225306250Y-84900000D03*
D22*
X224651245Y-85629996D03*
D17*
X241776250Y-88900000D03*
D16*
X241356250Y-88900000D03*
D17*
X251936250Y-88900000D03*
D16*
X252356250Y-88900000D03*
D15*
X241636250Y-93100000D03*
D18*
X246856250Y-88900000D03*
D21*
X249396250Y-83820000D03*
D20*
X251856250Y-85100000D03*
D19*
X249376021Y-84109984D03*
D21*
X244356250Y-84900000D03*
D22*
X243701245Y-85629996D03*
D20*
X246856250Y-83000000D03*
D16*
X260406250Y-88900000D03*
D17*
X270986250Y-88900000D03*
D18*
X265906250Y-88900000D03*
D17*
X260826250Y-88900000D03*
D16*
X271406250Y-88900000D03*
D15*
X260686250Y-93100000D03*
D20*
X270906250Y-85100000D03*
D21*
X268446250Y-83820000D03*
D19*
X268426021Y-84109984D03*
D22*
X262751245Y-85629996D03*
D21*
X263406250Y-84900000D03*
D20*
X265906250Y-83000000D03*
D16*
X80906250Y-127000000D03*
D17*
X70326250Y-127000000D03*
D18*
X75406250Y-127000000D03*
D17*
X80486250Y-127000000D03*
D15*
X70186250Y-131200000D03*
D16*
X69906250Y-127000000D03*
D20*
X80406250Y-123200000D03*
D19*
X77926021Y-122209984D03*
D21*
X77946250Y-121920000D03*
X72906250Y-123000000D03*
D20*
X75406250Y-121100000D03*
D22*
X72251245Y-123729996D03*
D15*
X89236250Y-131200000D03*
D16*
X99956250Y-127000000D03*
X88956250Y-127000000D03*
D18*
X94456250Y-127000000D03*
D17*
X99536250Y-127000000D03*
X89376250Y-127000000D03*
D20*
X99456250Y-123200000D03*
D21*
X96996250Y-121920000D03*
D19*
X96976021Y-122209984D03*
D22*
X91301245Y-123729996D03*
D21*
X91956250Y-123000000D03*
D20*
X94456250Y-121100000D03*
D17*
X165576250Y-127000000D03*
D16*
X176156250Y-127000000D03*
D17*
X175736250Y-127000000D03*
D18*
X170656250Y-127000000D03*
D16*
X165156250Y-127000000D03*
D15*
X165436250Y-131200000D03*
D21*
X173196250Y-121920000D03*
D19*
X173176021Y-122209984D03*
D20*
X175656250Y-123200000D03*
D22*
X167501245Y-123729996D03*
D21*
X168156250Y-123000000D03*
D20*
X170656250Y-121100000D03*
D16*
X184206250Y-127000000D03*
X195206250Y-127000000D03*
D17*
X194786250Y-127000000D03*
D18*
X189706250Y-127000000D03*
D17*
X184626250Y-127000000D03*
D15*
X184486250Y-131200000D03*
D20*
X194706250Y-123200000D03*
D19*
X192226021Y-122209984D03*
D21*
X192246250Y-121920000D03*
D20*
X189706250Y-121100000D03*
D21*
X187206250Y-123000000D03*
D22*
X186551245Y-123729996D03*
D18*
X113506250Y-127000000D03*
D16*
X119006250Y-127000000D03*
D15*
X108286250Y-131200000D03*
D16*
X108006250Y-127000000D03*
D17*
X108426250Y-127000000D03*
X118586250Y-127000000D03*
D19*
X116026021Y-122209984D03*
D21*
X116046250Y-121920000D03*
D20*
X118506250Y-123200000D03*
X113506250Y-121100000D03*
D22*
X110351245Y-123729996D03*
D21*
X111006250Y-123000000D03*
D15*
X203536250Y-131200000D03*
D17*
X203676250Y-127000000D03*
D16*
X214256250Y-127000000D03*
D17*
X213836250Y-127000000D03*
D18*
X208756250Y-127000000D03*
D16*
X203256250Y-127000000D03*
D21*
X211296250Y-121920000D03*
D20*
X213756250Y-123200000D03*
D19*
X211276021Y-122209984D03*
D20*
X208756250Y-121100000D03*
D21*
X206256250Y-123000000D03*
D22*
X205601245Y-123729996D03*
D23*
X84931250Y-127000000D03*
X103981250Y-79375000D03*
X180181250Y-79375000D03*
X256381250Y-79375000D03*
X46831250Y-79375000D03*
D24*
X127143750Y-63500000D03*
D25*
X128443750Y-63500000D03*
D23*
X199231250Y-127000000D03*
D26*
X39006250Y-74612500D03*
X35606250Y-74612500D03*
X58056250Y-74612500D03*
X54656250Y-74612500D03*
X76993750Y-74612500D03*
X73593750Y-74612500D03*
X96156250Y-74612500D03*
X92756250Y-74612500D03*
X115206250Y-74612500D03*
X111806250Y-74612500D03*
X172356250Y-74612500D03*
X168956250Y-74612500D03*
X191406250Y-74612500D03*
X188006250Y-74612500D03*
X210456250Y-74612500D03*
X207056250Y-74612500D03*
X229506250Y-74612500D03*
X226106250Y-74612500D03*
X248556250Y-74612500D03*
X245156250Y-74612500D03*
X267606250Y-74612500D03*
X264206250Y-74612500D03*
X39006250Y-93662500D03*
X35606250Y-93662500D03*
X58056250Y-93662500D03*
X54656250Y-93662500D03*
X77106250Y-93662500D03*
X73706250Y-93662500D03*
X96156250Y-93662500D03*
X92756250Y-93662500D03*
X115206250Y-93662500D03*
X111806250Y-93662500D03*
X172356250Y-93662500D03*
X168956250Y-93662500D03*
X191406250Y-93662500D03*
X188006250Y-93662500D03*
X210456250Y-93662500D03*
X207056250Y-93662500D03*
X229506250Y-93662500D03*
X226106250Y-93662500D03*
X248556250Y-93662500D03*
X245156250Y-93662500D03*
X267606250Y-93662500D03*
X264206250Y-93662500D03*
X77106250Y-131762500D03*
X73706250Y-131762500D03*
X96156250Y-131762500D03*
X92756250Y-131762500D03*
X172356250Y-131762500D03*
X168956250Y-131762500D03*
X191406250Y-131762500D03*
X188006250Y-131762500D03*
D13*
X149701250Y-65804250D03*
D14*
X149701250Y-68344250D03*
X149701250Y-70884250D03*
X149701250Y-73424250D03*
X149701250Y-75964250D03*
X149701250Y-78504250D03*
X149701250Y-81044250D03*
X149701250Y-83584250D03*
X149701250Y-86124250D03*
X149701250Y-88664250D03*
X149701250Y-91204250D03*
X149701250Y-93744250D03*
X134461250Y-93744250D03*
X134461250Y-91204250D03*
X134461250Y-88664250D03*
X134461250Y-86124250D03*
X134461250Y-83584250D03*
X134461250Y-81044250D03*
X134461250Y-78504250D03*
X134461250Y-75964250D03*
X134461250Y-73424250D03*
X134461250Y-70884250D03*
X134461250Y-68344250D03*
X134461250Y-65804250D03*
D26*
X115206250Y-131762500D03*
X111806250Y-131762500D03*
X210456250Y-131762500D03*
X207056250Y-131762500D03*
M02*
