G04 #@! TF.GenerationSoftware,KiCad,Pcbnew,(5.1.9)-1*
G04 #@! TF.CreationDate,2021-03-08T16:10:54-08:00*
G04 #@! TF.ProjectId,back-plate,6261636b-2d70-46c6-9174-652e6b696361,rev?*
G04 #@! TF.SameCoordinates,Original*
G04 #@! TF.FileFunction,Copper,L2,Bot*
G04 #@! TF.FilePolarity,Positive*
%FSLAX46Y46*%
G04 Gerber Fmt 4.6, Leading zero omitted, Abs format (unit mm)*
G04 Created by KiCad (PCBNEW (5.1.9)-1) date 2021-03-08 16:10:54*
%MOMM*%
%LPD*%
G01*
G04 APERTURE LIST*
G04 #@! TA.AperFunction,NonConductor*
%ADD10C,0.254000*%
G04 #@! TD*
G04 #@! TA.AperFunction,NonConductor*
%ADD11C,0.100000*%
G04 #@! TD*
G04 APERTURE END LIST*
D10*
X273383710Y-61020886D02*
X273704710Y-61117801D01*
X274000775Y-61275221D01*
X274260623Y-61487149D01*
X274474358Y-61745510D01*
X274633838Y-62040464D01*
X274732994Y-62360782D01*
X274771251Y-62724772D01*
X274771250Y-96011471D01*
X274735364Y-96377460D01*
X274638448Y-96698462D01*
X274481029Y-96994525D01*
X274269101Y-97254373D01*
X274010742Y-97468106D01*
X273715786Y-97627588D01*
X273395469Y-97726743D01*
X273031479Y-97765000D01*
X220630081Y-97765000D01*
X220600865Y-97767877D01*
X220586059Y-97767774D01*
X220576888Y-97768673D01*
X220114695Y-97817251D01*
X220056078Y-97829284D01*
X219997337Y-97840489D01*
X219988515Y-97843152D01*
X219544561Y-97980579D01*
X219489421Y-98003758D01*
X219433954Y-98026168D01*
X219425817Y-98030495D01*
X219017010Y-98251536D01*
X218967426Y-98284981D01*
X218947531Y-98298000D01*
X218281250Y-98298000D01*
X218256474Y-98300440D01*
X218232649Y-98307667D01*
X218210693Y-98319403D01*
X218191447Y-98335197D01*
X218175653Y-98354443D01*
X218163917Y-98376399D01*
X218156690Y-98400224D01*
X218154250Y-98425000D01*
X218154250Y-99091504D01*
X218134531Y-99121183D01*
X218100743Y-99170530D01*
X218096360Y-99178636D01*
X217878179Y-99588975D01*
X217855375Y-99644302D01*
X217831819Y-99699262D01*
X217829094Y-99708065D01*
X217694770Y-100152968D01*
X217683150Y-100211656D01*
X217670714Y-100270159D01*
X217669751Y-100279324D01*
X217624400Y-100741845D01*
X217624400Y-100741858D01*
X217621251Y-100773831D01*
X217621250Y-134111471D01*
X217585364Y-134477460D01*
X217488448Y-134798462D01*
X217331029Y-135094525D01*
X217119101Y-135354373D01*
X216860742Y-135568106D01*
X216565786Y-135727588D01*
X216245469Y-135826743D01*
X215881479Y-135865000D01*
X68294779Y-135865000D01*
X67928790Y-135829114D01*
X67607788Y-135732198D01*
X67311725Y-135574779D01*
X67051877Y-135362851D01*
X66838144Y-135104492D01*
X66678662Y-134809536D01*
X66579507Y-134489219D01*
X66541250Y-134125229D01*
X66541250Y-126829117D01*
X83196250Y-126829117D01*
X83196250Y-127170883D01*
X83262925Y-127506081D01*
X83393713Y-127821831D01*
X83583587Y-128105998D01*
X83825252Y-128347663D01*
X84109419Y-128537537D01*
X84425169Y-128668325D01*
X84760367Y-128735000D01*
X85102133Y-128735000D01*
X85437331Y-128668325D01*
X85753081Y-128537537D01*
X86037248Y-128347663D01*
X86278913Y-128105998D01*
X86468787Y-127821831D01*
X86599575Y-127506081D01*
X86666250Y-127170883D01*
X86666250Y-126829117D01*
X197496250Y-126829117D01*
X197496250Y-127170883D01*
X197562925Y-127506081D01*
X197693713Y-127821831D01*
X197883587Y-128105998D01*
X198125252Y-128347663D01*
X198409419Y-128537537D01*
X198725169Y-128668325D01*
X199060367Y-128735000D01*
X199402133Y-128735000D01*
X199737331Y-128668325D01*
X200053081Y-128537537D01*
X200337248Y-128347663D01*
X200578913Y-128105998D01*
X200768787Y-127821831D01*
X200899575Y-127506081D01*
X200966250Y-127170883D01*
X200966250Y-126829117D01*
X200899575Y-126493919D01*
X200768787Y-126178169D01*
X200578913Y-125894002D01*
X200337248Y-125652337D01*
X200053081Y-125462463D01*
X199737331Y-125331675D01*
X199402133Y-125265000D01*
X199060367Y-125265000D01*
X198725169Y-125331675D01*
X198409419Y-125462463D01*
X198125252Y-125652337D01*
X197883587Y-125894002D01*
X197693713Y-126178169D01*
X197562925Y-126493919D01*
X197496250Y-126829117D01*
X86666250Y-126829117D01*
X86599575Y-126493919D01*
X86468787Y-126178169D01*
X86278913Y-125894002D01*
X86037248Y-125652337D01*
X85753081Y-125462463D01*
X85437331Y-125331675D01*
X85102133Y-125265000D01*
X84760367Y-125265000D01*
X84425169Y-125331675D01*
X84109419Y-125462463D01*
X83825252Y-125652337D01*
X83583587Y-125894002D01*
X83393713Y-126178169D01*
X83262925Y-126493919D01*
X83196250Y-126829117D01*
X66541250Y-126829117D01*
X66541250Y-100773831D01*
X66538373Y-100744615D01*
X66538476Y-100729809D01*
X66537577Y-100720638D01*
X66488999Y-100258445D01*
X66476966Y-100199828D01*
X66465761Y-100141087D01*
X66463098Y-100132265D01*
X66325671Y-99688311D01*
X66302492Y-99633171D01*
X66280082Y-99577704D01*
X66275755Y-99569567D01*
X66054714Y-99160760D01*
X66021269Y-99111176D01*
X66008250Y-99091281D01*
X66008250Y-98425000D01*
X66005810Y-98400224D01*
X65998583Y-98376399D01*
X65986847Y-98354443D01*
X65971053Y-98335197D01*
X65951807Y-98319403D01*
X65929851Y-98307667D01*
X65906026Y-98300440D01*
X65881250Y-98298000D01*
X65214746Y-98298000D01*
X65185067Y-98278281D01*
X65135720Y-98244493D01*
X65127614Y-98240110D01*
X64717275Y-98021929D01*
X64661948Y-97999125D01*
X64606988Y-97975569D01*
X64598185Y-97972844D01*
X64153282Y-97838520D01*
X64094594Y-97826900D01*
X64036091Y-97814464D01*
X64026926Y-97813501D01*
X63564405Y-97768150D01*
X63564402Y-97768150D01*
X63532419Y-97765000D01*
X30194779Y-97765000D01*
X29828790Y-97729114D01*
X29507788Y-97632198D01*
X29211725Y-97474779D01*
X28951877Y-97262851D01*
X28738144Y-97004492D01*
X28578662Y-96709536D01*
X28479507Y-96389219D01*
X28441250Y-96025229D01*
X28441250Y-79204117D01*
X45096250Y-79204117D01*
X45096250Y-79545883D01*
X45162925Y-79881081D01*
X45293713Y-80196831D01*
X45483587Y-80480998D01*
X45725252Y-80722663D01*
X46009419Y-80912537D01*
X46325169Y-81043325D01*
X46660367Y-81110000D01*
X47002133Y-81110000D01*
X47337331Y-81043325D01*
X47653081Y-80912537D01*
X47937248Y-80722663D01*
X48178913Y-80480998D01*
X48368787Y-80196831D01*
X48499575Y-79881081D01*
X48566250Y-79545883D01*
X48566250Y-79204117D01*
X102246250Y-79204117D01*
X102246250Y-79545883D01*
X102312925Y-79881081D01*
X102443713Y-80196831D01*
X102633587Y-80480998D01*
X102875252Y-80722663D01*
X103159419Y-80912537D01*
X103475169Y-81043325D01*
X103810367Y-81110000D01*
X104152133Y-81110000D01*
X104487331Y-81043325D01*
X104803081Y-80912537D01*
X105087248Y-80722663D01*
X105328913Y-80480998D01*
X105518787Y-80196831D01*
X105649575Y-79881081D01*
X105716250Y-79545883D01*
X105716250Y-79204117D01*
X178446250Y-79204117D01*
X178446250Y-79545883D01*
X178512925Y-79881081D01*
X178643713Y-80196831D01*
X178833587Y-80480998D01*
X179075252Y-80722663D01*
X179359419Y-80912537D01*
X179675169Y-81043325D01*
X180010367Y-81110000D01*
X180352133Y-81110000D01*
X180687331Y-81043325D01*
X181003081Y-80912537D01*
X181287248Y-80722663D01*
X181528913Y-80480998D01*
X181718787Y-80196831D01*
X181849575Y-79881081D01*
X181916250Y-79545883D01*
X181916250Y-79204117D01*
X254646250Y-79204117D01*
X254646250Y-79545883D01*
X254712925Y-79881081D01*
X254843713Y-80196831D01*
X255033587Y-80480998D01*
X255275252Y-80722663D01*
X255559419Y-80912537D01*
X255875169Y-81043325D01*
X256210367Y-81110000D01*
X256552133Y-81110000D01*
X256887331Y-81043325D01*
X257203081Y-80912537D01*
X257487248Y-80722663D01*
X257728913Y-80480998D01*
X257918787Y-80196831D01*
X258049575Y-79881081D01*
X258116250Y-79545883D01*
X258116250Y-79204117D01*
X258049575Y-78868919D01*
X257918787Y-78553169D01*
X257728913Y-78269002D01*
X257487248Y-78027337D01*
X257203081Y-77837463D01*
X256887331Y-77706675D01*
X256552133Y-77640000D01*
X256210367Y-77640000D01*
X255875169Y-77706675D01*
X255559419Y-77837463D01*
X255275252Y-78027337D01*
X255033587Y-78269002D01*
X254843713Y-78553169D01*
X254712925Y-78868919D01*
X254646250Y-79204117D01*
X181916250Y-79204117D01*
X181849575Y-78868919D01*
X181718787Y-78553169D01*
X181528913Y-78269002D01*
X181287248Y-78027337D01*
X181003081Y-77837463D01*
X180687331Y-77706675D01*
X180352133Y-77640000D01*
X180010367Y-77640000D01*
X179675169Y-77706675D01*
X179359419Y-77837463D01*
X179075252Y-78027337D01*
X178833587Y-78269002D01*
X178643713Y-78553169D01*
X178512925Y-78868919D01*
X178446250Y-79204117D01*
X105716250Y-79204117D01*
X105649575Y-78868919D01*
X105518787Y-78553169D01*
X105328913Y-78269002D01*
X105087248Y-78027337D01*
X104803081Y-77837463D01*
X104487331Y-77706675D01*
X104152133Y-77640000D01*
X103810367Y-77640000D01*
X103475169Y-77706675D01*
X103159419Y-77837463D01*
X102875252Y-78027337D01*
X102633587Y-78269002D01*
X102443713Y-78553169D01*
X102312925Y-78868919D01*
X102246250Y-79204117D01*
X48566250Y-79204117D01*
X48499575Y-78868919D01*
X48368787Y-78553169D01*
X48178913Y-78269002D01*
X47937248Y-78027337D01*
X47653081Y-77837463D01*
X47337331Y-77706675D01*
X47002133Y-77640000D01*
X46660367Y-77640000D01*
X46325169Y-77706675D01*
X46009419Y-77837463D01*
X45725252Y-78027337D01*
X45483587Y-78269002D01*
X45293713Y-78553169D01*
X45162925Y-78868919D01*
X45096250Y-79204117D01*
X28441250Y-79204117D01*
X28441250Y-62738529D01*
X28477136Y-62372540D01*
X28574051Y-62051540D01*
X28731471Y-61755475D01*
X28943399Y-61495627D01*
X29201760Y-61281892D01*
X29496714Y-61122412D01*
X29817032Y-61023256D01*
X30181012Y-60985000D01*
X273017721Y-60985000D01*
X273383710Y-61020886D01*
G04 #@! TA.AperFunction,NonConductor*
D11*
G36*
X273383710Y-61020886D02*
G01*
X273704710Y-61117801D01*
X274000775Y-61275221D01*
X274260623Y-61487149D01*
X274474358Y-61745510D01*
X274633838Y-62040464D01*
X274732994Y-62360782D01*
X274771251Y-62724772D01*
X274771250Y-96011471D01*
X274735364Y-96377460D01*
X274638448Y-96698462D01*
X274481029Y-96994525D01*
X274269101Y-97254373D01*
X274010742Y-97468106D01*
X273715786Y-97627588D01*
X273395469Y-97726743D01*
X273031479Y-97765000D01*
X220630081Y-97765000D01*
X220600865Y-97767877D01*
X220586059Y-97767774D01*
X220576888Y-97768673D01*
X220114695Y-97817251D01*
X220056078Y-97829284D01*
X219997337Y-97840489D01*
X219988515Y-97843152D01*
X219544561Y-97980579D01*
X219489421Y-98003758D01*
X219433954Y-98026168D01*
X219425817Y-98030495D01*
X219017010Y-98251536D01*
X218967426Y-98284981D01*
X218947531Y-98298000D01*
X218281250Y-98298000D01*
X218256474Y-98300440D01*
X218232649Y-98307667D01*
X218210693Y-98319403D01*
X218191447Y-98335197D01*
X218175653Y-98354443D01*
X218163917Y-98376399D01*
X218156690Y-98400224D01*
X218154250Y-98425000D01*
X218154250Y-99091504D01*
X218134531Y-99121183D01*
X218100743Y-99170530D01*
X218096360Y-99178636D01*
X217878179Y-99588975D01*
X217855375Y-99644302D01*
X217831819Y-99699262D01*
X217829094Y-99708065D01*
X217694770Y-100152968D01*
X217683150Y-100211656D01*
X217670714Y-100270159D01*
X217669751Y-100279324D01*
X217624400Y-100741845D01*
X217624400Y-100741858D01*
X217621251Y-100773831D01*
X217621250Y-134111471D01*
X217585364Y-134477460D01*
X217488448Y-134798462D01*
X217331029Y-135094525D01*
X217119101Y-135354373D01*
X216860742Y-135568106D01*
X216565786Y-135727588D01*
X216245469Y-135826743D01*
X215881479Y-135865000D01*
X68294779Y-135865000D01*
X67928790Y-135829114D01*
X67607788Y-135732198D01*
X67311725Y-135574779D01*
X67051877Y-135362851D01*
X66838144Y-135104492D01*
X66678662Y-134809536D01*
X66579507Y-134489219D01*
X66541250Y-134125229D01*
X66541250Y-126829117D01*
X83196250Y-126829117D01*
X83196250Y-127170883D01*
X83262925Y-127506081D01*
X83393713Y-127821831D01*
X83583587Y-128105998D01*
X83825252Y-128347663D01*
X84109419Y-128537537D01*
X84425169Y-128668325D01*
X84760367Y-128735000D01*
X85102133Y-128735000D01*
X85437331Y-128668325D01*
X85753081Y-128537537D01*
X86037248Y-128347663D01*
X86278913Y-128105998D01*
X86468787Y-127821831D01*
X86599575Y-127506081D01*
X86666250Y-127170883D01*
X86666250Y-126829117D01*
X197496250Y-126829117D01*
X197496250Y-127170883D01*
X197562925Y-127506081D01*
X197693713Y-127821831D01*
X197883587Y-128105998D01*
X198125252Y-128347663D01*
X198409419Y-128537537D01*
X198725169Y-128668325D01*
X199060367Y-128735000D01*
X199402133Y-128735000D01*
X199737331Y-128668325D01*
X200053081Y-128537537D01*
X200337248Y-128347663D01*
X200578913Y-128105998D01*
X200768787Y-127821831D01*
X200899575Y-127506081D01*
X200966250Y-127170883D01*
X200966250Y-126829117D01*
X200899575Y-126493919D01*
X200768787Y-126178169D01*
X200578913Y-125894002D01*
X200337248Y-125652337D01*
X200053081Y-125462463D01*
X199737331Y-125331675D01*
X199402133Y-125265000D01*
X199060367Y-125265000D01*
X198725169Y-125331675D01*
X198409419Y-125462463D01*
X198125252Y-125652337D01*
X197883587Y-125894002D01*
X197693713Y-126178169D01*
X197562925Y-126493919D01*
X197496250Y-126829117D01*
X86666250Y-126829117D01*
X86599575Y-126493919D01*
X86468787Y-126178169D01*
X86278913Y-125894002D01*
X86037248Y-125652337D01*
X85753081Y-125462463D01*
X85437331Y-125331675D01*
X85102133Y-125265000D01*
X84760367Y-125265000D01*
X84425169Y-125331675D01*
X84109419Y-125462463D01*
X83825252Y-125652337D01*
X83583587Y-125894002D01*
X83393713Y-126178169D01*
X83262925Y-126493919D01*
X83196250Y-126829117D01*
X66541250Y-126829117D01*
X66541250Y-100773831D01*
X66538373Y-100744615D01*
X66538476Y-100729809D01*
X66537577Y-100720638D01*
X66488999Y-100258445D01*
X66476966Y-100199828D01*
X66465761Y-100141087D01*
X66463098Y-100132265D01*
X66325671Y-99688311D01*
X66302492Y-99633171D01*
X66280082Y-99577704D01*
X66275755Y-99569567D01*
X66054714Y-99160760D01*
X66021269Y-99111176D01*
X66008250Y-99091281D01*
X66008250Y-98425000D01*
X66005810Y-98400224D01*
X65998583Y-98376399D01*
X65986847Y-98354443D01*
X65971053Y-98335197D01*
X65951807Y-98319403D01*
X65929851Y-98307667D01*
X65906026Y-98300440D01*
X65881250Y-98298000D01*
X65214746Y-98298000D01*
X65185067Y-98278281D01*
X65135720Y-98244493D01*
X65127614Y-98240110D01*
X64717275Y-98021929D01*
X64661948Y-97999125D01*
X64606988Y-97975569D01*
X64598185Y-97972844D01*
X64153282Y-97838520D01*
X64094594Y-97826900D01*
X64036091Y-97814464D01*
X64026926Y-97813501D01*
X63564405Y-97768150D01*
X63564402Y-97768150D01*
X63532419Y-97765000D01*
X30194779Y-97765000D01*
X29828790Y-97729114D01*
X29507788Y-97632198D01*
X29211725Y-97474779D01*
X28951877Y-97262851D01*
X28738144Y-97004492D01*
X28578662Y-96709536D01*
X28479507Y-96389219D01*
X28441250Y-96025229D01*
X28441250Y-79204117D01*
X45096250Y-79204117D01*
X45096250Y-79545883D01*
X45162925Y-79881081D01*
X45293713Y-80196831D01*
X45483587Y-80480998D01*
X45725252Y-80722663D01*
X46009419Y-80912537D01*
X46325169Y-81043325D01*
X46660367Y-81110000D01*
X47002133Y-81110000D01*
X47337331Y-81043325D01*
X47653081Y-80912537D01*
X47937248Y-80722663D01*
X48178913Y-80480998D01*
X48368787Y-80196831D01*
X48499575Y-79881081D01*
X48566250Y-79545883D01*
X48566250Y-79204117D01*
X102246250Y-79204117D01*
X102246250Y-79545883D01*
X102312925Y-79881081D01*
X102443713Y-80196831D01*
X102633587Y-80480998D01*
X102875252Y-80722663D01*
X103159419Y-80912537D01*
X103475169Y-81043325D01*
X103810367Y-81110000D01*
X104152133Y-81110000D01*
X104487331Y-81043325D01*
X104803081Y-80912537D01*
X105087248Y-80722663D01*
X105328913Y-80480998D01*
X105518787Y-80196831D01*
X105649575Y-79881081D01*
X105716250Y-79545883D01*
X105716250Y-79204117D01*
X178446250Y-79204117D01*
X178446250Y-79545883D01*
X178512925Y-79881081D01*
X178643713Y-80196831D01*
X178833587Y-80480998D01*
X179075252Y-80722663D01*
X179359419Y-80912537D01*
X179675169Y-81043325D01*
X180010367Y-81110000D01*
X180352133Y-81110000D01*
X180687331Y-81043325D01*
X181003081Y-80912537D01*
X181287248Y-80722663D01*
X181528913Y-80480998D01*
X181718787Y-80196831D01*
X181849575Y-79881081D01*
X181916250Y-79545883D01*
X181916250Y-79204117D01*
X254646250Y-79204117D01*
X254646250Y-79545883D01*
X254712925Y-79881081D01*
X254843713Y-80196831D01*
X255033587Y-80480998D01*
X255275252Y-80722663D01*
X255559419Y-80912537D01*
X255875169Y-81043325D01*
X256210367Y-81110000D01*
X256552133Y-81110000D01*
X256887331Y-81043325D01*
X257203081Y-80912537D01*
X257487248Y-80722663D01*
X257728913Y-80480998D01*
X257918787Y-80196831D01*
X258049575Y-79881081D01*
X258116250Y-79545883D01*
X258116250Y-79204117D01*
X258049575Y-78868919D01*
X257918787Y-78553169D01*
X257728913Y-78269002D01*
X257487248Y-78027337D01*
X257203081Y-77837463D01*
X256887331Y-77706675D01*
X256552133Y-77640000D01*
X256210367Y-77640000D01*
X255875169Y-77706675D01*
X255559419Y-77837463D01*
X255275252Y-78027337D01*
X255033587Y-78269002D01*
X254843713Y-78553169D01*
X254712925Y-78868919D01*
X254646250Y-79204117D01*
X181916250Y-79204117D01*
X181849575Y-78868919D01*
X181718787Y-78553169D01*
X181528913Y-78269002D01*
X181287248Y-78027337D01*
X181003081Y-77837463D01*
X180687331Y-77706675D01*
X180352133Y-77640000D01*
X180010367Y-77640000D01*
X179675169Y-77706675D01*
X179359419Y-77837463D01*
X179075252Y-78027337D01*
X178833587Y-78269002D01*
X178643713Y-78553169D01*
X178512925Y-78868919D01*
X178446250Y-79204117D01*
X105716250Y-79204117D01*
X105649575Y-78868919D01*
X105518787Y-78553169D01*
X105328913Y-78269002D01*
X105087248Y-78027337D01*
X104803081Y-77837463D01*
X104487331Y-77706675D01*
X104152133Y-77640000D01*
X103810367Y-77640000D01*
X103475169Y-77706675D01*
X103159419Y-77837463D01*
X102875252Y-78027337D01*
X102633587Y-78269002D01*
X102443713Y-78553169D01*
X102312925Y-78868919D01*
X102246250Y-79204117D01*
X48566250Y-79204117D01*
X48499575Y-78868919D01*
X48368787Y-78553169D01*
X48178913Y-78269002D01*
X47937248Y-78027337D01*
X47653081Y-77837463D01*
X47337331Y-77706675D01*
X47002133Y-77640000D01*
X46660367Y-77640000D01*
X46325169Y-77706675D01*
X46009419Y-77837463D01*
X45725252Y-78027337D01*
X45483587Y-78269002D01*
X45293713Y-78553169D01*
X45162925Y-78868919D01*
X45096250Y-79204117D01*
X28441250Y-79204117D01*
X28441250Y-62738529D01*
X28477136Y-62372540D01*
X28574051Y-62051540D01*
X28731471Y-61755475D01*
X28943399Y-61495627D01*
X29201760Y-61281892D01*
X29496714Y-61122412D01*
X29817032Y-61023256D01*
X30181012Y-60985000D01*
X273017721Y-60985000D01*
X273383710Y-61020886D01*
G37*
G04 #@! TD.AperFunction*
M02*
