<?xml version="1.0" encoding="UTF-8" standalone="no"?>
<svg
   xmlns:dc="http://purl.org/dc/elements/1.1/"
   xmlns:cc="http://creativecommons.org/ns#"
   xmlns:rdf="http://www.w3.org/1999/02/22-rdf-syntax-ns#"
   xmlns:svg="http://www.w3.org/2000/svg"
   xmlns="http://www.w3.org/2000/svg"
   xmlns:sodipodi="http://sodipodi.sourceforge.net/DTD/sodipodi-0.dtd"
   xmlns:inkscape="http://www.inkscape.org/namespaces/inkscape"
   width="257.652mm"
   height="86.202mm"
   viewBox="0.000 0.000 257.652 86.202"
   version="1.1"
   id="svg142"
   sodipodi:docname="alps uni board case with padding.svg"
   inkscape:version="1.0.2 (e86c870879, 2021-01-15, custom)">
  <metadata
     id="metadata148">
    <rdf:RDF>
      <cc:Work
         rdf:about="">
        <dc:format>image/svg+xml</dc:format>
        <dc:type
           rdf:resource="http://purl.org/dc/dcmitype/StillImage" />
        <dc:title></dc:title>
      </cc:Work>
    </rdf:RDF>
  </metadata>
  <defs
     id="defs146">
    <inkscape:path-effect
       effect="fillet_chamfer"
       id="path-effect1022"
       is_visible="true"
       lpeversion="1"
       satellites_param="F,0,0,1,0,10,0,1 @ F,0,0,1,0,10,0,1 @ F,0,0,1,0,10,0,1 @ F,0,0,1,0,10,0,1 @ F,0,0,1,0,10,0,1 @ F,0,0,1,0,10,0,1 @ F,0,0,1,0,10,0,1 @ F,0,0,1,0,10,0,1"
       unit="mm"
       method="auto"
       mode="F"
       radius="10"
       chamfer_steps="1"
       flexible="false"
       use_knot_distance="true"
       apply_no_radius="true"
       apply_with_radius="true"
       only_selected="false"
       hide_knots="false" />
    <inkscape:path-effect
       effect="fillet_chamfer"
       id="path-effect1018"
       is_visible="true"
       lpeversion="1"
       satellites_param="F,0,0,1,0,10,0,1 @ F,0,0,1,0,10,0,1 @ F,0,0,1,0,10,0,1 @ F,0,0,1,0,10,0,1 @ F,0,0,1,0,10,0,1 @ F,0,0,1,0,10,0,1 @ F,0,0,1,0,10,0,1 @ F,0,0,1,0,10,0,1 @ F,0,0,1,0,10,0,1 @ F,0,0,1,0,10,0,1 @ F,0,0,1,0,10,0,1 @ F,0,0,1,0,10,0,1 @ F,0,0,1,0,10,0,1 @ F,0,0,1,0,10,0,1 @ F,0,0,1,0,10,0,1 @ F,0,0,1,0,10,0,1"
       unit="mm"
       method="bezier"
       mode="F"
       radius="10"
       chamfer_steps="1"
       flexible="false"
       use_knot_distance="true"
       apply_no_radius="true"
       apply_with_radius="true"
       only_selected="false"
       hide_knots="false" />
  </defs>
  <sodipodi:namedview
     pagecolor="#ffffff"
     bordercolor="#666666"
     borderopacity="1"
     objecttolerance="10"
     gridtolerance="10"
     guidetolerance="10"
     inkscape:pageopacity="0"
     inkscape:pageshadow="2"
     inkscape:window-width="1920"
     inkscape:window-height="1021"
     id="namedview144"
     showgrid="false"
     showguides="true"
     inkscape:document-units="mm"
     showborder="false"
     inkscape:pagecheckerboard="true"
     inkscape:zoom="1"
     inkscape:cx="531.31316"
     inkscape:cy="176.19289"
     inkscape:window-x="-7"
     inkscape:window-y="-7"
     inkscape:window-maximized="1"
     inkscape:current-layer="svg142" />
  <path
     style="fill:none;stroke:#000000;stroke-width:0.2;stroke-linecap:butt;stroke-linejoin:miter;stroke-opacity:1;stroke-miterlimit:4;stroke-dasharray:none"
     d="m -3.2740004,8.1260004 2e-7,31.8500016 a 10,10 45 0 0 10,10 H 24.826 a 10,10 45 0 1 10,10 v 18.099994 a 10,10 45 0 0 10,10 h 148.95 a 10,10 135 0 0 10,-10 V 59.976002 a 10,10 135 0 1 10,-10 h 37.14999 a 10,10 135 0 0 10,-10 V 8.1260001 a 10,10 45 0 0 -10,-10 l -244.1999904,3e-7 a 10,10 135 0 0 -10,10 z"
     id="path1020"
     inkscape:original-d="m -3.2740004,-1.8739996 2e-7,51.8500016 H 34.826 v 38.099994 h 168.95 V 49.976002 h 57.14999 V -1.8739999 Z"
     inkscape:path-effect="#path-effect1022" />
  <g
     id="g1096"
     style="fill:none">
    <polygon
       points="159.126,65.276 159.126,78.076 174.726,78.076 174.726,65.276"
       style="fill:none;stroke-width:0.2;stroke:black;stroke-miterlimit:4;stroke-dasharray:none"
       id="polygon86" />
    <polygon
       points="140.076,65.276 140.076,78.076 155.676,78.076 155.676,65.276"
       style="fill:none;stroke-width:0.2;stroke:black;stroke-miterlimit:4;stroke-dasharray:none"
       id="polygon88" />
    <polygon
       points="82.926,65.276 82.926,78.076 98.526,78.076 98.526,65.276"
       style="fill:none;stroke-width:0.2;stroke:black;stroke-miterlimit:4;stroke-dasharray:none"
       id="polygon90" />
    <polygon
       points="63.876,65.276 63.876,78.076 79.476,78.076 79.476,65.276"
       style="fill:none;stroke-width:0.2;stroke:black;stroke-miterlimit:4;stroke-dasharray:none"
       id="polygon92" />
    <polygon
       points="178.176,65.276 178.176,78.076 193.776,78.076 193.776,65.276"
       style="fill:none;stroke-width:0.2;stroke:black;stroke-miterlimit:4;stroke-dasharray:none"
       id="polygon94" />
    <polygon
       points="44.826,65.276 44.826,78.076 60.426,78.076 60.426,65.276"
       style="fill:none;stroke-width:0.2;stroke:black;stroke-miterlimit:4;stroke-dasharray:none"
       id="polygon96" />
    <polygon
       points="235.326,27.176 235.326,39.976 250.926,39.976 250.926,27.176"
       style="fill:none;stroke-width:0.2;stroke:black;stroke-miterlimit:4;stroke-dasharray:none"
       id="polygon98" />
    <polygon
       points="216.276,27.176 216.276,39.976 231.876,39.976 231.876,27.176"
       style="fill:none;stroke-width:0.2;stroke:black;stroke-miterlimit:4;stroke-dasharray:none"
       id="polygon100" />
    <polygon
       points="197.226,27.176 197.226,39.976 212.826,39.976 212.826,27.176"
       style="fill:none;stroke-width:0.2;stroke:black;stroke-miterlimit:4;stroke-dasharray:none"
       id="polygon102" />
    <polygon
       points="178.176,27.176 178.176,39.976 193.776,39.976 193.776,27.176"
       style="fill:none;stroke-width:0.2;stroke:black;stroke-miterlimit:4;stroke-dasharray:none"
       id="polygon104" />
    <polygon
       points="159.126,27.176 159.126,39.976 174.726,39.976 174.726,27.176"
       style="fill:none;stroke-width:0.2;stroke:black;stroke-miterlimit:4;stroke-dasharray:none"
       id="polygon106" />
    <polygon
       points="140.076,27.176 140.076,39.976 155.676,39.976 155.676,27.176"
       style="fill:none;stroke-width:0.2;stroke:black;stroke-miterlimit:4;stroke-dasharray:none"
       id="polygon108" />
    <polygon
       points="82.926,27.176 82.926,39.976 98.525,39.976 98.525,27.176"
       style="fill:none;stroke-width:0.2;stroke:black;stroke-miterlimit:4;stroke-dasharray:none"
       id="polygon110" />
    <polygon
       points="63.876,27.176 63.876,39.976 79.476,39.976 79.476,27.176"
       style="fill:none;stroke-width:0.2;stroke:black;stroke-miterlimit:4;stroke-dasharray:none"
       id="polygon112" />
    <polygon
       points="44.826,27.176 44.826,39.976 60.426,39.976 60.426,27.176"
       style="fill:none;stroke-width:0.2;stroke:black;stroke-miterlimit:4;stroke-dasharray:none"
       id="polygon114" />
    <polygon
       points="25.776,27.176 25.776,39.976 41.376,39.976 41.376,27.176"
       style="fill:none;stroke-width:0.2;stroke:black;stroke-miterlimit:4;stroke-dasharray:none"
       id="polygon116" />
    <polygon
       points="6.726,27.176 6.726,39.976 22.326,39.976 22.326,27.176"
       style="fill:none;stroke-width:0.2;stroke:black;stroke-miterlimit:4;stroke-dasharray:none"
       id="polygon118" />
    <polygon
       points="235.326,8.126 235.326,20.926 250.926,20.926 250.926,8.126"
       style="fill:none;stroke-width:0.2;stroke:black;stroke-miterlimit:4;stroke-dasharray:none"
       id="polygon120" />
    <polygon
       points="216.276,8.126 216.276,20.926 231.876,20.926 231.876,8.126"
       style="fill:none;stroke-width:0.2;stroke:black;stroke-miterlimit:4;stroke-dasharray:none"
       id="polygon122" />
    <polygon
       points="197.226,8.126 197.226,20.926 212.826,20.926 212.826,8.126"
       style="fill:none;stroke-width:0.2;stroke:black;stroke-miterlimit:4;stroke-dasharray:none"
       id="polygon124" />
    <polygon
       points="178.176,8.126 178.176,20.926 193.776,20.926 193.776,8.126"
       style="fill:none;stroke-width:0.2;stroke:black;stroke-miterlimit:4;stroke-dasharray:none"
       id="polygon126" />
    <polygon
       points="159.126,8.126 159.126,20.926 174.726,20.926 174.726,8.126"
       style="fill:none;stroke-width:0.2;stroke:black;stroke-miterlimit:4;stroke-dasharray:none"
       id="polygon128" />
    <polygon
       points="140.076,8.126 140.076,20.926 155.676,20.926 155.676,8.126"
       style="fill:none;stroke-width:0.2;stroke:black;stroke-miterlimit:4;stroke-dasharray:none"
       id="polygon130" />
    <polygon
       points="82.926,8.126 82.926,20.926 98.525,20.926 98.525,8.126"
       style="fill:none;stroke-width:0.2;stroke:black;stroke-miterlimit:4;stroke-dasharray:none"
       id="polygon132" />
    <polygon
       points="63.876,8.126 63.876,20.926 79.476,20.926 79.476,8.126"
       style="fill:none;stroke-width:0.2;stroke:black;stroke-miterlimit:4;stroke-dasharray:none"
       id="polygon134" />
    <polygon
       points="44.826,8.126 44.826,20.926 60.426,20.926 60.426,8.126"
       style="fill:none;stroke-width:0.2;stroke:black;stroke-miterlimit:4;stroke-dasharray:none"
       id="polygon136" />
    <polygon
       points="25.776,8.126 25.776,20.926 41.376,20.926 41.376,8.126"
       style="fill:none;stroke-width:0.2;stroke:black;stroke-miterlimit:4;stroke-dasharray:none"
       id="polygon138" />
    <polygon
       points="6.726,8.126 6.726,20.926 22.326,20.926 22.326,8.126"
       style="fill:none;stroke-width:0.2;stroke:black;stroke-miterlimit:4;stroke-dasharray:none"
       id="polygon140" />
  </g>
</svg>
