<?xml version="1.0"?>
<!-- Generated by SVGo -->
<svg width="277.651mm" height="106.201mm"
     viewBox="0.000 0.000 277.651 106.201"
     xmlns="http://www.w3.org/2000/svg" 
     xmlns:xlink="http://www.w3.org/1999/xlink">
<polygon points="272.651,101.201 5.000,101.201 5.000,5.000 272.651,5.000" style="fill:none;stroke-width:0.050000mm;stroke:black"/>
<polygon points="169.925,74.675 169.925,75.275 169.125,75.275 169.125,88.075 169.925,88.075 169.925,88.675 183.925,88.675 183.925,88.075 184.725,88.075 184.725,75.275 183.925,75.275 183.925,74.675" style="fill:none;stroke-width:0.050000mm;stroke:black"/>
<polygon points="150.875,74.675 150.875,75.275 150.075,75.275 150.075,88.075 150.875,88.075 150.875,88.675 164.875,88.675 164.875,88.075 165.675,88.075 165.675,75.275 164.875,75.275 164.875,74.675" style="fill:none;stroke-width:0.050000mm;stroke:black"/>
<polygon points="93.725,74.675 93.725,75.275 92.925,75.275 92.925,88.075 93.725,88.075 93.725,88.675 107.725,88.675 107.725,88.075 108.525,88.075 108.525,75.275 107.725,75.275 107.725,74.675" style="fill:none;stroke-width:0.050000mm;stroke:black"/>
<polygon points="74.675,74.675 74.675,75.275 73.875,75.275 73.875,88.075 74.675,88.075 74.675,88.675 88.675,88.675 88.675,88.075 89.475,88.075 89.475,75.275 88.675,75.275 88.675,74.675" style="fill:none;stroke-width:0.050000mm;stroke:black"/>
<polygon points="188.975,74.675 188.975,75.275 188.175,75.275 188.175,88.075 188.975,88.075 188.975,88.675 202.975,88.675 202.975,88.075 203.775,88.075 203.775,75.275 202.975,75.275 202.975,74.675" style="fill:none;stroke-width:0.050000mm;stroke:black"/>
<polygon points="55.625,74.675 55.625,75.275 54.825,75.275 54.825,88.075 55.625,88.075 55.625,88.675 69.625,88.675 69.625,88.075 70.425,88.075 70.425,75.275 69.625,75.275 69.625,74.675" style="fill:none;stroke-width:0.050000mm;stroke:black"/>
<polygon points="246.125,36.575 246.125,37.175 245.325,37.175 245.325,49.975 246.125,49.975 246.125,50.575 260.125,50.575 260.125,49.975 260.925,49.975 260.925,37.175 260.125,37.175 260.125,36.575" style="fill:none;stroke-width:0.050000mm;stroke:black"/>
<polygon points="227.075,36.575 227.075,37.175 226.275,37.175 226.275,49.975 227.075,49.975 227.075,50.575 241.075,50.575 241.075,49.975 241.875,49.975 241.875,37.175 241.075,37.175 241.075,36.575" style="fill:none;stroke-width:0.050000mm;stroke:black"/>
<polygon points="208.025,36.575 208.025,37.175 207.225,37.175 207.225,49.975 208.025,49.975 208.025,50.575 222.025,50.575 222.025,49.975 222.825,49.975 222.825,37.175 222.025,37.175 222.025,36.575" style="fill:none;stroke-width:0.050000mm;stroke:black"/>
<polygon points="188.975,36.575 188.975,37.175 188.175,37.175 188.175,49.975 188.975,49.975 188.975,50.575 202.975,50.575 202.975,49.975 203.775,49.975 203.775,37.175 202.975,37.175 202.975,36.575" style="fill:none;stroke-width:0.050000mm;stroke:black"/>
<polygon points="169.925,36.575 169.925,37.175 169.125,37.175 169.125,49.975 169.925,49.975 169.925,50.575 183.925,50.575 183.925,49.975 184.725,49.975 184.725,37.175 183.925,37.175 183.925,36.575" style="fill:none;stroke-width:0.050000mm;stroke:black"/>
<polygon points="150.875,36.575 150.875,37.175 150.075,37.175 150.075,49.975 150.875,49.975 150.875,50.575 164.875,50.575 164.875,49.975 165.675,49.975 165.675,37.175 164.875,37.175 164.875,36.575" style="fill:none;stroke-width:0.050000mm;stroke:black"/>
<polygon points="93.725,36.575 93.725,37.175 92.925,37.175 92.925,49.975 93.725,49.975 93.725,50.575 107.725,50.575 107.725,49.975 108.524,49.975 108.524,37.175 107.725,37.175 107.725,36.575" style="fill:none;stroke-width:0.050000mm;stroke:black"/>
<polygon points="74.675,36.575 74.675,37.175 73.875,37.175 73.875,49.975 74.675,49.975 74.675,50.575 88.675,50.575 88.675,49.975 89.475,49.975 89.475,37.175 88.675,37.175 88.675,36.575" style="fill:none;stroke-width:0.050000mm;stroke:black"/>
<polygon points="55.625,36.575 55.625,37.175 54.825,37.175 54.825,49.975 55.625,49.975 55.625,50.575 69.625,50.575 69.625,49.975 70.425,49.975 70.425,37.175 69.625,37.175 69.625,36.575" style="fill:none;stroke-width:0.050000mm;stroke:black"/>
<polygon points="36.575,36.575 36.575,37.175 35.775,37.175 35.775,49.975 36.575,49.975 36.575,50.575 50.575,50.575 50.575,49.975 51.375,49.975 51.375,37.175 50.575,37.175 50.575,36.575" style="fill:none;stroke-width:0.050000mm;stroke:black"/>
<polygon points="17.525,36.575 17.525,37.175 16.724,37.175 16.724,49.975 17.525,49.975 17.525,50.575 31.525,50.575 31.525,49.975 32.323,49.975 32.323,37.175 31.525,37.175 31.525,36.575" style="fill:none;stroke-width:0.050000mm;stroke:black"/>
<polygon points="246.125,17.525 246.125,18.125 245.325,18.125 245.325,30.924 246.125,30.924 246.125,31.525 260.125,31.525 260.125,30.924 260.925,30.924 260.925,18.125 260.125,18.125 260.125,17.525" style="fill:none;stroke-width:0.050000mm;stroke:black"/>
<polygon points="227.075,17.525 227.075,18.125 226.275,18.125 226.275,30.924 227.075,30.924 227.075,31.525 241.075,31.525 241.075,30.924 241.875,30.924 241.875,18.125 241.075,18.125 241.075,17.525" style="fill:none;stroke-width:0.050000mm;stroke:black"/>
<polygon points="208.025,17.525 208.025,18.125 207.225,18.125 207.225,30.924 208.025,30.924 208.025,31.525 222.025,31.525 222.025,30.924 222.825,30.924 222.825,18.125 222.025,18.125 222.025,17.525" style="fill:none;stroke-width:0.050000mm;stroke:black"/>
<polygon points="188.975,17.525 188.975,18.125 188.175,18.125 188.175,30.924 188.975,30.924 188.975,31.525 202.975,31.525 202.975,30.924 203.775,30.924 203.775,18.125 202.975,18.125 202.975,17.525" style="fill:none;stroke-width:0.050000mm;stroke:black"/>
<polygon points="169.925,17.525 169.925,18.125 169.125,18.125 169.125,30.924 169.925,30.924 169.925,31.525 183.925,31.525 183.925,30.924 184.725,30.924 184.725,18.125 183.925,18.125 183.925,17.525" style="fill:none;stroke-width:0.050000mm;stroke:black"/>
<polygon points="150.875,17.525 150.875,18.125 150.075,18.125 150.075,30.924 150.875,30.924 150.875,31.525 164.875,31.525 164.875,30.924 165.675,30.924 165.675,18.125 164.875,18.125 164.875,17.525" style="fill:none;stroke-width:0.050000mm;stroke:black"/>
<polygon points="93.725,17.525 93.725,18.125 92.925,18.125 92.925,30.924 93.725,30.924 93.725,31.525 107.725,31.525 107.725,30.924 108.524,30.924 108.524,18.125 107.725,18.125 107.725,17.525" style="fill:none;stroke-width:0.050000mm;stroke:black"/>
<polygon points="74.675,17.525 74.675,18.125 73.875,18.125 73.875,30.924 74.675,30.924 74.675,31.525 88.675,31.525 88.675,30.924 89.475,30.924 89.475,18.125 88.675,18.125 88.675,17.525" style="fill:none;stroke-width:0.050000mm;stroke:black"/>
<polygon points="55.625,17.525 55.625,18.125 54.825,18.125 54.825,30.924 55.625,30.924 55.625,31.525 69.625,31.525 69.625,30.924 70.425,30.924 70.425,18.125 69.625,18.125 69.625,17.525" style="fill:none;stroke-width:0.050000mm;stroke:black"/>
<polygon points="36.575,17.525 36.575,18.125 35.775,18.125 35.775,30.924 36.575,30.924 36.575,31.525 50.575,31.525 50.575,30.924 51.375,30.924 51.375,18.125 50.575,18.125 50.575,17.525" style="fill:none;stroke-width:0.050000mm;stroke:black"/>
<polygon points="17.525,17.525 17.525,18.125 16.724,18.125 16.724,30.924 17.525,30.924 17.525,31.525 31.525,31.525 31.525,30.924 32.323,30.924 32.323,18.125 31.525,18.125 31.525,17.525" style="fill:none;stroke-width:0.050000mm;stroke:black"/>
</svg>
