G04 #@! TF.GenerationSoftware,KiCad,Pcbnew,(5.99.0-10034-g38c849bde7)*
G04 #@! TF.CreationDate,2021-03-30T15:33:25-07:00*
G04 #@! TF.ProjectId,back-plate,6261636b-2d70-46c6-9174-652e6b696361,rev?*
G04 #@! TF.SameCoordinates,Original*
G04 #@! TF.FileFunction,Copper,L2,Bot*
G04 #@! TF.FilePolarity,Positive*
%FSLAX46Y46*%
G04 Gerber Fmt 4.6, Leading zero omitted, Abs format (unit mm)*
G04 Created by KiCad (PCBNEW (5.99.0-10034-g38c849bde7)) date 2021-03-30 15:33:25*
%MOMM*%
%LPD*%
G01*
G04 APERTURE LIST*
G04 APERTURE END LIST*
G04 #@! TA.AperFunction,NonConductor*
G36*
X272989073Y-60834841D02*
G01*
X272998448Y-60836462D01*
X272998454Y-60836463D01*
X273003247Y-60837291D01*
X273048299Y-60838043D01*
X273128461Y-60839383D01*
X273134595Y-60839635D01*
X273177288Y-60842432D01*
X273190870Y-60843323D01*
X273199063Y-60844129D01*
X273249282Y-60850741D01*
X273387955Y-60868998D01*
X273396087Y-60870341D01*
X273432821Y-60877647D01*
X273440853Y-60879519D01*
X273624887Y-60928831D01*
X273632752Y-60931217D01*
X273668219Y-60943256D01*
X273668222Y-60943257D01*
X273675937Y-60946161D01*
X273851969Y-61019076D01*
X273859473Y-61022476D01*
X273859486Y-61022482D01*
X273893060Y-61039039D01*
X273900331Y-61042926D01*
X274065314Y-61138179D01*
X274072312Y-61142530D01*
X274103471Y-61163349D01*
X274110138Y-61168127D01*
X274261341Y-61284149D01*
X274267667Y-61289341D01*
X274290770Y-61309602D01*
X274295839Y-61314048D01*
X274301854Y-61319682D01*
X274436562Y-61454389D01*
X274442197Y-61460406D01*
X274466897Y-61488570D01*
X274472116Y-61494928D01*
X274587869Y-61645780D01*
X274588107Y-61646090D01*
X274592910Y-61652793D01*
X274613720Y-61683938D01*
X274618073Y-61690939D01*
X274713329Y-61855928D01*
X274717211Y-61863190D01*
X274733771Y-61896770D01*
X274737172Y-61904275D01*
X274810090Y-62080313D01*
X274812994Y-62088030D01*
X274825023Y-62123467D01*
X274827417Y-62131357D01*
X274876733Y-62315409D01*
X274878605Y-62323438D01*
X274885909Y-62360156D01*
X274887251Y-62368284D01*
X274905497Y-62506870D01*
X274912120Y-62557178D01*
X274912928Y-62565385D01*
X274916617Y-62621675D01*
X274916869Y-62627810D01*
X274918905Y-62749726D01*
X274919615Y-62754155D01*
X274921662Y-62766926D01*
X274923250Y-62786868D01*
X274923250Y-95961362D01*
X274921409Y-95982823D01*
X274919788Y-95992198D01*
X274919787Y-95992204D01*
X274918959Y-95996997D01*
X274918673Y-96014132D01*
X274916867Y-96122211D01*
X274916615Y-96128345D01*
X274912928Y-96184613D01*
X274912121Y-96192813D01*
X274909949Y-96209312D01*
X274887251Y-96381712D01*
X274885909Y-96389842D01*
X274878599Y-96426594D01*
X274876733Y-96434594D01*
X274827418Y-96618636D01*
X274825025Y-96626526D01*
X274812994Y-96661968D01*
X274810090Y-96669684D01*
X274737174Y-96845720D01*
X274733780Y-96853212D01*
X274717203Y-96886825D01*
X274713324Y-96894082D01*
X274618077Y-97059055D01*
X274613723Y-97066057D01*
X274592898Y-97097224D01*
X274588096Y-97103925D01*
X274472116Y-97255072D01*
X274466916Y-97261408D01*
X274444913Y-97286498D01*
X274442202Y-97289589D01*
X274436568Y-97295603D01*
X274301848Y-97430323D01*
X274295830Y-97435960D01*
X274267676Y-97460650D01*
X274261303Y-97465880D01*
X274110175Y-97581845D01*
X274103475Y-97586647D01*
X274072314Y-97607469D01*
X274065318Y-97611819D01*
X274017006Y-97639712D01*
X273900334Y-97707072D01*
X273893063Y-97710959D01*
X273859475Y-97727523D01*
X273851964Y-97730926D01*
X273675938Y-97803839D01*
X273668226Y-97806742D01*
X273632752Y-97818784D01*
X273624904Y-97821164D01*
X273445088Y-97869345D01*
X273440838Y-97870484D01*
X273432807Y-97872356D01*
X273396094Y-97879658D01*
X273387962Y-97881001D01*
X273297615Y-97892896D01*
X273199060Y-97905871D01*
X273190876Y-97906677D01*
X273141246Y-97909930D01*
X273134575Y-97910367D01*
X273128440Y-97910619D01*
X273092039Y-97911227D01*
X273011014Y-97912580D01*
X273006525Y-97912655D01*
X272990280Y-97915259D01*
X272989325Y-97915412D01*
X272969383Y-97917000D01*
X239790957Y-97917000D01*
X239773657Y-97915806D01*
X239742119Y-97911434D01*
X239737254Y-97911515D01*
X239737250Y-97911515D01*
X239665774Y-97912709D01*
X239555124Y-97914557D01*
X239550102Y-97914540D01*
X239527500Y-97914008D01*
X239522667Y-97914644D01*
X239522452Y-97914656D01*
X239517801Y-97915167D01*
X239517604Y-97915184D01*
X239513120Y-97915259D01*
X239508696Y-97915968D01*
X239508686Y-97915969D01*
X239492429Y-97918575D01*
X239488934Y-97919085D01*
X239317241Y-97941689D01*
X239178219Y-97959991D01*
X239175303Y-97960341D01*
X239168590Y-97961064D01*
X239156411Y-97962376D01*
X239156408Y-97962377D01*
X239151569Y-97962898D01*
X239147153Y-97964081D01*
X239145879Y-97964249D01*
X239132320Y-97968047D01*
X239131049Y-97968396D01*
X238811229Y-98054092D01*
X238808374Y-98054821D01*
X238789966Y-98059291D01*
X238789964Y-98059292D01*
X238785235Y-98060440D01*
X238781017Y-98062187D01*
X238779771Y-98062521D01*
X238766738Y-98068093D01*
X238765469Y-98068627D01*
X238459745Y-98195263D01*
X238456990Y-98196366D01*
X238439315Y-98203204D01*
X238439311Y-98203206D01*
X238434769Y-98204963D01*
X238430811Y-98207248D01*
X238429621Y-98207741D01*
X238417409Y-98214978D01*
X238416333Y-98215607D01*
X238140347Y-98374947D01*
X238129638Y-98381130D01*
X238127052Y-98382582D01*
X238116512Y-98388341D01*
X238106163Y-98393995D01*
X238102542Y-98396774D01*
X238101424Y-98397419D01*
X238090227Y-98406214D01*
X238089188Y-98407020D01*
X237826674Y-98608455D01*
X237824317Y-98610220D01*
X237805044Y-98624301D01*
X237801814Y-98627531D01*
X237800791Y-98628316D01*
X237800054Y-98629070D01*
X237790950Y-98638383D01*
X237789944Y-98639401D01*
X237555891Y-98873453D01*
X237553768Y-98875526D01*
X237542874Y-98885919D01*
X237536562Y-98891940D01*
X237533785Y-98895559D01*
X237532869Y-98896475D01*
X237532239Y-98897316D01*
X237524357Y-98907833D01*
X237523497Y-98908967D01*
X237502760Y-98935992D01*
X237322071Y-99171469D01*
X237320281Y-99173747D01*
X237305308Y-99192336D01*
X237303028Y-99196285D01*
X237302240Y-99197312D01*
X237298369Y-99204196D01*
X237295296Y-99209661D01*
X237294593Y-99210894D01*
X237129119Y-99497506D01*
X237127700Y-99499899D01*
X237115245Y-99520343D01*
X237113496Y-99524566D01*
X237112852Y-99525681D01*
X237112465Y-99526646D01*
X237107615Y-99538742D01*
X237107076Y-99540064D01*
X236980415Y-99845851D01*
X236979254Y-99848563D01*
X236969620Y-99870355D01*
X236968439Y-99874761D01*
X236967944Y-99875957D01*
X236967686Y-99876964D01*
X236967685Y-99876968D01*
X236964434Y-99889677D01*
X236964078Y-99891040D01*
X236879881Y-100205266D01*
X236878430Y-100210680D01*
X236877640Y-100213495D01*
X236870927Y-100236379D01*
X236870331Y-100240905D01*
X236869997Y-100242152D01*
X236869873Y-100243182D01*
X236869871Y-100243193D01*
X236868306Y-100256221D01*
X236868128Y-100257638D01*
X236826174Y-100576316D01*
X236825413Y-100581319D01*
X236821563Y-100603592D01*
X236821482Y-100608458D01*
X236821463Y-100608658D01*
X236821284Y-100613341D01*
X236821271Y-100613557D01*
X236820686Y-100618000D01*
X236820737Y-100622483D01*
X236820923Y-100638942D01*
X236820913Y-100642472D01*
X236820848Y-100646354D01*
X236817738Y-100832591D01*
X236818299Y-100837036D01*
X236822258Y-100868405D01*
X236823250Y-100884182D01*
X236823250Y-134061362D01*
X236821409Y-134082823D01*
X236819788Y-134092198D01*
X236819787Y-134092204D01*
X236818959Y-134096997D01*
X236818673Y-134114132D01*
X236816867Y-134222211D01*
X236816615Y-134228345D01*
X236812928Y-134284613D01*
X236812121Y-134292813D01*
X236809949Y-134309312D01*
X236787251Y-134481712D01*
X236785909Y-134489842D01*
X236778599Y-134526594D01*
X236776733Y-134534594D01*
X236727418Y-134718636D01*
X236725025Y-134726526D01*
X236712994Y-134761968D01*
X236710090Y-134769684D01*
X236637174Y-134945720D01*
X236633780Y-134953212D01*
X236617203Y-134986825D01*
X236613324Y-134994082D01*
X236518077Y-135159055D01*
X236513723Y-135166057D01*
X236492898Y-135197224D01*
X236488096Y-135203925D01*
X236372116Y-135355072D01*
X236366916Y-135361408D01*
X236344913Y-135386498D01*
X236342202Y-135389589D01*
X236336568Y-135395603D01*
X236201848Y-135530323D01*
X236195830Y-135535960D01*
X236167676Y-135560650D01*
X236161303Y-135565880D01*
X236010175Y-135681845D01*
X236003475Y-135686647D01*
X235972314Y-135707469D01*
X235965318Y-135711819D01*
X235917006Y-135739712D01*
X235800334Y-135807072D01*
X235793063Y-135810959D01*
X235759475Y-135827523D01*
X235751964Y-135830926D01*
X235575938Y-135903839D01*
X235568226Y-135906742D01*
X235532752Y-135918784D01*
X235524904Y-135921164D01*
X235345088Y-135969345D01*
X235340838Y-135970484D01*
X235332807Y-135972356D01*
X235296094Y-135979658D01*
X235287962Y-135981001D01*
X235197615Y-135992896D01*
X235099060Y-136005871D01*
X235090876Y-136006677D01*
X235041246Y-136009930D01*
X235034575Y-136010367D01*
X235028440Y-136010619D01*
X234992039Y-136011227D01*
X234911014Y-136012580D01*
X234906525Y-136012655D01*
X234890903Y-136015159D01*
X234889325Y-136015412D01*
X234869383Y-136017000D01*
X87394888Y-136017000D01*
X87373427Y-136015159D01*
X87364052Y-136013538D01*
X87364046Y-136013537D01*
X87359253Y-136012709D01*
X87314201Y-136011957D01*
X87234039Y-136010617D01*
X87227905Y-136010365D01*
X87185212Y-136007568D01*
X87171630Y-136006677D01*
X87163437Y-136005871D01*
X87116796Y-135999730D01*
X86974538Y-135981001D01*
X86966408Y-135979659D01*
X86961284Y-135978640D01*
X86929656Y-135972349D01*
X86921656Y-135970483D01*
X86737614Y-135921168D01*
X86729724Y-135918775D01*
X86694282Y-135906744D01*
X86686566Y-135903840D01*
X86510535Y-135830926D01*
X86510523Y-135830921D01*
X86503038Y-135827530D01*
X86469425Y-135810953D01*
X86462168Y-135807074D01*
X86297195Y-135711827D01*
X86290193Y-135707473D01*
X86259026Y-135686648D01*
X86252324Y-135681845D01*
X86205664Y-135646041D01*
X86101178Y-135565866D01*
X86094842Y-135560666D01*
X86066661Y-135535952D01*
X86060647Y-135530318D01*
X85925927Y-135395598D01*
X85920290Y-135389580D01*
X85895600Y-135361426D01*
X85890370Y-135355053D01*
X85774405Y-135203925D01*
X85769603Y-135197225D01*
X85748781Y-135166064D01*
X85744426Y-135159060D01*
X85649178Y-134994084D01*
X85645291Y-134986813D01*
X85628727Y-134953225D01*
X85625324Y-134945714D01*
X85552411Y-134769688D01*
X85549508Y-134761975D01*
X85549506Y-134761968D01*
X85537466Y-134726502D01*
X85535086Y-134718654D01*
X85485766Y-134534588D01*
X85483894Y-134526557D01*
X85476592Y-134489844D01*
X85475249Y-134481712D01*
X85452551Y-134309312D01*
X85450379Y-134292810D01*
X85449572Y-134284615D01*
X85445883Y-134228325D01*
X85445631Y-134222189D01*
X85443670Y-134104764D01*
X85443595Y-134100275D01*
X85440838Y-134083075D01*
X85439250Y-134063133D01*
X85439250Y-127000000D01*
X102367750Y-127000000D01*
X102387615Y-127252407D01*
X102446720Y-127498599D01*
X102543611Y-127732514D01*
X102675901Y-127948392D01*
X102679112Y-127952152D01*
X102679116Y-127952157D01*
X102824428Y-128122295D01*
X102840333Y-128140917D01*
X102844095Y-128144130D01*
X103029093Y-128302134D01*
X103029098Y-128302138D01*
X103032858Y-128305349D01*
X103248736Y-128437639D01*
X103253306Y-128439532D01*
X103253310Y-128439534D01*
X103478078Y-128532636D01*
X103482651Y-128534530D01*
X103567356Y-128554866D01*
X103724030Y-128592480D01*
X103724036Y-128592481D01*
X103728843Y-128593635D01*
X103981250Y-128613500D01*
X104233657Y-128593635D01*
X104238464Y-128592481D01*
X104238470Y-128592480D01*
X104395144Y-128554866D01*
X104479849Y-128534530D01*
X104484422Y-128532636D01*
X104709190Y-128439534D01*
X104709194Y-128439532D01*
X104713764Y-128437639D01*
X104929642Y-128305349D01*
X104933402Y-128302138D01*
X104933407Y-128302134D01*
X105118405Y-128144130D01*
X105122167Y-128140917D01*
X105138072Y-128122295D01*
X105283384Y-127952157D01*
X105283388Y-127952152D01*
X105286599Y-127948392D01*
X105418889Y-127732514D01*
X105515780Y-127498599D01*
X105574885Y-127252407D01*
X105594750Y-127000000D01*
X216667750Y-127000000D01*
X216687615Y-127252407D01*
X216746720Y-127498599D01*
X216843611Y-127732514D01*
X216975901Y-127948392D01*
X216979112Y-127952152D01*
X216979116Y-127952157D01*
X217124428Y-128122295D01*
X217140333Y-128140917D01*
X217144095Y-128144130D01*
X217329093Y-128302134D01*
X217329098Y-128302138D01*
X217332858Y-128305349D01*
X217548736Y-128437639D01*
X217553306Y-128439532D01*
X217553310Y-128439534D01*
X217778078Y-128532636D01*
X217782651Y-128534530D01*
X217867356Y-128554866D01*
X218024030Y-128592480D01*
X218024036Y-128592481D01*
X218028843Y-128593635D01*
X218281250Y-128613500D01*
X218533657Y-128593635D01*
X218538464Y-128592481D01*
X218538470Y-128592480D01*
X218695144Y-128554866D01*
X218779849Y-128534530D01*
X218784422Y-128532636D01*
X219009190Y-128439534D01*
X219009194Y-128439532D01*
X219013764Y-128437639D01*
X219229642Y-128305349D01*
X219233402Y-128302138D01*
X219233407Y-128302134D01*
X219418405Y-128144130D01*
X219422167Y-128140917D01*
X219438072Y-128122295D01*
X219583384Y-127952157D01*
X219583388Y-127952152D01*
X219586599Y-127948392D01*
X219718889Y-127732514D01*
X219815780Y-127498599D01*
X219874885Y-127252407D01*
X219894750Y-127000000D01*
X219874885Y-126747593D01*
X219815780Y-126501401D01*
X219718889Y-126267486D01*
X219586599Y-126051608D01*
X219583388Y-126047848D01*
X219583384Y-126047843D01*
X219425380Y-125862845D01*
X219422167Y-125859083D01*
X219403545Y-125843178D01*
X219233407Y-125697866D01*
X219233402Y-125697862D01*
X219229642Y-125694651D01*
X219013764Y-125562361D01*
X219009194Y-125560468D01*
X219009190Y-125560466D01*
X218784422Y-125467364D01*
X218784420Y-125467363D01*
X218779849Y-125465470D01*
X218695144Y-125445134D01*
X218538470Y-125407520D01*
X218538464Y-125407519D01*
X218533657Y-125406365D01*
X218281250Y-125386500D01*
X218028843Y-125406365D01*
X218024036Y-125407519D01*
X218024030Y-125407520D01*
X217867356Y-125445134D01*
X217782651Y-125465470D01*
X217778080Y-125467363D01*
X217778078Y-125467364D01*
X217553310Y-125560466D01*
X217553306Y-125560468D01*
X217548736Y-125562361D01*
X217332858Y-125694651D01*
X217329098Y-125697862D01*
X217329093Y-125697866D01*
X217158955Y-125843178D01*
X217140333Y-125859083D01*
X217137120Y-125862845D01*
X216979116Y-126047843D01*
X216979112Y-126047848D01*
X216975901Y-126051608D01*
X216843611Y-126267486D01*
X216746720Y-126501401D01*
X216687615Y-126747593D01*
X216667750Y-127000000D01*
X105594750Y-127000000D01*
X105574885Y-126747593D01*
X105515780Y-126501401D01*
X105418889Y-126267486D01*
X105286599Y-126051608D01*
X105283388Y-126047848D01*
X105283384Y-126047843D01*
X105125380Y-125862845D01*
X105122167Y-125859083D01*
X105103545Y-125843178D01*
X104933407Y-125697866D01*
X104933402Y-125697862D01*
X104929642Y-125694651D01*
X104713764Y-125562361D01*
X104709194Y-125560468D01*
X104709190Y-125560466D01*
X104484422Y-125467364D01*
X104484420Y-125467363D01*
X104479849Y-125465470D01*
X104395144Y-125445134D01*
X104238470Y-125407520D01*
X104238464Y-125407519D01*
X104233657Y-125406365D01*
X103981250Y-125386500D01*
X103728843Y-125406365D01*
X103724036Y-125407519D01*
X103724030Y-125407520D01*
X103567356Y-125445134D01*
X103482651Y-125465470D01*
X103478080Y-125467363D01*
X103478078Y-125467364D01*
X103253310Y-125560466D01*
X103253306Y-125560468D01*
X103248736Y-125562361D01*
X103032858Y-125694651D01*
X103029098Y-125697862D01*
X103029093Y-125697866D01*
X102858955Y-125843178D01*
X102840333Y-125859083D01*
X102837120Y-125862845D01*
X102679116Y-126047843D01*
X102679112Y-126047848D01*
X102675901Y-126051608D01*
X102543611Y-126267486D01*
X102446720Y-126501401D01*
X102387615Y-126747593D01*
X102367750Y-127000000D01*
X85439250Y-127000000D01*
X85439250Y-100884707D01*
X85440444Y-100867404D01*
X85444816Y-100835869D01*
X85444687Y-100828110D01*
X85441693Y-100648897D01*
X85441710Y-100643852D01*
X85442242Y-100621250D01*
X85441606Y-100616417D01*
X85441594Y-100616202D01*
X85441083Y-100611551D01*
X85441066Y-100611354D01*
X85440991Y-100606870D01*
X85440282Y-100602446D01*
X85440281Y-100602436D01*
X85437675Y-100586179D01*
X85437165Y-100582684D01*
X85396261Y-100271989D01*
X85395908Y-100269041D01*
X85393874Y-100250161D01*
X85393873Y-100250158D01*
X85393352Y-100245319D01*
X85392169Y-100240903D01*
X85392001Y-100239629D01*
X85388203Y-100226070D01*
X85387836Y-100224734D01*
X85384071Y-100210680D01*
X85302158Y-99904979D01*
X85301429Y-99902124D01*
X85296959Y-99883716D01*
X85296958Y-99883714D01*
X85295810Y-99878985D01*
X85294063Y-99874767D01*
X85293729Y-99873521D01*
X85288157Y-99860488D01*
X85287623Y-99859219D01*
X85160987Y-99553495D01*
X85159884Y-99550740D01*
X85153046Y-99533065D01*
X85153044Y-99533061D01*
X85151287Y-99528519D01*
X85149002Y-99524561D01*
X85148509Y-99523371D01*
X85141272Y-99511159D01*
X85140643Y-99510083D01*
X84975120Y-99223388D01*
X84973668Y-99220802D01*
X84964595Y-99204196D01*
X84962255Y-99199913D01*
X84959476Y-99196292D01*
X84958831Y-99195174D01*
X84950036Y-99183977D01*
X84949230Y-99182938D01*
X84762849Y-98940043D01*
X84747793Y-98920421D01*
X84746016Y-98918049D01*
X84734824Y-98902729D01*
X84734823Y-98902728D01*
X84731949Y-98898794D01*
X84728719Y-98895564D01*
X84727934Y-98894541D01*
X84717866Y-98884699D01*
X84716849Y-98883694D01*
X84482797Y-98649641D01*
X84480724Y-98647518D01*
X84467674Y-98633838D01*
X84467672Y-98633836D01*
X84464310Y-98630312D01*
X84460691Y-98627535D01*
X84459775Y-98626619D01*
X84448384Y-98618082D01*
X84447277Y-98617242D01*
X84234550Y-98454010D01*
X84184764Y-98415808D01*
X84182503Y-98414031D01*
X84163914Y-98399058D01*
X84159965Y-98396778D01*
X84158938Y-98395990D01*
X84146551Y-98389024D01*
X84145352Y-98388341D01*
X84132862Y-98381130D01*
X83858744Y-98222869D01*
X83856351Y-98221450D01*
X83835907Y-98208995D01*
X83831684Y-98207246D01*
X83830569Y-98206602D01*
X83817459Y-98201345D01*
X83816186Y-98200826D01*
X83766649Y-98180307D01*
X83510371Y-98074153D01*
X83507687Y-98073004D01*
X83485895Y-98063370D01*
X83481489Y-98062189D01*
X83480293Y-98061694D01*
X83479286Y-98061436D01*
X83479282Y-98061435D01*
X83466573Y-98058184D01*
X83465210Y-98057828D01*
X83145551Y-97972175D01*
X83142755Y-97971390D01*
X83119871Y-97964677D01*
X83115345Y-97964081D01*
X83114098Y-97963747D01*
X83113068Y-97963623D01*
X83113057Y-97963621D01*
X83100029Y-97962056D01*
X83098612Y-97961878D01*
X82860634Y-97930548D01*
X82779929Y-97919923D01*
X82774931Y-97919163D01*
X82752658Y-97915313D01*
X82747792Y-97915232D01*
X82747592Y-97915213D01*
X82742909Y-97915034D01*
X82742693Y-97915021D01*
X82738250Y-97914436D01*
X82725604Y-97914579D01*
X82717308Y-97914673D01*
X82713778Y-97914663D01*
X82610096Y-97912932D01*
X82523659Y-97911488D01*
X82508787Y-97913365D01*
X82487845Y-97916008D01*
X82472068Y-97917000D01*
X30244888Y-97917000D01*
X30223427Y-97915159D01*
X30214052Y-97913538D01*
X30214046Y-97913537D01*
X30209253Y-97912709D01*
X30164201Y-97911957D01*
X30084039Y-97910617D01*
X30077905Y-97910365D01*
X30035212Y-97907568D01*
X30021630Y-97906677D01*
X30013437Y-97905871D01*
X29966796Y-97899730D01*
X29824538Y-97881001D01*
X29816408Y-97879659D01*
X29811284Y-97878640D01*
X29779656Y-97872349D01*
X29771656Y-97870483D01*
X29587614Y-97821168D01*
X29579724Y-97818775D01*
X29544282Y-97806744D01*
X29536566Y-97803840D01*
X29360535Y-97730926D01*
X29360523Y-97730921D01*
X29353038Y-97727530D01*
X29319425Y-97710953D01*
X29312168Y-97707074D01*
X29147195Y-97611827D01*
X29140193Y-97607473D01*
X29109026Y-97586648D01*
X29102324Y-97581845D01*
X29055664Y-97546041D01*
X28951178Y-97465866D01*
X28944842Y-97460666D01*
X28916661Y-97435952D01*
X28910647Y-97430318D01*
X28775927Y-97295598D01*
X28770290Y-97289580D01*
X28745600Y-97261426D01*
X28740370Y-97255053D01*
X28624405Y-97103925D01*
X28619603Y-97097225D01*
X28598781Y-97066064D01*
X28594426Y-97059060D01*
X28499178Y-96894084D01*
X28495291Y-96886813D01*
X28478727Y-96853225D01*
X28475324Y-96845714D01*
X28402411Y-96669688D01*
X28399508Y-96661975D01*
X28399506Y-96661968D01*
X28387466Y-96626502D01*
X28385086Y-96618654D01*
X28335766Y-96434588D01*
X28333894Y-96426557D01*
X28326592Y-96389844D01*
X28325249Y-96381712D01*
X28302551Y-96209312D01*
X28300379Y-96192810D01*
X28299572Y-96184615D01*
X28295883Y-96128325D01*
X28295631Y-96122189D01*
X28293670Y-96004764D01*
X28293595Y-96000275D01*
X28290838Y-95983075D01*
X28289250Y-95963133D01*
X28289250Y-79375000D01*
X45217750Y-79375000D01*
X45237615Y-79627407D01*
X45296720Y-79873599D01*
X45393611Y-80107514D01*
X45525901Y-80323392D01*
X45529112Y-80327152D01*
X45529116Y-80327157D01*
X45674428Y-80497295D01*
X45690333Y-80515917D01*
X45694095Y-80519130D01*
X45879093Y-80677134D01*
X45879098Y-80677138D01*
X45882858Y-80680349D01*
X46098736Y-80812639D01*
X46103306Y-80814532D01*
X46103310Y-80814534D01*
X46328078Y-80907636D01*
X46332651Y-80909530D01*
X46417356Y-80929866D01*
X46574030Y-80967480D01*
X46574036Y-80967481D01*
X46578843Y-80968635D01*
X46831250Y-80988500D01*
X47083657Y-80968635D01*
X47088464Y-80967481D01*
X47088470Y-80967480D01*
X47245144Y-80929866D01*
X47329849Y-80909530D01*
X47334422Y-80907636D01*
X47559190Y-80814534D01*
X47559194Y-80814532D01*
X47563764Y-80812639D01*
X47779642Y-80680349D01*
X47783402Y-80677138D01*
X47783407Y-80677134D01*
X47968405Y-80519130D01*
X47972167Y-80515917D01*
X47988072Y-80497295D01*
X48133384Y-80327157D01*
X48133388Y-80327152D01*
X48136599Y-80323392D01*
X48268889Y-80107514D01*
X48365780Y-79873599D01*
X48424885Y-79627407D01*
X48444750Y-79375000D01*
X121417750Y-79375000D01*
X121437615Y-79627407D01*
X121496720Y-79873599D01*
X121593611Y-80107514D01*
X121725901Y-80323392D01*
X121729112Y-80327152D01*
X121729116Y-80327157D01*
X121874428Y-80497295D01*
X121890333Y-80515917D01*
X121894095Y-80519130D01*
X122079093Y-80677134D01*
X122079098Y-80677138D01*
X122082858Y-80680349D01*
X122298736Y-80812639D01*
X122303306Y-80814532D01*
X122303310Y-80814534D01*
X122528078Y-80907636D01*
X122532651Y-80909530D01*
X122617356Y-80929866D01*
X122774030Y-80967480D01*
X122774036Y-80967481D01*
X122778843Y-80968635D01*
X123031250Y-80988500D01*
X123283657Y-80968635D01*
X123288464Y-80967481D01*
X123288470Y-80967480D01*
X123445144Y-80929866D01*
X123529849Y-80909530D01*
X123534422Y-80907636D01*
X123759190Y-80814534D01*
X123759194Y-80814532D01*
X123763764Y-80812639D01*
X123979642Y-80680349D01*
X123983402Y-80677138D01*
X123983407Y-80677134D01*
X124168405Y-80519130D01*
X124172167Y-80515917D01*
X124188072Y-80497295D01*
X124333384Y-80327157D01*
X124333388Y-80327152D01*
X124336599Y-80323392D01*
X124468889Y-80107514D01*
X124565780Y-79873599D01*
X124624885Y-79627407D01*
X124644750Y-79375000D01*
X197617750Y-79375000D01*
X197637615Y-79627407D01*
X197696720Y-79873599D01*
X197793611Y-80107514D01*
X197925901Y-80323392D01*
X197929112Y-80327152D01*
X197929116Y-80327157D01*
X198074428Y-80497295D01*
X198090333Y-80515917D01*
X198094095Y-80519130D01*
X198279093Y-80677134D01*
X198279098Y-80677138D01*
X198282858Y-80680349D01*
X198498736Y-80812639D01*
X198503306Y-80814532D01*
X198503310Y-80814534D01*
X198728078Y-80907636D01*
X198732651Y-80909530D01*
X198817356Y-80929866D01*
X198974030Y-80967480D01*
X198974036Y-80967481D01*
X198978843Y-80968635D01*
X199231250Y-80988500D01*
X199483657Y-80968635D01*
X199488464Y-80967481D01*
X199488470Y-80967480D01*
X199645144Y-80929866D01*
X199729849Y-80909530D01*
X199734422Y-80907636D01*
X199959190Y-80814534D01*
X199959194Y-80814532D01*
X199963764Y-80812639D01*
X200179642Y-80680349D01*
X200183402Y-80677138D01*
X200183407Y-80677134D01*
X200368405Y-80519130D01*
X200372167Y-80515917D01*
X200388072Y-80497295D01*
X200533384Y-80327157D01*
X200533388Y-80327152D01*
X200536599Y-80323392D01*
X200668889Y-80107514D01*
X200765780Y-79873599D01*
X200824885Y-79627407D01*
X200844750Y-79375000D01*
X254767750Y-79375000D01*
X254787615Y-79627407D01*
X254846720Y-79873599D01*
X254943611Y-80107514D01*
X255075901Y-80323392D01*
X255079112Y-80327152D01*
X255079116Y-80327157D01*
X255224428Y-80497295D01*
X255240333Y-80515917D01*
X255244095Y-80519130D01*
X255429093Y-80677134D01*
X255429098Y-80677138D01*
X255432858Y-80680349D01*
X255648736Y-80812639D01*
X255653306Y-80814532D01*
X255653310Y-80814534D01*
X255878078Y-80907636D01*
X255882651Y-80909530D01*
X255967356Y-80929866D01*
X256124030Y-80967480D01*
X256124036Y-80967481D01*
X256128843Y-80968635D01*
X256381250Y-80988500D01*
X256633657Y-80968635D01*
X256638464Y-80967481D01*
X256638470Y-80967480D01*
X256795144Y-80929866D01*
X256879849Y-80909530D01*
X256884422Y-80907636D01*
X257109190Y-80814534D01*
X257109194Y-80814532D01*
X257113764Y-80812639D01*
X257329642Y-80680349D01*
X257333402Y-80677138D01*
X257333407Y-80677134D01*
X257518405Y-80519130D01*
X257522167Y-80515917D01*
X257538072Y-80497295D01*
X257683384Y-80327157D01*
X257683388Y-80327152D01*
X257686599Y-80323392D01*
X257818889Y-80107514D01*
X257915780Y-79873599D01*
X257974885Y-79627407D01*
X257994750Y-79375000D01*
X257974885Y-79122593D01*
X257915780Y-78876401D01*
X257818889Y-78642486D01*
X257686599Y-78426608D01*
X257683388Y-78422848D01*
X257683384Y-78422843D01*
X257525380Y-78237845D01*
X257522167Y-78234083D01*
X257503545Y-78218178D01*
X257333407Y-78072866D01*
X257333402Y-78072862D01*
X257329642Y-78069651D01*
X257113764Y-77937361D01*
X257109194Y-77935468D01*
X257109190Y-77935466D01*
X256884422Y-77842364D01*
X256884420Y-77842363D01*
X256879849Y-77840470D01*
X256795144Y-77820134D01*
X256638470Y-77782520D01*
X256638464Y-77782519D01*
X256633657Y-77781365D01*
X256381250Y-77761500D01*
X256128843Y-77781365D01*
X256124036Y-77782519D01*
X256124030Y-77782520D01*
X255967356Y-77820134D01*
X255882651Y-77840470D01*
X255878080Y-77842363D01*
X255878078Y-77842364D01*
X255653310Y-77935466D01*
X255653306Y-77935468D01*
X255648736Y-77937361D01*
X255432858Y-78069651D01*
X255429098Y-78072862D01*
X255429093Y-78072866D01*
X255258955Y-78218178D01*
X255240333Y-78234083D01*
X255237120Y-78237845D01*
X255079116Y-78422843D01*
X255079112Y-78422848D01*
X255075901Y-78426608D01*
X254943611Y-78642486D01*
X254846720Y-78876401D01*
X254787615Y-79122593D01*
X254767750Y-79375000D01*
X200844750Y-79375000D01*
X200824885Y-79122593D01*
X200765780Y-78876401D01*
X200668889Y-78642486D01*
X200536599Y-78426608D01*
X200533388Y-78422848D01*
X200533384Y-78422843D01*
X200375380Y-78237845D01*
X200372167Y-78234083D01*
X200353545Y-78218178D01*
X200183407Y-78072866D01*
X200183402Y-78072862D01*
X200179642Y-78069651D01*
X199963764Y-77937361D01*
X199959194Y-77935468D01*
X199959190Y-77935466D01*
X199734422Y-77842364D01*
X199734420Y-77842363D01*
X199729849Y-77840470D01*
X199645144Y-77820134D01*
X199488470Y-77782520D01*
X199488464Y-77782519D01*
X199483657Y-77781365D01*
X199231250Y-77761500D01*
X198978843Y-77781365D01*
X198974036Y-77782519D01*
X198974030Y-77782520D01*
X198817356Y-77820134D01*
X198732651Y-77840470D01*
X198728080Y-77842363D01*
X198728078Y-77842364D01*
X198503310Y-77935466D01*
X198503306Y-77935468D01*
X198498736Y-77937361D01*
X198282858Y-78069651D01*
X198279098Y-78072862D01*
X198279093Y-78072866D01*
X198108955Y-78218178D01*
X198090333Y-78234083D01*
X198087120Y-78237845D01*
X197929116Y-78422843D01*
X197929112Y-78422848D01*
X197925901Y-78426608D01*
X197793611Y-78642486D01*
X197696720Y-78876401D01*
X197637615Y-79122593D01*
X197617750Y-79375000D01*
X124644750Y-79375000D01*
X124624885Y-79122593D01*
X124565780Y-78876401D01*
X124468889Y-78642486D01*
X124336599Y-78426608D01*
X124333388Y-78422848D01*
X124333384Y-78422843D01*
X124175380Y-78237845D01*
X124172167Y-78234083D01*
X124153545Y-78218178D01*
X123983407Y-78072866D01*
X123983402Y-78072862D01*
X123979642Y-78069651D01*
X123763764Y-77937361D01*
X123759194Y-77935468D01*
X123759190Y-77935466D01*
X123534422Y-77842364D01*
X123534420Y-77842363D01*
X123529849Y-77840470D01*
X123445144Y-77820134D01*
X123288470Y-77782520D01*
X123288464Y-77782519D01*
X123283657Y-77781365D01*
X123031250Y-77761500D01*
X122778843Y-77781365D01*
X122774036Y-77782519D01*
X122774030Y-77782520D01*
X122617356Y-77820134D01*
X122532651Y-77840470D01*
X122528080Y-77842363D01*
X122528078Y-77842364D01*
X122303310Y-77935466D01*
X122303306Y-77935468D01*
X122298736Y-77937361D01*
X122082858Y-78069651D01*
X122079098Y-78072862D01*
X122079093Y-78072866D01*
X121908955Y-78218178D01*
X121890333Y-78234083D01*
X121887120Y-78237845D01*
X121729116Y-78422843D01*
X121729112Y-78422848D01*
X121725901Y-78426608D01*
X121593611Y-78642486D01*
X121496720Y-78876401D01*
X121437615Y-79122593D01*
X121417750Y-79375000D01*
X48444750Y-79375000D01*
X48424885Y-79122593D01*
X48365780Y-78876401D01*
X48268889Y-78642486D01*
X48136599Y-78426608D01*
X48133388Y-78422848D01*
X48133384Y-78422843D01*
X47975380Y-78237845D01*
X47972167Y-78234083D01*
X47953545Y-78218178D01*
X47783407Y-78072866D01*
X47783402Y-78072862D01*
X47779642Y-78069651D01*
X47563764Y-77937361D01*
X47559194Y-77935468D01*
X47559190Y-77935466D01*
X47334422Y-77842364D01*
X47334420Y-77842363D01*
X47329849Y-77840470D01*
X47245144Y-77820134D01*
X47088470Y-77782520D01*
X47088464Y-77782519D01*
X47083657Y-77781365D01*
X46831250Y-77761500D01*
X46578843Y-77781365D01*
X46574036Y-77782519D01*
X46574030Y-77782520D01*
X46417356Y-77820134D01*
X46332651Y-77840470D01*
X46328080Y-77842363D01*
X46328078Y-77842364D01*
X46103310Y-77935466D01*
X46103306Y-77935468D01*
X46098736Y-77937361D01*
X45882858Y-78069651D01*
X45879098Y-78072862D01*
X45879093Y-78072866D01*
X45708955Y-78218178D01*
X45690333Y-78234083D01*
X45687120Y-78237845D01*
X45529116Y-78422843D01*
X45529112Y-78422848D01*
X45525901Y-78426608D01*
X45393611Y-78642486D01*
X45296720Y-78876401D01*
X45237615Y-79122593D01*
X45217750Y-79375000D01*
X28289250Y-79375000D01*
X28289250Y-62788638D01*
X28291091Y-62767177D01*
X28292712Y-62757802D01*
X28292713Y-62757796D01*
X28293541Y-62753003D01*
X28294293Y-62707951D01*
X28295633Y-62627789D01*
X28295885Y-62621655D01*
X28299572Y-62565387D01*
X28300380Y-62557179D01*
X28325248Y-62368295D01*
X28326591Y-62360163D01*
X28333897Y-62323429D01*
X28335769Y-62315397D01*
X28382524Y-62140905D01*
X28385081Y-62131363D01*
X28387467Y-62123498D01*
X28399507Y-62088028D01*
X28402411Y-62080313D01*
X28475326Y-61904281D01*
X28478729Y-61896770D01*
X28478733Y-61896763D01*
X28495290Y-61863187D01*
X28499176Y-61855919D01*
X28594429Y-61690936D01*
X28598782Y-61683935D01*
X28619594Y-61652787D01*
X28624377Y-61646111D01*
X28740399Y-61494909D01*
X28745591Y-61488583D01*
X28770298Y-61460411D01*
X28775932Y-61454396D01*
X28910639Y-61319688D01*
X28916656Y-61314053D01*
X28944820Y-61289353D01*
X28951178Y-61284134D01*
X29102340Y-61168143D01*
X29109036Y-61163345D01*
X29140187Y-61142530D01*
X29147189Y-61138177D01*
X29312178Y-61042921D01*
X29319448Y-61039035D01*
X29353031Y-61022474D01*
X29360525Y-61019078D01*
X29536563Y-60946160D01*
X29544271Y-60943259D01*
X29579718Y-60931227D01*
X29587607Y-60928833D01*
X29771659Y-60879517D01*
X29779688Y-60877645D01*
X29797536Y-60874095D01*
X29816412Y-60870340D01*
X29824534Y-60868999D01*
X30013440Y-60844129D01*
X30021624Y-60843323D01*
X30077894Y-60839635D01*
X30077925Y-60839633D01*
X30084060Y-60839381D01*
X30126669Y-60838669D01*
X30201487Y-60837420D01*
X30205976Y-60837345D01*
X30223176Y-60834588D01*
X30243118Y-60833000D01*
X272967612Y-60833000D01*
X272989073Y-60834841D01*
G37*
G04 #@! TD.AperFunction*
M02*
