<svg width="3352" height="1033" viewBox="0 0 3352 1033" fill="none" xmlns="http://www.w3.org/2000/svg">
<path d="M-1297.58 49.8561V-932.576H894.893H3087.37V49.8561V1032.29H894.893H-1297.58V49.8561Z" fill="#B8A337"/>
<path d="M-1297.56 933.388V834.489L-1283.8 825.982L-1270.03 817.475L-1272.69 793.974L-1275.35 770.473L-1265.26 773.005C-1257.9 774.854 -1254.1 773.693 -1251.2 768.706C-1247.41 762.21 -1247.21 762.214 -1247.1 768.779C-1246.96 776.958 -1232.34 783.273 -1213.53 783.273C-1196.47 783.273 -1194.28 777.413 -1204.13 758.095C-1208.44 749.639 -1211.96 739.65 -1211.96 735.898C-1211.96 727.52 -1220.53 722.761 -1242 719.204C-1251.04 717.708 -1262.69 713.127 -1267.91 709.025C-1273.12 704.922 -1281.93 701.566 -1287.48 701.566C-1296.27 701.566 -1297.55 699.95 -1297.5 688.921C-1297.46 679.325 -1296.53 677.683 -1293.67 682.112C-1290.96 686.307 -1289.88 686.525 -1289.84 682.885C-1289.76 676.099 -1266.05 666.548 -1249.28 666.548C-1241.85 666.548 -1234.83 665.032 -1233.69 663.179C-1232.54 661.326 -1227.19 660.654 -1221.78 661.687C-1210.87 663.773 -1208.85 658.412 -1217.76 651.02C-1220.94 648.376 -1222.59 644.659 -1221.42 642.762C-1217.32 636.138 -1204.78 639.387 -1197.7 648.905C-1187.64 662.436 -1120.61 686.525 -1086.75 688.779C-1045.87 691.501 -1031.22 681.759 -1023.68 646.842C-1022.42 641.007 -1015.42 632.896 -1006.83 627.31C-995.336 619.837 -992.133 615.267 -992.133 606.335V594.914L-960.662 594.386C-943.353 594.096 -927.163 592.605 -924.685 591.073C-922.206 589.541 -916.377 579.452 -911.731 568.652C-903.5 549.518 -902.938 549.073 -889.708 551.22C-880.478 552.718 -872.475 557.86 -864.707 567.284C-855.489 578.467 -850.884 580.983 -840.869 580.308C-828.005 579.442 -812.386 588.574 -791.525 609.158C-785.344 615.257 -776.371 619.858 -770.655 619.858C-765.141 619.858 -759.316 620.13 -757.711 620.464C-756.106 620.796 -748.615 609.854 -741.063 596.146C-728.829 573.937 -726.075 571.258 -715.773 571.549C-709.415 571.728 -700.711 573.173 -696.431 574.761C-689.741 577.242 -689.571 577.051 -695.221 573.402C-701.213 569.53 -700.948 568.313 -692.208 559.572C-684.921 552.285 -683.23 547.569 -685.155 539.899C-689.018 524.509 -666.986 503.134 -647.262 503.134C-639.248 503.134 -631.609 504.884 -630.287 507.024C-628.964 509.165 -624.685 510.915 -620.777 510.915C-616.87 510.915 -610.845 515.231 -607.389 520.505C-599.565 532.447 -599.319 536.696 -606.811 530.478C-616.278 522.621 -621.858 527.681 -613.876 536.885C-605.388 546.672 -587.127 545.296 -577.761 534.164C-574.551 530.349 -564.783 526.081 -556.054 524.678C-540.459 522.173 -539.869 522.51 -522.098 544.096C-507.966 561.263 -503.459 570.243 -501.477 585.18C-499.124 602.924 -498.159 604.295 -488.035 604.295C-480.451 604.295 -474.691 607.719 -469.126 615.535C-464.724 621.717 -456.288 627.928 -450.379 629.337C-444.471 630.746 -436.679 632.777 -433.064 633.848C-429.014 635.048 -424.825 632.68 -422.147 627.675C-418.54 620.936 -419.447 617.598 -427.477 608.055C-444.227 588.148 -444.33 573.467 -427.721 573.228C-422.605 573.154 -379.329 618.176 -379.329 623.573C-379.329 629.89 -360.377 632.9 -353.988 627.598C-350.806 624.957 -348.202 619.071 -348.202 614.518C-348.202 605.024 -325.095 584.841 -314.226 584.841C-310.29 584.841 -293.125 598.03 -276.083 614.149C-259.04 630.269 -239.501 645.898 -232.663 648.88C-225.825 651.861 -217.962 657.932 -215.191 662.37C-208.918 672.414 -193.823 672.725 -181.262 663.068C-169.819 654.271 -172.189 645.988 -188.174 638.912C-194.658 636.042 -200.943 629.7 -202.177 624.784C-203.992 617.553 -206.235 616.319 -214.02 618.273C-227.359 621.621 -229.975 612.301 -220.206 596.236C-212.343 583.306 -210.274 584.226 -207.388 601.932C-205.239 615.114 -194.769 618.167 -185.048 608.446C-180.268 603.666 -177.51 598.603 -178.919 597.194C-180.328 595.785 -183.208 597.719 -185.319 601.491C-187.43 605.263 -190.987 607.218 -193.224 605.836C-195.881 604.194 -195.496 602.213 -192.114 600.123C-188.046 597.609 -188.815 594.925 -195.7 587.596C-201.189 581.752 -203.518 575.809 -201.935 571.683C-200.447 567.805 -202.25 561.956 -206.318 557.46C-215.634 547.167 -219.805 547.851 -219.805 559.672C-219.805 572.057 -228.229 575.458 -243.369 569.187C-261.188 561.806 -267.17 545.933 -252.132 545.933C-249.225 545.933 -236.341 535.196 -223.5 522.073C-205.972 504.159 -200.75 496.334 -202.546 490.674C-204.628 484.116 -203.277 483.297 -192.179 484.38C-180.773 485.493 -179.258 487.071 -177.915 499.243C-177.088 506.732 -174.795 513.444 -172.818 514.157C-166.362 516.488 -169.015 522.835 -181.032 533.81C-188.921 541.016 -192.01 546.753 -190.342 551.1C-187.133 559.462 -182.276 559.378 -177.519 550.878C-173.95 544.501 -173.365 544.501 -166.319 550.878C-162.23 554.578 -156.952 557.606 -154.59 557.606C-147.589 557.606 -145.151 543.356 -149.473 527.703C-153.922 511.592 -152.61 509.154 -137.601 505.627C-130.262 503.903 -123.273 506.011 -112.829 513.098C-100.064 521.761 -97.5012 522.29 -91.9261 517.419C-88.4314 514.366 -76.8176 510.608 -66.1179 509.067C-55.4181 507.527 -44.9617 505.219 -42.8814 503.937C-40.8011 502.655 -32.9214 502.053 -25.3709 502.597C-13.249 503.472 -9.19348 501.046 9.28912 481.855C29.2436 461.137 29.913 459.782 23.6245 452.833C19.6963 448.493 18.5816 444.584 20.8689 443.17C22.9814 441.864 47.1698 440.067 74.621 439.176C102.072 438.285 125.823 437.429 127.402 437.273C132.437 436.776 149.823 406.325 149.823 398.004C149.823 389.707 163.013 361.034 168.248 357.949C169.884 356.986 176.912 354.977 183.867 353.486C195.047 351.088 196.512 351.741 196.512 359.12C196.512 369.092 202.485 381.405 212.853 392.805C219.434 400.042 219.756 402.264 215.284 409.578C210.779 416.949 211.095 418.725 217.8 423.695C222.019 426.822 227.852 428.466 230.764 427.348C233.675 426.231 239.294 425.317 243.25 425.317C247.747 425.317 250.909 422.036 251.686 416.563C252.37 411.748 255.556 407.809 258.765 407.809C266.996 407.809 268.664 430.389 260.91 436.825C257.59 439.58 254.875 446.69 254.875 452.626C254.875 471.313 291.445 496.905 299.507 483.861C300.768 481.82 302.754 471.311 303.919 460.506C305.605 444.882 304.784 440.379 299.911 438.509C296.54 437.215 293.783 432.182 293.783 427.323C293.783 422.464 291.157 416.309 287.947 413.645C281.364 408.181 280.099 392.003 285.97 388.373C288.093 387.062 292.908 387.717 296.67 389.831C301.831 392.73 305.607 391.71 312.049 385.675C322.308 376.064 335.368 378.158 350.056 391.771C355.508 396.824 370.211 403.832 382.729 407.344C395.247 410.857 408.299 416.836 411.734 420.632C421.479 431.4 440.489 468.87 445.332 486.854C449.712 503.12 449.731 503.133 468.548 503.133C483.131 503.133 492.43 506.173 509.753 516.604C522.057 524.014 540.655 532.91 551.082 536.373C570.663 542.876 573.266 546.637 575.036 570.977C575.782 581.231 574.339 582.776 560.979 586.025C549.309 588.862 542.792 588.157 530.821 582.759C519.759 577.771 513.258 576.896 507.229 579.587C501.406 582.185 490.598 581.214 471.243 576.355C434.607 567.158 424.889 567.507 411.779 578.493C373.925 610.215 364.938 612.347 317.376 600.887C294.101 595.279 285.54 591.048 273.604 579.255C265.443 571.191 258.765 562 258.765 558.829C258.765 555.659 256.775 553.729 254.343 554.539C251.91 555.35 241.198 546.791 230.537 535.519C215.595 519.72 209.688 515.81 204.751 518.452C200.602 520.672 193.576 519.709 184.785 515.715C166.453 507.384 141.342 506.719 135.623 514.413C131.731 519.649 129.838 519.727 121.033 515.015C113.522 510.995 108.658 510.651 102.16 513.679C97.3452 515.923 84.6514 520.284 73.9516 523.37C56.5624 528.386 54.6097 530.045 55.5545 539C57.0702 553.368 28.9767 594.475 14.0975 599.662C7.74508 601.877 -0.399062 608.186 -4.00068 613.683C-7.88138 619.606 -16.7824 625.355 -25.8502 627.797C-54.5368 635.522 -72.8381 650.068 -90.9219 679.518C-100.284 694.764 -107.944 711.215 -107.944 716.074C-107.944 721.571 -110.333 724.97 -114.267 725.068C-117.744 725.156 -126.413 730.209 -133.531 736.299C-141.275 742.924 -149.345 746.62 -153.625 745.501C-158.193 744.307 -162.352 746.574 -165.138 751.779C-167.536 756.261 -171.952 759.927 -174.952 759.927C-177.951 759.927 -192.334 768.127 -206.914 778.149L-233.423 796.371L-320.832 796.049L-408.241 795.727L-419.044 782.69C-442.769 754.057 -440.136 755.492 -464.128 758.114L-486.326 760.539L-507.357 739.072C-528.142 717.856 -528.312 717.49 -521.948 707.776C-518.406 702.37 -515.508 693.808 -515.508 688.75C-515.508 679.195 -533.373 649.366 -545.869 638.058C-560.89 624.464 -635.644 628.273 -654.077 643.571C-656.929 645.938 -660.294 654.264 -661.555 662.074C-662.815 669.884 -667.417 683.825 -671.78 693.055C-678.939 708.199 -680.339 709.278 -686.126 704.12C-691.641 699.205 -722.274 695.717 -745.066 697.407C-824.067 703.268 -829.353 704.077 -844.435 712.624C-865.119 724.344 -883.328 752.223 -889.307 781.326C-891.946 794.165 -896.236 806.448 -898.841 808.621C-907.481 815.825 -935.716 862.176 -935.716 869.155C-935.716 872.928 -942.282 880.05 -950.307 884.981C-958.331 889.912 -967.523 897.013 -970.733 900.762C-975.427 906.244 -985.712 908.077 -1023.26 910.126C-1078.95 913.164 -1095.24 918.396 -1095.24 933.243C-1095.24 949.515 -1083.41 987.054 -1076.6 992.402C-1073 995.233 -1058.93 997.291 -1042.94 997.325C-1011.01 997.399 -1001.58 1001.31 -1008.19 1011.75C-1012.13 1017.96 -1018.52 1018.55 -1071.2 1017.54C-1126.81 1016.48 -1130.04 1016.83 -1134.07 1024.35C-1138.13 1031.94 -1141.8 1032.28 -1217.94 1032.28H-1297.56L-1297.56 933.388ZM-1180.84 876.664C-1180.84 874.531 -1187.08 865.875 -1194.71 857.43C-1208.18 842.52 -1217.36 840.437 -1224.25 850.726C-1227.67 855.832 -1223.92 864.959 -1218.36 865.067C-1215.91 865.112 -1209.53 868.578 -1204.18 872.763C-1193.79 880.893 -1180.84 883.058 -1180.84 876.664V876.664ZM-1220.64 819.02C-1219.79 816.479 -1221.87 814.4 -1225.26 814.4C-1228.65 814.4 -1231.42 817.172 -1231.42 820.561C-1231.42 827.432 -1223.04 826.235 -1220.64 819.02V819.02ZM-1103.75 772.396C-1095.53 763.711 -1092.99 763.151 -1074.56 765.968C-1045.42 770.423 -1028.08 770.259 -1026.46 765.512C-1025.68 763.233 -1031.81 755.927 -1040.08 749.278C-1054.81 737.437 -1055.66 737.256 -1081.52 740.463C-1098.68 742.59 -1111.07 742.305 -1116.9 739.65C-1121.83 737.401 -1128.61 736.612 -1131.95 737.896C-1139.79 740.903 -1139.9 760.602 -1132.17 775.552C-1125.46 788.523 -1118.25 787.722 -1103.75 772.397L-1103.75 772.396ZM-923.089 686.976C-914.63 677.459 -903.957 650.464 -906.27 644.437C-908.462 638.726 -941.935 641.517 -950.307 648.109C-957.965 654.14 -956.189 677.202 -947.388 686.003C-937.812 695.58 -930.979 695.853 -923.089 686.975V686.976ZM-958.413 629.445C-960.533 616.966 -966.217 613.676 -973.345 620.803C-978.751 626.21 -978.962 628.251 -974.648 633.449C-967.68 641.844 -956.765 639.152 -958.413 629.445V629.445ZM-650.059 598.044C-642.224 595.037 -642.038 581.423 -649.79 578.448C-653.027 577.205 -658.113 578.211 -661.091 580.683C-664.158 583.229 -670.883 584.078 -676.604 582.642C-683.896 580.812 -686.704 581.63 -686.704 585.587C-686.704 598.083 -667.327 604.67 -650.059 598.044H-650.059ZM-229.532 561.497C-230.855 559.357 -233.688 557.606 -235.828 557.606C-237.968 557.606 -238.637 559.357 -237.314 561.497C-235.991 563.637 -233.159 565.388 -231.019 565.388C-228.879 565.388 -228.21 563.637 -229.532 561.497ZM296.134 550.878C292.179 546.923 288.915 552.878 292.16 558.128C294.612 562.095 295.528 562.098 296.846 558.143C297.747 555.44 297.427 552.17 296.134 550.877V550.878ZM190.138 466.172C187.77 460.001 180.949 458.076 180.949 463.578C180.949 467.693 185.202 472.008 189.257 472.008C190.973 472.008 191.37 469.382 190.138 466.172V466.172ZM347.527 428.236C348.479 423.241 346.268 421.427 339.229 421.427C329.924 421.427 322.886 429.779 327.936 434.829C332.681 439.574 346.236 435.013 347.527 428.236V428.236ZM-903.145 1029.55C-898.574 1024.97 -881.245 1023.96 -881.245 1028.26C-881.245 1030.48 -886.789 1032.29 -893.566 1032.29C-900.342 1032.29 -904.653 1031.05 -903.145 1029.55V1029.55ZM-870.979 1026.45C-872.211 1023.24 -872.347 1018.34 -871.283 1015.57C-870.143 1012.6 -873.797 1008.9 -880.159 1006.59L-890.972 1002.66L-877.354 995.656C-869.864 991.805 -857.608 982.12 -850.118 974.134C-840.222 963.583 -832.063 958.913 -820.265 957.045C-811.336 955.631 -799.028 950.265 -792.914 945.12C-785.317 938.728 -778.663 936.366 -771.896 937.66C-765.027 938.973 -758.386 936.517 -750.214 929.64C-743.735 924.189 -731.404 918.604 -722.811 917.23C-708.248 914.901 -706.47 915.671 -696.636 928.565C-685.034 943.775 -673.023 948.669 -638.428 952.281L-615.443 954.682L-596.668 935.203C-578.991 916.864 -576.808 915.758 -559.345 916.305C-540.374 916.899 -523.289 927.007 -523.289 937.639C-523.289 940.476 -521.572 942.797 -519.473 942.797C-517.373 942.797 -514.474 947.612 -513.029 953.497C-511.584 959.382 -504.285 977.328 -496.809 993.378C-489.333 1009.43 -482.758 1024.75 -482.198 1027.42C-481.393 1031.26 -521.985 1032.29 -674.959 1032.29C-843.619 1032.29 -869.03 1031.53 -870.979 1026.45H-870.979ZM-432.831 1023.53C-428.599 1017.16 -421.379 1013.96 -406.253 1011.77C-394.194 1010.03 -381.989 1005.49 -377.146 1000.94C-370.361 994.562 -365.783 993.585 -352.582 995.696C-332.307 998.938 -330.052 1002.48 -340.115 1015.27C-344.505 1020.85 -347.141 1026.96 -345.974 1028.85C-344.792 1030.76 -364.849 1032.29 -391.246 1032.29H-438.64L-432.831 1023.53ZM-328.951 1024.88C-322.033 1011.96 -294.526 993.013 -279.271 990.669C-260.688 987.813 -254.823 983.192 -254.823 971.405C-254.823 956.287 -237.173 951.586 -219.034 961.873C-202.414 971.298 -185.93 972.342 -174.954 964.664C-170.733 961.711 -163.778 958.63 -159.498 957.817C-153.702 956.716 -151.219 952.387 -149.771 940.851C-147.499 922.768 -139.92 919.414 -126.282 930.458C-117.404 937.647 -117.316 938.245 -123.704 947.993C-127.341 953.544 -130.316 963.47 -130.316 970.051C-130.316 984.944 -118.069 1009.27 -107.295 1015.78C-102.837 1018.48 -99.1899 1023.43 -99.1899 1026.8C-99.1899 1031.91 -103.526 1032.68 -125.453 1031.44C-139.898 1030.62 -155.218 1028.56 -159.498 1026.86C-165.662 1024.41 -166.066 1024.64 -161.443 1027.97C-153.166 1033.92 -182.464 1033.8 -193.612 1027.84C-199.849 1024.5 -202.295 1024.5 -203.408 1027.84C-204.44 1030.93 -224.334 1032.28 -268.902 1032.28C-330.614 1032.28 -332.771 1032.02 -328.951 1024.88V1024.88ZM70.3271 1026.41C76.8935 1023.53 84.549 1018.42 87.3395 1015.05C94.1174 1006.89 104.217 1007.35 122.478 1016.67C148.74 1030.06 145.51 1032.31 100.444 1031.97C61.7257 1031.68 59.3357 1031.23 70.3271 1026.41ZM283.185 1029.91C286.86 1026.24 332.121 1024.32 334.241 1027.75C335.283 1029.44 323.692 1031.14 308.484 1031.54C293.276 1031.94 281.891 1031.21 283.185 1029.91ZM354.285 1028.79C356.318 1026.87 368.682 1024.1 381.76 1022.63C401.49 1020.43 405.941 1021.02 407.901 1026.13C409.929 1031.41 406.038 1032.29 380.426 1032.29C362.627 1032.29 352.08 1030.88 354.285 1028.79ZM499.996 1028.4C507.609 1023.48 515.56 1023.48 515.56 1028.4C515.56 1030.54 510.745 1032.26 504.86 1032.23C496.522 1032.18 495.448 1031.33 499.996 1028.4ZM619.268 1027.88C615.32 1025.58 603.629 1024.61 593.289 1025.72L574.489 1027.75L564.435 1002.63L554.381 977.516L565.124 968.247C572.917 961.523 578.805 959.561 586.567 961.101C592.452 962.268 597.267 961.643 597.267 959.713C597.267 952.202 584.781 938.906 577.729 938.906C559.354 938.906 561.657 911.792 582.136 887.034C594.437 872.163 594.524 872.131 616.582 874.692C637.164 877.08 640.539 876.246 665.268 862.653C683.903 852.41 693.076 844.771 695.98 837.078C699.101 828.81 703.507 825.488 713.865 823.593C727.055 821.181 760.681 800.473 760.681 794.763C760.681 786.024 746.399 781.675 721.092 782.708C692.668 783.868 682.865 779.997 682.865 767.611C682.865 763.801 676.445 755.533 668.598 749.239C658.469 741.113 655.072 735.866 656.883 731.146C658.963 725.726 663.935 724.646 683.795 725.3C697.193 725.741 711.971 724.787 716.634 723.18C724.113 720.601 725.261 721.787 726.361 733.237L727.609 746.217L735.95 737.219C743.037 729.574 745.439 728.937 751.916 732.982C757.672 736.576 762.565 736.688 771.892 733.436C786.546 728.328 795.698 730.951 795.698 740.26C795.698 745.568 799.477 747.137 813.545 747.669C823.361 748.04 834.304 749.88 837.863 751.758C841.421 753.635 855.443 754.928 869.022 754.632C882.602 754.334 894.465 755.311 895.385 756.8C896.306 758.289 904.017 759.23 912.522 758.891C924.256 758.424 927.986 756.675 927.986 751.644C927.986 747.997 925.797 744.232 923.122 743.276C914.88 740.333 921.915 736.733 941.031 734.113C958.607 731.704 959.783 732.172 972.171 746.502C979.252 754.694 990.983 763.395 998.24 765.838C1006.14 768.499 1012.26 773.544 1013.48 778.417C1015.75 787.447 1031.93 806.306 1042.88 812.695C1046.78 814.967 1048.79 818.733 1047.35 821.063C1045.55 823.964 1035.84 822.31 1016.51 815.808C969.997 800.164 922.392 782.158 918.453 778.719C912.797 773.78 893.822 774.882 890.28 780.355C888.549 783.03 885.381 790.471 883.241 796.891C879.402 808.406 879.024 808.545 855.178 807.241C827.675 805.736 805.178 811.738 799.657 822.053C797.093 826.844 797.762 836.251 801.757 851.589C808.367 876.969 807.286 878.863 784.025 882.641C763.282 886.01 758.735 889.88 758.735 904.163C758.735 916.12 757.293 917.631 739.94 923.85C729.603 927.555 716.397 930.451 710.594 930.286C699.021 929.956 682.864 937.163 682.864 942.654C682.864 944.565 691.181 945.431 701.346 944.579C711.51 943.726 730.332 944.932 743.172 947.259C756.011 949.585 777.841 952.105 791.683 952.858C819.33 954.363 836.798 959.992 840.041 968.443C841.196 971.457 847.29 973.923 853.581 973.923C861.818 973.923 869.899 978.666 882.46 990.874C896.888 1004.9 903.349 1008.28 919.86 1010.47C943.171 1013.57 958.86 1007.62 981.057 987.29C988.859 980.144 1000.68 973.213 1007.33 971.888C1013.98 970.563 1026.66 965.772 1035.52 961.24C1050.9 953.371 1052.07 953.3 1061.78 959.661C1075.33 968.536 1074.6 972.459 1058.33 978.343C1042.47 984.078 1039.07 997.277 1053.46 997.254C1063.65 997.239 1087.51 983.653 1087.51 977.871C1087.51 975.7 1089.72 973.923 1092.43 973.923C1095.14 973.923 1104.99 966.044 1114.32 956.415C1123.65 946.785 1133.67 938.906 1136.59 938.906C1146.47 938.906 1179.58 953.198 1196.82 964.899C1206.25 971.3 1219.21 979.129 1225.63 982.296C1254.69 996.632 1275.4 1012.35 1282.52 1025.48C1286.02 1031.93 1274.32 1032.26 1059.44 1031.73C934.71 1031.43 838.921 1030.12 846.573 1028.82L860.485 1026.45L853.235 1009.91C847.669 997.22 843.864 993.377 836.858 993.377C831.077 993.377 827.004 996.163 825.745 1000.98C823.963 1007.79 822.493 1008.1 811.514 1003.95C799.971 999.597 798.706 1000.05 789.42 1011.92C780.474 1023.35 777.634 1024.5 758.453 1024.5C746.839 1024.5 737.336 1026.25 737.336 1028.39C737.336 1033.78 628.595 1033.3 619.268 1027.88L619.268 1027.88ZM676.683 993.079C682.223 986.495 686.756 979.192 686.756 976.85C686.756 974.507 689.691 969.348 693.278 965.384C698.481 959.634 698.819 957.212 694.947 953.405C689.906 948.448 688.137 950.03 670.038 975.687C661.184 988.238 659.419 988.115 644.569 973.924C637.851 967.504 629.275 962.29 625.511 962.337C619.414 962.411 619.541 963.158 626.671 969.147C631.074 972.844 636.805 980.856 639.406 986.951C642.354 993.855 646.182 997.247 649.561 995.95C652.544 994.805 655.95 996.384 657.13 999.46C660.388 1007.95 665.601 1006.25 676.682 993.079H676.683ZM1348.19 1028.9C1348.19 1027.03 1357.08 1024.33 1367.94 1022.89C1378.81 1021.45 1396.28 1016.88 1406.78 1012.74C1418.85 1007.99 1430.2 1006.08 1437.62 1007.57C1450.78 1010.2 1452.89 1005.44 1442.55 996.444C1438.08 992.557 1423.53 989.703 1400.2 988.134C1358.14 985.306 1343.16 980.645 1345.12 970.994C1346.22 965.531 1349.8 964.448 1363.34 965.48C1378.35 966.624 1381.38 965.362 1391.27 953.808C1397.36 946.682 1402.36 939.101 1402.37 936.961C1402.37 934.821 1394.42 928.024 1384.7 921.858C1363.61 908.492 1360.49 902.276 1369.73 892.072C1384.21 876.068 1408.22 884.526 1411.8 906.891C1413.17 915.444 1418.34 925.743 1423.87 930.943C1429.2 935.945 1432.65 941.498 1431.55 943.282C1427.66 949.577 1438.13 962.333 1451.92 968.094C1470.45 975.837 1472.27 975.557 1476.55 964.305C1481.54 951.182 1495.61 948.449 1513.63 957.102C1530.82 965.35 1537.27 973.949 1533.55 983.648C1531.29 989.536 1527.8 990.175 1509.58 988.034L1488.26 985.528V999.602C1488.26 1012.7 1487.58 1013.5 1478.46 1011.21C1466.5 1008.21 1454.63 1014.02 1451.3 1024.5C1449 1031.76 1445.42 1032.29 1398.51 1032.29C1370.84 1032.29 1348.19 1030.76 1348.19 1028.9ZM1531.06 1028.15C1531.06 1023.72 1541.52 1023.27 1544.18 1027.59C1545.23 1029.28 1542.71 1030.93 1538.58 1031.24C1534.44 1031.55 1531.06 1030.16 1531.06 1028.15V1028.15ZM1721.4 1017.7C1723.51 1004.6 1725.06 1002.98 1736.62 1001.87C1743.71 1001.18 1753.6 1003.31 1758.62 1006.6C1766.55 1011.8 1771.17 1011.91 1794.33 1007.49C1808.96 1004.69 1826.18 999.68 1832.6 996.352C1839.02 993.025 1851.72 988.3 1860.81 985.854C1883.41 979.773 1881.59 974.001 1856.92 973.548C1845.68 973.342 1827.57 971.153 1816.67 968.685C1798.98 964.678 1794.13 961.066 1771.47 935.015C1755.06 916.16 1741.42 904.278 1732.92 901.436C1725.69 899.017 1714.21 894.745 1707.42 891.942C1696.24 887.325 1692.41 887.919 1666.75 898.252C1651.16 904.525 1635.33 909.135 1631.57 908.498C1627.81 907.859 1619.76 911.01 1613.69 915.498L1602.65 923.657L1575.61 912.256C1560.74 905.986 1542.76 899.622 1535.66 898.114C1519.61 894.705 1516.14 886.469 1524.56 871.791C1528.14 865.559 1531.06 858 1531.06 854.994C1531.06 847.065 1490.7 827.961 1459.08 820.925C1444.1 817.592 1422.22 811.407 1410.45 807.182C1398.68 802.957 1372.09 797.496 1351.37 795.046C1318.43 791.154 1312.15 791.388 1301.48 796.905C1285.47 805.184 1280.86 801.166 1270.43 769.813C1260.92 741.22 1254.03 733.778 1235.46 732.024C1223.25 730.871 1221.27 728.94 1215.05 712.136C1206.93 690.194 1210.22 686.883 1233.67 693.358C1241.69 695.572 1249.53 696.593 1251.09 695.626C1257.56 691.63 1232.69 633.33 1214.95 610.892L1203.24 596.089L1210.07 580.947C1213.83 572.619 1216 563.462 1214.9 560.596C1213.07 555.823 1198.72 545.187 1172.72 529.344C1163.79 523.901 1162.34 519.91 1160.27 495.173C1157.4 461.037 1140.88 430.455 1115.99 413.229C1097.47 400.409 1091.08 399.93 1043.2 407.776C1008.14 413.523 995.145 412.442 968.022 401.522C957.307 397.208 953.556 397.435 941.627 403.124C922.212 412.382 916.942 411.607 894.87 396.247C884.195 388.818 858.827 374.171 838.497 363.698C818.168 353.225 794.599 340.919 786.122 336.352C777.644 331.784 768.758 328.047 766.374 328.047C763.99 328.047 753.568 341.617 743.215 358.201C716.496 401 716.57 400.937 689.386 403.856C676.169 405.275 657.991 409.142 648.989 412.45C625.307 421.152 614.695 417.067 603.477 394.93C598.298 384.709 591.036 366.792 587.34 355.115C578.5 327.185 562.239 300.963 552.522 298.967C548.242 298.088 527.843 296.3 507.191 294.993L469.642 292.617L461.157 318.114C455.934 333.807 450.514 343.611 447.061 343.611C443.975 343.611 426.171 328.605 407.497 310.265C388.823 291.925 366.541 273.313 357.981 268.904C349.422 264.495 337.717 257.576 331.97 253.528C326.224 249.481 311.342 244.293 298.898 242.001C268.434 236.388 238.029 221.521 231.299 208.947C215.521 179.464 167.03 152.961 128.867 152.961C108.411 152.961 108.143 153.115 102.157 168.354C97.6295 179.88 93.3263 184.378 85.0309 186.253C44.5407 195.408 45.3025 194.927 33.1661 218.969C22.5392 240.021 9.36372 251.139 2.80937 244.584C1.45294 243.228 0.830981 235.358 1.42748 227.097C3.01602 205.096 -11.269 174.321 -25.8792 168.269C-35.6276 164.231 -39.7059 164.512 -51.2501 170.017L-65.0054 176.577L-63.6163 206.421L-62.2272 236.264L-73.8997 239.631C-83.9314 242.525 -90.1116 240.424 -117.865 224.69C-149.449 206.784 -150.101 206.116 -147.562 194.262C-146.133 187.596 -144.333 181.057 -143.561 179.731C-141.432 176.075 -114.329 182.246 -101.135 189.39C-94.7156 192.867 -87.3613 195.722 -84.7927 195.736C-76.9523 195.78 -72.7637 183.631 -74.8496 166.906C-76.3774 154.654 -80.5892 147.451 -93.2414 135.452C-102.267 126.892 -111.532 116.421 -113.831 112.183C-117.597 105.241 -119.322 104.952 -131.249 109.265C-148.982 115.678 -152.039 115.408 -171.422 105.728L-188.089 97.4042L-206.865 108.32C-217.192 114.323 -232.645 124.854 -241.205 131.722C-249.765 138.591 -262.459 147.099 -269.413 150.63C-281.842 156.941 -282.059 157.513 -282.059 183.957C-282.059 198.756 -283.886 211.993 -286.12 213.373C-292.952 217.596 -301.513 207.152 -301.513 194.596C-301.513 178.842 -332.308 133.444 -351.698 120.612C-374.19 105.728 -417.283 94.6338 -469.895 90.1836L-517.453 86.161L-541.877 59.4816C-562.593 36.8527 -568.501 32.6199 -580.786 31.601C-593.295 30.5643 -595.104 29.2065 -594.052 21.6454C-592.898 13.3471 -594.14 12.8909 -617.893 12.8909C-634.964 12.8909 -644.435 14.6781 -647.605 18.4974C-655.046 27.4631 -626.562 31.5711 -616.994 22.9123C-610.557 17.0863 -609.616 17.053 -607.497 22.5741C-604.634 30.0355 -618.739 36.2355 -638.578 36.2355C-657.41 36.2355 -667.25 42.3594 -667.25 54.0797C-667.25 61.4383 -670.389 65.1887 -679.895 69.1872C-693.108 74.745 -707.891 89.074 -719.157 107.243C-722.806 113.128 -727.94 117.96 -730.565 117.981C-733.191 117.995 -743.027 124.129 -752.422 131.598C-763.492 140.398 -773.677 145.179 -781.353 145.179C-789.505 145.179 -798.958 150.033 -811.658 160.742C-839.98 184.624 -846.409 181.209 -834.102 148.819C-827.591 131.684 -826.635 123.127 -828.811 101.462L-831.466 75.0186L-819.393 70.8098C-809.149 67.2386 -807.319 64.6377 -807.319 53.6459C-807.319 44.4617 -804.488 38.4642 -797.592 33.0398C-792.242 28.8315 -787.865 23.5882 -787.865 21.388C-787.865 19.1879 -780.859 11.3911 -772.297 4.06193C-757.546 -8.56433 -756.953 -9.90807 -761.005 -21.5317C-764.15 -30.5553 -767.676 -33.7992 -774.336 -33.7992C-780.967 -33.7992 -785.828 -38.226 -792.495 -50.3352C-798.292 -60.8633 -804.759 -67.323 -810.296 -68.1146C-815.078 -68.7984 -818.992 -70.862 -818.992 -72.7001C-818.992 -86.1762 -855.64 -94.795 -860.384 -82.4345C-861.615 -79.2246 -865.001 -76.5982 -867.906 -76.5982C-870.812 -76.5982 -875.152 -72.9314 -877.55 -68.4498C-880.568 -62.8111 -884.384 -60.9483 -889.939 -62.4012C-895.381 -63.8247 -900.246 -61.6055 -905.038 -55.5127C-908.926 -50.5695 -917.503 -44.29 -924.098 -41.5583C-935.21 -36.9558 -936.918 -37.3853 -947.386 -47.4146C-953.599 -53.3674 -959.825 -63.6821 -961.222 -70.3362C-962.618 -76.9903 -968.921 -93.3774 -975.227 -106.752C-988.458 -134.81 -988.729 -134.888 -1032.99 -123.288C-1049.04 -119.082 -1065.78 -115.61 -1070.19 -115.573C-1077.71 -115.514 -1095.24 -134.121 -1095.24 -142.165C-1095.24 -144.161 -1087.36 -159.804 -1077.73 -176.928C-1068.1 -194.052 -1060.29 -210.436 -1060.38 -213.338C-1060.66 -222.572 -1114.52 -252.91 -1143.35 -260.076C-1158.22 -263.77 -1172.5 -269.083 -1175.1 -271.883C-1177.69 -274.684 -1181.93 -285.708 -1184.51 -296.381C-1190.32 -320.431 -1210.29 -345.491 -1237.52 -362.914C-1255.16 -374.194 -1258.29 -378.111 -1260.59 -391.72C-1263.99 -411.794 -1272.22 -420.166 -1286.52 -418.068L-1297.56 -416.447V-674.512V-932.578H894.914H3087.39V49.8542V1032.29H2403.22H1719.05L1721.4 1017.7ZM2164.46 966.631C2165.87 962.388 2158.63 960.662 2145.07 962.009C2134.47 963.062 2099.17 946.271 2094.8 938.096C2092.59 933.971 2091.31 923.34 2091.95 914.472L2093.11 898.348L2062.07 892.101C2024.82 884.603 2014.47 879.523 2012.82 867.908C2011.93 861.619 2009.38 859.495 2003.8 860.386C1999.52 861.068 1985.9 862.596 1973.53 863.78C1949.58 866.073 1939.6 873.932 1939.6 890.489C1939.6 904 1935.62 904.249 1913.52 892.118C1901.92 885.753 1890.11 880.544 1887.28 880.544C1880.56 880.544 1869.99 896.883 1866.98 911.93C1864.95 922.086 1866.53 925.48 1877.78 935.101C1891.96 947.226 1918.19 950.974 1927.03 942.136C1930.51 938.661 1935.09 938.741 1946.41 942.477C1954.56 945.169 1966.44 946.779 1972.79 946.057C1982.11 944.997 1984.58 942.671 1985.58 934.021C1986.38 927.029 1984.69 922.486 1980.71 920.96C1977.36 919.673 1974.62 917.351 1974.62 915.799C1974.62 910.961 2000.6 904.736 2012.2 906.794C2025.75 909.196 2043.21 924.836 2046.36 937.388C2048.09 944.303 2051.42 946.724 2059.32 946.827C2073 947.005 2084.62 953.634 2095.44 967.44C2100.2 973.503 2107.66 979.783 2112.02 981.397C2121.25 984.811 2162.24 973.268 2164.46 966.632L2164.46 966.631ZM2028.12 901.207C2024.37 900.229 2021.31 897.689 2021.31 895.564C2021.31 890.031 2041.79 893.197 2043.7 899.026C2045.3 903.902 2040.82 904.529 2028.12 901.207ZM1723.39 796.561C1729.08 773.911 1713.76 764.414 1691.48 776.782C1682.71 781.649 1682.78 781.783 1699.26 793.837C1719.81 808.862 1720.29 808.916 1723.39 796.561V796.561ZM1618.05 766.966C1621.18 761.971 1620.52 758.564 1615.33 752.831C1607.55 744.228 1574.67 730.584 1570.88 734.38C1568.53 736.728 1578.57 759.486 1586.96 770.828C1592.05 777.698 1612.96 775.1 1618.05 766.966ZM1534.72 728.336C1527.44 714.07 1517.45 709.433 1517.45 720.321C1517.45 726.845 1535.88 748.144 1539.56 745.871C1541.27 744.811 1539.1 736.919 1534.72 728.336ZM1483.06 732.95C1481.31 724.19 1482.33 721.164 1487.44 719.944C1492.65 718.7 1491.86 717.427 1483.78 714.091C1478.1 711.747 1472.31 707.97 1470.9 705.698C1468.23 701.378 1453.25 699.849 1453.25 703.897C1453.25 707.379 1465.7 733.915 1469.95 739.502C1471.99 742.177 1476.28 744.366 1479.5 744.366C1483.89 744.366 1484.78 741.525 1483.06 732.95V732.95ZM1422.87 689.894C1427.95 689.894 1434.24 686.179 1437.21 681.426C1441.81 674.067 1441.63 672.319 1435.84 668.089C1432.18 665.412 1422.39 662.073 1414.08 660.67C1405.77 659.267 1391.49 653.043 1382.34 646.841C1361.3 632.582 1354.08 632.569 1346.99 646.782C1341.56 657.661 1341.84 658.626 1353.52 669.902C1369.32 685.156 1398.48 697.849 1407.27 693.296C1410.88 691.429 1417.9 689.901 1422.87 689.901L1422.87 689.894ZM-713.009 51.3491C-705.859 41.7632 -705.785 40.4623 -711.724 28.9768C-720.926 11.182 -737.284 14.9341 -737.284 34.8396C-737.284 39.6352 -739.035 44.6408 -741.175 45.9634C-747.428 49.828 -745.657 58.8527 -738.257 60.8306C-726.502 63.9726 -720.838 61.8454 -713.009 51.3491H-713.009ZM-241.215 40.1437C-238.498 35.7467 -257.41 25.8539 -261.23 29.674C-264.622 33.0662 -255.086 44.0179 -248.74 44.0179C-245.918 44.0179 -242.532 42.2745 -241.215 40.1437ZM-395.67 12.1134C-389.741 6.1843 -389.742 -4.47404 -395.674 -20.8769C-400.921 -35.3889 -403.764 -36.2259 -419.654 -27.9382C-425.784 -24.7415 -436.466 -22.1259 -443.393 -22.1259C-450.319 -22.1259 -463.688 -18.0403 -473.102 -13.0469C-482.515 -8.05356 -495.104 -2.74977 -501.076 -1.26055C-507.049 0.228676 -511.037 2.89986 -509.94 4.6754C-506.479 10.2755 -459.373 13.2634 -446.314 8.71101C-436.475 5.28096 -432.397 5.65117 -425.305 10.6185C-414.844 17.9461 -402.144 18.5867 -395.67 12.1134V12.1134ZM-754.22 -190.477C-757.145 -202.131 -793.184 -240.012 -801.347 -240.012C-804.723 -240.012 -809.542 -235.499 -812.055 -229.983C-818.066 -216.792 -813.3 -209.418 -791.393 -198.013C-781.963 -193.103 -769.928 -186.624 -764.65 -183.616C-753.135 -177.053 -751.174 -178.343 -754.22 -190.477V-190.477ZM-950.386 -223.58C-946.354 -228.438 -946.829 -230.224 -953.091 -233.769C-962.048 -238.839 -968.409 -245.811 -1007.3 -293.202C-1023.41 -312.827 -1040.24 -330.043 -1044.7 -331.459C-1054.86 -334.685 -1062.94 -328.179 -1070.13 -310.964C-1075.55 -297.992 -1075.34 -297.221 -1062.16 -281.473C-1054.71 -272.579 -1042.84 -257.423 -1035.77 -247.793C-1028.7 -238.164 -1016.87 -227.386 -1009.47 -223.843C-992.369 -215.651 -957.096 -215.494 -950.386 -223.58V-223.58ZM-835.314 -225.371C-834.525 -229.435 -838.887 -233.056 -848.317 -236.169C-868.328 -242.773 -873.909 -235.766 -857.169 -225.054C-843.001 -215.986 -837.118 -216.072 -835.314 -225.371V-225.371ZM1566.81 1004.81C1567.75 1002 1570.81 998.934 1573.62 997.998C1576.54 997.026 1578 998.485 1577.02 1001.4C1576.09 1004.21 1573.02 1007.28 1570.21 1008.21C1567.3 1009.18 1565.84 1007.72 1566.81 1004.81ZM446.497 994.368C435.7 988.995 433.878 986.047 434.024 974.191C434.289 952.768 443.691 921.398 449.846 921.398C452.819 921.398 463.783 930.563 474.209 941.764C488.938 957.588 491.826 962.645 487.158 964.436C483.854 965.704 477.375 964.721 472.761 962.251C468.146 959.782 461.643 958.808 458.309 960.087C452.96 962.14 453.067 963.319 459.216 970.114C463.049 974.349 468.437 977.814 471.189 977.814C480.35 977.814 481.472 986.097 473.337 993.676C463.851 1002.51 462.912 1002.54 446.497 994.368V994.368ZM-312.815 941.297C-323.882 927.962 -296.18 907.554 -283.807 919.927C-279.432 924.302 -279.329 927.11 -283.254 935.022C-288.883 946.372 -305.65 949.931 -312.815 941.297V941.297ZM1004.44 929.314C1000.48 926.315 998.466 921.88 999.963 919.458C1001.87 916.377 1004.91 917.065 1010.08 921.747C1022.99 933.429 1018.25 939.781 1004.44 929.314ZM523.925 904.083C524.781 901.516 526.751 899.546 528.302 899.706C532.954 900.187 532.053 905.524 527.037 907.196C524.47 908.052 523.069 906.652 523.925 904.083V904.083ZM-519.398 886.055C-527.904 880.014 -536.135 877.151 -541.325 878.427C-551.188 880.851 -556.462 875.244 -560.03 858.542C-563.961 840.145 -555.924 838.595 -539.474 854.576C-524.265 869.351 -509.175 876.653 -493.855 876.653C-482.889 876.653 -480.33 889.829 -490.535 893.746C-500.394 897.529 -504.952 896.314 -519.398 886.055V886.055ZM916.314 882.49C916.314 879.279 918.94 876.653 922.15 876.653C925.36 876.653 927.986 879.279 927.986 882.49C927.986 885.699 925.36 888.326 922.15 888.326C918.94 888.326 916.314 885.699 916.314 882.49ZM-707.723 862.119C-712.847 856.995 -709.592 849.418 -702.267 849.418C-697.987 849.418 -694.485 851.856 -694.485 854.837C-694.485 860.706 -703.936 865.905 -707.723 862.119V862.119ZM-9.70102 832.139C-9.70102 828.802 -7.95021 826.073 -5.81025 826.073C-3.67031 826.073 -1.91937 827.72 -1.91937 829.734C-1.91937 831.747 -3.67031 834.477 -5.81025 835.8C-7.95021 837.122 -9.70102 835.475 -9.70102 832.139ZM1064.52 797.864C1061.6 790.078 1062.83 788.68 1075.65 785.219C1089.74 781.413 1089.98 781.039 1086.55 768.023C1083.77 757.432 1084.3 754.019 1089.17 751.294C1092.54 749.41 1095.29 744.573 1095.29 740.544C1095.29 731.358 1108.02 727.009 1118.49 732.614C1128.74 738.102 1128.63 749.728 1118.26 756.615C1112.66 760.33 1109.48 767.56 1108.12 779.616C1106.27 796.048 1105.15 797.509 1091.05 801.91C1070.56 808.304 1068.31 807.961 1064.52 797.864H1064.52ZM1044.71 761.874C1044.71 758.664 1046.25 756.038 1048.13 756.038C1050 756.038 1053.72 758.664 1056.38 761.874C1060.43 766.75 1059.87 767.71 1052.97 767.71C1048.22 767.71 1044.71 765.229 1044.71 761.874ZM-1278.11 736.26C-1278.11 726.778 -1269.02 728.118 -1267.12 737.879C-1266.38 741.718 -1268.36 744.365 -1271.99 744.365C-1275.6 744.365 -1278.11 741.039 -1278.11 736.26ZM633.062 720.242C627.694 714.874 626.814 705.457 631.681 705.457C636.885 705.457 648.144 719.427 645.262 722.309C641.503 726.068 638.355 725.535 633.063 720.242H633.062ZM521.719 713.761C520.043 711.049 519.722 707.78 521.006 706.495C524.488 703.013 528.285 708.135 526.404 713.777C525.086 717.731 524.17 717.727 521.719 713.762V713.761ZM831.114 694.344C821.668 681.078 820.467 672.551 828.477 675.625C831.69 676.857 836.633 673.763 840.239 668.26C844.061 662.426 850.173 658.767 856.096 658.767C861.396 658.767 865.733 657.016 865.733 654.876C865.733 647.044 875.794 651.412 888.96 664.96C899.928 676.246 904.489 678.446 913.278 676.689C927.524 673.84 926.983 678.495 912.084 686.976C904.722 691.166 891.959 693.785 878.899 693.785C866.296 693.785 853.945 696.231 848.486 699.808C839.746 705.535 838.892 705.266 831.114 694.344H831.114ZM939.659 672.385C939.659 665.837 940.372 665.574 949.068 668.911C957.761 672.247 956.717 678.222 947.44 678.222C943.117 678.222 939.659 675.628 939.659 672.385V672.385ZM1168.33 656.898C1158.21 651.7 1141.42 644.918 1131.01 641.827C1120.6 638.735 1105.24 632.721 1096.88 628.462C1088.52 624.203 1072.91 618.121 1062.21 614.948C1035.93 607.158 966.583 571.684 958.178 561.732C951.098 553.348 935.768 550.703 935.768 557.865C935.768 560.147 930.953 561.46 925.068 560.783C915.022 559.627 914.435 558.516 915.46 542.585C916.712 523.144 911.569 514.807 898.329 514.807C892.7 514.807 889.078 512.522 889.078 508.971C889.078 501.598 898.301 501.586 922.505 508.927C933.009 512.113 944.914 514.74 948.96 514.763C961.751 514.836 990.072 531.36 1000.23 544.676C1016.46 565.954 1021.13 566.653 1046.2 551.554C1058.43 544.182 1071.67 538.15 1075.62 538.15C1083.4 538.15 1088.43 546.8 1085.33 554.873C1084.26 557.65 1087.77 564.036 1093.12 569.063C1098.47 574.09 1104.65 583.635 1106.85 590.276C1112.56 607.485 1152.86 639.311 1168.93 639.311C1182.09 639.311 1202.71 655.683 1198.38 662.689C1194.79 668.492 1188.57 667.292 1168.33 656.896V656.898ZM-1292.7 628.728C-1299.26 626.388 -1299.8 419.377 -1293.26 415.335C-1290.25 413.479 -1290.55 411.66 -1294.23 409.328C-1298.43 406.668 -1298.21 405.971 -1293.18 405.924C-1289.69 405.894 -1284.66 403.238 -1282 400.028C-1275.78 392.537 -1268.88 392.664 -1252.21 400.576C-1240.9 405.943 -1236.28 406.22 -1223.24 402.314C-1200.19 395.409 -1180.45 404.097 -1172.61 424.592C-1169.83 431.871 -1166.75 433.359 -1156.52 432.373L-1143.87 431.154V405.864C-1143.87 382.971 -1143.14 380.63 -1136.09 381.163C-1125.01 382.003 -1080.21 401.362 -1064.18 412.236C-1049.15 422.435 -1041.8 423.29 -1020.34 417.332C-1003.55 412.668 -1001.5 407.078 -1015.32 403.61C-1021.54 402.049 -1028.87 394.188 -1036.25 381.163C-1049.74 357.339 -1058.75 348.678 -1071.89 346.884C-1085.75 344.993 -1090.46 324.353 -1082.43 300.767C-1077.31 285.718 -1077.24 282.454 -1081.97 277.161C-1089.75 268.447 -1088.78 262.849 -1078.95 259.726C-1072.78 257.769 -1068.59 259.305 -1063.73 265.3C-1056.06 274.776 -1051.51 275.491 -1040.93 268.885C-1034.75 265.026 -1032.02 265.462 -1025.52 271.343C-1018.42 277.772 -1016.73 277.915 -1008.77 272.761C-995.941 264.458 -972.714 268.079 -967.661 279.17C-965.43 284.067 -965.11 290.227 -966.934 293.178C-970.937 299.654 -964.618 312.484 -957.426 312.484C-954.538 312.484 -949.406 316.709 -946.022 321.873C-942.639 327.037 -934.561 332.428 -928.071 333.853C-921.581 335.278 -913.679 340.147 -910.509 344.672C-905.374 352.004 -905.448 353.673 -911.191 360.019C-919.628 369.342 -913.201 376.07 -899.211 372.559C-891.353 370.586 -889.82 368.742 -892.928 364.997C-897.983 358.906 -894.092 329.459 -886.658 317.54C-881.102 308.632 -865.682 302.762 -832.609 296.965C-821.91 295.089 -801.073 290.782 -786.306 287.393C-761.71 281.748 -758.654 281.757 -749.906 287.496C-744.653 290.938 -736.6 302.305 -732.011 312.758C-723.992 331.02 -723.059 331.754 -708.103 331.556C-699.543 331.438 -676.928 329.295 -657.846 326.784L-623.152 322.218L-618.591 308.6C-616.082 301.11 -611.997 295.158 -609.513 295.372C-607.029 295.585 -598.868 296.023 -591.379 296.343C-580.332 296.817 -577.761 298.467 -577.761 305.083C-577.761 320.011 -566.028 353.859 -556.268 367.088C-545.6 381.547 -543.435 403.899 -551.618 415.089C-554.894 419.57 -561.226 421.708 -570.099 421.33C-577.523 421.014 -592.698 420.933 -603.822 421.152C-620.856 421.487 -626.073 419.781 -636.894 410.342C-657.049 392.76 -680.494 382.525 -700.613 382.525C-718.038 382.525 -719.737 383.592 -745.508 410.733C-760.239 426.248 -773.36 442.881 -774.664 447.696C-776.443 454.263 -779.907 456.45 -788.528 456.45C-804.998 456.45 -873.233 441.293 -887.342 434.5C-898.387 429.183 -902.405 429.627 -941.291 440.459C-964.399 446.896 -984.156 453.012 -985.195 454.052C-986.234 455.091 -988.221 465.075 -989.609 476.238C-992.106 496.321 -992.442 496.746 -1021.53 516.676C-1050.31 536.395 -1051.42 536.782 -1074.36 535.123C-1092.92 533.78 -1101.18 535.152 -1114.03 541.708C-1122.95 546.262 -1130.26 551.516 -1130.26 553.384C-1130.26 558.019 -1120.21 561.502 -1106.85 561.502C-1100.74 561.502 -1091.03 563.293 -1085.28 565.483C-1075.22 569.306 -1074.91 570.265 -1077.49 589.703C-1078.97 600.835 -1082.03 612.175 -1084.29 614.904C-1089.02 620.604 -1107.46 621.549 -1112.94 616.371C-1114.98 614.45 -1130.21 607.283 -1146.79 600.445L-1176.95 588.011L-1214.87 597.129C-1235.73 602.143 -1255.77 609.217 -1259.41 612.848C-1268.68 622.103 -1286.91 630.8 -1292.7 628.733V628.728ZM809.316 615.968C807.994 613.828 809.641 612.077 812.977 612.077C816.314 612.077 819.043 613.828 819.043 615.968C819.043 618.108 817.396 619.859 815.382 619.859C813.368 619.859 810.639 618.108 809.316 615.968V615.968ZM771.079 584.281C769.071 576.603 767.175 576.14 747.281 578.478C725.899 580.991 725.664 580.908 725.664 570.809C725.664 560.671 725.817 560.619 747.658 563.348C773.339 566.557 786.579 571.852 789.78 580.194C792.077 586.179 785.935 592.452 777.671 592.564C775.246 592.593 772.279 588.869 771.079 584.281V584.281ZM700.213 565.129C696.632 559.335 700.784 556.185 708.234 559.044C711.672 560.363 713.395 563.205 712.063 565.36C708.909 570.463 703.444 570.357 700.213 565.13V565.129ZM579.768 557.623C576.868 552.931 596.094 543.464 600.195 547.565C601.788 549.158 599.695 552.944 595.544 555.979C586.626 562.5 583.015 562.876 579.768 557.623ZM-510.644 524.291C-521.879 519.158 -531.071 513.219 -531.071 511.092C-531.071 505.657 -510.012 495.366 -505.416 498.555C-498.316 503.484 -484.381 523.618 -484.381 528.95C-484.381 535.789 -486.174 535.471 -510.644 524.291ZM1052.49 522.359C1052.49 520.093 1054.24 519.321 1056.38 520.643C1058.52 521.965 1060.27 523.82 1060.27 524.764C1060.27 525.708 1058.52 526.48 1056.38 526.48C1054.24 526.48 1052.49 524.625 1052.49 522.359ZM844.784 503.135C835.498 494.575 824.39 487.571 820.1 487.571C809.974 487.571 772.353 471.942 772.353 467.736C772.353 465.956 775.855 462.626 780.135 460.336C784.415 458.045 787.966 452.293 788.025 447.554C788.084 442.814 793.255 433.911 799.516 427.769C809.067 418.4 813.006 416.998 823.991 419.059C845.088 423.017 868.918 442.89 871.951 459.056C875.156 476.137 869.446 480.775 849.197 477.544C828.191 474.191 829.663 484.772 851.143 491.524C879.049 500.296 881.935 502.453 877.318 511.08C871.286 522.351 863.594 520.472 844.784 503.135V503.135ZM1066.11 511.012C1061.83 509.226 1054.34 508.676 1049.46 509.79C1039.13 512.152 1020.34 494.773 1023.72 485.972C1024.86 483.005 1023.92 479.422 1021.63 478.009C1012.65 472.458 1018.33 464.557 1035.96 458.069C1046.12 454.329 1056.1 449.807 1058.13 448.021C1060.17 446.234 1065.99 444.773 1071.08 444.773C1081.78 444.773 1110.85 472.843 1110.85 483.166C1110.85 486.813 1103.53 495.425 1094.58 502.303C1076.89 515.9 1077.43 515.736 1066.11 511.013V511.012ZM939.659 450.284C939.659 443.413 948.035 444.61 950.44 451.824C951.287 454.366 949.207 456.445 945.819 456.445C942.431 456.445 939.659 453.673 939.659 450.284V450.284ZM-236.221 440.678C-244.18 436.476 -252.495 429.668 -254.698 425.55C-261.237 413.332 -274.446 411.336 -282.05 421.416C-287.4 428.509 -290.859 429.604 -300.932 427.391C-307.715 425.901 -315.956 421.991 -319.246 418.702C-324.626 413.321 -324.524 411.944 -318.233 404.981C-314.387 400.724 -303.361 393.052 -293.731 387.931C-284.101 382.81 -272.72 376.08 -268.44 372.974C-261.6 368.011 -259.095 368.086 -247.729 373.602C-240.617 377.053 -227.048 387.409 -217.575 396.616C-199.299 414.378 -195.618 428.484 -205.767 441.854C-212.296 450.455 -218.135 450.229 -236.221 440.678V440.678ZM-1297.56 380.993C-1297.56 375.16 -1295.97 371.373 -1294.02 372.578C-1290.11 374.992 -1290.61 384.643 -1294.86 388.891C-1296.34 390.38 -1297.56 386.825 -1297.56 380.993H-1297.56ZM539.181 384.797C536.279 381.301 535.059 377.286 536.469 375.876C540.103 372.242 547.876 380.896 546.009 386.496C544.935 389.716 542.827 389.191 539.181 384.797V384.797ZM-1295.62 359.174C-1296.94 357.034 -1296.17 355.284 -1293.9 355.284C-1291.63 355.284 -1289.78 357.034 -1289.78 359.174C-1289.78 361.314 -1290.55 363.065 -1291.5 363.065C-1292.44 363.065 -1294.29 361.314 -1295.62 359.174V359.174ZM295.728 355.284C294.175 352.771 294.655 348.964 296.795 346.824C299.389 344.23 301.627 344.456 303.51 347.502C305.063 350.015 304.583 353.821 302.443 355.961C299.849 358.555 297.611 358.329 295.728 355.284V355.284ZM-1294.97 344.908C-1298.18 341.696 -1298.45 86.8171 -1295.24 86.8171C-1293.97 86.8171 -1287.94 89.7637 -1281.84 93.3652C-1272.15 99.0879 -1267.61 99.3333 -1245.78 95.3109C-1215.38 89.7103 -1196.4 89.4082 -1196.4 94.5242C-1196.4 96.6234 -1200.78 99.4394 -1206.13 100.782C-1213.59 102.655 -1215.86 105.746 -1215.86 114.058C-1215.86 120.28 -1213.27 125.883 -1209.79 127.219C-1202.38 130.062 -1172.26 123.633 -1157.69 116.101C-1146.65 110.392 -1135.77 111.632 -1118.69 120.545C-1104.59 127.905 -1097.01 126.951 -1090.3 116.971L-1084.42 108.216L-1073.29 116.418C-1058.43 127.375 -1059.27 133.184 -1077.04 142.409C-1089.81 149.033 -1094.02 149.502 -1106.68 145.709C-1130 138.722 -1141.01 139.998 -1144.07 150.042C-1148.69 165.181 -1157.5 171.686 -1177.06 174.376C-1199.22 177.424 -1206.64 183.901 -1200.69 195.019C-1197.64 200.713 -1191.15 203.035 -1174.16 204.512C-1161.78 205.587 -1149.67 204.883 -1147.23 202.947C-1144.4 200.692 -1132.77 204.463 -1114.9 213.43C-1082.02 229.929 -1081.05 235.09 -1107.57 252.176C-1121.03 260.844 -1126.59 267.354 -1129.18 277.467C-1132.53 290.5 -1133.38 291.053 -1149.07 290.339C-1164.92 289.617 -1200.29 275.133 -1200.29 269.36C-1200.29 267.799 -1203.36 266.983 -1207.1 267.546C-1210.85 268.107 -1211.72 267.816 -1209.05 266.896C-1201.86 264.423 -1203.13 256.277 -1211.96 248.285C-1216.24 244.412 -1219.75 238.991 -1219.75 236.239C-1219.75 228.604 -1227.96 225.202 -1231.79 231.251C-1237.53 240.307 -1235.7 252.565 -1227.49 259.987C-1220.34 266.459 -1220.18 267.819 -1225.55 276.017C-1228.78 280.943 -1231.42 287.206 -1231.42 289.934C-1231.42 292.662 -1234.48 302.344 -1238.23 311.45C-1244.51 326.726 -1245.94 327.841 -1256.71 325.867C-1265.27 324.299 -1271.74 326.221 -1280.97 333.073C-1287.9 338.212 -1292.42 343.562 -1291.03 344.959C-1289.63 346.358 -1289.36 347.501 -1290.43 347.501C-1291.5 347.501 -1293.54 346.333 -1294.97 344.907L-1294.97 344.908ZM-522.619 336.802C-524.541 333.057 -527.269 322.429 -528.682 313.183C-530.094 303.938 -533.987 292.196 -537.332 287.091C-544.931 275.495 -541.962 270.17 -529.253 272.6C-509.213 276.431 -485.855 269.749 -469.073 255.384C-459.978 247.598 -451.344 242.929 -449.585 244.846C-447.849 246.738 -445.503 266.232 -444.372 288.167L-442.316 328.048H-470.194C-493.859 328.048 -498.807 329.224 -502.932 335.829C-508.926 345.427 -517.964 345.873 -522.619 336.801V336.802ZM-949.335 176.303C-950.694 172.022 -957.725 164.004 -964.961 158.485C-972.196 152.966 -980.041 142.617 -982.394 135.487C-987.693 119.432 -995.149 116.16 -1004.04 125.988C-1011.11 133.798 -1027.01 136.146 -1030.84 129.945C-1032.05 127.987 -1028.38 120.852 -1022.69 114.09L-1012.35 101.795L-1022.52 91.6244C-1032.54 81.6015 -1032.81 81.5601 -1040.82 88.8052C-1048.04 95.3422 -1050.32 95.5895 -1061.39 91.0345C-1078.96 83.8049 -1116.36 79.3526 -1131.27 82.7147C-1144.78 85.7599 -1170.88 84.729 -1177.07 80.9059C-1179.14 79.625 -1180.84 75.5478 -1180.84 71.8467C-1180.84 68.1456 -1184.07 58.7868 -1188.01 51.0496C-1195.87 35.6275 -1193.98 27.9261 -1179.36 15.7566L-1171.11 8.89433L-1180.42 1.0686C-1191.1 -7.9157 -1189.21 -13.1261 -1177.54 -6.87786C-1167.32 -1.41199 -1142.09 -1.52945 -1114.78 -7.17046L-1093.01 -11.6688L-1041.4 14.2291C-1013.01 28.4729 -987.171 40.1268 -983.974 40.1268C-980.777 40.1268 -973.825 44.4631 -968.525 49.7629C-953.471 64.8172 -945.128 68.1792 -939.539 61.4445C-936.912 58.2795 -929.928 55.6901 -924.019 55.6901C-914.622 55.6901 -912.169 58.416 -904.447 77.4395C-899.592 89.4018 -893.261 100.094 -890.378 101.201C-882.828 104.098 -883.929 113.133 -892.383 117.658C-896.37 119.791 -901.882 127.294 -904.633 134.331C-907.384 141.367 -914.81 155.441 -921.136 165.606C-933.378 185.279 -945.077 189.717 -949.335 176.303V176.303ZM-1087.46 96.5441C-1087.46 92.9776 -1085.58 90.6868 -1083.28 91.4537C-1080.97 92.2213 -1079.09 94.5112 -1079.09 96.5441C-1079.09 98.5772 -1080.97 100.868 -1083.28 101.635C-1085.58 102.401 -1087.46 100.111 -1087.46 96.5441ZM-1272.27 39.3123C-1293.64 31.8237 -1301.92 20.0403 -1291.73 11.6224C-1289.21 9.54014 -1289.55 7.71332 -1292.7 6.43482C-1301.43 2.89257 -1298.45 -13.9735 -1288.66 -16.4305C-1276.48 -19.4864 -1239.19 -3.5993 -1247.08 1.27997C-1250.2 3.2083 -1256.54 3.83469 -1261.18 2.67252C-1265.81 1.50932 -1273.47 2.62837 -1278.2 5.15918C-1286.27 9.47935 -1285.17 10.5613 -1260.08 22.8802C-1245.39 30.0961 -1230.3 36.0537 -1226.55 36.1188C-1222.81 36.1776 -1219.75 37.9879 -1219.75 40.1279C-1219.75 45.1813 -1257.19 44.6006 -1272.27 39.3134L-1272.27 39.3123ZM-1239.2 -57.2039C-1242.41 -59.3117 -1252.04 -62.8685 -1260.6 -65.108C-1269.16 -67.3475 -1280.98 -71.0612 -1286.86 -73.3607L-1297.56 -77.5413V-186.012C-1297.56 -259.154 -1296.23 -294.483 -1293.48 -294.483C-1291.23 -294.483 -1284.44 -291.919 -1278.38 -288.786C-1268.34 -283.594 -1267.22 -280.876 -1265.77 -258.127C-1264.5 -238.249 -1261.95 -230.241 -1253.23 -218.813C-1247.21 -210.92 -1238.09 -202.55 -1232.96 -200.213C-1221.42 -194.953 -1220.94 -184.392 -1231.91 -177.107C-1250.14 -164.998 -1234.12 -141.879 -1177.26 -98.2615C-1166.29 -89.847 -1157.92 -81.1375 -1158.67 -78.9071C-1159.41 -76.6768 -1165.42 -73.748 -1172.02 -72.3988C-1178.61 -71.0488 -1188.79 -66.1896 -1194.62 -61.599C-1205.89 -52.7375 -1228.94 -50.4649 -1239.2 -57.2039H-1239.2ZM-1036.88 -96.2812C-1036.88 -98.5475 -1035.13 -99.3195 -1032.99 -97.9969C-1030.85 -96.6749 -1029.1 -94.82 -1029.1 -93.8763C-1029.1 -92.9322 -1030.85 -92.1606 -1032.99 -92.1606C-1035.13 -92.1606 -1036.88 -94.015 -1036.88 -96.2812Z" fill="white"/>
<path d="M3818.14 902.347C3813.13 898.001 3793.23 885.572 3773.93 874.729C3754.62 863.885 3734.44 851.985 3729.09 848.284C3723.74 844.583 3712.93 839.466 3705.05 836.914C3697.18 834.361 3680.55 825.751 3668.09 817.779C3655.63 809.807 3628.15 794.819 3607.02 784.471C3585.89 774.123 3562.25 761.338 3554.49 756.059C3537.66 744.607 3334.52 643.828 3320.56 640.005C3315.21 638.541 3307.16 635.032 3302.67 632.21C3298.18 629.388 3278.92 621.036 3259.87 613.65C3240.82 606.265 3210.35 593.681 3192.16 585.685C3150.13 567.211 3094.54 544.217 3070.11 535.204C3059.7 531.361 3047.44 523.909 3042.88 518.645C3032.63 506.818 3017.1 500.149 2991.85 496.722C2981.18 495.275 2957.98 488.629 2940.29 481.952C2912.94 471.628 2908.13 468.485 2908.13 460.93C2908.13 455.263 2902.68 447.726 2893.07 440.117C2884.78 433.556 2875.88 423.053 2873.28 416.779C2867.75 403.421 2854.02 396.966 2832.19 397.46C2814.55 397.858 2757.17 373.628 2768.99 370.769C2772.7 369.869 2782.75 373.071 2791.31 377.883C2799.88 382.695 2808.09 385.428 2809.56 383.955C2814.82 378.695 2789.8 358.106 2770.35 351.687C2759.46 348.093 2739.46 339.292 2725.91 332.129C2712.36 324.965 2698.3 319.105 2694.68 319.105C2691.05 319.105 2685.08 315.603 2681.42 311.323C2677.76 307.043 2672.38 303.542 2669.47 303.542C2666.56 303.542 2657.35 298.721 2649 292.829C2640.66 286.937 2627.1 279.007 2618.87 275.207C2610.64 271.407 2597.51 263.445 2589.69 257.513C2574.98 246.36 2558.71 239.275 2533.79 233.179C2525.85 231.236 2508.51 222.636 2495.25 214.068C2482 205.5 2469.59 198.489 2467.69 198.489C2465.78 198.489 2447.83 190.518 2427.81 180.775C2400.31 167.397 2390.83 160.804 2389.08 153.846C2387.75 148.555 2379.24 139.944 2369.1 133.625C2359.38 127.571 2345.81 119.074 2338.94 114.741C2322.17 104.164 2255.54 76.8705 2250.54 78.5346C2248.36 79.264 2257.4 90.7937 2270.64 104.157C2296.2 129.951 2295.25 132.056 2262.47 122.321C2251.11 118.947 2238.09 117.051 2233.55 118.107C2214.08 122.635 2138.58 99.4546 2100.29 77.1948C2075.43 62.7378 2008.49 29.9767 1995.33 25.8217C1990.82 24.3997 1965.81 11.8934 1939.75 -1.97071C1908.54 -18.571 1887.9 -27.1782 1879.3 -27.1782C1872.12 -27.1782 1858.61 -30.6414 1849.28 -34.8742C1830.29 -43.4921 1803.05 -45.0485 1790.33 -38.2423C1785.7 -35.7676 1775.76 -32.353 1768.23 -30.6544C1748.77 -26.2667 1684.09 -42.9124 1652.97 -60.3132C1639.53 -67.8285 1619.48 -75.6954 1608.41 -77.7951C1597.33 -79.8947 1578.4 -87.6075 1566.34 -94.9347C1536.25 -113.206 1525.65 -115.43 1515.77 -105.549C1511.43 -101.203 1501.21 -96.6335 1493.06 -95.3949C1484.92 -94.1567 1472.13 -91.8494 1464.64 -90.2685C1449.18 -87.0064 1400.01 -90.9965 1377.89 -97.3064C1358.46 -102.853 1351.22 -100.065 1342.36 -83.6175C1338.32 -76.1153 1332.01 -69.9772 1328.34 -69.9772C1324.67 -69.9772 1281.61 -90.1007 1232.66 -114.696C1183.7 -139.291 1142.02 -159.426 1140.02 -159.44C1132.7 -159.499 830.903 -308.59 805.142 -324.881C783.645 -338.476 723.934 -368.062 667.018 -393.32C624.543 -412.17 566.923 -442.513 563.699 -447.73C562.493 -449.681 555.044 -451.291 547.146 -451.308C530.567 -451.338 460.376 -482.089 425.33 -504.666C397.517 -522.584 396.494 -529.529 418.006 -554.384C443.63 -583.991 440.734 -587.446 370.841 -610.633C350.773 -617.291 323.848 -627.896 311.008 -634.2C277.953 -650.43 188.113 -689.075 178.14 -691.354C171.336 -692.909 169.289 -691.038 167.152 -681.309C163.833 -666.197 165.923 -662.969 180.972 -659.959C187.65 -658.623 198.187 -653.261 204.389 -648.043C214.971 -639.139 215.186 -638.403 207.892 -636.088C199.146 -633.313 198.293 -629.266 204.148 -618.327C209.646 -608.053 206.329 -608.832 186.502 -622.474C177.171 -628.893 167.003 -634.146 163.905 -634.146C160.808 -634.146 156.298 -636.527 153.883 -639.437C151.467 -642.347 132.431 -652.234 111.58 -661.408C34.8934 -695.147 -79.996 -756.505 -80.0121 -763.729C-80.0159 -765.452 -73.0155 -777.174 -64.4557 -789.779C-55.8959 -802.384 -48.8925 -815.878 -48.8925 -819.767C-48.8925 -825.039 -63.3668 -833.755 -105.787 -854.025C-137.078 -868.979 -168.156 -883.839 -174.849 -887.049C-183.205 -891.057 -187.39 -896.11 -188.209 -903.181C-188.864 -908.843 -192.686 -916.449 -196.701 -920.082C-205.437 -927.988 -202.865 -937.63 -192.02 -937.63C-186.562 -937.63 -184.935 -939.446 -186.573 -943.712C-189.584 -951.56 -179.784 -970.459 -168.664 -978.247C-163.896 -981.587 -155.333 -984.32 -149.636 -984.32C-139.181 -984.32 -126.709 -997.686 -126.709 -1008.89C-126.709 -1013.78 -148.521 -1029.74 -179.235 -1047.34C-190.282 -1053.67 -76.2703 -1054.04 1948.07 -1054.19L4087.05 -1054.35V-287.633C4087.05 222.523 4085.75 478.283 4083.16 476.683C4081.02 475.361 4079.27 476.3 4079.27 478.771C4079.27 481.242 4075.74 488.221 4071.42 494.281L4063.58 505.299L4029.59 489.479C4010.91 480.777 3967.41 459.894 3932.95 443.071C3898.48 426.249 3868.86 412.484 3867.11 412.484C3865.37 412.484 3851.55 407.048 3836.4 400.403C3792.49 381.142 3779.33 375.935 3676.57 337.14C3623.07 316.943 3565.53 294.127 3548.7 286.436C3531.87 278.746 3507.06 269.043 3493.56 264.875C3480.07 260.706 3460.57 253.073 3450.24 247.913C3439.9 242.753 3422.69 235.336 3411.99 231.432C3401.29 227.527 3387.76 221.054 3381.93 217.046C3376.09 213.038 3359.46 205.722 3344.96 200.789C3330.47 195.855 3307.46 186.187 3293.84 179.304C3275.16 169.868 3260.88 165.946 3235.8 163.358C3199.98 159.662 3160.62 143.678 3112.4 113.251C3078.88 92.1028 3007.27 50.6383 3004.25 50.6383C3002.85 50.6383 2976.7 39.4696 2946.16 25.819C2915.61 12.1685 2884.49 -0.282456 2877 -1.84976C2862.6 -4.86306 2848.72 -14.5562 2851.76 -19.4756C2854.97 -24.6714 2843.46 -31.11 2820.08 -37.2016C2807.52 -40.4729 2792.86 -47.1589 2787.51 -52.0596C2777.65 -61.0939 2657.17 -126.08 2614.37 -145.447C2601.53 -151.258 2577.02 -162.841 2559.9 -171.187C2499.9 -200.44 2292.34 -296.829 2280.74 -300.833C2276.25 -302.38 2273.93 -307.237 2273.93 -315.06C2273.93 -323.772 2271.59 -327.849 2265.17 -330.354C2250.63 -336.03 2164.89 -358.432 2135.8 -364.156C2120.82 -367.104 2092.95 -375.656 2073.85 -383.161C2054.76 -390.666 2035.26 -396.806 2030.52 -396.806C2025.77 -396.806 2006.79 -401.183 1988.33 -406.533C1969.87 -411.883 1949.97 -416.283 1944.12 -416.312C1938.27 -416.342 1918.6 -421.666 1900.41 -428.146C1857.96 -443.267 1829.99 -451.915 1781.74 -464.83C1743.6 -475.038 1680.24 -494.413 1633.89 -510.037C1621.05 -514.365 1600.91 -520.358 1589.14 -523.353C1539.1 -536.089 1480.43 -552.379 1457.48 -559.91C1421.93 -571.573 1416.38 -569.728 1443.24 -555.172C1456.08 -548.213 1473.55 -537.748 1482.08 -531.916C1490.6 -526.084 1499.68 -521.312 1502.26 -521.312C1504.83 -521.312 1518 -513.77 1531.51 -504.552C1563.78 -482.533 1628.33 -443.529 1709.76 -396.854C1725.81 -387.655 1743.11 -376.877 1748.22 -372.903C1753.32 -368.93 1763.5 -365.679 1770.83 -365.679C1778.16 -365.679 1793.38 -361.32 1804.65 -355.991C1815.91 -350.662 1831.12 -345.257 1838.45 -343.98C1845.78 -342.704 1864.9 -336.596 1880.95 -330.409C1897 -324.221 1920.08 -316.623 1932.23 -313.523C1944.38 -310.423 1958.39 -305.685 1963.36 -302.994C1968.32 -300.303 1979.39 -296.844 1987.95 -295.306C2006.77 -291.928 2046.14 -276.45 2076.12 -260.647C2088.23 -254.263 2107.57 -246.582 2119.1 -243.579C2130.63 -240.576 2146.79 -233.554 2155.01 -227.974C2170.11 -217.725 2184.44 -214.637 2184.44 -221.629C2184.44 -226.327 2170.22 -235.528 2157.2 -239.26C2151.85 -240.793 2143.1 -246.017 2137.75 -250.868C2132.4 -255.719 2121.48 -261.778 2113.48 -264.333C2097.23 -269.525 2091.55 -275.573 2098.74 -280.017C2103.83 -283.165 2094.72 -291.075 2057.72 -315.628C2010.35 -347.062 1993.64 -361.789 2005.36 -361.789C2011.38 -361.789 2066.76 -339.195 2100.79 -322.857C2117.9 -314.637 2144.17 -303.412 2159.15 -297.913C2186.9 -287.727 2203.65 -278.552 2294.48 -223.796C2322.76 -206.749 2359.14 -185.739 2375.32 -177.106C2412.8 -157.119 2440.11 -139.145 2493.66 -99.2328C2517.25 -81.6474 2543.56 -62.5446 2552.12 -56.7823C2647.05 7.12366 2673.3 26.5482 2677.93 36.2972C2680.79 42.3193 2686.04 48.2309 2689.6 49.4344C2693.17 50.6373 2719.82 60.923 2748.83 72.2903C2777.84 83.6575 2825.11 100.821 2853.88 110.431C2882.65 120.041 2923.69 135.225 2945.09 144.172C2990.05 162.969 3117.01 208.724 3176.6 227.601C3199.07 234.719 3238.46 248.811 3264.14 258.916C3289.82 269.021 3321.34 281.32 3334.17 286.247C3355.55 294.45 3384.39 306.543 3470.35 343.347C3519.04 364.19 3541.66 373.429 3578.03 387.313C3596.59 394.399 3623.73 406.194 3638.33 413.524C3652.94 420.854 3684.15 433.312 3707.69 441.209C3731.23 449.106 3758.37 458.302 3768 461.643C3777.63 464.984 3799.69 471.723 3817.01 476.617C3834.34 481.511 3856.49 489.045 3866.24 493.359C3875.99 497.672 3894.06 504.134 3906.39 507.718C3931.1 514.903 4067.48 569.439 4079.49 576.942C4086.55 581.35 4087.05 586.619 4087.05 656.826C4087.05 715.828 4086 731.4 4082.19 729.245C4078.29 727.048 4078.29 727.547 4082.19 731.739C4088.32 738.345 4089.27 857.868 4083.16 854.093C4081.02 852.771 4079.27 853.543 4079.27 855.808C4079.27 858.074 4081.45 859.955 4084.13 859.988C4087.51 860.032 4087.29 861.128 4083.41 863.582C4078.55 866.654 4078.55 868.018 4083.41 873.997C4088.3 880.022 4088.27 880.471 4083.16 877.613C4078.41 874.96 4078.23 875.329 4082.19 879.59C4084.86 882.472 4087.05 890.617 4087.05 897.691V910.552L3957.15 910.4C3832.29 910.253 3826.9 909.943 3818.15 902.347H3818.14ZM4066.47 866.051C4066.92 865.707 4066.38 862 4065.27 857.813C4063.82 852.33 4055.49 847.823 4035.47 841.693C4020.19 837.014 4006.29 834.053 4004.57 835.114C3997.02 839.779 4002.81 849.095 4019.93 859.843C4034.77 869.156 4041.1 870.973 4052.03 869.061C4059.52 867.75 4066.02 866.396 4066.47 866.051H4066.47ZM3978.03 813.09C3972.28 802.357 3884.73 762.442 3884.73 770.557C3884.73 774.558 3932.91 801.566 3940.05 801.566C3943.03 801.566 3951.4 805.943 3958.65 811.293C3975.28 823.562 3984.07 824.377 3978.03 813.09V813.09ZM3297.21 476.449C3297.21 471.723 3275.35 463.141 3263.17 463.087C3255.63 463.057 3257.41 468.38 3267.06 474.774C3284.97 486.642 3297.21 487.322 3297.21 476.449ZM3234.96 457.491C3234.96 451.437 3231.29 449.902 3201.89 443.651C3191.19 441.376 3169.84 434.985 3154.44 429.447C3128.73 420.2 3126.35 418.414 3125.26 407.544C3124.27 397.657 3121.51 394.8 3108.51 390.189C3099.95 387.154 3082.25 383.092 3069.19 381.164C3049.05 378.191 2975.39 356.068 2874.21 322.604C2851.39 315.057 2841.99 315.161 2841.99 322.963C2841.99 324.832 2845.93 327.566 2850.74 329.039C2855.56 330.511 2875.25 339.331 2894.51 348.64C2940.85 371.035 2975.11 384.559 3002.8 391.386C3015.28 394.462 3033.67 400.302 3043.66 404.363C3053.64 408.424 3077.58 416.336 3096.83 421.945C3169.56 443.124 3186.7 448.757 3199.88 455.81C3216.23 464.554 3234.96 465.452 3234.96 457.49V457.491ZM2664.76 167.893C2662.73 166.045 2646.18 159.187 2627.99 152.653C2609.8 146.12 2584.59 136.16 2571.97 130.519C2557.71 124.143 2547.65 121.643 2545.38 123.909C2541.57 127.722 2555.9 140.127 2564.12 140.127C2566.56 140.127 2580.14 145.38 2594.3 151.8C2608.45 158.219 2624.89 163.595 2630.82 163.745C2636.76 163.895 2645.11 165.524 2649.39 167.363C2659.84 171.854 2669.48 172.187 2664.76 167.894V167.893ZM3290.1 60.3653C3290.24 58.2253 3279.2 51.7505 3265.57 45.9769C3251.94 40.2032 3225.91 29.0536 3207.72 21.2C3161.78 1.36189 3113.86 -15.9913 3109.25 -14.4576C3105.09 -13.0695 3141.75 11.7302 3147.97 11.7302C3150.04 11.7302 3162.59 19.3745 3175.86 28.7176C3204.28 48.7299 3225.04 57.269 3256.62 61.9274C3283.71 65.9226 3289.75 65.6404 3290.1 60.3653ZM2087.17 -71.8228C2087.17 -75.1324 2064.39 -85.541 2057.21 -85.5147C2052.02 -85.4999 2053.23 -83.4882 2061.88 -77.7589C2072.5 -70.7221 2087.17 -67.2798 2087.17 -71.8228V-71.8228ZM2022.74 -102.926C2012.88 -110.385 2005.1 -110.45 2007.94 -103.043C2009.18 -99.8332 2014.71 -97.207 2020.24 -97.207C2029.91 -97.207 2030.01 -97.4217 2022.74 -102.919V-102.926ZM1499.65 -120.394C1499.65 -125.765 1470.91 -141.528 1439.35 -153.47C1424.37 -159.137 1409.07 -165.431 1405.35 -167.456C1396.24 -172.426 1394.6 -172.12 1394.6 -165.439C1394.6 -158.455 1401.25 -154.771 1433.38 -143.947C1447.13 -139.313 1463.43 -131.279 1469.59 -126.094C1480.67 -116.777 1499.65 -113.176 1499.65 -120.394V-120.394ZM1617.34 -146.11C1608.24 -151.563 1598.81 -154.798 1596.39 -153.298C1589.47 -149.026 1608.74 -136.302 1622.21 -136.244L1633.89 -136.2L1617.34 -146.116V-146.11ZM888.795 -398.569C888.795 -399.54 881.354 -403.812 872.259 -408.064C863.164 -412.317 851.346 -418.385 845.996 -421.548C824.505 -434.257 767.409 -459.586 765.21 -457.386C760.611 -452.787 773.066 -445.123 823.783 -421.348C869.618 -399.86 888.795 -393.141 888.795 -398.569V-398.569ZM2728.66 355.431C2723.81 349.561 2724.13 349.392 2732.07 353.622C2741.12 358.446 2743.35 361.904 2737.41 361.904C2735.53 361.904 2731.59 358.991 2728.66 355.431V355.431ZM2681.14 330.777C2671.02 324.357 2661.76 319.105 2660.56 319.105C2656.07 319.105 2635.41 302.61 2637.4 300.617C2638.54 299.476 2641.71 300.314 2644.43 302.48C2647.16 304.646 2656.39 308.643 2664.95 311.362C2673.51 314.082 2686.29 322.189 2693.35 329.378C2709.23 345.554 2705.18 346.019 2681.14 330.777V330.777ZM2970.38 75.2132C2958.61 72.4645 2932.35 66.6895 2912.02 62.38C2891.69 58.0706 2863.68 49.5114 2849.77 43.3598C2835.86 37.2081 2806.09 24.6652 2783.62 15.4866C2761.15 6.30808 2741.02 -2.49791 2738.88 -4.08242C2736.74 -5.66693 2727.11 -9.05657 2717.48 -11.6149C2695.62 -17.4221 2690.24 -21.758 2690.24 -33.5741C2690.24 -47.0884 2706.17 -53.6838 2722.62 -46.9846C2729.42 -44.214 2750.58 -35.9843 2769.64 -28.6964C2788.7 -21.4085 2806.21 -13.9807 2808.55 -12.1902C2810.89 -10.3997 2832.06 -1.54999 2855.6 7.47578C2879.14 16.5014 2907.16 28.0278 2917.86 33.0898C2928.56 38.1519 2948.98 46.9301 2963.24 52.597C3007.79 70.3007 3012.44 85.0362 2970.38 75.2132V75.2132ZM2473.73 -147.768C2465.42 -151.119 2458.59 -158.665 2461.35 -161.431C2463.75 -163.828 2487.92 -150.978 2487.92 -147.308C2487.92 -143.207 2484.78 -143.308 2473.73 -147.768V-147.768ZM2419.41 -175.262C2410.63 -179.31 2401.01 -185.543 2398.05 -189.113C2393.19 -194.962 2393.62 -195.308 2402.35 -192.606C2417.23 -188.004 2431.54 -180.079 2437.13 -173.34C2443.55 -165.601 2439.42 -166.049 2419.41 -175.262V-175.262ZM1834.26 -357.898C1829.23 -361.148 1829.34 -361.678 1835.01 -361.729C1838.63 -361.758 1842.67 -360.038 1843.99 -357.898C1847.03 -352.973 1841.88 -352.973 1834.26 -357.898H1834.26ZM225.635 -633.783C224.435 -635.723 226.958 -636.395 231.241 -635.275C240.326 -632.899 241.475 -630.255 233.422 -630.255C230.338 -630.255 226.834 -631.843 225.635 -633.783V-633.783Z" fill="#B8A337"/>
</svg>
