<?xml version="1.0" standalone="no"?>
 <!DOCTYPE svg PUBLIC "-//W3C//DTD SVG 1.1//EN" 
 "http://www.w3.org/Graphics/SVG/1.1/DTD/svg11.dtd"> 
<svg
  xmlns:svg="http://www.w3.org/2000/svg"
  xmlns="http://www.w3.org/2000/svg"
  xmlns:xlink="http://www.w3.org/1999/xlink"
  version="1.1"
  width="29.700220cm" height="21.000720cm" viewBox="0 0 297002200 210007200">
<title>SVG Picture created as full-case-outer-brd.svg date 2021/04/05 16:15:52 </title>
  <desc>Picture generated by PCBNEW </desc>
<g style="fill:#000000; fill-opacity:1.000000;stroke:#000000; stroke-opacity:1.000000;
stroke-linecap:round; stroke-linejoin:round;"
 transform="translate(0 0) scale(1 1)">
</g>
<g style="fill:#000000; fill-opacity:0.0; 
stroke:#000000; stroke-width:0.000000; stroke-opacity:1; 
stroke-linecap:round; stroke-linejoin:round;">
</g>
<g style="fill:#000000; fill-opacity:0.0; 
stroke:#000000; stroke-width:50000.000000; stroke-opacity:1; 
stroke-linecap:round; stroke-linejoin:round;">
<path d="M59381250 134143750
L59531250 107156250
" />
<path d="M281931250.000000 62706250.000000 A8881250.000000 8881250.000000 0.0 0 0 273050000.000000 53825000.000000" />
<path d="M215900000 143025000
L68262500 143025000
" />
<path d="M281931250 62706250
L281931250 96043750
" />
<path d="M30162500.000000 53825000.000000 A8881250.000000 8881250.000000 0.0 0 0 21281250.000000 62706250.000000" />
<path d="M21281250.000000 96043750.000000 A8881250.000000 8881250.000000 0.0 0 0 30162500.000000 104925000.000000" />
<path d="M224781250 134143750
L224781250 107156250
" />
<path d="M30162500 53825000
L273050000 53825000
" />
<path d="M59531250.000000 107156250.000000 A2381250.000000 2381250.000000 0.0 0 0 57150000.000000 104775000.000000" />
<path d="M227012500.000000 104925000.000000 A2231250.000000 2231250.000000 0.0 0 0 224781250.000000 107156250.000000" />
<path d="M21281250 96043750
L21281250 62706250
" />
<path d="M215900000.000000 143025000.000000 A8881250.000000 8881250.000000 0.0 0 0 224781250.000000 134143750.000000" />
<path d="M59381250.000000 134143750.000000 A8881250.000000 8881250.000000 0.0 0 0 68262500.000000 143025000.000000" />
<path d="M57150000 104775000
L30162500 104925000
" />
<path d="M273050000.000000 104925000.000000 A8881250.000000 8881250.000000 0.0 0 0 281931250.000000 96043750.000000" />
<path d="M273050000 104925000
L227012500 104925000
" />
<g >
</g>
<g >
</g>
<g >
</g>
</g> 
</svg>
