G04 #@! TF.GenerationSoftware,KiCad,Pcbnew,(5.99.0-10431-gb63c482347)*
G04 #@! TF.CreationDate,2021-05-28T11:00:37-07:00*
G04 #@! TF.ProjectId,back-plate,6261636b-2d70-46c6-9174-652e6b696361,rev?*
G04 #@! TF.SameCoordinates,Original*
G04 #@! TF.FileFunction,Copper,L1,Top*
G04 #@! TF.FilePolarity,Positive*
%FSLAX46Y46*%
G04 Gerber Fmt 4.6, Leading zero omitted, Abs format (unit mm)*
G04 Created by KiCad (PCBNEW (5.99.0-10431-gb63c482347)) date 2021-05-28 11:00:37*
%MOMM*%
%LPD*%
G01*
G04 APERTURE LIST*
G04 APERTURE END LIST*
G04 #@! TA.AperFunction,NonConductor*
G36*
X272989073Y-60834841D02*
G01*
X272998448Y-60836462D01*
X272998454Y-60836463D01*
X273003247Y-60837291D01*
X273048299Y-60838043D01*
X273128461Y-60839383D01*
X273134595Y-60839635D01*
X273177288Y-60842432D01*
X273190870Y-60843323D01*
X273199063Y-60844129D01*
X273249282Y-60850741D01*
X273387955Y-60868998D01*
X273396087Y-60870341D01*
X273432821Y-60877647D01*
X273440853Y-60879519D01*
X273624887Y-60928831D01*
X273632752Y-60931217D01*
X273668219Y-60943256D01*
X273668222Y-60943257D01*
X273675937Y-60946161D01*
X273851969Y-61019076D01*
X273859473Y-61022476D01*
X273859486Y-61022482D01*
X273893060Y-61039039D01*
X273900331Y-61042926D01*
X274065314Y-61138179D01*
X274072312Y-61142530D01*
X274103471Y-61163349D01*
X274110138Y-61168127D01*
X274261341Y-61284149D01*
X274267667Y-61289341D01*
X274290770Y-61309602D01*
X274295839Y-61314048D01*
X274301854Y-61319682D01*
X274436562Y-61454389D01*
X274442197Y-61460406D01*
X274466897Y-61488570D01*
X274472116Y-61494928D01*
X274587869Y-61645780D01*
X274588107Y-61646090D01*
X274592910Y-61652793D01*
X274613720Y-61683938D01*
X274618073Y-61690939D01*
X274713329Y-61855928D01*
X274717211Y-61863190D01*
X274733771Y-61896770D01*
X274737172Y-61904275D01*
X274810090Y-62080313D01*
X274812994Y-62088030D01*
X274825023Y-62123467D01*
X274827417Y-62131357D01*
X274876733Y-62315409D01*
X274878605Y-62323438D01*
X274885909Y-62360156D01*
X274887251Y-62368284D01*
X274905497Y-62506870D01*
X274912120Y-62557178D01*
X274912928Y-62565385D01*
X274916617Y-62621675D01*
X274916869Y-62627810D01*
X274918905Y-62749726D01*
X274919615Y-62754155D01*
X274921662Y-62766926D01*
X274923250Y-62786868D01*
X274923250Y-95961362D01*
X274921409Y-95982823D01*
X274919788Y-95992198D01*
X274919787Y-95992204D01*
X274918959Y-95996997D01*
X274918673Y-96014132D01*
X274916867Y-96122211D01*
X274916615Y-96128345D01*
X274912928Y-96184613D01*
X274912121Y-96192813D01*
X274909949Y-96209312D01*
X274887251Y-96381712D01*
X274885909Y-96389842D01*
X274878599Y-96426594D01*
X274876733Y-96434594D01*
X274827418Y-96618636D01*
X274825025Y-96626526D01*
X274812994Y-96661968D01*
X274810090Y-96669684D01*
X274737174Y-96845720D01*
X274733780Y-96853212D01*
X274717203Y-96886825D01*
X274713324Y-96894082D01*
X274618077Y-97059055D01*
X274613723Y-97066057D01*
X274592898Y-97097224D01*
X274588096Y-97103925D01*
X274472116Y-97255072D01*
X274466916Y-97261408D01*
X274444913Y-97286498D01*
X274442202Y-97289589D01*
X274436568Y-97295603D01*
X274301848Y-97430323D01*
X274295830Y-97435960D01*
X274267676Y-97460650D01*
X274261303Y-97465880D01*
X274110175Y-97581845D01*
X274103475Y-97586647D01*
X274072314Y-97607469D01*
X274065318Y-97611819D01*
X274017006Y-97639712D01*
X273900334Y-97707072D01*
X273893063Y-97710959D01*
X273859475Y-97727523D01*
X273851964Y-97730926D01*
X273675938Y-97803839D01*
X273668226Y-97806742D01*
X273632752Y-97818784D01*
X273624904Y-97821164D01*
X273445088Y-97869345D01*
X273440838Y-97870484D01*
X273432807Y-97872356D01*
X273396094Y-97879658D01*
X273387962Y-97881001D01*
X273297615Y-97892896D01*
X273199060Y-97905871D01*
X273190876Y-97906677D01*
X273141246Y-97909930D01*
X273134575Y-97910367D01*
X273128440Y-97910619D01*
X273092039Y-97911227D01*
X273011014Y-97912580D01*
X273006525Y-97912655D01*
X272990280Y-97915259D01*
X272989325Y-97915412D01*
X272969383Y-97917000D01*
X220740957Y-97917000D01*
X220723657Y-97915806D01*
X220692119Y-97911434D01*
X220687254Y-97911515D01*
X220687250Y-97911515D01*
X220615774Y-97912709D01*
X220505124Y-97914557D01*
X220500102Y-97914540D01*
X220477500Y-97914008D01*
X220472667Y-97914644D01*
X220472452Y-97914656D01*
X220467801Y-97915167D01*
X220467604Y-97915184D01*
X220463120Y-97915259D01*
X220458696Y-97915968D01*
X220458686Y-97915969D01*
X220442429Y-97918575D01*
X220438934Y-97919085D01*
X220267241Y-97941689D01*
X220128219Y-97959991D01*
X220125303Y-97960341D01*
X220118590Y-97961064D01*
X220106411Y-97962376D01*
X220106408Y-97962377D01*
X220101569Y-97962898D01*
X220097153Y-97964081D01*
X220095879Y-97964249D01*
X220082320Y-97968047D01*
X220081049Y-97968396D01*
X219761229Y-98054092D01*
X219758374Y-98054821D01*
X219739966Y-98059291D01*
X219739964Y-98059292D01*
X219735235Y-98060440D01*
X219731017Y-98062187D01*
X219729771Y-98062521D01*
X219716738Y-98068093D01*
X219715469Y-98068627D01*
X219409745Y-98195263D01*
X219406990Y-98196366D01*
X219389315Y-98203204D01*
X219389311Y-98203206D01*
X219384769Y-98204963D01*
X219380811Y-98207248D01*
X219379621Y-98207741D01*
X219367409Y-98214978D01*
X219366333Y-98215607D01*
X219090347Y-98374947D01*
X219079638Y-98381130D01*
X219077052Y-98382582D01*
X219066512Y-98388341D01*
X219056163Y-98393995D01*
X219052542Y-98396774D01*
X219051424Y-98397419D01*
X219040227Y-98406214D01*
X219039188Y-98407020D01*
X218776674Y-98608455D01*
X218774317Y-98610220D01*
X218755044Y-98624301D01*
X218751814Y-98627531D01*
X218750791Y-98628316D01*
X218750054Y-98629070D01*
X218740950Y-98638383D01*
X218739944Y-98639401D01*
X218505891Y-98873453D01*
X218503768Y-98875526D01*
X218492874Y-98885919D01*
X218486562Y-98891940D01*
X218483785Y-98895559D01*
X218482869Y-98896475D01*
X218482239Y-98897316D01*
X218474357Y-98907833D01*
X218473497Y-98908967D01*
X218452760Y-98935992D01*
X218272071Y-99171469D01*
X218270281Y-99173747D01*
X218255308Y-99192336D01*
X218253028Y-99196285D01*
X218252240Y-99197312D01*
X218248369Y-99204196D01*
X218245296Y-99209661D01*
X218244593Y-99210894D01*
X218079119Y-99497506D01*
X218077700Y-99499899D01*
X218065245Y-99520343D01*
X218063496Y-99524566D01*
X218062852Y-99525681D01*
X218062465Y-99526646D01*
X218057615Y-99538742D01*
X218057076Y-99540064D01*
X217930415Y-99845851D01*
X217929254Y-99848563D01*
X217919620Y-99870355D01*
X217918439Y-99874761D01*
X217917944Y-99875957D01*
X217917686Y-99876964D01*
X217917685Y-99876968D01*
X217914434Y-99889677D01*
X217914078Y-99891040D01*
X217829881Y-100205266D01*
X217828430Y-100210680D01*
X217827640Y-100213495D01*
X217820927Y-100236379D01*
X217820331Y-100240905D01*
X217819997Y-100242152D01*
X217819873Y-100243182D01*
X217819871Y-100243193D01*
X217818306Y-100256221D01*
X217818128Y-100257638D01*
X217776174Y-100576316D01*
X217775413Y-100581319D01*
X217771563Y-100603592D01*
X217771482Y-100608458D01*
X217771463Y-100608658D01*
X217771284Y-100613341D01*
X217771271Y-100613557D01*
X217770686Y-100618000D01*
X217770737Y-100622483D01*
X217770923Y-100638942D01*
X217770913Y-100642472D01*
X217770848Y-100646354D01*
X217767738Y-100832591D01*
X217768299Y-100837036D01*
X217772258Y-100868405D01*
X217773250Y-100884182D01*
X217773250Y-134061362D01*
X217771409Y-134082823D01*
X217769788Y-134092198D01*
X217769787Y-134092204D01*
X217768959Y-134096997D01*
X217768673Y-134114132D01*
X217766867Y-134222211D01*
X217766615Y-134228345D01*
X217762928Y-134284613D01*
X217762121Y-134292813D01*
X217759949Y-134309312D01*
X217737251Y-134481712D01*
X217735909Y-134489842D01*
X217728599Y-134526594D01*
X217726733Y-134534594D01*
X217677418Y-134718636D01*
X217675025Y-134726526D01*
X217662994Y-134761968D01*
X217660090Y-134769684D01*
X217587174Y-134945720D01*
X217583780Y-134953212D01*
X217567203Y-134986825D01*
X217563324Y-134994082D01*
X217468077Y-135159055D01*
X217463723Y-135166057D01*
X217442898Y-135197224D01*
X217438096Y-135203925D01*
X217322116Y-135355072D01*
X217316916Y-135361408D01*
X217294913Y-135386498D01*
X217292202Y-135389589D01*
X217286568Y-135395603D01*
X217151848Y-135530323D01*
X217145830Y-135535960D01*
X217117676Y-135560650D01*
X217111303Y-135565880D01*
X216960175Y-135681845D01*
X216953475Y-135686647D01*
X216922314Y-135707469D01*
X216915318Y-135711819D01*
X216867006Y-135739712D01*
X216750334Y-135807072D01*
X216743063Y-135810959D01*
X216709475Y-135827523D01*
X216701964Y-135830926D01*
X216525938Y-135903839D01*
X216518226Y-135906742D01*
X216482752Y-135918784D01*
X216474904Y-135921164D01*
X216295088Y-135969345D01*
X216290838Y-135970484D01*
X216282807Y-135972356D01*
X216246094Y-135979658D01*
X216237962Y-135981001D01*
X216147615Y-135992896D01*
X216049060Y-136005871D01*
X216040876Y-136006677D01*
X215991246Y-136009930D01*
X215984575Y-136010367D01*
X215978440Y-136010619D01*
X215942039Y-136011227D01*
X215861014Y-136012580D01*
X215856525Y-136012655D01*
X215840903Y-136015159D01*
X215839325Y-136015412D01*
X215819383Y-136017000D01*
X68344888Y-136017000D01*
X68323427Y-136015159D01*
X68314052Y-136013538D01*
X68314046Y-136013537D01*
X68309253Y-136012709D01*
X68264201Y-136011957D01*
X68184039Y-136010617D01*
X68177905Y-136010365D01*
X68135212Y-136007568D01*
X68121630Y-136006677D01*
X68113437Y-136005871D01*
X68066796Y-135999730D01*
X67924538Y-135981001D01*
X67916408Y-135979659D01*
X67911284Y-135978640D01*
X67879656Y-135972349D01*
X67871656Y-135970483D01*
X67687614Y-135921168D01*
X67679724Y-135918775D01*
X67644282Y-135906744D01*
X67636566Y-135903840D01*
X67460535Y-135830926D01*
X67460523Y-135830921D01*
X67453038Y-135827530D01*
X67419425Y-135810953D01*
X67412168Y-135807074D01*
X67247195Y-135711827D01*
X67240193Y-135707473D01*
X67209026Y-135686648D01*
X67202324Y-135681845D01*
X67155664Y-135646041D01*
X67051178Y-135565866D01*
X67044842Y-135560666D01*
X67016661Y-135535952D01*
X67010647Y-135530318D01*
X66875927Y-135395598D01*
X66870290Y-135389580D01*
X66845600Y-135361426D01*
X66840370Y-135355053D01*
X66724405Y-135203925D01*
X66719603Y-135197225D01*
X66698781Y-135166064D01*
X66694426Y-135159060D01*
X66599178Y-134994084D01*
X66595291Y-134986813D01*
X66578727Y-134953225D01*
X66575324Y-134945714D01*
X66502411Y-134769688D01*
X66499508Y-134761975D01*
X66499506Y-134761968D01*
X66487466Y-134726502D01*
X66485086Y-134718654D01*
X66435766Y-134534588D01*
X66433894Y-134526557D01*
X66426592Y-134489844D01*
X66425249Y-134481712D01*
X66402551Y-134309312D01*
X66400379Y-134292810D01*
X66399572Y-134284615D01*
X66395883Y-134228325D01*
X66395631Y-134222189D01*
X66393670Y-134104764D01*
X66393595Y-134100275D01*
X66390838Y-134083075D01*
X66389250Y-134063133D01*
X66389250Y-127000000D01*
X83317750Y-127000000D01*
X83337615Y-127252407D01*
X83396720Y-127498599D01*
X83493611Y-127732514D01*
X83625901Y-127948392D01*
X83629112Y-127952152D01*
X83629116Y-127952157D01*
X83774428Y-128122295D01*
X83790333Y-128140917D01*
X83794095Y-128144130D01*
X83979093Y-128302134D01*
X83979098Y-128302138D01*
X83982858Y-128305349D01*
X84198736Y-128437639D01*
X84203306Y-128439532D01*
X84203310Y-128439534D01*
X84428078Y-128532636D01*
X84432651Y-128534530D01*
X84517356Y-128554866D01*
X84674030Y-128592480D01*
X84674036Y-128592481D01*
X84678843Y-128593635D01*
X84931250Y-128613500D01*
X85183657Y-128593635D01*
X85188464Y-128592481D01*
X85188470Y-128592480D01*
X85345144Y-128554866D01*
X85429849Y-128534530D01*
X85434422Y-128532636D01*
X85659190Y-128439534D01*
X85659194Y-128439532D01*
X85663764Y-128437639D01*
X85879642Y-128305349D01*
X85883402Y-128302138D01*
X85883407Y-128302134D01*
X86068405Y-128144130D01*
X86072167Y-128140917D01*
X86088072Y-128122295D01*
X86233384Y-127952157D01*
X86233388Y-127952152D01*
X86236599Y-127948392D01*
X86368889Y-127732514D01*
X86465780Y-127498599D01*
X86524885Y-127252407D01*
X86544750Y-127000000D01*
X197617750Y-127000000D01*
X197637615Y-127252407D01*
X197696720Y-127498599D01*
X197793611Y-127732514D01*
X197925901Y-127948392D01*
X197929112Y-127952152D01*
X197929116Y-127952157D01*
X198074428Y-128122295D01*
X198090333Y-128140917D01*
X198094095Y-128144130D01*
X198279093Y-128302134D01*
X198279098Y-128302138D01*
X198282858Y-128305349D01*
X198498736Y-128437639D01*
X198503306Y-128439532D01*
X198503310Y-128439534D01*
X198728078Y-128532636D01*
X198732651Y-128534530D01*
X198817356Y-128554866D01*
X198974030Y-128592480D01*
X198974036Y-128592481D01*
X198978843Y-128593635D01*
X199231250Y-128613500D01*
X199483657Y-128593635D01*
X199488464Y-128592481D01*
X199488470Y-128592480D01*
X199645144Y-128554866D01*
X199729849Y-128534530D01*
X199734422Y-128532636D01*
X199959190Y-128439534D01*
X199959194Y-128439532D01*
X199963764Y-128437639D01*
X200179642Y-128305349D01*
X200183402Y-128302138D01*
X200183407Y-128302134D01*
X200368405Y-128144130D01*
X200372167Y-128140917D01*
X200388072Y-128122295D01*
X200533384Y-127952157D01*
X200533388Y-127952152D01*
X200536599Y-127948392D01*
X200668889Y-127732514D01*
X200765780Y-127498599D01*
X200824885Y-127252407D01*
X200844750Y-127000000D01*
X200824885Y-126747593D01*
X200765780Y-126501401D01*
X200668889Y-126267486D01*
X200536599Y-126051608D01*
X200533388Y-126047848D01*
X200533384Y-126047843D01*
X200375380Y-125862845D01*
X200372167Y-125859083D01*
X200353545Y-125843178D01*
X200183407Y-125697866D01*
X200183402Y-125697862D01*
X200179642Y-125694651D01*
X199963764Y-125562361D01*
X199959194Y-125560468D01*
X199959190Y-125560466D01*
X199734422Y-125467364D01*
X199734420Y-125467363D01*
X199729849Y-125465470D01*
X199645144Y-125445134D01*
X199488470Y-125407520D01*
X199488464Y-125407519D01*
X199483657Y-125406365D01*
X199231250Y-125386500D01*
X198978843Y-125406365D01*
X198974036Y-125407519D01*
X198974030Y-125407520D01*
X198817356Y-125445134D01*
X198732651Y-125465470D01*
X198728080Y-125467363D01*
X198728078Y-125467364D01*
X198503310Y-125560466D01*
X198503306Y-125560468D01*
X198498736Y-125562361D01*
X198282858Y-125694651D01*
X198279098Y-125697862D01*
X198279093Y-125697866D01*
X198108955Y-125843178D01*
X198090333Y-125859083D01*
X198087120Y-125862845D01*
X197929116Y-126047843D01*
X197929112Y-126047848D01*
X197925901Y-126051608D01*
X197793611Y-126267486D01*
X197696720Y-126501401D01*
X197637615Y-126747593D01*
X197617750Y-127000000D01*
X86544750Y-127000000D01*
X86524885Y-126747593D01*
X86465780Y-126501401D01*
X86368889Y-126267486D01*
X86236599Y-126051608D01*
X86233388Y-126047848D01*
X86233384Y-126047843D01*
X86075380Y-125862845D01*
X86072167Y-125859083D01*
X86053545Y-125843178D01*
X85883407Y-125697866D01*
X85883402Y-125697862D01*
X85879642Y-125694651D01*
X85663764Y-125562361D01*
X85659194Y-125560468D01*
X85659190Y-125560466D01*
X85434422Y-125467364D01*
X85434420Y-125467363D01*
X85429849Y-125465470D01*
X85345144Y-125445134D01*
X85188470Y-125407520D01*
X85188464Y-125407519D01*
X85183657Y-125406365D01*
X84931250Y-125386500D01*
X84678843Y-125406365D01*
X84674036Y-125407519D01*
X84674030Y-125407520D01*
X84517356Y-125445134D01*
X84432651Y-125465470D01*
X84428080Y-125467363D01*
X84428078Y-125467364D01*
X84203310Y-125560466D01*
X84203306Y-125560468D01*
X84198736Y-125562361D01*
X83982858Y-125694651D01*
X83979098Y-125697862D01*
X83979093Y-125697866D01*
X83808955Y-125843178D01*
X83790333Y-125859083D01*
X83787120Y-125862845D01*
X83629116Y-126047843D01*
X83629112Y-126047848D01*
X83625901Y-126051608D01*
X83493611Y-126267486D01*
X83396720Y-126501401D01*
X83337615Y-126747593D01*
X83317750Y-127000000D01*
X66389250Y-127000000D01*
X66389250Y-100884707D01*
X66390444Y-100867404D01*
X66394816Y-100835869D01*
X66394687Y-100828110D01*
X66391693Y-100648897D01*
X66391710Y-100643852D01*
X66392242Y-100621250D01*
X66391606Y-100616417D01*
X66391594Y-100616202D01*
X66391083Y-100611551D01*
X66391066Y-100611354D01*
X66390991Y-100606870D01*
X66390282Y-100602446D01*
X66390281Y-100602436D01*
X66387675Y-100586179D01*
X66387165Y-100582684D01*
X66346261Y-100271989D01*
X66345908Y-100269041D01*
X66343874Y-100250161D01*
X66343873Y-100250158D01*
X66343352Y-100245319D01*
X66342169Y-100240903D01*
X66342001Y-100239629D01*
X66338203Y-100226070D01*
X66337836Y-100224734D01*
X66334071Y-100210680D01*
X66252158Y-99904979D01*
X66251429Y-99902124D01*
X66246959Y-99883716D01*
X66246958Y-99883714D01*
X66245810Y-99878985D01*
X66244063Y-99874767D01*
X66243729Y-99873521D01*
X66238157Y-99860488D01*
X66237623Y-99859219D01*
X66110987Y-99553495D01*
X66109884Y-99550740D01*
X66103046Y-99533065D01*
X66103044Y-99533061D01*
X66101287Y-99528519D01*
X66099002Y-99524561D01*
X66098509Y-99523371D01*
X66091272Y-99511159D01*
X66090643Y-99510083D01*
X65925120Y-99223388D01*
X65923668Y-99220802D01*
X65914595Y-99204196D01*
X65912255Y-99199913D01*
X65909476Y-99196292D01*
X65908831Y-99195174D01*
X65900036Y-99183977D01*
X65899230Y-99182938D01*
X65712849Y-98940043D01*
X65697793Y-98920421D01*
X65696016Y-98918049D01*
X65684824Y-98902729D01*
X65684823Y-98902728D01*
X65681949Y-98898794D01*
X65678719Y-98895564D01*
X65677934Y-98894541D01*
X65667866Y-98884699D01*
X65666849Y-98883694D01*
X65432797Y-98649641D01*
X65430724Y-98647518D01*
X65417674Y-98633838D01*
X65417672Y-98633836D01*
X65414310Y-98630312D01*
X65410691Y-98627535D01*
X65409775Y-98626619D01*
X65398384Y-98618082D01*
X65397277Y-98617242D01*
X65184550Y-98454010D01*
X65134764Y-98415808D01*
X65132503Y-98414031D01*
X65113914Y-98399058D01*
X65109965Y-98396778D01*
X65108938Y-98395990D01*
X65096551Y-98389024D01*
X65095352Y-98388341D01*
X65082862Y-98381130D01*
X64808744Y-98222869D01*
X64806351Y-98221450D01*
X64785907Y-98208995D01*
X64781684Y-98207246D01*
X64780569Y-98206602D01*
X64767459Y-98201345D01*
X64766186Y-98200826D01*
X64716649Y-98180307D01*
X64460371Y-98074153D01*
X64457687Y-98073004D01*
X64435895Y-98063370D01*
X64431489Y-98062189D01*
X64430293Y-98061694D01*
X64429286Y-98061436D01*
X64429282Y-98061435D01*
X64416573Y-98058184D01*
X64415210Y-98057828D01*
X64095551Y-97972175D01*
X64092755Y-97971390D01*
X64069871Y-97964677D01*
X64065345Y-97964081D01*
X64064098Y-97963747D01*
X64063068Y-97963623D01*
X64063057Y-97963621D01*
X64050029Y-97962056D01*
X64048612Y-97961878D01*
X63810634Y-97930548D01*
X63729929Y-97919923D01*
X63724931Y-97919163D01*
X63702658Y-97915313D01*
X63697792Y-97915232D01*
X63697592Y-97915213D01*
X63692909Y-97915034D01*
X63692693Y-97915021D01*
X63688250Y-97914436D01*
X63675604Y-97914579D01*
X63667308Y-97914673D01*
X63663778Y-97914663D01*
X63560096Y-97912932D01*
X63473659Y-97911488D01*
X63458787Y-97913365D01*
X63437845Y-97916008D01*
X63422068Y-97917000D01*
X30244888Y-97917000D01*
X30223427Y-97915159D01*
X30214052Y-97913538D01*
X30214046Y-97913537D01*
X30209253Y-97912709D01*
X30164201Y-97911957D01*
X30084039Y-97910617D01*
X30077905Y-97910365D01*
X30035212Y-97907568D01*
X30021630Y-97906677D01*
X30013437Y-97905871D01*
X29966796Y-97899730D01*
X29824538Y-97881001D01*
X29816408Y-97879659D01*
X29811284Y-97878640D01*
X29779656Y-97872349D01*
X29771656Y-97870483D01*
X29587614Y-97821168D01*
X29579724Y-97818775D01*
X29544282Y-97806744D01*
X29536566Y-97803840D01*
X29360535Y-97730926D01*
X29360523Y-97730921D01*
X29353038Y-97727530D01*
X29319425Y-97710953D01*
X29312168Y-97707074D01*
X29147195Y-97611827D01*
X29140193Y-97607473D01*
X29109026Y-97586648D01*
X29102324Y-97581845D01*
X29055664Y-97546041D01*
X28951178Y-97465866D01*
X28944842Y-97460666D01*
X28916661Y-97435952D01*
X28910647Y-97430318D01*
X28775927Y-97295598D01*
X28770290Y-97289580D01*
X28745600Y-97261426D01*
X28740370Y-97255053D01*
X28624405Y-97103925D01*
X28619603Y-97097225D01*
X28598781Y-97066064D01*
X28594426Y-97059060D01*
X28499178Y-96894084D01*
X28495291Y-96886813D01*
X28478727Y-96853225D01*
X28475324Y-96845714D01*
X28402411Y-96669688D01*
X28399508Y-96661975D01*
X28399506Y-96661968D01*
X28387466Y-96626502D01*
X28385086Y-96618654D01*
X28335766Y-96434588D01*
X28333894Y-96426557D01*
X28326592Y-96389844D01*
X28325249Y-96381712D01*
X28302551Y-96209312D01*
X28300379Y-96192810D01*
X28299572Y-96184615D01*
X28295883Y-96128325D01*
X28295631Y-96122189D01*
X28293670Y-96004764D01*
X28293595Y-96000275D01*
X28290838Y-95983075D01*
X28289250Y-95963133D01*
X28289250Y-79375000D01*
X45217750Y-79375000D01*
X45237615Y-79627407D01*
X45296720Y-79873599D01*
X45393611Y-80107514D01*
X45525901Y-80323392D01*
X45529112Y-80327152D01*
X45529116Y-80327157D01*
X45674428Y-80497295D01*
X45690333Y-80515917D01*
X45694095Y-80519130D01*
X45879093Y-80677134D01*
X45879098Y-80677138D01*
X45882858Y-80680349D01*
X46098736Y-80812639D01*
X46103306Y-80814532D01*
X46103310Y-80814534D01*
X46328078Y-80907636D01*
X46332651Y-80909530D01*
X46417356Y-80929866D01*
X46574030Y-80967480D01*
X46574036Y-80967481D01*
X46578843Y-80968635D01*
X46831250Y-80988500D01*
X47083657Y-80968635D01*
X47088464Y-80967481D01*
X47088470Y-80967480D01*
X47245144Y-80929866D01*
X47329849Y-80909530D01*
X47334422Y-80907636D01*
X47559190Y-80814534D01*
X47559194Y-80814532D01*
X47563764Y-80812639D01*
X47779642Y-80680349D01*
X47783402Y-80677138D01*
X47783407Y-80677134D01*
X47968405Y-80519130D01*
X47972167Y-80515917D01*
X47988072Y-80497295D01*
X48133384Y-80327157D01*
X48133388Y-80327152D01*
X48136599Y-80323392D01*
X48268889Y-80107514D01*
X48365780Y-79873599D01*
X48424885Y-79627407D01*
X48444750Y-79375000D01*
X102367750Y-79375000D01*
X102387615Y-79627407D01*
X102446720Y-79873599D01*
X102543611Y-80107514D01*
X102675901Y-80323392D01*
X102679112Y-80327152D01*
X102679116Y-80327157D01*
X102824428Y-80497295D01*
X102840333Y-80515917D01*
X102844095Y-80519130D01*
X103029093Y-80677134D01*
X103029098Y-80677138D01*
X103032858Y-80680349D01*
X103248736Y-80812639D01*
X103253306Y-80814532D01*
X103253310Y-80814534D01*
X103478078Y-80907636D01*
X103482651Y-80909530D01*
X103567356Y-80929866D01*
X103724030Y-80967480D01*
X103724036Y-80967481D01*
X103728843Y-80968635D01*
X103981250Y-80988500D01*
X104233657Y-80968635D01*
X104238464Y-80967481D01*
X104238470Y-80967480D01*
X104395144Y-80929866D01*
X104479849Y-80909530D01*
X104484422Y-80907636D01*
X104709190Y-80814534D01*
X104709194Y-80814532D01*
X104713764Y-80812639D01*
X104929642Y-80680349D01*
X104933402Y-80677138D01*
X104933407Y-80677134D01*
X105118405Y-80519130D01*
X105122167Y-80515917D01*
X105138072Y-80497295D01*
X105283384Y-80327157D01*
X105283388Y-80327152D01*
X105286599Y-80323392D01*
X105418889Y-80107514D01*
X105515780Y-79873599D01*
X105574885Y-79627407D01*
X105594750Y-79375000D01*
X178567750Y-79375000D01*
X178587615Y-79627407D01*
X178646720Y-79873599D01*
X178743611Y-80107514D01*
X178875901Y-80323392D01*
X178879112Y-80327152D01*
X178879116Y-80327157D01*
X179024428Y-80497295D01*
X179040333Y-80515917D01*
X179044095Y-80519130D01*
X179229093Y-80677134D01*
X179229098Y-80677138D01*
X179232858Y-80680349D01*
X179448736Y-80812639D01*
X179453306Y-80814532D01*
X179453310Y-80814534D01*
X179678078Y-80907636D01*
X179682651Y-80909530D01*
X179767356Y-80929866D01*
X179924030Y-80967480D01*
X179924036Y-80967481D01*
X179928843Y-80968635D01*
X180181250Y-80988500D01*
X180433657Y-80968635D01*
X180438464Y-80967481D01*
X180438470Y-80967480D01*
X180595144Y-80929866D01*
X180679849Y-80909530D01*
X180684422Y-80907636D01*
X180909190Y-80814534D01*
X180909194Y-80814532D01*
X180913764Y-80812639D01*
X181129642Y-80680349D01*
X181133402Y-80677138D01*
X181133407Y-80677134D01*
X181318405Y-80519130D01*
X181322167Y-80515917D01*
X181338072Y-80497295D01*
X181483384Y-80327157D01*
X181483388Y-80327152D01*
X181486599Y-80323392D01*
X181618889Y-80107514D01*
X181715780Y-79873599D01*
X181774885Y-79627407D01*
X181794750Y-79375000D01*
X254767750Y-79375000D01*
X254787615Y-79627407D01*
X254846720Y-79873599D01*
X254943611Y-80107514D01*
X255075901Y-80323392D01*
X255079112Y-80327152D01*
X255079116Y-80327157D01*
X255224428Y-80497295D01*
X255240333Y-80515917D01*
X255244095Y-80519130D01*
X255429093Y-80677134D01*
X255429098Y-80677138D01*
X255432858Y-80680349D01*
X255648736Y-80812639D01*
X255653306Y-80814532D01*
X255653310Y-80814534D01*
X255878078Y-80907636D01*
X255882651Y-80909530D01*
X255967356Y-80929866D01*
X256124030Y-80967480D01*
X256124036Y-80967481D01*
X256128843Y-80968635D01*
X256381250Y-80988500D01*
X256633657Y-80968635D01*
X256638464Y-80967481D01*
X256638470Y-80967480D01*
X256795144Y-80929866D01*
X256879849Y-80909530D01*
X256884422Y-80907636D01*
X257109190Y-80814534D01*
X257109194Y-80814532D01*
X257113764Y-80812639D01*
X257329642Y-80680349D01*
X257333402Y-80677138D01*
X257333407Y-80677134D01*
X257518405Y-80519130D01*
X257522167Y-80515917D01*
X257538072Y-80497295D01*
X257683384Y-80327157D01*
X257683388Y-80327152D01*
X257686599Y-80323392D01*
X257818889Y-80107514D01*
X257915780Y-79873599D01*
X257974885Y-79627407D01*
X257994750Y-79375000D01*
X257974885Y-79122593D01*
X257915780Y-78876401D01*
X257818889Y-78642486D01*
X257686599Y-78426608D01*
X257683388Y-78422848D01*
X257683384Y-78422843D01*
X257525380Y-78237845D01*
X257522167Y-78234083D01*
X257503545Y-78218178D01*
X257333407Y-78072866D01*
X257333402Y-78072862D01*
X257329642Y-78069651D01*
X257113764Y-77937361D01*
X257109194Y-77935468D01*
X257109190Y-77935466D01*
X256884422Y-77842364D01*
X256884420Y-77842363D01*
X256879849Y-77840470D01*
X256795144Y-77820134D01*
X256638470Y-77782520D01*
X256638464Y-77782519D01*
X256633657Y-77781365D01*
X256381250Y-77761500D01*
X256128843Y-77781365D01*
X256124036Y-77782519D01*
X256124030Y-77782520D01*
X255967356Y-77820134D01*
X255882651Y-77840470D01*
X255878080Y-77842363D01*
X255878078Y-77842364D01*
X255653310Y-77935466D01*
X255653306Y-77935468D01*
X255648736Y-77937361D01*
X255432858Y-78069651D01*
X255429098Y-78072862D01*
X255429093Y-78072866D01*
X255258955Y-78218178D01*
X255240333Y-78234083D01*
X255237120Y-78237845D01*
X255079116Y-78422843D01*
X255079112Y-78422848D01*
X255075901Y-78426608D01*
X254943611Y-78642486D01*
X254846720Y-78876401D01*
X254787615Y-79122593D01*
X254767750Y-79375000D01*
X181794750Y-79375000D01*
X181774885Y-79122593D01*
X181715780Y-78876401D01*
X181618889Y-78642486D01*
X181486599Y-78426608D01*
X181483388Y-78422848D01*
X181483384Y-78422843D01*
X181325380Y-78237845D01*
X181322167Y-78234083D01*
X181303545Y-78218178D01*
X181133407Y-78072866D01*
X181133402Y-78072862D01*
X181129642Y-78069651D01*
X180913764Y-77937361D01*
X180909194Y-77935468D01*
X180909190Y-77935466D01*
X180684422Y-77842364D01*
X180684420Y-77842363D01*
X180679849Y-77840470D01*
X180595144Y-77820134D01*
X180438470Y-77782520D01*
X180438464Y-77782519D01*
X180433657Y-77781365D01*
X180181250Y-77761500D01*
X179928843Y-77781365D01*
X179924036Y-77782519D01*
X179924030Y-77782520D01*
X179767356Y-77820134D01*
X179682651Y-77840470D01*
X179678080Y-77842363D01*
X179678078Y-77842364D01*
X179453310Y-77935466D01*
X179453306Y-77935468D01*
X179448736Y-77937361D01*
X179232858Y-78069651D01*
X179229098Y-78072862D01*
X179229093Y-78072866D01*
X179058955Y-78218178D01*
X179040333Y-78234083D01*
X179037120Y-78237845D01*
X178879116Y-78422843D01*
X178879112Y-78422848D01*
X178875901Y-78426608D01*
X178743611Y-78642486D01*
X178646720Y-78876401D01*
X178587615Y-79122593D01*
X178567750Y-79375000D01*
X105594750Y-79375000D01*
X105574885Y-79122593D01*
X105515780Y-78876401D01*
X105418889Y-78642486D01*
X105286599Y-78426608D01*
X105283388Y-78422848D01*
X105283384Y-78422843D01*
X105125380Y-78237845D01*
X105122167Y-78234083D01*
X105103545Y-78218178D01*
X104933407Y-78072866D01*
X104933402Y-78072862D01*
X104929642Y-78069651D01*
X104713764Y-77937361D01*
X104709194Y-77935468D01*
X104709190Y-77935466D01*
X104484422Y-77842364D01*
X104484420Y-77842363D01*
X104479849Y-77840470D01*
X104395144Y-77820134D01*
X104238470Y-77782520D01*
X104238464Y-77782519D01*
X104233657Y-77781365D01*
X103981250Y-77761500D01*
X103728843Y-77781365D01*
X103724036Y-77782519D01*
X103724030Y-77782520D01*
X103567356Y-77820134D01*
X103482651Y-77840470D01*
X103478080Y-77842363D01*
X103478078Y-77842364D01*
X103253310Y-77935466D01*
X103253306Y-77935468D01*
X103248736Y-77937361D01*
X103032858Y-78069651D01*
X103029098Y-78072862D01*
X103029093Y-78072866D01*
X102858955Y-78218178D01*
X102840333Y-78234083D01*
X102837120Y-78237845D01*
X102679116Y-78422843D01*
X102679112Y-78422848D01*
X102675901Y-78426608D01*
X102543611Y-78642486D01*
X102446720Y-78876401D01*
X102387615Y-79122593D01*
X102367750Y-79375000D01*
X48444750Y-79375000D01*
X48424885Y-79122593D01*
X48365780Y-78876401D01*
X48268889Y-78642486D01*
X48136599Y-78426608D01*
X48133388Y-78422848D01*
X48133384Y-78422843D01*
X47975380Y-78237845D01*
X47972167Y-78234083D01*
X47953545Y-78218178D01*
X47783407Y-78072866D01*
X47783402Y-78072862D01*
X47779642Y-78069651D01*
X47563764Y-77937361D01*
X47559194Y-77935468D01*
X47559190Y-77935466D01*
X47334422Y-77842364D01*
X47334420Y-77842363D01*
X47329849Y-77840470D01*
X47245144Y-77820134D01*
X47088470Y-77782520D01*
X47088464Y-77782519D01*
X47083657Y-77781365D01*
X46831250Y-77761500D01*
X46578843Y-77781365D01*
X46574036Y-77782519D01*
X46574030Y-77782520D01*
X46417356Y-77820134D01*
X46332651Y-77840470D01*
X46328080Y-77842363D01*
X46328078Y-77842364D01*
X46103310Y-77935466D01*
X46103306Y-77935468D01*
X46098736Y-77937361D01*
X45882858Y-78069651D01*
X45879098Y-78072862D01*
X45879093Y-78072866D01*
X45708955Y-78218178D01*
X45690333Y-78234083D01*
X45687120Y-78237845D01*
X45529116Y-78422843D01*
X45529112Y-78422848D01*
X45525901Y-78426608D01*
X45393611Y-78642486D01*
X45296720Y-78876401D01*
X45237615Y-79122593D01*
X45217750Y-79375000D01*
X28289250Y-79375000D01*
X28289250Y-62788638D01*
X28291091Y-62767177D01*
X28292712Y-62757802D01*
X28292713Y-62757796D01*
X28293541Y-62753003D01*
X28294293Y-62707951D01*
X28295633Y-62627789D01*
X28295885Y-62621655D01*
X28299572Y-62565387D01*
X28300380Y-62557179D01*
X28325248Y-62368295D01*
X28326591Y-62360163D01*
X28333897Y-62323429D01*
X28335769Y-62315397D01*
X28382524Y-62140905D01*
X28385081Y-62131363D01*
X28387467Y-62123498D01*
X28399507Y-62088028D01*
X28402411Y-62080313D01*
X28475326Y-61904281D01*
X28478729Y-61896770D01*
X28478733Y-61896763D01*
X28495290Y-61863187D01*
X28499176Y-61855919D01*
X28594429Y-61690936D01*
X28598782Y-61683935D01*
X28619594Y-61652787D01*
X28624377Y-61646111D01*
X28740399Y-61494909D01*
X28745591Y-61488583D01*
X28770298Y-61460411D01*
X28775932Y-61454396D01*
X28910639Y-61319688D01*
X28916656Y-61314053D01*
X28944820Y-61289353D01*
X28951178Y-61284134D01*
X29102340Y-61168143D01*
X29109036Y-61163345D01*
X29140187Y-61142530D01*
X29147189Y-61138177D01*
X29312178Y-61042921D01*
X29319448Y-61039035D01*
X29353031Y-61022474D01*
X29360525Y-61019078D01*
X29536563Y-60946160D01*
X29544271Y-60943259D01*
X29579718Y-60931227D01*
X29587607Y-60928833D01*
X29771659Y-60879517D01*
X29779688Y-60877645D01*
X29797536Y-60874095D01*
X29816412Y-60870340D01*
X29824534Y-60868999D01*
X30013440Y-60844129D01*
X30021624Y-60843323D01*
X30077894Y-60839635D01*
X30077925Y-60839633D01*
X30084060Y-60839381D01*
X30126669Y-60838669D01*
X30201487Y-60837420D01*
X30205976Y-60837345D01*
X30223176Y-60834588D01*
X30243118Y-60833000D01*
X272967612Y-60833000D01*
X272989073Y-60834841D01*
G37*
G04 #@! TD.AperFunction*
M02*
