G04 #@! TF.GenerationSoftware,KiCad,Pcbnew,(5.99.0-11042-g5b8f32acd2)*
G04 #@! TF.CreationDate,2021-06-17T13:37:32-07:00*
G04 #@! TF.ProjectId,back-plate,6261636b-2d70-46c6-9174-652e6b696361,rev?*
G04 #@! TF.SameCoordinates,Original*
G04 #@! TF.FileFunction,Copper,L2,Bot*
G04 #@! TF.FilePolarity,Positive*
%FSLAX46Y46*%
G04 Gerber Fmt 4.6, Leading zero omitted, Abs format (unit mm)*
G04 Created by KiCad (PCBNEW (5.99.0-11042-g5b8f32acd2)) date 2021-06-17 13:37:32*
%MOMM*%
%LPD*%
G01*
G04 APERTURE LIST*
G04 APERTURE END LIST*
G04 #@! TA.AperFunction,NonConductor*
G36*
X273050000Y-60835911D02*
G01*
X273050000Y-60838000D01*
X273079689Y-60838972D01*
X273166009Y-60841798D01*
X273178332Y-60842809D01*
X273406287Y-60872820D01*
X273422452Y-60876035D01*
X273642553Y-60935011D01*
X273658160Y-60940309D01*
X273868683Y-61027510D01*
X273883456Y-61034796D01*
X273964479Y-61081575D01*
X274080788Y-61148726D01*
X274094492Y-61157882D01*
X274275277Y-61296602D01*
X274287668Y-61307470D01*
X274448780Y-61468582D01*
X274459648Y-61480973D01*
X274598368Y-61661758D01*
X274607524Y-61675462D01*
X274721452Y-61872790D01*
X274728742Y-61887572D01*
X274815941Y-62098090D01*
X274821239Y-62113697D01*
X274880215Y-62333798D01*
X274883430Y-62349963D01*
X274913441Y-62577918D01*
X274914452Y-62590241D01*
X274918250Y-62706250D01*
X274916689Y-62706301D01*
X274916697Y-62706565D01*
X274919108Y-62706250D01*
X274922187Y-62729798D01*
X274923250Y-62746134D01*
X274923250Y-95995864D01*
X274921750Y-96015247D01*
X274918288Y-96037483D01*
X274918847Y-96041759D01*
X274918605Y-96043750D01*
X274918250Y-96043750D01*
X274918120Y-96047723D01*
X274914452Y-96159759D01*
X274913441Y-96172082D01*
X274883430Y-96400037D01*
X274880215Y-96416202D01*
X274821239Y-96636303D01*
X274815941Y-96651910D01*
X274728742Y-96862428D01*
X274721452Y-96877210D01*
X274607524Y-97074538D01*
X274598368Y-97088242D01*
X274459648Y-97269027D01*
X274448780Y-97281418D01*
X274287668Y-97442530D01*
X274275277Y-97453398D01*
X274094492Y-97592118D01*
X274080788Y-97601274D01*
X273964479Y-97668425D01*
X273883456Y-97715204D01*
X273868683Y-97722490D01*
X273713161Y-97786909D01*
X273658160Y-97809691D01*
X273642553Y-97814989D01*
X273422452Y-97873965D01*
X273406287Y-97877180D01*
X273178332Y-97907191D01*
X273166009Y-97908202D01*
X273065142Y-97911504D01*
X273065140Y-97911504D01*
X273050000Y-97912000D01*
X273050000Y-97913935D01*
X273030908Y-97917000D01*
X273022378Y-97917000D01*
X273021608Y-97916998D01*
X273021052Y-97916995D01*
X272980378Y-97916746D01*
X272979546Y-97916984D01*
X272979308Y-97917000D01*
X239732985Y-97917000D01*
X239712500Y-97914967D01*
X239712500Y-97912000D01*
X239697921Y-97912477D01*
X239697920Y-97912477D01*
X239526290Y-97918096D01*
X239526289Y-97918096D01*
X239523207Y-97918197D01*
X239520151Y-97918599D01*
X239520143Y-97918600D01*
X239265974Y-97952062D01*
X239147859Y-97967612D01*
X239143877Y-97968679D01*
X239143872Y-97968680D01*
X238786155Y-98064530D01*
X238786151Y-98064531D01*
X238782174Y-98065597D01*
X238432405Y-98210476D01*
X238428837Y-98212536D01*
X238428833Y-98212538D01*
X238416321Y-98219762D01*
X238104541Y-98399769D01*
X238101276Y-98402274D01*
X238101269Y-98402279D01*
X237895754Y-98559977D01*
X237804188Y-98630238D01*
X237536488Y-98897938D01*
X237502678Y-98942000D01*
X237308529Y-99195019D01*
X237308524Y-99195026D01*
X237306019Y-99198291D01*
X237303955Y-99201866D01*
X237188624Y-99401625D01*
X237116726Y-99526155D01*
X236971847Y-99875924D01*
X236873862Y-100241609D01*
X236824447Y-100616957D01*
X236818500Y-100798624D01*
X236818288Y-100799983D01*
X236818422Y-100801005D01*
X236818250Y-100806250D01*
X236819108Y-100806250D01*
X236819457Y-100808919D01*
X236819457Y-100808923D01*
X236822187Y-100829798D01*
X236823250Y-100846134D01*
X236823250Y-134095864D01*
X236821750Y-134115247D01*
X236818288Y-134137483D01*
X236818847Y-134141759D01*
X236818605Y-134143750D01*
X236818250Y-134143750D01*
X236818120Y-134147723D01*
X236814452Y-134259759D01*
X236813441Y-134272082D01*
X236783430Y-134500037D01*
X236780215Y-134516202D01*
X236721239Y-134736303D01*
X236715941Y-134751910D01*
X236628742Y-134962428D01*
X236621452Y-134977210D01*
X236507524Y-135174538D01*
X236498368Y-135188242D01*
X236359648Y-135369027D01*
X236348780Y-135381418D01*
X236187668Y-135542530D01*
X236175277Y-135553398D01*
X235994492Y-135692118D01*
X235980788Y-135701274D01*
X235864479Y-135768425D01*
X235783456Y-135815204D01*
X235768683Y-135822490D01*
X235613161Y-135886909D01*
X235558160Y-135909691D01*
X235542553Y-135914989D01*
X235322452Y-135973965D01*
X235306287Y-135977180D01*
X235078332Y-136007191D01*
X235066009Y-136008202D01*
X234965142Y-136011504D01*
X234965140Y-136011504D01*
X234950000Y-136012000D01*
X234950000Y-136013935D01*
X234930908Y-136017000D01*
X234922378Y-136017000D01*
X234921608Y-136016998D01*
X234921052Y-136016995D01*
X234880378Y-136016746D01*
X234879546Y-136016984D01*
X234879308Y-136017000D01*
X87337638Y-136017000D01*
X87312500Y-136014089D01*
X87312500Y-136012000D01*
X87282811Y-136011028D01*
X87196491Y-136008202D01*
X87184168Y-136007191D01*
X86956213Y-135977180D01*
X86940048Y-135973965D01*
X86719947Y-135914989D01*
X86704340Y-135909691D01*
X86649339Y-135886909D01*
X86493817Y-135822490D01*
X86479044Y-135815204D01*
X86398021Y-135768425D01*
X86281712Y-135701274D01*
X86268008Y-135692118D01*
X86087223Y-135553398D01*
X86074832Y-135542530D01*
X85913720Y-135381418D01*
X85902852Y-135369027D01*
X85764132Y-135188242D01*
X85754976Y-135174538D01*
X85641048Y-134977210D01*
X85633758Y-134962428D01*
X85546559Y-134751910D01*
X85541261Y-134736303D01*
X85482285Y-134516202D01*
X85479070Y-134500037D01*
X85449059Y-134272082D01*
X85448048Y-134259759D01*
X85444362Y-134147186D01*
X85444250Y-134143750D01*
X85443353Y-134137483D01*
X85440523Y-134117726D01*
X85439250Y-134099863D01*
X85439250Y-127000000D01*
X102367750Y-127000000D01*
X102387615Y-127252407D01*
X102446720Y-127498599D01*
X102543611Y-127732514D01*
X102675901Y-127948392D01*
X102679112Y-127952152D01*
X102679116Y-127952157D01*
X102824428Y-128122295D01*
X102840333Y-128140917D01*
X102844095Y-128144130D01*
X103029093Y-128302134D01*
X103029098Y-128302138D01*
X103032858Y-128305349D01*
X103248736Y-128437639D01*
X103253306Y-128439532D01*
X103253310Y-128439534D01*
X103478078Y-128532636D01*
X103482651Y-128534530D01*
X103567356Y-128554866D01*
X103724030Y-128592480D01*
X103724036Y-128592481D01*
X103728843Y-128593635D01*
X103981250Y-128613500D01*
X104233657Y-128593635D01*
X104238464Y-128592481D01*
X104238470Y-128592480D01*
X104395144Y-128554866D01*
X104479849Y-128534530D01*
X104484422Y-128532636D01*
X104709190Y-128439534D01*
X104709194Y-128439532D01*
X104713764Y-128437639D01*
X104929642Y-128305349D01*
X104933402Y-128302138D01*
X104933407Y-128302134D01*
X105118405Y-128144130D01*
X105122167Y-128140917D01*
X105138072Y-128122295D01*
X105283384Y-127952157D01*
X105283388Y-127952152D01*
X105286599Y-127948392D01*
X105418889Y-127732514D01*
X105515780Y-127498599D01*
X105574885Y-127252407D01*
X105594750Y-127000000D01*
X216667750Y-127000000D01*
X216687615Y-127252407D01*
X216746720Y-127498599D01*
X216843611Y-127732514D01*
X216975901Y-127948392D01*
X216979112Y-127952152D01*
X216979116Y-127952157D01*
X217124428Y-128122295D01*
X217140333Y-128140917D01*
X217144095Y-128144130D01*
X217329093Y-128302134D01*
X217329098Y-128302138D01*
X217332858Y-128305349D01*
X217548736Y-128437639D01*
X217553306Y-128439532D01*
X217553310Y-128439534D01*
X217778078Y-128532636D01*
X217782651Y-128534530D01*
X217867356Y-128554866D01*
X218024030Y-128592480D01*
X218024036Y-128592481D01*
X218028843Y-128593635D01*
X218281250Y-128613500D01*
X218533657Y-128593635D01*
X218538464Y-128592481D01*
X218538470Y-128592480D01*
X218695144Y-128554866D01*
X218779849Y-128534530D01*
X218784422Y-128532636D01*
X219009190Y-128439534D01*
X219009194Y-128439532D01*
X219013764Y-128437639D01*
X219229642Y-128305349D01*
X219233402Y-128302138D01*
X219233407Y-128302134D01*
X219418405Y-128144130D01*
X219422167Y-128140917D01*
X219438072Y-128122295D01*
X219583384Y-127952157D01*
X219583388Y-127952152D01*
X219586599Y-127948392D01*
X219718889Y-127732514D01*
X219815780Y-127498599D01*
X219874885Y-127252407D01*
X219894750Y-127000000D01*
X219874885Y-126747593D01*
X219815780Y-126501401D01*
X219718889Y-126267486D01*
X219586599Y-126051608D01*
X219583388Y-126047848D01*
X219583384Y-126047843D01*
X219425380Y-125862845D01*
X219422167Y-125859083D01*
X219403545Y-125843178D01*
X219233407Y-125697866D01*
X219233402Y-125697862D01*
X219229642Y-125694651D01*
X219013764Y-125562361D01*
X219009194Y-125560468D01*
X219009190Y-125560466D01*
X218784422Y-125467364D01*
X218784420Y-125467363D01*
X218779849Y-125465470D01*
X218695144Y-125445134D01*
X218538470Y-125407520D01*
X218538464Y-125407519D01*
X218533657Y-125406365D01*
X218281250Y-125386500D01*
X218028843Y-125406365D01*
X218024036Y-125407519D01*
X218024030Y-125407520D01*
X217867356Y-125445134D01*
X217782651Y-125465470D01*
X217778080Y-125467363D01*
X217778078Y-125467364D01*
X217553310Y-125560466D01*
X217553306Y-125560468D01*
X217548736Y-125562361D01*
X217332858Y-125694651D01*
X217329098Y-125697862D01*
X217329093Y-125697866D01*
X217158955Y-125843178D01*
X217140333Y-125859083D01*
X217137120Y-125862845D01*
X216979116Y-126047843D01*
X216979112Y-126047848D01*
X216975901Y-126051608D01*
X216843611Y-126267486D01*
X216746720Y-126501401D01*
X216687615Y-126747593D01*
X216667750Y-127000000D01*
X105594750Y-127000000D01*
X105574885Y-126747593D01*
X105515780Y-126501401D01*
X105418889Y-126267486D01*
X105286599Y-126051608D01*
X105283388Y-126047848D01*
X105283384Y-126047843D01*
X105125380Y-125862845D01*
X105122167Y-125859083D01*
X105103545Y-125843178D01*
X104933407Y-125697866D01*
X104933402Y-125697862D01*
X104929642Y-125694651D01*
X104713764Y-125562361D01*
X104709194Y-125560468D01*
X104709190Y-125560466D01*
X104484422Y-125467364D01*
X104484420Y-125467363D01*
X104479849Y-125465470D01*
X104395144Y-125445134D01*
X104238470Y-125407520D01*
X104238464Y-125407519D01*
X104233657Y-125406365D01*
X103981250Y-125386500D01*
X103728843Y-125406365D01*
X103724036Y-125407519D01*
X103724030Y-125407520D01*
X103567356Y-125445134D01*
X103482651Y-125465470D01*
X103478080Y-125467363D01*
X103478078Y-125467364D01*
X103253310Y-125560466D01*
X103253306Y-125560468D01*
X103248736Y-125562361D01*
X103032858Y-125694651D01*
X103029098Y-125697862D01*
X103029093Y-125697866D01*
X102858955Y-125843178D01*
X102840333Y-125859083D01*
X102837120Y-125862845D01*
X102679116Y-126047843D01*
X102679112Y-126047848D01*
X102675901Y-126051608D01*
X102543611Y-126267486D01*
X102446720Y-126501401D01*
X102387615Y-126747593D01*
X102367750Y-127000000D01*
X85439250Y-127000000D01*
X85439250Y-100858120D01*
X85440996Y-100837214D01*
X85443291Y-100823576D01*
X85443291Y-100823573D01*
X85444097Y-100818784D01*
X85444250Y-100806250D01*
X85438053Y-100616957D01*
X85388638Y-100241609D01*
X85290653Y-99875924D01*
X85145774Y-99526155D01*
X85073877Y-99401625D01*
X84958545Y-99201866D01*
X84956481Y-99198291D01*
X84953976Y-99195026D01*
X84953971Y-99195019D01*
X84759822Y-98942000D01*
X84726012Y-98897938D01*
X84458312Y-98630238D01*
X84366746Y-98559977D01*
X84161231Y-98402279D01*
X84161224Y-98402274D01*
X84157959Y-98399769D01*
X83846179Y-98219762D01*
X83833667Y-98212538D01*
X83833663Y-98212536D01*
X83830095Y-98210476D01*
X83480326Y-98065597D01*
X83476349Y-98064531D01*
X83476345Y-98064530D01*
X83118628Y-97968680D01*
X83118623Y-97968679D01*
X83114641Y-97967612D01*
X82996526Y-97952062D01*
X82742357Y-97918600D01*
X82742349Y-97918599D01*
X82739293Y-97918197D01*
X82736211Y-97918096D01*
X82736210Y-97918096D01*
X82694971Y-97916746D01*
X82550000Y-97912000D01*
X82550000Y-97915098D01*
X82535033Y-97917000D01*
X82522378Y-97917000D01*
X82521608Y-97916998D01*
X82521052Y-97916995D01*
X82480378Y-97916746D01*
X82479546Y-97916984D01*
X82479308Y-97917000D01*
X30187638Y-97917000D01*
X30162500Y-97914089D01*
X30162500Y-97912000D01*
X30132811Y-97911028D01*
X30046491Y-97908202D01*
X30034168Y-97907191D01*
X29806213Y-97877180D01*
X29790048Y-97873965D01*
X29569947Y-97814989D01*
X29554340Y-97809691D01*
X29499339Y-97786909D01*
X29343817Y-97722490D01*
X29329044Y-97715204D01*
X29248021Y-97668425D01*
X29131712Y-97601274D01*
X29118008Y-97592118D01*
X28937223Y-97453398D01*
X28924832Y-97442530D01*
X28763720Y-97281418D01*
X28752852Y-97269027D01*
X28614132Y-97088242D01*
X28604976Y-97074538D01*
X28491048Y-96877210D01*
X28483758Y-96862428D01*
X28396559Y-96651910D01*
X28391261Y-96636303D01*
X28332285Y-96416202D01*
X28329070Y-96400037D01*
X28299059Y-96172082D01*
X28298048Y-96159759D01*
X28294362Y-96047186D01*
X28294250Y-96043750D01*
X28293353Y-96037483D01*
X28290523Y-96017726D01*
X28289250Y-95999863D01*
X28289250Y-79375000D01*
X45217750Y-79375000D01*
X45237615Y-79627407D01*
X45296720Y-79873599D01*
X45393611Y-80107514D01*
X45525901Y-80323392D01*
X45529112Y-80327152D01*
X45529116Y-80327157D01*
X45674428Y-80497295D01*
X45690333Y-80515917D01*
X45694095Y-80519130D01*
X45879093Y-80677134D01*
X45879098Y-80677138D01*
X45882858Y-80680349D01*
X46098736Y-80812639D01*
X46103306Y-80814532D01*
X46103310Y-80814534D01*
X46328078Y-80907636D01*
X46332651Y-80909530D01*
X46417356Y-80929866D01*
X46574030Y-80967480D01*
X46574036Y-80967481D01*
X46578843Y-80968635D01*
X46831250Y-80988500D01*
X47083657Y-80968635D01*
X47088464Y-80967481D01*
X47088470Y-80967480D01*
X47245144Y-80929866D01*
X47329849Y-80909530D01*
X47334422Y-80907636D01*
X47559190Y-80814534D01*
X47559194Y-80814532D01*
X47563764Y-80812639D01*
X47779642Y-80680349D01*
X47783402Y-80677138D01*
X47783407Y-80677134D01*
X47968405Y-80519130D01*
X47972167Y-80515917D01*
X47988072Y-80497295D01*
X48133384Y-80327157D01*
X48133388Y-80327152D01*
X48136599Y-80323392D01*
X48268889Y-80107514D01*
X48365780Y-79873599D01*
X48424885Y-79627407D01*
X48444750Y-79375000D01*
X121417750Y-79375000D01*
X121437615Y-79627407D01*
X121496720Y-79873599D01*
X121593611Y-80107514D01*
X121725901Y-80323392D01*
X121729112Y-80327152D01*
X121729116Y-80327157D01*
X121874428Y-80497295D01*
X121890333Y-80515917D01*
X121894095Y-80519130D01*
X122079093Y-80677134D01*
X122079098Y-80677138D01*
X122082858Y-80680349D01*
X122298736Y-80812639D01*
X122303306Y-80814532D01*
X122303310Y-80814534D01*
X122528078Y-80907636D01*
X122532651Y-80909530D01*
X122617356Y-80929866D01*
X122774030Y-80967480D01*
X122774036Y-80967481D01*
X122778843Y-80968635D01*
X123031250Y-80988500D01*
X123283657Y-80968635D01*
X123288464Y-80967481D01*
X123288470Y-80967480D01*
X123445144Y-80929866D01*
X123529849Y-80909530D01*
X123534422Y-80907636D01*
X123759190Y-80814534D01*
X123759194Y-80814532D01*
X123763764Y-80812639D01*
X123979642Y-80680349D01*
X123983402Y-80677138D01*
X123983407Y-80677134D01*
X124168405Y-80519130D01*
X124172167Y-80515917D01*
X124188072Y-80497295D01*
X124333384Y-80327157D01*
X124333388Y-80327152D01*
X124336599Y-80323392D01*
X124468889Y-80107514D01*
X124565780Y-79873599D01*
X124624885Y-79627407D01*
X124644750Y-79375000D01*
X197617750Y-79375000D01*
X197637615Y-79627407D01*
X197696720Y-79873599D01*
X197793611Y-80107514D01*
X197925901Y-80323392D01*
X197929112Y-80327152D01*
X197929116Y-80327157D01*
X198074428Y-80497295D01*
X198090333Y-80515917D01*
X198094095Y-80519130D01*
X198279093Y-80677134D01*
X198279098Y-80677138D01*
X198282858Y-80680349D01*
X198498736Y-80812639D01*
X198503306Y-80814532D01*
X198503310Y-80814534D01*
X198728078Y-80907636D01*
X198732651Y-80909530D01*
X198817356Y-80929866D01*
X198974030Y-80967480D01*
X198974036Y-80967481D01*
X198978843Y-80968635D01*
X199231250Y-80988500D01*
X199483657Y-80968635D01*
X199488464Y-80967481D01*
X199488470Y-80967480D01*
X199645144Y-80929866D01*
X199729849Y-80909530D01*
X199734422Y-80907636D01*
X199959190Y-80814534D01*
X199959194Y-80814532D01*
X199963764Y-80812639D01*
X200179642Y-80680349D01*
X200183402Y-80677138D01*
X200183407Y-80677134D01*
X200368405Y-80519130D01*
X200372167Y-80515917D01*
X200388072Y-80497295D01*
X200533384Y-80327157D01*
X200533388Y-80327152D01*
X200536599Y-80323392D01*
X200668889Y-80107514D01*
X200765780Y-79873599D01*
X200824885Y-79627407D01*
X200844750Y-79375000D01*
X254767750Y-79375000D01*
X254787615Y-79627407D01*
X254846720Y-79873599D01*
X254943611Y-80107514D01*
X255075901Y-80323392D01*
X255079112Y-80327152D01*
X255079116Y-80327157D01*
X255224428Y-80497295D01*
X255240333Y-80515917D01*
X255244095Y-80519130D01*
X255429093Y-80677134D01*
X255429098Y-80677138D01*
X255432858Y-80680349D01*
X255648736Y-80812639D01*
X255653306Y-80814532D01*
X255653310Y-80814534D01*
X255878078Y-80907636D01*
X255882651Y-80909530D01*
X255967356Y-80929866D01*
X256124030Y-80967480D01*
X256124036Y-80967481D01*
X256128843Y-80968635D01*
X256381250Y-80988500D01*
X256633657Y-80968635D01*
X256638464Y-80967481D01*
X256638470Y-80967480D01*
X256795144Y-80929866D01*
X256879849Y-80909530D01*
X256884422Y-80907636D01*
X257109190Y-80814534D01*
X257109194Y-80814532D01*
X257113764Y-80812639D01*
X257329642Y-80680349D01*
X257333402Y-80677138D01*
X257333407Y-80677134D01*
X257518405Y-80519130D01*
X257522167Y-80515917D01*
X257538072Y-80497295D01*
X257683384Y-80327157D01*
X257683388Y-80327152D01*
X257686599Y-80323392D01*
X257818889Y-80107514D01*
X257915780Y-79873599D01*
X257974885Y-79627407D01*
X257994750Y-79375000D01*
X257974885Y-79122593D01*
X257915780Y-78876401D01*
X257818889Y-78642486D01*
X257686599Y-78426608D01*
X257683388Y-78422848D01*
X257683384Y-78422843D01*
X257525380Y-78237845D01*
X257522167Y-78234083D01*
X257503545Y-78218178D01*
X257333407Y-78072866D01*
X257333402Y-78072862D01*
X257329642Y-78069651D01*
X257113764Y-77937361D01*
X257109194Y-77935468D01*
X257109190Y-77935466D01*
X256884422Y-77842364D01*
X256884420Y-77842363D01*
X256879849Y-77840470D01*
X256795144Y-77820134D01*
X256638470Y-77782520D01*
X256638464Y-77782519D01*
X256633657Y-77781365D01*
X256381250Y-77761500D01*
X256128843Y-77781365D01*
X256124036Y-77782519D01*
X256124030Y-77782520D01*
X255967356Y-77820134D01*
X255882651Y-77840470D01*
X255878080Y-77842363D01*
X255878078Y-77842364D01*
X255653310Y-77935466D01*
X255653306Y-77935468D01*
X255648736Y-77937361D01*
X255432858Y-78069651D01*
X255429098Y-78072862D01*
X255429093Y-78072866D01*
X255258955Y-78218178D01*
X255240333Y-78234083D01*
X255237120Y-78237845D01*
X255079116Y-78422843D01*
X255079112Y-78422848D01*
X255075901Y-78426608D01*
X254943611Y-78642486D01*
X254846720Y-78876401D01*
X254787615Y-79122593D01*
X254767750Y-79375000D01*
X200844750Y-79375000D01*
X200824885Y-79122593D01*
X200765780Y-78876401D01*
X200668889Y-78642486D01*
X200536599Y-78426608D01*
X200533388Y-78422848D01*
X200533384Y-78422843D01*
X200375380Y-78237845D01*
X200372167Y-78234083D01*
X200353545Y-78218178D01*
X200183407Y-78072866D01*
X200183402Y-78072862D01*
X200179642Y-78069651D01*
X199963764Y-77937361D01*
X199959194Y-77935468D01*
X199959190Y-77935466D01*
X199734422Y-77842364D01*
X199734420Y-77842363D01*
X199729849Y-77840470D01*
X199645144Y-77820134D01*
X199488470Y-77782520D01*
X199488464Y-77782519D01*
X199483657Y-77781365D01*
X199231250Y-77761500D01*
X198978843Y-77781365D01*
X198974036Y-77782519D01*
X198974030Y-77782520D01*
X198817356Y-77820134D01*
X198732651Y-77840470D01*
X198728080Y-77842363D01*
X198728078Y-77842364D01*
X198503310Y-77935466D01*
X198503306Y-77935468D01*
X198498736Y-77937361D01*
X198282858Y-78069651D01*
X198279098Y-78072862D01*
X198279093Y-78072866D01*
X198108955Y-78218178D01*
X198090333Y-78234083D01*
X198087120Y-78237845D01*
X197929116Y-78422843D01*
X197929112Y-78422848D01*
X197925901Y-78426608D01*
X197793611Y-78642486D01*
X197696720Y-78876401D01*
X197637615Y-79122593D01*
X197617750Y-79375000D01*
X124644750Y-79375000D01*
X124624885Y-79122593D01*
X124565780Y-78876401D01*
X124468889Y-78642486D01*
X124336599Y-78426608D01*
X124333388Y-78422848D01*
X124333384Y-78422843D01*
X124175380Y-78237845D01*
X124172167Y-78234083D01*
X124153545Y-78218178D01*
X123983407Y-78072866D01*
X123983402Y-78072862D01*
X123979642Y-78069651D01*
X123763764Y-77937361D01*
X123759194Y-77935468D01*
X123759190Y-77935466D01*
X123534422Y-77842364D01*
X123534420Y-77842363D01*
X123529849Y-77840470D01*
X123445144Y-77820134D01*
X123288470Y-77782520D01*
X123288464Y-77782519D01*
X123283657Y-77781365D01*
X123031250Y-77761500D01*
X122778843Y-77781365D01*
X122774036Y-77782519D01*
X122774030Y-77782520D01*
X122617356Y-77820134D01*
X122532651Y-77840470D01*
X122528080Y-77842363D01*
X122528078Y-77842364D01*
X122303310Y-77935466D01*
X122303306Y-77935468D01*
X122298736Y-77937361D01*
X122082858Y-78069651D01*
X122079098Y-78072862D01*
X122079093Y-78072866D01*
X121908955Y-78218178D01*
X121890333Y-78234083D01*
X121887120Y-78237845D01*
X121729116Y-78422843D01*
X121729112Y-78422848D01*
X121725901Y-78426608D01*
X121593611Y-78642486D01*
X121496720Y-78876401D01*
X121437615Y-79122593D01*
X121417750Y-79375000D01*
X48444750Y-79375000D01*
X48424885Y-79122593D01*
X48365780Y-78876401D01*
X48268889Y-78642486D01*
X48136599Y-78426608D01*
X48133388Y-78422848D01*
X48133384Y-78422843D01*
X47975380Y-78237845D01*
X47972167Y-78234083D01*
X47953545Y-78218178D01*
X47783407Y-78072866D01*
X47783402Y-78072862D01*
X47779642Y-78069651D01*
X47563764Y-77937361D01*
X47559194Y-77935468D01*
X47559190Y-77935466D01*
X47334422Y-77842364D01*
X47334420Y-77842363D01*
X47329849Y-77840470D01*
X47245144Y-77820134D01*
X47088470Y-77782520D01*
X47088464Y-77782519D01*
X47083657Y-77781365D01*
X46831250Y-77761500D01*
X46578843Y-77781365D01*
X46574036Y-77782519D01*
X46574030Y-77782520D01*
X46417356Y-77820134D01*
X46332651Y-77840470D01*
X46328080Y-77842363D01*
X46328078Y-77842364D01*
X46103310Y-77935466D01*
X46103306Y-77935468D01*
X46098736Y-77937361D01*
X45882858Y-78069651D01*
X45879098Y-78072862D01*
X45879093Y-78072866D01*
X45708955Y-78218178D01*
X45690333Y-78234083D01*
X45687120Y-78237845D01*
X45529116Y-78422843D01*
X45529112Y-78422848D01*
X45525901Y-78426608D01*
X45393611Y-78642486D01*
X45296720Y-78876401D01*
X45237615Y-79122593D01*
X45217750Y-79375000D01*
X28289250Y-79375000D01*
X28289250Y-62758120D01*
X28290996Y-62737214D01*
X28293291Y-62723576D01*
X28293291Y-62723573D01*
X28294097Y-62718784D01*
X28294234Y-62707535D01*
X28294292Y-62704962D01*
X28298048Y-62590241D01*
X28299059Y-62577918D01*
X28329070Y-62349963D01*
X28332285Y-62333798D01*
X28391261Y-62113697D01*
X28396559Y-62098090D01*
X28483758Y-61887572D01*
X28491048Y-61872790D01*
X28604976Y-61675462D01*
X28614132Y-61661758D01*
X28752852Y-61480973D01*
X28763720Y-61468582D01*
X28924832Y-61307470D01*
X28937223Y-61296602D01*
X29118008Y-61157882D01*
X29131712Y-61148726D01*
X29248021Y-61081575D01*
X29329044Y-61034796D01*
X29343817Y-61027510D01*
X29554340Y-60940309D01*
X29569947Y-60935011D01*
X29790048Y-60876035D01*
X29806213Y-60872820D01*
X30034168Y-60842809D01*
X30046491Y-60841798D01*
X30109720Y-60839728D01*
X30162500Y-60838000D01*
X30162500Y-60836397D01*
X30183109Y-60833282D01*
X30217333Y-60833909D01*
X30217335Y-60833909D01*
X30225908Y-60834066D01*
X30229179Y-60833174D01*
X30231988Y-60833000D01*
X273024862Y-60833000D01*
X273050000Y-60835911D01*
G37*
G04 #@! TD.AperFunction*
M02*
