G04 #@! TF.GenerationSoftware,KiCad,Pcbnew,(5.99.0-11042-g5b8f32acd2)*
G04 #@! TF.CreationDate,2021-06-17T13:37:32-07:00*
G04 #@! TF.ProjectId,back-plate,6261636b-2d70-46c6-9174-652e6b696361,rev?*
G04 #@! TF.SameCoordinates,Original*
G04 #@! TF.FileFunction,Legend,Bot*
G04 #@! TF.FilePolarity,Positive*
%FSLAX46Y46*%
G04 Gerber Fmt 4.6, Leading zero omitted, Abs format (unit mm)*
G04 Created by KiCad (PCBNEW (5.99.0-11042-g5b8f32acd2)) date 2021-06-17 13:37:32*
%MOMM*%
%LPD*%
G01*
G04 APERTURE LIST*
%ADD10C,0.150000*%
%ADD11C,2.200000*%
G04 APERTURE END LIST*
D10*
X95022678Y-134493928D02*
X95022678Y-135072500D01*
X95061250Y-135188214D01*
X95138392Y-135265357D01*
X95254107Y-135303928D01*
X95331250Y-135303928D01*
X94251250Y-135303928D02*
X94636964Y-135303928D01*
X94636964Y-134493928D01*
X93518392Y-135226785D02*
X93556964Y-135265357D01*
X93672678Y-135303928D01*
X93749821Y-135303928D01*
X93865535Y-135265357D01*
X93942678Y-135188214D01*
X93981250Y-135111071D01*
X94019821Y-134956785D01*
X94019821Y-134841071D01*
X93981250Y-134686785D01*
X93942678Y-134609642D01*
X93865535Y-134532500D01*
X93749821Y-134493928D01*
X93672678Y-134493928D01*
X93556964Y-134532500D01*
X93518392Y-134571071D01*
X92939821Y-134493928D02*
X92939821Y-135072500D01*
X92978392Y-135188214D01*
X93055535Y-135265357D01*
X93171250Y-135303928D01*
X93248392Y-135303928D01*
X92168392Y-135303928D02*
X92554107Y-135303928D01*
X92554107Y-134493928D01*
X91435535Y-135226785D02*
X91474107Y-135265357D01*
X91589821Y-135303928D01*
X91666964Y-135303928D01*
X91782678Y-135265357D01*
X91859821Y-135188214D01*
X91898392Y-135111071D01*
X91936964Y-134956785D01*
X91936964Y-134841071D01*
X91898392Y-134686785D01*
X91859821Y-134609642D01*
X91782678Y-134532500D01*
X91666964Y-134493928D01*
X91589821Y-134493928D01*
X91474107Y-134532500D01*
X91435535Y-134571071D01*
X90856964Y-134493928D02*
X90856964Y-135072500D01*
X90895535Y-135188214D01*
X90972678Y-135265357D01*
X91088392Y-135303928D01*
X91165535Y-135303928D01*
X90085535Y-135303928D02*
X90471250Y-135303928D01*
X90471250Y-134493928D01*
X89352678Y-135226785D02*
X89391250Y-135265357D01*
X89506964Y-135303928D01*
X89584107Y-135303928D01*
X89699821Y-135265357D01*
X89776964Y-135188214D01*
X89815535Y-135111071D01*
X89854107Y-134956785D01*
X89854107Y-134841071D01*
X89815535Y-134686785D01*
X89776964Y-134609642D01*
X89699821Y-134532500D01*
X89584107Y-134493928D01*
X89506964Y-134493928D01*
X89391250Y-134532500D01*
X89352678Y-134571071D01*
X88774107Y-134493928D02*
X88774107Y-135072500D01*
X88812678Y-135188214D01*
X88889821Y-135265357D01*
X89005535Y-135303928D01*
X89082678Y-135303928D01*
X88002678Y-135303928D02*
X88388392Y-135303928D01*
X88388392Y-134493928D01*
X87269821Y-135226785D02*
X87308392Y-135265357D01*
X87424107Y-135303928D01*
X87501250Y-135303928D01*
X87616964Y-135265357D01*
X87694107Y-135188214D01*
X87732678Y-135111071D01*
X87771250Y-134956785D01*
X87771250Y-134841071D01*
X87732678Y-134686785D01*
X87694107Y-134609642D01*
X87616964Y-134532500D01*
X87501250Y-134493928D01*
X87424107Y-134493928D01*
X87308392Y-134532500D01*
X87269821Y-134571071D01*
%LPC*%
D11*
X256381250Y-79375000D03*
X199231250Y-79375000D03*
X218281250Y-127000000D03*
X103981250Y-127000000D03*
X123031250Y-79375000D03*
X46831250Y-79375000D03*
M02*
