<?xml version="1.0"?>
<!DOCTYPE svg PUBLIC "-//W3C//DTD SVG 1.1//EN" "http://www.w3.org/Graphics/SVG/1.1/DTD/svg11.dtd">
<svg width="265.557mm" height="94.107mm" viewBox="0 0 265.557 94.107" xmlns="http://www.w3.org/2000/svg" version="1.1">
<g id="Sketch" transform="translate(127.172250,46.628500) scale(1,-1)">
<path id="Sketch_w0000"  d="M 75.05937499999999 -0.8218750000000199 L 127.44687499999998 -0.8218750000000341 A 2.38125 2.38125 0 0 1 129.828 1.55937L 129.828125 35.69062500000001 A 2.38125 2.38125 0 0 1 127.447 38.0719L 7.193749999999994 38.07187499999996 A 1.5875 1.5875 0 0 0 5.60625 39.6594L 5.606249999999989 42.43749999999997 A 1.5875 1.5875 0 0 0 7.19375 44.025L 127.05000000000001 44.02499999999997 A 8.73125 8.73125 0 0 0 135.781 35.2937L 135.78125 1.9562500000000114 A 8.73125 8.73125 0 0 0 127.05 -6.775L 81.01249999999999 -6.77500000000002 A 2.38125 2.38125 0 0 1 78.6312 -9.15625L 78.63125 -36.14375000000007 A 8.73125 8.73125 0 0 0 69.9 -44.875L -77.73750000000001 -44.87500000000003 A 8.73125 8.73125 0 0 0 -86.4688 -36.1438L -86.46875 -9.156250000000043 A 2.38125 2.38125 0 0 1 -88.85 -6.775L -115.83749999999998 -6.775000000000034 A 8.73125 8.73125 0 0 0 -124.569 1.95625L -124.56875 35.293749999999974 A 8.73125 8.73125 0 0 0 -115.838 44.025L -15.03125 44.02499999999998 A 1.5875 1.5875 0 0 0 -13.4437 42.4375L -13.443749999999994 39.65937499999998 A 1.5875 1.5875 0 0 0 -15.0313 38.0719L -116.234375 38.07187499999997 A 2.38125 2.38125 0 0 1 -118.616 35.6906L -118.615625 1.5593749999999886 A 2.38125 2.38125 0 0 1 -116.234 -0.821875L -82.896875 -0.8218750000000341 A 2.38125 2.38125 0 0 0 -80.5156 -3.20313L -80.515625 -36.54062499999998 A 2.38125 2.38125 0 0 1 -78.1344 -38.9219L 70.296875 -38.92187500000003 A 2.38125 2.38125 0 0 1 72.6781 -36.5406L 72.678125 -3.2031250000000426 A 2.38125 2.38125 0 0 0 75.0594 -0.821875" stroke="#191919" stroke-width="0.35 px" style="stroke-width:0.35;stroke-miterlimit:4;stroke-dasharray:none;fill:none;fill-rule: evenodd "/>
<title>b'Sketch'</title>
</g>
</svg>