<?xml version="1.0"?>
<!DOCTYPE svg PUBLIC "-//W3C//DTD SVG 1.1//EN" "http://www.w3.org/Graphics/SVG/1.1/DTD/svg11.dtd">
<svg width="265.557mm" height="94.107mm" viewBox="0 0 265.557 94.107" xmlns="http://www.w3.org/2000/svg" version="1.1">
<g id="Shape2DView001" transform="translate(127.172250,44.628500) scale(1,-1)">
<path id="Shape2DView001_nwe0000"  d="M 74.6625 -2.4250000000000114 L 127.44687499999998 -2.82187500000002 " stroke="#191919" stroke-width="0.35 px" style="stroke-width:0.35;stroke-miterlimit:4;stroke-dasharray:none;fill:none;fill-rule: evenodd "/>
<path id="Shape2DView001_nwe0001"  d="M 127.44687499999998 -2.82187500000002 A 2.38125 2.38125 0 0 1 129.828 -0.440625" stroke="#191919" stroke-width="0.35 px" style="stroke-width:0.35;stroke-miterlimit:4;stroke-dasharray:none;fill:none;fill-rule: evenodd "/>
<path id="Shape2DView001_nwe0002"  d="M 129.828125 -0.4406250000000682 L 129.828125 33.690625000000026 " stroke="#191919" stroke-width="0.35 px" style="stroke-width:0.35;stroke-miterlimit:4;stroke-dasharray:none;fill:none;fill-rule: evenodd "/>
<path id="Shape2DView001_nwe0003"  d="M 129.828125 33.690625000000026 A 2.38125 2.38125 0 0 1 127.447 36.0719" stroke="#191919" stroke-width="0.35 px" style="stroke-width:0.35;stroke-miterlimit:4;stroke-dasharray:none;fill:none;fill-rule: evenodd "/>
<path id="Shape2DView001_nwe0004"  d="M 127.44687499999998 36.07187499999999 L 7.193749999999994 36.07187499999998 " stroke="#191919" stroke-width="0.35 px" style="stroke-width:0.35;stroke-miterlimit:4;stroke-dasharray:none;fill:none;fill-rule: evenodd "/>
<path id="Shape2DView001_nwe0005"  d="M 5.606249999999989 37.659374999999955 A 1.5875 1.5875 0 0 1 7.19375 36.0719" stroke="#191919" stroke-width="0.35 px" style="stroke-width:0.35;stroke-miterlimit:4;stroke-dasharray:none;fill:none;fill-rule: evenodd "/>
<path id="Shape2DView001_nwe0006"  d="M 5.606249999999989 40.437500000000014 L 5.606249999999989 37.659374999999955 " stroke="#191919" stroke-width="0.35 px" style="stroke-width:0.35;stroke-miterlimit:4;stroke-dasharray:none;fill:none;fill-rule: evenodd "/>
<path id="Shape2DView001_nwe0007"  d="M 7.193749999999994 42.02499999999998 A 1.5875 1.5875 0 0 1 5.60625 40.4375" stroke="#191919" stroke-width="0.35 px" style="stroke-width:0.35;stroke-miterlimit:4;stroke-dasharray:none;fill:none;fill-rule: evenodd "/>
<path id="Shape2DView001_nwe0008"  d="M 7.193749999999994 42.02499999999998 L 127.05000000000001 42.02499999999999 " stroke="#191919" stroke-width="0.35 px" style="stroke-width:0.35;stroke-miterlimit:4;stroke-dasharray:none;fill:none;fill-rule: evenodd "/>
<path id="Shape2DView001_nwe0009"  d="M 135.78125 33.293749999999946 A 8.73125 8.73125 0 0 1 127.05 42.025" stroke="#191919" stroke-width="0.35 px" style="stroke-width:0.35;stroke-miterlimit:4;stroke-dasharray:none;fill:none;fill-rule: evenodd "/>
<path id="Shape2DView001_nwe0010"  d="M 135.78125 -0.04374999999997442 L 135.78125 33.293749999999946 " stroke="#191919" stroke-width="0.35 px" style="stroke-width:0.35;stroke-miterlimit:4;stroke-dasharray:none;fill:none;fill-rule: evenodd "/>
<path id="Shape2DView001_nwe0011"  d="M 127.05000000000001 -8.77500000000002 A 8.73125 8.73125 0 0 1 135.781 -0.04375" stroke="#191919" stroke-width="0.35 px" style="stroke-width:0.35;stroke-miterlimit:4;stroke-dasharray:none;fill:none;fill-rule: evenodd "/>
<path id="Shape2DView001_nwe0012"  d="M 81.01249999999999 -8.775000000000006 L 127.05000000000001 -8.77500000000002 " stroke="#191919" stroke-width="0.35 px" style="stroke-width:0.35;stroke-miterlimit:4;stroke-dasharray:none;fill:none;fill-rule: evenodd "/>
<path id="Shape2DView001_nwe0013"  d="M 81.01249999999999 -8.775000000000006 A 2.38125 2.38125 0 0 1 78.6312 -11.1563" stroke="#191919" stroke-width="0.35 px" style="stroke-width:0.35;stroke-miterlimit:4;stroke-dasharray:none;fill:none;fill-rule: evenodd "/>
<path id="Shape2DView001_nwe0014"  d="M 78.63125 -38.143750000000054 L 78.63125 -11.156250000000028 " stroke="#191919" stroke-width="0.35 px" style="stroke-width:0.35;stroke-miterlimit:4;stroke-dasharray:none;fill:none;fill-rule: evenodd "/>
<path id="Shape2DView001_nwe0015"  d="M 69.9 -46.875000000000014 A 8.73125 8.73125 0 0 1 78.6312 -38.1438" stroke="#191919" stroke-width="0.35 px" style="stroke-width:0.35;stroke-miterlimit:4;stroke-dasharray:none;fill:none;fill-rule: evenodd "/>
<path id="Shape2DView001_nwe0016"  d="M -77.7375 -46.875000000000014 L 69.89999999999998 -46.875000000000014 " stroke="#191919" stroke-width="0.35 px" style="stroke-width:0.35;stroke-miterlimit:4;stroke-dasharray:none;fill:none;fill-rule: evenodd "/>
<path id="Shape2DView001_nwe0017"  d="M -86.46875 -38.143750000000054 A 8.73125 8.73125 0 0 1 -77.7375 -46.875" stroke="#191919" stroke-width="0.35 px" style="stroke-width:0.35;stroke-miterlimit:4;stroke-dasharray:none;fill:none;fill-rule: evenodd "/>
<path id="Shape2DView001_nwe0018"  d="M -86.46875 -11.156250000000028 L -86.46875 -38.143750000000054 " stroke="#191919" stroke-width="0.35 px" style="stroke-width:0.35;stroke-miterlimit:4;stroke-dasharray:none;fill:none;fill-rule: evenodd "/>
<path id="Shape2DView001_nwe0019"  d="M -86.46875 -11.156250000000028 A 2.38125 2.38125 0 0 1 -88.85 -8.775" stroke="#191919" stroke-width="0.35 px" style="stroke-width:0.35;stroke-miterlimit:4;stroke-dasharray:none;fill:none;fill-rule: evenodd "/>
<path id="Shape2DView001_nwe0020"  d="M -88.85 -8.77500000000002 L -115.8375 -8.77500000000002 " stroke="#191919" stroke-width="0.35 px" style="stroke-width:0.35;stroke-miterlimit:4;stroke-dasharray:none;fill:none;fill-rule: evenodd "/>
<path id="Shape2DView001_nwe0021"  d="M -124.56875000000001 -0.04375000000001705 A 8.73125 8.73125 0 0 1 -115.838 -8.775" stroke="#191919" stroke-width="0.35 px" style="stroke-width:0.35;stroke-miterlimit:4;stroke-dasharray:none;fill:none;fill-rule: evenodd "/>
<path id="Shape2DView001_nwe0022"  d="M -124.56875 33.29374999999999 L -124.56875000000001 -0.04375000000001705 " stroke="#191919" stroke-width="0.35 px" style="stroke-width:0.35;stroke-miterlimit:4;stroke-dasharray:none;fill:none;fill-rule: evenodd "/>
<path id="Shape2DView001_nwe0023"  d="M -115.8375 42.02499999999999 A 8.73125 8.73125 0 0 1 -124.569 33.2937" stroke="#191919" stroke-width="0.35 px" style="stroke-width:0.35;stroke-miterlimit:4;stroke-dasharray:none;fill:none;fill-rule: evenodd "/>
<path id="Shape2DView001_nwe0024"  d="M -15.03125 42.02499999999999 L -115.8375 42.02499999999999 " stroke="#191919" stroke-width="0.35 px" style="stroke-width:0.35;stroke-miterlimit:4;stroke-dasharray:none;fill:none;fill-rule: evenodd "/>
<path id="Shape2DView001_nwe0025"  d="M -13.443749999999994 40.43749999999996 A 1.5875 1.5875 0 0 1 -15.0313 42.025" stroke="#191919" stroke-width="0.35 px" style="stroke-width:0.35;stroke-miterlimit:4;stroke-dasharray:none;fill:none;fill-rule: evenodd "/>
<path id="Shape2DView001_nwe0026"  d="M -13.443749999999994 40.43749999999996 L -13.443749999999994 37.659375 " stroke="#191919" stroke-width="0.35 px" style="stroke-width:0.35;stroke-miterlimit:4;stroke-dasharray:none;fill:none;fill-rule: evenodd "/>
<path id="Shape2DView001_nwe0027"  d="M -15.03125 36.07187499999999 A 1.5875 1.5875 0 0 1 -13.4437 37.6594" stroke="#191919" stroke-width="0.35 px" style="stroke-width:0.35;stroke-miterlimit:4;stroke-dasharray:none;fill:none;fill-rule: evenodd "/>
<path id="Shape2DView001_nwe0028"  d="M -116.234375 36.07187499999999 L -15.03125 36.07187499999999 " stroke="#191919" stroke-width="0.35 px" style="stroke-width:0.35;stroke-miterlimit:4;stroke-dasharray:none;fill:none;fill-rule: evenodd "/>
<path id="Shape2DView001_nwe0029"  d="M -116.234375 36.07187499999999 A 2.38125 2.38125 0 0 1 -118.616 33.6906" stroke="#191919" stroke-width="0.35 px" style="stroke-width:0.35;stroke-miterlimit:4;stroke-dasharray:none;fill:none;fill-rule: evenodd "/>
<path id="Shape2DView001_nwe0030"  d="M -118.615625 33.69062499999998 L -118.615625 -0.44062499999999716 " stroke="#191919" stroke-width="0.35 px" style="stroke-width:0.35;stroke-miterlimit:4;stroke-dasharray:none;fill:none;fill-rule: evenodd "/>
<path id="Shape2DView001_nwe0031"  d="M -118.615625 -0.44062499999999716 A 2.38125 2.38125 0 0 1 -116.234 -2.82188" stroke="#191919" stroke-width="0.35 px" style="stroke-width:0.35;stroke-miterlimit:4;stroke-dasharray:none;fill:none;fill-rule: evenodd "/>
<path id="Shape2DView001_nwe0032"  d="M -116.234375 -2.82187500000002 L -82.896875 -2.82187500000002 " stroke="#191919" stroke-width="0.35 px" style="stroke-width:0.35;stroke-miterlimit:4;stroke-dasharray:none;fill:none;fill-rule: evenodd "/>
<path id="Shape2DView001_nwe0033"  d="M -80.515625 -5.203125000000043 A 2.38125 2.38125 0 0 1 -82.8969 -2.82188" stroke="#191919" stroke-width="0.35 px" style="stroke-width:0.35;stroke-miterlimit:4;stroke-dasharray:none;fill:none;fill-rule: evenodd "/>
<path id="Shape2DView001_nwe0034"  d="M -80.515625 -5.203125000000043 L -80.51562500000001 -38.54062499999996 " stroke="#191919" stroke-width="0.35 px" style="stroke-width:0.35;stroke-miterlimit:4;stroke-dasharray:none;fill:none;fill-rule: evenodd "/>
<path id="Shape2DView001_nwe0035"  d="M -80.51562500000001 -38.54062499999996 A 2.38125 2.38125 0 0 1 -78.1344 -40.9219" stroke="#191919" stroke-width="0.35 px" style="stroke-width:0.35;stroke-miterlimit:4;stroke-dasharray:none;fill:none;fill-rule: evenodd "/>
<path id="Shape2DView001_nwe0036"  d="M -78.134375 -40.921875000000014 L 70.296875 -40.921875000000014 " stroke="#191919" stroke-width="0.35 px" style="stroke-width:0.35;stroke-miterlimit:4;stroke-dasharray:none;fill:none;fill-rule: evenodd "/>
<path id="Shape2DView001_nwe0037"  d="M 70.296875 -40.921875000000014 A 2.38125 2.38125 0 0 1 72.6781 -38.5406" stroke="#191919" stroke-width="0.35 px" style="stroke-width:0.35;stroke-miterlimit:4;stroke-dasharray:none;fill:none;fill-rule: evenodd "/>
<path id="Shape2DView001_nwe0038"  d="M 72.678125 -38.54062499999999 L 72.28125 -4.806250000000034 " stroke="#191919" stroke-width="0.35 px" style="stroke-width:0.35;stroke-miterlimit:4;stroke-dasharray:none;fill:none;fill-rule: evenodd "/>
<path id="Shape2DView001_nwe0039"  d="M 74.6625 -2.4250000000000114 A 2.38125 2.38125 0 0 1 72.2813 -4.80625" stroke="#191919" stroke-width="0.35 px" style="stroke-width:0.35;stroke-miterlimit:4;stroke-dasharray:none;fill:none;fill-rule: evenodd "/>
<title>b'Shape2DView001'</title>
</g>
</svg>