<?xml version="1.0"?>
<!DOCTYPE svg PUBLIC "-//W3C//DTD SVG 1.1//EN" "http://www.w3.org/Graphics/SVG/1.1/DTD/svg11.dtd">
<svg width="265.557mm" height="94.10699999999999mm" viewBox="0 0 265.557 94.10699999999999" xmlns="http://www.w3.org/2000/svg" version="1.1">
<g id="Sketch" transform="translate(133.172250,150.628500) scale(1,-1)">
<path id="Sketch_w0000"  d="M 69.45625000000001 102.78125 L 121.84375 102.78125 A 2.38125 2.38125 0 0 1 124.225 105.162L 124.22500000000002 140.08750000000003 A 2.38125 2.38125 0 0 1 121.844 142.469L 1.1937499999999943 142.46875 A 1.5875 1.5875 0 0 0 -0.39375 144.056L -0.39375000000001137 146.43750000000003 A 1.5875 1.5875 0 0 0 1.19375 148.025L 121.05000000000001 148.02499999999998 A 8.73125 8.73125 0 0 0 129.781 139.294L 129.78125 105.95625000000003 A 8.73125 8.73125 0 0 0 121.05 97.225L 75.01249999999999 97.225 A 2.38125 2.38125 0 0 1 72.6312 94.8437L 72.63125 67.85624999999995 A 8.73125 8.73125 0 0 0 63.9 59.125L -83.7375 59.124999999999986 A 8.73125 8.73125 0 0 0 -92.4688 67.8562L -92.46875 94.84374999999997 A 2.38125 2.38125 0 0 1 -94.85 97.225L -121.83749999999999 97.22499999999998 A 8.73125 8.73125 0 0 0 -130.569 105.956L -130.56875 139.29375 A 8.73125 8.73125 0 0 0 -121.837 148.025L -21.03125 148.02499999999998 A 1.5875 1.5875 0 0 0 -19.4437 146.437L -19.443749999999994 144.05625 A 1.5875 1.5875 0 0 0 -21.0313 142.469L -122.63125 142.46875 A 2.38125 2.38125 0 0 1 -125.013 140.087L -125.0125 105.16250000000001 A 2.38125 2.38125 0 0 1 -122.631 102.781L -89.29374999999999 102.78125 A 2.38125 2.38125 0 0 0 -86.9125 100.4L -86.91250000000001 67.06250000000001 A 2.38125 2.38125 0 0 1 -84.5313 64.6812L 64.69375 64.68124999999999 A 2.38125 2.38125 0 0 1 67.075 67.0625L 67.07500000000002 100.39999999999998 A 2.38125 2.38125 0 0 0 69.4563 102.781" stroke="#191919" stroke-width="0.35 px" style="stroke-width:0.35;stroke-miterlimit:4;stroke-dasharray:none;fill:none;fill-rule: evenodd "/>
<title>b'Sketch'</title>
</g>
</svg>