<?xml version="1.0"?>
<!DOCTYPE svg PUBLIC "-//W3C//DTD SVG 1.1//EN" "http://www.w3.org/Graphics/SVG/1.1/DTD/svg11.dtd">
<svg width="265.557mm" height="94.107mm" viewBox="0 0 265.557 94.107" xmlns="http://www.w3.org/2000/svg" version="1.1">
<g id="Pcb_5238" transform="translate(-18.827750,-51.371500) scale(1,-1)">
<path id="Pcb_5238_f0000"  d="M 227.0125 -104.77499999999999 L 227.0125 -104.77499999999999 L 273.05 -104.775 L 273.05 -104.775 L 227.0125 -104.77499999999999 Z " stroke="#191919" stroke-width="0.35 px" style="stroke-width:0.35;stroke-miterlimit:4;stroke-dasharray:none;fill:#339966;fill-opacity:1.0;fill-rule: evenodd "/>
<path id="Pcb_5238_f0001"  d="M 273.05 -104.775 L 273.05 -104.775 A 8.73125 8.73125 0 0 1 281.781 -96.0437L 281.78125 -96.04374999999996 A 8.73125 8.73125 0 0 0 273.05 -104.775Z " stroke="#191919" stroke-width="0.35 px" style="stroke-width:0.35;stroke-miterlimit:4;stroke-dasharray:none;fill:#339966;fill-opacity:1.0;fill-rule: evenodd "/>
<path id="Pcb_5238_f0002"  d="M 281.78125 -96.04374999999996 L 281.78125 -96.04374999999996 L 281.78125 -62.70625000000004 L 281.78125 -62.70625000000004 L 281.78125 -96.04374999999996 Z " stroke="#191919" stroke-width="0.35 px" style="stroke-width:0.35;stroke-miterlimit:4;stroke-dasharray:none;fill:#339966;fill-opacity:1.0;fill-rule: evenodd "/>
<path id="Pcb_5238_f0003"  d="M 281.78125 -62.70625000000004 L 281.78125 -62.70625000000004 A 8.73125 8.73125 0 0 1 273.05 -53.975L 273.05 -53.975 A 8.73125 8.73125 0 0 0 281.781 -62.7063Z " stroke="#191919" stroke-width="0.35 px" style="stroke-width:0.35;stroke-miterlimit:4;stroke-dasharray:none;fill:#339966;fill-opacity:1.0;fill-rule: evenodd "/>
<path id="Pcb_5238_f0004"  d="M 273.05 -53.975 L 273.05 -53.975 L 30.162499999999998 -53.975 L 30.162499999999998 -53.975 L 273.05 -53.975 Z " stroke="#191919" stroke-width="0.35 px" style="stroke-width:0.35;stroke-miterlimit:4;stroke-dasharray:none;fill:#339966;fill-opacity:1.0;fill-rule: evenodd "/>
<path id="Pcb_5238_f0005"  d="M 30.162499999999998 -53.975 L 30.162499999999998 -53.975 A 8.73125 8.73125 0 0 1 21.4313 -62.7062L 21.431250000000006 -62.70625 A 8.73125 8.73125 0 0 0 30.1625 -53.975Z " stroke="#191919" stroke-width="0.35 px" style="stroke-width:0.35;stroke-miterlimit:4;stroke-dasharray:none;fill:#339966;fill-opacity:1.0;fill-rule: evenodd "/>
<path id="Pcb_5238_f0006"  d="M 21.431250000000006 -62.70625 L 21.431250000000006 -62.70625 L 21.431249999999995 -96.04375 L 21.431249999999995 -96.04375 L 21.431250000000006 -62.70625 Z " stroke="#191919" stroke-width="0.35 px" style="stroke-width:0.35;stroke-miterlimit:4;stroke-dasharray:none;fill:#339966;fill-opacity:1.0;fill-rule: evenodd "/>
<path id="Pcb_5238_f0007"  d="M 21.431249999999995 -96.04375 L 21.431249999999995 -96.04375 A 8.73125 8.73125 0 0 1 30.1625 -104.775L 30.1625 -104.775 A 8.73125 8.73125 0 0 0 21.4312 -96.0438Z " stroke="#191919" stroke-width="0.35 px" style="stroke-width:0.35;stroke-miterlimit:4;stroke-dasharray:none;fill:#339966;fill-opacity:1.0;fill-rule: evenodd "/>
<path id="Pcb_5238_f0008"  d="M 30.1625 -104.775 L 57.15 -104.775 L 57.15 -104.775 L 30.1625 -104.775 L 30.1625 -104.775 Z " stroke="#191919" stroke-width="0.35 px" style="stroke-width:0.35;stroke-miterlimit:4;stroke-dasharray:none;fill:#339966;fill-opacity:1.0;fill-rule: evenodd "/>
<path id="Pcb_5238_f0009"  d="M 57.15 -104.775 A 2.38125 2.38125 0 0 0 59.5313 -107.156L 59.53125 -107.15625000000001 A 2.38125 2.38125 0 0 1 57.15 -104.775L 57.15 -104.775 Z " stroke="#191919" stroke-width="0.35 px" style="stroke-width:0.35;stroke-miterlimit:4;stroke-dasharray:none;fill:#339966;fill-opacity:1.0;fill-rule: evenodd "/>
<path id="Pcb_5238_f0010"  d="M 59.53125 -107.15625000000001 L 59.53125 -107.15625000000001 L 59.53125 -134.14375000000004 L 59.53125 -134.14375000000004 L 59.53125 -107.15625000000001 Z " stroke="#191919" stroke-width="0.35 px" style="stroke-width:0.35;stroke-miterlimit:4;stroke-dasharray:none;fill:#339966;fill-opacity:1.0;fill-rule: evenodd "/>
<path id="Pcb_5238_f0011"  d="M 59.53125 -134.14375000000004 L 59.53125 -134.14375000000004 A 8.73125 8.73125 0 0 1 68.2625 -142.875L 68.2625 -142.875 A 8.73125 8.73125 0 0 0 59.5313 -134.144Z " stroke="#191919" stroke-width="0.35 px" style="stroke-width:0.35;stroke-miterlimit:4;stroke-dasharray:none;fill:#339966;fill-opacity:1.0;fill-rule: evenodd "/>
<path id="Pcb_5238_f0012"  d="M 68.2625 -142.875 L 68.2625 -142.875 L 215.89999999999998 -142.875 L 215.89999999999998 -142.875 L 68.2625 -142.875 Z " stroke="#191919" stroke-width="0.35 px" style="stroke-width:0.35;stroke-miterlimit:4;stroke-dasharray:none;fill:#339966;fill-opacity:1.0;fill-rule: evenodd "/>
<path id="Pcb_5238_f0013"  d="M 215.89999999999998 -142.875 L 215.89999999999998 -142.875 A 8.73125 8.73125 0 0 1 224.631 -134.144L 224.63125 -134.14375000000004 A 8.73125 8.73125 0 0 0 215.9 -142.875Z " stroke="#191919" stroke-width="0.35 px" style="stroke-width:0.35;stroke-miterlimit:4;stroke-dasharray:none;fill:#339966;fill-opacity:1.0;fill-rule: evenodd "/>
<path id="Pcb_5238_f0014"  d="M 224.63125 -134.14375000000004 L 224.63125 -134.14375000000004 L 224.63125 -107.15625000000001 L 224.63125 -107.15625000000001 L 224.63125 -134.14375000000004 Z " stroke="#191919" stroke-width="0.35 px" style="stroke-width:0.35;stroke-miterlimit:4;stroke-dasharray:none;fill:#339966;fill-opacity:1.0;fill-rule: evenodd "/>
<path id="Pcb_5238_f0015"  d="M 224.63125 -107.15625000000001 A 2.38125 2.38125 0 0 0 227.012 -104.775L 227.0125 -104.77499999999999 A 2.38125 2.38125 0 0 1 224.631 -107.156L 224.63125 -107.15625000000001 Z " stroke="#191919" stroke-width="0.35 px" style="stroke-width:0.35;stroke-miterlimit:4;stroke-dasharray:none;fill:#339966;fill-opacity:1.0;fill-rule: evenodd "/>
<path id="Pcb_5238_f0016"  d="M 227.0125 -104.77499999999999 L 273.05 -104.775 A 8.73125 8.73125 0 0 1 281.781 -96.0437L 281.78125 -62.70625000000004 A 8.73125 8.73125 0 0 1 273.05 -53.975L 30.162499999999998 -53.975 A 8.73125 8.73125 0 0 1 21.4313 -62.7062L 21.431249999999995 -96.04375 A 8.73125 8.73125 0 0 1 30.1625 -104.775L 57.15 -104.775 A 2.38125 2.38125 0 0 0 59.5313 -107.156L 59.53125 -134.14375000000004 A 8.73125 8.73125 0 0 1 68.2625 -142.875L 215.89999999999998 -142.875 A 8.73125 8.73125 0 0 1 224.631 -134.144L 224.63125 -107.15625000000001 A 2.38125 2.38125 0 0 0 227.012 -104.775Z " stroke="#191919" stroke-width="0.35 px" style="stroke-width:0.35;stroke-miterlimit:4;stroke-dasharray:none;fill:#339966;fill-opacity:1.0;fill-rule: evenodd "/>
<path id="Pcb_5238_f0017"  d="M 227.0125 -104.77499999999999 A 2.38125 2.38125 0 0 1 224.631 -107.156L 224.63125 -134.14375000000004 A 8.73125 8.73125 0 0 0 215.9 -142.875L 68.2625 -142.875 A 8.73125 8.73125 0 0 0 59.5313 -134.144L 59.53125 -107.15625000000001 A 2.38125 2.38125 0 0 1 57.15 -104.775L 30.1625 -104.775 A 8.73125 8.73125 0 0 0 21.4312 -96.0438L 21.431250000000006 -62.70625 A 8.73125 8.73125 0 0 0 30.1625 -53.975L 273.05 -53.975 A 8.73125 8.73125 0 0 0 281.781 -62.7063L 281.78125 -96.04374999999996 A 8.73125 8.73125 0 0 0 273.05 -104.775L 227.0125 -104.77499999999999 Z " stroke="#191919" stroke-width="0.35 px" style="stroke-width:0.35;stroke-miterlimit:4;stroke-dasharray:none;fill:#339966;fill-opacity:1.0;fill-rule: evenodd "/>
<title>b'Pcb_5238'</title>
</g>
</svg>