<svg width="280" height="113" viewBox="0 0 280 113" fill="none" xmlns="http://www.w3.org/2000/svg">
<path fill-rule="evenodd" clip-rule="evenodd" d="M121.068 12H17.8817C15.5263 12 13.2668 12.9357 11.6012 14.6012C9.93569 16.2668 9 18.5257 9 20.8812V54.2185C9 56.5739 9.93569 58.8329 11.6012 60.4984C13.2668 62.164 15.5257 63.0996 17.8812 63.0996L44.8688 62.9496C45.5004 62.9496 46.1061 63.2005 46.5526 63.6471C46.9992 64.0936 47.2502 64.6994 47.2502 65.3309L47.1002 92.3182C47.1002 93.4845 47.33 94.6393 47.7763 95.7169C48.2226 96.7944 48.8768 97.7734 49.7015 98.5981C50.5262 99.4228 51.5052 100.077 52.5828 100.523C53.6603 100.97 54.8146 101.199 55.9809 101.199H203.617C204.784 101.199 205.939 100.97 207.016 100.523C208.094 100.077 209.073 99.4228 209.898 98.5981C210.722 97.7734 211.376 96.7944 211.823 95.7169C212.269 94.6393 212.498 93.4845 212.498 92.3182V65.3309C212.498 64.7391 212.733 64.1716 213.152 63.7531C213.57 63.3347 214.138 63.0996 214.73 63.0996L260.767 63.0996C263.122 63.0996 265.381 62.164 267.047 60.4984C268.712 58.8329 269.648 56.5739 269.648 54.2184L269.648 20.8812C269.648 18.5257 268.712 16.2668 267.047 14.6012C265.381 12.9357 263.122 12 260.767 12H138.53H121.068ZM121.068 18H17.8817C17.1176 18 16.384 18.3036 15.8436 18.8439C15.3033 19.3842 14.9997 20.1171 14.9997 20.8812V54.2184C14.9997 54.9826 15.3033 55.7155 15.8436 56.2558C16.384 56.7961 17.1168 57.0997 17.881 57.0997L51.2189 57.0996C51.7178 57.0996 52.1963 57.2978 52.5491 57.6506C52.9019 58.0034 53.1 58.4819 53.1 58.9809V92.3181C53.1 93.0823 53.4035 93.8152 53.9439 94.3555C54.4842 94.8958 55.2167 95.1994 55.9809 95.1994L203.618 95.1994C204.382 95.1994 205.115 94.8958 205.655 94.3555C206.195 93.8152 206.499 93.0823 206.499 92.3182L206.499 58.9809C206.499 58.4819 206.697 58.0034 207.05 57.6506C207.402 57.2978 207.881 57.0996 208.38 57.0996L260.767 57.0997C261.531 57.0997 262.264 56.7961 262.804 56.2558C263.345 55.7155 263.648 54.9826 263.648 54.2185L263.648 20.8812C263.648 20.117 263.345 19.3842 262.804 18.8439C262.264 18.3036 261.531 18 260.767 18H138.53H121.068Z" fill="black"/>
</svg>
