<svg width="280" height="113" viewBox="0 0 280 113" fill="none" xmlns="http://www.w3.org/2000/svg">
<path d="M244.098 40.5498C245.755 40.5498 247.098 39.2067 247.098 37.5498C247.098 35.893 245.755 34.5498 244.098 34.5498C242.441 34.5498 241.098 35.893 241.098 37.5498C241.098 39.2067 242.441 40.5498 244.098 40.5498Z" fill="black"/>
<path d="M167.898 40.5498C169.555 40.5498 170.898 39.2067 170.898 37.5498C170.898 35.893 169.555 34.5498 167.898 34.5498C166.242 34.5498 164.898 35.893 164.898 37.5498C164.898 39.2067 166.242 40.5498 167.898 40.5498Z" fill="black"/>
<path d="M186.948 88.1744C188.605 88.1744 189.948 86.8313 189.948 85.1744C189.948 83.5176 188.605 82.1744 186.948 82.1744C185.292 82.1744 183.948 83.5176 183.948 85.1744C183.948 86.8313 185.292 88.1744 186.948 88.1744Z" fill="black"/>
<path d="M72.6489 88.1744C74.3057 88.1744 75.6489 86.8313 75.6489 85.1744C75.6489 83.5176 74.3057 82.1744 72.6489 82.1744C70.9921 82.1744 69.6489 83.5176 69.6489 85.1744C69.6489 86.8313 70.9921 88.1744 72.6489 88.1744Z" fill="black"/>
<path d="M91.699 40.5498C93.3558 40.5498 94.6989 39.2067 94.6989 37.5498C94.6989 35.893 93.3558 34.5498 91.699 34.5498C90.0421 34.5498 88.699 35.893 88.699 37.5498C88.699 39.2067 90.0421 40.5498 91.699 40.5498Z" fill="black"/>
<path d="M34.5498 40.5498C36.2066 40.5498 37.5498 39.2067 37.5498 37.5498C37.5498 35.893 36.2066 34.5498 34.5498 34.5498C32.8929 34.5498 31.5498 35.893 31.5498 37.5498C31.5498 39.2067 32.8929 40.5498 34.5498 40.5498Z" fill="black"/>
</svg>
