<svg width="280" height="113" viewBox="0 0 280 113" fill="none" xmlns="http://www.w3.org/2000/svg">
<path d="M34.5497 38.6498C35.1572 38.6498 35.6497 38.1574 35.6497 37.5499C35.6497 36.9423 35.1572 36.4499 34.5497 36.4499C33.9422 36.4499 33.4497 36.9423 33.4497 37.5499C33.4497 38.1574 33.9422 38.6498 34.5497 38.6498Z" fill="black"/>
<path d="M91.6989 38.6498C92.3064 38.6498 92.7989 38.1574 92.7989 37.5499C92.7989 36.9423 92.3064 36.4499 91.6989 36.4499C91.0914 36.4499 90.5989 36.9423 90.5989 37.5499C90.5989 38.1574 91.0914 38.6498 91.6989 38.6498Z" fill="black"/>
<path d="M72.65 86.2745C73.2575 86.2745 73.75 85.782 73.75 85.1745C73.75 84.567 73.2575 84.0745 72.65 84.0745C72.0425 84.0745 71.55 84.567 71.55 85.1745C71.55 85.782 72.0425 86.2745 72.65 86.2745Z" fill="black"/>
<path d="M186.948 86.2745C187.556 86.2745 188.048 85.782 188.048 85.1745C188.048 84.567 187.556 84.0745 186.948 84.0745C186.341 84.0745 185.848 84.567 185.848 85.1745C185.848 85.782 186.341 86.2745 186.948 86.2745Z" fill="black"/>
<path d="M167.898 38.6498C168.506 38.6498 168.998 38.1574 168.998 37.5499C168.998 36.9423 168.506 36.4499 167.898 36.4499C167.291 36.4499 166.798 36.9423 166.798 37.5499C166.798 38.1574 167.291 38.6498 167.898 38.6498Z" fill="black"/>
<path d="M244.098 38.6498C244.705 38.6498 245.198 38.1574 245.198 37.5499C245.198 36.9423 244.705 36.4499 244.098 36.4499C243.49 36.4499 242.998 36.9423 242.998 37.5499C242.998 38.1574 243.49 38.6498 244.098 38.6498Z" fill="black"/>
</svg>
