<svg width="280" height="113" viewBox="0 0 280 113" fill="none" xmlns="http://www.w3.org/2000/svg">
<path d="M17.8812 18C17.1171 18 16.3842 18.3036 15.8439 18.8439C15.3036 19.3842 15 20.1171 15 20.8812V54.2185C15 54.9826 15.3036 55.7155 15.8439 56.2558C16.3842 56.7961 17.1171 57.0997 17.8812 57.0997L51.218 57.0997C51.717 57.0997 52.1955 57.2979 52.5483 57.6507C52.9011 58.0035 53.1003 58.482 53.1003 58.9809V92.3182C53.1003 93.0823 53.4038 93.8152 53.9441 94.3555C54.4845 94.8959 55.217 95.1994 55.9811 95.1994H203.617C204.381 95.1994 205.114 94.8959 205.654 94.3555C206.194 93.8152 206.498 93.0823 206.498 92.3182L206.499 58.9809C206.499 58.482 206.697 58.0035 207.05 57.6507C207.403 57.2979 207.881 57.0997 208.38 57.0997L260.767 57.0997C261.531 57.0997 262.264 56.7961 262.805 56.2558C263.345 55.7155 263.648 54.9826 263.648 54.2185L263.648 20.8812C263.648 20.1171 263.345 19.3842 262.805 18.8439C262.264 18.3036 261.531 18 260.767 18H17.8812Z" fill="black"/>
</svg>
