<svg width="280" height="113" viewBox="0 0 280 113" fill="none" xmlns="http://www.w3.org/2000/svg">
<path d="M47.1079 92.3342L47.2579 65.3415C47.2579 64.7098 47.0068 64.104 46.5601 63.6573C46.1135 63.2107 45.5077 62.9598 44.876 62.9598L17.883 63.1098C15.527 63.1098 13.2676 62.1739 11.6018 60.508C9.93588 58.8422 9 56.5827 9 54.2268V20.8829C9 18.527 9.93588 16.2676 11.6018 14.6018C13.2676 12.9359 15.527 12 17.883 12L260.817 12C263.173 12 265.432 12.9359 267.098 14.6018C268.764 16.2676 269.7 18.527 269.7 20.8829L269.699 54.2268C269.699 56.5827 268.764 58.8422 267.098 60.508C265.432 62.1739 263.173 63.1098 260.817 63.1098L214.77 63.1098C214.179 63.1098 213.611 63.3449 213.192 63.7634C212.774 64.182 212.539 64.7496 212.539 65.3415V92.3342C212.539 93.5007 212.31 94.6558 211.863 95.7335C211.417 96.8112 210.763 97.7905 209.938 98.6153C209.113 99.4402 208.134 100.095 207.056 100.541C205.978 100.987 204.823 101.217 203.656 101.217H55.9902C54.8237 101.217 53.6692 100.987 52.5915 100.541C51.5138 100.095 50.5345 99.4402 49.7096 98.6153C48.8848 97.7905 48.2305 96.8112 47.7841 95.7335C47.3377 94.6558 47.1079 93.5007 47.1079 92.3342Z" fill="black"/>
</svg>
