0
SECTION
2
HEADER
9
$INSUNITS
70
4
0
ENDSEC
0
SECTION
2
TABLES
0
TABLE
2
LTYPE
0
LTYPE
72
65
70
64
2
CONTINUOUS
3
______
73
0
40
0
0
ENDTAB
0
TABLE
2
LAYER
0
ENDTAB
0
ENDSEC
0
SECTION
2
ENTITIES
0
ARC
8
0
10
3.025
20
-16.025
40
0.5
50
180
51
270
0
ARC
8
0
10
16.025
20
-16.025
40
0.5
50
270
51
0
0
ARC
8
0
10
16.025
20
-3.025
40
0.5
50
0
51
90
0
ARC
8
0
10
3.025
20
-3.025
40
0.5
50
90
51
180
0
LINE
8
0
10
3.025
20
-16.525
11
16.025
21
-16.525
0
LINE
8
0
10
16.025
20
-2.525
11
3.025
21
-2.525
0
LINE
8
0
10
16.525
20
-16.025
11
16.525
21
-3.025
0
LINE
8
0
10
2.525
20
-3.025
11
2.525
21
-16.025
0
ARC
8
0
10
22.075
20
-16.025
40
0.5
50
180
51
270
0
ARC
8
0
10
35.075
20
-16.025
40
0.5
50
270
51
0
0
ARC
8
0
10
35.075
20
-3.025
40
0.5
50
0
51
90
0
ARC
8
0
10
22.075
20
-3.025
40
0.5
50
90
51
180
0
LINE
8
0
10
22.075
20
-16.525
11
35.075
21
-16.525
0
LINE
8
0
10
35.075
20
-2.525
11
22.075
21
-2.525
0
LINE
8
0
10
35.575
20
-16.025
11
35.575
21
-3.025
0
LINE
8
0
10
21.575
20
-3.025
11
21.575
21
-16.025
0
ARC
8
0
10
41.125
20
-16.025
40
0.5
50
180
51
270
0
ARC
8
0
10
54.125
20
-16.025
40
0.5
50
270
51
0
0
ARC
8
0
10
54.125
20
-3.025
40
0.5
50
0
51
90
0
ARC
8
0
10
41.125
20
-3.025
40
0.5
50
90
51
180
0
LINE
8
0
10
41.125
20
-16.525
11
54.125
21
-16.525
0
LINE
8
0
10
54.125
20
-2.525
11
41.125
21
-2.525
0
LINE
8
0
10
54.625
20
-16.025
11
54.625
21
-3.025
0
LINE
8
0
10
40.625
20
-3.025
11
40.625
21
-16.025
0
ARC
8
0
10
60.175
20
-16.025
40
0.5
50
180
51
270
0
ARC
8
0
10
73.175
20
-16.025
40
0.5
50
270
51
0
0
ARC
8
0
10
73.175
20
-3.025
40
0.5
50
0
51
90
0
ARC
8
0
10
60.175
20
-3.025
40
0.5
50
90
51
180
0
LINE
8
0
10
60.175
20
-16.525
11
73.175
21
-16.525
0
LINE
8
0
10
73.175
20
-2.525
11
60.175
21
-2.525
0
LINE
8
0
10
73.675
20
-16.025
11
73.675
21
-3.025
0
LINE
8
0
10
59.675
20
-3.025
11
59.675
21
-16.025
0
ARC
8
0
10
79.225
20
-16.025
40
0.5
50
180
51
270
0
ARC
8
0
10
92.225
20
-16.025
40
0.5
50
270
51
0
0
ARC
8
0
10
92.225
20
-3.025
40
0.5
50
0
51
90
0
ARC
8
0
10
79.225
20
-3.025
40
0.5
50
90
51
180
0
LINE
8
0
10
79.225
20
-16.525
11
92.225
21
-16.525
0
LINE
8
0
10
92.225
20
-2.525
11
79.225
21
-2.525
0
LINE
8
0
10
92.725
20
-16.025
11
92.725
21
-3.025
0
LINE
8
0
10
78.725
20
-3.025
11
78.725
21
-16.025
0
ARC
8
0
10
136.375
20
-16.025
40
0.5
50
180
51
270
0
ARC
8
0
10
149.375
20
-16.025
40
0.5
50
270
51
0
0
ARC
8
0
10
149.375
20
-3.025
40
0.5
50
0
51
90
0
ARC
8
0
10
136.375
20
-3.025
40
0.5
50
90
51
180
0
LINE
8
0
10
136.375
20
-16.525
11
149.375
21
-16.525
0
LINE
8
0
10
149.375
20
-2.525
11
136.375
21
-2.525
0
LINE
8
0
10
149.875
20
-16.025
11
149.875
21
-3.025
0
LINE
8
0
10
135.875
20
-3.025
11
135.875
21
-16.025
0
ARC
8
0
10
155.425
20
-16.025
40
0.5
50
180
51
270
0
ARC
8
0
10
168.425
20
-16.025
40
0.5
50
270
51
0
0
ARC
8
0
10
168.425
20
-3.025
40
0.5
50
0
51
90
0
ARC
8
0
10
155.425
20
-3.025
40
0.5
50
90
51
180
0
LINE
8
0
10
155.425
20
-16.525
11
168.425
21
-16.525
0
LINE
8
0
10
168.425
20
-2.525
11
155.425
21
-2.525
0
LINE
8
0
10
168.925
20
-16.025
11
168.925
21
-3.025
0
LINE
8
0
10
154.925
20
-3.025
11
154.925
21
-16.025
0
ARC
8
0
10
174.475
20
-16.025
40
0.5
50
180
51
270
0
ARC
8
0
10
187.475
20
-16.025
40
0.5
50
270
51
0
0
ARC
8
0
10
187.475
20
-3.025
40
0.5
50
0
51
90
0
ARC
8
0
10
174.475
20
-3.025
40
0.5
50
90
51
180
0
LINE
8
0
10
174.475
20
-16.525
11
187.475
21
-16.525
0
LINE
8
0
10
187.475
20
-2.525
11
174.475
21
-2.525
0
LINE
8
0
10
187.975
20
-16.025
11
187.975
21
-3.025
0
LINE
8
0
10
173.975
20
-3.025
11
173.975
21
-16.025
0
ARC
8
0
10
193.525
20
-16.025
40
0.5
50
180
51
270
0
ARC
8
0
10
206.525
20
-16.025
40
0.5
50
270
51
0
0
ARC
8
0
10
206.525
20
-3.025
40
0.5
50
0
51
90
0
ARC
8
0
10
193.525
20
-3.025
40
0.5
50
90
51
180
0
LINE
8
0
10
193.525
20
-16.525
11
206.525
21
-16.525
0
LINE
8
0
10
206.525
20
-2.525
11
193.525
21
-2.525
0
LINE
8
0
10
207.025
20
-16.025
11
207.025
21
-3.025
0
LINE
8
0
10
193.025
20
-3.025
11
193.025
21
-16.025
0
ARC
8
0
10
212.575
20
-16.025
40
0.5
50
180
51
270
0
ARC
8
0
10
225.575
20
-16.025
40
0.5
50
270
51
0
0
ARC
8
0
10
225.575
20
-3.025
40
0.5
50
0
51
90
0
ARC
8
0
10
212.575
20
-3.025
40
0.5
50
90
51
180
0
LINE
8
0
10
212.575
20
-16.525
11
225.575
21
-16.525
0
LINE
8
0
10
225.575
20
-2.525
11
212.575
21
-2.525
0
LINE
8
0
10
226.075
20
-16.025
11
226.075
21
-3.025
0
LINE
8
0
10
212.075
20
-3.025
11
212.075
21
-16.025
0
ARC
8
0
10
231.625
20
-16.025
40
0.5
50
180
51
270
0
ARC
8
0
10
244.625
20
-16.025
40
0.5
50
270
51
0
0
ARC
8
0
10
244.625
20
-3.025
40
0.5
50
0
51
90
0
ARC
8
0
10
231.625
20
-3.025
40
0.5
50
90
51
180
0
LINE
8
0
10
231.625
20
-16.525
11
244.625
21
-16.525
0
LINE
8
0
10
244.625
20
-2.525
11
231.625
21
-2.525
0
LINE
8
0
10
245.125
20
-16.025
11
245.125
21
-3.025
0
LINE
8
0
10
231.125
20
-3.025
11
231.125
21
-16.025
0
ARC
8
0
10
3.025
20
-35.075
40
0.5
50
180
51
270
0
ARC
8
0
10
16.025
20
-35.075
40
0.5
50
270
51
0
0
ARC
8
0
10
16.025
20
-22.075
40
0.5
50
0
51
90
0
ARC
8
0
10
3.025
20
-22.075
40
0.5
50
90
51
180
0
LINE
8
0
10
3.025
20
-35.575
11
16.025
21
-35.575
0
LINE
8
0
10
16.025
20
-21.575
11
3.025
21
-21.575
0
LINE
8
0
10
16.525
20
-35.075
11
16.525
21
-22.075
0
LINE
8
0
10
2.525
20
-22.075
11
2.525
21
-35.075
0
ARC
8
0
10
22.075
20
-35.075
40
0.5
50
180
51
270
0
ARC
8
0
10
35.075
20
-35.075
40
0.5
50
270
51
0
0
ARC
8
0
10
35.075
20
-22.075
40
0.5
50
0
51
90
0
ARC
8
0
10
22.075
20
-22.075
40
0.5
50
90
51
180
0
LINE
8
0
10
22.075
20
-35.575
11
35.075
21
-35.575
0
LINE
8
0
10
35.075
20
-21.575
11
22.075
21
-21.575
0
LINE
8
0
10
35.575
20
-35.075
11
35.575
21
-22.075
0
LINE
8
0
10
21.575
20
-22.075
11
21.575
21
-35.075
0
ARC
8
0
10
41.125
20
-35.075
40
0.5
50
180
51
270
0
ARC
8
0
10
54.125
20
-35.075
40
0.5
50
270
51
0
0
ARC
8
0
10
54.125
20
-22.075
40
0.5
50
0
51
90
0
ARC
8
0
10
41.125
20
-22.075
40
0.5
50
90
51
180
0
LINE
8
0
10
41.125
20
-35.575
11
54.125
21
-35.575
0
LINE
8
0
10
54.125
20
-21.575
11
41.125
21
-21.575
0
LINE
8
0
10
54.625
20
-35.075
11
54.625
21
-22.075
0
LINE
8
0
10
40.625
20
-22.075
11
40.625
21
-35.075
0
ARC
8
0
10
60.175
20
-35.075
40
0.5
50
180
51
270
0
ARC
8
0
10
73.175
20
-35.075
40
0.5
50
270
51
0
0
ARC
8
0
10
73.175
20
-22.075
40
0.5
50
0
51
90
0
ARC
8
0
10
60.175
20
-22.075
40
0.5
50
90
51
180
0
LINE
8
0
10
60.175
20
-35.575
11
73.175
21
-35.575
0
LINE
8
0
10
73.175
20
-21.575
11
60.175
21
-21.575
0
LINE
8
0
10
73.675
20
-35.075
11
73.675
21
-22.075
0
LINE
8
0
10
59.675
20
-22.075
11
59.675
21
-35.075
0
ARC
8
0
10
79.225
20
-35.075
40
0.5
50
180
51
270
0
ARC
8
0
10
92.225
20
-35.075
40
0.5
50
270
51
0
0
ARC
8
0
10
92.225
20
-22.075
40
0.5
50
0
51
90
0
ARC
8
0
10
79.225
20
-22.075
40
0.5
50
90
51
180
0
LINE
8
0
10
79.225
20
-35.575
11
92.225
21
-35.575
0
LINE
8
0
10
92.225
20
-21.575
11
79.225
21
-21.575
0
LINE
8
0
10
92.725
20
-35.075
11
92.725
21
-22.075
0
LINE
8
0
10
78.725
20
-22.075
11
78.725
21
-35.075
0
ARC
8
0
10
136.375
20
-35.075
40
0.5
50
180
51
270
0
ARC
8
0
10
149.375
20
-35.075
40
0.5
50
270
51
0
0
ARC
8
0
10
149.375
20
-22.075
40
0.5
50
0
51
90
0
ARC
8
0
10
136.375
20
-22.075
40
0.5
50
90
51
180
0
LINE
8
0
10
136.375
20
-35.575
11
149.375
21
-35.575
0
LINE
8
0
10
149.375
20
-21.575
11
136.375
21
-21.575
0
LINE
8
0
10
149.875
20
-35.075
11
149.875
21
-22.075
0
LINE
8
0
10
135.875
20
-22.075
11
135.875
21
-35.075
0
ARC
8
0
10
155.425
20
-35.075
40
0.5
50
180
51
270
0
ARC
8
0
10
168.425
20
-35.075
40
0.5
50
270
51
0
0
ARC
8
0
10
168.425
20
-22.075
40
0.5
50
0
51
90
0
ARC
8
0
10
155.425
20
-22.075
40
0.5
50
90
51
180
0
LINE
8
0
10
155.425
20
-35.575
11
168.425
21
-35.575
0
LINE
8
0
10
168.425
20
-21.575
11
155.425
21
-21.575
0
LINE
8
0
10
168.925
20
-35.075
11
168.925
21
-22.075
0
LINE
8
0
10
154.925
20
-22.075
11
154.925
21
-35.075
0
ARC
8
0
10
174.475
20
-35.075
40
0.5
50
180
51
270
0
ARC
8
0
10
187.475
20
-35.075
40
0.5
50
270
51
0
0
ARC
8
0
10
187.475
20
-22.075
40
0.5
50
0
51
90
0
ARC
8
0
10
174.475
20
-22.075
40
0.5
50
90
51
180
0
LINE
8
0
10
174.475
20
-35.575
11
187.475
21
-35.575
0
LINE
8
0
10
187.475
20
-21.575
11
174.475
21
-21.575
0
LINE
8
0
10
187.975
20
-35.075
11
187.975
21
-22.075
0
LINE
8
0
10
173.975
20
-22.075
11
173.975
21
-35.075
0
ARC
8
0
10
193.525
20
-35.075
40
0.5
50
180
51
270
0
ARC
8
0
10
206.525
20
-35.075
40
0.5
50
270
51
0
0
ARC
8
0
10
206.525
20
-22.075
40
0.5
50
0
51
90
0
ARC
8
0
10
193.525
20
-22.075
40
0.5
50
90
51
180
0
LINE
8
0
10
193.525
20
-35.575
11
206.525
21
-35.575
0
LINE
8
0
10
206.525
20
-21.575
11
193.525
21
-21.575
0
LINE
8
0
10
207.025
20
-35.075
11
207.025
21
-22.075
0
LINE
8
0
10
193.025
20
-22.075
11
193.025
21
-35.075
0
ARC
8
0
10
212.575
20
-35.075
40
0.5
50
180
51
270
0
ARC
8
0
10
225.575
20
-35.075
40
0.5
50
270
51
0
0
ARC
8
0
10
225.575
20
-22.075
40
0.5
50
0
51
90
0
ARC
8
0
10
212.575
20
-22.075
40
0.5
50
90
51
180
0
LINE
8
0
10
212.575
20
-35.575
11
225.575
21
-35.575
0
LINE
8
0
10
225.575
20
-21.575
11
212.575
21
-21.575
0
LINE
8
0
10
226.075
20
-35.075
11
226.075
21
-22.075
0
LINE
8
0
10
212.075
20
-22.075
11
212.075
21
-35.075
0
ARC
8
0
10
231.625
20
-35.075
40
0.5
50
180
51
270
0
ARC
8
0
10
244.625
20
-35.075
40
0.5
50
270
51
0
0
ARC
8
0
10
244.625
20
-22.075
40
0.5
50
0
51
90
0
ARC
8
0
10
231.625
20
-22.075
40
0.5
50
90
51
180
0
LINE
8
0
10
231.625
20
-35.575
11
244.625
21
-35.575
0
LINE
8
0
10
244.625
20
-21.575
11
231.625
21
-21.575
0
LINE
8
0
10
245.125
20
-35.075
11
245.125
21
-22.075
0
LINE
8
0
10
231.125
20
-22.075
11
231.125
21
-35.075
0
ARC
8
0
10
41.125
20
-73.175
40
0.5
50
180
51
270
0
ARC
8
0
10
54.125
20
-73.175
40
0.5
50
270
51
0
0
ARC
8
0
10
54.125
20
-60.175
40
0.5
50
0
51
90
0
ARC
8
0
10
41.125
20
-60.175
40
0.5
50
90
51
180
0
LINE
8
0
10
41.125
20
-73.675
11
54.125
21
-73.675
0
LINE
8
0
10
54.125
20
-59.675
11
41.125
21
-59.675
0
LINE
8
0
10
54.625
20
-73.175
11
54.625
21
-60.175
0
LINE
8
0
10
40.625
20
-60.175
11
40.625
21
-73.175
0
ARC
8
0
10
60.175
20
-73.175
40
0.5
50
180
51
270
0
ARC
8
0
10
73.175
20
-73.175
40
0.5
50
270
51
0
0
ARC
8
0
10
73.175
20
-60.175
40
0.5
50
0
51
90
0
ARC
8
0
10
60.175
20
-60.175
40
0.5
50
90
51
180
0
LINE
8
0
10
60.175
20
-73.675
11
73.175
21
-73.675
0
LINE
8
0
10
73.175
20
-59.675
11
60.175
21
-59.675
0
LINE
8
0
10
73.675
20
-73.175
11
73.675
21
-60.175
0
LINE
8
0
10
59.675
20
-60.175
11
59.675
21
-73.175
0
ARC
8
0
10
79.225
20
-73.175
40
0.5
50
180
51
270
0
ARC
8
0
10
92.225
20
-73.175
40
0.5
50
270
51
0
0
ARC
8
0
10
92.225
20
-60.175
40
0.5
50
0
51
90
0
ARC
8
0
10
79.225
20
-60.175
40
0.5
50
90
51
180
0
LINE
8
0
10
79.225
20
-73.675
11
92.225
21
-73.675
0
LINE
8
0
10
92.225
20
-59.675
11
79.225
21
-59.675
0
LINE
8
0
10
92.725
20
-73.175
11
92.725
21
-60.175
0
LINE
8
0
10
78.725
20
-60.175
11
78.725
21
-73.175
0
ARC
8
0
10
136.375
20
-73.175
40
0.5
50
180
51
270
0
ARC
8
0
10
149.375
20
-73.175
40
0.5
50
270
51
0
0
ARC
8
0
10
149.375
20
-60.175
40
0.5
50
0
51
90
0
ARC
8
0
10
136.375
20
-60.175
40
0.5
50
90
51
180
0
LINE
8
0
10
136.375
20
-73.675
11
149.375
21
-73.675
0
LINE
8
0
10
149.375
20
-59.675
11
136.375
21
-59.675
0
LINE
8
0
10
149.875
20
-73.175
11
149.875
21
-60.175
0
LINE
8
0
10
135.875
20
-60.175
11
135.875
21
-73.175
0
ARC
8
0
10
155.425
20
-73.175
40
0.5
50
180
51
270
0
ARC
8
0
10
168.425
20
-73.175
40
0.5
50
270
51
0
0
ARC
8
0
10
168.425
20
-60.175
40
0.5
50
0
51
90
0
ARC
8
0
10
155.425
20
-60.175
40
0.5
50
90
51
180
0
LINE
8
0
10
155.425
20
-73.675
11
168.425
21
-73.675
0
LINE
8
0
10
168.425
20
-59.675
11
155.425
21
-59.675
0
LINE
8
0
10
168.925
20
-73.175
11
168.925
21
-60.175
0
LINE
8
0
10
154.925
20
-60.175
11
154.925
21
-73.175
0
ARC
8
0
10
174.475
20
-73.175
40
0.5
50
180
51
270
0
ARC
8
0
10
187.475
20
-73.175
40
0.5
50
270
51
0
0
ARC
8
0
10
187.475
20
-60.175
40
0.5
50
0
51
90
0
ARC
8
0
10
174.475
20
-60.175
40
0.5
50
90
51
180
0
LINE
8
0
10
174.475
20
-73.675
11
187.475
21
-73.675
0
LINE
8
0
10
187.475
20
-59.675
11
174.475
21
-59.675
0
LINE
8
0
10
187.975
20
-73.175
11
187.975
21
-60.175
0
LINE
8
0
10
173.975
20
-60.175
11
173.975
21
-73.175
0
ENDSEC
0
EOF