<?xml version="1.0" standalone="no"?>
 <!DOCTYPE svg PUBLIC "-//W3C//DTD SVG 1.1//EN" 
 "http://www.w3.org/Graphics/SVG/1.1/DTD/svg11.dtd"> 
<svg
  xmlns:svg="http://www.w3.org/2000/svg"
  xmlns="http://www.w3.org/2000/svg"
  xmlns:xlink="http://www.w3.org/1999/xlink"
  version="1.1"
  width="26.037540cm" height="8.892540cm" viewBox="0 0 102510 35010">
<title>SVG Picture created as unisplit_middle-brd.svg date 2021/01/30 18:52:07 </title>
  <desc>Picture generated by PCBNEW </desc>
<g style="fill:#000000; fill-opacity:1;stroke:#000000; stroke-opacity:1;
stroke-linecap:round; stroke-linejoin:round;"
 transform="translate(0 0) scale(1 1)">
</g>
<g style="fill:#000000; fill-opacity:0.0; 
stroke:#000000; stroke-width:-0.000393701; stroke-opacity:1; 
stroke-linecap:round; stroke-linejoin:round;">
</g>
<g style="fill:#000000; fill-opacity:0.0; 
stroke:#000000; stroke-width:19.685; stroke-opacity:1; 
stroke-linecap:round; stroke-linejoin:round;">
<path d="M99228 2353
L51884 2353
" />
<path d="M51884 9
L99072 9
" />
<path d="M3291 2353
L43134 2353
" />
<path d="M43134 9
L3447 9
" />
<path d="M51259 634
L51259 1728
" />
<path d="M43759 634
L43759 1728
" />
<path d="M43134.8 2353.59 A625 625 0.0 0 0 43759.8 1728.59" />
<path d="M51884.8 9.84291 A625 625 0.0 0 0 51259.8 634.843" />
<path d="M51259.8 1728.59 A625 625 0.0 0 0 51884.8 2353.59" />
<path d="M43759.8 634.843 A625 625 0.0 0 0 43134.8 9.84291" />
<path d="M80947.3 20009.8 A937.5 937.5 0.0 0 0 80009.8 20947.3" />
<path d="M9 3447
L9 16572
" />
<path d="M80009 31572
L80009 20947
" />
<path d="M18447 35009
L76572 35009
" />
<path d="M15009.8 20947.3 A937.5 937.5 0.0 0 0 14072.3 20009.8" />
<path d="M15009 20947
L15009 31572
" />
<path d="M102509 16572
L102509 3447
" />
<path d="M80947 20009
L99072 20009
" />
<path d="M102510 3447.34 A3437.5 3437.5 0.0 0 0 99072.3 9.84291" />
<path d="M15009.8 31572.3 A3437.5 3437.5 0.0 0 0 18447.3 35009.8" />
<path d="M14072 20009
L3447 20009
" />
<path d="M3447.34 9.84291 A3437.5 3437.5 0.0 0 0 9.84291 3447.34" />
<path d="M9.84291 16572.3 A3437.5 3437.5 0.0 0 0 3447.34 20009.8" />
<path d="M76572.3 35009.8 A3437.5 3437.5 0.0 0 0 80009.8 31572.3" />
<path d="M99072.3 20009.8 A3437.5 3437.5 0.0 0 0 102510 16572.3" />
<path d="M78447 17509
L99228 17666
" />
<path d="M77666 31728
L77509 18447
" />
<path d="M18291 32666
L76728 32666
" />
<path d="M17353 18603
L17353 31728
" />
<path d="M3291 17666
L16416 17666
" />
<path d="M17353.6 31728.6 A937.5 937.5 0.0 0 0 18291.1 32666.1" />
<path d="M76728.6 32666.1 A937.5 937.5 0.0 0 0 77666.1 31728.6" />
<path d="M78447.3 17509.8 A937.5 937.5 0.0 0 0 77509.8 18447.3" />
<path d="M17353.6 18603.6 A937.5 937.5 0.0 0 0 16416.1 17666.1" />
<path d="M100166 16728
L100166 3291
" />
<path d="M2353 3291
L2353 16728
" />
<path d="M3291.09 2353.59 A937.5 937.5 0.0 0 0 2353.59 3291.09" />
<path d="M2353.59 16728.6 A937.5 937.5 0.0 0 0 3291.09 17666.1" />
<path d="M99228.6 17666.1 A937.5 937.5 0.0 0 0 100166 16728.6" />
<path d="M100166 3291.09 A937.5 937.5 0.0 0 0 99228.6 2353.59" />
<g >
</g>
</g> 
</svg>
