<svg width="249" height="77" viewBox="0 0 249 77" fill="none" xmlns="http://www.w3.org/2000/svg">
<path d="M36.4982 38.4243H3.16096C2.52942 38.4243 1.92453 38.1734 1.47796 37.7269C1.0314 37.2803 0.780518 36.6746 0.780518 36.0431V2.70583C0.780518 2.07429 1.0314 1.46858 1.47796 1.02202C1.92453 0.575449 2.52942 0.32457 3.16096 0.32457H246.047C246.678 0.32457 247.284 0.575449 247.731 1.02202C248.178 1.46858 248.428 2.07429 248.428 2.70583V36.0431C248.428 36.6746 248.178 37.2803 247.731 37.7269C247.284 38.1734 246.679 38.4243 246.047 38.4243H193.66C193.028 38.4243 192.424 38.6751 191.977 39.1217C191.53 39.5683 191.28 40.174 191.28 40.8055V74.1428C191.28 74.7743 191.029 75.38 190.583 75.8266C190.136 76.2731 189.531 76.524 188.899 76.524M188.898 76.524H41.2612C40.6297 76.524 40.0248 76.2731 39.5782 75.8266C39.1316 75.38 38.8808 74.7743 38.8808 74.1428V40.8055C38.8808 40.174 38.6307 39.5683 38.1841 39.1217C37.7375 38.6751 37.1319 38.4243 36.5003 38.4243M150.306 35.7492C150.438 35.7492 150.565 35.6966 150.659 35.6028C150.753 35.509 150.806 35.3818 150.806 35.2492L150.806 22.2494C150.806 22.1168 150.753 21.9896 150.659 21.8958C150.565 21.802 150.438 21.7494 150.305 21.7494H137.305C137.173 21.7494 137.045 21.802 136.951 21.8958C136.858 21.9896 136.805 22.1168 136.805 22.2494V35.2493C136.805 35.3819 136.858 35.509 136.951 35.6028C137.045 35.6966 137.172 35.7492 137.305 35.7492M188.405 59.849H175.406C175.273 59.849 175.145 59.9017 175.052 59.9955C174.958 60.0893 174.905 60.2164 174.905 60.349V73.349C174.905 73.4816 174.958 73.6088 175.052 73.7026C175.145 73.7963 175.272 73.849 175.405 73.849L188.405 73.849C188.538 73.849 188.666 73.7963 188.759 73.7026C188.853 73.6088 188.906 73.4816 188.906 73.349M60.6066 3.19953V16.1994C60.6066 16.332 60.6593 16.4592 60.753 16.5529C60.8468 16.6467 60.974 16.6994 61.1066 16.6994M193.955 35.2492C193.955 35.3818 194.008 35.509 194.102 35.6028C194.195 35.6966 194.323 35.7492 194.455 35.7492L207.456 35.7493M188.906 16.1994C188.906 16.332 188.853 16.4592 188.759 16.5529C188.666 16.6467 188.538 16.6994 188.406 16.6994L175.406 16.6994M36.0067 16.6994H23.0068C22.8742 16.6994 22.7465 16.6467 22.6528 16.5529C22.559 16.4592 22.5063 16.332 22.5063 16.1994M227.004 16.1994C227.004 16.332 226.951 16.4592 226.857 16.5529C226.764 16.6467 226.637 16.6994 226.504 16.6994L213.504 16.6994M169.856 35.2492C169.856 35.3818 169.803 35.509 169.709 35.6028C169.616 35.6966 169.488 35.7492 169.356 35.7492H156.355C156.222 35.7492 156.095 35.6966 156.001 35.6028C155.908 35.509 155.855 35.3818 155.855 35.2492V22.2494C155.855 22.1167 155.908 21.9896 156.001 21.8958C156.095 21.802 156.222 21.7494 156.355 21.7494H169.356C169.488 21.7494 169.616 21.802 169.709 21.8958C169.803 21.9896 169.856 22.1167 169.856 22.2494M188.906 3.1995C188.906 3.0669 188.853 2.93972 188.759 2.84595C188.666 2.75218 188.538 2.6995 188.406 2.6995M61.1066 59.849C60.974 59.849 60.8468 59.9017 60.753 59.9955C60.6593 60.0893 60.6066 60.2164 60.6066 60.349V73.349C60.6066 73.4816 60.6593 73.6088 60.753 73.7026C60.8468 73.7963 60.974 73.849 61.1066 73.849M80.1567 2.6995C80.0241 2.6995 79.8969 2.75218 79.8031 2.84595C79.7094 2.93972 79.6567 3.0669 79.6567 3.1995L79.6567 16.1994M213.505 35.7492C213.373 35.7492 213.246 35.6966 213.152 35.6028C213.058 35.509 213.005 35.3818 213.005 35.2492V22.2494C213.005 22.1167 213.058 21.9896 213.152 21.8958C213.246 21.802 213.373 21.7494 213.505 21.7494M169.856 73.349C169.856 73.4816 169.803 73.6088 169.709 73.7026C169.616 73.7963 169.488 73.849 169.356 73.849L156.355 73.849C156.223 73.849 156.095 73.7963 156.001 73.7026C155.908 73.6088 155.855 73.4816 155.855 73.349V60.3491M213.504 35.7493H226.503C226.636 35.7493 226.764 35.6966 226.857 35.6028C226.951 35.509 227.004 35.3819 227.004 35.2493L227.004 22.2494C227.004 22.1167 226.951 21.9896 226.857 21.8958C226.764 21.802 226.637 21.7494 226.504 21.7494H213.504M36.0067 21.7494H23.0068C22.8742 21.7494 22.7465 21.802 22.6528 21.8958C22.559 21.9896 22.5063 22.1167 22.5063 22.2494M80.1567 35.7492C80.0241 35.7492 79.8969 35.6966 79.8031 35.6028C79.7094 35.509 79.6567 35.3818 79.6567 35.2492L79.6567 22.2494C79.6567 22.1168 79.7094 21.9896 79.8031 21.8958C79.8969 21.802 80.0241 21.7494 80.1567 21.7494M41.5564 16.1994V3.1995C41.5564 3.0669 41.6091 2.93972 41.7029 2.84595C41.7967 2.75218 41.9238 2.6995 42.0564 2.6995H55.0568M232.555 21.7494C232.423 21.7494 232.296 21.802 232.202 21.8958C232.108 21.9896 232.055 22.1167 232.055 22.2494V35.2493M207.456 21.7494H194.456C194.323 21.7494 194.195 21.802 194.102 21.8958C194.008 21.9896 193.955 22.1167 193.955 22.2494M188.904 73.349V60.3491C188.904 60.2165 188.851 60.0893 188.757 59.9955C188.663 59.9017 188.536 59.849 188.404 59.849M169.854 16.1994V3.19953M207.456 16.6994H194.456C194.323 16.6994 194.195 16.6467 194.102 16.5529C194.008 16.4592 193.955 16.332 193.955 16.1994M175.405 2.6995C175.272 2.6995 175.145 2.75218 175.052 2.84595C174.958 2.93972 174.905 3.0669 174.905 3.1995V16.1994M55.055 59.849C55.1876 59.849 55.3148 59.9017 55.4086 59.9955C55.5023 60.0893 55.555 60.2164 55.555 60.349V73.349C55.555 73.4816 55.5023 73.6088 55.4086 73.7026C55.3148 73.7963 55.1876 73.849 55.055 73.849M55.055 2.6995C55.1876 2.6995 55.3148 2.75218 55.4086 2.84595C55.5023 2.93972 55.555 3.0669 55.555 3.1995L55.5555 16.1994C55.5555 16.332 55.5023 16.4592 55.4086 16.5529C55.3148 16.6467 55.1876 16.6994 55.055 16.6994M213.504 2.6995H226.503C226.636 2.6995 226.764 2.75218 226.857 2.84595C226.951 2.93972 227.004 3.0669 227.004 3.1995M207.454 16.6994C207.586 16.6994 207.714 16.6467 207.807 16.5529C207.901 16.4592 207.954 16.332 207.954 16.1994V3.1995C207.954 3.0669 207.901 2.93972 207.807 2.84595C207.714 2.75218 207.586 2.6995 207.454 2.6995H194.453M61.1048 21.7494H74.1047C74.2373 21.7494 74.3649 21.802 74.4587 21.8958C74.5525 21.9896 74.6051 22.1167 74.6051 22.2494L74.6051 35.2492C74.6051 35.3818 74.5525 35.509 74.4587 35.6028C74.3649 35.6966 74.2378 35.7492 74.1051 35.7492L61.1048 35.7493M188.904 16.1994V3.19953M17.457 22.2494C17.457 22.1167 17.4043 21.9896 17.3105 21.8958C17.2168 21.802 17.0896 21.7494 16.957 21.7494H3.9562C3.82359 21.7494 3.69641 21.802 3.60264 21.8958C3.50888 21.9896 3.4562 22.1167 3.4562 22.2494V35.2493C3.4562 35.3819 3.50888 35.509 3.60264 35.6028C3.69641 35.6966 3.82403 35.7493 3.95664 35.7493H16.9565C17.0891 35.7493 17.2168 35.6966 17.3105 35.6028C17.4043 35.509 17.457 35.3818 17.457 35.2492M80.1567 73.849C80.0241 73.849 79.8969 73.7963 79.8031 73.7026C79.7094 73.6088 79.6567 73.4816 79.6567 73.349V60.349C79.6567 60.2164 79.7094 60.0893 79.8031 59.9955C79.8969 59.9017 80.0241 59.849 80.1567 59.849M169.854 35.2493V22.2494M169.856 3.1995C169.856 3.0669 169.803 2.93972 169.709 2.84595C169.616 2.75218 169.488 2.6995 169.356 2.6995H156.355C156.223 2.6995 156.095 2.75218 156.001 2.84595C155.908 2.93972 155.855 3.06692 155.855 3.19953V16.1994C155.855 16.332 155.908 16.4592 156.001 16.5529C156.095 16.6467 156.222 16.6994 156.355 16.6994L169.355 16.6994C169.488 16.6994 169.616 16.6467 169.709 16.5529C169.803 16.4592 169.856 16.332 169.856 16.1994M207.454 21.7494C207.586 21.7494 207.714 21.802 207.807 21.8958C207.901 21.9896 207.954 22.1167 207.954 22.2494L207.954 35.2493C207.954 35.3819 207.901 35.509 207.807 35.6028C207.714 35.6966 207.586 35.7492 207.454 35.7492M80.1549 59.849H93.1553C93.2879 59.849 93.4151 59.9017 93.5088 59.9955C93.6026 60.0893 93.6553 60.2164 93.6553 60.349L93.6557 73.349C93.6557 73.4816 93.6026 73.6088 93.5088 73.7026C93.4151 73.7963 93.2874 73.849 93.1548 73.849H80.1549M188.906 22.2494C188.906 22.1167 188.853 21.9896 188.759 21.8958C188.666 21.802 188.538 21.7494 188.405 21.7494H175.406C175.273 21.7494 175.145 21.802 175.052 21.8958C174.958 21.9896 174.905 22.1168 174.905 22.2494V35.2493C174.905 35.3819 174.958 35.509 175.052 35.6028C175.145 35.6966 175.273 35.7493 175.406 35.7493H188.405C188.538 35.7493 188.666 35.6966 188.759 35.6028C188.853 35.509 188.906 35.3818 188.906 35.2492M55.0568 59.849H42.0569C41.9243 59.849 41.7967 59.9017 41.7029 59.9955C41.6091 60.0893 41.5564 60.2164 41.5564 60.349V73.349C41.5564 73.4816 41.6091 73.6088 41.7029 73.7026C41.7967 73.7963 41.9238 73.849 42.0564 73.849L55.0568 73.849M23.0068 35.7493H36.0067M194.455 2.6995C194.323 2.6995 194.195 2.75218 194.102 2.84595C194.008 2.93972 193.955 3.0669 193.955 3.1995M36.0067 2.6995H23.0068M36.0049 21.7494C36.1375 21.7494 36.2647 21.802 36.3585 21.8958C36.4522 21.9896 36.5053 22.1168 36.5053 22.2494V35.2493C36.5053 35.3819 36.4522 35.509 36.3585 35.6028C36.2647 35.6966 36.1375 35.7492 36.0049 35.7492M36.0049 2.6995C36.1375 2.6995 36.2647 2.75218 36.3585 2.84595C36.4522 2.93972 36.5053 3.06692 36.5053 3.19953V16.1994C36.5053 16.332 36.4522 16.4592 36.3585 16.5529C36.2647 16.6467 36.1375 16.6994 36.0049 16.6994M213.005 16.1994C213.005 16.332 213.058 16.4592 213.152 16.5529C213.246 16.6467 213.373 16.6994 213.505 16.6994M169.854 73.349V60.3491C169.854 60.2165 169.801 60.0893 169.707 59.9955C169.613 59.9017 169.486 59.849 169.354 59.849H156.353C156.221 59.849 156.093 59.9017 155.999 59.9955C155.905 60.0893 155.853 60.2164 155.853 60.349M22.5041 22.2494V35.2493C22.5041 35.3819 22.5568 35.509 22.6506 35.6028C22.7443 35.6966 22.8715 35.7492 23.0041 35.7492M55.055 21.7494C55.1876 21.7494 55.3148 21.802 55.4086 21.8958C55.5023 21.9896 55.5555 22.1168 55.5555 22.2494V35.2493C55.5555 35.3819 55.5023 35.509 55.4086 35.6028C55.3148 35.6966 55.1876 35.7492 55.055 35.7492M232.053 35.2492C232.053 35.3818 232.106 35.509 232.2 35.6028C232.294 35.6966 232.421 35.7493 232.554 35.7493H245.554C245.686 35.7493 245.814 35.6966 245.908 35.6028C246.001 35.509 246.055 35.3819 246.055 35.2493V22.2494C246.055 22.1168 246.001 21.9896 245.908 21.8958C245.814 21.802 245.687 21.7494 245.554 21.7494H232.554M41.5542 16.1994C41.5542 16.332 41.6069 16.4592 41.7007 16.5529C41.7945 16.6467 41.9216 16.6994 42.0542 16.6994M17.4552 35.2493V22.2494M61.1048 73.849H74.1047C74.2373 73.849 74.3649 73.7963 74.4587 73.7026C74.5525 73.6088 74.6051 73.4816 74.6051 73.349L74.6051 60.349C74.6051 60.2164 74.5525 60.0893 74.4587 59.9955C74.3649 59.9017 74.2373 59.8491 74.1047 59.8491H61.1048M22.5041 16.1994V3.19953C22.5041 3.06692 22.5568 2.93972 22.6506 2.84595C22.7443 2.75218 22.8715 2.6995 23.0041 2.6995M193.953 22.2494V35.2493M174.903 16.1994C174.903 16.332 174.956 16.4592 175.049 16.5529C175.143 16.6467 175.27 16.6994 175.403 16.6994M17.4548 3.1995C17.4548 3.0669 17.4021 2.93972 17.3083 2.84595C17.2146 2.75218 17.0874 2.6995 16.9548 2.6995M60.6044 3.1995C60.6044 3.0669 60.6571 2.93972 60.7508 2.84595C60.8446 2.75218 60.9722 2.6995 61.1048 2.6995H74.1047C74.2373 2.6995 74.3649 2.75218 74.4587 2.84595C74.5525 2.93972 74.6056 3.06692 74.6056 3.19953L74.6051 16.1994C74.6051 16.332 74.5525 16.4592 74.4587 16.5529C74.3649 16.6467 74.2378 16.6994 74.1051 16.6994L61.1048 16.6994M193.953 3.19953V16.1994M80.1549 21.7494H93.1553C93.2879 21.7494 93.4151 21.802 93.5088 21.8958C93.6026 21.9896 93.6553 22.1167 93.6553 22.2494L93.6553 35.2492C93.6553 35.3818 93.6026 35.509 93.5088 35.6028C93.4151 35.6966 93.2879 35.7492 93.1553 35.7492L80.1549 35.7493M16.9565 16.6994L3.9562 16.6994C3.82359 16.6994 3.69641 16.6467 3.60264 16.5529C3.50888 16.4592 3.4562 16.332 3.4562 16.1994V3.19953C3.4562 3.06692 3.50888 2.93972 3.60264 2.84595C3.69641 2.75218 3.82359 2.6995 3.9562 2.6995H16.9565M188.904 35.2493V22.2494M55.0568 35.7493L42.0564 35.7492C41.9238 35.7492 41.7967 35.6966 41.7029 35.6028C41.6091 35.509 41.5564 35.3818 41.5564 35.2492V22.2494C41.5564 22.1167 41.6091 21.9896 41.7029 21.8958C41.7967 21.802 41.9238 21.7494 42.0564 21.7494H55.0568M227.002 16.1994V3.19953M188.403 2.6995H175.403M232.554 16.6994H245.554C245.686 16.6994 245.814 16.6467 245.908 16.5529C246.001 16.4592 246.055 16.332 246.055 16.1994L246.054 3.1995C246.054 3.0669 246.001 2.93972 245.908 2.84595C245.814 2.75218 245.687 2.6995 245.554 2.6995H232.554M79.6545 16.1994C79.6545 16.332 79.7072 16.4592 79.8009 16.5529C79.8947 16.6467 80.0223 16.6994 80.1549 16.6994H93.1548C93.2874 16.6994 93.4151 16.6467 93.5088 16.5529C93.6026 16.4592 93.6557 16.332 93.6557 16.1994V3.19953C93.6557 3.06692 93.6026 2.93972 93.5088 2.84595C93.4151 2.75218 93.2879 2.6995 93.1553 2.6995H80.1549M137.303 35.7493H150.303M16.9548 16.6994C17.0874 16.6994 17.2146 16.6467 17.3083 16.5529C17.4021 16.4592 17.4548 16.332 17.4548 16.1994M213.003 3.19953V16.1994M61.1066 21.7494C60.974 21.7494 60.8468 21.802 60.753 21.8958C60.6593 21.9896 60.6066 22.1168 60.6066 22.2494V35.2493C60.6066 35.3819 60.6593 35.509 60.753 35.6028C60.8468 35.6966 60.974 35.7492 61.1066 35.7492M232.555 2.6995C232.423 2.6995 232.296 2.75218 232.202 2.84595C232.108 2.93972 232.055 3.06692 232.055 3.19953V16.1994C232.055 16.332 232.108 16.4592 232.202 16.5529C232.296 16.6467 232.423 16.6994 232.555 16.6994M213.505 2.6995C213.373 2.6995 213.246 2.75218 213.152 2.84595C213.058 2.93972 213.005 3.0669 213.005 3.1995M42.0569 16.6994H55.0568M17.4574 16.1994V3.19953M60.0801 66.9991C60.0801 68.1865 59.1175 69.149 57.9301 69.149C56.7427 69.149 55.7801 68.1865 55.7801 66.9991C55.7801 65.8117 56.7427 64.8491 57.9301 64.8491C59.1175 64.8491 60.0801 65.8117 60.0801 66.9991ZM174.379 66.9991C174.379 68.1865 173.416 69.149 172.229 69.149C171.041 69.149 170.079 68.1865 170.079 66.9991C170.079 65.8117 171.041 64.8491 172.229 64.8491C173.416 64.8491 174.379 65.8117 174.379 66.9991ZM231.529 19.3744C231.529 20.5618 230.566 21.5244 229.379 21.5244C228.192 21.5244 227.229 20.5618 227.229 19.3744C227.229 18.187 228.192 17.2245 229.379 17.2245C230.566 17.2245 231.529 18.187 231.529 19.3744ZM155.331 19.3744C155.331 20.5618 154.368 21.5244 153.181 21.5244C151.993 21.5244 151.031 20.5618 151.031 19.3744C151.031 18.187 151.993 17.2245 153.181 17.2245C154.368 17.2245 155.331 18.187 155.331 19.3744ZM79.1302 19.3744C79.1302 20.5618 78.1676 21.5244 76.9802 21.5244C75.7928 21.5244 74.8302 20.5618 74.8302 19.3744C74.8302 18.187 75.7928 17.2245 76.9802 17.2245C78.1676 17.2245 79.1302 18.187 79.1302 19.3744ZM21.9798 19.3744C21.9798 20.5618 21.0173 21.5244 19.8298 21.5244C18.6424 21.5244 17.6799 20.5618 17.6799 19.3744C17.6799 18.187 18.6424 17.2245 19.8298 17.2245C21.0173 17.2245 21.9798 18.187 21.9798 19.3744ZM136.805 73.349C136.805 73.4816 136.858 73.6088 136.951 73.7026C137.045 73.7963 137.172 73.849 137.305 73.849L150.305 73.849C150.438 73.849 150.565 73.7963 150.659 73.7026C150.753 73.6088 150.806 73.4816 150.806 73.349V60.349C150.806 60.2164 150.753 60.0893 150.659 59.9955C150.565 59.9017 150.438 59.849 150.306 59.849H137.305C137.172 59.849 137.045 59.9017 136.951 59.9955C136.858 60.0893 136.805 60.2164 136.805 60.349V73.349ZM150.806 3.1995C150.806 3.0669 150.753 2.93972 150.659 2.84595C150.565 2.75218 150.438 2.6995 150.306 2.6995H137.305C137.172 2.6995 137.045 2.75218 136.951 2.84595C136.858 2.93972 136.805 3.0669 136.805 3.1995V16.1994C136.805 16.332 136.858 16.4592 136.951 16.5529C137.045 16.6467 137.173 16.6994 137.305 16.6994L150.306 16.6994C150.438 16.6994 150.565 16.6467 150.659 16.5529C150.753 16.4592 150.806 16.332 150.806 16.1994V3.1995Z" stroke="black" stroke-width="0.1" stroke-linecap="round" stroke-linejoin="round"/>
</svg>
