<?xml version="1.0" standalone="no"?>
 <!DOCTYPE svg PUBLIC "-//W3C//DTD SVG 1.1//EN" 
 "http://www.w3.org/Graphics/SVG/1.1/DTD/svg11.dtd"> 
<svg
  xmlns:svg="http://www.w3.org/2000/svg"
  xmlns="http://www.w3.org/2000/svg"
  xmlns:xlink="http://www.w3.org/1999/xlink"
  version="1.1"
  width="29.700220cm" height="21.000720cm" viewBox="0 0 297002200 210007200">
<title>SVG Picture created as mx-choc-plate-brd.svg date 2021/04/06 16:42:23 </title>
  <desc>Picture generated by PCBNEW </desc>
<g style="fill:#000000; fill-opacity:1.000000;stroke:#000000; stroke-opacity:1.000000;
stroke-linecap:round; stroke-linejoin:round;"
 transform="translate(0 0) scale(1 1)">
</g>
<g style="fill:#000000; fill-opacity:0.0; 
stroke:#000000; stroke-width:0.000000; stroke-opacity:1; 
stroke-linecap:round; stroke-linejoin:round;">
<g >
</g>
<g style="fill:#000000; fill-opacity:1.0; 
stroke:#000000; stroke-width:1.000000; stroke-opacity:1; 
stroke-linecap:round; stroke-linejoin:round;">
<circle cx="84931250.000000" cy="127000000.000000" r="3750000.000000" /> 
</g>
<g style="fill:#000000; fill-opacity:1.0; 
stroke:#000000; stroke-width:21200.000000; stroke-opacity:1; 
stroke-linecap:round; stroke-linejoin:round;">
</g>
<g >
</g>
<g style="fill:#000000; fill-opacity:1.0; 
stroke:#000000; stroke-width:21200.000000; stroke-opacity:1; 
stroke-linecap:round; stroke-linejoin:round;">
</g>
<g style="fill:#000000; fill-opacity:1.0; 
stroke:#000000; stroke-width:1.000000; stroke-opacity:1; 
stroke-linecap:round; stroke-linejoin:round;">
<circle cx="199231250.000000" cy="127000000.000000" r="3750000.000000" /> 
</g>
<g style="fill:#000000; fill-opacity:1.0; 
stroke:#000000; stroke-width:21200.000000; stroke-opacity:1; 
stroke-linecap:round; stroke-linejoin:round;">
</g>
<g >
</g>
<g style="fill:#000000; fill-opacity:1.0; 
stroke:#000000; stroke-width:21200.000000; stroke-opacity:1; 
stroke-linecap:round; stroke-linejoin:round;">
</g>
<g style="fill:#000000; fill-opacity:1.0; 
stroke:#000000; stroke-width:1.000000; stroke-opacity:1; 
stroke-linecap:round; stroke-linejoin:round;">
<circle cx="256381250.000000" cy="79375000.000000" r="3750000.000000" /> 
</g>
<g style="fill:#000000; fill-opacity:1.0; 
stroke:#000000; stroke-width:21200.000000; stroke-opacity:1; 
stroke-linecap:round; stroke-linejoin:round;">
</g>
<g >
</g>
<g style="fill:#000000; fill-opacity:1.0; 
stroke:#000000; stroke-width:21200.000000; stroke-opacity:1; 
stroke-linecap:round; stroke-linejoin:round;">
</g>
<g style="fill:#000000; fill-opacity:1.0; 
stroke:#000000; stroke-width:1.000000; stroke-opacity:1; 
stroke-linecap:round; stroke-linejoin:round;">
<circle cx="180181250.000000" cy="79375000.000000" r="3750000.000000" /> 
</g>
<g style="fill:#000000; fill-opacity:1.0; 
stroke:#000000; stroke-width:21200.000000; stroke-opacity:1; 
stroke-linecap:round; stroke-linejoin:round;">
</g>
<g >
</g>
<g style="fill:#000000; fill-opacity:1.0; 
stroke:#000000; stroke-width:21200.000000; stroke-opacity:1; 
stroke-linecap:round; stroke-linejoin:round;">
</g>
<g style="fill:#000000; fill-opacity:1.0; 
stroke:#000000; stroke-width:1.000000; stroke-opacity:1; 
stroke-linecap:round; stroke-linejoin:round;">
<circle cx="103981250.000000" cy="79375000.000000" r="3750000.000000" /> 
</g>
<g style="fill:#000000; fill-opacity:1.0; 
stroke:#000000; stroke-width:21200.000000; stroke-opacity:1; 
stroke-linecap:round; stroke-linejoin:round;">
</g>
<g >
</g>
<g style="fill:#000000; fill-opacity:1.0; 
stroke:#000000; stroke-width:21200.000000; stroke-opacity:1; 
stroke-linecap:round; stroke-linejoin:round;">
</g>
<g style="fill:#000000; fill-opacity:1.0; 
stroke:#000000; stroke-width:1.000000; stroke-opacity:1; 
stroke-linecap:round; stroke-linejoin:round;">
<circle cx="46831250.000000" cy="79375000.000000" r="3750000.000000" /> 
</g>
<g style="fill:#000000; fill-opacity:1.0; 
stroke:#000000; stroke-width:21200.000000; stroke-opacity:1; 
stroke-linecap:round; stroke-linejoin:round;">
</g>
<g >
</g>
<g >
</g>
<g >
</g>
</g>
<g style="fill:#FFFFFF; fill-opacity:1.0; 
stroke:#FFFFFF; stroke-width:21200.000000; stroke-opacity:1; 
stroke-linecap:round; stroke-linejoin:round;">
</g>
<g style="fill:#FFFFFF; fill-opacity:1.0; 
stroke:#FFFFFF; stroke-width:1.000000; stroke-opacity:1; 
stroke-linecap:round; stroke-linejoin:round;">
<circle cx="84931250.000000" cy="127000000.000000" r="2150000.000000" /> 
</g>
<g style="fill:#FFFFFF; fill-opacity:1.0; 
stroke:#FFFFFF; stroke-width:21200.000000; stroke-opacity:1; 
stroke-linecap:round; stroke-linejoin:round;">
</g>
<g style="fill:#FFFFFF; fill-opacity:1.0; 
stroke:#FFFFFF; stroke-width:1.000000; stroke-opacity:1; 
stroke-linecap:round; stroke-linejoin:round;">
<circle cx="199231250.000000" cy="127000000.000000" r="2150000.000000" /> 
</g>
<g style="fill:#FFFFFF; fill-opacity:1.0; 
stroke:#FFFFFF; stroke-width:21200.000000; stroke-opacity:1; 
stroke-linecap:round; stroke-linejoin:round;">
</g>
<g style="fill:#FFFFFF; fill-opacity:1.0; 
stroke:#FFFFFF; stroke-width:1.000000; stroke-opacity:1; 
stroke-linecap:round; stroke-linejoin:round;">
<circle cx="256381250.000000" cy="79375000.000000" r="2150000.000000" /> 
</g>
<g style="fill:#FFFFFF; fill-opacity:1.0; 
stroke:#FFFFFF; stroke-width:21200.000000; stroke-opacity:1; 
stroke-linecap:round; stroke-linejoin:round;">
</g>
<g style="fill:#FFFFFF; fill-opacity:1.0; 
stroke:#FFFFFF; stroke-width:1.000000; stroke-opacity:1; 
stroke-linecap:round; stroke-linejoin:round;">
<circle cx="180181250.000000" cy="79375000.000000" r="2150000.000000" /> 
</g>
<g style="fill:#FFFFFF; fill-opacity:1.0; 
stroke:#FFFFFF; stroke-width:21200.000000; stroke-opacity:1; 
stroke-linecap:round; stroke-linejoin:round;">
</g>
<g style="fill:#FFFFFF; fill-opacity:1.0; 
stroke:#FFFFFF; stroke-width:1.000000; stroke-opacity:1; 
stroke-linecap:round; stroke-linejoin:round;">
<circle cx="103981250.000000" cy="79375000.000000" r="2150000.000000" /> 
</g>
<g style="fill:#FFFFFF; fill-opacity:1.0; 
stroke:#FFFFFF; stroke-width:21200.000000; stroke-opacity:1; 
stroke-linecap:round; stroke-linejoin:round;">
</g>
<g style="fill:#FFFFFF; fill-opacity:1.0; 
stroke:#FFFFFF; stroke-width:1.000000; stroke-opacity:1; 
stroke-linecap:round; stroke-linejoin:round;">
<circle cx="46831250.000000" cy="79375000.000000" r="2150000.000000" /> 
</g>
<g style="fill:#FFFFFF; fill-opacity:1.0; 
stroke:#FFFFFF; stroke-width:21200.000000; stroke-opacity:1; 
stroke-linecap:round; stroke-linejoin:round;">
</g>
<g style="fill:#000000; fill-opacity:1.0; 
stroke:#000000; stroke-width:21200.000000; stroke-opacity:1; 
stroke-linecap:round; stroke-linejoin:round;">
</g>
<g style="fill:#000000; fill-opacity:1.0; 
stroke:#000000; stroke-width:50000.000000; stroke-opacity:1; 
stroke-linecap:round; stroke-linejoin:round;">
</g>
<g style="fill:#000000; fill-opacity:0.0; 
stroke:#000000; stroke-width:50000.000000; stroke-opacity:1; 
stroke-linecap:round; stroke-linejoin:round;">
<path d="M27781250 62706250
L27781250 96043750
" />
<path d="M275431250 96043750
L275431250 62706250
" />
<path d="M273050000 60325000
L30162500 60325000
" />
<path d="M30162500 98425000
L63500000 98425000
" />
<path d="M65881250 100806250
L65881250 134143750
" />
<path d="M68262500 136525000
L215900000 136525000
" />
<path d="M218281250 134143750
L218281250 100806250
" />
<path d="M220662500 98425000
L273050000 98425000
" />
</g>
<g style="fill:#000000; fill-opacity:0.0; 
stroke:#000000; stroke-width:200000.000000; stroke-opacity:1; 
stroke-linecap:round; stroke-linejoin:round;">
<path d="M177306250.000000 95750001.000000 A500000.000000 500000.000000 0.0 0 0 177806250.000000 95250001.000000" />
<path d="M87606250 82250001
L87606250 95250001
" />
<path d="M215406250 119850001
L202406250 119850001
" />
<path d="M87606250 63200001
L87606250 76200000
" />
<path d="M220956250.000000 95250001.000000 A500000.000000 500000.000000 0.0 0 0 221456250.000000 95750001.000000" />
<path d="M63506250 95250001
L63506250 82250001
" />
<path d="M163806250.000000 133350001.000000 A500000.000000 500000.000000 0.0 0 0 164306250.000000 133850001.000000" />
<path d="M273056250 95250001
L273056250 82250001
" />
<path d="M215406250.000000 76700000.000000 A500000.000000 500000.000000 0.0 0 0 215906250.000000 76200000.000000" />
<path d="M273056250.000000 82250001.000000 A500000.000000 500000.000000 0.0 0 0 272556250.000000 81750001.000000" />
<path d="M50006250 76700000
L63006250 76700000
" />
<path d="M253506250.000000 76700000.000000 A500000.000000 500000.000000 0.0 0 0 254006250.000000 76200000.000000" />
<path d="M196356250.000000 95750001.000000 A500000.000000 500000.000000 0.0 0 0 196856250.000000 95250001.000000" />
<path d="M234956250.000000 63200001.000000 A500000.000000 500000.000000 0.0 0 0 234456250.000000 62700001.000000" />
<path d="M69056250.000000 62700001.000000 A500000.000000 500000.000000 0.0 0 0 68556250.000000 63200001.000000" />
<path d="M215906250.000000 63200001.000000 A500000.000000 500000.000000 0.0 0 0 215406250.000000 62700001.000000" />
<path d="M88106250.000000 119850001.000000 A500000.000000 500000.000000 0.0 0 0 87606250.000000 120350001.000000" />
<path d="M107156250.000000 62700001.000000 A500000.000000 500000.000000 0.0 0 0 106656250.000000 63200001.000000" />
<path d="M254006250.000000 82250001.000000 A500000.000000 500000.000000 0.0 0 0 253506250.000000 81750001.000000" />
<path d="M240506250 76700000
L253506250 76700000
" />
<path d="M177806250.000000 120350001.000000 A500000.000000 500000.000000 0.0 0 0 177306250.000000 119850001.000000" />
<path d="M201906250 82250001
L201906250 95250001
" />
<path d="M120656250 76200000
L120656250 63200001
" />
<path d="M240006250.000000 95250001.000000 A500000.000000 500000.000000 0.0 0 0 240506250.000000 95750001.000000" />
<path d="M68556250.000000 95250001.000000 A500000.000000 500000.000000 0.0 0 0 69056250.000000 95750001.000000" />
<path d="M196356250.000000 133850001.000000 A500000.000000 500000.000000 0.0 0 0 196856250.000000 133350001.000000" />
<path d="M240506250 95750001
L253506250 95750001
" />
<path d="M63006250 81750001
L50006250 81750001
" />
<path d="M254006250 95250001
L254006250 82250001
" />
<path d="M87606250.000000 76200000.000000 A500000.000000 500000.000000 0.0 0 0 88106250.000000 76700000.000000" />
<path d="M106656250.000000 95250001.000000 A500000.000000 500000.000000 0.0 0 0 107156250.000000 95750001.000000" />
<path d="M106656250 82250001
L106656250 95250001
" />
<path d="M68556250 63200001
L68556250 76200000
" />
<path d="M259556250.000000 81750001.000000 A500000.000000 500000.000000 0.0 0 0 259056250.000000 82250001.000000" />
<path d="M234456250 81750001
L221456250 81750001
" />
<path d="M215906250 133350001
L215906250 120350001
" />
<path d="M196856250 76200000
L196856250 63200001
" />
<path d="M177306250 81750001
L164306250 81750001
" />
<path d="M164306250.000000 119850001.000000 A500000.000000 500000.000000 0.0 0 0 163806250.000000 120350001.000000" />
<path d="M49506250.000000 76200000.000000 A500000.000000 500000.000000 0.0 0 0 50006250.000000 76700000.000000" />
<path d="M182856250.000000 76200000.000000 A500000.000000 500000.000000 0.0 0 0 183356250.000000 76700000.000000" />
<path d="M177806250.000000 63200001.000000 A500000.000000 500000.000000 0.0 0 0 177306250.000000 62700001.000000" />
<path d="M221456250 76700000
L234456250 76700000
" />
<path d="M202406250.000000 62700001.000000 A500000.000000 500000.000000 0.0 0 0 201906250.000000 63200001.000000" />
<path d="M30456250.000000 76200000.000000 A500000.000000 500000.000000 0.0 0 0 30956250.000000 76700000.000000" />
<path d="M30456250 63200001
L30456250 76200000
" />
<path d="M82556250.000000 120350001.000000 A500000.000000 500000.000000 0.0 0 0 82056250.000000 119850001.000000" />
<path d="M183356250 76700000
L196356250 76700000
" />
<path d="M201906250.000000 133350001.000000 A500000.000000 500000.000000 0.0 0 0 202406250.000000 133850001.000000" />
<path d="M82556250.000000 63200001.000000 A500000.000000 500000.000000 0.0 0 0 82056250.000000 62700001.000000" />
</g>
<g style="fill:#000000; fill-opacity:0.0; 
stroke:#000000; stroke-width:50000.000000; stroke-opacity:1; 
stroke-linecap:round; stroke-linejoin:round;">
<path d="M65881250.000000 134143750.000000 A2381250.000000 2381250.000000 0.0 0 0 68262500.000000 136525000.000000" />
</g>
<g style="fill:#000000; fill-opacity:0.0; 
stroke:#000000; stroke-width:200000.000000; stroke-opacity:1; 
stroke-linecap:round; stroke-linejoin:round;">
<path d="M120656250.000000 120350001.000000 A500000.000000 500000.000000 0.0 0 0 120156250.000000 119850001.000000" />
<path d="M253506250 62700001
L240506250 62700001
" />
<path d="M163806250 82250001
L163806250 95250001
" />
<path d="M101106250.000000 76700000.000000 A500000.000000 500000.000000 0.0 0 0 101606250.000000 76200000.000000" />
<path d="M69056250.000000 81750001.000000 A500000.000000 500000.000000 0.0 0 0 68556250.000000 82250001.000000" />
<path d="M234456250.000000 76700000.000000 A500000.000000 500000.000000 0.0 0 0 234956250.000000 76200000.000000" />
<path d="M101106250 81750001
L88106250 81750001
" />
<path d="M163806250 120350001
L163806250 133350001
" />
<path d="M196856250.000000 82250001.000000 A500000.000000 500000.000000 0.0 0 0 196356250.000000 81750001.000000" />
<path d="M30956250 95750001
L43956249 95750001
" />
<path d="M163806250.000000 95250001.000000 A500000.000000 500000.000000 0.0 0 0 164306250.000000 95750001.000000" />
<path d="M215906250 76200000
L215906250 63200001
" />
<path d="M44456249.000000 82250001.000000 A500000.000000 500000.000000 0.0 0 0 43956249.000000 81750001.000000" />
<path d="M106656250 63200001
L106656250 76200000
" />
<path d="M202406250 95750001
L215406250 95750001
" />
<path d="M106656250.000000 133350001.000000 A500000.000000 500000.000000 0.0 0 0 107156250.000000 133850001.000000" />
<path d="M196856250 95250001
L196856250 82250001
" />
<path d="M196856250.000000 63200001.000000 A500000.000000 500000.000000 0.0 0 0 196356250.000000 62700001.000000" />
<path d="M82556250 76200000
L82556250 63200001
" />
<path d="M273056250.000000 63200001.000000 A500000.000000 500000.000000 0.0 0 0 272556250.000000 62700001.000000" />
<path d="M201906250.000000 95250001.000000 A500000.000000 500000.000000 0.0 0 0 202406250.000000 95750001.000000" />
<path d="M177306250 119850001
L164306250 119850001
" />
<path d="M202406250 76700000
L215406250 76700000
" />
<path d="M82556250 95250001
L82556250 82250001
" />
<path d="M259556250 95750001
L272556250 95750001
" />
<path d="M259056250 63200001
L259056250 76200000
" />
<path d="M30956250.000000 62700001.000000 A500000.000000 500000.000000 0.0 0 0 30456250.000000 63200001.000000" />
<path d="M215406250 81750001
L202406250 81750001
" />
<path d="M202406250 133850001
L215406250 133850001
" />
<path d="M240506250.000000 81750001.000000 A500000.000000 500000.000000 0.0 0 0 240006250.000000 82250001.000000" />
<path d="M101606250 76200000
L101606250 63200001
" />
<path d="M183356250.000000 81750001.000000 A500000.000000 500000.000000 0.0 0 0 182856250.000000 82250001.000000" />
<path d="M221456250.000000 81750001.000000 A500000.000000 500000.000000 0.0 0 0 220956250.000000 82250001.000000" />
<path d="M234956250.000000 82250001.000000 A500000.000000 500000.000000 0.0 0 0 234456250.000000 81750001.000000" />
<path d="M177806250 95250001
L177806250 82250001
" />
<path d="M82056250.000000 133850001.000000 A500000.000000 500000.000000 0.0 0 0 82556250.000000 133350001.000000" />
<path d="M107156250 76700000
L120156250 76700000
" />
<path d="M68556250.000000 133350001.000000 A500000.000000 500000.000000 0.0 0 0 69056250.000000 133850001.000000" />
<path d="M120156250 119850001
L107156250 119850001
" />
<path d="M202406250.000000 119850001.000000 A500000.000000 500000.000000 0.0 0 0 201906250.000000 120350001.000000" />
<path d="M215906250.000000 82250001.000000 A500000.000000 500000.000000 0.0 0 0 215406250.000000 81750001.000000" />
<path d="M107156250.000000 119850001.000000 A500000.000000 500000.000000 0.0 0 0 106656250.000000 120350001.000000" />
<path d="M177806250.000000 82250001.000000 A500000.000000 500000.000000 0.0 0 0 177306250.000000 81750001.000000" />
<path d="M177306250.000000 76700000.000000 A500000.000000 500000.000000 0.0 0 0 177806250.000000 76200000.000000" />
<path d="M234956250 95250001
L234956250 82250001
" />
<path d="M101106250.000000 95750001.000000 A500000.000000 500000.000000 0.0 0 0 101606250.000000 95250001.000000" />
<path d="M120656250.000000 82250001.000000 A500000.000000 500000.000000 0.0 0 0 120156250.000000 81750001.000000" />
<path d="M82056250 119850001
L69056250 119850001
" />
<path d="M50006250 95750001
L63006250 95750001
" />
<path d="M221456250.000000 62700001.000000 A500000.000000 500000.000000 0.0 0 0 220956250.000000 63200001.000000" />
<path d="M88106250 95750001
L101106250 95750001
" />
<path d="M63006250 62700001
L50006250 62700001
" />
<path d="M69056250.000000 119850001.000000 A500000.000000 500000.000000 0.0 0 0 68556250.000000 120350001.000000" />
<path d="M50006250.000000 81750001.000000 A500000.000000 500000.000000 0.0 0 0 49506250.000000 82250001.000000" />
<path d="M68556250 120350001
L68556250 133350001
" />
<path d="M182856250.000000 95250001.000000 A500000.000000 500000.000000 0.0 0 0 183356250.000000 95750001.000000" />
<path d="M164306250.000000 62700001.000000 A500000.000000 500000.000000 0.0 0 0 163806250.000000 63200001.000000" />
<path d="M120656250.000000 63200001.000000 A500000.000000 500000.000000 0.0 0 0 120156250.000000 62700001.000000" />
<path d="M253506250 81750001
L240506250 81750001
" />
<path d="M196356250.000000 76700000.000000 A500000.000000 500000.000000 0.0 0 0 196856250.000000 76200000.000000" />
<path d="M63506250 76200000
L63506250 63200001
" />
<path d="M63506250.000000 82250001.000000 A500000.000000 500000.000000 0.0 0 0 63006250.000000 81750001.000000" />
<path d="M101106250 62700001
L88106250 62700001
" />
<path d="M215406250.000000 95750001.000000 A500000.000000 500000.000000 0.0 0 0 215906250.000000 95250001.000000" />
<path d="M177306250 62700001
L164306250 62700001
" />
<path d="M120656250 133350001
L120656250 120350001
" />
<path d="M201906250 63200001
L201906250 76200000
" />
<path d="M63506250.000000 63200001.000000 A500000.000000 500000.000000 0.0 0 0 63006250.000000 62700001.000000" />
<path d="M259056250 82250001
L259056250 95250001
" />
<path d="M202406250.000000 81750001.000000 A500000.000000 500000.000000 0.0 0 0 201906250.000000 82250001.000000" />
<path d="M240006250.000000 76200000.000000 A500000.000000 500000.000000 0.0 0 0 240506250.000000 76700000.000000" />
<path d="M272556250.000000 95750001.000000 A500000.000000 500000.000000 0.0 0 0 273056250.000000 95250001.000000" />
<path d="M43956249.000000 95750001.000000 A500000.000000 500000.000000 0.0 0 0 44456249.000000 95250001.000000" />
<path d="M107156250 133850001
L120156250 133850001
" />
<path d="M182856250 120350001
L182856250 133350001
" />
<path d="M164306250.000000 81750001.000000 A500000.000000 500000.000000 0.0 0 0 163806250.000000 82250001.000000" />
<path d="M196856250 133350001
L196856250 120350001
" />
</g>
<g style="fill:#000000; fill-opacity:0.0; 
stroke:#000000; stroke-width:50000.000000; stroke-opacity:1; 
stroke-linecap:round; stroke-linejoin:round;">
<path d="M65881250.000000 100806250.000000 A2381250.000000 2381250.000000 0.0 0 0 63500000.000000 98425000.000000" />
</g>
<g style="fill:#000000; fill-opacity:0.0; 
stroke:#000000; stroke-width:200000.000000; stroke-opacity:1; 
stroke-linecap:round; stroke-linejoin:round;">
<path d="M101606250.000000 82250001.000000 A500000.000000 500000.000000 0.0 0 0 101106250.000000 81750001.000000" />
<path d="M49506250 82250001
L49506250 95250001
" />
<path d="M82556250.000000 82250001.000000 A500000.000000 500000.000000 0.0 0 0 82056250.000000 81750001.000000" />
<path d="M259056250.000000 95250001.000000 A500000.000000 500000.000000 0.0 0 0 259556250.000000 95750001.000000" />
<path d="M164306250 133850001
L177306250 133850001
" />
<path d="M68556250.000000 76200000.000000 A500000.000000 500000.000000 0.0 0 0 69056250.000000 76700000.000000" />
<path d="M44456249 95250001
L44456249 82250001
" />
<path d="M88106250 133850001
L101106250 133850001
" />
<path d="M49506250 63200001
L49506250 76200000
" />
<path d="M120156250.000000 95750001.000000 A500000.000000 500000.000000 0.0 0 0 120656250.000000 95250001.000000" />
<path d="M273056250 76200000
L273056250 63200001
" />
<path d="M164306250 76700000
L177306250 76700000
" />
<path d="M182856250 82250001
L182856250 95250001
" />
<path d="M101606250.000000 63200001.000000 A500000.000000 500000.000000 0.0 0 0 101106250.000000 62700001.000000" />
<path d="M220956250 82250001
L220956250 95250001
" />
</g>
<g style="fill:#000000; fill-opacity:0.0; 
stroke:#000000; stroke-width:50000.000000; stroke-opacity:1; 
stroke-linecap:round; stroke-linejoin:round;">
<path d="M275431250.000000 62706250.000000 A2381250.000000 2381250.000000 0.0 0 0 273050000.000000 60325000.000000" />
</g>
<g style="fill:#000000; fill-opacity:0.0; 
stroke:#000000; stroke-width:200000.000000; stroke-opacity:1; 
stroke-linecap:round; stroke-linejoin:round;">
<path d="M196856250.000000 120350001.000000 A500000.000000 500000.000000 0.0 0 0 196356250.000000 119850001.000000" />
<path d="M201906250.000000 76200000.000000 A500000.000000 500000.000000 0.0 0 0 202406250.000000 76700000.000000" />
<path d="M234456250 62700001
L221456250 62700001
" />
<path d="M163806250.000000 76200000.000000 A500000.000000 500000.000000 0.0 0 0 164306250.000000 76700000.000000" />
<path d="M196356250 119850001
L183356250 119850001
" />
<path d="M49506250.000000 95250001.000000 A500000.000000 500000.000000 0.0 0 0 50006250.000000 95750001.000000" />
<path d="M44456249.000000 63200001.000000 A500000.000000 500000.000000 0.0 0 0 43956249.000000 62700001.000000" />
<path d="M88106250.000000 62700001.000000 A500000.000000 500000.000000 0.0 0 0 87606250.000000 63200001.000000" />
<path d="M183356250.000000 119850001.000000 A500000.000000 500000.000000 0.0 0 0 182856250.000000 120350001.000000" />
<path d="M220956250 63200001
L220956250 76200000
" />
</g>
<g style="fill:#000000; fill-opacity:0.0; 
stroke:#000000; stroke-width:50000.000000; stroke-opacity:1; 
stroke-linecap:round; stroke-linejoin:round;">
<path d="M273050000.000000 98425000.000000 A2381250.000000 2381250.000000 0.0 0 0 275431250.000000 96043750.000000" />
</g>
<g style="fill:#000000; fill-opacity:0.0; 
stroke:#000000; stroke-width:200000.000000; stroke-opacity:1; 
stroke-linecap:round; stroke-linejoin:round;">
<path d="M82056250.000000 95750001.000000 A500000.000000 500000.000000 0.0 0 0 82556250.000000 95250001.000000" />
<path d="M240006250 82250001
L240006250 95250001
" />
<path d="M182856250 63200001
L182856250 76200000
" />
<path d="M120156250 81750001
L107156250 81750001
" />
<path d="M201906250 120350001
L201906250 133350001
" />
<path d="M177306250.000000 133850001.000000 A500000.000000 500000.000000 0.0 0 0 177806250.000000 133350001.000000" />
<path d="M63006250.000000 76700000.000000 A500000.000000 500000.000000 0.0 0 0 63506250.000000 76200000.000000" />
<path d="M30956250 76700000
L43956249 76700000
" />
<path d="M253506250.000000 95750001.000000 A500000.000000 500000.000000 0.0 0 0 254006250.000000 95250001.000000" />
<path d="M215906250 95250001
L215906250 82250001
" />
<path d="M82056250.000000 76700000.000000 A500000.000000 500000.000000 0.0 0 0 82556250.000000 76200000.000000" />
<path d="M30956250.000000 81750001.000000 A500000.000000 500000.000000 0.0 0 0 30456250.000000 82250001.000000" />
<path d="M69056250 95750001
L82056250 95750001
" />
<path d="M183356250 133850001
L196356250 133850001
" />
<path d="M234456250.000000 95750001.000000 A500000.000000 500000.000000 0.0 0 0 234956250.000000 95250001.000000" />
<path d="M87606250.000000 133350001.000000 A500000.000000 500000.000000 0.0 0 0 88106250.000000 133850001.000000" />
<path d="M43956249 62700001
L30956250 62700001
" />
<path d="M220956250.000000 76200000.000000 A500000.000000 500000.000000 0.0 0 0 221456250.000000 76700000.000000" />
</g>
<g style="fill:#000000; fill-opacity:0.0; 
stroke:#000000; stroke-width:50000.000000; stroke-opacity:1; 
stroke-linecap:round; stroke-linejoin:round;">
<path d="M30162500.000000 60325000.000000 A2381250.000000 2381250.000000 0.0 0 0 27781250.000000 62706250.000000" />
</g>
<g style="fill:#000000; fill-opacity:0.0; 
stroke:#000000; stroke-width:200000.000000; stroke-opacity:1; 
stroke-linecap:round; stroke-linejoin:round;">
<path d="M254006250 76200000
L254006250 63200001
" />
<path d="M215906250.000000 120350001.000000 A500000.000000 500000.000000 0.0 0 0 215406250.000000 119850001.000000" />
<path d="M215406250 62700001
L202406250 62700001
" />
<path d="M259556250 76700000
L272556250 76700000
" />
<path d="M106656250.000000 76200000.000000 A500000.000000 500000.000000 0.0 0 0 107156250.000000 76700000.000000" />
<path d="M164306250 95750001
L177306250 95750001
" />
<path d="M43956249.000000 76700000.000000 A500000.000000 500000.000000 0.0 0 0 44456249.000000 76200000.000000" />
<path d="M50006250.000000 62700001.000000 A500000.000000 500000.000000 0.0 0 0 49506250.000000 63200001.000000" />
<path d="M240006250 63200001
L240006250 76200000
" />
<path d="M101106250.000000 133850001.000000 A500000.000000 500000.000000 0.0 0 0 101606250.000000 133350001.000000" />
</g>
<g style="fill:#000000; fill-opacity:0.0; 
stroke:#000000; stroke-width:50000.000000; stroke-opacity:1; 
stroke-linecap:round; stroke-linejoin:round;">
<path d="M220662500.000000 98425000.000000 A2381250.000000 2381250.000000 0.0 0 0 218281250.000000 100806250.000000" />
</g>
<g style="fill:#000000; fill-opacity:0.0; 
stroke:#000000; stroke-width:200000.000000; stroke-opacity:1; 
stroke-linecap:round; stroke-linejoin:round;">
<path d="M30456250 82250001
L30456250 95250001
" />
<path d="M163806250 63200001
L163806250 76200000
" />
<path d="M215406250.000000 133850001.000000 A500000.000000 500000.000000 0.0 0 0 215906250.000000 133350001.000000" />
<path d="M101106250 119850001
L88106250 119850001
" />
<path d="M177806250 76200000
L177806250 63200001
" />
</g>
<g style="fill:#000000; fill-opacity:0.0; 
stroke:#000000; stroke-width:50000.000000; stroke-opacity:1; 
stroke-linecap:round; stroke-linejoin:round;">
<path d="M27781250.000000 96043750.000000 A2381250.000000 2381250.000000 0.0 0 0 30162500.000000 98425000.000000" />
</g>
<g style="fill:#000000; fill-opacity:0.0; 
stroke:#000000; stroke-width:200000.000000; stroke-opacity:1; 
stroke-linecap:round; stroke-linejoin:round;">
<path d="M87606250 120350001
L87606250 133350001
" />
<path d="M88106250.000000 81750001.000000 A500000.000000 500000.000000 0.0 0 0 87606250.000000 82250001.000000" />
<path d="M63006250.000000 95750001.000000 A500000.000000 500000.000000 0.0 0 0 63506250.000000 95250001.000000" />
<path d="M120656250 95250001
L120656250 82250001
" />
<path d="M88106250 76700000
L101106250 76700000
" />
<path d="M259556250.000000 62700001.000000 A500000.000000 500000.000000 0.0 0 0 259056250.000000 63200001.000000" />
<path d="M106656250 120350001
L106656250 133350001
" />
<path d="M272556250 62700001
L259556250 62700001
" />
<path d="M69056250 133850001
L82056250 133850001
" />
<path d="M87606250.000000 95250001.000000 A500000.000000 500000.000000 0.0 0 0 88106250.000000 95750001.000000" />
<path d="M101606250 95250001
L101606250 82250001
" />
<path d="M183356250 95750001
L196356250 95750001
" />
<path d="M30456250.000000 95250001.000000 A500000.000000 500000.000000 0.0 0 0 30956250.000000 95750001.000000" />
<path d="M240506250.000000 62700001.000000 A500000.000000 500000.000000 0.0 0 0 240006250.000000 63200001.000000" />
<path d="M120156250.000000 133850001.000000 A500000.000000 500000.000000 0.0 0 0 120656250.000000 133350001.000000" />
<path d="M259056250.000000 76200000.000000 A500000.000000 500000.000000 0.0 0 0 259556250.000000 76700000.000000" />
<path d="M221456250 95750001
L234456250 95750001
" />
<path d="M82056250 62700001
L69056250 62700001
" />
<path d="M177806250 133350001
L177806250 120350001
" />
<path d="M120156250.000000 76700000.000000 A500000.000000 500000.000000 0.0 0 0 120656250.000000 76200000.000000" />
<path d="M107156250 95750001
L120156250 95750001
" />
<path d="M272556250 81750001
L259556250 81750001
" />
<path d="M107156250.000000 81750001.000000 A500000.000000 500000.000000 0.0 0 0 106656250.000000 82250001.000000" />
<path d="M182856250.000000 133350001.000000 A500000.000000 500000.000000 0.0 0 0 183356250.000000 133850001.000000" />
<path d="M254006250.000000 63200001.000000 A500000.000000 500000.000000 0.0 0 0 253506250.000000 62700001.000000" />
<path d="M120156250 62700001
L107156250 62700001
" />
<path d="M196356250 81750001
L183356250 81750001
" />
<path d="M101606250.000000 120350001.000000 A500000.000000 500000.000000 0.0 0 0 101106250.000000 119850001.000000" />
<path d="M82056250 81750001
L69056250 81750001
" />
<path d="M196356250 62700001
L183356250 62700001
" />
<path d="M234956250 76200000
L234956250 63200001
" />
</g>
<g style="fill:#000000; fill-opacity:0.0; 
stroke:#000000; stroke-width:50000.000000; stroke-opacity:1; 
stroke-linecap:round; stroke-linejoin:round;">
<path d="M215900000.000000 136525000.000000 A2381250.000000 2381250.000000 0.0 0 0 218281250.000000 134143750.000000" />
</g>
<g style="fill:#000000; fill-opacity:0.0; 
stroke:#000000; stroke-width:200000.000000; stroke-opacity:1; 
stroke-linecap:round; stroke-linejoin:round;">
<path d="M101606250 133350001
L101606250 120350001
" />
<path d="M68556250 82250001
L68556250 95250001
" />
<path d="M69056250 76700000
L82056250 76700000
" />
<path d="M43956249 81750001
L30956250 81750001
" />
<path d="M82556250 133350001
L82556250 120350001
" />
<path d="M44456249 76200000
L44456249 63200001
" />
<path d="M272556250.000000 76700000.000000 A500000.000000 500000.000000 0.0 0 0 273056250.000000 76200000.000000" />
<path d="M183356250.000000 62700001.000000 A500000.000000 500000.000000 0.0 0 0 182856250.000000 63200001.000000" />
<g >
</g>
<g >
</g>
<g >
</g>
<g >
</g>
<g >
</g>
<g >
</g>
<g >
</g>
<g >
</g>
<g >
</g>
</g> 
</svg>
