M48
; DRILL file {KiCad (5.1.9)-1} date 01/23/21 16:01:38
; FORMAT={-:-/ absolute / inch / decimal}
; #@! TF.CreationDate,2021-01-23T16:01:38-08:00
; #@! TF.GenerationSoftware,Kicad,Pcbnew,(5.1.9)-1
; #@! TF.FileFunction,Plated,1,2,PTH
FMAT,2
INCH
T1C0.0430
T2C0.0472
T3C0.0579
%
G90
G05
T1
X5.2938Y-2.5125
X5.2938Y-2.6125
X5.2938Y-2.7125
X5.2938Y-2.8125
X5.2938Y-2.9125
X5.2938Y-3.0125
X5.2938Y-3.1125
X5.2938Y-3.2125
X5.2938Y-3.3125
X5.2938Y-3.4125
X5.2938Y-3.5125
X5.2938Y-3.6125
X5.8937Y-2.5125
X5.8937Y-2.6125
X5.8937Y-2.7125
X5.8937Y-2.8125
X5.8937Y-2.9125
X5.8937Y-3.0125
X5.8937Y-3.1125
X5.8937Y-3.2125
X5.8937Y-3.3125
X5.8937Y-3.4125
X5.8937Y-3.5125
X5.8937Y-3.6125
T2
X1.4688Y-2.5177
X1.4688Y-3.2677
X1.6656Y-2.6004
X1.6656Y-3.3504
X2.2188Y-2.5177
X2.2188Y-3.2677
X2.4156Y-2.6004
X2.4156Y-3.3504
X2.9688Y-2.5177
X2.9688Y-3.2677
X2.9688Y-4.7677
X3.1656Y-2.6004
X3.1656Y-3.3504
X3.1656Y-4.8504
X3.7188Y-2.5177
X3.7188Y-3.2677
X3.7188Y-4.7677
X3.9156Y-2.6004
X3.9156Y-3.3504
X3.9156Y-4.8504
X4.4688Y-2.5177
X4.4688Y-3.2677
X4.4688Y-4.7677
X4.6656Y-2.6004
X4.6656Y-3.3504
X4.6656Y-4.8504
X6.7188Y-2.5177
X6.7188Y-3.2677
X6.7188Y-4.7677
X6.9156Y-2.6004
X6.9156Y-3.3504
X6.9156Y-4.8504
X7.4688Y-2.5177
X7.4688Y-3.2677
X7.4688Y-4.7677
X7.6656Y-2.6004
X7.6656Y-3.3504
X7.6656Y-4.8504
X8.2188Y-2.5177
X8.2188Y-3.2677
X8.2188Y-4.7677
X8.4156Y-2.6004
X8.4156Y-3.3504
X8.4156Y-4.8504
X8.9688Y-2.5177
X8.9688Y-3.2677
X9.1656Y-2.6004
X9.1656Y-3.3504
X9.7188Y-2.5177
X9.7188Y-3.2677
X9.9156Y-2.6004
X9.9156Y-3.3504
X10.4688Y-2.5177
X10.4688Y-3.2677
X10.6656Y-2.6004
X10.6656Y-3.3504
T3
X1.3187Y-2.65
X1.3187Y-3.4
X1.3703Y-2.5925
X1.3703Y-3.3425
X1.5672Y-2.5728
X1.5672Y-3.3228
X1.5687Y-2.55
X1.5687Y-3.3
X2.0688Y-2.65
X2.0688Y-3.4
X2.1203Y-2.5925
X2.1203Y-3.3425
X2.3172Y-2.5728
X2.3172Y-3.3228
X2.3188Y-2.55
X2.3188Y-3.3
X2.8188Y-2.65
X2.8188Y-3.4
X2.8188Y-4.9
X2.8703Y-2.5925
X2.8703Y-3.3425
X2.8703Y-4.8425
X3.0672Y-2.5728
X3.0672Y-3.3228
X3.0672Y-4.8228
X3.0688Y-2.55
X3.0688Y-3.3
X3.0688Y-4.8
X3.5688Y-2.65
X3.5688Y-3.4
X3.5688Y-4.9
X3.6203Y-2.5925
X3.6203Y-3.3425
X3.6203Y-4.8425
X3.8172Y-2.5728
X3.8172Y-3.3228
X3.8172Y-4.8228
X3.8188Y-2.55
X3.8188Y-3.3
X3.8188Y-4.8
X4.3187Y-2.65
X4.3187Y-3.4
X4.3187Y-4.9
X4.3703Y-2.5925
X4.3703Y-3.3425
X4.3703Y-4.8425
X4.5672Y-2.5728
X4.5672Y-3.3228
X4.5672Y-4.8228
X4.5687Y-2.55
X4.5687Y-3.3
X4.5687Y-4.8
X6.5687Y-2.65
X6.5687Y-3.4
X6.5687Y-4.9
X6.6203Y-2.5925
X6.6203Y-3.3425
X6.6203Y-4.8425
X6.8172Y-2.5728
X6.8172Y-3.3228
X6.8172Y-4.8228
X6.8187Y-2.55
X6.8187Y-3.3
X6.8187Y-4.8
X7.3187Y-2.65
X7.3187Y-3.4
X7.3187Y-4.9
X7.3703Y-2.5925
X7.3703Y-3.3425
X7.3703Y-4.8425
X7.5672Y-2.5728
X7.5672Y-3.3228
X7.5672Y-4.8228
X7.5687Y-2.55
X7.5687Y-3.3
X7.5687Y-4.8
X8.0687Y-2.65
X8.0687Y-3.4
X8.0687Y-4.9
X8.1203Y-2.5925
X8.1203Y-3.3425
X8.1203Y-4.8425
X8.3172Y-2.5728
X8.3172Y-3.3228
X8.3172Y-4.8228
X8.3187Y-2.55
X8.3187Y-3.3
X8.3187Y-4.8
X8.8187Y-2.65
X8.8187Y-3.4
X8.8703Y-2.5925
X8.8703Y-3.3425
X9.0672Y-2.5728
X9.0672Y-3.3228
X9.0687Y-2.55
X9.0687Y-3.3
X9.5687Y-2.65
X9.5687Y-3.4
X9.6203Y-2.5925
X9.6203Y-3.3425
X9.8172Y-2.5728
X9.8172Y-3.3228
X9.8187Y-2.55
X9.8187Y-3.3
X10.3187Y-2.65
X10.3187Y-3.4
X10.3703Y-2.5925
X10.3703Y-3.3425
X10.5672Y-2.5728
X10.5672Y-3.3228
X10.5687Y-2.55
X10.5687Y-3.3
T0
M30
