%TF.GenerationSoftware,KiCad,Pcbnew,(5.1.9)-1*%
%TF.CreationDate,2021-01-22T21:17:42-08:00*%
%TF.ProjectId,unisplit_orthosteno,756e6973-706c-4697-945f-6f7274686f73,rev?*%
%TF.SameCoordinates,Original*%
%TF.FileFunction,Paste,Bot*%
%TF.FilePolarity,Positive*%
%FSLAX46Y46*%
G04 Gerber Fmt 4.6, Leading zero omitted, Abs format (unit mm)*
G04 Created by KiCad (PCBNEW (5.1.9)-1) date 2021-01-22 21:17:42*
%MOMM*%
%LPD*%
G01*
G04 APERTURE LIST*
%ADD10R,1.200000X1.400000*%
G04 APERTURE END LIST*
D10*
%TO.C,D25*%
X115206250Y-131762500D03*
X111806250Y-131762500D03*
%TD*%
%TO.C,D23*%
X77106250Y-131762500D03*
X73706250Y-131762500D03*
%TD*%
%TO.C,D24*%
X96156250Y-131762500D03*
X92756250Y-131762500D03*
%TD*%
%TO.C,D28*%
X210456250Y-131762500D03*
X207056250Y-131762500D03*
%TD*%
%TO.C,D27*%
X191406250Y-131762500D03*
X188006250Y-131762500D03*
%TD*%
%TO.C,D26*%
X172356250Y-131762500D03*
X168956250Y-131762500D03*
%TD*%
%TO.C,D22*%
X267606250Y-93662500D03*
X264206250Y-93662500D03*
%TD*%
%TO.C,D21*%
X248556250Y-93662500D03*
X245156250Y-93662500D03*
%TD*%
%TO.C,D20*%
X229506250Y-93662500D03*
X226106250Y-93662500D03*
%TD*%
%TO.C,D19*%
X210456250Y-93662500D03*
X207056250Y-93662500D03*
%TD*%
%TO.C,D18*%
X191406250Y-93662500D03*
X188006250Y-93662500D03*
%TD*%
%TO.C,D17*%
X172356250Y-93662500D03*
X168956250Y-93662500D03*
%TD*%
%TO.C,D16*%
X115206250Y-93662500D03*
X111806250Y-93662500D03*
%TD*%
%TO.C,D15*%
X96156250Y-93662500D03*
X92756250Y-93662500D03*
%TD*%
%TO.C,D14*%
X77106250Y-93662500D03*
X73706250Y-93662500D03*
%TD*%
%TO.C,D13*%
X58056250Y-93662500D03*
X54656250Y-93662500D03*
%TD*%
%TO.C,D12*%
X39006250Y-93662500D03*
X35606250Y-93662500D03*
%TD*%
%TO.C,D11*%
X267606250Y-74612500D03*
X264206250Y-74612500D03*
%TD*%
%TO.C,D10*%
X248556250Y-74612500D03*
X245156250Y-74612500D03*
%TD*%
%TO.C,D9*%
X229506250Y-74612500D03*
X226106250Y-74612500D03*
%TD*%
%TO.C,D8*%
X210456250Y-74612500D03*
X207056250Y-74612500D03*
%TD*%
%TO.C,D7*%
X191406250Y-74612500D03*
X188006250Y-74612500D03*
%TD*%
%TO.C,D6*%
X172356250Y-74612500D03*
X168956250Y-74612500D03*
%TD*%
%TO.C,D5*%
X115206250Y-74612500D03*
X111806250Y-74612500D03*
%TD*%
%TO.C,D4*%
X96156250Y-74612500D03*
X92756250Y-74612500D03*
%TD*%
%TO.C,D3*%
X76993750Y-74612500D03*
X73593750Y-74612500D03*
%TD*%
%TO.C,D2*%
X58056250Y-74612500D03*
X54656250Y-74612500D03*
%TD*%
%TO.C,D1*%
X39006250Y-74612500D03*
X35606250Y-74612500D03*
%TD*%
M02*
