%TF.GenerationSoftware,KiCad,Pcbnew,(5.1.9)-1*%
%TF.CreationDate,2021-01-22T21:17:42-08:00*%
%TF.ProjectId,unisplit_orthosteno,756e6973-706c-4697-945f-6f7274686f73,rev?*%
%TF.SameCoordinates,Original*%
%TF.FileFunction,Legend,Bot*%
%TF.FilePolarity,Positive*%
%FSLAX46Y46*%
G04 Gerber Fmt 4.6, Leading zero omitted, Abs format (unit mm)*
G04 Created by KiCad (PCBNEW (5.1.9)-1) date 2021-01-22 21:17:42*
%MOMM*%
%LPD*%
G01*
G04 APERTURE LIST*
%ADD10C,0.200000*%
%ADD11C,0.381000*%
%ADD12C,0.150000*%
G04 APERTURE END LIST*
D10*
%TO.C,D25*%
X116581250Y-132962500D02*
X116581250Y-130562500D01*
X116306250Y-130562500D02*
X116306250Y-132962500D01*
X116431250Y-130562500D02*
X116431250Y-132962500D01*
X116706250Y-130562500D02*
X110706250Y-130562500D01*
X110706250Y-130562500D02*
X110706250Y-132962500D01*
X110706250Y-132962500D02*
X116706250Y-132962500D01*
X116706250Y-132962500D02*
X116706250Y-130562500D01*
%TO.C,D23*%
X78606250Y-132962500D02*
X78606250Y-130562500D01*
X72606250Y-132962500D02*
X78606250Y-132962500D01*
X72606250Y-130562500D02*
X72606250Y-132962500D01*
X78606250Y-130562500D02*
X72606250Y-130562500D01*
X78331250Y-130562500D02*
X78331250Y-132962500D01*
X78206250Y-130562500D02*
X78206250Y-132962500D01*
X78481250Y-132962500D02*
X78481250Y-130562500D01*
%TO.C,D24*%
X97656250Y-132962500D02*
X97656250Y-130562500D01*
X91656250Y-132962500D02*
X97656250Y-132962500D01*
X91656250Y-130562500D02*
X91656250Y-132962500D01*
X97656250Y-130562500D02*
X91656250Y-130562500D01*
X97381250Y-130562500D02*
X97381250Y-132962500D01*
X97256250Y-130562500D02*
X97256250Y-132962500D01*
X97531250Y-132962500D02*
X97531250Y-130562500D01*
%TO.C,D28*%
X211831250Y-132962500D02*
X211831250Y-130562500D01*
X211556250Y-130562500D02*
X211556250Y-132962500D01*
X211681250Y-130562500D02*
X211681250Y-132962500D01*
X211956250Y-130562500D02*
X205956250Y-130562500D01*
X205956250Y-130562500D02*
X205956250Y-132962500D01*
X205956250Y-132962500D02*
X211956250Y-132962500D01*
X211956250Y-132962500D02*
X211956250Y-130562500D01*
D11*
%TO.C,U1*%
X148431250Y-62547500D02*
X150971250Y-62547500D01*
X150971250Y-60007500D02*
X150971250Y-62547500D01*
X133191250Y-60007500D02*
X150971250Y-60007500D01*
X133191250Y-62547500D02*
X133191250Y-60007500D01*
D12*
G36*
X137149682Y-69026860D02*
G01*
X137149682Y-69226860D01*
X137249682Y-69226860D01*
X137249682Y-69026860D01*
X137149682Y-69026860D01*
G37*
X137149682Y-69026860D02*
X137149682Y-69226860D01*
X137249682Y-69226860D01*
X137249682Y-69026860D01*
X137149682Y-69026860D01*
G36*
X137549682Y-68426860D02*
G01*
X137549682Y-69226860D01*
X137649682Y-69226860D01*
X137649682Y-68426860D01*
X137549682Y-68426860D01*
G37*
X137549682Y-68426860D02*
X137549682Y-69226860D01*
X137649682Y-69226860D01*
X137649682Y-68426860D01*
X137549682Y-68426860D01*
G36*
X137149682Y-68426860D02*
G01*
X137149682Y-68526860D01*
X137649682Y-68526860D01*
X137649682Y-68426860D01*
X137149682Y-68426860D01*
G37*
X137149682Y-68426860D02*
X137149682Y-68526860D01*
X137649682Y-68526860D01*
X137649682Y-68426860D01*
X137149682Y-68426860D01*
G36*
X137349682Y-68826860D02*
G01*
X137349682Y-68926860D01*
X137449682Y-68926860D01*
X137449682Y-68826860D01*
X137349682Y-68826860D01*
G37*
X137349682Y-68826860D02*
X137349682Y-68926860D01*
X137449682Y-68926860D01*
X137449682Y-68826860D01*
X137349682Y-68826860D01*
G36*
X137149682Y-68426860D02*
G01*
X137149682Y-68726860D01*
X137249682Y-68726860D01*
X137249682Y-68426860D01*
X137149682Y-68426860D01*
G37*
X137149682Y-68426860D02*
X137149682Y-68726860D01*
X137249682Y-68726860D01*
X137249682Y-68426860D01*
X137149682Y-68426860D01*
D11*
X148431250Y-65087500D02*
X150971250Y-65087500D01*
X148431250Y-62547500D02*
X148431250Y-65087500D01*
X133191250Y-93027500D02*
X133191250Y-62547500D01*
X150971250Y-93027500D02*
X133191250Y-93027500D01*
X150971250Y-62547500D02*
X150971250Y-93027500D01*
D10*
%TO.C,D27*%
X192906250Y-132962500D02*
X192906250Y-130562500D01*
X186906250Y-132962500D02*
X192906250Y-132962500D01*
X186906250Y-130562500D02*
X186906250Y-132962500D01*
X192906250Y-130562500D02*
X186906250Y-130562500D01*
X192631250Y-130562500D02*
X192631250Y-132962500D01*
X192506250Y-130562500D02*
X192506250Y-132962500D01*
X192781250Y-132962500D02*
X192781250Y-130562500D01*
%TO.C,D26*%
X173856250Y-132962500D02*
X173856250Y-130562500D01*
X167856250Y-132962500D02*
X173856250Y-132962500D01*
X167856250Y-130562500D02*
X167856250Y-132962500D01*
X173856250Y-130562500D02*
X167856250Y-130562500D01*
X173581250Y-130562500D02*
X173581250Y-132962500D01*
X173456250Y-130562500D02*
X173456250Y-132962500D01*
X173731250Y-132962500D02*
X173731250Y-130562500D01*
%TO.C,D22*%
X269106250Y-94862500D02*
X269106250Y-92462500D01*
X263106250Y-94862500D02*
X269106250Y-94862500D01*
X263106250Y-92462500D02*
X263106250Y-94862500D01*
X269106250Y-92462500D02*
X263106250Y-92462500D01*
X268831250Y-92462500D02*
X268831250Y-94862500D01*
X268706250Y-92462500D02*
X268706250Y-94862500D01*
X268981250Y-94862500D02*
X268981250Y-92462500D01*
%TO.C,D21*%
X250056250Y-94862500D02*
X250056250Y-92462500D01*
X244056250Y-94862500D02*
X250056250Y-94862500D01*
X244056250Y-92462500D02*
X244056250Y-94862500D01*
X250056250Y-92462500D02*
X244056250Y-92462500D01*
X249781250Y-92462500D02*
X249781250Y-94862500D01*
X249656250Y-92462500D02*
X249656250Y-94862500D01*
X249931250Y-94862500D02*
X249931250Y-92462500D01*
%TO.C,D20*%
X231006250Y-94862500D02*
X231006250Y-92462500D01*
X225006250Y-94862500D02*
X231006250Y-94862500D01*
X225006250Y-92462500D02*
X225006250Y-94862500D01*
X231006250Y-92462500D02*
X225006250Y-92462500D01*
X230731250Y-92462500D02*
X230731250Y-94862500D01*
X230606250Y-92462500D02*
X230606250Y-94862500D01*
X230881250Y-94862500D02*
X230881250Y-92462500D01*
%TO.C,D19*%
X211956250Y-94862500D02*
X211956250Y-92462500D01*
X205956250Y-94862500D02*
X211956250Y-94862500D01*
X205956250Y-92462500D02*
X205956250Y-94862500D01*
X211956250Y-92462500D02*
X205956250Y-92462500D01*
X211681250Y-92462500D02*
X211681250Y-94862500D01*
X211556250Y-92462500D02*
X211556250Y-94862500D01*
X211831250Y-94862500D02*
X211831250Y-92462500D01*
%TO.C,D18*%
X192906250Y-94862500D02*
X192906250Y-92462500D01*
X186906250Y-94862500D02*
X192906250Y-94862500D01*
X186906250Y-92462500D02*
X186906250Y-94862500D01*
X192906250Y-92462500D02*
X186906250Y-92462500D01*
X192631250Y-92462500D02*
X192631250Y-94862500D01*
X192506250Y-92462500D02*
X192506250Y-94862500D01*
X192781250Y-94862500D02*
X192781250Y-92462500D01*
%TO.C,D17*%
X173856250Y-94862500D02*
X173856250Y-92462500D01*
X167856250Y-94862500D02*
X173856250Y-94862500D01*
X167856250Y-92462500D02*
X167856250Y-94862500D01*
X173856250Y-92462500D02*
X167856250Y-92462500D01*
X173581250Y-92462500D02*
X173581250Y-94862500D01*
X173456250Y-92462500D02*
X173456250Y-94862500D01*
X173731250Y-94862500D02*
X173731250Y-92462500D01*
%TO.C,D16*%
X116706250Y-94862500D02*
X116706250Y-92462500D01*
X110706250Y-94862500D02*
X116706250Y-94862500D01*
X110706250Y-92462500D02*
X110706250Y-94862500D01*
X116706250Y-92462500D02*
X110706250Y-92462500D01*
X116431250Y-92462500D02*
X116431250Y-94862500D01*
X116306250Y-92462500D02*
X116306250Y-94862500D01*
X116581250Y-94862500D02*
X116581250Y-92462500D01*
%TO.C,D15*%
X97656250Y-94862500D02*
X97656250Y-92462500D01*
X91656250Y-94862500D02*
X97656250Y-94862500D01*
X91656250Y-92462500D02*
X91656250Y-94862500D01*
X97656250Y-92462500D02*
X91656250Y-92462500D01*
X97381250Y-92462500D02*
X97381250Y-94862500D01*
X97256250Y-92462500D02*
X97256250Y-94862500D01*
X97531250Y-94862500D02*
X97531250Y-92462500D01*
%TO.C,D14*%
X78606250Y-94862500D02*
X78606250Y-92462500D01*
X72606250Y-94862500D02*
X78606250Y-94862500D01*
X72606250Y-92462500D02*
X72606250Y-94862500D01*
X78606250Y-92462500D02*
X72606250Y-92462500D01*
X78331250Y-92462500D02*
X78331250Y-94862500D01*
X78206250Y-92462500D02*
X78206250Y-94862500D01*
X78481250Y-94862500D02*
X78481250Y-92462500D01*
%TO.C,D13*%
X59556250Y-94862500D02*
X59556250Y-92462500D01*
X53556250Y-94862500D02*
X59556250Y-94862500D01*
X53556250Y-92462500D02*
X53556250Y-94862500D01*
X59556250Y-92462500D02*
X53556250Y-92462500D01*
X59281250Y-92462500D02*
X59281250Y-94862500D01*
X59156250Y-92462500D02*
X59156250Y-94862500D01*
X59431250Y-94862500D02*
X59431250Y-92462500D01*
%TO.C,D12*%
X40506250Y-94862500D02*
X40506250Y-92462500D01*
X34506250Y-94862500D02*
X40506250Y-94862500D01*
X34506250Y-92462500D02*
X34506250Y-94862500D01*
X40506250Y-92462500D02*
X34506250Y-92462500D01*
X40231250Y-92462500D02*
X40231250Y-94862500D01*
X40106250Y-92462500D02*
X40106250Y-94862500D01*
X40381250Y-94862500D02*
X40381250Y-92462500D01*
%TO.C,D11*%
X269106250Y-75812500D02*
X269106250Y-73412500D01*
X263106250Y-75812500D02*
X269106250Y-75812500D01*
X263106250Y-73412500D02*
X263106250Y-75812500D01*
X269106250Y-73412500D02*
X263106250Y-73412500D01*
X268831250Y-73412500D02*
X268831250Y-75812500D01*
X268706250Y-73412500D02*
X268706250Y-75812500D01*
X268981250Y-75812500D02*
X268981250Y-73412500D01*
%TO.C,D10*%
X250056250Y-75812500D02*
X250056250Y-73412500D01*
X244056250Y-75812500D02*
X250056250Y-75812500D01*
X244056250Y-73412500D02*
X244056250Y-75812500D01*
X250056250Y-73412500D02*
X244056250Y-73412500D01*
X249781250Y-73412500D02*
X249781250Y-75812500D01*
X249656250Y-73412500D02*
X249656250Y-75812500D01*
X249931250Y-75812500D02*
X249931250Y-73412500D01*
%TO.C,D9*%
X231006250Y-75812500D02*
X231006250Y-73412500D01*
X225006250Y-75812500D02*
X231006250Y-75812500D01*
X225006250Y-73412500D02*
X225006250Y-75812500D01*
X231006250Y-73412500D02*
X225006250Y-73412500D01*
X230731250Y-73412500D02*
X230731250Y-75812500D01*
X230606250Y-73412500D02*
X230606250Y-75812500D01*
X230881250Y-75812500D02*
X230881250Y-73412500D01*
%TO.C,D8*%
X211956250Y-75812500D02*
X211956250Y-73412500D01*
X205956250Y-75812500D02*
X211956250Y-75812500D01*
X205956250Y-73412500D02*
X205956250Y-75812500D01*
X211956250Y-73412500D02*
X205956250Y-73412500D01*
X211681250Y-73412500D02*
X211681250Y-75812500D01*
X211556250Y-73412500D02*
X211556250Y-75812500D01*
X211831250Y-75812500D02*
X211831250Y-73412500D01*
%TO.C,D7*%
X192906250Y-75812500D02*
X192906250Y-73412500D01*
X186906250Y-75812500D02*
X192906250Y-75812500D01*
X186906250Y-73412500D02*
X186906250Y-75812500D01*
X192906250Y-73412500D02*
X186906250Y-73412500D01*
X192631250Y-73412500D02*
X192631250Y-75812500D01*
X192506250Y-73412500D02*
X192506250Y-75812500D01*
X192781250Y-75812500D02*
X192781250Y-73412500D01*
%TO.C,D6*%
X173856250Y-75812500D02*
X173856250Y-73412500D01*
X167856250Y-75812500D02*
X173856250Y-75812500D01*
X167856250Y-73412500D02*
X167856250Y-75812500D01*
X173856250Y-73412500D02*
X167856250Y-73412500D01*
X173581250Y-73412500D02*
X173581250Y-75812500D01*
X173456250Y-73412500D02*
X173456250Y-75812500D01*
X173731250Y-75812500D02*
X173731250Y-73412500D01*
%TO.C,D5*%
X116706250Y-75812500D02*
X116706250Y-73412500D01*
X110706250Y-75812500D02*
X116706250Y-75812500D01*
X110706250Y-73412500D02*
X110706250Y-75812500D01*
X116706250Y-73412500D02*
X110706250Y-73412500D01*
X116431250Y-73412500D02*
X116431250Y-75812500D01*
X116306250Y-73412500D02*
X116306250Y-75812500D01*
X116581250Y-75812500D02*
X116581250Y-73412500D01*
%TO.C,D4*%
X97656250Y-75812500D02*
X97656250Y-73412500D01*
X91656250Y-75812500D02*
X97656250Y-75812500D01*
X91656250Y-73412500D02*
X91656250Y-75812500D01*
X97656250Y-73412500D02*
X91656250Y-73412500D01*
X97381250Y-73412500D02*
X97381250Y-75812500D01*
X97256250Y-73412500D02*
X97256250Y-75812500D01*
X97531250Y-75812500D02*
X97531250Y-73412500D01*
%TO.C,D3*%
X78493750Y-75812500D02*
X78493750Y-73412500D01*
X72493750Y-75812500D02*
X78493750Y-75812500D01*
X72493750Y-73412500D02*
X72493750Y-75812500D01*
X78493750Y-73412500D02*
X72493750Y-73412500D01*
X78218750Y-73412500D02*
X78218750Y-75812500D01*
X78093750Y-73412500D02*
X78093750Y-75812500D01*
X78368750Y-75812500D02*
X78368750Y-73412500D01*
%TO.C,D2*%
X59556250Y-75812500D02*
X59556250Y-73412500D01*
X53556250Y-75812500D02*
X59556250Y-75812500D01*
X53556250Y-73412500D02*
X53556250Y-75812500D01*
X59556250Y-73412500D02*
X53556250Y-73412500D01*
X59281250Y-73412500D02*
X59281250Y-75812500D01*
X59156250Y-73412500D02*
X59156250Y-75812500D01*
X59431250Y-75812500D02*
X59431250Y-73412500D01*
%TO.C,D1*%
X40506250Y-75812500D02*
X40506250Y-73412500D01*
X34506250Y-75812500D02*
X40506250Y-75812500D01*
X34506250Y-73412500D02*
X34506250Y-75812500D01*
X40506250Y-73412500D02*
X34506250Y-73412500D01*
X40231250Y-73412500D02*
X40231250Y-75812500D01*
X40106250Y-73412500D02*
X40106250Y-75812500D01*
X40381250Y-75812500D02*
X40381250Y-73412500D01*
%TO.C,D25*%
D12*
X114477678Y-134049404D02*
X114477678Y-133249404D01*
X114287202Y-133249404D01*
X114172916Y-133287500D01*
X114096726Y-133363690D01*
X114058630Y-133439880D01*
X114020535Y-133592261D01*
X114020535Y-133706547D01*
X114058630Y-133858928D01*
X114096726Y-133935119D01*
X114172916Y-134011309D01*
X114287202Y-134049404D01*
X114477678Y-134049404D01*
X113715773Y-133325595D02*
X113677678Y-133287500D01*
X113601488Y-133249404D01*
X113411011Y-133249404D01*
X113334821Y-133287500D01*
X113296726Y-133325595D01*
X113258630Y-133401785D01*
X113258630Y-133477976D01*
X113296726Y-133592261D01*
X113753869Y-134049404D01*
X113258630Y-134049404D01*
X112534821Y-133249404D02*
X112915773Y-133249404D01*
X112953869Y-133630357D01*
X112915773Y-133592261D01*
X112839583Y-133554166D01*
X112649107Y-133554166D01*
X112572916Y-133592261D01*
X112534821Y-133630357D01*
X112496726Y-133706547D01*
X112496726Y-133897023D01*
X112534821Y-133973214D01*
X112572916Y-134011309D01*
X112649107Y-134049404D01*
X112839583Y-134049404D01*
X112915773Y-134011309D01*
X112953869Y-133973214D01*
%TO.C,MX25*%
X115268154Y-130627380D02*
X115268154Y-129627380D01*
X114934821Y-130341666D01*
X114601488Y-129627380D01*
X114601488Y-130627380D01*
X114220535Y-129627380D02*
X113553869Y-130627380D01*
X113553869Y-129627380D02*
X114220535Y-130627380D01*
X113220535Y-129722619D02*
X113172916Y-129675000D01*
X113077678Y-129627380D01*
X112839583Y-129627380D01*
X112744345Y-129675000D01*
X112696726Y-129722619D01*
X112649107Y-129817857D01*
X112649107Y-129913095D01*
X112696726Y-130055952D01*
X113268154Y-130627380D01*
X112649107Y-130627380D01*
X111744345Y-129627380D02*
X112220535Y-129627380D01*
X112268154Y-130103571D01*
X112220535Y-130055952D01*
X112125297Y-130008333D01*
X111887202Y-130008333D01*
X111791964Y-130055952D01*
X111744345Y-130103571D01*
X111696726Y-130198809D01*
X111696726Y-130436904D01*
X111744345Y-130532142D01*
X111791964Y-130579761D01*
X111887202Y-130627380D01*
X112125297Y-130627380D01*
X112220535Y-130579761D01*
X112268154Y-130532142D01*
%TO.C,MX24*%
X96218154Y-130627380D02*
X96218154Y-129627380D01*
X95884821Y-130341666D01*
X95551488Y-129627380D01*
X95551488Y-130627380D01*
X95170535Y-129627380D02*
X94503869Y-130627380D01*
X94503869Y-129627380D02*
X95170535Y-130627380D01*
X94170535Y-129722619D02*
X94122916Y-129675000D01*
X94027678Y-129627380D01*
X93789583Y-129627380D01*
X93694345Y-129675000D01*
X93646726Y-129722619D01*
X93599107Y-129817857D01*
X93599107Y-129913095D01*
X93646726Y-130055952D01*
X94218154Y-130627380D01*
X93599107Y-130627380D01*
X92741964Y-129960714D02*
X92741964Y-130627380D01*
X92980059Y-129579761D02*
X93218154Y-130294047D01*
X92599107Y-130294047D01*
%TO.C,MX23*%
X77168154Y-130627380D02*
X77168154Y-129627380D01*
X76834821Y-130341666D01*
X76501488Y-129627380D01*
X76501488Y-130627380D01*
X76120535Y-129627380D02*
X75453869Y-130627380D01*
X75453869Y-129627380D02*
X76120535Y-130627380D01*
X75120535Y-129722619D02*
X75072916Y-129675000D01*
X74977678Y-129627380D01*
X74739583Y-129627380D01*
X74644345Y-129675000D01*
X74596726Y-129722619D01*
X74549107Y-129817857D01*
X74549107Y-129913095D01*
X74596726Y-130055952D01*
X75168154Y-130627380D01*
X74549107Y-130627380D01*
X74215773Y-129627380D02*
X73596726Y-129627380D01*
X73930059Y-130008333D01*
X73787202Y-130008333D01*
X73691964Y-130055952D01*
X73644345Y-130103571D01*
X73596726Y-130198809D01*
X73596726Y-130436904D01*
X73644345Y-130532142D01*
X73691964Y-130579761D01*
X73787202Y-130627380D01*
X74072916Y-130627380D01*
X74168154Y-130579761D01*
X74215773Y-130532142D01*
%TO.C,D23*%
X76377678Y-134049404D02*
X76377678Y-133249404D01*
X76187202Y-133249404D01*
X76072916Y-133287500D01*
X75996726Y-133363690D01*
X75958630Y-133439880D01*
X75920535Y-133592261D01*
X75920535Y-133706547D01*
X75958630Y-133858928D01*
X75996726Y-133935119D01*
X76072916Y-134011309D01*
X76187202Y-134049404D01*
X76377678Y-134049404D01*
X75615773Y-133325595D02*
X75577678Y-133287500D01*
X75501488Y-133249404D01*
X75311011Y-133249404D01*
X75234821Y-133287500D01*
X75196726Y-133325595D01*
X75158630Y-133401785D01*
X75158630Y-133477976D01*
X75196726Y-133592261D01*
X75653869Y-134049404D01*
X75158630Y-134049404D01*
X74891964Y-133249404D02*
X74396726Y-133249404D01*
X74663392Y-133554166D01*
X74549107Y-133554166D01*
X74472916Y-133592261D01*
X74434821Y-133630357D01*
X74396726Y-133706547D01*
X74396726Y-133897023D01*
X74434821Y-133973214D01*
X74472916Y-134011309D01*
X74549107Y-134049404D01*
X74777678Y-134049404D01*
X74853869Y-134011309D01*
X74891964Y-133973214D01*
%TO.C,D24*%
X95427678Y-134049404D02*
X95427678Y-133249404D01*
X95237202Y-133249404D01*
X95122916Y-133287500D01*
X95046726Y-133363690D01*
X95008630Y-133439880D01*
X94970535Y-133592261D01*
X94970535Y-133706547D01*
X95008630Y-133858928D01*
X95046726Y-133935119D01*
X95122916Y-134011309D01*
X95237202Y-134049404D01*
X95427678Y-134049404D01*
X94665773Y-133325595D02*
X94627678Y-133287500D01*
X94551488Y-133249404D01*
X94361011Y-133249404D01*
X94284821Y-133287500D01*
X94246726Y-133325595D01*
X94208630Y-133401785D01*
X94208630Y-133477976D01*
X94246726Y-133592261D01*
X94703869Y-134049404D01*
X94208630Y-134049404D01*
X93522916Y-133516071D02*
X93522916Y-134049404D01*
X93713392Y-133211309D02*
X93903869Y-133782738D01*
X93408630Y-133782738D01*
%TO.C,MX28*%
X210518154Y-130627380D02*
X210518154Y-129627380D01*
X210184821Y-130341666D01*
X209851488Y-129627380D01*
X209851488Y-130627380D01*
X209470535Y-129627380D02*
X208803869Y-130627380D01*
X208803869Y-129627380D02*
X209470535Y-130627380D01*
X208470535Y-129722619D02*
X208422916Y-129675000D01*
X208327678Y-129627380D01*
X208089583Y-129627380D01*
X207994345Y-129675000D01*
X207946726Y-129722619D01*
X207899107Y-129817857D01*
X207899107Y-129913095D01*
X207946726Y-130055952D01*
X208518154Y-130627380D01*
X207899107Y-130627380D01*
X207327678Y-130055952D02*
X207422916Y-130008333D01*
X207470535Y-129960714D01*
X207518154Y-129865476D01*
X207518154Y-129817857D01*
X207470535Y-129722619D01*
X207422916Y-129675000D01*
X207327678Y-129627380D01*
X207137202Y-129627380D01*
X207041964Y-129675000D01*
X206994345Y-129722619D01*
X206946726Y-129817857D01*
X206946726Y-129865476D01*
X206994345Y-129960714D01*
X207041964Y-130008333D01*
X207137202Y-130055952D01*
X207327678Y-130055952D01*
X207422916Y-130103571D01*
X207470535Y-130151190D01*
X207518154Y-130246428D01*
X207518154Y-130436904D01*
X207470535Y-130532142D01*
X207422916Y-130579761D01*
X207327678Y-130627380D01*
X207137202Y-130627380D01*
X207041964Y-130579761D01*
X206994345Y-130532142D01*
X206946726Y-130436904D01*
X206946726Y-130246428D01*
X206994345Y-130151190D01*
X207041964Y-130103571D01*
X207137202Y-130055952D01*
%TO.C,D28*%
X209727678Y-134049404D02*
X209727678Y-133249404D01*
X209537202Y-133249404D01*
X209422916Y-133287500D01*
X209346726Y-133363690D01*
X209308630Y-133439880D01*
X209270535Y-133592261D01*
X209270535Y-133706547D01*
X209308630Y-133858928D01*
X209346726Y-133935119D01*
X209422916Y-134011309D01*
X209537202Y-134049404D01*
X209727678Y-134049404D01*
X208965773Y-133325595D02*
X208927678Y-133287500D01*
X208851488Y-133249404D01*
X208661011Y-133249404D01*
X208584821Y-133287500D01*
X208546726Y-133325595D01*
X208508630Y-133401785D01*
X208508630Y-133477976D01*
X208546726Y-133592261D01*
X209003869Y-134049404D01*
X208508630Y-134049404D01*
X208051488Y-133592261D02*
X208127678Y-133554166D01*
X208165773Y-133516071D01*
X208203869Y-133439880D01*
X208203869Y-133401785D01*
X208165773Y-133325595D01*
X208127678Y-133287500D01*
X208051488Y-133249404D01*
X207899107Y-133249404D01*
X207822916Y-133287500D01*
X207784821Y-133325595D01*
X207746726Y-133401785D01*
X207746726Y-133439880D01*
X207784821Y-133516071D01*
X207822916Y-133554166D01*
X207899107Y-133592261D01*
X208051488Y-133592261D01*
X208127678Y-133630357D01*
X208165773Y-133668452D01*
X208203869Y-133744642D01*
X208203869Y-133897023D01*
X208165773Y-133973214D01*
X208127678Y-134011309D01*
X208051488Y-134049404D01*
X207899107Y-134049404D01*
X207822916Y-134011309D01*
X207784821Y-133973214D01*
X207746726Y-133897023D01*
X207746726Y-133744642D01*
X207784821Y-133668452D01*
X207822916Y-133630357D01*
X207899107Y-133592261D01*
%TO.C,MX15*%
X96218154Y-92527380D02*
X96218154Y-91527380D01*
X95884821Y-92241666D01*
X95551488Y-91527380D01*
X95551488Y-92527380D01*
X95170535Y-91527380D02*
X94503869Y-92527380D01*
X94503869Y-91527380D02*
X95170535Y-92527380D01*
X93599107Y-92527380D02*
X94170535Y-92527380D01*
X93884821Y-92527380D02*
X93884821Y-91527380D01*
X93980059Y-91670238D01*
X94075297Y-91765476D01*
X94170535Y-91813095D01*
X92694345Y-91527380D02*
X93170535Y-91527380D01*
X93218154Y-92003571D01*
X93170535Y-91955952D01*
X93075297Y-91908333D01*
X92837202Y-91908333D01*
X92741964Y-91955952D01*
X92694345Y-92003571D01*
X92646726Y-92098809D01*
X92646726Y-92336904D01*
X92694345Y-92432142D01*
X92741964Y-92479761D01*
X92837202Y-92527380D01*
X93075297Y-92527380D01*
X93170535Y-92479761D01*
X93218154Y-92432142D01*
%TO.C,MX3*%
X76691964Y-73477380D02*
X76691964Y-72477380D01*
X76358630Y-73191666D01*
X76025297Y-72477380D01*
X76025297Y-73477380D01*
X75644345Y-72477380D02*
X74977678Y-73477380D01*
X74977678Y-72477380D02*
X75644345Y-73477380D01*
X74691964Y-72477380D02*
X74072916Y-72477380D01*
X74406250Y-72858333D01*
X74263392Y-72858333D01*
X74168154Y-72905952D01*
X74120535Y-72953571D01*
X74072916Y-73048809D01*
X74072916Y-73286904D01*
X74120535Y-73382142D01*
X74168154Y-73429761D01*
X74263392Y-73477380D01*
X74549107Y-73477380D01*
X74644345Y-73429761D01*
X74691964Y-73382142D01*
%TO.C,MX13*%
X58118154Y-92527380D02*
X58118154Y-91527380D01*
X57784821Y-92241666D01*
X57451488Y-91527380D01*
X57451488Y-92527380D01*
X57070535Y-91527380D02*
X56403869Y-92527380D01*
X56403869Y-91527380D02*
X57070535Y-92527380D01*
X55499107Y-92527380D02*
X56070535Y-92527380D01*
X55784821Y-92527380D02*
X55784821Y-91527380D01*
X55880059Y-91670238D01*
X55975297Y-91765476D01*
X56070535Y-91813095D01*
X55165773Y-91527380D02*
X54546726Y-91527380D01*
X54880059Y-91908333D01*
X54737202Y-91908333D01*
X54641964Y-91955952D01*
X54594345Y-92003571D01*
X54546726Y-92098809D01*
X54546726Y-92336904D01*
X54594345Y-92432142D01*
X54641964Y-92479761D01*
X54737202Y-92527380D01*
X55022916Y-92527380D01*
X55118154Y-92479761D01*
X55165773Y-92432142D01*
%TO.C,MX12*%
X39068154Y-92527380D02*
X39068154Y-91527380D01*
X38734821Y-92241666D01*
X38401488Y-91527380D01*
X38401488Y-92527380D01*
X38020535Y-91527380D02*
X37353869Y-92527380D01*
X37353869Y-91527380D02*
X38020535Y-92527380D01*
X36449107Y-92527380D02*
X37020535Y-92527380D01*
X36734821Y-92527380D02*
X36734821Y-91527380D01*
X36830059Y-91670238D01*
X36925297Y-91765476D01*
X37020535Y-91813095D01*
X36068154Y-91622619D02*
X36020535Y-91575000D01*
X35925297Y-91527380D01*
X35687202Y-91527380D01*
X35591964Y-91575000D01*
X35544345Y-91622619D01*
X35496726Y-91717857D01*
X35496726Y-91813095D01*
X35544345Y-91955952D01*
X36115773Y-92527380D01*
X35496726Y-92527380D01*
%TO.C,MX1*%
X38591964Y-73477380D02*
X38591964Y-72477380D01*
X38258630Y-73191666D01*
X37925297Y-72477380D01*
X37925297Y-73477380D01*
X37544345Y-72477380D02*
X36877678Y-73477380D01*
X36877678Y-72477380D02*
X37544345Y-73477380D01*
X35972916Y-73477380D02*
X36544345Y-73477380D01*
X36258630Y-73477380D02*
X36258630Y-72477380D01*
X36353869Y-72620238D01*
X36449107Y-72715476D01*
X36544345Y-72763095D01*
%TO.C,MX16*%
X115268154Y-92527380D02*
X115268154Y-91527380D01*
X114934821Y-92241666D01*
X114601488Y-91527380D01*
X114601488Y-92527380D01*
X114220535Y-91527380D02*
X113553869Y-92527380D01*
X113553869Y-91527380D02*
X114220535Y-92527380D01*
X112649107Y-92527380D02*
X113220535Y-92527380D01*
X112934821Y-92527380D02*
X112934821Y-91527380D01*
X113030059Y-91670238D01*
X113125297Y-91765476D01*
X113220535Y-91813095D01*
X111791964Y-91527380D02*
X111982440Y-91527380D01*
X112077678Y-91575000D01*
X112125297Y-91622619D01*
X112220535Y-91765476D01*
X112268154Y-91955952D01*
X112268154Y-92336904D01*
X112220535Y-92432142D01*
X112172916Y-92479761D01*
X112077678Y-92527380D01*
X111887202Y-92527380D01*
X111791964Y-92479761D01*
X111744345Y-92432142D01*
X111696726Y-92336904D01*
X111696726Y-92098809D01*
X111744345Y-92003571D01*
X111791964Y-91955952D01*
X111887202Y-91908333D01*
X112077678Y-91908333D01*
X112172916Y-91955952D01*
X112220535Y-92003571D01*
X112268154Y-92098809D01*
%TO.C,MX5*%
X114791964Y-73477380D02*
X114791964Y-72477380D01*
X114458630Y-73191666D01*
X114125297Y-72477380D01*
X114125297Y-73477380D01*
X113744345Y-72477380D02*
X113077678Y-73477380D01*
X113077678Y-72477380D02*
X113744345Y-73477380D01*
X112220535Y-72477380D02*
X112696726Y-72477380D01*
X112744345Y-72953571D01*
X112696726Y-72905952D01*
X112601488Y-72858333D01*
X112363392Y-72858333D01*
X112268154Y-72905952D01*
X112220535Y-72953571D01*
X112172916Y-73048809D01*
X112172916Y-73286904D01*
X112220535Y-73382142D01*
X112268154Y-73429761D01*
X112363392Y-73477380D01*
X112601488Y-73477380D01*
X112696726Y-73429761D01*
X112744345Y-73382142D01*
%TO.C,U1*%
X147843598Y-63379404D02*
X147386455Y-63379404D01*
X147615026Y-64179404D02*
X147615026Y-63379404D01*
X147195979Y-63379404D02*
X146662645Y-64179404D01*
X146662645Y-63379404D02*
X147195979Y-64179404D01*
X146205502Y-63379404D02*
X146129312Y-63379404D01*
X146053122Y-63417500D01*
X146015026Y-63455595D01*
X145976931Y-63531785D01*
X145938836Y-63684166D01*
X145938836Y-63874642D01*
X145976931Y-64027023D01*
X146015026Y-64103214D01*
X146053122Y-64141309D01*
X146129312Y-64179404D01*
X146205502Y-64179404D01*
X146281693Y-64141309D01*
X146319788Y-64103214D01*
X146357883Y-64027023D01*
X146395979Y-63874642D01*
X146395979Y-63684166D01*
X146357883Y-63531785D01*
X146319788Y-63455595D01*
X146281693Y-63417500D01*
X146205502Y-63379404D01*
X145024550Y-63341309D02*
X145710264Y-64369880D01*
X144757883Y-64179404D02*
X144757883Y-63379404D01*
X144567407Y-63379404D01*
X144453122Y-63417500D01*
X144376931Y-63493690D01*
X144338836Y-63569880D01*
X144300741Y-63722261D01*
X144300741Y-63836547D01*
X144338836Y-63988928D01*
X144376931Y-64065119D01*
X144453122Y-64141309D01*
X144567407Y-64179404D01*
X144757883Y-64179404D01*
X144034074Y-63379404D02*
X143538836Y-63379404D01*
X143805502Y-63684166D01*
X143691217Y-63684166D01*
X143615026Y-63722261D01*
X143576931Y-63760357D01*
X143538836Y-63836547D01*
X143538836Y-64027023D01*
X143576931Y-64103214D01*
X143615026Y-64141309D01*
X143691217Y-64179404D01*
X143919788Y-64179404D01*
X143995979Y-64141309D01*
X144034074Y-64103214D01*
X148132726Y-66719404D02*
X148132726Y-65919404D01*
X147942250Y-65919404D01*
X147827964Y-65957500D01*
X147751773Y-66033690D01*
X147713678Y-66109880D01*
X147675583Y-66262261D01*
X147675583Y-66376547D01*
X147713678Y-66528928D01*
X147751773Y-66605119D01*
X147827964Y-66681309D01*
X147942250Y-66719404D01*
X148132726Y-66719404D01*
X147370821Y-65995595D02*
X147332726Y-65957500D01*
X147256535Y-65919404D01*
X147066059Y-65919404D01*
X146989869Y-65957500D01*
X146951773Y-65995595D01*
X146913678Y-66071785D01*
X146913678Y-66147976D01*
X146951773Y-66262261D01*
X147408916Y-66719404D01*
X146913678Y-66719404D01*
X148132726Y-76879404D02*
X148132726Y-76079404D01*
X147942250Y-76079404D01*
X147827964Y-76117500D01*
X147751773Y-76193690D01*
X147713678Y-76269880D01*
X147675583Y-76422261D01*
X147675583Y-76536547D01*
X147713678Y-76688928D01*
X147751773Y-76765119D01*
X147827964Y-76841309D01*
X147942250Y-76879404D01*
X148132726Y-76879404D01*
X147180345Y-76079404D02*
X147104154Y-76079404D01*
X147027964Y-76117500D01*
X146989869Y-76155595D01*
X146951773Y-76231785D01*
X146913678Y-76384166D01*
X146913678Y-76574642D01*
X146951773Y-76727023D01*
X146989869Y-76803214D01*
X147027964Y-76841309D01*
X147104154Y-76879404D01*
X147180345Y-76879404D01*
X147256535Y-76841309D01*
X147294630Y-76803214D01*
X147332726Y-76727023D01*
X147370821Y-76574642D01*
X147370821Y-76384166D01*
X147332726Y-76231785D01*
X147294630Y-76155595D01*
X147256535Y-76117500D01*
X147180345Y-76079404D01*
X148132726Y-74339404D02*
X148132726Y-73539404D01*
X147942250Y-73539404D01*
X147827964Y-73577500D01*
X147751773Y-73653690D01*
X147713678Y-73729880D01*
X147675583Y-73882261D01*
X147675583Y-73996547D01*
X147713678Y-74148928D01*
X147751773Y-74225119D01*
X147827964Y-74301309D01*
X147942250Y-74339404D01*
X148132726Y-74339404D01*
X146913678Y-74339404D02*
X147370821Y-74339404D01*
X147142250Y-74339404D02*
X147142250Y-73539404D01*
X147218440Y-73653690D01*
X147294630Y-73729880D01*
X147370821Y-73767976D01*
X148151773Y-71037500D02*
X148227964Y-70999404D01*
X148342250Y-70999404D01*
X148456535Y-71037500D01*
X148532726Y-71113690D01*
X148570821Y-71189880D01*
X148608916Y-71342261D01*
X148608916Y-71456547D01*
X148570821Y-71608928D01*
X148532726Y-71685119D01*
X148456535Y-71761309D01*
X148342250Y-71799404D01*
X148266059Y-71799404D01*
X148151773Y-71761309D01*
X148113678Y-71723214D01*
X148113678Y-71456547D01*
X148266059Y-71456547D01*
X147770821Y-71799404D02*
X147770821Y-70999404D01*
X147313678Y-71799404D01*
X147313678Y-70999404D01*
X146932726Y-71799404D02*
X146932726Y-70999404D01*
X146742250Y-70999404D01*
X146627964Y-71037500D01*
X146551773Y-71113690D01*
X146513678Y-71189880D01*
X146475583Y-71342261D01*
X146475583Y-71456547D01*
X146513678Y-71608928D01*
X146551773Y-71685119D01*
X146627964Y-71761309D01*
X146742250Y-71799404D01*
X146932726Y-71799404D01*
X148151773Y-68497500D02*
X148227964Y-68459404D01*
X148342250Y-68459404D01*
X148456535Y-68497500D01*
X148532726Y-68573690D01*
X148570821Y-68649880D01*
X148608916Y-68802261D01*
X148608916Y-68916547D01*
X148570821Y-69068928D01*
X148532726Y-69145119D01*
X148456535Y-69221309D01*
X148342250Y-69259404D01*
X148266059Y-69259404D01*
X148151773Y-69221309D01*
X148113678Y-69183214D01*
X148113678Y-68916547D01*
X148266059Y-68916547D01*
X147770821Y-69259404D02*
X147770821Y-68459404D01*
X147313678Y-69259404D01*
X147313678Y-68459404D01*
X146932726Y-69259404D02*
X146932726Y-68459404D01*
X146742250Y-68459404D01*
X146627964Y-68497500D01*
X146551773Y-68573690D01*
X146513678Y-68649880D01*
X146475583Y-68802261D01*
X146475583Y-68916547D01*
X146513678Y-69068928D01*
X146551773Y-69145119D01*
X146627964Y-69221309D01*
X146742250Y-69259404D01*
X146932726Y-69259404D01*
X148132726Y-79419404D02*
X148132726Y-78619404D01*
X147942250Y-78619404D01*
X147827964Y-78657500D01*
X147751773Y-78733690D01*
X147713678Y-78809880D01*
X147675583Y-78962261D01*
X147675583Y-79076547D01*
X147713678Y-79228928D01*
X147751773Y-79305119D01*
X147827964Y-79381309D01*
X147942250Y-79419404D01*
X148132726Y-79419404D01*
X146989869Y-78886071D02*
X146989869Y-79419404D01*
X147180345Y-78581309D02*
X147370821Y-79152738D01*
X146875583Y-79152738D01*
X147675583Y-81883214D02*
X147713678Y-81921309D01*
X147827964Y-81959404D01*
X147904154Y-81959404D01*
X148018440Y-81921309D01*
X148094630Y-81845119D01*
X148132726Y-81768928D01*
X148170821Y-81616547D01*
X148170821Y-81502261D01*
X148132726Y-81349880D01*
X148094630Y-81273690D01*
X148018440Y-81197500D01*
X147904154Y-81159404D01*
X147827964Y-81159404D01*
X147713678Y-81197500D01*
X147675583Y-81235595D01*
X146989869Y-81159404D02*
X147142250Y-81159404D01*
X147218440Y-81197500D01*
X147256535Y-81235595D01*
X147332726Y-81349880D01*
X147370821Y-81502261D01*
X147370821Y-81807023D01*
X147332726Y-81883214D01*
X147294630Y-81921309D01*
X147218440Y-81959404D01*
X147066059Y-81959404D01*
X146989869Y-81921309D01*
X146951773Y-81883214D01*
X146913678Y-81807023D01*
X146913678Y-81616547D01*
X146951773Y-81540357D01*
X146989869Y-81502261D01*
X147066059Y-81464166D01*
X147218440Y-81464166D01*
X147294630Y-81502261D01*
X147332726Y-81540357D01*
X147370821Y-81616547D01*
X148132726Y-84499404D02*
X148132726Y-83699404D01*
X147942250Y-83699404D01*
X147827964Y-83737500D01*
X147751773Y-83813690D01*
X147713678Y-83889880D01*
X147675583Y-84042261D01*
X147675583Y-84156547D01*
X147713678Y-84308928D01*
X147751773Y-84385119D01*
X147827964Y-84461309D01*
X147942250Y-84499404D01*
X148132726Y-84499404D01*
X147408916Y-83699404D02*
X146875583Y-83699404D01*
X147218440Y-84499404D01*
X148094630Y-86620357D02*
X147827964Y-86620357D01*
X147713678Y-87039404D02*
X148094630Y-87039404D01*
X148094630Y-86239404D01*
X147713678Y-86239404D01*
X147027964Y-86239404D02*
X147180345Y-86239404D01*
X147256535Y-86277500D01*
X147294630Y-86315595D01*
X147370821Y-86429880D01*
X147408916Y-86582261D01*
X147408916Y-86887023D01*
X147370821Y-86963214D01*
X147332726Y-87001309D01*
X147256535Y-87039404D01*
X147104154Y-87039404D01*
X147027964Y-87001309D01*
X146989869Y-86963214D01*
X146951773Y-86887023D01*
X146951773Y-86696547D01*
X146989869Y-86620357D01*
X147027964Y-86582261D01*
X147104154Y-86544166D01*
X147256535Y-86544166D01*
X147332726Y-86582261D01*
X147370821Y-86620357D01*
X147408916Y-86696547D01*
X147866059Y-89160357D02*
X147751773Y-89198452D01*
X147713678Y-89236547D01*
X147675583Y-89312738D01*
X147675583Y-89427023D01*
X147713678Y-89503214D01*
X147751773Y-89541309D01*
X147827964Y-89579404D01*
X148132726Y-89579404D01*
X148132726Y-88779404D01*
X147866059Y-88779404D01*
X147789869Y-88817500D01*
X147751773Y-88855595D01*
X147713678Y-88931785D01*
X147713678Y-89007976D01*
X147751773Y-89084166D01*
X147789869Y-89122261D01*
X147866059Y-89160357D01*
X148132726Y-89160357D01*
X146989869Y-89046071D02*
X146989869Y-89579404D01*
X147180345Y-88741309D02*
X147370821Y-89312738D01*
X146875583Y-89312738D01*
X147866059Y-91700357D02*
X147751773Y-91738452D01*
X147713678Y-91776547D01*
X147675583Y-91852738D01*
X147675583Y-91967023D01*
X147713678Y-92043214D01*
X147751773Y-92081309D01*
X147827964Y-92119404D01*
X148132726Y-92119404D01*
X148132726Y-91319404D01*
X147866059Y-91319404D01*
X147789869Y-91357500D01*
X147751773Y-91395595D01*
X147713678Y-91471785D01*
X147713678Y-91547976D01*
X147751773Y-91624166D01*
X147789869Y-91662261D01*
X147866059Y-91700357D01*
X148132726Y-91700357D01*
X146951773Y-91319404D02*
X147332726Y-91319404D01*
X147370821Y-91700357D01*
X147332726Y-91662261D01*
X147256535Y-91624166D01*
X147066059Y-91624166D01*
X146989869Y-91662261D01*
X146951773Y-91700357D01*
X146913678Y-91776547D01*
X146913678Y-91967023D01*
X146951773Y-92043214D01*
X146989869Y-92081309D01*
X147066059Y-92119404D01*
X147256535Y-92119404D01*
X147332726Y-92081309D01*
X147370821Y-92043214D01*
X136944059Y-91700357D02*
X136829773Y-91738452D01*
X136791678Y-91776547D01*
X136753583Y-91852738D01*
X136753583Y-91967023D01*
X136791678Y-92043214D01*
X136829773Y-92081309D01*
X136905964Y-92119404D01*
X137210726Y-92119404D01*
X137210726Y-91319404D01*
X136944059Y-91319404D01*
X136867869Y-91357500D01*
X136829773Y-91395595D01*
X136791678Y-91471785D01*
X136791678Y-91547976D01*
X136829773Y-91624166D01*
X136867869Y-91662261D01*
X136944059Y-91700357D01*
X137210726Y-91700357D01*
X136067869Y-91319404D02*
X136220250Y-91319404D01*
X136296440Y-91357500D01*
X136334535Y-91395595D01*
X136410726Y-91509880D01*
X136448821Y-91662261D01*
X136448821Y-91967023D01*
X136410726Y-92043214D01*
X136372630Y-92081309D01*
X136296440Y-92119404D01*
X136144059Y-92119404D01*
X136067869Y-92081309D01*
X136029773Y-92043214D01*
X135991678Y-91967023D01*
X135991678Y-91776547D01*
X136029773Y-91700357D01*
X136067869Y-91662261D01*
X136144059Y-91624166D01*
X136296440Y-91624166D01*
X136372630Y-91662261D01*
X136410726Y-91700357D01*
X136448821Y-91776547D01*
X136944059Y-86620357D02*
X136829773Y-86658452D01*
X136791678Y-86696547D01*
X136753583Y-86772738D01*
X136753583Y-86887023D01*
X136791678Y-86963214D01*
X136829773Y-87001309D01*
X136905964Y-87039404D01*
X137210726Y-87039404D01*
X137210726Y-86239404D01*
X136944059Y-86239404D01*
X136867869Y-86277500D01*
X136829773Y-86315595D01*
X136791678Y-86391785D01*
X136791678Y-86467976D01*
X136829773Y-86544166D01*
X136867869Y-86582261D01*
X136944059Y-86620357D01*
X137210726Y-86620357D01*
X136486916Y-86239404D02*
X135991678Y-86239404D01*
X136258345Y-86544166D01*
X136144059Y-86544166D01*
X136067869Y-86582261D01*
X136029773Y-86620357D01*
X135991678Y-86696547D01*
X135991678Y-86887023D01*
X136029773Y-86963214D01*
X136067869Y-87001309D01*
X136144059Y-87039404D01*
X136372630Y-87039404D01*
X136448821Y-87001309D01*
X136486916Y-86963214D01*
X136944059Y-84080357D02*
X136829773Y-84118452D01*
X136791678Y-84156547D01*
X136753583Y-84232738D01*
X136753583Y-84347023D01*
X136791678Y-84423214D01*
X136829773Y-84461309D01*
X136905964Y-84499404D01*
X137210726Y-84499404D01*
X137210726Y-83699404D01*
X136944059Y-83699404D01*
X136867869Y-83737500D01*
X136829773Y-83775595D01*
X136791678Y-83851785D01*
X136791678Y-83927976D01*
X136829773Y-84004166D01*
X136867869Y-84042261D01*
X136944059Y-84080357D01*
X137210726Y-84080357D01*
X135991678Y-84499404D02*
X136448821Y-84499404D01*
X136220250Y-84499404D02*
X136220250Y-83699404D01*
X136296440Y-83813690D01*
X136372630Y-83889880D01*
X136448821Y-83927976D01*
X136886916Y-73920357D02*
X137153583Y-73920357D01*
X137153583Y-74339404D02*
X137153583Y-73539404D01*
X136772630Y-73539404D01*
X136125011Y-73806071D02*
X136125011Y-74339404D01*
X136315488Y-73501309D02*
X136505964Y-74072738D01*
X136010726Y-74072738D01*
X137686916Y-70999404D02*
X137420250Y-71799404D01*
X137153583Y-70999404D01*
X136429773Y-71723214D02*
X136467869Y-71761309D01*
X136582154Y-71799404D01*
X136658345Y-71799404D01*
X136772630Y-71761309D01*
X136848821Y-71685119D01*
X136886916Y-71608928D01*
X136925011Y-71456547D01*
X136925011Y-71342261D01*
X136886916Y-71189880D01*
X136848821Y-71113690D01*
X136772630Y-71037500D01*
X136658345Y-70999404D01*
X136582154Y-70999404D01*
X136467869Y-71037500D01*
X136429773Y-71075595D01*
X135629773Y-71723214D02*
X135667869Y-71761309D01*
X135782154Y-71799404D01*
X135858345Y-71799404D01*
X135972630Y-71761309D01*
X136048821Y-71685119D01*
X136086916Y-71608928D01*
X136125011Y-71456547D01*
X136125011Y-71342261D01*
X136086916Y-71189880D01*
X136048821Y-71113690D01*
X135972630Y-71037500D01*
X135858345Y-70999404D01*
X135782154Y-70999404D01*
X135667869Y-71037500D01*
X135629773Y-71075595D01*
X136881463Y-69191309D02*
X136767177Y-69229404D01*
X136576701Y-69229404D01*
X136500510Y-69191309D01*
X136462415Y-69153214D01*
X136424320Y-69077023D01*
X136424320Y-69000833D01*
X136462415Y-68924642D01*
X136500510Y-68886547D01*
X136576701Y-68848452D01*
X136729082Y-68810357D01*
X136805272Y-68772261D01*
X136843368Y-68734166D01*
X136881463Y-68657976D01*
X136881463Y-68581785D01*
X136843368Y-68505595D01*
X136805272Y-68467500D01*
X136729082Y-68429404D01*
X136538606Y-68429404D01*
X136424320Y-68467500D01*
X136195749Y-68429404D02*
X135738606Y-68429404D01*
X135967177Y-69229404D02*
X135967177Y-68429404D01*
X137229773Y-65957500D02*
X137305964Y-65919404D01*
X137420250Y-65919404D01*
X137534535Y-65957500D01*
X137610726Y-66033690D01*
X137648821Y-66109880D01*
X137686916Y-66262261D01*
X137686916Y-66376547D01*
X137648821Y-66528928D01*
X137610726Y-66605119D01*
X137534535Y-66681309D01*
X137420250Y-66719404D01*
X137344059Y-66719404D01*
X137229773Y-66681309D01*
X137191678Y-66643214D01*
X137191678Y-66376547D01*
X137344059Y-66376547D01*
X136848821Y-66719404D02*
X136848821Y-65919404D01*
X136391678Y-66719404D01*
X136391678Y-65919404D01*
X136010726Y-66719404D02*
X136010726Y-65919404D01*
X135820250Y-65919404D01*
X135705964Y-65957500D01*
X135629773Y-66033690D01*
X135591678Y-66109880D01*
X135553583Y-66262261D01*
X135553583Y-66376547D01*
X135591678Y-66528928D01*
X135629773Y-66605119D01*
X135705964Y-66681309D01*
X135820250Y-66719404D01*
X136010726Y-66719404D01*
X137172630Y-64179404D02*
X137439297Y-63798452D01*
X137629773Y-64179404D02*
X137629773Y-63379404D01*
X137325011Y-63379404D01*
X137248821Y-63417500D01*
X137210726Y-63455595D01*
X137172630Y-63531785D01*
X137172630Y-63646071D01*
X137210726Y-63722261D01*
X137248821Y-63760357D01*
X137325011Y-63798452D01*
X137629773Y-63798452D01*
X136867869Y-63950833D02*
X136486916Y-63950833D01*
X136944059Y-64179404D02*
X136677392Y-63379404D01*
X136410726Y-64179404D01*
X136220250Y-63379404D02*
X136029773Y-64179404D01*
X135877392Y-63607976D01*
X135725011Y-64179404D01*
X135534535Y-63379404D01*
X136886916Y-76460357D02*
X137153583Y-76460357D01*
X137153583Y-76879404D02*
X137153583Y-76079404D01*
X136772630Y-76079404D01*
X136086916Y-76079404D02*
X136467869Y-76079404D01*
X136505964Y-76460357D01*
X136467869Y-76422261D01*
X136391678Y-76384166D01*
X136201202Y-76384166D01*
X136125011Y-76422261D01*
X136086916Y-76460357D01*
X136048821Y-76536547D01*
X136048821Y-76727023D01*
X136086916Y-76803214D01*
X136125011Y-76841309D01*
X136201202Y-76879404D01*
X136391678Y-76879404D01*
X136467869Y-76841309D01*
X136505964Y-76803214D01*
X136886916Y-79000357D02*
X137153583Y-79000357D01*
X137153583Y-79419404D02*
X137153583Y-78619404D01*
X136772630Y-78619404D01*
X136125011Y-78619404D02*
X136277392Y-78619404D01*
X136353583Y-78657500D01*
X136391678Y-78695595D01*
X136467869Y-78809880D01*
X136505964Y-78962261D01*
X136505964Y-79267023D01*
X136467869Y-79343214D01*
X136429773Y-79381309D01*
X136353583Y-79419404D01*
X136201202Y-79419404D01*
X136125011Y-79381309D01*
X136086916Y-79343214D01*
X136048821Y-79267023D01*
X136048821Y-79076547D01*
X136086916Y-79000357D01*
X136125011Y-78962261D01*
X136201202Y-78924166D01*
X136353583Y-78924166D01*
X136429773Y-78962261D01*
X136467869Y-79000357D01*
X136505964Y-79076547D01*
X136886916Y-81540357D02*
X137153583Y-81540357D01*
X137153583Y-81959404D02*
X137153583Y-81159404D01*
X136772630Y-81159404D01*
X136544059Y-81159404D02*
X136010726Y-81159404D01*
X136353583Y-81959404D01*
X136944059Y-89160357D02*
X136829773Y-89198452D01*
X136791678Y-89236547D01*
X136753583Y-89312738D01*
X136753583Y-89427023D01*
X136791678Y-89503214D01*
X136829773Y-89541309D01*
X136905964Y-89579404D01*
X137210726Y-89579404D01*
X137210726Y-88779404D01*
X136944059Y-88779404D01*
X136867869Y-88817500D01*
X136829773Y-88855595D01*
X136791678Y-88931785D01*
X136791678Y-89007976D01*
X136829773Y-89084166D01*
X136867869Y-89122261D01*
X136944059Y-89160357D01*
X137210726Y-89160357D01*
X136448821Y-88855595D02*
X136410726Y-88817500D01*
X136334535Y-88779404D01*
X136144059Y-88779404D01*
X136067869Y-88817500D01*
X136029773Y-88855595D01*
X135991678Y-88931785D01*
X135991678Y-89007976D01*
X136029773Y-89122261D01*
X136486916Y-89579404D01*
X135991678Y-89579404D01*
%TO.C,MX27*%
X191468154Y-130627380D02*
X191468154Y-129627380D01*
X191134821Y-130341666D01*
X190801488Y-129627380D01*
X190801488Y-130627380D01*
X190420535Y-129627380D02*
X189753869Y-130627380D01*
X189753869Y-129627380D02*
X190420535Y-130627380D01*
X189420535Y-129722619D02*
X189372916Y-129675000D01*
X189277678Y-129627380D01*
X189039583Y-129627380D01*
X188944345Y-129675000D01*
X188896726Y-129722619D01*
X188849107Y-129817857D01*
X188849107Y-129913095D01*
X188896726Y-130055952D01*
X189468154Y-130627380D01*
X188849107Y-130627380D01*
X188515773Y-129627380D02*
X187849107Y-129627380D01*
X188277678Y-130627380D01*
%TO.C,MX26*%
X172418154Y-130627380D02*
X172418154Y-129627380D01*
X172084821Y-130341666D01*
X171751488Y-129627380D01*
X171751488Y-130627380D01*
X171370535Y-129627380D02*
X170703869Y-130627380D01*
X170703869Y-129627380D02*
X171370535Y-130627380D01*
X170370535Y-129722619D02*
X170322916Y-129675000D01*
X170227678Y-129627380D01*
X169989583Y-129627380D01*
X169894345Y-129675000D01*
X169846726Y-129722619D01*
X169799107Y-129817857D01*
X169799107Y-129913095D01*
X169846726Y-130055952D01*
X170418154Y-130627380D01*
X169799107Y-130627380D01*
X168941964Y-129627380D02*
X169132440Y-129627380D01*
X169227678Y-129675000D01*
X169275297Y-129722619D01*
X169370535Y-129865476D01*
X169418154Y-130055952D01*
X169418154Y-130436904D01*
X169370535Y-130532142D01*
X169322916Y-130579761D01*
X169227678Y-130627380D01*
X169037202Y-130627380D01*
X168941964Y-130579761D01*
X168894345Y-130532142D01*
X168846726Y-130436904D01*
X168846726Y-130198809D01*
X168894345Y-130103571D01*
X168941964Y-130055952D01*
X169037202Y-130008333D01*
X169227678Y-130008333D01*
X169322916Y-130055952D01*
X169370535Y-130103571D01*
X169418154Y-130198809D01*
%TO.C,MX22*%
X267668154Y-92527380D02*
X267668154Y-91527380D01*
X267334821Y-92241666D01*
X267001488Y-91527380D01*
X267001488Y-92527380D01*
X266620535Y-91527380D02*
X265953869Y-92527380D01*
X265953869Y-91527380D02*
X266620535Y-92527380D01*
X265620535Y-91622619D02*
X265572916Y-91575000D01*
X265477678Y-91527380D01*
X265239583Y-91527380D01*
X265144345Y-91575000D01*
X265096726Y-91622619D01*
X265049107Y-91717857D01*
X265049107Y-91813095D01*
X265096726Y-91955952D01*
X265668154Y-92527380D01*
X265049107Y-92527380D01*
X264668154Y-91622619D02*
X264620535Y-91575000D01*
X264525297Y-91527380D01*
X264287202Y-91527380D01*
X264191964Y-91575000D01*
X264144345Y-91622619D01*
X264096726Y-91717857D01*
X264096726Y-91813095D01*
X264144345Y-91955952D01*
X264715773Y-92527380D01*
X264096726Y-92527380D01*
%TO.C,MX21*%
X248618154Y-92527380D02*
X248618154Y-91527380D01*
X248284821Y-92241666D01*
X247951488Y-91527380D01*
X247951488Y-92527380D01*
X247570535Y-91527380D02*
X246903869Y-92527380D01*
X246903869Y-91527380D02*
X247570535Y-92527380D01*
X246570535Y-91622619D02*
X246522916Y-91575000D01*
X246427678Y-91527380D01*
X246189583Y-91527380D01*
X246094345Y-91575000D01*
X246046726Y-91622619D01*
X245999107Y-91717857D01*
X245999107Y-91813095D01*
X246046726Y-91955952D01*
X246618154Y-92527380D01*
X245999107Y-92527380D01*
X245046726Y-92527380D02*
X245618154Y-92527380D01*
X245332440Y-92527380D02*
X245332440Y-91527380D01*
X245427678Y-91670238D01*
X245522916Y-91765476D01*
X245618154Y-91813095D01*
%TO.C,MX20*%
X229568154Y-92527380D02*
X229568154Y-91527380D01*
X229234821Y-92241666D01*
X228901488Y-91527380D01*
X228901488Y-92527380D01*
X228520535Y-91527380D02*
X227853869Y-92527380D01*
X227853869Y-91527380D02*
X228520535Y-92527380D01*
X227520535Y-91622619D02*
X227472916Y-91575000D01*
X227377678Y-91527380D01*
X227139583Y-91527380D01*
X227044345Y-91575000D01*
X226996726Y-91622619D01*
X226949107Y-91717857D01*
X226949107Y-91813095D01*
X226996726Y-91955952D01*
X227568154Y-92527380D01*
X226949107Y-92527380D01*
X226330059Y-91527380D02*
X226234821Y-91527380D01*
X226139583Y-91575000D01*
X226091964Y-91622619D01*
X226044345Y-91717857D01*
X225996726Y-91908333D01*
X225996726Y-92146428D01*
X226044345Y-92336904D01*
X226091964Y-92432142D01*
X226139583Y-92479761D01*
X226234821Y-92527380D01*
X226330059Y-92527380D01*
X226425297Y-92479761D01*
X226472916Y-92432142D01*
X226520535Y-92336904D01*
X226568154Y-92146428D01*
X226568154Y-91908333D01*
X226520535Y-91717857D01*
X226472916Y-91622619D01*
X226425297Y-91575000D01*
X226330059Y-91527380D01*
%TO.C,MX19*%
X210518154Y-92527380D02*
X210518154Y-91527380D01*
X210184821Y-92241666D01*
X209851488Y-91527380D01*
X209851488Y-92527380D01*
X209470535Y-91527380D02*
X208803869Y-92527380D01*
X208803869Y-91527380D02*
X209470535Y-92527380D01*
X207899107Y-92527380D02*
X208470535Y-92527380D01*
X208184821Y-92527380D02*
X208184821Y-91527380D01*
X208280059Y-91670238D01*
X208375297Y-91765476D01*
X208470535Y-91813095D01*
X207422916Y-92527380D02*
X207232440Y-92527380D01*
X207137202Y-92479761D01*
X207089583Y-92432142D01*
X206994345Y-92289285D01*
X206946726Y-92098809D01*
X206946726Y-91717857D01*
X206994345Y-91622619D01*
X207041964Y-91575000D01*
X207137202Y-91527380D01*
X207327678Y-91527380D01*
X207422916Y-91575000D01*
X207470535Y-91622619D01*
X207518154Y-91717857D01*
X207518154Y-91955952D01*
X207470535Y-92051190D01*
X207422916Y-92098809D01*
X207327678Y-92146428D01*
X207137202Y-92146428D01*
X207041964Y-92098809D01*
X206994345Y-92051190D01*
X206946726Y-91955952D01*
%TO.C,MX18*%
X191468154Y-92527380D02*
X191468154Y-91527380D01*
X191134821Y-92241666D01*
X190801488Y-91527380D01*
X190801488Y-92527380D01*
X190420535Y-91527380D02*
X189753869Y-92527380D01*
X189753869Y-91527380D02*
X190420535Y-92527380D01*
X188849107Y-92527380D02*
X189420535Y-92527380D01*
X189134821Y-92527380D02*
X189134821Y-91527380D01*
X189230059Y-91670238D01*
X189325297Y-91765476D01*
X189420535Y-91813095D01*
X188277678Y-91955952D02*
X188372916Y-91908333D01*
X188420535Y-91860714D01*
X188468154Y-91765476D01*
X188468154Y-91717857D01*
X188420535Y-91622619D01*
X188372916Y-91575000D01*
X188277678Y-91527380D01*
X188087202Y-91527380D01*
X187991964Y-91575000D01*
X187944345Y-91622619D01*
X187896726Y-91717857D01*
X187896726Y-91765476D01*
X187944345Y-91860714D01*
X187991964Y-91908333D01*
X188087202Y-91955952D01*
X188277678Y-91955952D01*
X188372916Y-92003571D01*
X188420535Y-92051190D01*
X188468154Y-92146428D01*
X188468154Y-92336904D01*
X188420535Y-92432142D01*
X188372916Y-92479761D01*
X188277678Y-92527380D01*
X188087202Y-92527380D01*
X187991964Y-92479761D01*
X187944345Y-92432142D01*
X187896726Y-92336904D01*
X187896726Y-92146428D01*
X187944345Y-92051190D01*
X187991964Y-92003571D01*
X188087202Y-91955952D01*
%TO.C,MX17*%
X172418154Y-92527380D02*
X172418154Y-91527380D01*
X172084821Y-92241666D01*
X171751488Y-91527380D01*
X171751488Y-92527380D01*
X171370535Y-91527380D02*
X170703869Y-92527380D01*
X170703869Y-91527380D02*
X171370535Y-92527380D01*
X169799107Y-92527380D02*
X170370535Y-92527380D01*
X170084821Y-92527380D02*
X170084821Y-91527380D01*
X170180059Y-91670238D01*
X170275297Y-91765476D01*
X170370535Y-91813095D01*
X169465773Y-91527380D02*
X168799107Y-91527380D01*
X169227678Y-92527380D01*
%TO.C,MX14*%
X77168154Y-92527380D02*
X77168154Y-91527380D01*
X76834821Y-92241666D01*
X76501488Y-91527380D01*
X76501488Y-92527380D01*
X76120535Y-91527380D02*
X75453869Y-92527380D01*
X75453869Y-91527380D02*
X76120535Y-92527380D01*
X74549107Y-92527380D02*
X75120535Y-92527380D01*
X74834821Y-92527380D02*
X74834821Y-91527380D01*
X74930059Y-91670238D01*
X75025297Y-91765476D01*
X75120535Y-91813095D01*
X73691964Y-91860714D02*
X73691964Y-92527380D01*
X73930059Y-91479761D02*
X74168154Y-92194047D01*
X73549107Y-92194047D01*
%TO.C,MX11*%
X267668154Y-73477380D02*
X267668154Y-72477380D01*
X267334821Y-73191666D01*
X267001488Y-72477380D01*
X267001488Y-73477380D01*
X266620535Y-72477380D02*
X265953869Y-73477380D01*
X265953869Y-72477380D02*
X266620535Y-73477380D01*
X265049107Y-73477380D02*
X265620535Y-73477380D01*
X265334821Y-73477380D02*
X265334821Y-72477380D01*
X265430059Y-72620238D01*
X265525297Y-72715476D01*
X265620535Y-72763095D01*
X264096726Y-73477380D02*
X264668154Y-73477380D01*
X264382440Y-73477380D02*
X264382440Y-72477380D01*
X264477678Y-72620238D01*
X264572916Y-72715476D01*
X264668154Y-72763095D01*
%TO.C,MX10*%
X248618154Y-73477380D02*
X248618154Y-72477380D01*
X248284821Y-73191666D01*
X247951488Y-72477380D01*
X247951488Y-73477380D01*
X247570535Y-72477380D02*
X246903869Y-73477380D01*
X246903869Y-72477380D02*
X247570535Y-73477380D01*
X245999107Y-73477380D02*
X246570535Y-73477380D01*
X246284821Y-73477380D02*
X246284821Y-72477380D01*
X246380059Y-72620238D01*
X246475297Y-72715476D01*
X246570535Y-72763095D01*
X245380059Y-72477380D02*
X245284821Y-72477380D01*
X245189583Y-72525000D01*
X245141964Y-72572619D01*
X245094345Y-72667857D01*
X245046726Y-72858333D01*
X245046726Y-73096428D01*
X245094345Y-73286904D01*
X245141964Y-73382142D01*
X245189583Y-73429761D01*
X245284821Y-73477380D01*
X245380059Y-73477380D01*
X245475297Y-73429761D01*
X245522916Y-73382142D01*
X245570535Y-73286904D01*
X245618154Y-73096428D01*
X245618154Y-72858333D01*
X245570535Y-72667857D01*
X245522916Y-72572619D01*
X245475297Y-72525000D01*
X245380059Y-72477380D01*
%TO.C,MX9*%
X229091964Y-73477380D02*
X229091964Y-72477380D01*
X228758630Y-73191666D01*
X228425297Y-72477380D01*
X228425297Y-73477380D01*
X228044345Y-72477380D02*
X227377678Y-73477380D01*
X227377678Y-72477380D02*
X228044345Y-73477380D01*
X226949107Y-73477380D02*
X226758630Y-73477380D01*
X226663392Y-73429761D01*
X226615773Y-73382142D01*
X226520535Y-73239285D01*
X226472916Y-73048809D01*
X226472916Y-72667857D01*
X226520535Y-72572619D01*
X226568154Y-72525000D01*
X226663392Y-72477380D01*
X226853869Y-72477380D01*
X226949107Y-72525000D01*
X226996726Y-72572619D01*
X227044345Y-72667857D01*
X227044345Y-72905952D01*
X226996726Y-73001190D01*
X226949107Y-73048809D01*
X226853869Y-73096428D01*
X226663392Y-73096428D01*
X226568154Y-73048809D01*
X226520535Y-73001190D01*
X226472916Y-72905952D01*
%TO.C,MX8*%
X210041964Y-73477380D02*
X210041964Y-72477380D01*
X209708630Y-73191666D01*
X209375297Y-72477380D01*
X209375297Y-73477380D01*
X208994345Y-72477380D02*
X208327678Y-73477380D01*
X208327678Y-72477380D02*
X208994345Y-73477380D01*
X207803869Y-72905952D02*
X207899107Y-72858333D01*
X207946726Y-72810714D01*
X207994345Y-72715476D01*
X207994345Y-72667857D01*
X207946726Y-72572619D01*
X207899107Y-72525000D01*
X207803869Y-72477380D01*
X207613392Y-72477380D01*
X207518154Y-72525000D01*
X207470535Y-72572619D01*
X207422916Y-72667857D01*
X207422916Y-72715476D01*
X207470535Y-72810714D01*
X207518154Y-72858333D01*
X207613392Y-72905952D01*
X207803869Y-72905952D01*
X207899107Y-72953571D01*
X207946726Y-73001190D01*
X207994345Y-73096428D01*
X207994345Y-73286904D01*
X207946726Y-73382142D01*
X207899107Y-73429761D01*
X207803869Y-73477380D01*
X207613392Y-73477380D01*
X207518154Y-73429761D01*
X207470535Y-73382142D01*
X207422916Y-73286904D01*
X207422916Y-73096428D01*
X207470535Y-73001190D01*
X207518154Y-72953571D01*
X207613392Y-72905952D01*
%TO.C,MX7*%
X190991964Y-73477380D02*
X190991964Y-72477380D01*
X190658630Y-73191666D01*
X190325297Y-72477380D01*
X190325297Y-73477380D01*
X189944345Y-72477380D02*
X189277678Y-73477380D01*
X189277678Y-72477380D02*
X189944345Y-73477380D01*
X188991964Y-72477380D02*
X188325297Y-72477380D01*
X188753869Y-73477380D01*
%TO.C,MX6*%
X171941964Y-73477380D02*
X171941964Y-72477380D01*
X171608630Y-73191666D01*
X171275297Y-72477380D01*
X171275297Y-73477380D01*
X170894345Y-72477380D02*
X170227678Y-73477380D01*
X170227678Y-72477380D02*
X170894345Y-73477380D01*
X169418154Y-72477380D02*
X169608630Y-72477380D01*
X169703869Y-72525000D01*
X169751488Y-72572619D01*
X169846726Y-72715476D01*
X169894345Y-72905952D01*
X169894345Y-73286904D01*
X169846726Y-73382142D01*
X169799107Y-73429761D01*
X169703869Y-73477380D01*
X169513392Y-73477380D01*
X169418154Y-73429761D01*
X169370535Y-73382142D01*
X169322916Y-73286904D01*
X169322916Y-73048809D01*
X169370535Y-72953571D01*
X169418154Y-72905952D01*
X169513392Y-72858333D01*
X169703869Y-72858333D01*
X169799107Y-72905952D01*
X169846726Y-72953571D01*
X169894345Y-73048809D01*
%TO.C,MX4*%
X95741964Y-73477380D02*
X95741964Y-72477380D01*
X95408630Y-73191666D01*
X95075297Y-72477380D01*
X95075297Y-73477380D01*
X94694345Y-72477380D02*
X94027678Y-73477380D01*
X94027678Y-72477380D02*
X94694345Y-73477380D01*
X93218154Y-72810714D02*
X93218154Y-73477380D01*
X93456250Y-72429761D02*
X93694345Y-73144047D01*
X93075297Y-73144047D01*
%TO.C,MX2*%
X57641964Y-73477380D02*
X57641964Y-72477380D01*
X57308630Y-73191666D01*
X56975297Y-72477380D01*
X56975297Y-73477380D01*
X56594345Y-72477380D02*
X55927678Y-73477380D01*
X55927678Y-72477380D02*
X56594345Y-73477380D01*
X55594345Y-72572619D02*
X55546726Y-72525000D01*
X55451488Y-72477380D01*
X55213392Y-72477380D01*
X55118154Y-72525000D01*
X55070535Y-72572619D01*
X55022916Y-72667857D01*
X55022916Y-72763095D01*
X55070535Y-72905952D01*
X55641964Y-73477380D01*
X55022916Y-73477380D01*
%TO.C,D27*%
X190677678Y-134049404D02*
X190677678Y-133249404D01*
X190487202Y-133249404D01*
X190372916Y-133287500D01*
X190296726Y-133363690D01*
X190258630Y-133439880D01*
X190220535Y-133592261D01*
X190220535Y-133706547D01*
X190258630Y-133858928D01*
X190296726Y-133935119D01*
X190372916Y-134011309D01*
X190487202Y-134049404D01*
X190677678Y-134049404D01*
X189915773Y-133325595D02*
X189877678Y-133287500D01*
X189801488Y-133249404D01*
X189611011Y-133249404D01*
X189534821Y-133287500D01*
X189496726Y-133325595D01*
X189458630Y-133401785D01*
X189458630Y-133477976D01*
X189496726Y-133592261D01*
X189953869Y-134049404D01*
X189458630Y-134049404D01*
X189191964Y-133249404D02*
X188658630Y-133249404D01*
X189001488Y-134049404D01*
%TO.C,D26*%
X171627678Y-134049404D02*
X171627678Y-133249404D01*
X171437202Y-133249404D01*
X171322916Y-133287500D01*
X171246726Y-133363690D01*
X171208630Y-133439880D01*
X171170535Y-133592261D01*
X171170535Y-133706547D01*
X171208630Y-133858928D01*
X171246726Y-133935119D01*
X171322916Y-134011309D01*
X171437202Y-134049404D01*
X171627678Y-134049404D01*
X170865773Y-133325595D02*
X170827678Y-133287500D01*
X170751488Y-133249404D01*
X170561011Y-133249404D01*
X170484821Y-133287500D01*
X170446726Y-133325595D01*
X170408630Y-133401785D01*
X170408630Y-133477976D01*
X170446726Y-133592261D01*
X170903869Y-134049404D01*
X170408630Y-134049404D01*
X169722916Y-133249404D02*
X169875297Y-133249404D01*
X169951488Y-133287500D01*
X169989583Y-133325595D01*
X170065773Y-133439880D01*
X170103869Y-133592261D01*
X170103869Y-133897023D01*
X170065773Y-133973214D01*
X170027678Y-134011309D01*
X169951488Y-134049404D01*
X169799107Y-134049404D01*
X169722916Y-134011309D01*
X169684821Y-133973214D01*
X169646726Y-133897023D01*
X169646726Y-133706547D01*
X169684821Y-133630357D01*
X169722916Y-133592261D01*
X169799107Y-133554166D01*
X169951488Y-133554166D01*
X170027678Y-133592261D01*
X170065773Y-133630357D01*
X170103869Y-133706547D01*
%TO.C,D22*%
X266877678Y-95949404D02*
X266877678Y-95149404D01*
X266687202Y-95149404D01*
X266572916Y-95187500D01*
X266496726Y-95263690D01*
X266458630Y-95339880D01*
X266420535Y-95492261D01*
X266420535Y-95606547D01*
X266458630Y-95758928D01*
X266496726Y-95835119D01*
X266572916Y-95911309D01*
X266687202Y-95949404D01*
X266877678Y-95949404D01*
X266115773Y-95225595D02*
X266077678Y-95187500D01*
X266001488Y-95149404D01*
X265811011Y-95149404D01*
X265734821Y-95187500D01*
X265696726Y-95225595D01*
X265658630Y-95301785D01*
X265658630Y-95377976D01*
X265696726Y-95492261D01*
X266153869Y-95949404D01*
X265658630Y-95949404D01*
X265353869Y-95225595D02*
X265315773Y-95187500D01*
X265239583Y-95149404D01*
X265049107Y-95149404D01*
X264972916Y-95187500D01*
X264934821Y-95225595D01*
X264896726Y-95301785D01*
X264896726Y-95377976D01*
X264934821Y-95492261D01*
X265391964Y-95949404D01*
X264896726Y-95949404D01*
%TO.C,D21*%
X247827678Y-95949404D02*
X247827678Y-95149404D01*
X247637202Y-95149404D01*
X247522916Y-95187500D01*
X247446726Y-95263690D01*
X247408630Y-95339880D01*
X247370535Y-95492261D01*
X247370535Y-95606547D01*
X247408630Y-95758928D01*
X247446726Y-95835119D01*
X247522916Y-95911309D01*
X247637202Y-95949404D01*
X247827678Y-95949404D01*
X247065773Y-95225595D02*
X247027678Y-95187500D01*
X246951488Y-95149404D01*
X246761011Y-95149404D01*
X246684821Y-95187500D01*
X246646726Y-95225595D01*
X246608630Y-95301785D01*
X246608630Y-95377976D01*
X246646726Y-95492261D01*
X247103869Y-95949404D01*
X246608630Y-95949404D01*
X245846726Y-95949404D02*
X246303869Y-95949404D01*
X246075297Y-95949404D02*
X246075297Y-95149404D01*
X246151488Y-95263690D01*
X246227678Y-95339880D01*
X246303869Y-95377976D01*
%TO.C,D20*%
X228777678Y-95949404D02*
X228777678Y-95149404D01*
X228587202Y-95149404D01*
X228472916Y-95187500D01*
X228396726Y-95263690D01*
X228358630Y-95339880D01*
X228320535Y-95492261D01*
X228320535Y-95606547D01*
X228358630Y-95758928D01*
X228396726Y-95835119D01*
X228472916Y-95911309D01*
X228587202Y-95949404D01*
X228777678Y-95949404D01*
X228015773Y-95225595D02*
X227977678Y-95187500D01*
X227901488Y-95149404D01*
X227711011Y-95149404D01*
X227634821Y-95187500D01*
X227596726Y-95225595D01*
X227558630Y-95301785D01*
X227558630Y-95377976D01*
X227596726Y-95492261D01*
X228053869Y-95949404D01*
X227558630Y-95949404D01*
X227063392Y-95149404D02*
X226987202Y-95149404D01*
X226911011Y-95187500D01*
X226872916Y-95225595D01*
X226834821Y-95301785D01*
X226796726Y-95454166D01*
X226796726Y-95644642D01*
X226834821Y-95797023D01*
X226872916Y-95873214D01*
X226911011Y-95911309D01*
X226987202Y-95949404D01*
X227063392Y-95949404D01*
X227139583Y-95911309D01*
X227177678Y-95873214D01*
X227215773Y-95797023D01*
X227253869Y-95644642D01*
X227253869Y-95454166D01*
X227215773Y-95301785D01*
X227177678Y-95225595D01*
X227139583Y-95187500D01*
X227063392Y-95149404D01*
%TO.C,D19*%
X209727678Y-95949404D02*
X209727678Y-95149404D01*
X209537202Y-95149404D01*
X209422916Y-95187500D01*
X209346726Y-95263690D01*
X209308630Y-95339880D01*
X209270535Y-95492261D01*
X209270535Y-95606547D01*
X209308630Y-95758928D01*
X209346726Y-95835119D01*
X209422916Y-95911309D01*
X209537202Y-95949404D01*
X209727678Y-95949404D01*
X208508630Y-95949404D02*
X208965773Y-95949404D01*
X208737202Y-95949404D02*
X208737202Y-95149404D01*
X208813392Y-95263690D01*
X208889583Y-95339880D01*
X208965773Y-95377976D01*
X208127678Y-95949404D02*
X207975297Y-95949404D01*
X207899107Y-95911309D01*
X207861011Y-95873214D01*
X207784821Y-95758928D01*
X207746726Y-95606547D01*
X207746726Y-95301785D01*
X207784821Y-95225595D01*
X207822916Y-95187500D01*
X207899107Y-95149404D01*
X208051488Y-95149404D01*
X208127678Y-95187500D01*
X208165773Y-95225595D01*
X208203869Y-95301785D01*
X208203869Y-95492261D01*
X208165773Y-95568452D01*
X208127678Y-95606547D01*
X208051488Y-95644642D01*
X207899107Y-95644642D01*
X207822916Y-95606547D01*
X207784821Y-95568452D01*
X207746726Y-95492261D01*
%TO.C,D18*%
X190677678Y-95949404D02*
X190677678Y-95149404D01*
X190487202Y-95149404D01*
X190372916Y-95187500D01*
X190296726Y-95263690D01*
X190258630Y-95339880D01*
X190220535Y-95492261D01*
X190220535Y-95606547D01*
X190258630Y-95758928D01*
X190296726Y-95835119D01*
X190372916Y-95911309D01*
X190487202Y-95949404D01*
X190677678Y-95949404D01*
X189458630Y-95949404D02*
X189915773Y-95949404D01*
X189687202Y-95949404D02*
X189687202Y-95149404D01*
X189763392Y-95263690D01*
X189839583Y-95339880D01*
X189915773Y-95377976D01*
X189001488Y-95492261D02*
X189077678Y-95454166D01*
X189115773Y-95416071D01*
X189153869Y-95339880D01*
X189153869Y-95301785D01*
X189115773Y-95225595D01*
X189077678Y-95187500D01*
X189001488Y-95149404D01*
X188849107Y-95149404D01*
X188772916Y-95187500D01*
X188734821Y-95225595D01*
X188696726Y-95301785D01*
X188696726Y-95339880D01*
X188734821Y-95416071D01*
X188772916Y-95454166D01*
X188849107Y-95492261D01*
X189001488Y-95492261D01*
X189077678Y-95530357D01*
X189115773Y-95568452D01*
X189153869Y-95644642D01*
X189153869Y-95797023D01*
X189115773Y-95873214D01*
X189077678Y-95911309D01*
X189001488Y-95949404D01*
X188849107Y-95949404D01*
X188772916Y-95911309D01*
X188734821Y-95873214D01*
X188696726Y-95797023D01*
X188696726Y-95644642D01*
X188734821Y-95568452D01*
X188772916Y-95530357D01*
X188849107Y-95492261D01*
%TO.C,D17*%
X171627678Y-95949404D02*
X171627678Y-95149404D01*
X171437202Y-95149404D01*
X171322916Y-95187500D01*
X171246726Y-95263690D01*
X171208630Y-95339880D01*
X171170535Y-95492261D01*
X171170535Y-95606547D01*
X171208630Y-95758928D01*
X171246726Y-95835119D01*
X171322916Y-95911309D01*
X171437202Y-95949404D01*
X171627678Y-95949404D01*
X170408630Y-95949404D02*
X170865773Y-95949404D01*
X170637202Y-95949404D02*
X170637202Y-95149404D01*
X170713392Y-95263690D01*
X170789583Y-95339880D01*
X170865773Y-95377976D01*
X170141964Y-95149404D02*
X169608630Y-95149404D01*
X169951488Y-95949404D01*
%TO.C,D16*%
X114477678Y-95949404D02*
X114477678Y-95149404D01*
X114287202Y-95149404D01*
X114172916Y-95187500D01*
X114096726Y-95263690D01*
X114058630Y-95339880D01*
X114020535Y-95492261D01*
X114020535Y-95606547D01*
X114058630Y-95758928D01*
X114096726Y-95835119D01*
X114172916Y-95911309D01*
X114287202Y-95949404D01*
X114477678Y-95949404D01*
X113258630Y-95949404D02*
X113715773Y-95949404D01*
X113487202Y-95949404D02*
X113487202Y-95149404D01*
X113563392Y-95263690D01*
X113639583Y-95339880D01*
X113715773Y-95377976D01*
X112572916Y-95149404D02*
X112725297Y-95149404D01*
X112801488Y-95187500D01*
X112839583Y-95225595D01*
X112915773Y-95339880D01*
X112953869Y-95492261D01*
X112953869Y-95797023D01*
X112915773Y-95873214D01*
X112877678Y-95911309D01*
X112801488Y-95949404D01*
X112649107Y-95949404D01*
X112572916Y-95911309D01*
X112534821Y-95873214D01*
X112496726Y-95797023D01*
X112496726Y-95606547D01*
X112534821Y-95530357D01*
X112572916Y-95492261D01*
X112649107Y-95454166D01*
X112801488Y-95454166D01*
X112877678Y-95492261D01*
X112915773Y-95530357D01*
X112953869Y-95606547D01*
%TO.C,D15*%
X95427678Y-95949404D02*
X95427678Y-95149404D01*
X95237202Y-95149404D01*
X95122916Y-95187500D01*
X95046726Y-95263690D01*
X95008630Y-95339880D01*
X94970535Y-95492261D01*
X94970535Y-95606547D01*
X95008630Y-95758928D01*
X95046726Y-95835119D01*
X95122916Y-95911309D01*
X95237202Y-95949404D01*
X95427678Y-95949404D01*
X94208630Y-95949404D02*
X94665773Y-95949404D01*
X94437202Y-95949404D02*
X94437202Y-95149404D01*
X94513392Y-95263690D01*
X94589583Y-95339880D01*
X94665773Y-95377976D01*
X93484821Y-95149404D02*
X93865773Y-95149404D01*
X93903869Y-95530357D01*
X93865773Y-95492261D01*
X93789583Y-95454166D01*
X93599107Y-95454166D01*
X93522916Y-95492261D01*
X93484821Y-95530357D01*
X93446726Y-95606547D01*
X93446726Y-95797023D01*
X93484821Y-95873214D01*
X93522916Y-95911309D01*
X93599107Y-95949404D01*
X93789583Y-95949404D01*
X93865773Y-95911309D01*
X93903869Y-95873214D01*
%TO.C,D14*%
X76377678Y-95949404D02*
X76377678Y-95149404D01*
X76187202Y-95149404D01*
X76072916Y-95187500D01*
X75996726Y-95263690D01*
X75958630Y-95339880D01*
X75920535Y-95492261D01*
X75920535Y-95606547D01*
X75958630Y-95758928D01*
X75996726Y-95835119D01*
X76072916Y-95911309D01*
X76187202Y-95949404D01*
X76377678Y-95949404D01*
X75158630Y-95949404D02*
X75615773Y-95949404D01*
X75387202Y-95949404D02*
X75387202Y-95149404D01*
X75463392Y-95263690D01*
X75539583Y-95339880D01*
X75615773Y-95377976D01*
X74472916Y-95416071D02*
X74472916Y-95949404D01*
X74663392Y-95111309D02*
X74853869Y-95682738D01*
X74358630Y-95682738D01*
%TO.C,D13*%
X57327678Y-95949404D02*
X57327678Y-95149404D01*
X57137202Y-95149404D01*
X57022916Y-95187500D01*
X56946726Y-95263690D01*
X56908630Y-95339880D01*
X56870535Y-95492261D01*
X56870535Y-95606547D01*
X56908630Y-95758928D01*
X56946726Y-95835119D01*
X57022916Y-95911309D01*
X57137202Y-95949404D01*
X57327678Y-95949404D01*
X56108630Y-95949404D02*
X56565773Y-95949404D01*
X56337202Y-95949404D02*
X56337202Y-95149404D01*
X56413392Y-95263690D01*
X56489583Y-95339880D01*
X56565773Y-95377976D01*
X55841964Y-95149404D02*
X55346726Y-95149404D01*
X55613392Y-95454166D01*
X55499107Y-95454166D01*
X55422916Y-95492261D01*
X55384821Y-95530357D01*
X55346726Y-95606547D01*
X55346726Y-95797023D01*
X55384821Y-95873214D01*
X55422916Y-95911309D01*
X55499107Y-95949404D01*
X55727678Y-95949404D01*
X55803869Y-95911309D01*
X55841964Y-95873214D01*
%TO.C,D12*%
X38277678Y-95949404D02*
X38277678Y-95149404D01*
X38087202Y-95149404D01*
X37972916Y-95187500D01*
X37896726Y-95263690D01*
X37858630Y-95339880D01*
X37820535Y-95492261D01*
X37820535Y-95606547D01*
X37858630Y-95758928D01*
X37896726Y-95835119D01*
X37972916Y-95911309D01*
X38087202Y-95949404D01*
X38277678Y-95949404D01*
X37058630Y-95949404D02*
X37515773Y-95949404D01*
X37287202Y-95949404D02*
X37287202Y-95149404D01*
X37363392Y-95263690D01*
X37439583Y-95339880D01*
X37515773Y-95377976D01*
X36753869Y-95225595D02*
X36715773Y-95187500D01*
X36639583Y-95149404D01*
X36449107Y-95149404D01*
X36372916Y-95187500D01*
X36334821Y-95225595D01*
X36296726Y-95301785D01*
X36296726Y-95377976D01*
X36334821Y-95492261D01*
X36791964Y-95949404D01*
X36296726Y-95949404D01*
%TO.C,D11*%
X266877678Y-76899404D02*
X266877678Y-76099404D01*
X266687202Y-76099404D01*
X266572916Y-76137500D01*
X266496726Y-76213690D01*
X266458630Y-76289880D01*
X266420535Y-76442261D01*
X266420535Y-76556547D01*
X266458630Y-76708928D01*
X266496726Y-76785119D01*
X266572916Y-76861309D01*
X266687202Y-76899404D01*
X266877678Y-76899404D01*
X265658630Y-76899404D02*
X266115773Y-76899404D01*
X265887202Y-76899404D02*
X265887202Y-76099404D01*
X265963392Y-76213690D01*
X266039583Y-76289880D01*
X266115773Y-76327976D01*
X264896726Y-76899404D02*
X265353869Y-76899404D01*
X265125297Y-76899404D02*
X265125297Y-76099404D01*
X265201488Y-76213690D01*
X265277678Y-76289880D01*
X265353869Y-76327976D01*
%TO.C,D10*%
X247827678Y-76899404D02*
X247827678Y-76099404D01*
X247637202Y-76099404D01*
X247522916Y-76137500D01*
X247446726Y-76213690D01*
X247408630Y-76289880D01*
X247370535Y-76442261D01*
X247370535Y-76556547D01*
X247408630Y-76708928D01*
X247446726Y-76785119D01*
X247522916Y-76861309D01*
X247637202Y-76899404D01*
X247827678Y-76899404D01*
X246608630Y-76899404D02*
X247065773Y-76899404D01*
X246837202Y-76899404D02*
X246837202Y-76099404D01*
X246913392Y-76213690D01*
X246989583Y-76289880D01*
X247065773Y-76327976D01*
X246113392Y-76099404D02*
X246037202Y-76099404D01*
X245961011Y-76137500D01*
X245922916Y-76175595D01*
X245884821Y-76251785D01*
X245846726Y-76404166D01*
X245846726Y-76594642D01*
X245884821Y-76747023D01*
X245922916Y-76823214D01*
X245961011Y-76861309D01*
X246037202Y-76899404D01*
X246113392Y-76899404D01*
X246189583Y-76861309D01*
X246227678Y-76823214D01*
X246265773Y-76747023D01*
X246303869Y-76594642D01*
X246303869Y-76404166D01*
X246265773Y-76251785D01*
X246227678Y-76175595D01*
X246189583Y-76137500D01*
X246113392Y-76099404D01*
%TO.C,D9*%
X228396726Y-76899404D02*
X228396726Y-76099404D01*
X228206250Y-76099404D01*
X228091964Y-76137500D01*
X228015773Y-76213690D01*
X227977678Y-76289880D01*
X227939583Y-76442261D01*
X227939583Y-76556547D01*
X227977678Y-76708928D01*
X228015773Y-76785119D01*
X228091964Y-76861309D01*
X228206250Y-76899404D01*
X228396726Y-76899404D01*
X227558630Y-76899404D02*
X227406250Y-76899404D01*
X227330059Y-76861309D01*
X227291964Y-76823214D01*
X227215773Y-76708928D01*
X227177678Y-76556547D01*
X227177678Y-76251785D01*
X227215773Y-76175595D01*
X227253869Y-76137500D01*
X227330059Y-76099404D01*
X227482440Y-76099404D01*
X227558630Y-76137500D01*
X227596726Y-76175595D01*
X227634821Y-76251785D01*
X227634821Y-76442261D01*
X227596726Y-76518452D01*
X227558630Y-76556547D01*
X227482440Y-76594642D01*
X227330059Y-76594642D01*
X227253869Y-76556547D01*
X227215773Y-76518452D01*
X227177678Y-76442261D01*
%TO.C,D8*%
X209346726Y-76899404D02*
X209346726Y-76099404D01*
X209156250Y-76099404D01*
X209041964Y-76137500D01*
X208965773Y-76213690D01*
X208927678Y-76289880D01*
X208889583Y-76442261D01*
X208889583Y-76556547D01*
X208927678Y-76708928D01*
X208965773Y-76785119D01*
X209041964Y-76861309D01*
X209156250Y-76899404D01*
X209346726Y-76899404D01*
X208432440Y-76442261D02*
X208508630Y-76404166D01*
X208546726Y-76366071D01*
X208584821Y-76289880D01*
X208584821Y-76251785D01*
X208546726Y-76175595D01*
X208508630Y-76137500D01*
X208432440Y-76099404D01*
X208280059Y-76099404D01*
X208203869Y-76137500D01*
X208165773Y-76175595D01*
X208127678Y-76251785D01*
X208127678Y-76289880D01*
X208165773Y-76366071D01*
X208203869Y-76404166D01*
X208280059Y-76442261D01*
X208432440Y-76442261D01*
X208508630Y-76480357D01*
X208546726Y-76518452D01*
X208584821Y-76594642D01*
X208584821Y-76747023D01*
X208546726Y-76823214D01*
X208508630Y-76861309D01*
X208432440Y-76899404D01*
X208280059Y-76899404D01*
X208203869Y-76861309D01*
X208165773Y-76823214D01*
X208127678Y-76747023D01*
X208127678Y-76594642D01*
X208165773Y-76518452D01*
X208203869Y-76480357D01*
X208280059Y-76442261D01*
%TO.C,D7*%
X190296726Y-76899404D02*
X190296726Y-76099404D01*
X190106250Y-76099404D01*
X189991964Y-76137500D01*
X189915773Y-76213690D01*
X189877678Y-76289880D01*
X189839583Y-76442261D01*
X189839583Y-76556547D01*
X189877678Y-76708928D01*
X189915773Y-76785119D01*
X189991964Y-76861309D01*
X190106250Y-76899404D01*
X190296726Y-76899404D01*
X189572916Y-76099404D02*
X189039583Y-76099404D01*
X189382440Y-76899404D01*
%TO.C,D6*%
X171246726Y-76899404D02*
X171246726Y-76099404D01*
X171056250Y-76099404D01*
X170941964Y-76137500D01*
X170865773Y-76213690D01*
X170827678Y-76289880D01*
X170789583Y-76442261D01*
X170789583Y-76556547D01*
X170827678Y-76708928D01*
X170865773Y-76785119D01*
X170941964Y-76861309D01*
X171056250Y-76899404D01*
X171246726Y-76899404D01*
X170103869Y-76099404D02*
X170256250Y-76099404D01*
X170332440Y-76137500D01*
X170370535Y-76175595D01*
X170446726Y-76289880D01*
X170484821Y-76442261D01*
X170484821Y-76747023D01*
X170446726Y-76823214D01*
X170408630Y-76861309D01*
X170332440Y-76899404D01*
X170180059Y-76899404D01*
X170103869Y-76861309D01*
X170065773Y-76823214D01*
X170027678Y-76747023D01*
X170027678Y-76556547D01*
X170065773Y-76480357D01*
X170103869Y-76442261D01*
X170180059Y-76404166D01*
X170332440Y-76404166D01*
X170408630Y-76442261D01*
X170446726Y-76480357D01*
X170484821Y-76556547D01*
%TO.C,D5*%
X114096726Y-76899404D02*
X114096726Y-76099404D01*
X113906250Y-76099404D01*
X113791964Y-76137500D01*
X113715773Y-76213690D01*
X113677678Y-76289880D01*
X113639583Y-76442261D01*
X113639583Y-76556547D01*
X113677678Y-76708928D01*
X113715773Y-76785119D01*
X113791964Y-76861309D01*
X113906250Y-76899404D01*
X114096726Y-76899404D01*
X112915773Y-76099404D02*
X113296726Y-76099404D01*
X113334821Y-76480357D01*
X113296726Y-76442261D01*
X113220535Y-76404166D01*
X113030059Y-76404166D01*
X112953869Y-76442261D01*
X112915773Y-76480357D01*
X112877678Y-76556547D01*
X112877678Y-76747023D01*
X112915773Y-76823214D01*
X112953869Y-76861309D01*
X113030059Y-76899404D01*
X113220535Y-76899404D01*
X113296726Y-76861309D01*
X113334821Y-76823214D01*
%TO.C,D4*%
X95046726Y-76899404D02*
X95046726Y-76099404D01*
X94856250Y-76099404D01*
X94741964Y-76137500D01*
X94665773Y-76213690D01*
X94627678Y-76289880D01*
X94589583Y-76442261D01*
X94589583Y-76556547D01*
X94627678Y-76708928D01*
X94665773Y-76785119D01*
X94741964Y-76861309D01*
X94856250Y-76899404D01*
X95046726Y-76899404D01*
X93903869Y-76366071D02*
X93903869Y-76899404D01*
X94094345Y-76061309D02*
X94284821Y-76632738D01*
X93789583Y-76632738D01*
%TO.C,D3*%
X75884226Y-76899404D02*
X75884226Y-76099404D01*
X75693750Y-76099404D01*
X75579464Y-76137500D01*
X75503273Y-76213690D01*
X75465178Y-76289880D01*
X75427083Y-76442261D01*
X75427083Y-76556547D01*
X75465178Y-76708928D01*
X75503273Y-76785119D01*
X75579464Y-76861309D01*
X75693750Y-76899404D01*
X75884226Y-76899404D01*
X75160416Y-76099404D02*
X74665178Y-76099404D01*
X74931845Y-76404166D01*
X74817559Y-76404166D01*
X74741369Y-76442261D01*
X74703273Y-76480357D01*
X74665178Y-76556547D01*
X74665178Y-76747023D01*
X74703273Y-76823214D01*
X74741369Y-76861309D01*
X74817559Y-76899404D01*
X75046130Y-76899404D01*
X75122321Y-76861309D01*
X75160416Y-76823214D01*
%TO.C,D2*%
X56946726Y-76899404D02*
X56946726Y-76099404D01*
X56756250Y-76099404D01*
X56641964Y-76137500D01*
X56565773Y-76213690D01*
X56527678Y-76289880D01*
X56489583Y-76442261D01*
X56489583Y-76556547D01*
X56527678Y-76708928D01*
X56565773Y-76785119D01*
X56641964Y-76861309D01*
X56756250Y-76899404D01*
X56946726Y-76899404D01*
X56184821Y-76175595D02*
X56146726Y-76137500D01*
X56070535Y-76099404D01*
X55880059Y-76099404D01*
X55803869Y-76137500D01*
X55765773Y-76175595D01*
X55727678Y-76251785D01*
X55727678Y-76327976D01*
X55765773Y-76442261D01*
X56222916Y-76899404D01*
X55727678Y-76899404D01*
%TO.C,D1*%
X37896726Y-76899404D02*
X37896726Y-76099404D01*
X37706250Y-76099404D01*
X37591964Y-76137500D01*
X37515773Y-76213690D01*
X37477678Y-76289880D01*
X37439583Y-76442261D01*
X37439583Y-76556547D01*
X37477678Y-76708928D01*
X37515773Y-76785119D01*
X37591964Y-76861309D01*
X37706250Y-76899404D01*
X37896726Y-76899404D01*
X36677678Y-76899404D02*
X37134821Y-76899404D01*
X36906250Y-76899404D02*
X36906250Y-76099404D01*
X36982440Y-76213690D01*
X37058630Y-76289880D01*
X37134821Y-76327976D01*
%TD*%
M02*
