%TF.GenerationSoftware,KiCad,Pcbnew,(5.1.9)-1*%
%TF.CreationDate,2021-01-22T21:17:42-08:00*%
%TF.ProjectId,unisplit_orthosteno,756e6973-706c-4697-945f-6f7274686f73,rev?*%
%TF.SameCoordinates,Original*%
%TF.FileFunction,Legend,Top*%
%TF.FilePolarity,Positive*%
%FSLAX46Y46*%
G04 Gerber Fmt 4.6, Leading zero omitted, Abs format (unit mm)*
G04 Created by KiCad (PCBNEW (5.1.9)-1) date 2021-01-22 21:17:42*
%MOMM*%
%LPD*%
G01*
G04 APERTURE LIST*
%ADD10C,0.200000*%
%ADD11C,0.381000*%
%ADD12C,0.150000*%
G04 APERTURE END LIST*
D10*
X126605059Y-128698511D02*
X126605059Y-126698511D01*
X127366964Y-126698511D01*
X127557440Y-126793750D01*
X127652678Y-126888988D01*
X127747916Y-127079464D01*
X127747916Y-127365178D01*
X127652678Y-127555654D01*
X127557440Y-127650892D01*
X127366964Y-127746130D01*
X126605059Y-127746130D01*
X129366964Y-128603273D02*
X129176488Y-128698511D01*
X128795535Y-128698511D01*
X128605059Y-128603273D01*
X128509821Y-128412797D01*
X128509821Y-127650892D01*
X128605059Y-127460416D01*
X128795535Y-127365178D01*
X129176488Y-127365178D01*
X129366964Y-127460416D01*
X129462202Y-127650892D01*
X129462202Y-127841369D01*
X128509821Y-128031845D01*
X130033630Y-127365178D02*
X130795535Y-127365178D01*
X130319345Y-126698511D02*
X130319345Y-128412797D01*
X130414583Y-128603273D01*
X130605059Y-128698511D01*
X130795535Y-128698511D01*
X132224107Y-128603273D02*
X132033630Y-128698511D01*
X131652678Y-128698511D01*
X131462202Y-128603273D01*
X131366964Y-128412797D01*
X131366964Y-127650892D01*
X131462202Y-127460416D01*
X131652678Y-127365178D01*
X132033630Y-127365178D01*
X132224107Y-127460416D01*
X132319345Y-127650892D01*
X132319345Y-127841369D01*
X131366964Y-128031845D01*
X133176488Y-128698511D02*
X133176488Y-127365178D01*
X133176488Y-127746130D02*
X133271726Y-127555654D01*
X133366964Y-127460416D01*
X133557440Y-127365178D01*
X133747916Y-127365178D01*
X137081250Y-128508035D02*
X136986011Y-128603273D01*
X136700297Y-128698511D01*
X136509821Y-128698511D01*
X136224107Y-128603273D01*
X136033630Y-128412797D01*
X135938392Y-128222321D01*
X135843154Y-127841369D01*
X135843154Y-127555654D01*
X135938392Y-127174702D01*
X136033630Y-126984226D01*
X136224107Y-126793750D01*
X136509821Y-126698511D01*
X136700297Y-126698511D01*
X136986011Y-126793750D01*
X137081250Y-126888988D01*
X137938392Y-128508035D02*
X138033630Y-128603273D01*
X137938392Y-128698511D01*
X137843154Y-128603273D01*
X137938392Y-128508035D01*
X137938392Y-128698511D01*
X140414583Y-128698511D02*
X140414583Y-126698511D01*
X141176488Y-126698511D01*
X141366964Y-126793750D01*
X141462202Y-126888988D01*
X141557440Y-127079464D01*
X141557440Y-127365178D01*
X141462202Y-127555654D01*
X141366964Y-127650892D01*
X141176488Y-127746130D01*
X140414583Y-127746130D01*
X143271726Y-128698511D02*
X143271726Y-127650892D01*
X143176488Y-127460416D01*
X142986011Y-127365178D01*
X142605059Y-127365178D01*
X142414583Y-127460416D01*
X143271726Y-128603273D02*
X143081250Y-128698511D01*
X142605059Y-128698511D01*
X142414583Y-128603273D01*
X142319345Y-128412797D01*
X142319345Y-128222321D01*
X142414583Y-128031845D01*
X142605059Y-127936607D01*
X143081250Y-127936607D01*
X143271726Y-127841369D01*
X144224107Y-128698511D02*
X144224107Y-127365178D01*
X144224107Y-127746130D02*
X144319345Y-127555654D01*
X144414583Y-127460416D01*
X144605059Y-127365178D01*
X144795535Y-127365178D01*
X145462202Y-128698511D02*
X145462202Y-126698511D01*
X145652678Y-127936607D02*
X146224107Y-128698511D01*
X146224107Y-127365178D02*
X145462202Y-128127083D01*
X148605059Y-128698511D02*
X148605059Y-126698511D01*
X149081250Y-126698511D01*
X149366964Y-126793750D01*
X149557440Y-126984226D01*
X149652678Y-127174702D01*
X149747916Y-127555654D01*
X149747916Y-127841369D01*
X149652678Y-128222321D01*
X149557440Y-128412797D01*
X149366964Y-128603273D01*
X149081250Y-128698511D01*
X148605059Y-128698511D01*
X151366964Y-128603273D02*
X151176488Y-128698511D01*
X150795535Y-128698511D01*
X150605059Y-128603273D01*
X150509821Y-128412797D01*
X150509821Y-127650892D01*
X150605059Y-127460416D01*
X150795535Y-127365178D01*
X151176488Y-127365178D01*
X151366964Y-127460416D01*
X151462202Y-127650892D01*
X151462202Y-127841369D01*
X150509821Y-128031845D01*
X152224107Y-128603273D02*
X152414583Y-128698511D01*
X152795535Y-128698511D01*
X152986011Y-128603273D01*
X153081250Y-128412797D01*
X153081250Y-128317559D01*
X152986011Y-128127083D01*
X152795535Y-128031845D01*
X152509821Y-128031845D01*
X152319345Y-127936607D01*
X152224107Y-127746130D01*
X152224107Y-127650892D01*
X152319345Y-127460416D01*
X152509821Y-127365178D01*
X152795535Y-127365178D01*
X152986011Y-127460416D01*
X153938392Y-128698511D02*
X153938392Y-127365178D01*
X153938392Y-126698511D02*
X153843154Y-126793750D01*
X153938392Y-126888988D01*
X154033630Y-126793750D01*
X153938392Y-126698511D01*
X153938392Y-126888988D01*
X155747916Y-127365178D02*
X155747916Y-128984226D01*
X155652678Y-129174702D01*
X155557440Y-129269940D01*
X155366964Y-129365178D01*
X155081250Y-129365178D01*
X154890773Y-129269940D01*
X155747916Y-128603273D02*
X155557440Y-128698511D01*
X155176488Y-128698511D01*
X154986011Y-128603273D01*
X154890773Y-128508035D01*
X154795535Y-128317559D01*
X154795535Y-127746130D01*
X154890773Y-127555654D01*
X154986011Y-127460416D01*
X155176488Y-127365178D01*
X155557440Y-127365178D01*
X155747916Y-127460416D01*
X156700297Y-127365178D02*
X156700297Y-128698511D01*
X156700297Y-127555654D02*
X156795535Y-127460416D01*
X156986011Y-127365178D01*
X157271726Y-127365178D01*
X157462202Y-127460416D01*
X157557440Y-127650892D01*
X157557440Y-128698511D01*
D11*
%TO.C,U1*%
X148431250Y-62547500D02*
X150971250Y-62547500D01*
X133191250Y-60007500D02*
X150971250Y-60007500D01*
X150971250Y-60007500D02*
X150971250Y-93027500D01*
X150971250Y-93027500D02*
X133191250Y-93027500D01*
X133191250Y-93027500D02*
X133191250Y-60007500D01*
D12*
G36*
X136236615Y-68436530D02*
G01*
X136236615Y-68536530D01*
X135736615Y-68536530D01*
X135736615Y-68436530D01*
X136236615Y-68436530D01*
G37*
X136236615Y-68436530D02*
X136236615Y-68536530D01*
X135736615Y-68536530D01*
X135736615Y-68436530D01*
X136236615Y-68436530D01*
G36*
X136236615Y-68436530D02*
G01*
X136236615Y-68736530D01*
X136136615Y-68736530D01*
X136136615Y-68436530D01*
X136236615Y-68436530D01*
G37*
X136236615Y-68436530D02*
X136236615Y-68736530D01*
X136136615Y-68736530D01*
X136136615Y-68436530D01*
X136236615Y-68436530D01*
G36*
X136236615Y-69036530D02*
G01*
X136236615Y-69236530D01*
X136136615Y-69236530D01*
X136136615Y-69036530D01*
X136236615Y-69036530D01*
G37*
X136236615Y-69036530D02*
X136236615Y-69236530D01*
X136136615Y-69236530D01*
X136136615Y-69036530D01*
X136236615Y-69036530D01*
G36*
X135836615Y-68436530D02*
G01*
X135836615Y-69236530D01*
X135736615Y-69236530D01*
X135736615Y-68436530D01*
X135836615Y-68436530D01*
G37*
X135836615Y-68436530D02*
X135836615Y-69236530D01*
X135736615Y-69236530D01*
X135736615Y-68436530D01*
X135836615Y-68436530D01*
G36*
X136036615Y-68836530D02*
G01*
X136036615Y-68936530D01*
X135936615Y-68936530D01*
X135936615Y-68836530D01*
X136036615Y-68836530D01*
G37*
X136036615Y-68836530D02*
X136036615Y-68936530D01*
X135936615Y-68936530D01*
X135936615Y-68836530D01*
X136036615Y-68836530D01*
D11*
X148431250Y-62547500D02*
X148431250Y-65087500D01*
X148431250Y-65087500D02*
X150971250Y-65087500D01*
D12*
X136507916Y-69201309D02*
X136622202Y-69239404D01*
X136812678Y-69239404D01*
X136888869Y-69201309D01*
X136926964Y-69163214D01*
X136965059Y-69087023D01*
X136965059Y-69010833D01*
X136926964Y-68934642D01*
X136888869Y-68896547D01*
X136812678Y-68858452D01*
X136660297Y-68820357D01*
X136584107Y-68782261D01*
X136546011Y-68744166D01*
X136507916Y-68667976D01*
X136507916Y-68591785D01*
X136546011Y-68515595D01*
X136584107Y-68477500D01*
X136660297Y-68439404D01*
X136850773Y-68439404D01*
X136965059Y-68477500D01*
X137193630Y-68439404D02*
X137650773Y-68439404D01*
X137422202Y-69239404D02*
X137422202Y-68439404D01*
X143462645Y-63379404D02*
X143919788Y-63379404D01*
X143691217Y-64179404D02*
X143691217Y-63379404D01*
X144110264Y-63379404D02*
X144643598Y-64179404D01*
X144643598Y-63379404D02*
X144110264Y-64179404D01*
X145100741Y-63379404D02*
X145176931Y-63379404D01*
X145253122Y-63417500D01*
X145291217Y-63455595D01*
X145329312Y-63531785D01*
X145367407Y-63684166D01*
X145367407Y-63874642D01*
X145329312Y-64027023D01*
X145291217Y-64103214D01*
X145253122Y-64141309D01*
X145176931Y-64179404D01*
X145100741Y-64179404D01*
X145024550Y-64141309D01*
X144986455Y-64103214D01*
X144948360Y-64027023D01*
X144910264Y-63874642D01*
X144910264Y-63684166D01*
X144948360Y-63531785D01*
X144986455Y-63455595D01*
X145024550Y-63417500D01*
X145100741Y-63379404D01*
X146281693Y-63341309D02*
X145595979Y-64369880D01*
X146548360Y-64179404D02*
X146548360Y-63379404D01*
X146738836Y-63379404D01*
X146853122Y-63417500D01*
X146929312Y-63493690D01*
X146967407Y-63569880D01*
X147005502Y-63722261D01*
X147005502Y-63836547D01*
X146967407Y-63988928D01*
X146929312Y-64065119D01*
X146853122Y-64141309D01*
X146738836Y-64179404D01*
X146548360Y-64179404D01*
X147272169Y-63379404D02*
X147767407Y-63379404D01*
X147500741Y-63684166D01*
X147615026Y-63684166D01*
X147691217Y-63722261D01*
X147729312Y-63760357D01*
X147767407Y-63836547D01*
X147767407Y-64027023D01*
X147729312Y-64103214D01*
X147691217Y-64141309D01*
X147615026Y-64179404D01*
X147386455Y-64179404D01*
X147310264Y-64141309D01*
X147272169Y-64103214D01*
X136296440Y-89160357D02*
X136410726Y-89198452D01*
X136448821Y-89236547D01*
X136486916Y-89312738D01*
X136486916Y-89427023D01*
X136448821Y-89503214D01*
X136410726Y-89541309D01*
X136334535Y-89579404D01*
X136029773Y-89579404D01*
X136029773Y-88779404D01*
X136296440Y-88779404D01*
X136372630Y-88817500D01*
X136410726Y-88855595D01*
X136448821Y-88931785D01*
X136448821Y-89007976D01*
X136410726Y-89084166D01*
X136372630Y-89122261D01*
X136296440Y-89160357D01*
X136029773Y-89160357D01*
X136791678Y-88855595D02*
X136829773Y-88817500D01*
X136905964Y-88779404D01*
X137096440Y-88779404D01*
X137172630Y-88817500D01*
X137210726Y-88855595D01*
X137248821Y-88931785D01*
X137248821Y-89007976D01*
X137210726Y-89122261D01*
X136753583Y-89579404D01*
X137248821Y-89579404D01*
X136353583Y-81540357D02*
X136086916Y-81540357D01*
X136086916Y-81959404D02*
X136086916Y-81159404D01*
X136467869Y-81159404D01*
X136696440Y-81159404D02*
X137229773Y-81159404D01*
X136886916Y-81959404D01*
X136353583Y-79000357D02*
X136086916Y-79000357D01*
X136086916Y-79419404D02*
X136086916Y-78619404D01*
X136467869Y-78619404D01*
X137115488Y-78619404D02*
X136963107Y-78619404D01*
X136886916Y-78657500D01*
X136848821Y-78695595D01*
X136772630Y-78809880D01*
X136734535Y-78962261D01*
X136734535Y-79267023D01*
X136772630Y-79343214D01*
X136810726Y-79381309D01*
X136886916Y-79419404D01*
X137039297Y-79419404D01*
X137115488Y-79381309D01*
X137153583Y-79343214D01*
X137191678Y-79267023D01*
X137191678Y-79076547D01*
X137153583Y-79000357D01*
X137115488Y-78962261D01*
X137039297Y-78924166D01*
X136886916Y-78924166D01*
X136810726Y-78962261D01*
X136772630Y-79000357D01*
X136734535Y-79076547D01*
X136353583Y-76460357D02*
X136086916Y-76460357D01*
X136086916Y-76879404D02*
X136086916Y-76079404D01*
X136467869Y-76079404D01*
X137153583Y-76079404D02*
X136772630Y-76079404D01*
X136734535Y-76460357D01*
X136772630Y-76422261D01*
X136848821Y-76384166D01*
X137039297Y-76384166D01*
X137115488Y-76422261D01*
X137153583Y-76460357D01*
X137191678Y-76536547D01*
X137191678Y-76727023D01*
X137153583Y-76803214D01*
X137115488Y-76841309D01*
X137039297Y-76879404D01*
X136848821Y-76879404D01*
X136772630Y-76841309D01*
X136734535Y-76803214D01*
X136067869Y-64179404D02*
X135801202Y-63798452D01*
X135610726Y-64179404D02*
X135610726Y-63379404D01*
X135915488Y-63379404D01*
X135991678Y-63417500D01*
X136029773Y-63455595D01*
X136067869Y-63531785D01*
X136067869Y-63646071D01*
X136029773Y-63722261D01*
X135991678Y-63760357D01*
X135915488Y-63798452D01*
X135610726Y-63798452D01*
X136372630Y-63950833D02*
X136753583Y-63950833D01*
X136296440Y-64179404D02*
X136563107Y-63379404D01*
X136829773Y-64179404D01*
X137020250Y-63379404D02*
X137210726Y-64179404D01*
X137363107Y-63607976D01*
X137515488Y-64179404D01*
X137705964Y-63379404D01*
X136010726Y-65957500D02*
X135934535Y-65919404D01*
X135820250Y-65919404D01*
X135705964Y-65957500D01*
X135629773Y-66033690D01*
X135591678Y-66109880D01*
X135553583Y-66262261D01*
X135553583Y-66376547D01*
X135591678Y-66528928D01*
X135629773Y-66605119D01*
X135705964Y-66681309D01*
X135820250Y-66719404D01*
X135896440Y-66719404D01*
X136010726Y-66681309D01*
X136048821Y-66643214D01*
X136048821Y-66376547D01*
X135896440Y-66376547D01*
X136391678Y-66719404D02*
X136391678Y-65919404D01*
X136848821Y-66719404D01*
X136848821Y-65919404D01*
X137229773Y-66719404D02*
X137229773Y-65919404D01*
X137420250Y-65919404D01*
X137534535Y-65957500D01*
X137610726Y-66033690D01*
X137648821Y-66109880D01*
X137686916Y-66262261D01*
X137686916Y-66376547D01*
X137648821Y-66528928D01*
X137610726Y-66605119D01*
X137534535Y-66681309D01*
X137420250Y-66719404D01*
X137229773Y-66719404D01*
X135553583Y-70999404D02*
X135820250Y-71799404D01*
X136086916Y-70999404D01*
X136810726Y-71723214D02*
X136772630Y-71761309D01*
X136658345Y-71799404D01*
X136582154Y-71799404D01*
X136467869Y-71761309D01*
X136391678Y-71685119D01*
X136353583Y-71608928D01*
X136315488Y-71456547D01*
X136315488Y-71342261D01*
X136353583Y-71189880D01*
X136391678Y-71113690D01*
X136467869Y-71037500D01*
X136582154Y-70999404D01*
X136658345Y-70999404D01*
X136772630Y-71037500D01*
X136810726Y-71075595D01*
X137610726Y-71723214D02*
X137572630Y-71761309D01*
X137458345Y-71799404D01*
X137382154Y-71799404D01*
X137267869Y-71761309D01*
X137191678Y-71685119D01*
X137153583Y-71608928D01*
X137115488Y-71456547D01*
X137115488Y-71342261D01*
X137153583Y-71189880D01*
X137191678Y-71113690D01*
X137267869Y-71037500D01*
X137382154Y-70999404D01*
X137458345Y-70999404D01*
X137572630Y-71037500D01*
X137610726Y-71075595D01*
X136353583Y-73920357D02*
X136086916Y-73920357D01*
X136086916Y-74339404D02*
X136086916Y-73539404D01*
X136467869Y-73539404D01*
X137115488Y-73806071D02*
X137115488Y-74339404D01*
X136925011Y-73501309D02*
X136734535Y-74072738D01*
X137229773Y-74072738D01*
X136296440Y-84080357D02*
X136410726Y-84118452D01*
X136448821Y-84156547D01*
X136486916Y-84232738D01*
X136486916Y-84347023D01*
X136448821Y-84423214D01*
X136410726Y-84461309D01*
X136334535Y-84499404D01*
X136029773Y-84499404D01*
X136029773Y-83699404D01*
X136296440Y-83699404D01*
X136372630Y-83737500D01*
X136410726Y-83775595D01*
X136448821Y-83851785D01*
X136448821Y-83927976D01*
X136410726Y-84004166D01*
X136372630Y-84042261D01*
X136296440Y-84080357D01*
X136029773Y-84080357D01*
X137248821Y-84499404D02*
X136791678Y-84499404D01*
X137020250Y-84499404D02*
X137020250Y-83699404D01*
X136944059Y-83813690D01*
X136867869Y-83889880D01*
X136791678Y-83927976D01*
X136296440Y-86620357D02*
X136410726Y-86658452D01*
X136448821Y-86696547D01*
X136486916Y-86772738D01*
X136486916Y-86887023D01*
X136448821Y-86963214D01*
X136410726Y-87001309D01*
X136334535Y-87039404D01*
X136029773Y-87039404D01*
X136029773Y-86239404D01*
X136296440Y-86239404D01*
X136372630Y-86277500D01*
X136410726Y-86315595D01*
X136448821Y-86391785D01*
X136448821Y-86467976D01*
X136410726Y-86544166D01*
X136372630Y-86582261D01*
X136296440Y-86620357D01*
X136029773Y-86620357D01*
X136753583Y-86239404D02*
X137248821Y-86239404D01*
X136982154Y-86544166D01*
X137096440Y-86544166D01*
X137172630Y-86582261D01*
X137210726Y-86620357D01*
X137248821Y-86696547D01*
X137248821Y-86887023D01*
X137210726Y-86963214D01*
X137172630Y-87001309D01*
X137096440Y-87039404D01*
X136867869Y-87039404D01*
X136791678Y-87001309D01*
X136753583Y-86963214D01*
X136296440Y-91700357D02*
X136410726Y-91738452D01*
X136448821Y-91776547D01*
X136486916Y-91852738D01*
X136486916Y-91967023D01*
X136448821Y-92043214D01*
X136410726Y-92081309D01*
X136334535Y-92119404D01*
X136029773Y-92119404D01*
X136029773Y-91319404D01*
X136296440Y-91319404D01*
X136372630Y-91357500D01*
X136410726Y-91395595D01*
X136448821Y-91471785D01*
X136448821Y-91547976D01*
X136410726Y-91624166D01*
X136372630Y-91662261D01*
X136296440Y-91700357D01*
X136029773Y-91700357D01*
X137172630Y-91319404D02*
X137020250Y-91319404D01*
X136944059Y-91357500D01*
X136905964Y-91395595D01*
X136829773Y-91509880D01*
X136791678Y-91662261D01*
X136791678Y-91967023D01*
X136829773Y-92043214D01*
X136867869Y-92081309D01*
X136944059Y-92119404D01*
X137096440Y-92119404D01*
X137172630Y-92081309D01*
X137210726Y-92043214D01*
X137248821Y-91967023D01*
X137248821Y-91776547D01*
X137210726Y-91700357D01*
X137172630Y-91662261D01*
X137096440Y-91624166D01*
X136944059Y-91624166D01*
X136867869Y-91662261D01*
X136829773Y-91700357D01*
X136791678Y-91776547D01*
X147218440Y-91700357D02*
X147332726Y-91738452D01*
X147370821Y-91776547D01*
X147408916Y-91852738D01*
X147408916Y-91967023D01*
X147370821Y-92043214D01*
X147332726Y-92081309D01*
X147256535Y-92119404D01*
X146951773Y-92119404D01*
X146951773Y-91319404D01*
X147218440Y-91319404D01*
X147294630Y-91357500D01*
X147332726Y-91395595D01*
X147370821Y-91471785D01*
X147370821Y-91547976D01*
X147332726Y-91624166D01*
X147294630Y-91662261D01*
X147218440Y-91700357D01*
X146951773Y-91700357D01*
X148132726Y-91319404D02*
X147751773Y-91319404D01*
X147713678Y-91700357D01*
X147751773Y-91662261D01*
X147827964Y-91624166D01*
X148018440Y-91624166D01*
X148094630Y-91662261D01*
X148132726Y-91700357D01*
X148170821Y-91776547D01*
X148170821Y-91967023D01*
X148132726Y-92043214D01*
X148094630Y-92081309D01*
X148018440Y-92119404D01*
X147827964Y-92119404D01*
X147751773Y-92081309D01*
X147713678Y-92043214D01*
X147218440Y-89160357D02*
X147332726Y-89198452D01*
X147370821Y-89236547D01*
X147408916Y-89312738D01*
X147408916Y-89427023D01*
X147370821Y-89503214D01*
X147332726Y-89541309D01*
X147256535Y-89579404D01*
X146951773Y-89579404D01*
X146951773Y-88779404D01*
X147218440Y-88779404D01*
X147294630Y-88817500D01*
X147332726Y-88855595D01*
X147370821Y-88931785D01*
X147370821Y-89007976D01*
X147332726Y-89084166D01*
X147294630Y-89122261D01*
X147218440Y-89160357D01*
X146951773Y-89160357D01*
X148094630Y-89046071D02*
X148094630Y-89579404D01*
X147904154Y-88741309D02*
X147713678Y-89312738D01*
X148208916Y-89312738D01*
X146989869Y-86620357D02*
X147256535Y-86620357D01*
X147370821Y-87039404D02*
X146989869Y-87039404D01*
X146989869Y-86239404D01*
X147370821Y-86239404D01*
X148056535Y-86239404D02*
X147904154Y-86239404D01*
X147827964Y-86277500D01*
X147789869Y-86315595D01*
X147713678Y-86429880D01*
X147675583Y-86582261D01*
X147675583Y-86887023D01*
X147713678Y-86963214D01*
X147751773Y-87001309D01*
X147827964Y-87039404D01*
X147980345Y-87039404D01*
X148056535Y-87001309D01*
X148094630Y-86963214D01*
X148132726Y-86887023D01*
X148132726Y-86696547D01*
X148094630Y-86620357D01*
X148056535Y-86582261D01*
X147980345Y-86544166D01*
X147827964Y-86544166D01*
X147751773Y-86582261D01*
X147713678Y-86620357D01*
X147675583Y-86696547D01*
X146951773Y-84499404D02*
X146951773Y-83699404D01*
X147142250Y-83699404D01*
X147256535Y-83737500D01*
X147332726Y-83813690D01*
X147370821Y-83889880D01*
X147408916Y-84042261D01*
X147408916Y-84156547D01*
X147370821Y-84308928D01*
X147332726Y-84385119D01*
X147256535Y-84461309D01*
X147142250Y-84499404D01*
X146951773Y-84499404D01*
X147675583Y-83699404D02*
X148208916Y-83699404D01*
X147866059Y-84499404D01*
X147408916Y-81883214D02*
X147370821Y-81921309D01*
X147256535Y-81959404D01*
X147180345Y-81959404D01*
X147066059Y-81921309D01*
X146989869Y-81845119D01*
X146951773Y-81768928D01*
X146913678Y-81616547D01*
X146913678Y-81502261D01*
X146951773Y-81349880D01*
X146989869Y-81273690D01*
X147066059Y-81197500D01*
X147180345Y-81159404D01*
X147256535Y-81159404D01*
X147370821Y-81197500D01*
X147408916Y-81235595D01*
X148094630Y-81159404D02*
X147942250Y-81159404D01*
X147866059Y-81197500D01*
X147827964Y-81235595D01*
X147751773Y-81349880D01*
X147713678Y-81502261D01*
X147713678Y-81807023D01*
X147751773Y-81883214D01*
X147789869Y-81921309D01*
X147866059Y-81959404D01*
X148018440Y-81959404D01*
X148094630Y-81921309D01*
X148132726Y-81883214D01*
X148170821Y-81807023D01*
X148170821Y-81616547D01*
X148132726Y-81540357D01*
X148094630Y-81502261D01*
X148018440Y-81464166D01*
X147866059Y-81464166D01*
X147789869Y-81502261D01*
X147751773Y-81540357D01*
X147713678Y-81616547D01*
X146951773Y-79419404D02*
X146951773Y-78619404D01*
X147142250Y-78619404D01*
X147256535Y-78657500D01*
X147332726Y-78733690D01*
X147370821Y-78809880D01*
X147408916Y-78962261D01*
X147408916Y-79076547D01*
X147370821Y-79228928D01*
X147332726Y-79305119D01*
X147256535Y-79381309D01*
X147142250Y-79419404D01*
X146951773Y-79419404D01*
X148094630Y-78886071D02*
X148094630Y-79419404D01*
X147904154Y-78581309D02*
X147713678Y-79152738D01*
X148208916Y-79152738D01*
X146932726Y-68497500D02*
X146856535Y-68459404D01*
X146742250Y-68459404D01*
X146627964Y-68497500D01*
X146551773Y-68573690D01*
X146513678Y-68649880D01*
X146475583Y-68802261D01*
X146475583Y-68916547D01*
X146513678Y-69068928D01*
X146551773Y-69145119D01*
X146627964Y-69221309D01*
X146742250Y-69259404D01*
X146818440Y-69259404D01*
X146932726Y-69221309D01*
X146970821Y-69183214D01*
X146970821Y-68916547D01*
X146818440Y-68916547D01*
X147313678Y-69259404D02*
X147313678Y-68459404D01*
X147770821Y-69259404D01*
X147770821Y-68459404D01*
X148151773Y-69259404D02*
X148151773Y-68459404D01*
X148342250Y-68459404D01*
X148456535Y-68497500D01*
X148532726Y-68573690D01*
X148570821Y-68649880D01*
X148608916Y-68802261D01*
X148608916Y-68916547D01*
X148570821Y-69068928D01*
X148532726Y-69145119D01*
X148456535Y-69221309D01*
X148342250Y-69259404D01*
X148151773Y-69259404D01*
X146932726Y-71037500D02*
X146856535Y-70999404D01*
X146742250Y-70999404D01*
X146627964Y-71037500D01*
X146551773Y-71113690D01*
X146513678Y-71189880D01*
X146475583Y-71342261D01*
X146475583Y-71456547D01*
X146513678Y-71608928D01*
X146551773Y-71685119D01*
X146627964Y-71761309D01*
X146742250Y-71799404D01*
X146818440Y-71799404D01*
X146932726Y-71761309D01*
X146970821Y-71723214D01*
X146970821Y-71456547D01*
X146818440Y-71456547D01*
X147313678Y-71799404D02*
X147313678Y-70999404D01*
X147770821Y-71799404D01*
X147770821Y-70999404D01*
X148151773Y-71799404D02*
X148151773Y-70999404D01*
X148342250Y-70999404D01*
X148456535Y-71037500D01*
X148532726Y-71113690D01*
X148570821Y-71189880D01*
X148608916Y-71342261D01*
X148608916Y-71456547D01*
X148570821Y-71608928D01*
X148532726Y-71685119D01*
X148456535Y-71761309D01*
X148342250Y-71799404D01*
X148151773Y-71799404D01*
X146951773Y-74339404D02*
X146951773Y-73539404D01*
X147142250Y-73539404D01*
X147256535Y-73577500D01*
X147332726Y-73653690D01*
X147370821Y-73729880D01*
X147408916Y-73882261D01*
X147408916Y-73996547D01*
X147370821Y-74148928D01*
X147332726Y-74225119D01*
X147256535Y-74301309D01*
X147142250Y-74339404D01*
X146951773Y-74339404D01*
X148170821Y-74339404D02*
X147713678Y-74339404D01*
X147942250Y-74339404D02*
X147942250Y-73539404D01*
X147866059Y-73653690D01*
X147789869Y-73729880D01*
X147713678Y-73767976D01*
X146951773Y-76879404D02*
X146951773Y-76079404D01*
X147142250Y-76079404D01*
X147256535Y-76117500D01*
X147332726Y-76193690D01*
X147370821Y-76269880D01*
X147408916Y-76422261D01*
X147408916Y-76536547D01*
X147370821Y-76688928D01*
X147332726Y-76765119D01*
X147256535Y-76841309D01*
X147142250Y-76879404D01*
X146951773Y-76879404D01*
X147904154Y-76079404D02*
X147980345Y-76079404D01*
X148056535Y-76117500D01*
X148094630Y-76155595D01*
X148132726Y-76231785D01*
X148170821Y-76384166D01*
X148170821Y-76574642D01*
X148132726Y-76727023D01*
X148094630Y-76803214D01*
X148056535Y-76841309D01*
X147980345Y-76879404D01*
X147904154Y-76879404D01*
X147827964Y-76841309D01*
X147789869Y-76803214D01*
X147751773Y-76727023D01*
X147713678Y-76574642D01*
X147713678Y-76384166D01*
X147751773Y-76231785D01*
X147789869Y-76155595D01*
X147827964Y-76117500D01*
X147904154Y-76079404D01*
X146951773Y-66719404D02*
X146951773Y-65919404D01*
X147142250Y-65919404D01*
X147256535Y-65957500D01*
X147332726Y-66033690D01*
X147370821Y-66109880D01*
X147408916Y-66262261D01*
X147408916Y-66376547D01*
X147370821Y-66528928D01*
X147332726Y-66605119D01*
X147256535Y-66681309D01*
X147142250Y-66719404D01*
X146951773Y-66719404D01*
X147713678Y-65995595D02*
X147751773Y-65957500D01*
X147827964Y-65919404D01*
X148018440Y-65919404D01*
X148094630Y-65957500D01*
X148132726Y-65995595D01*
X148170821Y-66071785D01*
X148170821Y-66147976D01*
X148132726Y-66262261D01*
X147675583Y-66719404D01*
X148170821Y-66719404D01*
%TD*%
M02*
