M48
; DRILL file {KiCad (5.1.9)-1} date 01/23/21 16:01:38
; FORMAT={-:-/ absolute / inch / decimal}
; #@! TF.CreationDate,2021-01-23T16:01:38-08:00
; #@! TF.GenerationSoftware,Kicad,Pcbnew,(5.1.9)-1
; #@! TF.FileFunction,NonPlated,1,2,NPTH
FMAT,2
INCH
T1C0.0472
T2C0.0669
T3C0.0689
T4C0.1570
%
G90
G05
T1
X1.2632Y-2.9154
X1.2632Y-3.6654
X2.0132Y-2.9154
X2.0132Y-3.6654
X2.7632Y-2.9154
X2.7632Y-3.6654
X2.7632Y-5.1654
X3.5132Y-2.9154
X3.5132Y-3.6654
X3.5132Y-5.1654
X4.2632Y-2.9154
X4.2632Y-3.6654
X4.2632Y-5.1654
X6.5132Y-2.9154
X6.5132Y-3.6654
X6.5132Y-5.1654
X7.2632Y-2.9154
X7.2632Y-3.6654
X7.2632Y-5.1654
X8.0132Y-2.9154
X8.0132Y-3.6654
X8.0132Y-5.1654
X8.7632Y-2.9154
X8.7632Y-3.6654
X9.5132Y-2.9154
X9.5132Y-3.6654
X10.2632Y-2.9154
X10.2632Y-3.6654
T2
X1.2522Y-2.75
X1.2522Y-3.5
X1.6853Y-2.75
X1.6853Y-3.5
X2.0022Y-2.75
X2.0022Y-3.5
X2.4353Y-2.75
X2.4353Y-3.5
X2.7522Y-2.75
X2.7522Y-3.5
X2.7522Y-5.0
X3.1853Y-2.75
X3.1853Y-3.5
X3.1853Y-5.0
X3.5022Y-2.75
X3.5022Y-3.5
X3.5022Y-5.0
X3.9353Y-2.75
X3.9353Y-3.5
X3.9353Y-5.0
X4.2522Y-2.75
X4.2522Y-3.5
X4.2522Y-5.0
X4.6853Y-2.75
X4.6853Y-3.5
X4.6853Y-5.0
X6.5022Y-2.75
X6.5022Y-3.5
X6.5022Y-5.0
X6.9353Y-2.75
X6.9353Y-3.5
X6.9353Y-5.0
X7.2522Y-2.75
X7.2522Y-3.5
X7.2522Y-5.0
X7.6853Y-2.75
X7.6853Y-3.5
X7.6853Y-5.0
X8.0022Y-2.75
X8.0022Y-3.5
X8.0022Y-5.0
X8.4353Y-2.75
X8.4353Y-3.5
X8.4353Y-5.0
X8.7522Y-2.75
X8.7522Y-3.5
X9.1853Y-2.75
X9.1853Y-3.5
X9.5022Y-2.75
X9.5022Y-3.5
X9.9353Y-2.75
X9.9353Y-3.5
X10.2522Y-2.75
X10.2522Y-3.5
X10.6853Y-2.75
X10.6853Y-3.5
T3
X1.2688Y-2.75
X1.2688Y-3.5
X1.6687Y-2.75
X1.6687Y-3.5
X2.0187Y-2.75
X2.0187Y-3.5
X2.4187Y-2.75
X2.4187Y-3.5
X2.7687Y-2.75
X2.7687Y-3.5
X2.7687Y-5.0
X3.1687Y-2.75
X3.1687Y-3.5
X3.1687Y-5.0
X3.5187Y-2.75
X3.5187Y-3.5
X3.5187Y-5.0
X3.9187Y-2.75
X3.9187Y-3.5
X3.9187Y-5.0
X4.2687Y-2.75
X4.2687Y-3.5
X4.2687Y-5.0
X4.6688Y-2.75
X4.6688Y-3.5
X4.6688Y-5.0
X6.5187Y-2.75
X6.5187Y-3.5
X6.5187Y-5.0
X6.9188Y-2.75
X6.9188Y-3.5
X6.9188Y-5.0
X7.2687Y-2.75
X7.2687Y-3.5
X7.2687Y-5.0
X7.6688Y-2.75
X7.6688Y-3.5
X7.6688Y-5.0
X8.0187Y-2.75
X8.0187Y-3.5
X8.0187Y-5.0
X8.4187Y-2.75
X8.4187Y-3.5
X8.4187Y-5.0
X8.7687Y-2.75
X8.7687Y-3.5
X9.1687Y-2.75
X9.1687Y-3.5
X9.5187Y-2.75
X9.5187Y-3.5
X9.9187Y-2.75
X9.9187Y-3.5
X10.2687Y-2.75
X10.2687Y-3.5
X10.6687Y-2.75
X10.6687Y-3.5
T4
X1.4688Y-2.75
X1.4688Y-3.5
X2.2188Y-2.75
X2.2188Y-3.5
X2.9688Y-2.75
X2.9688Y-3.5
X2.9688Y-5.0
X3.7188Y-2.75
X3.7188Y-3.5
X3.7188Y-5.0
X4.4688Y-2.75
X4.4688Y-3.5
X4.4688Y-5.0
X6.7188Y-2.75
X6.7188Y-3.5
X6.7188Y-5.0
X7.4688Y-2.75
X7.4688Y-3.5
X7.4688Y-5.0
X8.2188Y-2.75
X8.2188Y-3.5
X8.2188Y-5.0
X8.9688Y-2.75
X8.9688Y-3.5
X9.7188Y-2.75
X9.7188Y-3.5
X10.4688Y-2.75
X10.4688Y-3.5
T0
M30
