<svg width="1169" height="348" viewBox="0 0 1169 348" fill="none" xmlns="http://www.w3.org/2000/svg">
<path d="M83 152.482C100.667 166.648 111.2 223.082 12 335.482L348.5 89.4817C352.833 82.315 358.9 65.0817 348.5 53.4817C335.5 38.9817 261.5 82.9817 288 112.982L475.5 116.982C443.167 163.315 408.8 240.282 530 177.482C681.5 98.9817 794 116.482 811.5 161.982C794.167 195.148 757 257.682 773 280.482C793 308.982 925.5 217.982 895 152.482C864.5 86.9817 805 181.482 798 194.982C786.702 216.771 788 295.482 856 297.482C924 299.482 979 267.982 1015.5 227.482C1052 186.982 1173.5 25.4817 1154.5 14.4817C1135.5 3.48173 1099.07 56.0626 1083.5 94.9817C1068.11 133.451 1078.5 170.148 1079 200.982" stroke="black" stroke-width="24" stroke-linecap="round" stroke-linejoin="round"/>
</svg>
