<?xml version="1.0"?>
<!DOCTYPE svg PUBLIC "-//W3C//DTD SVG 1.1//EN" "http://www.w3.org/Graphics/SVG/1.1/DTD/svg11.dtd">
<svg width="259.08mm" height="87.63000000000002mm" viewBox="0 0 259.08 87.63000000000002" xmlns="http://www.w3.org/2000/svg" version="1.1">
<g id="Sketch" transform="translate(84.462421,35.067483) scale(1,-1)">
<path id="Sketch_w0000"  d="M 117.30882873535157 -11.922517395019526 L 166.52132873535157 -11.922517395019526 A 5.55625 5.55625 0 0 1 172.078 -6.36627L 172.07757873535155 26.97123260498047 A 5.55625 5.55625 0 0 1 166.521 32.5275L -76.36617126464844 32.52748260498047 A 5.55625 5.55625 0 0 1 -81.9224 26.9712L -81.92242126464845 -6.366267395019534 A 5.55625 5.55625 0 0 1 -76.3662 -11.9225L -46.203671264648435 -11.922517395019526 A 2.38125 2.38125 0 0 0 -43.8224 -14.3038L -43.82242126464844 -44.466267395019514 A 5.55625 5.55625 0 0 1 -38.2662 -50.0225L 109.37132873535154 -50.02251739501952 A 5.55625 5.55625 0 0 1 114.928 -44.4663L 114.92757873535157 -14.303767395019563 A 2.38125 2.38125 0 0 0 117.309 -11.9225" stroke="#191919" stroke-width="0.35 px" style="stroke-width:0.35;stroke-miterlimit:4;stroke-dasharray:none;fill:none;fill-rule: evenodd "/>
<title>b'Sketch'</title>
</g>
</svg>