<?xml version="1.0"?>
<!DOCTYPE svg PUBLIC "-//W3C//DTD SVG 1.1//EN" "http://www.w3.org/Graphics/SVG/1.1/DTD/svg11.dtd">
<svg width="259.08000000000004mm" height="87.63000000000002mm" viewBox="0 0 259.08000000000004 87.63000000000002" xmlns="http://www.w3.org/2000/svg" version="1.1">
<g id="Sketch" transform="translate(-30.066250,31.390000) scale(1,-1)">
<path id="Sketch_w0000"  d="M 228.6625 -12.424999999999997 L 281.05 -12.425000000000008 A 2.38125 2.38125 0 0 1 283.431 -10.0438L 283.43125 23.293750000000024 A 2.38125 2.38125 0 0 1 281.05 25.675L 161.19375 25.67500000000001 A 1.5875 1.5875 0 1 0 161.194 28.85L 281.05 28.849999999999987 A 5.55625 5.55625 0 0 0 286.606 23.2938L 286.60625 -10.043750000000031 A 5.55625 5.55625 0 0 0 281.05 -15.6L 231.8375 -15.599999999999994 A 2.38125 2.38125 0 0 1 229.456 -17.9813L 229.45625 -48.143749999999955 A 5.55625 5.55625 0 0 0 223.9 -53.7L 76.2625 -53.70000000000002 A 5.55625 5.55625 0 0 0 70.7062 -48.1437L 70.70624999999998 -17.98124999999999 A 2.38125 2.38125 0 0 1 68.325 -15.6L 38.1625 -15.600000000000009 A 5.55625 5.55625 0 0 0 32.6062 -10.0438L 32.60625 23.293750000000017 A 5.55625 5.55625 0 0 0 38.1625 28.85L 138.96875 28.85000000000001 A 1.5875 1.5875 0 0 0 138.969 25.675L 38.1625 25.674999999999997 A 2.38125 2.38125 0 0 1 35.7813 23.2938L 35.78125 -10.043749999999989 A 2.38125 2.38125 0 0 1 38.1625 -12.425L 71.5 -12.425000000000008 A 2.38125 2.38125 0 0 0 73.8812 -14.8063L 73.88124999999998 -48.14374999999998 A 2.38125 2.38125 0 0 1 76.2625 -50.525L 223.89999999999998 -50.525000000000006 A 2.38125 2.38125 0 0 1 226.281 -48.1437L 226.28125 -14.80625000000002 A 2.38125 2.38125 0 0 0 228.662 -12.425" stroke="#191919" stroke-width="0.35 px" style="stroke-width:0.35;stroke-miterlimit:4;stroke-dasharray:none;fill:none;fill-rule: evenodd "/>
<title>b'Sketch'</title>
</g>
</svg>