G04 #@! TF.GenerationSoftware,KiCad,Pcbnew,(6.0.0-0)*
G04 #@! TF.CreationDate,2022-03-08T07:19:16-08:00*
G04 #@! TF.ProjectId,unisplit_orthosteno,756e6973-706c-4697-945f-6f7274686f73,rev?*
G04 #@! TF.SameCoordinates,Original*
G04 #@! TF.FileFunction,Soldermask,Bot*
G04 #@! TF.FilePolarity,Negative*
%FSLAX46Y46*%
G04 Gerber Fmt 4.6, Leading zero omitted, Abs format (unit mm)*
G04 Created by KiCad (PCBNEW (6.0.0-0)) date 2022-03-08 07:19:16*
%MOMM*%
%LPD*%
G01*
G04 APERTURE LIST*
G04 Aperture macros list*
%AMHorizOval*
0 Thick line with rounded ends*
0 $1 width*
0 $2 $3 position (X,Y) of the first rounded end (center of the circle)*
0 $4 $5 position (X,Y) of the second rounded end (center of the circle)*
0 Add line between two ends*
20,1,$1,$2,$3,$4,$5,0*
0 Add two circle primitives to create the rounded ends*
1,1,$1,$2,$3*
1,1,$1,$4,$5*%
G04 Aperture macros list end*
%ADD10C,0.200000*%
%ADD11C,1.700000*%
%ADD12C,3.987800*%
%ADD13C,1.200000*%
%ADD14C,1.750000*%
%ADD15HorizOval,2.250000X0.019771X0.290016X-0.019771X-0.290016X0*%
%ADD16C,2.000000*%
%ADD17C,2.250000*%
%ADD18HorizOval,2.250000X0.654995X0.730004X-0.654995X-0.730004X0*%
%ADD19C,3.800000*%
%ADD20R,1.200000X1.400000*%
%ADD21R,1.752600X1.752600*%
%ADD22C,1.752600*%
%ADD23R,1.700000X1.000000*%
G04 APERTURE END LIST*
D10*
X156763785Y-127238023D02*
X156573309Y-127333261D01*
X156192357Y-127333261D01*
X156001880Y-127238023D01*
X155906642Y-127047547D01*
X155906642Y-126952309D01*
X156001880Y-126761833D01*
X156192357Y-126666595D01*
X156478071Y-126666595D01*
X156668547Y-126571357D01*
X156763785Y-126380880D01*
X156763785Y-126285642D01*
X156668547Y-126095166D01*
X156478071Y-125999928D01*
X156192357Y-125999928D01*
X156001880Y-126095166D01*
X155335214Y-125999928D02*
X154573309Y-125999928D01*
X155049500Y-125333261D02*
X155049500Y-127047547D01*
X154954261Y-127238023D01*
X154763785Y-127333261D01*
X154573309Y-127333261D01*
X153144738Y-127238023D02*
X153335214Y-127333261D01*
X153716166Y-127333261D01*
X153906642Y-127238023D01*
X154001880Y-127047547D01*
X154001880Y-126285642D01*
X153906642Y-126095166D01*
X153716166Y-125999928D01*
X153335214Y-125999928D01*
X153144738Y-126095166D01*
X153049500Y-126285642D01*
X153049500Y-126476119D01*
X154001880Y-126666595D01*
X152192357Y-125999928D02*
X152192357Y-127333261D01*
X152192357Y-126190404D02*
X152097119Y-126095166D01*
X151906642Y-125999928D01*
X151620928Y-125999928D01*
X151430452Y-126095166D01*
X151335214Y-126285642D01*
X151335214Y-127333261D01*
X150097119Y-127333261D02*
X150287595Y-127238023D01*
X150382833Y-127142785D01*
X150478071Y-126952309D01*
X150478071Y-126380880D01*
X150382833Y-126190404D01*
X150287595Y-126095166D01*
X150097119Y-125999928D01*
X149811404Y-125999928D01*
X149620928Y-126095166D01*
X149525690Y-126190404D01*
X149430452Y-126380880D01*
X149430452Y-126952309D01*
X149525690Y-127142785D01*
X149620928Y-127238023D01*
X149811404Y-127333261D01*
X150097119Y-127333261D01*
X148573309Y-127333261D02*
X148573309Y-125333261D01*
X148382833Y-126571357D02*
X147811404Y-127333261D01*
X147811404Y-125999928D02*
X148573309Y-126761833D01*
X146192357Y-127238023D02*
X146382833Y-127333261D01*
X146763785Y-127333261D01*
X146954261Y-127238023D01*
X147049500Y-127047547D01*
X147049500Y-126285642D01*
X146954261Y-126095166D01*
X146763785Y-125999928D01*
X146382833Y-125999928D01*
X146192357Y-126095166D01*
X146097119Y-126285642D01*
X146097119Y-126476119D01*
X147049500Y-126666595D01*
X145430452Y-125999928D02*
X144954261Y-127333261D01*
X144478071Y-125999928D02*
X144954261Y-127333261D01*
X145144738Y-127809452D01*
X145239976Y-127904690D01*
X145430452Y-127999928D01*
X143716166Y-127333261D02*
X143716166Y-125333261D01*
X143716166Y-126095166D02*
X143525690Y-125999928D01*
X143144738Y-125999928D01*
X142954261Y-126095166D01*
X142859023Y-126190404D01*
X142763785Y-126380880D01*
X142763785Y-126952309D01*
X142859023Y-127142785D01*
X142954261Y-127238023D01*
X143144738Y-127333261D01*
X143525690Y-127333261D01*
X143716166Y-127238023D01*
X141620928Y-127333261D02*
X141811404Y-127238023D01*
X141906642Y-127142785D01*
X142001880Y-126952309D01*
X142001880Y-126380880D01*
X141906642Y-126190404D01*
X141811404Y-126095166D01*
X141620928Y-125999928D01*
X141335214Y-125999928D01*
X141144738Y-126095166D01*
X141049500Y-126190404D01*
X140954261Y-126380880D01*
X140954261Y-126952309D01*
X141049500Y-127142785D01*
X141144738Y-127238023D01*
X141335214Y-127333261D01*
X141620928Y-127333261D01*
X139239976Y-127333261D02*
X139239976Y-126285642D01*
X139335214Y-126095166D01*
X139525690Y-125999928D01*
X139906642Y-125999928D01*
X140097119Y-126095166D01*
X139239976Y-127238023D02*
X139430452Y-127333261D01*
X139906642Y-127333261D01*
X140097119Y-127238023D01*
X140192357Y-127047547D01*
X140192357Y-126857071D01*
X140097119Y-126666595D01*
X139906642Y-126571357D01*
X139430452Y-126571357D01*
X139239976Y-126476119D01*
X138287595Y-127333261D02*
X138287595Y-125999928D01*
X138287595Y-126380880D02*
X138192357Y-126190404D01*
X138097119Y-126095166D01*
X137906642Y-125999928D01*
X137716166Y-125999928D01*
X136192357Y-127333261D02*
X136192357Y-125333261D01*
X136192357Y-127238023D02*
X136382833Y-127333261D01*
X136763785Y-127333261D01*
X136954261Y-127238023D01*
X137049500Y-127142785D01*
X137144738Y-126952309D01*
X137144738Y-126380880D01*
X137049500Y-126190404D01*
X136954261Y-126095166D01*
X136763785Y-125999928D01*
X136382833Y-125999928D01*
X136192357Y-126095166D01*
X135335214Y-127238023D02*
X135144738Y-127333261D01*
X134763785Y-127333261D01*
X134573309Y-127238023D01*
X134478071Y-127047547D01*
X134478071Y-126952309D01*
X134573309Y-126761833D01*
X134763785Y-126666595D01*
X135049500Y-126666595D01*
X135239976Y-126571357D01*
X135335214Y-126380880D01*
X135335214Y-126285642D01*
X135239976Y-126095166D01*
X135049500Y-125999928D01*
X134763785Y-125999928D01*
X134573309Y-126095166D01*
X133620928Y-127142785D02*
X133525690Y-127238023D01*
X133620928Y-127333261D01*
X133716166Y-127238023D01*
X133620928Y-127142785D01*
X133620928Y-127333261D01*
X131811404Y-127238023D02*
X132001880Y-127333261D01*
X132382833Y-127333261D01*
X132573309Y-127238023D01*
X132668547Y-127142785D01*
X132763785Y-126952309D01*
X132763785Y-126380880D01*
X132668547Y-126190404D01*
X132573309Y-126095166D01*
X132382833Y-125999928D01*
X132001880Y-125999928D01*
X131811404Y-126095166D01*
X130668547Y-127333261D02*
X130859023Y-127238023D01*
X130954261Y-127142785D01*
X131049500Y-126952309D01*
X131049500Y-126380880D01*
X130954261Y-126190404D01*
X130859023Y-126095166D01*
X130668547Y-125999928D01*
X130382833Y-125999928D01*
X130192357Y-126095166D01*
X130097119Y-126190404D01*
X130001880Y-126380880D01*
X130001880Y-126952309D01*
X130097119Y-127142785D01*
X130192357Y-127238023D01*
X130382833Y-127333261D01*
X130668547Y-127333261D01*
X129144738Y-127333261D02*
X129144738Y-125999928D01*
X129144738Y-126190404D02*
X129049500Y-126095166D01*
X128859023Y-125999928D01*
X128573309Y-125999928D01*
X128382833Y-126095166D01*
X128287595Y-126285642D01*
X128287595Y-127333261D01*
X128287595Y-126285642D02*
X128192357Y-126095166D01*
X128001880Y-125999928D01*
X127716166Y-125999928D01*
X127525690Y-126095166D01*
X127430452Y-126285642D01*
X127430452Y-127333261D01*
G36*
X139501510Y-120797154D02*
G01*
X139517723Y-120798585D01*
X139535079Y-120800957D01*
X139554913Y-120804785D01*
X139578558Y-120810585D01*
X139607347Y-120818873D01*
X139642613Y-120830164D01*
X139685692Y-120844975D01*
X139737915Y-120863822D01*
X139800616Y-120887221D01*
X139875129Y-120915687D01*
X139962787Y-120949737D01*
X140064924Y-120989886D01*
X140182874Y-121036650D01*
X140317969Y-121090545D01*
X140471543Y-121152088D01*
X140644930Y-121221794D01*
X140839463Y-121300179D01*
X141056476Y-121387758D01*
X141297301Y-121485049D01*
X141563274Y-121592567D01*
X141855727Y-121710827D01*
X142032578Y-121782367D01*
X142276411Y-121881071D01*
X142512184Y-121976589D01*
X142738375Y-122068304D01*
X142953465Y-122155596D01*
X143155934Y-122237845D01*
X143344261Y-122314432D01*
X143516927Y-122384740D01*
X143672410Y-122448147D01*
X143809191Y-122504035D01*
X143925750Y-122551786D01*
X144020566Y-122590779D01*
X144092119Y-122620396D01*
X144138888Y-122640017D01*
X144159354Y-122649024D01*
X144215649Y-122686546D01*
X144280542Y-122747197D01*
X144338680Y-122818221D01*
X144381299Y-122890098D01*
X144385557Y-122899994D01*
X144405318Y-122973642D01*
X144414663Y-123062820D01*
X144413612Y-123156711D01*
X144402189Y-123244498D01*
X144380417Y-123315362D01*
X144336205Y-123392081D01*
X144256143Y-123482459D01*
X144156386Y-123555519D01*
X144041866Y-123607011D01*
X144020685Y-123612674D01*
X143952448Y-123621657D01*
X143873624Y-123622101D01*
X143863091Y-123621340D01*
X143846999Y-123619315D01*
X143828013Y-123615703D01*
X143804823Y-123609994D01*
X143776117Y-123601679D01*
X143740582Y-123590247D01*
X143696909Y-123575190D01*
X143643786Y-123555997D01*
X143579901Y-123532159D01*
X143503943Y-123503166D01*
X143414600Y-123468509D01*
X143310563Y-123427678D01*
X143190518Y-123380163D01*
X143053155Y-123325456D01*
X142897162Y-123263045D01*
X142721229Y-123192422D01*
X142524043Y-123113076D01*
X142304293Y-123024499D01*
X142060669Y-122926181D01*
X141791859Y-122817611D01*
X141496550Y-122698281D01*
X141295977Y-122617149D01*
X141051075Y-122517895D01*
X140814342Y-122421742D01*
X140587290Y-122329314D01*
X140371432Y-122241233D01*
X140168282Y-122158122D01*
X139979352Y-122080606D01*
X139806155Y-122009306D01*
X139650204Y-121944846D01*
X139513013Y-121887848D01*
X139396093Y-121838937D01*
X139300959Y-121798734D01*
X139229122Y-121767863D01*
X139182097Y-121746948D01*
X139161395Y-121736611D01*
X139143876Y-121723532D01*
X139093750Y-121678004D01*
X139051672Y-121629801D01*
X139023179Y-121587275D01*
X138971246Y-121475342D01*
X138946936Y-121359040D01*
X138949874Y-121242327D01*
X138979683Y-121129161D01*
X139035984Y-121023501D01*
X139118401Y-120929305D01*
X139186518Y-120874209D01*
X139278407Y-120824339D01*
X139377993Y-120799351D01*
X139492761Y-120796590D01*
X139501510Y-120797154D01*
G37*
G36*
X142500854Y-120399833D02*
G01*
X142664704Y-120463733D01*
X142910195Y-120559521D01*
X143147940Y-120652346D01*
X143376384Y-120741598D01*
X143593973Y-120826668D01*
X143799150Y-120906946D01*
X143990362Y-120981823D01*
X144166052Y-121050688D01*
X144324667Y-121112933D01*
X144464651Y-121167947D01*
X144584449Y-121215121D01*
X144682507Y-121253846D01*
X144757268Y-121283512D01*
X144807179Y-121303508D01*
X144830684Y-121313226D01*
X144903507Y-121354924D01*
X144990907Y-121432324D01*
X145001613Y-121444392D01*
X145069027Y-121543580D01*
X145110398Y-121650757D01*
X145126803Y-121761902D01*
X145119323Y-121872992D01*
X145089038Y-121980008D01*
X145037027Y-122078929D01*
X144964370Y-122165734D01*
X144872146Y-122236401D01*
X144761436Y-122286910D01*
X144738128Y-122293002D01*
X144668727Y-122301592D01*
X144586264Y-122301894D01*
X144584239Y-122301791D01*
X144568674Y-122300645D01*
X144551678Y-122298495D01*
X144531927Y-122294847D01*
X144508093Y-122289204D01*
X144478851Y-122281072D01*
X144442875Y-122269956D01*
X144398838Y-122255360D01*
X144345414Y-122236789D01*
X144281277Y-122213749D01*
X144205100Y-122185743D01*
X144115559Y-122152277D01*
X144011326Y-122112855D01*
X143891075Y-122066982D01*
X143753480Y-122014164D01*
X143597216Y-121953904D01*
X143420955Y-121885708D01*
X143223372Y-121809080D01*
X143003141Y-121723525D01*
X142758934Y-121628549D01*
X142489427Y-121523655D01*
X142193293Y-121408349D01*
X141993847Y-121330635D01*
X141747868Y-121234661D01*
X141510095Y-121141746D01*
X141282049Y-121052493D01*
X141065250Y-120967500D01*
X140861218Y-120887367D01*
X140671474Y-120812695D01*
X140497539Y-120744083D01*
X140340932Y-120682131D01*
X140203175Y-120627440D01*
X140085787Y-120580608D01*
X139990289Y-120542237D01*
X139918202Y-120512925D01*
X139871046Y-120493273D01*
X139850341Y-120483881D01*
X139843831Y-120479978D01*
X139770332Y-120421671D01*
X139702262Y-120343408D01*
X139647624Y-120254256D01*
X139646722Y-120252424D01*
X139629803Y-120212136D01*
X139619559Y-120169878D01*
X139614471Y-120116331D01*
X139613018Y-120042172D01*
X139613187Y-120001556D01*
X139615534Y-119942720D01*
X139622073Y-119898891D01*
X139634631Y-119860287D01*
X139655032Y-119817128D01*
X139710956Y-119728455D01*
X139798531Y-119636802D01*
X139903006Y-119568145D01*
X139915608Y-119561940D01*
X139959845Y-119542994D01*
X140002022Y-119531987D01*
X140052811Y-119526848D01*
X140122885Y-119525509D01*
X140257912Y-119525300D01*
X142500854Y-120399833D01*
G37*
G36*
X149377892Y-118607308D02*
G01*
X149372226Y-118718110D01*
X149363678Y-118813637D01*
X149352309Y-118886586D01*
X149327883Y-118989939D01*
X149251459Y-119235617D01*
X149153098Y-119466430D01*
X149034107Y-119680438D01*
X148895795Y-119875704D01*
X148739470Y-120050291D01*
X148566440Y-120202261D01*
X148378015Y-120329675D01*
X148259427Y-120391716D01*
X148087764Y-120461913D01*
X147907333Y-120516376D01*
X147729383Y-120551260D01*
X147675967Y-120556343D01*
X147588104Y-120559940D01*
X147482231Y-120560733D01*
X147364893Y-120558903D01*
X147242630Y-120554626D01*
X147121986Y-120548083D01*
X147009503Y-120539451D01*
X146911722Y-120528911D01*
X146868306Y-120523002D01*
X146595869Y-120472327D01*
X146339364Y-120400633D01*
X146100510Y-120308665D01*
X145881026Y-120197171D01*
X145682630Y-120066897D01*
X145507043Y-119918592D01*
X145398630Y-119806852D01*
X145263488Y-119637467D01*
X145154362Y-119457749D01*
X145069032Y-119263865D01*
X145005277Y-119051977D01*
X145000231Y-119029558D01*
X144982893Y-118919317D01*
X144972158Y-118791280D01*
X144968123Y-118654749D01*
X144969403Y-118591943D01*
X146015323Y-118591943D01*
X146015597Y-118736647D01*
X146043388Y-118871262D01*
X146098080Y-118995101D01*
X146179058Y-119107481D01*
X146285709Y-119207716D01*
X146417416Y-119295120D01*
X146573565Y-119369009D01*
X146753542Y-119428697D01*
X146956731Y-119473498D01*
X146978617Y-119477139D01*
X147084267Y-119491393D01*
X147197341Y-119502066D01*
X147311662Y-119508968D01*
X147421054Y-119511908D01*
X147519342Y-119510698D01*
X147600349Y-119505146D01*
X147657901Y-119495063D01*
X147784186Y-119447804D01*
X147917718Y-119368798D01*
X148036614Y-119265021D01*
X148139527Y-119137911D01*
X148225108Y-118988902D01*
X148292011Y-118819432D01*
X148308211Y-118755773D01*
X148324336Y-118651761D01*
X148333535Y-118536101D01*
X148335408Y-118418898D01*
X148329560Y-118310257D01*
X148315591Y-118220283D01*
X148282786Y-118110788D01*
X148216550Y-117972145D01*
X148127573Y-117852539D01*
X148016639Y-117752962D01*
X147884533Y-117674406D01*
X147842489Y-117654924D01*
X147758834Y-117620385D01*
X147679106Y-117594981D01*
X147596547Y-117577464D01*
X147504397Y-117566584D01*
X147395898Y-117561091D01*
X147264291Y-117559735D01*
X147252655Y-117559760D01*
X147158329Y-117560206D01*
X147086965Y-117561562D01*
X147032195Y-117564576D01*
X146987652Y-117569993D01*
X146946968Y-117578561D01*
X146903777Y-117591028D01*
X146851710Y-117608139D01*
X146744775Y-117648906D01*
X146574315Y-117736791D01*
X146422669Y-117845476D01*
X146291610Y-117973122D01*
X146182909Y-118117889D01*
X146098338Y-118277938D01*
X146039666Y-118451429D01*
X146015323Y-118591943D01*
X144969403Y-118591943D01*
X144970888Y-118519028D01*
X144980551Y-118393420D01*
X144997208Y-118287230D01*
X145042150Y-118115125D01*
X145126557Y-117883566D01*
X145234998Y-117660826D01*
X145364200Y-117454336D01*
X145420414Y-117381092D01*
X145505478Y-117283347D01*
X145602856Y-117181822D01*
X145705562Y-117083444D01*
X145806613Y-116995141D01*
X145899023Y-116923842D01*
X145933866Y-116900130D01*
X146025072Y-116843553D01*
X146128071Y-116785522D01*
X146235567Y-116729740D01*
X146340263Y-116679906D01*
X146434863Y-116639722D01*
X146512070Y-116612889D01*
X146561554Y-116596344D01*
X146598067Y-116578944D01*
X146611663Y-116564786D01*
X146611298Y-116560306D01*
X146603751Y-116527275D01*
X146587807Y-116472859D01*
X146565261Y-116402327D01*
X146537913Y-116320949D01*
X146507559Y-116233998D01*
X146475997Y-116146742D01*
X146445025Y-116064452D01*
X146416440Y-115992399D01*
X146380897Y-115908029D01*
X146212834Y-115555898D01*
X146019425Y-115219660D01*
X145800451Y-114898986D01*
X145555689Y-114593546D01*
X145284920Y-114303010D01*
X145089391Y-114117878D01*
X144849105Y-113915736D01*
X144603846Y-113735795D01*
X144355456Y-113579018D01*
X144105775Y-113446369D01*
X143856646Y-113338809D01*
X143609909Y-113257303D01*
X143367406Y-113202814D01*
X143130978Y-113176305D01*
X143050753Y-113174137D01*
X142883252Y-113182960D01*
X142727508Y-113209350D01*
X142590454Y-113252333D01*
X142534304Y-113277113D01*
X142456707Y-113323041D01*
X142402255Y-113376764D01*
X142367669Y-113443403D01*
X142349673Y-113528079D01*
X142344991Y-113635911D01*
X142346082Y-113674926D01*
X142365509Y-113836736D01*
X142408798Y-114015058D01*
X142475555Y-114209093D01*
X142565384Y-114418043D01*
X142677887Y-114641107D01*
X142812671Y-114877487D01*
X142969339Y-115126383D01*
X143147494Y-115386997D01*
X143346742Y-115658529D01*
X143412349Y-115745420D01*
X143487092Y-115846019D01*
X143546274Y-115928899D01*
X143591602Y-115997460D01*
X143624787Y-116055101D01*
X143647534Y-116105223D01*
X143661554Y-116151225D01*
X143668554Y-116196506D01*
X143670242Y-116244466D01*
X143668326Y-116298505D01*
X143662392Y-116354779D01*
X143629222Y-116472592D01*
X143569857Y-116577575D01*
X143485921Y-116667255D01*
X143379036Y-116739162D01*
X143303512Y-116779030D01*
X141685439Y-116783044D01*
X141439684Y-116783671D01*
X141211373Y-116784311D01*
X141009840Y-116784968D01*
X140833440Y-116785670D01*
X140680525Y-116786451D01*
X140549449Y-116787339D01*
X140438564Y-116788367D01*
X140346224Y-116789564D01*
X140270782Y-116790962D01*
X140210591Y-116792591D01*
X140164004Y-116794482D01*
X140129375Y-116796665D01*
X140105056Y-116799172D01*
X140089401Y-116802034D01*
X140080763Y-116805280D01*
X140077495Y-116808942D01*
X140077950Y-116813050D01*
X140099264Y-116869096D01*
X140132658Y-116969128D01*
X140163256Y-117073934D01*
X140186486Y-117168535D01*
X140187462Y-117173195D01*
X140202651Y-117276708D01*
X140210980Y-117399852D01*
X140211809Y-117470202D01*
X140212555Y-117533544D01*
X140207483Y-117668701D01*
X140195870Y-117796240D01*
X140177823Y-117907078D01*
X140157462Y-117995039D01*
X140080458Y-118245561D01*
X139977937Y-118481849D01*
X139849055Y-118705430D01*
X139692973Y-118917830D01*
X139508848Y-119120575D01*
X139421033Y-119205095D01*
X139231182Y-119365111D01*
X139035676Y-119498335D01*
X138830631Y-119606957D01*
X138612161Y-119693168D01*
X138376381Y-119759159D01*
X138301411Y-119772821D01*
X138194671Y-119785351D01*
X138073296Y-119794291D01*
X137945403Y-119799336D01*
X137819112Y-119800183D01*
X137702541Y-119796529D01*
X137603808Y-119788069D01*
X137575273Y-119784299D01*
X137341133Y-119738710D01*
X137124901Y-119669158D01*
X136926231Y-119575483D01*
X136744778Y-119457526D01*
X136580196Y-119315128D01*
X136571902Y-119306869D01*
X136434029Y-119151524D01*
X136321236Y-118985801D01*
X136231845Y-118806364D01*
X136164179Y-118609875D01*
X136116559Y-118392996D01*
X136110758Y-118353245D01*
X136100256Y-118233302D01*
X136096642Y-118111998D01*
X137143260Y-118111998D01*
X137161147Y-118255592D01*
X137198291Y-118383680D01*
X137254424Y-118493544D01*
X137329278Y-118582465D01*
X137345756Y-118597371D01*
X137399974Y-118640672D01*
X137454900Y-118672721D01*
X137520231Y-118698439D01*
X137605664Y-118722750D01*
X137613255Y-118724636D01*
X137719094Y-118742637D01*
X137841172Y-118751282D01*
X137968293Y-118750599D01*
X138089262Y-118740613D01*
X138192881Y-118721351D01*
X138364273Y-118662155D01*
X138530030Y-118575520D01*
X138682430Y-118465599D01*
X138818914Y-118335207D01*
X138936918Y-118187156D01*
X139033881Y-118024262D01*
X139107240Y-117849339D01*
X139154434Y-117665200D01*
X139161471Y-117619093D01*
X139167613Y-117470202D01*
X139147049Y-117333005D01*
X139100445Y-117208923D01*
X139028462Y-117099376D01*
X138931765Y-117005785D01*
X138811015Y-116929570D01*
X138738778Y-116897163D01*
X138594004Y-116850128D01*
X138428381Y-116815466D01*
X138246382Y-116794020D01*
X138052478Y-116786632D01*
X137980128Y-116786872D01*
X137919027Y-116788491D01*
X137874033Y-116792651D01*
X137837730Y-116800508D01*
X137802699Y-116813216D01*
X137761524Y-116831930D01*
X137728136Y-116849397D01*
X137630197Y-116918965D01*
X137534030Y-117012970D01*
X137442664Y-117127327D01*
X137359129Y-117257954D01*
X137286452Y-117400767D01*
X137227664Y-117551682D01*
X137207818Y-117615365D01*
X137166327Y-117789166D01*
X137144897Y-117955617D01*
X137143260Y-118111998D01*
X136096642Y-118111998D01*
X136096182Y-118096546D01*
X136098291Y-117951945D01*
X136106339Y-117808470D01*
X136120080Y-117675090D01*
X136139269Y-117560774D01*
X136148440Y-117519403D01*
X136218593Y-117264338D01*
X136308579Y-117022568D01*
X136416982Y-116795856D01*
X136542383Y-116585964D01*
X136683365Y-116394657D01*
X136838511Y-116223695D01*
X137006403Y-116074842D01*
X137185624Y-115949860D01*
X137374757Y-115850513D01*
X137572383Y-115778562D01*
X137692407Y-115744198D01*
X139901730Y-115736510D01*
X142111052Y-115728823D01*
X142055351Y-115646307D01*
X141996728Y-115556393D01*
X141906202Y-115407446D01*
X141813802Y-115244871D01*
X141723515Y-115076187D01*
X141639327Y-114908912D01*
X141565224Y-114750565D01*
X141505192Y-114608663D01*
X141431124Y-114404423D01*
X141358405Y-114150386D01*
X141312345Y-113909439D01*
X141292972Y-113681750D01*
X141300318Y-113467489D01*
X141311561Y-113377626D01*
X141356247Y-113172336D01*
X141425524Y-112984101D01*
X141519173Y-112813147D01*
X141636973Y-112659698D01*
X141778705Y-112523978D01*
X141944148Y-112406211D01*
X142133082Y-112306622D01*
X142345287Y-112225435D01*
X142580543Y-112162875D01*
X142614486Y-112156301D01*
X142725486Y-112141648D01*
X142855849Y-112132157D01*
X142998087Y-112127833D01*
X143144715Y-112128681D01*
X143288244Y-112134704D01*
X143421187Y-112145909D01*
X143536057Y-112162298D01*
X143556763Y-112166166D01*
X143872778Y-112240941D01*
X144187540Y-112344363D01*
X144499453Y-112475158D01*
X144806919Y-112632055D01*
X145108338Y-112813780D01*
X145402113Y-113019061D01*
X145686647Y-113246624D01*
X145960340Y-113495199D01*
X146221595Y-113763510D01*
X146468813Y-114050287D01*
X146700397Y-114354257D01*
X146914749Y-114674146D01*
X147110269Y-115008682D01*
X147128155Y-115041914D01*
X147242069Y-115268701D01*
X147351340Y-115511491D01*
X147452974Y-115762539D01*
X147543978Y-116014105D01*
X147621359Y-116258445D01*
X147682123Y-116487816D01*
X147685628Y-116499789D01*
X147696181Y-116515672D01*
X147717704Y-116527674D01*
X147756411Y-116538706D01*
X147818516Y-116551675D01*
X147818784Y-116551728D01*
X148001875Y-116597575D01*
X148189223Y-116662558D01*
X148367008Y-116741885D01*
X148436812Y-116778870D01*
X148634569Y-116905502D01*
X148811953Y-117053555D01*
X148967982Y-117221720D01*
X149101679Y-117408686D01*
X149212064Y-117613142D01*
X149298158Y-117833778D01*
X149358981Y-118069284D01*
X149360909Y-118079697D01*
X149370546Y-118157362D01*
X149377003Y-118256257D01*
X149380340Y-118369080D01*
X149380455Y-118418898D01*
X149380616Y-118488531D01*
X149377892Y-118607308D01*
G37*
D11*
X42806250Y-69850000D03*
D12*
X37306250Y-69850000D03*
D13*
X32086250Y-74050000D03*
D14*
X42386250Y-69850000D03*
D11*
X31806250Y-69850000D03*
D14*
X32226250Y-69850000D03*
D15*
X39826021Y-65059984D03*
D16*
X42306250Y-66050000D03*
D17*
X39846250Y-64770000D03*
X34806250Y-65850000D03*
D16*
X37306250Y-63950000D03*
D18*
X34151245Y-66579996D03*
D12*
X56356250Y-69850000D03*
D11*
X61856250Y-69850000D03*
D14*
X61436250Y-69850000D03*
X51276250Y-69850000D03*
D13*
X51136250Y-74050000D03*
D11*
X50856250Y-69850000D03*
D15*
X58876021Y-65059984D03*
D16*
X61356250Y-66050000D03*
D17*
X58896250Y-64770000D03*
D16*
X56356250Y-63950000D03*
D18*
X53201245Y-66579996D03*
D17*
X53856250Y-65850000D03*
D11*
X69906250Y-69850000D03*
X80906250Y-69850000D03*
D14*
X80486250Y-69850000D03*
D12*
X75406250Y-69850000D03*
D14*
X70326250Y-69850000D03*
D13*
X70186250Y-74050000D03*
D15*
X77926021Y-65059984D03*
D17*
X77946250Y-64770000D03*
D16*
X80406250Y-66050000D03*
X75406250Y-63950000D03*
D18*
X72251245Y-66579996D03*
D17*
X72906250Y-65850000D03*
D14*
X99536250Y-69850000D03*
D12*
X94456250Y-69850000D03*
D11*
X88956250Y-69850000D03*
D13*
X89236250Y-74050000D03*
D14*
X89376250Y-69850000D03*
D11*
X99956250Y-69850000D03*
D17*
X96996250Y-64770000D03*
D16*
X99456250Y-66050000D03*
D15*
X96976021Y-65059984D03*
D18*
X91301245Y-66579996D03*
D16*
X94456250Y-63950000D03*
D17*
X91956250Y-65850000D03*
D14*
X118586250Y-69850000D03*
D11*
X108006250Y-69850000D03*
X119006250Y-69850000D03*
D13*
X108286250Y-74050000D03*
D14*
X108426250Y-69850000D03*
D12*
X113506250Y-69850000D03*
D15*
X116026021Y-65059984D03*
D16*
X118506250Y-66050000D03*
D17*
X116046250Y-64770000D03*
X111006250Y-65850000D03*
D16*
X113506250Y-63950000D03*
D18*
X110351245Y-66579996D03*
D13*
X165436250Y-74050000D03*
D14*
X165576250Y-69850000D03*
X175736250Y-69850000D03*
D11*
X165156250Y-69850000D03*
D12*
X170656250Y-69850000D03*
D11*
X176156250Y-69850000D03*
D15*
X173176021Y-65059984D03*
D17*
X173196250Y-64770000D03*
D16*
X175656250Y-66050000D03*
D18*
X167501245Y-66579996D03*
D16*
X170656250Y-63950000D03*
D17*
X168156250Y-65850000D03*
D11*
X195206250Y-69850000D03*
D13*
X184486250Y-74050000D03*
D14*
X184626250Y-69850000D03*
D11*
X184206250Y-69850000D03*
D14*
X194786250Y-69850000D03*
D12*
X189706250Y-69850000D03*
D15*
X192226021Y-65059984D03*
D17*
X192246250Y-64770000D03*
D16*
X194706250Y-66050000D03*
X189706250Y-63950000D03*
D17*
X187206250Y-65850000D03*
D18*
X186551245Y-66579996D03*
D14*
X213836250Y-69850000D03*
X203676250Y-69850000D03*
D12*
X208756250Y-69850000D03*
D13*
X203536250Y-74050000D03*
D11*
X203256250Y-69850000D03*
X214256250Y-69850000D03*
D17*
X211296250Y-64770000D03*
D16*
X213756250Y-66050000D03*
D15*
X211276021Y-65059984D03*
D17*
X206256250Y-65850000D03*
D18*
X205601245Y-66579996D03*
D16*
X208756250Y-63950000D03*
D14*
X232886250Y-69850000D03*
D11*
X233306250Y-69850000D03*
D12*
X227806250Y-69850000D03*
D14*
X222726250Y-69850000D03*
D11*
X222306250Y-69850000D03*
D13*
X222586250Y-74050000D03*
D16*
X232806250Y-66050000D03*
D15*
X230326021Y-65059984D03*
D17*
X230346250Y-64770000D03*
D16*
X227806250Y-63950000D03*
D17*
X225306250Y-65850000D03*
D18*
X224651245Y-66579996D03*
D14*
X241776250Y-69850000D03*
X251936250Y-69850000D03*
D11*
X252356250Y-69850000D03*
D13*
X241636250Y-74050000D03*
D11*
X241356250Y-69850000D03*
D12*
X246856250Y-69850000D03*
D16*
X251856250Y-66050000D03*
D15*
X249376021Y-65059984D03*
D17*
X249396250Y-64770000D03*
X244356250Y-65850000D03*
D18*
X243701245Y-66579996D03*
D16*
X246856250Y-63950000D03*
D14*
X260826250Y-69850000D03*
D11*
X271406250Y-69850000D03*
D14*
X270986250Y-69850000D03*
D11*
X260406250Y-69850000D03*
D13*
X260686250Y-74050000D03*
D12*
X265906250Y-69850000D03*
D17*
X268446250Y-64770000D03*
D16*
X270906250Y-66050000D03*
D15*
X268426021Y-65059984D03*
D16*
X265906250Y-63950000D03*
D18*
X262751245Y-66579996D03*
D17*
X263406250Y-65850000D03*
D11*
X42806250Y-88900000D03*
D14*
X32226250Y-88900000D03*
D12*
X37306250Y-88900000D03*
D13*
X32086250Y-93100000D03*
D11*
X31806250Y-88900000D03*
D14*
X42386250Y-88900000D03*
D17*
X39846250Y-83820000D03*
D16*
X42306250Y-85100000D03*
D15*
X39826021Y-84109984D03*
D16*
X37306250Y-83000000D03*
D17*
X34806250Y-84900000D03*
D18*
X34151245Y-85629996D03*
D12*
X56356250Y-88900000D03*
D14*
X61436250Y-88900000D03*
D11*
X50856250Y-88900000D03*
D14*
X51276250Y-88900000D03*
D11*
X61856250Y-88900000D03*
D13*
X51136250Y-93100000D03*
D16*
X61356250Y-85100000D03*
D17*
X58896250Y-83820000D03*
D15*
X58876021Y-84109984D03*
D17*
X53856250Y-84900000D03*
D16*
X56356250Y-83000000D03*
D18*
X53201245Y-85629996D03*
D12*
X75406250Y-88900000D03*
D14*
X80486250Y-88900000D03*
D11*
X69906250Y-88900000D03*
D13*
X70186250Y-93100000D03*
D11*
X80906250Y-88900000D03*
D14*
X70326250Y-88900000D03*
D17*
X77946250Y-83820000D03*
D16*
X80406250Y-85100000D03*
D15*
X77926021Y-84109984D03*
D16*
X75406250Y-83000000D03*
D17*
X72906250Y-84900000D03*
D18*
X72251245Y-85629996D03*
D13*
X89236250Y-93100000D03*
D14*
X89376250Y-88900000D03*
D12*
X94456250Y-88900000D03*
D14*
X99536250Y-88900000D03*
D11*
X99956250Y-88900000D03*
X88956250Y-88900000D03*
D16*
X99456250Y-85100000D03*
D17*
X96996250Y-83820000D03*
D15*
X96976021Y-84109984D03*
D17*
X91956250Y-84900000D03*
D18*
X91301245Y-85629996D03*
D16*
X94456250Y-83000000D03*
D14*
X118586250Y-88900000D03*
D13*
X108286250Y-93100000D03*
D11*
X108006250Y-88900000D03*
D12*
X113506250Y-88900000D03*
D14*
X108426250Y-88900000D03*
D11*
X119006250Y-88900000D03*
D17*
X116046250Y-83820000D03*
D15*
X116026021Y-84109984D03*
D16*
X118506250Y-85100000D03*
D17*
X111006250Y-84900000D03*
D16*
X113506250Y-83000000D03*
D18*
X110351245Y-85629996D03*
D11*
X176156250Y-88900000D03*
D13*
X165436250Y-93100000D03*
D11*
X165156250Y-88900000D03*
D14*
X165576250Y-88900000D03*
D12*
X170656250Y-88900000D03*
D14*
X175736250Y-88900000D03*
D17*
X173196250Y-83820000D03*
D15*
X173176021Y-84109984D03*
D16*
X175656250Y-85100000D03*
D18*
X167501245Y-85629996D03*
D16*
X170656250Y-83000000D03*
D17*
X168156250Y-84900000D03*
D14*
X194786250Y-88900000D03*
D13*
X184486250Y-93100000D03*
D12*
X189706250Y-88900000D03*
D11*
X195206250Y-88900000D03*
D14*
X184626250Y-88900000D03*
D11*
X184206250Y-88900000D03*
D17*
X192246250Y-83820000D03*
D16*
X194706250Y-85100000D03*
D15*
X192226021Y-84109984D03*
D18*
X186551245Y-85629996D03*
D16*
X189706250Y-83000000D03*
D17*
X187206250Y-84900000D03*
D13*
X203536250Y-93100000D03*
D14*
X203676250Y-88900000D03*
D11*
X214256250Y-88900000D03*
D12*
X208756250Y-88900000D03*
D14*
X213836250Y-88900000D03*
D11*
X203256250Y-88900000D03*
D16*
X213756250Y-85100000D03*
D17*
X211296250Y-83820000D03*
D15*
X211276021Y-84109984D03*
D16*
X208756250Y-83000000D03*
D17*
X206256250Y-84900000D03*
D18*
X205601245Y-85629996D03*
D11*
X233306250Y-88900000D03*
X222306250Y-88900000D03*
D14*
X232886250Y-88900000D03*
X222726250Y-88900000D03*
D12*
X227806250Y-88900000D03*
D13*
X222586250Y-93100000D03*
D17*
X230346250Y-83820000D03*
D15*
X230326021Y-84109984D03*
D16*
X232806250Y-85100000D03*
X227806250Y-83000000D03*
D17*
X225306250Y-84900000D03*
D18*
X224651245Y-85629996D03*
D11*
X241356250Y-88900000D03*
D13*
X241636250Y-93100000D03*
D14*
X241776250Y-88900000D03*
D11*
X252356250Y-88900000D03*
D12*
X246856250Y-88900000D03*
D14*
X251936250Y-88900000D03*
D17*
X249396250Y-83820000D03*
D16*
X251856250Y-85100000D03*
D15*
X249376021Y-84109984D03*
D16*
X246856250Y-83000000D03*
D18*
X243701245Y-85629996D03*
D17*
X244356250Y-84900000D03*
D13*
X260686250Y-93100000D03*
D14*
X260826250Y-88900000D03*
D11*
X260406250Y-88900000D03*
D12*
X265906250Y-88900000D03*
D11*
X271406250Y-88900000D03*
D14*
X270986250Y-88900000D03*
D15*
X268426021Y-84109984D03*
D17*
X268446250Y-83820000D03*
D16*
X270906250Y-85100000D03*
D17*
X263406250Y-84900000D03*
D18*
X262751245Y-85629996D03*
D16*
X265906250Y-83000000D03*
D11*
X80906250Y-127000000D03*
X69906250Y-127000000D03*
D13*
X70186250Y-131200000D03*
D12*
X75406250Y-127000000D03*
D14*
X70326250Y-127000000D03*
X80486250Y-127000000D03*
D17*
X77946250Y-121920000D03*
D16*
X80406250Y-123200000D03*
D15*
X77926021Y-122209984D03*
D16*
X75406250Y-121100000D03*
D17*
X72906250Y-123000000D03*
D18*
X72251245Y-123729996D03*
D11*
X88956250Y-127000000D03*
X99956250Y-127000000D03*
D14*
X99536250Y-127000000D03*
X89376250Y-127000000D03*
D12*
X94456250Y-127000000D03*
D13*
X89236250Y-131200000D03*
D16*
X99456250Y-123200000D03*
D17*
X96996250Y-121920000D03*
D15*
X96976021Y-122209984D03*
D17*
X91956250Y-123000000D03*
D16*
X94456250Y-121100000D03*
D18*
X91301245Y-123729996D03*
D13*
X165436250Y-131200000D03*
D14*
X165576250Y-127000000D03*
X175736250Y-127000000D03*
D12*
X170656250Y-127000000D03*
D11*
X176156250Y-127000000D03*
X165156250Y-127000000D03*
D17*
X173196250Y-121920000D03*
D15*
X173176021Y-122209984D03*
D16*
X175656250Y-123200000D03*
D17*
X168156250Y-123000000D03*
D18*
X167501245Y-123729996D03*
D16*
X170656250Y-121100000D03*
D11*
X195206250Y-127000000D03*
D14*
X184626250Y-127000000D03*
D11*
X184206250Y-127000000D03*
D13*
X184486250Y-131200000D03*
D14*
X194786250Y-127000000D03*
D12*
X189706250Y-127000000D03*
D15*
X192226021Y-122209984D03*
D16*
X194706250Y-123200000D03*
D17*
X192246250Y-121920000D03*
X187206250Y-123000000D03*
D18*
X186551245Y-123729996D03*
D16*
X189706250Y-121100000D03*
D14*
X118586250Y-127000000D03*
D11*
X119006250Y-127000000D03*
X108006250Y-127000000D03*
D14*
X108426250Y-127000000D03*
D12*
X113506250Y-127000000D03*
D13*
X108286250Y-131200000D03*
D15*
X116026021Y-122209984D03*
D17*
X116046250Y-121920000D03*
D16*
X118506250Y-123200000D03*
X113506250Y-121100000D03*
D18*
X110351245Y-123729996D03*
D17*
X111006250Y-123000000D03*
D13*
X203536250Y-131200000D03*
D11*
X214256250Y-127000000D03*
X203256250Y-127000000D03*
D12*
X208756250Y-127000000D03*
D14*
X213836250Y-127000000D03*
X203676250Y-127000000D03*
D17*
X211296250Y-121920000D03*
D16*
X213756250Y-123200000D03*
D15*
X211276021Y-122209984D03*
D18*
X205601245Y-123729996D03*
D16*
X208756250Y-121100000D03*
D17*
X206256250Y-123000000D03*
D19*
X84931250Y-127000000D03*
X103981250Y-79375000D03*
X180181250Y-79375000D03*
X256381250Y-79375000D03*
X46831250Y-79375000D03*
X199231250Y-127000000D03*
D20*
X39006250Y-74612500D03*
X35606250Y-74612500D03*
X58056250Y-74612500D03*
X54656250Y-74612500D03*
X76993750Y-74612500D03*
X73593750Y-74612500D03*
X96156250Y-74612500D03*
X92756250Y-74612500D03*
X115206250Y-74612500D03*
X111806250Y-74612500D03*
X172356250Y-74612500D03*
X168956250Y-74612500D03*
X191406250Y-74612500D03*
X188006250Y-74612500D03*
X210456250Y-74612500D03*
X207056250Y-74612500D03*
X229506250Y-74612500D03*
X226106250Y-74612500D03*
X248556250Y-74612500D03*
X245156250Y-74612500D03*
X267606250Y-74612500D03*
X264206250Y-74612500D03*
X39006250Y-93662500D03*
X35606250Y-93662500D03*
X58056250Y-93662500D03*
X54656250Y-93662500D03*
X77106250Y-93662500D03*
X73706250Y-93662500D03*
X96156250Y-93662500D03*
X92756250Y-93662500D03*
X115206250Y-93662500D03*
X111806250Y-93662500D03*
X172356250Y-93662500D03*
X168956250Y-93662500D03*
X191406250Y-93662500D03*
X188006250Y-93662500D03*
X210456250Y-93662500D03*
X207056250Y-93662500D03*
X229506250Y-93662500D03*
X226106250Y-93662500D03*
X248556250Y-93662500D03*
X245156250Y-93662500D03*
X267606250Y-93662500D03*
X264206250Y-93662500D03*
X77106250Y-131762500D03*
X73706250Y-131762500D03*
X96156250Y-131762500D03*
X92756250Y-131762500D03*
X172356250Y-131762500D03*
X168956250Y-131762500D03*
X191406250Y-131762500D03*
X188006250Y-131762500D03*
D21*
X149701250Y-65804250D03*
D22*
X149701250Y-68344250D03*
X149701250Y-70884250D03*
X149701250Y-73424250D03*
X149701250Y-75964250D03*
X149701250Y-78504250D03*
X149701250Y-81044250D03*
X149701250Y-83584250D03*
X149701250Y-86124250D03*
X149701250Y-88664250D03*
X149701250Y-91204250D03*
X149701250Y-93744250D03*
X134461250Y-93744250D03*
X134461250Y-91204250D03*
X134461250Y-88664250D03*
X134461250Y-86124250D03*
X134461250Y-83584250D03*
X134461250Y-81044250D03*
X134461250Y-78504250D03*
X134461250Y-75964250D03*
X134461250Y-73424250D03*
X134461250Y-70884250D03*
X134461250Y-68344250D03*
X134461250Y-65804250D03*
D20*
X115206250Y-131762500D03*
X111806250Y-131762500D03*
X210456250Y-131762500D03*
X207056250Y-131762500D03*
D23*
X124643750Y-71750000D03*
X130943750Y-71750000D03*
X124643750Y-67950000D03*
X130943750Y-67950000D03*
M02*
