G04 #@! TF.GenerationSoftware,KiCad,Pcbnew,(6.0.0-0)*
G04 #@! TF.CreationDate,2022-03-08T07:19:15-08:00*
G04 #@! TF.ProjectId,unisplit_orthosteno,756e6973-706c-4697-945f-6f7274686f73,rev?*
G04 #@! TF.SameCoordinates,Original*
G04 #@! TF.FileFunction,Legend,Bot*
G04 #@! TF.FilePolarity,Positive*
%FSLAX46Y46*%
G04 Gerber Fmt 4.6, Leading zero omitted, Abs format (unit mm)*
G04 Created by KiCad (PCBNEW (6.0.0-0)) date 2022-03-08 07:19:15*
%MOMM*%
%LPD*%
G01*
G04 APERTURE LIST*
G04 Aperture macros list*
%AMHorizOval*
0 Thick line with rounded ends*
0 $1 width*
0 $2 $3 position (X,Y) of the first rounded end (center of the circle)*
0 $4 $5 position (X,Y) of the second rounded end (center of the circle)*
0 Add line between two ends*
20,1,$1,$2,$3,$4,$5,0*
0 Add two circle primitives to create the rounded ends*
1,1,$1,$2,$3*
1,1,$1,$4,$5*%
G04 Aperture macros list end*
%ADD10C,0.150000*%
%ADD11C,0.200000*%
%ADD12C,0.381000*%
%ADD13C,0.120000*%
%ADD14R,1.752600X1.752600*%
%ADD15C,1.752600*%
%ADD16C,1.700000*%
%ADD17C,3.987800*%
%ADD18C,1.200000*%
%ADD19C,1.750000*%
%ADD20HorizOval,2.250000X0.019771X0.290016X-0.019771X-0.290016X0*%
%ADD21C,2.000000*%
%ADD22C,2.250000*%
%ADD23HorizOval,2.250000X0.654995X0.730004X-0.654995X-0.730004X0*%
%ADD24C,3.800000*%
%ADD25R,1.200000X1.400000*%
%ADD26R,1.700000X1.000000*%
G04 APERTURE END LIST*
D10*
X38591964Y-73477380D02*
X38591964Y-72477380D01*
X38258630Y-73191666D01*
X37925297Y-72477380D01*
X37925297Y-73477380D01*
X37544345Y-72477380D02*
X36877678Y-73477380D01*
X36877678Y-72477380D02*
X37544345Y-73477380D01*
X35972916Y-73477380D02*
X36544345Y-73477380D01*
X36258630Y-73477380D02*
X36258630Y-72477380D01*
X36353869Y-72620238D01*
X36449107Y-72715476D01*
X36544345Y-72763095D01*
X57641964Y-73477380D02*
X57641964Y-72477380D01*
X57308630Y-73191666D01*
X56975297Y-72477380D01*
X56975297Y-73477380D01*
X56594345Y-72477380D02*
X55927678Y-73477380D01*
X55927678Y-72477380D02*
X56594345Y-73477380D01*
X55594345Y-72572619D02*
X55546726Y-72525000D01*
X55451488Y-72477380D01*
X55213392Y-72477380D01*
X55118154Y-72525000D01*
X55070535Y-72572619D01*
X55022916Y-72667857D01*
X55022916Y-72763095D01*
X55070535Y-72905952D01*
X55641964Y-73477380D01*
X55022916Y-73477380D01*
X76691964Y-73477380D02*
X76691964Y-72477380D01*
X76358630Y-73191666D01*
X76025297Y-72477380D01*
X76025297Y-73477380D01*
X75644345Y-72477380D02*
X74977678Y-73477380D01*
X74977678Y-72477380D02*
X75644345Y-73477380D01*
X74691964Y-72477380D02*
X74072916Y-72477380D01*
X74406250Y-72858333D01*
X74263392Y-72858333D01*
X74168154Y-72905952D01*
X74120535Y-72953571D01*
X74072916Y-73048809D01*
X74072916Y-73286904D01*
X74120535Y-73382142D01*
X74168154Y-73429761D01*
X74263392Y-73477380D01*
X74549107Y-73477380D01*
X74644345Y-73429761D01*
X74691964Y-73382142D01*
X95741964Y-73477380D02*
X95741964Y-72477380D01*
X95408630Y-73191666D01*
X95075297Y-72477380D01*
X95075297Y-73477380D01*
X94694345Y-72477380D02*
X94027678Y-73477380D01*
X94027678Y-72477380D02*
X94694345Y-73477380D01*
X93218154Y-72810714D02*
X93218154Y-73477380D01*
X93456250Y-72429761D02*
X93694345Y-73144047D01*
X93075297Y-73144047D01*
X114791964Y-73477380D02*
X114791964Y-72477380D01*
X114458630Y-73191666D01*
X114125297Y-72477380D01*
X114125297Y-73477380D01*
X113744345Y-72477380D02*
X113077678Y-73477380D01*
X113077678Y-72477380D02*
X113744345Y-73477380D01*
X112220535Y-72477380D02*
X112696726Y-72477380D01*
X112744345Y-72953571D01*
X112696726Y-72905952D01*
X112601488Y-72858333D01*
X112363392Y-72858333D01*
X112268154Y-72905952D01*
X112220535Y-72953571D01*
X112172916Y-73048809D01*
X112172916Y-73286904D01*
X112220535Y-73382142D01*
X112268154Y-73429761D01*
X112363392Y-73477380D01*
X112601488Y-73477380D01*
X112696726Y-73429761D01*
X112744345Y-73382142D01*
X171941964Y-73477380D02*
X171941964Y-72477380D01*
X171608630Y-73191666D01*
X171275297Y-72477380D01*
X171275297Y-73477380D01*
X170894345Y-72477380D02*
X170227678Y-73477380D01*
X170227678Y-72477380D02*
X170894345Y-73477380D01*
X169418154Y-72477380D02*
X169608630Y-72477380D01*
X169703869Y-72525000D01*
X169751488Y-72572619D01*
X169846726Y-72715476D01*
X169894345Y-72905952D01*
X169894345Y-73286904D01*
X169846726Y-73382142D01*
X169799107Y-73429761D01*
X169703869Y-73477380D01*
X169513392Y-73477380D01*
X169418154Y-73429761D01*
X169370535Y-73382142D01*
X169322916Y-73286904D01*
X169322916Y-73048809D01*
X169370535Y-72953571D01*
X169418154Y-72905952D01*
X169513392Y-72858333D01*
X169703869Y-72858333D01*
X169799107Y-72905952D01*
X169846726Y-72953571D01*
X169894345Y-73048809D01*
X190991964Y-73477380D02*
X190991964Y-72477380D01*
X190658630Y-73191666D01*
X190325297Y-72477380D01*
X190325297Y-73477380D01*
X189944345Y-72477380D02*
X189277678Y-73477380D01*
X189277678Y-72477380D02*
X189944345Y-73477380D01*
X188991964Y-72477380D02*
X188325297Y-72477380D01*
X188753869Y-73477380D01*
X210041964Y-73477380D02*
X210041964Y-72477380D01*
X209708630Y-73191666D01*
X209375297Y-72477380D01*
X209375297Y-73477380D01*
X208994345Y-72477380D02*
X208327678Y-73477380D01*
X208327678Y-72477380D02*
X208994345Y-73477380D01*
X207803869Y-72905952D02*
X207899107Y-72858333D01*
X207946726Y-72810714D01*
X207994345Y-72715476D01*
X207994345Y-72667857D01*
X207946726Y-72572619D01*
X207899107Y-72525000D01*
X207803869Y-72477380D01*
X207613392Y-72477380D01*
X207518154Y-72525000D01*
X207470535Y-72572619D01*
X207422916Y-72667857D01*
X207422916Y-72715476D01*
X207470535Y-72810714D01*
X207518154Y-72858333D01*
X207613392Y-72905952D01*
X207803869Y-72905952D01*
X207899107Y-72953571D01*
X207946726Y-73001190D01*
X207994345Y-73096428D01*
X207994345Y-73286904D01*
X207946726Y-73382142D01*
X207899107Y-73429761D01*
X207803869Y-73477380D01*
X207613392Y-73477380D01*
X207518154Y-73429761D01*
X207470535Y-73382142D01*
X207422916Y-73286904D01*
X207422916Y-73096428D01*
X207470535Y-73001190D01*
X207518154Y-72953571D01*
X207613392Y-72905952D01*
X229091964Y-73477380D02*
X229091964Y-72477380D01*
X228758630Y-73191666D01*
X228425297Y-72477380D01*
X228425297Y-73477380D01*
X228044345Y-72477380D02*
X227377678Y-73477380D01*
X227377678Y-72477380D02*
X228044345Y-73477380D01*
X226949107Y-73477380D02*
X226758630Y-73477380D01*
X226663392Y-73429761D01*
X226615773Y-73382142D01*
X226520535Y-73239285D01*
X226472916Y-73048809D01*
X226472916Y-72667857D01*
X226520535Y-72572619D01*
X226568154Y-72525000D01*
X226663392Y-72477380D01*
X226853869Y-72477380D01*
X226949107Y-72525000D01*
X226996726Y-72572619D01*
X227044345Y-72667857D01*
X227044345Y-72905952D01*
X226996726Y-73001190D01*
X226949107Y-73048809D01*
X226853869Y-73096428D01*
X226663392Y-73096428D01*
X226568154Y-73048809D01*
X226520535Y-73001190D01*
X226472916Y-72905952D01*
X248618154Y-73477380D02*
X248618154Y-72477380D01*
X248284821Y-73191666D01*
X247951488Y-72477380D01*
X247951488Y-73477380D01*
X247570535Y-72477380D02*
X246903869Y-73477380D01*
X246903869Y-72477380D02*
X247570535Y-73477380D01*
X245999107Y-73477380D02*
X246570535Y-73477380D01*
X246284821Y-73477380D02*
X246284821Y-72477380D01*
X246380059Y-72620238D01*
X246475297Y-72715476D01*
X246570535Y-72763095D01*
X245380059Y-72477380D02*
X245284821Y-72477380D01*
X245189583Y-72525000D01*
X245141964Y-72572619D01*
X245094345Y-72667857D01*
X245046726Y-72858333D01*
X245046726Y-73096428D01*
X245094345Y-73286904D01*
X245141964Y-73382142D01*
X245189583Y-73429761D01*
X245284821Y-73477380D01*
X245380059Y-73477380D01*
X245475297Y-73429761D01*
X245522916Y-73382142D01*
X245570535Y-73286904D01*
X245618154Y-73096428D01*
X245618154Y-72858333D01*
X245570535Y-72667857D01*
X245522916Y-72572619D01*
X245475297Y-72525000D01*
X245380059Y-72477380D01*
X267668154Y-73477380D02*
X267668154Y-72477380D01*
X267334821Y-73191666D01*
X267001488Y-72477380D01*
X267001488Y-73477380D01*
X266620535Y-72477380D02*
X265953869Y-73477380D01*
X265953869Y-72477380D02*
X266620535Y-73477380D01*
X265049107Y-73477380D02*
X265620535Y-73477380D01*
X265334821Y-73477380D02*
X265334821Y-72477380D01*
X265430059Y-72620238D01*
X265525297Y-72715476D01*
X265620535Y-72763095D01*
X264096726Y-73477380D02*
X264668154Y-73477380D01*
X264382440Y-73477380D02*
X264382440Y-72477380D01*
X264477678Y-72620238D01*
X264572916Y-72715476D01*
X264668154Y-72763095D01*
X39068154Y-92527380D02*
X39068154Y-91527380D01*
X38734821Y-92241666D01*
X38401488Y-91527380D01*
X38401488Y-92527380D01*
X38020535Y-91527380D02*
X37353869Y-92527380D01*
X37353869Y-91527380D02*
X38020535Y-92527380D01*
X36449107Y-92527380D02*
X37020535Y-92527380D01*
X36734821Y-92527380D02*
X36734821Y-91527380D01*
X36830059Y-91670238D01*
X36925297Y-91765476D01*
X37020535Y-91813095D01*
X36068154Y-91622619D02*
X36020535Y-91575000D01*
X35925297Y-91527380D01*
X35687202Y-91527380D01*
X35591964Y-91575000D01*
X35544345Y-91622619D01*
X35496726Y-91717857D01*
X35496726Y-91813095D01*
X35544345Y-91955952D01*
X36115773Y-92527380D01*
X35496726Y-92527380D01*
X58118154Y-92527380D02*
X58118154Y-91527380D01*
X57784821Y-92241666D01*
X57451488Y-91527380D01*
X57451488Y-92527380D01*
X57070535Y-91527380D02*
X56403869Y-92527380D01*
X56403869Y-91527380D02*
X57070535Y-92527380D01*
X55499107Y-92527380D02*
X56070535Y-92527380D01*
X55784821Y-92527380D02*
X55784821Y-91527380D01*
X55880059Y-91670238D01*
X55975297Y-91765476D01*
X56070535Y-91813095D01*
X55165773Y-91527380D02*
X54546726Y-91527380D01*
X54880059Y-91908333D01*
X54737202Y-91908333D01*
X54641964Y-91955952D01*
X54594345Y-92003571D01*
X54546726Y-92098809D01*
X54546726Y-92336904D01*
X54594345Y-92432142D01*
X54641964Y-92479761D01*
X54737202Y-92527380D01*
X55022916Y-92527380D01*
X55118154Y-92479761D01*
X55165773Y-92432142D01*
X77168154Y-92527380D02*
X77168154Y-91527380D01*
X76834821Y-92241666D01*
X76501488Y-91527380D01*
X76501488Y-92527380D01*
X76120535Y-91527380D02*
X75453869Y-92527380D01*
X75453869Y-91527380D02*
X76120535Y-92527380D01*
X74549107Y-92527380D02*
X75120535Y-92527380D01*
X74834821Y-92527380D02*
X74834821Y-91527380D01*
X74930059Y-91670238D01*
X75025297Y-91765476D01*
X75120535Y-91813095D01*
X73691964Y-91860714D02*
X73691964Y-92527380D01*
X73930059Y-91479761D02*
X74168154Y-92194047D01*
X73549107Y-92194047D01*
X96218154Y-92527380D02*
X96218154Y-91527380D01*
X95884821Y-92241666D01*
X95551488Y-91527380D01*
X95551488Y-92527380D01*
X95170535Y-91527380D02*
X94503869Y-92527380D01*
X94503869Y-91527380D02*
X95170535Y-92527380D01*
X93599107Y-92527380D02*
X94170535Y-92527380D01*
X93884821Y-92527380D02*
X93884821Y-91527380D01*
X93980059Y-91670238D01*
X94075297Y-91765476D01*
X94170535Y-91813095D01*
X92694345Y-91527380D02*
X93170535Y-91527380D01*
X93218154Y-92003571D01*
X93170535Y-91955952D01*
X93075297Y-91908333D01*
X92837202Y-91908333D01*
X92741964Y-91955952D01*
X92694345Y-92003571D01*
X92646726Y-92098809D01*
X92646726Y-92336904D01*
X92694345Y-92432142D01*
X92741964Y-92479761D01*
X92837202Y-92527380D01*
X93075297Y-92527380D01*
X93170535Y-92479761D01*
X93218154Y-92432142D01*
X115268154Y-92527380D02*
X115268154Y-91527380D01*
X114934821Y-92241666D01*
X114601488Y-91527380D01*
X114601488Y-92527380D01*
X114220535Y-91527380D02*
X113553869Y-92527380D01*
X113553869Y-91527380D02*
X114220535Y-92527380D01*
X112649107Y-92527380D02*
X113220535Y-92527380D01*
X112934821Y-92527380D02*
X112934821Y-91527380D01*
X113030059Y-91670238D01*
X113125297Y-91765476D01*
X113220535Y-91813095D01*
X111791964Y-91527380D02*
X111982440Y-91527380D01*
X112077678Y-91575000D01*
X112125297Y-91622619D01*
X112220535Y-91765476D01*
X112268154Y-91955952D01*
X112268154Y-92336904D01*
X112220535Y-92432142D01*
X112172916Y-92479761D01*
X112077678Y-92527380D01*
X111887202Y-92527380D01*
X111791964Y-92479761D01*
X111744345Y-92432142D01*
X111696726Y-92336904D01*
X111696726Y-92098809D01*
X111744345Y-92003571D01*
X111791964Y-91955952D01*
X111887202Y-91908333D01*
X112077678Y-91908333D01*
X112172916Y-91955952D01*
X112220535Y-92003571D01*
X112268154Y-92098809D01*
X172418154Y-92527380D02*
X172418154Y-91527380D01*
X172084821Y-92241666D01*
X171751488Y-91527380D01*
X171751488Y-92527380D01*
X171370535Y-91527380D02*
X170703869Y-92527380D01*
X170703869Y-91527380D02*
X171370535Y-92527380D01*
X169799107Y-92527380D02*
X170370535Y-92527380D01*
X170084821Y-92527380D02*
X170084821Y-91527380D01*
X170180059Y-91670238D01*
X170275297Y-91765476D01*
X170370535Y-91813095D01*
X169465773Y-91527380D02*
X168799107Y-91527380D01*
X169227678Y-92527380D01*
X191468154Y-92527380D02*
X191468154Y-91527380D01*
X191134821Y-92241666D01*
X190801488Y-91527380D01*
X190801488Y-92527380D01*
X190420535Y-91527380D02*
X189753869Y-92527380D01*
X189753869Y-91527380D02*
X190420535Y-92527380D01*
X188849107Y-92527380D02*
X189420535Y-92527380D01*
X189134821Y-92527380D02*
X189134821Y-91527380D01*
X189230059Y-91670238D01*
X189325297Y-91765476D01*
X189420535Y-91813095D01*
X188277678Y-91955952D02*
X188372916Y-91908333D01*
X188420535Y-91860714D01*
X188468154Y-91765476D01*
X188468154Y-91717857D01*
X188420535Y-91622619D01*
X188372916Y-91575000D01*
X188277678Y-91527380D01*
X188087202Y-91527380D01*
X187991964Y-91575000D01*
X187944345Y-91622619D01*
X187896726Y-91717857D01*
X187896726Y-91765476D01*
X187944345Y-91860714D01*
X187991964Y-91908333D01*
X188087202Y-91955952D01*
X188277678Y-91955952D01*
X188372916Y-92003571D01*
X188420535Y-92051190D01*
X188468154Y-92146428D01*
X188468154Y-92336904D01*
X188420535Y-92432142D01*
X188372916Y-92479761D01*
X188277678Y-92527380D01*
X188087202Y-92527380D01*
X187991964Y-92479761D01*
X187944345Y-92432142D01*
X187896726Y-92336904D01*
X187896726Y-92146428D01*
X187944345Y-92051190D01*
X187991964Y-92003571D01*
X188087202Y-91955952D01*
X210518154Y-92527380D02*
X210518154Y-91527380D01*
X210184821Y-92241666D01*
X209851488Y-91527380D01*
X209851488Y-92527380D01*
X209470535Y-91527380D02*
X208803869Y-92527380D01*
X208803869Y-91527380D02*
X209470535Y-92527380D01*
X207899107Y-92527380D02*
X208470535Y-92527380D01*
X208184821Y-92527380D02*
X208184821Y-91527380D01*
X208280059Y-91670238D01*
X208375297Y-91765476D01*
X208470535Y-91813095D01*
X207422916Y-92527380D02*
X207232440Y-92527380D01*
X207137202Y-92479761D01*
X207089583Y-92432142D01*
X206994345Y-92289285D01*
X206946726Y-92098809D01*
X206946726Y-91717857D01*
X206994345Y-91622619D01*
X207041964Y-91575000D01*
X207137202Y-91527380D01*
X207327678Y-91527380D01*
X207422916Y-91575000D01*
X207470535Y-91622619D01*
X207518154Y-91717857D01*
X207518154Y-91955952D01*
X207470535Y-92051190D01*
X207422916Y-92098809D01*
X207327678Y-92146428D01*
X207137202Y-92146428D01*
X207041964Y-92098809D01*
X206994345Y-92051190D01*
X206946726Y-91955952D01*
X229568154Y-92527380D02*
X229568154Y-91527380D01*
X229234821Y-92241666D01*
X228901488Y-91527380D01*
X228901488Y-92527380D01*
X228520535Y-91527380D02*
X227853869Y-92527380D01*
X227853869Y-91527380D02*
X228520535Y-92527380D01*
X227520535Y-91622619D02*
X227472916Y-91575000D01*
X227377678Y-91527380D01*
X227139583Y-91527380D01*
X227044345Y-91575000D01*
X226996726Y-91622619D01*
X226949107Y-91717857D01*
X226949107Y-91813095D01*
X226996726Y-91955952D01*
X227568154Y-92527380D01*
X226949107Y-92527380D01*
X226330059Y-91527380D02*
X226234821Y-91527380D01*
X226139583Y-91575000D01*
X226091964Y-91622619D01*
X226044345Y-91717857D01*
X225996726Y-91908333D01*
X225996726Y-92146428D01*
X226044345Y-92336904D01*
X226091964Y-92432142D01*
X226139583Y-92479761D01*
X226234821Y-92527380D01*
X226330059Y-92527380D01*
X226425297Y-92479761D01*
X226472916Y-92432142D01*
X226520535Y-92336904D01*
X226568154Y-92146428D01*
X226568154Y-91908333D01*
X226520535Y-91717857D01*
X226472916Y-91622619D01*
X226425297Y-91575000D01*
X226330059Y-91527380D01*
X248618154Y-92527380D02*
X248618154Y-91527380D01*
X248284821Y-92241666D01*
X247951488Y-91527380D01*
X247951488Y-92527380D01*
X247570535Y-91527380D02*
X246903869Y-92527380D01*
X246903869Y-91527380D02*
X247570535Y-92527380D01*
X246570535Y-91622619D02*
X246522916Y-91575000D01*
X246427678Y-91527380D01*
X246189583Y-91527380D01*
X246094345Y-91575000D01*
X246046726Y-91622619D01*
X245999107Y-91717857D01*
X245999107Y-91813095D01*
X246046726Y-91955952D01*
X246618154Y-92527380D01*
X245999107Y-92527380D01*
X245046726Y-92527380D02*
X245618154Y-92527380D01*
X245332440Y-92527380D02*
X245332440Y-91527380D01*
X245427678Y-91670238D01*
X245522916Y-91765476D01*
X245618154Y-91813095D01*
X267668154Y-92527380D02*
X267668154Y-91527380D01*
X267334821Y-92241666D01*
X267001488Y-91527380D01*
X267001488Y-92527380D01*
X266620535Y-91527380D02*
X265953869Y-92527380D01*
X265953869Y-91527380D02*
X266620535Y-92527380D01*
X265620535Y-91622619D02*
X265572916Y-91575000D01*
X265477678Y-91527380D01*
X265239583Y-91527380D01*
X265144345Y-91575000D01*
X265096726Y-91622619D01*
X265049107Y-91717857D01*
X265049107Y-91813095D01*
X265096726Y-91955952D01*
X265668154Y-92527380D01*
X265049107Y-92527380D01*
X264668154Y-91622619D02*
X264620535Y-91575000D01*
X264525297Y-91527380D01*
X264287202Y-91527380D01*
X264191964Y-91575000D01*
X264144345Y-91622619D01*
X264096726Y-91717857D01*
X264096726Y-91813095D01*
X264144345Y-91955952D01*
X264715773Y-92527380D01*
X264096726Y-92527380D01*
X77168154Y-130627380D02*
X77168154Y-129627380D01*
X76834821Y-130341666D01*
X76501488Y-129627380D01*
X76501488Y-130627380D01*
X76120535Y-129627380D02*
X75453869Y-130627380D01*
X75453869Y-129627380D02*
X76120535Y-130627380D01*
X75120535Y-129722619D02*
X75072916Y-129675000D01*
X74977678Y-129627380D01*
X74739583Y-129627380D01*
X74644345Y-129675000D01*
X74596726Y-129722619D01*
X74549107Y-129817857D01*
X74549107Y-129913095D01*
X74596726Y-130055952D01*
X75168154Y-130627380D01*
X74549107Y-130627380D01*
X74215773Y-129627380D02*
X73596726Y-129627380D01*
X73930059Y-130008333D01*
X73787202Y-130008333D01*
X73691964Y-130055952D01*
X73644345Y-130103571D01*
X73596726Y-130198809D01*
X73596726Y-130436904D01*
X73644345Y-130532142D01*
X73691964Y-130579761D01*
X73787202Y-130627380D01*
X74072916Y-130627380D01*
X74168154Y-130579761D01*
X74215773Y-130532142D01*
X96218154Y-130627380D02*
X96218154Y-129627380D01*
X95884821Y-130341666D01*
X95551488Y-129627380D01*
X95551488Y-130627380D01*
X95170535Y-129627380D02*
X94503869Y-130627380D01*
X94503869Y-129627380D02*
X95170535Y-130627380D01*
X94170535Y-129722619D02*
X94122916Y-129675000D01*
X94027678Y-129627380D01*
X93789583Y-129627380D01*
X93694345Y-129675000D01*
X93646726Y-129722619D01*
X93599107Y-129817857D01*
X93599107Y-129913095D01*
X93646726Y-130055952D01*
X94218154Y-130627380D01*
X93599107Y-130627380D01*
X92741964Y-129960714D02*
X92741964Y-130627380D01*
X92980059Y-129579761D02*
X93218154Y-130294047D01*
X92599107Y-130294047D01*
X172418154Y-130627380D02*
X172418154Y-129627380D01*
X172084821Y-130341666D01*
X171751488Y-129627380D01*
X171751488Y-130627380D01*
X171370535Y-129627380D02*
X170703869Y-130627380D01*
X170703869Y-129627380D02*
X171370535Y-130627380D01*
X170370535Y-129722619D02*
X170322916Y-129675000D01*
X170227678Y-129627380D01*
X169989583Y-129627380D01*
X169894345Y-129675000D01*
X169846726Y-129722619D01*
X169799107Y-129817857D01*
X169799107Y-129913095D01*
X169846726Y-130055952D01*
X170418154Y-130627380D01*
X169799107Y-130627380D01*
X168941964Y-129627380D02*
X169132440Y-129627380D01*
X169227678Y-129675000D01*
X169275297Y-129722619D01*
X169370535Y-129865476D01*
X169418154Y-130055952D01*
X169418154Y-130436904D01*
X169370535Y-130532142D01*
X169322916Y-130579761D01*
X169227678Y-130627380D01*
X169037202Y-130627380D01*
X168941964Y-130579761D01*
X168894345Y-130532142D01*
X168846726Y-130436904D01*
X168846726Y-130198809D01*
X168894345Y-130103571D01*
X168941964Y-130055952D01*
X169037202Y-130008333D01*
X169227678Y-130008333D01*
X169322916Y-130055952D01*
X169370535Y-130103571D01*
X169418154Y-130198809D01*
X191468154Y-130627380D02*
X191468154Y-129627380D01*
X191134821Y-130341666D01*
X190801488Y-129627380D01*
X190801488Y-130627380D01*
X190420535Y-129627380D02*
X189753869Y-130627380D01*
X189753869Y-129627380D02*
X190420535Y-130627380D01*
X189420535Y-129722619D02*
X189372916Y-129675000D01*
X189277678Y-129627380D01*
X189039583Y-129627380D01*
X188944345Y-129675000D01*
X188896726Y-129722619D01*
X188849107Y-129817857D01*
X188849107Y-129913095D01*
X188896726Y-130055952D01*
X189468154Y-130627380D01*
X188849107Y-130627380D01*
X188515773Y-129627380D02*
X187849107Y-129627380D01*
X188277678Y-130627380D01*
X115268154Y-130627380D02*
X115268154Y-129627380D01*
X114934821Y-130341666D01*
X114601488Y-129627380D01*
X114601488Y-130627380D01*
X114220535Y-129627380D02*
X113553869Y-130627380D01*
X113553869Y-129627380D02*
X114220535Y-130627380D01*
X113220535Y-129722619D02*
X113172916Y-129675000D01*
X113077678Y-129627380D01*
X112839583Y-129627380D01*
X112744345Y-129675000D01*
X112696726Y-129722619D01*
X112649107Y-129817857D01*
X112649107Y-129913095D01*
X112696726Y-130055952D01*
X113268154Y-130627380D01*
X112649107Y-130627380D01*
X111744345Y-129627380D02*
X112220535Y-129627380D01*
X112268154Y-130103571D01*
X112220535Y-130055952D01*
X112125297Y-130008333D01*
X111887202Y-130008333D01*
X111791964Y-130055952D01*
X111744345Y-130103571D01*
X111696726Y-130198809D01*
X111696726Y-130436904D01*
X111744345Y-130532142D01*
X111791964Y-130579761D01*
X111887202Y-130627380D01*
X112125297Y-130627380D01*
X112220535Y-130579761D01*
X112268154Y-130532142D01*
X210518154Y-130627380D02*
X210518154Y-129627380D01*
X210184821Y-130341666D01*
X209851488Y-129627380D01*
X209851488Y-130627380D01*
X209470535Y-129627380D02*
X208803869Y-130627380D01*
X208803869Y-129627380D02*
X209470535Y-130627380D01*
X208470535Y-129722619D02*
X208422916Y-129675000D01*
X208327678Y-129627380D01*
X208089583Y-129627380D01*
X207994345Y-129675000D01*
X207946726Y-129722619D01*
X207899107Y-129817857D01*
X207899107Y-129913095D01*
X207946726Y-130055952D01*
X208518154Y-130627380D01*
X207899107Y-130627380D01*
X207327678Y-130055952D02*
X207422916Y-130008333D01*
X207470535Y-129960714D01*
X207518154Y-129865476D01*
X207518154Y-129817857D01*
X207470535Y-129722619D01*
X207422916Y-129675000D01*
X207327678Y-129627380D01*
X207137202Y-129627380D01*
X207041964Y-129675000D01*
X206994345Y-129722619D01*
X206946726Y-129817857D01*
X206946726Y-129865476D01*
X206994345Y-129960714D01*
X207041964Y-130008333D01*
X207137202Y-130055952D01*
X207327678Y-130055952D01*
X207422916Y-130103571D01*
X207470535Y-130151190D01*
X207518154Y-130246428D01*
X207518154Y-130436904D01*
X207470535Y-130532142D01*
X207422916Y-130579761D01*
X207327678Y-130627380D01*
X207137202Y-130627380D01*
X207041964Y-130579761D01*
X206994345Y-130532142D01*
X206946726Y-130436904D01*
X206946726Y-130246428D01*
X206994345Y-130151190D01*
X207041964Y-130103571D01*
X207137202Y-130055952D01*
X37896726Y-76899404D02*
X37896726Y-76099404D01*
X37706250Y-76099404D01*
X37591964Y-76137500D01*
X37515773Y-76213690D01*
X37477678Y-76289880D01*
X37439583Y-76442261D01*
X37439583Y-76556547D01*
X37477678Y-76708928D01*
X37515773Y-76785119D01*
X37591964Y-76861309D01*
X37706250Y-76899404D01*
X37896726Y-76899404D01*
X36677678Y-76899404D02*
X37134821Y-76899404D01*
X36906250Y-76899404D02*
X36906250Y-76099404D01*
X36982440Y-76213690D01*
X37058630Y-76289880D01*
X37134821Y-76327976D01*
X56946726Y-76899404D02*
X56946726Y-76099404D01*
X56756250Y-76099404D01*
X56641964Y-76137500D01*
X56565773Y-76213690D01*
X56527678Y-76289880D01*
X56489583Y-76442261D01*
X56489583Y-76556547D01*
X56527678Y-76708928D01*
X56565773Y-76785119D01*
X56641964Y-76861309D01*
X56756250Y-76899404D01*
X56946726Y-76899404D01*
X56184821Y-76175595D02*
X56146726Y-76137500D01*
X56070535Y-76099404D01*
X55880059Y-76099404D01*
X55803869Y-76137500D01*
X55765773Y-76175595D01*
X55727678Y-76251785D01*
X55727678Y-76327976D01*
X55765773Y-76442261D01*
X56222916Y-76899404D01*
X55727678Y-76899404D01*
X75884226Y-76899404D02*
X75884226Y-76099404D01*
X75693750Y-76099404D01*
X75579464Y-76137500D01*
X75503273Y-76213690D01*
X75465178Y-76289880D01*
X75427083Y-76442261D01*
X75427083Y-76556547D01*
X75465178Y-76708928D01*
X75503273Y-76785119D01*
X75579464Y-76861309D01*
X75693750Y-76899404D01*
X75884226Y-76899404D01*
X75160416Y-76099404D02*
X74665178Y-76099404D01*
X74931845Y-76404166D01*
X74817559Y-76404166D01*
X74741369Y-76442261D01*
X74703273Y-76480357D01*
X74665178Y-76556547D01*
X74665178Y-76747023D01*
X74703273Y-76823214D01*
X74741369Y-76861309D01*
X74817559Y-76899404D01*
X75046130Y-76899404D01*
X75122321Y-76861309D01*
X75160416Y-76823214D01*
X95046726Y-76899404D02*
X95046726Y-76099404D01*
X94856250Y-76099404D01*
X94741964Y-76137500D01*
X94665773Y-76213690D01*
X94627678Y-76289880D01*
X94589583Y-76442261D01*
X94589583Y-76556547D01*
X94627678Y-76708928D01*
X94665773Y-76785119D01*
X94741964Y-76861309D01*
X94856250Y-76899404D01*
X95046726Y-76899404D01*
X93903869Y-76366071D02*
X93903869Y-76899404D01*
X94094345Y-76061309D02*
X94284821Y-76632738D01*
X93789583Y-76632738D01*
X114096726Y-76899404D02*
X114096726Y-76099404D01*
X113906250Y-76099404D01*
X113791964Y-76137500D01*
X113715773Y-76213690D01*
X113677678Y-76289880D01*
X113639583Y-76442261D01*
X113639583Y-76556547D01*
X113677678Y-76708928D01*
X113715773Y-76785119D01*
X113791964Y-76861309D01*
X113906250Y-76899404D01*
X114096726Y-76899404D01*
X112915773Y-76099404D02*
X113296726Y-76099404D01*
X113334821Y-76480357D01*
X113296726Y-76442261D01*
X113220535Y-76404166D01*
X113030059Y-76404166D01*
X112953869Y-76442261D01*
X112915773Y-76480357D01*
X112877678Y-76556547D01*
X112877678Y-76747023D01*
X112915773Y-76823214D01*
X112953869Y-76861309D01*
X113030059Y-76899404D01*
X113220535Y-76899404D01*
X113296726Y-76861309D01*
X113334821Y-76823214D01*
X171246726Y-76899404D02*
X171246726Y-76099404D01*
X171056250Y-76099404D01*
X170941964Y-76137500D01*
X170865773Y-76213690D01*
X170827678Y-76289880D01*
X170789583Y-76442261D01*
X170789583Y-76556547D01*
X170827678Y-76708928D01*
X170865773Y-76785119D01*
X170941964Y-76861309D01*
X171056250Y-76899404D01*
X171246726Y-76899404D01*
X170103869Y-76099404D02*
X170256250Y-76099404D01*
X170332440Y-76137500D01*
X170370535Y-76175595D01*
X170446726Y-76289880D01*
X170484821Y-76442261D01*
X170484821Y-76747023D01*
X170446726Y-76823214D01*
X170408630Y-76861309D01*
X170332440Y-76899404D01*
X170180059Y-76899404D01*
X170103869Y-76861309D01*
X170065773Y-76823214D01*
X170027678Y-76747023D01*
X170027678Y-76556547D01*
X170065773Y-76480357D01*
X170103869Y-76442261D01*
X170180059Y-76404166D01*
X170332440Y-76404166D01*
X170408630Y-76442261D01*
X170446726Y-76480357D01*
X170484821Y-76556547D01*
X190296726Y-76899404D02*
X190296726Y-76099404D01*
X190106250Y-76099404D01*
X189991964Y-76137500D01*
X189915773Y-76213690D01*
X189877678Y-76289880D01*
X189839583Y-76442261D01*
X189839583Y-76556547D01*
X189877678Y-76708928D01*
X189915773Y-76785119D01*
X189991964Y-76861309D01*
X190106250Y-76899404D01*
X190296726Y-76899404D01*
X189572916Y-76099404D02*
X189039583Y-76099404D01*
X189382440Y-76899404D01*
X209346726Y-76899404D02*
X209346726Y-76099404D01*
X209156250Y-76099404D01*
X209041964Y-76137500D01*
X208965773Y-76213690D01*
X208927678Y-76289880D01*
X208889583Y-76442261D01*
X208889583Y-76556547D01*
X208927678Y-76708928D01*
X208965773Y-76785119D01*
X209041964Y-76861309D01*
X209156250Y-76899404D01*
X209346726Y-76899404D01*
X208432440Y-76442261D02*
X208508630Y-76404166D01*
X208546726Y-76366071D01*
X208584821Y-76289880D01*
X208584821Y-76251785D01*
X208546726Y-76175595D01*
X208508630Y-76137500D01*
X208432440Y-76099404D01*
X208280059Y-76099404D01*
X208203869Y-76137500D01*
X208165773Y-76175595D01*
X208127678Y-76251785D01*
X208127678Y-76289880D01*
X208165773Y-76366071D01*
X208203869Y-76404166D01*
X208280059Y-76442261D01*
X208432440Y-76442261D01*
X208508630Y-76480357D01*
X208546726Y-76518452D01*
X208584821Y-76594642D01*
X208584821Y-76747023D01*
X208546726Y-76823214D01*
X208508630Y-76861309D01*
X208432440Y-76899404D01*
X208280059Y-76899404D01*
X208203869Y-76861309D01*
X208165773Y-76823214D01*
X208127678Y-76747023D01*
X208127678Y-76594642D01*
X208165773Y-76518452D01*
X208203869Y-76480357D01*
X208280059Y-76442261D01*
X228396726Y-76899404D02*
X228396726Y-76099404D01*
X228206250Y-76099404D01*
X228091964Y-76137500D01*
X228015773Y-76213690D01*
X227977678Y-76289880D01*
X227939583Y-76442261D01*
X227939583Y-76556547D01*
X227977678Y-76708928D01*
X228015773Y-76785119D01*
X228091964Y-76861309D01*
X228206250Y-76899404D01*
X228396726Y-76899404D01*
X227558630Y-76899404D02*
X227406250Y-76899404D01*
X227330059Y-76861309D01*
X227291964Y-76823214D01*
X227215773Y-76708928D01*
X227177678Y-76556547D01*
X227177678Y-76251785D01*
X227215773Y-76175595D01*
X227253869Y-76137500D01*
X227330059Y-76099404D01*
X227482440Y-76099404D01*
X227558630Y-76137500D01*
X227596726Y-76175595D01*
X227634821Y-76251785D01*
X227634821Y-76442261D01*
X227596726Y-76518452D01*
X227558630Y-76556547D01*
X227482440Y-76594642D01*
X227330059Y-76594642D01*
X227253869Y-76556547D01*
X227215773Y-76518452D01*
X227177678Y-76442261D01*
X247827678Y-76899404D02*
X247827678Y-76099404D01*
X247637202Y-76099404D01*
X247522916Y-76137500D01*
X247446726Y-76213690D01*
X247408630Y-76289880D01*
X247370535Y-76442261D01*
X247370535Y-76556547D01*
X247408630Y-76708928D01*
X247446726Y-76785119D01*
X247522916Y-76861309D01*
X247637202Y-76899404D01*
X247827678Y-76899404D01*
X246608630Y-76899404D02*
X247065773Y-76899404D01*
X246837202Y-76899404D02*
X246837202Y-76099404D01*
X246913392Y-76213690D01*
X246989583Y-76289880D01*
X247065773Y-76327976D01*
X246113392Y-76099404D02*
X246037202Y-76099404D01*
X245961011Y-76137500D01*
X245922916Y-76175595D01*
X245884821Y-76251785D01*
X245846726Y-76404166D01*
X245846726Y-76594642D01*
X245884821Y-76747023D01*
X245922916Y-76823214D01*
X245961011Y-76861309D01*
X246037202Y-76899404D01*
X246113392Y-76899404D01*
X246189583Y-76861309D01*
X246227678Y-76823214D01*
X246265773Y-76747023D01*
X246303869Y-76594642D01*
X246303869Y-76404166D01*
X246265773Y-76251785D01*
X246227678Y-76175595D01*
X246189583Y-76137500D01*
X246113392Y-76099404D01*
X266877678Y-76899404D02*
X266877678Y-76099404D01*
X266687202Y-76099404D01*
X266572916Y-76137500D01*
X266496726Y-76213690D01*
X266458630Y-76289880D01*
X266420535Y-76442261D01*
X266420535Y-76556547D01*
X266458630Y-76708928D01*
X266496726Y-76785119D01*
X266572916Y-76861309D01*
X266687202Y-76899404D01*
X266877678Y-76899404D01*
X265658630Y-76899404D02*
X266115773Y-76899404D01*
X265887202Y-76899404D02*
X265887202Y-76099404D01*
X265963392Y-76213690D01*
X266039583Y-76289880D01*
X266115773Y-76327976D01*
X264896726Y-76899404D02*
X265353869Y-76899404D01*
X265125297Y-76899404D02*
X265125297Y-76099404D01*
X265201488Y-76213690D01*
X265277678Y-76289880D01*
X265353869Y-76327976D01*
X38277678Y-95949404D02*
X38277678Y-95149404D01*
X38087202Y-95149404D01*
X37972916Y-95187500D01*
X37896726Y-95263690D01*
X37858630Y-95339880D01*
X37820535Y-95492261D01*
X37820535Y-95606547D01*
X37858630Y-95758928D01*
X37896726Y-95835119D01*
X37972916Y-95911309D01*
X38087202Y-95949404D01*
X38277678Y-95949404D01*
X37058630Y-95949404D02*
X37515773Y-95949404D01*
X37287202Y-95949404D02*
X37287202Y-95149404D01*
X37363392Y-95263690D01*
X37439583Y-95339880D01*
X37515773Y-95377976D01*
X36753869Y-95225595D02*
X36715773Y-95187500D01*
X36639583Y-95149404D01*
X36449107Y-95149404D01*
X36372916Y-95187500D01*
X36334821Y-95225595D01*
X36296726Y-95301785D01*
X36296726Y-95377976D01*
X36334821Y-95492261D01*
X36791964Y-95949404D01*
X36296726Y-95949404D01*
X57327678Y-95949404D02*
X57327678Y-95149404D01*
X57137202Y-95149404D01*
X57022916Y-95187500D01*
X56946726Y-95263690D01*
X56908630Y-95339880D01*
X56870535Y-95492261D01*
X56870535Y-95606547D01*
X56908630Y-95758928D01*
X56946726Y-95835119D01*
X57022916Y-95911309D01*
X57137202Y-95949404D01*
X57327678Y-95949404D01*
X56108630Y-95949404D02*
X56565773Y-95949404D01*
X56337202Y-95949404D02*
X56337202Y-95149404D01*
X56413392Y-95263690D01*
X56489583Y-95339880D01*
X56565773Y-95377976D01*
X55841964Y-95149404D02*
X55346726Y-95149404D01*
X55613392Y-95454166D01*
X55499107Y-95454166D01*
X55422916Y-95492261D01*
X55384821Y-95530357D01*
X55346726Y-95606547D01*
X55346726Y-95797023D01*
X55384821Y-95873214D01*
X55422916Y-95911309D01*
X55499107Y-95949404D01*
X55727678Y-95949404D01*
X55803869Y-95911309D01*
X55841964Y-95873214D01*
X76377678Y-95949404D02*
X76377678Y-95149404D01*
X76187202Y-95149404D01*
X76072916Y-95187500D01*
X75996726Y-95263690D01*
X75958630Y-95339880D01*
X75920535Y-95492261D01*
X75920535Y-95606547D01*
X75958630Y-95758928D01*
X75996726Y-95835119D01*
X76072916Y-95911309D01*
X76187202Y-95949404D01*
X76377678Y-95949404D01*
X75158630Y-95949404D02*
X75615773Y-95949404D01*
X75387202Y-95949404D02*
X75387202Y-95149404D01*
X75463392Y-95263690D01*
X75539583Y-95339880D01*
X75615773Y-95377976D01*
X74472916Y-95416071D02*
X74472916Y-95949404D01*
X74663392Y-95111309D02*
X74853869Y-95682738D01*
X74358630Y-95682738D01*
X95427678Y-95949404D02*
X95427678Y-95149404D01*
X95237202Y-95149404D01*
X95122916Y-95187500D01*
X95046726Y-95263690D01*
X95008630Y-95339880D01*
X94970535Y-95492261D01*
X94970535Y-95606547D01*
X95008630Y-95758928D01*
X95046726Y-95835119D01*
X95122916Y-95911309D01*
X95237202Y-95949404D01*
X95427678Y-95949404D01*
X94208630Y-95949404D02*
X94665773Y-95949404D01*
X94437202Y-95949404D02*
X94437202Y-95149404D01*
X94513392Y-95263690D01*
X94589583Y-95339880D01*
X94665773Y-95377976D01*
X93484821Y-95149404D02*
X93865773Y-95149404D01*
X93903869Y-95530357D01*
X93865773Y-95492261D01*
X93789583Y-95454166D01*
X93599107Y-95454166D01*
X93522916Y-95492261D01*
X93484821Y-95530357D01*
X93446726Y-95606547D01*
X93446726Y-95797023D01*
X93484821Y-95873214D01*
X93522916Y-95911309D01*
X93599107Y-95949404D01*
X93789583Y-95949404D01*
X93865773Y-95911309D01*
X93903869Y-95873214D01*
X114477678Y-95949404D02*
X114477678Y-95149404D01*
X114287202Y-95149404D01*
X114172916Y-95187500D01*
X114096726Y-95263690D01*
X114058630Y-95339880D01*
X114020535Y-95492261D01*
X114020535Y-95606547D01*
X114058630Y-95758928D01*
X114096726Y-95835119D01*
X114172916Y-95911309D01*
X114287202Y-95949404D01*
X114477678Y-95949404D01*
X113258630Y-95949404D02*
X113715773Y-95949404D01*
X113487202Y-95949404D02*
X113487202Y-95149404D01*
X113563392Y-95263690D01*
X113639583Y-95339880D01*
X113715773Y-95377976D01*
X112572916Y-95149404D02*
X112725297Y-95149404D01*
X112801488Y-95187500D01*
X112839583Y-95225595D01*
X112915773Y-95339880D01*
X112953869Y-95492261D01*
X112953869Y-95797023D01*
X112915773Y-95873214D01*
X112877678Y-95911309D01*
X112801488Y-95949404D01*
X112649107Y-95949404D01*
X112572916Y-95911309D01*
X112534821Y-95873214D01*
X112496726Y-95797023D01*
X112496726Y-95606547D01*
X112534821Y-95530357D01*
X112572916Y-95492261D01*
X112649107Y-95454166D01*
X112801488Y-95454166D01*
X112877678Y-95492261D01*
X112915773Y-95530357D01*
X112953869Y-95606547D01*
X171627678Y-95949404D02*
X171627678Y-95149404D01*
X171437202Y-95149404D01*
X171322916Y-95187500D01*
X171246726Y-95263690D01*
X171208630Y-95339880D01*
X171170535Y-95492261D01*
X171170535Y-95606547D01*
X171208630Y-95758928D01*
X171246726Y-95835119D01*
X171322916Y-95911309D01*
X171437202Y-95949404D01*
X171627678Y-95949404D01*
X170408630Y-95949404D02*
X170865773Y-95949404D01*
X170637202Y-95949404D02*
X170637202Y-95149404D01*
X170713392Y-95263690D01*
X170789583Y-95339880D01*
X170865773Y-95377976D01*
X170141964Y-95149404D02*
X169608630Y-95149404D01*
X169951488Y-95949404D01*
X190677678Y-95949404D02*
X190677678Y-95149404D01*
X190487202Y-95149404D01*
X190372916Y-95187500D01*
X190296726Y-95263690D01*
X190258630Y-95339880D01*
X190220535Y-95492261D01*
X190220535Y-95606547D01*
X190258630Y-95758928D01*
X190296726Y-95835119D01*
X190372916Y-95911309D01*
X190487202Y-95949404D01*
X190677678Y-95949404D01*
X189458630Y-95949404D02*
X189915773Y-95949404D01*
X189687202Y-95949404D02*
X189687202Y-95149404D01*
X189763392Y-95263690D01*
X189839583Y-95339880D01*
X189915773Y-95377976D01*
X189001488Y-95492261D02*
X189077678Y-95454166D01*
X189115773Y-95416071D01*
X189153869Y-95339880D01*
X189153869Y-95301785D01*
X189115773Y-95225595D01*
X189077678Y-95187500D01*
X189001488Y-95149404D01*
X188849107Y-95149404D01*
X188772916Y-95187500D01*
X188734821Y-95225595D01*
X188696726Y-95301785D01*
X188696726Y-95339880D01*
X188734821Y-95416071D01*
X188772916Y-95454166D01*
X188849107Y-95492261D01*
X189001488Y-95492261D01*
X189077678Y-95530357D01*
X189115773Y-95568452D01*
X189153869Y-95644642D01*
X189153869Y-95797023D01*
X189115773Y-95873214D01*
X189077678Y-95911309D01*
X189001488Y-95949404D01*
X188849107Y-95949404D01*
X188772916Y-95911309D01*
X188734821Y-95873214D01*
X188696726Y-95797023D01*
X188696726Y-95644642D01*
X188734821Y-95568452D01*
X188772916Y-95530357D01*
X188849107Y-95492261D01*
X209727678Y-95949404D02*
X209727678Y-95149404D01*
X209537202Y-95149404D01*
X209422916Y-95187500D01*
X209346726Y-95263690D01*
X209308630Y-95339880D01*
X209270535Y-95492261D01*
X209270535Y-95606547D01*
X209308630Y-95758928D01*
X209346726Y-95835119D01*
X209422916Y-95911309D01*
X209537202Y-95949404D01*
X209727678Y-95949404D01*
X208508630Y-95949404D02*
X208965773Y-95949404D01*
X208737202Y-95949404D02*
X208737202Y-95149404D01*
X208813392Y-95263690D01*
X208889583Y-95339880D01*
X208965773Y-95377976D01*
X208127678Y-95949404D02*
X207975297Y-95949404D01*
X207899107Y-95911309D01*
X207861011Y-95873214D01*
X207784821Y-95758928D01*
X207746726Y-95606547D01*
X207746726Y-95301785D01*
X207784821Y-95225595D01*
X207822916Y-95187500D01*
X207899107Y-95149404D01*
X208051488Y-95149404D01*
X208127678Y-95187500D01*
X208165773Y-95225595D01*
X208203869Y-95301785D01*
X208203869Y-95492261D01*
X208165773Y-95568452D01*
X208127678Y-95606547D01*
X208051488Y-95644642D01*
X207899107Y-95644642D01*
X207822916Y-95606547D01*
X207784821Y-95568452D01*
X207746726Y-95492261D01*
X228777678Y-95949404D02*
X228777678Y-95149404D01*
X228587202Y-95149404D01*
X228472916Y-95187500D01*
X228396726Y-95263690D01*
X228358630Y-95339880D01*
X228320535Y-95492261D01*
X228320535Y-95606547D01*
X228358630Y-95758928D01*
X228396726Y-95835119D01*
X228472916Y-95911309D01*
X228587202Y-95949404D01*
X228777678Y-95949404D01*
X228015773Y-95225595D02*
X227977678Y-95187500D01*
X227901488Y-95149404D01*
X227711011Y-95149404D01*
X227634821Y-95187500D01*
X227596726Y-95225595D01*
X227558630Y-95301785D01*
X227558630Y-95377976D01*
X227596726Y-95492261D01*
X228053869Y-95949404D01*
X227558630Y-95949404D01*
X227063392Y-95149404D02*
X226987202Y-95149404D01*
X226911011Y-95187500D01*
X226872916Y-95225595D01*
X226834821Y-95301785D01*
X226796726Y-95454166D01*
X226796726Y-95644642D01*
X226834821Y-95797023D01*
X226872916Y-95873214D01*
X226911011Y-95911309D01*
X226987202Y-95949404D01*
X227063392Y-95949404D01*
X227139583Y-95911309D01*
X227177678Y-95873214D01*
X227215773Y-95797023D01*
X227253869Y-95644642D01*
X227253869Y-95454166D01*
X227215773Y-95301785D01*
X227177678Y-95225595D01*
X227139583Y-95187500D01*
X227063392Y-95149404D01*
X247827678Y-95949404D02*
X247827678Y-95149404D01*
X247637202Y-95149404D01*
X247522916Y-95187500D01*
X247446726Y-95263690D01*
X247408630Y-95339880D01*
X247370535Y-95492261D01*
X247370535Y-95606547D01*
X247408630Y-95758928D01*
X247446726Y-95835119D01*
X247522916Y-95911309D01*
X247637202Y-95949404D01*
X247827678Y-95949404D01*
X247065773Y-95225595D02*
X247027678Y-95187500D01*
X246951488Y-95149404D01*
X246761011Y-95149404D01*
X246684821Y-95187500D01*
X246646726Y-95225595D01*
X246608630Y-95301785D01*
X246608630Y-95377976D01*
X246646726Y-95492261D01*
X247103869Y-95949404D01*
X246608630Y-95949404D01*
X245846726Y-95949404D02*
X246303869Y-95949404D01*
X246075297Y-95949404D02*
X246075297Y-95149404D01*
X246151488Y-95263690D01*
X246227678Y-95339880D01*
X246303869Y-95377976D01*
X266877678Y-95949404D02*
X266877678Y-95149404D01*
X266687202Y-95149404D01*
X266572916Y-95187500D01*
X266496726Y-95263690D01*
X266458630Y-95339880D01*
X266420535Y-95492261D01*
X266420535Y-95606547D01*
X266458630Y-95758928D01*
X266496726Y-95835119D01*
X266572916Y-95911309D01*
X266687202Y-95949404D01*
X266877678Y-95949404D01*
X266115773Y-95225595D02*
X266077678Y-95187500D01*
X266001488Y-95149404D01*
X265811011Y-95149404D01*
X265734821Y-95187500D01*
X265696726Y-95225595D01*
X265658630Y-95301785D01*
X265658630Y-95377976D01*
X265696726Y-95492261D01*
X266153869Y-95949404D01*
X265658630Y-95949404D01*
X265353869Y-95225595D02*
X265315773Y-95187500D01*
X265239583Y-95149404D01*
X265049107Y-95149404D01*
X264972916Y-95187500D01*
X264934821Y-95225595D01*
X264896726Y-95301785D01*
X264896726Y-95377976D01*
X264934821Y-95492261D01*
X265391964Y-95949404D01*
X264896726Y-95949404D01*
X76377678Y-134049404D02*
X76377678Y-133249404D01*
X76187202Y-133249404D01*
X76072916Y-133287500D01*
X75996726Y-133363690D01*
X75958630Y-133439880D01*
X75920535Y-133592261D01*
X75920535Y-133706547D01*
X75958630Y-133858928D01*
X75996726Y-133935119D01*
X76072916Y-134011309D01*
X76187202Y-134049404D01*
X76377678Y-134049404D01*
X75615773Y-133325595D02*
X75577678Y-133287500D01*
X75501488Y-133249404D01*
X75311011Y-133249404D01*
X75234821Y-133287500D01*
X75196726Y-133325595D01*
X75158630Y-133401785D01*
X75158630Y-133477976D01*
X75196726Y-133592261D01*
X75653869Y-134049404D01*
X75158630Y-134049404D01*
X74891964Y-133249404D02*
X74396726Y-133249404D01*
X74663392Y-133554166D01*
X74549107Y-133554166D01*
X74472916Y-133592261D01*
X74434821Y-133630357D01*
X74396726Y-133706547D01*
X74396726Y-133897023D01*
X74434821Y-133973214D01*
X74472916Y-134011309D01*
X74549107Y-134049404D01*
X74777678Y-134049404D01*
X74853869Y-134011309D01*
X74891964Y-133973214D01*
X95427678Y-134049404D02*
X95427678Y-133249404D01*
X95237202Y-133249404D01*
X95122916Y-133287500D01*
X95046726Y-133363690D01*
X95008630Y-133439880D01*
X94970535Y-133592261D01*
X94970535Y-133706547D01*
X95008630Y-133858928D01*
X95046726Y-133935119D01*
X95122916Y-134011309D01*
X95237202Y-134049404D01*
X95427678Y-134049404D01*
X94665773Y-133325595D02*
X94627678Y-133287500D01*
X94551488Y-133249404D01*
X94361011Y-133249404D01*
X94284821Y-133287500D01*
X94246726Y-133325595D01*
X94208630Y-133401785D01*
X94208630Y-133477976D01*
X94246726Y-133592261D01*
X94703869Y-134049404D01*
X94208630Y-134049404D01*
X93522916Y-133516071D02*
X93522916Y-134049404D01*
X93713392Y-133211309D02*
X93903869Y-133782738D01*
X93408630Y-133782738D01*
X171627678Y-134049404D02*
X171627678Y-133249404D01*
X171437202Y-133249404D01*
X171322916Y-133287500D01*
X171246726Y-133363690D01*
X171208630Y-133439880D01*
X171170535Y-133592261D01*
X171170535Y-133706547D01*
X171208630Y-133858928D01*
X171246726Y-133935119D01*
X171322916Y-134011309D01*
X171437202Y-134049404D01*
X171627678Y-134049404D01*
X170865773Y-133325595D02*
X170827678Y-133287500D01*
X170751488Y-133249404D01*
X170561011Y-133249404D01*
X170484821Y-133287500D01*
X170446726Y-133325595D01*
X170408630Y-133401785D01*
X170408630Y-133477976D01*
X170446726Y-133592261D01*
X170903869Y-134049404D01*
X170408630Y-134049404D01*
X169722916Y-133249404D02*
X169875297Y-133249404D01*
X169951488Y-133287500D01*
X169989583Y-133325595D01*
X170065773Y-133439880D01*
X170103869Y-133592261D01*
X170103869Y-133897023D01*
X170065773Y-133973214D01*
X170027678Y-134011309D01*
X169951488Y-134049404D01*
X169799107Y-134049404D01*
X169722916Y-134011309D01*
X169684821Y-133973214D01*
X169646726Y-133897023D01*
X169646726Y-133706547D01*
X169684821Y-133630357D01*
X169722916Y-133592261D01*
X169799107Y-133554166D01*
X169951488Y-133554166D01*
X170027678Y-133592261D01*
X170065773Y-133630357D01*
X170103869Y-133706547D01*
X190677678Y-134049404D02*
X190677678Y-133249404D01*
X190487202Y-133249404D01*
X190372916Y-133287500D01*
X190296726Y-133363690D01*
X190258630Y-133439880D01*
X190220535Y-133592261D01*
X190220535Y-133706547D01*
X190258630Y-133858928D01*
X190296726Y-133935119D01*
X190372916Y-134011309D01*
X190487202Y-134049404D01*
X190677678Y-134049404D01*
X189915773Y-133325595D02*
X189877678Y-133287500D01*
X189801488Y-133249404D01*
X189611011Y-133249404D01*
X189534821Y-133287500D01*
X189496726Y-133325595D01*
X189458630Y-133401785D01*
X189458630Y-133477976D01*
X189496726Y-133592261D01*
X189953869Y-134049404D01*
X189458630Y-134049404D01*
X189191964Y-133249404D02*
X188658630Y-133249404D01*
X189001488Y-134049404D01*
X137686916Y-72986154D02*
X137420250Y-73786154D01*
X137153583Y-72986154D01*
X136429773Y-73709964D02*
X136467869Y-73748059D01*
X136582154Y-73786154D01*
X136658345Y-73786154D01*
X136772630Y-73748059D01*
X136848821Y-73671869D01*
X136886916Y-73595678D01*
X136925011Y-73443297D01*
X136925011Y-73329011D01*
X136886916Y-73176630D01*
X136848821Y-73100440D01*
X136772630Y-73024250D01*
X136658345Y-72986154D01*
X136582154Y-72986154D01*
X136467869Y-73024250D01*
X136429773Y-73062345D01*
X135629773Y-73709964D02*
X135667869Y-73748059D01*
X135782154Y-73786154D01*
X135858345Y-73786154D01*
X135972630Y-73748059D01*
X136048821Y-73671869D01*
X136086916Y-73595678D01*
X136125011Y-73443297D01*
X136125011Y-73329011D01*
X136086916Y-73176630D01*
X136048821Y-73100440D01*
X135972630Y-73024250D01*
X135858345Y-72986154D01*
X135782154Y-72986154D01*
X135667869Y-73024250D01*
X135629773Y-73062345D01*
X136886916Y-75907107D02*
X137153583Y-75907107D01*
X137153583Y-76326154D02*
X137153583Y-75526154D01*
X136772630Y-75526154D01*
X136125011Y-75792821D02*
X136125011Y-76326154D01*
X136315488Y-75488059D02*
X136505964Y-76059488D01*
X136010726Y-76059488D01*
X148132726Y-76326154D02*
X148132726Y-75526154D01*
X147942250Y-75526154D01*
X147827964Y-75564250D01*
X147751773Y-75640440D01*
X147713678Y-75716630D01*
X147675583Y-75869011D01*
X147675583Y-75983297D01*
X147713678Y-76135678D01*
X147751773Y-76211869D01*
X147827964Y-76288059D01*
X147942250Y-76326154D01*
X148132726Y-76326154D01*
X146913678Y-76326154D02*
X147370821Y-76326154D01*
X147142250Y-76326154D02*
X147142250Y-75526154D01*
X147218440Y-75640440D01*
X147294630Y-75716630D01*
X147370821Y-75754726D01*
X136944059Y-93687107D02*
X136829773Y-93725202D01*
X136791678Y-93763297D01*
X136753583Y-93839488D01*
X136753583Y-93953773D01*
X136791678Y-94029964D01*
X136829773Y-94068059D01*
X136905964Y-94106154D01*
X137210726Y-94106154D01*
X137210726Y-93306154D01*
X136944059Y-93306154D01*
X136867869Y-93344250D01*
X136829773Y-93382345D01*
X136791678Y-93458535D01*
X136791678Y-93534726D01*
X136829773Y-93610916D01*
X136867869Y-93649011D01*
X136944059Y-93687107D01*
X137210726Y-93687107D01*
X136067869Y-93306154D02*
X136220250Y-93306154D01*
X136296440Y-93344250D01*
X136334535Y-93382345D01*
X136410726Y-93496630D01*
X136448821Y-93649011D01*
X136448821Y-93953773D01*
X136410726Y-94029964D01*
X136372630Y-94068059D01*
X136296440Y-94106154D01*
X136144059Y-94106154D01*
X136067869Y-94068059D01*
X136029773Y-94029964D01*
X135991678Y-93953773D01*
X135991678Y-93763297D01*
X136029773Y-93687107D01*
X136067869Y-93649011D01*
X136144059Y-93610916D01*
X136296440Y-93610916D01*
X136372630Y-93649011D01*
X136410726Y-93687107D01*
X136448821Y-93763297D01*
X147866059Y-93687107D02*
X147751773Y-93725202D01*
X147713678Y-93763297D01*
X147675583Y-93839488D01*
X147675583Y-93953773D01*
X147713678Y-94029964D01*
X147751773Y-94068059D01*
X147827964Y-94106154D01*
X148132726Y-94106154D01*
X148132726Y-93306154D01*
X147866059Y-93306154D01*
X147789869Y-93344250D01*
X147751773Y-93382345D01*
X147713678Y-93458535D01*
X147713678Y-93534726D01*
X147751773Y-93610916D01*
X147789869Y-93649011D01*
X147866059Y-93687107D01*
X148132726Y-93687107D01*
X146951773Y-93306154D02*
X147332726Y-93306154D01*
X147370821Y-93687107D01*
X147332726Y-93649011D01*
X147256535Y-93610916D01*
X147066059Y-93610916D01*
X146989869Y-93649011D01*
X146951773Y-93687107D01*
X146913678Y-93763297D01*
X146913678Y-93953773D01*
X146951773Y-94029964D01*
X146989869Y-94068059D01*
X147066059Y-94106154D01*
X147256535Y-94106154D01*
X147332726Y-94068059D01*
X147370821Y-94029964D01*
X147675583Y-83869964D02*
X147713678Y-83908059D01*
X147827964Y-83946154D01*
X147904154Y-83946154D01*
X148018440Y-83908059D01*
X148094630Y-83831869D01*
X148132726Y-83755678D01*
X148170821Y-83603297D01*
X148170821Y-83489011D01*
X148132726Y-83336630D01*
X148094630Y-83260440D01*
X148018440Y-83184250D01*
X147904154Y-83146154D01*
X147827964Y-83146154D01*
X147713678Y-83184250D01*
X147675583Y-83222345D01*
X146989869Y-83146154D02*
X147142250Y-83146154D01*
X147218440Y-83184250D01*
X147256535Y-83222345D01*
X147332726Y-83336630D01*
X147370821Y-83489011D01*
X147370821Y-83793773D01*
X147332726Y-83869964D01*
X147294630Y-83908059D01*
X147218440Y-83946154D01*
X147066059Y-83946154D01*
X146989869Y-83908059D01*
X146951773Y-83869964D01*
X146913678Y-83793773D01*
X146913678Y-83603297D01*
X146951773Y-83527107D01*
X146989869Y-83489011D01*
X147066059Y-83450916D01*
X147218440Y-83450916D01*
X147294630Y-83489011D01*
X147332726Y-83527107D01*
X147370821Y-83603297D01*
X136944059Y-91147107D02*
X136829773Y-91185202D01*
X136791678Y-91223297D01*
X136753583Y-91299488D01*
X136753583Y-91413773D01*
X136791678Y-91489964D01*
X136829773Y-91528059D01*
X136905964Y-91566154D01*
X137210726Y-91566154D01*
X137210726Y-90766154D01*
X136944059Y-90766154D01*
X136867869Y-90804250D01*
X136829773Y-90842345D01*
X136791678Y-90918535D01*
X136791678Y-90994726D01*
X136829773Y-91070916D01*
X136867869Y-91109011D01*
X136944059Y-91147107D01*
X137210726Y-91147107D01*
X136448821Y-90842345D02*
X136410726Y-90804250D01*
X136334535Y-90766154D01*
X136144059Y-90766154D01*
X136067869Y-90804250D01*
X136029773Y-90842345D01*
X135991678Y-90918535D01*
X135991678Y-90994726D01*
X136029773Y-91109011D01*
X136486916Y-91566154D01*
X135991678Y-91566154D01*
X148132726Y-86486154D02*
X148132726Y-85686154D01*
X147942250Y-85686154D01*
X147827964Y-85724250D01*
X147751773Y-85800440D01*
X147713678Y-85876630D01*
X147675583Y-86029011D01*
X147675583Y-86143297D01*
X147713678Y-86295678D01*
X147751773Y-86371869D01*
X147827964Y-86448059D01*
X147942250Y-86486154D01*
X148132726Y-86486154D01*
X147408916Y-85686154D02*
X146875583Y-85686154D01*
X147218440Y-86486154D01*
X136881463Y-71178059D02*
X136767177Y-71216154D01*
X136576701Y-71216154D01*
X136500510Y-71178059D01*
X136462415Y-71139964D01*
X136424320Y-71063773D01*
X136424320Y-70987583D01*
X136462415Y-70911392D01*
X136500510Y-70873297D01*
X136576701Y-70835202D01*
X136729082Y-70797107D01*
X136805272Y-70759011D01*
X136843368Y-70720916D01*
X136881463Y-70644726D01*
X136881463Y-70568535D01*
X136843368Y-70492345D01*
X136805272Y-70454250D01*
X136729082Y-70416154D01*
X136538606Y-70416154D01*
X136424320Y-70454250D01*
X136195749Y-70416154D02*
X135738606Y-70416154D01*
X135967177Y-71216154D02*
X135967177Y-70416154D01*
X148094630Y-88607107D02*
X147827964Y-88607107D01*
X147713678Y-89026154D02*
X148094630Y-89026154D01*
X148094630Y-88226154D01*
X147713678Y-88226154D01*
X147027964Y-88226154D02*
X147180345Y-88226154D01*
X147256535Y-88264250D01*
X147294630Y-88302345D01*
X147370821Y-88416630D01*
X147408916Y-88569011D01*
X147408916Y-88873773D01*
X147370821Y-88949964D01*
X147332726Y-88988059D01*
X147256535Y-89026154D01*
X147104154Y-89026154D01*
X147027964Y-88988059D01*
X146989869Y-88949964D01*
X146951773Y-88873773D01*
X146951773Y-88683297D01*
X146989869Y-88607107D01*
X147027964Y-88569011D01*
X147104154Y-88530916D01*
X147256535Y-88530916D01*
X147332726Y-88569011D01*
X147370821Y-88607107D01*
X147408916Y-88683297D01*
X136886916Y-78447107D02*
X137153583Y-78447107D01*
X137153583Y-78866154D02*
X137153583Y-78066154D01*
X136772630Y-78066154D01*
X136086916Y-78066154D02*
X136467869Y-78066154D01*
X136505964Y-78447107D01*
X136467869Y-78409011D01*
X136391678Y-78370916D01*
X136201202Y-78370916D01*
X136125011Y-78409011D01*
X136086916Y-78447107D01*
X136048821Y-78523297D01*
X136048821Y-78713773D01*
X136086916Y-78789964D01*
X136125011Y-78828059D01*
X136201202Y-78866154D01*
X136391678Y-78866154D01*
X136467869Y-78828059D01*
X136505964Y-78789964D01*
X147843598Y-65366154D02*
X147386455Y-65366154D01*
X147615026Y-66166154D02*
X147615026Y-65366154D01*
X147195979Y-65366154D02*
X146662645Y-66166154D01*
X146662645Y-65366154D02*
X147195979Y-66166154D01*
X146205502Y-65366154D02*
X146129312Y-65366154D01*
X146053122Y-65404250D01*
X146015026Y-65442345D01*
X145976931Y-65518535D01*
X145938836Y-65670916D01*
X145938836Y-65861392D01*
X145976931Y-66013773D01*
X146015026Y-66089964D01*
X146053122Y-66128059D01*
X146129312Y-66166154D01*
X146205502Y-66166154D01*
X146281693Y-66128059D01*
X146319788Y-66089964D01*
X146357883Y-66013773D01*
X146395979Y-65861392D01*
X146395979Y-65670916D01*
X146357883Y-65518535D01*
X146319788Y-65442345D01*
X146281693Y-65404250D01*
X146205502Y-65366154D01*
X145024550Y-65328059D02*
X145710264Y-66356630D01*
X144757883Y-66166154D02*
X144757883Y-65366154D01*
X144567407Y-65366154D01*
X144453122Y-65404250D01*
X144376931Y-65480440D01*
X144338836Y-65556630D01*
X144300741Y-65709011D01*
X144300741Y-65823297D01*
X144338836Y-65975678D01*
X144376931Y-66051869D01*
X144453122Y-66128059D01*
X144567407Y-66166154D01*
X144757883Y-66166154D01*
X144034074Y-65366154D02*
X143538836Y-65366154D01*
X143805502Y-65670916D01*
X143691217Y-65670916D01*
X143615026Y-65709011D01*
X143576931Y-65747107D01*
X143538836Y-65823297D01*
X143538836Y-66013773D01*
X143576931Y-66089964D01*
X143615026Y-66128059D01*
X143691217Y-66166154D01*
X143919788Y-66166154D01*
X143995979Y-66128059D01*
X144034074Y-66089964D01*
X137172630Y-66166154D02*
X137439297Y-65785202D01*
X137629773Y-66166154D02*
X137629773Y-65366154D01*
X137325011Y-65366154D01*
X137248821Y-65404250D01*
X137210726Y-65442345D01*
X137172630Y-65518535D01*
X137172630Y-65632821D01*
X137210726Y-65709011D01*
X137248821Y-65747107D01*
X137325011Y-65785202D01*
X137629773Y-65785202D01*
X136867869Y-65937583D02*
X136486916Y-65937583D01*
X136944059Y-66166154D02*
X136677392Y-65366154D01*
X136410726Y-66166154D01*
X136220250Y-65366154D02*
X136029773Y-66166154D01*
X135877392Y-65594726D01*
X135725011Y-66166154D01*
X135534535Y-65366154D01*
X148132726Y-68706154D02*
X148132726Y-67906154D01*
X147942250Y-67906154D01*
X147827964Y-67944250D01*
X147751773Y-68020440D01*
X147713678Y-68096630D01*
X147675583Y-68249011D01*
X147675583Y-68363297D01*
X147713678Y-68515678D01*
X147751773Y-68591869D01*
X147827964Y-68668059D01*
X147942250Y-68706154D01*
X148132726Y-68706154D01*
X147370821Y-67982345D02*
X147332726Y-67944250D01*
X147256535Y-67906154D01*
X147066059Y-67906154D01*
X146989869Y-67944250D01*
X146951773Y-67982345D01*
X146913678Y-68058535D01*
X146913678Y-68134726D01*
X146951773Y-68249011D01*
X147408916Y-68706154D01*
X146913678Y-68706154D01*
X136886916Y-83527107D02*
X137153583Y-83527107D01*
X137153583Y-83946154D02*
X137153583Y-83146154D01*
X136772630Y-83146154D01*
X136544059Y-83146154D02*
X136010726Y-83146154D01*
X136353583Y-83946154D01*
X148151773Y-70484250D02*
X148227964Y-70446154D01*
X148342250Y-70446154D01*
X148456535Y-70484250D01*
X148532726Y-70560440D01*
X148570821Y-70636630D01*
X148608916Y-70789011D01*
X148608916Y-70903297D01*
X148570821Y-71055678D01*
X148532726Y-71131869D01*
X148456535Y-71208059D01*
X148342250Y-71246154D01*
X148266059Y-71246154D01*
X148151773Y-71208059D01*
X148113678Y-71169964D01*
X148113678Y-70903297D01*
X148266059Y-70903297D01*
X147770821Y-71246154D02*
X147770821Y-70446154D01*
X147313678Y-71246154D01*
X147313678Y-70446154D01*
X146932726Y-71246154D02*
X146932726Y-70446154D01*
X146742250Y-70446154D01*
X146627964Y-70484250D01*
X146551773Y-70560440D01*
X146513678Y-70636630D01*
X146475583Y-70789011D01*
X146475583Y-70903297D01*
X146513678Y-71055678D01*
X146551773Y-71131869D01*
X146627964Y-71208059D01*
X146742250Y-71246154D01*
X146932726Y-71246154D01*
X148151773Y-73024250D02*
X148227964Y-72986154D01*
X148342250Y-72986154D01*
X148456535Y-73024250D01*
X148532726Y-73100440D01*
X148570821Y-73176630D01*
X148608916Y-73329011D01*
X148608916Y-73443297D01*
X148570821Y-73595678D01*
X148532726Y-73671869D01*
X148456535Y-73748059D01*
X148342250Y-73786154D01*
X148266059Y-73786154D01*
X148151773Y-73748059D01*
X148113678Y-73709964D01*
X148113678Y-73443297D01*
X148266059Y-73443297D01*
X147770821Y-73786154D02*
X147770821Y-72986154D01*
X147313678Y-73786154D01*
X147313678Y-72986154D01*
X146932726Y-73786154D02*
X146932726Y-72986154D01*
X146742250Y-72986154D01*
X146627964Y-73024250D01*
X146551773Y-73100440D01*
X146513678Y-73176630D01*
X146475583Y-73329011D01*
X146475583Y-73443297D01*
X146513678Y-73595678D01*
X146551773Y-73671869D01*
X146627964Y-73748059D01*
X146742250Y-73786154D01*
X146932726Y-73786154D01*
X148132726Y-78866154D02*
X148132726Y-78066154D01*
X147942250Y-78066154D01*
X147827964Y-78104250D01*
X147751773Y-78180440D01*
X147713678Y-78256630D01*
X147675583Y-78409011D01*
X147675583Y-78523297D01*
X147713678Y-78675678D01*
X147751773Y-78751869D01*
X147827964Y-78828059D01*
X147942250Y-78866154D01*
X148132726Y-78866154D01*
X147180345Y-78066154D02*
X147104154Y-78066154D01*
X147027964Y-78104250D01*
X146989869Y-78142345D01*
X146951773Y-78218535D01*
X146913678Y-78370916D01*
X146913678Y-78561392D01*
X146951773Y-78713773D01*
X146989869Y-78789964D01*
X147027964Y-78828059D01*
X147104154Y-78866154D01*
X147180345Y-78866154D01*
X147256535Y-78828059D01*
X147294630Y-78789964D01*
X147332726Y-78713773D01*
X147370821Y-78561392D01*
X147370821Y-78370916D01*
X147332726Y-78218535D01*
X147294630Y-78142345D01*
X147256535Y-78104250D01*
X147180345Y-78066154D01*
X137229773Y-67944250D02*
X137305964Y-67906154D01*
X137420250Y-67906154D01*
X137534535Y-67944250D01*
X137610726Y-68020440D01*
X137648821Y-68096630D01*
X137686916Y-68249011D01*
X137686916Y-68363297D01*
X137648821Y-68515678D01*
X137610726Y-68591869D01*
X137534535Y-68668059D01*
X137420250Y-68706154D01*
X137344059Y-68706154D01*
X137229773Y-68668059D01*
X137191678Y-68629964D01*
X137191678Y-68363297D01*
X137344059Y-68363297D01*
X136848821Y-68706154D02*
X136848821Y-67906154D01*
X136391678Y-68706154D01*
X136391678Y-67906154D01*
X136010726Y-68706154D02*
X136010726Y-67906154D01*
X135820250Y-67906154D01*
X135705964Y-67944250D01*
X135629773Y-68020440D01*
X135591678Y-68096630D01*
X135553583Y-68249011D01*
X135553583Y-68363297D01*
X135591678Y-68515678D01*
X135629773Y-68591869D01*
X135705964Y-68668059D01*
X135820250Y-68706154D01*
X136010726Y-68706154D01*
X147866059Y-91147107D02*
X147751773Y-91185202D01*
X147713678Y-91223297D01*
X147675583Y-91299488D01*
X147675583Y-91413773D01*
X147713678Y-91489964D01*
X147751773Y-91528059D01*
X147827964Y-91566154D01*
X148132726Y-91566154D01*
X148132726Y-90766154D01*
X147866059Y-90766154D01*
X147789869Y-90804250D01*
X147751773Y-90842345D01*
X147713678Y-90918535D01*
X147713678Y-90994726D01*
X147751773Y-91070916D01*
X147789869Y-91109011D01*
X147866059Y-91147107D01*
X148132726Y-91147107D01*
X146989869Y-91032821D02*
X146989869Y-91566154D01*
X147180345Y-90728059D02*
X147370821Y-91299488D01*
X146875583Y-91299488D01*
X136944059Y-88607107D02*
X136829773Y-88645202D01*
X136791678Y-88683297D01*
X136753583Y-88759488D01*
X136753583Y-88873773D01*
X136791678Y-88949964D01*
X136829773Y-88988059D01*
X136905964Y-89026154D01*
X137210726Y-89026154D01*
X137210726Y-88226154D01*
X136944059Y-88226154D01*
X136867869Y-88264250D01*
X136829773Y-88302345D01*
X136791678Y-88378535D01*
X136791678Y-88454726D01*
X136829773Y-88530916D01*
X136867869Y-88569011D01*
X136944059Y-88607107D01*
X137210726Y-88607107D01*
X136486916Y-88226154D02*
X135991678Y-88226154D01*
X136258345Y-88530916D01*
X136144059Y-88530916D01*
X136067869Y-88569011D01*
X136029773Y-88607107D01*
X135991678Y-88683297D01*
X135991678Y-88873773D01*
X136029773Y-88949964D01*
X136067869Y-88988059D01*
X136144059Y-89026154D01*
X136372630Y-89026154D01*
X136448821Y-88988059D01*
X136486916Y-88949964D01*
X136944059Y-86067107D02*
X136829773Y-86105202D01*
X136791678Y-86143297D01*
X136753583Y-86219488D01*
X136753583Y-86333773D01*
X136791678Y-86409964D01*
X136829773Y-86448059D01*
X136905964Y-86486154D01*
X137210726Y-86486154D01*
X137210726Y-85686154D01*
X136944059Y-85686154D01*
X136867869Y-85724250D01*
X136829773Y-85762345D01*
X136791678Y-85838535D01*
X136791678Y-85914726D01*
X136829773Y-85990916D01*
X136867869Y-86029011D01*
X136944059Y-86067107D01*
X137210726Y-86067107D01*
X135991678Y-86486154D02*
X136448821Y-86486154D01*
X136220250Y-86486154D02*
X136220250Y-85686154D01*
X136296440Y-85800440D01*
X136372630Y-85876630D01*
X136448821Y-85914726D01*
X136886916Y-80987107D02*
X137153583Y-80987107D01*
X137153583Y-81406154D02*
X137153583Y-80606154D01*
X136772630Y-80606154D01*
X136125011Y-80606154D02*
X136277392Y-80606154D01*
X136353583Y-80644250D01*
X136391678Y-80682345D01*
X136467869Y-80796630D01*
X136505964Y-80949011D01*
X136505964Y-81253773D01*
X136467869Y-81329964D01*
X136429773Y-81368059D01*
X136353583Y-81406154D01*
X136201202Y-81406154D01*
X136125011Y-81368059D01*
X136086916Y-81329964D01*
X136048821Y-81253773D01*
X136048821Y-81063297D01*
X136086916Y-80987107D01*
X136125011Y-80949011D01*
X136201202Y-80910916D01*
X136353583Y-80910916D01*
X136429773Y-80949011D01*
X136467869Y-80987107D01*
X136505964Y-81063297D01*
X148132726Y-81406154D02*
X148132726Y-80606154D01*
X147942250Y-80606154D01*
X147827964Y-80644250D01*
X147751773Y-80720440D01*
X147713678Y-80796630D01*
X147675583Y-80949011D01*
X147675583Y-81063297D01*
X147713678Y-81215678D01*
X147751773Y-81291869D01*
X147827964Y-81368059D01*
X147942250Y-81406154D01*
X148132726Y-81406154D01*
X146989869Y-80872821D02*
X146989869Y-81406154D01*
X147180345Y-80568059D02*
X147370821Y-81139488D01*
X146875583Y-81139488D01*
X114477678Y-134049404D02*
X114477678Y-133249404D01*
X114287202Y-133249404D01*
X114172916Y-133287500D01*
X114096726Y-133363690D01*
X114058630Y-133439880D01*
X114020535Y-133592261D01*
X114020535Y-133706547D01*
X114058630Y-133858928D01*
X114096726Y-133935119D01*
X114172916Y-134011309D01*
X114287202Y-134049404D01*
X114477678Y-134049404D01*
X113715773Y-133325595D02*
X113677678Y-133287500D01*
X113601488Y-133249404D01*
X113411011Y-133249404D01*
X113334821Y-133287500D01*
X113296726Y-133325595D01*
X113258630Y-133401785D01*
X113258630Y-133477976D01*
X113296726Y-133592261D01*
X113753869Y-134049404D01*
X113258630Y-134049404D01*
X112534821Y-133249404D02*
X112915773Y-133249404D01*
X112953869Y-133630357D01*
X112915773Y-133592261D01*
X112839583Y-133554166D01*
X112649107Y-133554166D01*
X112572916Y-133592261D01*
X112534821Y-133630357D01*
X112496726Y-133706547D01*
X112496726Y-133897023D01*
X112534821Y-133973214D01*
X112572916Y-134011309D01*
X112649107Y-134049404D01*
X112839583Y-134049404D01*
X112915773Y-134011309D01*
X112953869Y-133973214D01*
X209727678Y-134049404D02*
X209727678Y-133249404D01*
X209537202Y-133249404D01*
X209422916Y-133287500D01*
X209346726Y-133363690D01*
X209308630Y-133439880D01*
X209270535Y-133592261D01*
X209270535Y-133706547D01*
X209308630Y-133858928D01*
X209346726Y-133935119D01*
X209422916Y-134011309D01*
X209537202Y-134049404D01*
X209727678Y-134049404D01*
X208965773Y-133325595D02*
X208927678Y-133287500D01*
X208851488Y-133249404D01*
X208661011Y-133249404D01*
X208584821Y-133287500D01*
X208546726Y-133325595D01*
X208508630Y-133401785D01*
X208508630Y-133477976D01*
X208546726Y-133592261D01*
X209003869Y-134049404D01*
X208508630Y-134049404D01*
X208051488Y-133592261D02*
X208127678Y-133554166D01*
X208165773Y-133516071D01*
X208203869Y-133439880D01*
X208203869Y-133401785D01*
X208165773Y-133325595D01*
X208127678Y-133287500D01*
X208051488Y-133249404D01*
X207899107Y-133249404D01*
X207822916Y-133287500D01*
X207784821Y-133325595D01*
X207746726Y-133401785D01*
X207746726Y-133439880D01*
X207784821Y-133516071D01*
X207822916Y-133554166D01*
X207899107Y-133592261D01*
X208051488Y-133592261D01*
X208127678Y-133630357D01*
X208165773Y-133668452D01*
X208203869Y-133744642D01*
X208203869Y-133897023D01*
X208165773Y-133973214D01*
X208127678Y-134011309D01*
X208051488Y-134049404D01*
X207899107Y-134049404D01*
X207822916Y-134011309D01*
X207784821Y-133973214D01*
X207746726Y-133897023D01*
X207746726Y-133744642D01*
X207784821Y-133668452D01*
X207822916Y-133630357D01*
X207899107Y-133592261D01*
X129127083Y-74004761D02*
X128984226Y-74052380D01*
X128746130Y-74052380D01*
X128650892Y-74004761D01*
X128603273Y-73957142D01*
X128555654Y-73861904D01*
X128555654Y-73766666D01*
X128603273Y-73671428D01*
X128650892Y-73623809D01*
X128746130Y-73576190D01*
X128936607Y-73528571D01*
X129031845Y-73480952D01*
X129079464Y-73433333D01*
X129127083Y-73338095D01*
X129127083Y-73242857D01*
X129079464Y-73147619D01*
X129031845Y-73100000D01*
X128936607Y-73052380D01*
X128698511Y-73052380D01*
X128555654Y-73100000D01*
X128222321Y-73052380D02*
X127984226Y-74052380D01*
X127793750Y-73338095D01*
X127603273Y-74052380D01*
X127365178Y-73052380D01*
X126460416Y-74052380D02*
X127031845Y-74052380D01*
X126746130Y-74052380D02*
X126746130Y-73052380D01*
X126841369Y-73195238D01*
X126936607Y-73290476D01*
X127031845Y-73338095D01*
D11*
X34506250Y-75812500D02*
X40506250Y-75812500D01*
X40231250Y-73412500D02*
X40231250Y-75812500D01*
X40381250Y-75812500D02*
X40381250Y-73412500D01*
X40506250Y-75812500D02*
X40506250Y-73412500D01*
X40506250Y-73412500D02*
X34506250Y-73412500D01*
X40106250Y-73412500D02*
X40106250Y-75812500D01*
X34506250Y-73412500D02*
X34506250Y-75812500D01*
X53556250Y-73412500D02*
X53556250Y-75812500D01*
X59156250Y-73412500D02*
X59156250Y-75812500D01*
X59431250Y-75812500D02*
X59431250Y-73412500D01*
X59281250Y-73412500D02*
X59281250Y-75812500D01*
X59556250Y-73412500D02*
X53556250Y-73412500D01*
X59556250Y-75812500D02*
X59556250Y-73412500D01*
X53556250Y-75812500D02*
X59556250Y-75812500D01*
X72493750Y-73412500D02*
X72493750Y-75812500D01*
X78093750Y-73412500D02*
X78093750Y-75812500D01*
X78493750Y-75812500D02*
X78493750Y-73412500D01*
X72493750Y-75812500D02*
X78493750Y-75812500D01*
X78493750Y-73412500D02*
X72493750Y-73412500D01*
X78368750Y-75812500D02*
X78368750Y-73412500D01*
X78218750Y-73412500D02*
X78218750Y-75812500D01*
X97656250Y-73412500D02*
X91656250Y-73412500D01*
X91656250Y-75812500D02*
X97656250Y-75812500D01*
X97531250Y-75812500D02*
X97531250Y-73412500D01*
X97256250Y-73412500D02*
X97256250Y-75812500D01*
X97656250Y-75812500D02*
X97656250Y-73412500D01*
X91656250Y-73412500D02*
X91656250Y-75812500D01*
X97381250Y-73412500D02*
X97381250Y-75812500D01*
X116306250Y-73412500D02*
X116306250Y-75812500D01*
X110706250Y-73412500D02*
X110706250Y-75812500D01*
X116706250Y-75812500D02*
X116706250Y-73412500D01*
X116581250Y-75812500D02*
X116581250Y-73412500D01*
X116706250Y-73412500D02*
X110706250Y-73412500D01*
X110706250Y-75812500D02*
X116706250Y-75812500D01*
X116431250Y-73412500D02*
X116431250Y-75812500D01*
X173856250Y-75812500D02*
X173856250Y-73412500D01*
X167856250Y-75812500D02*
X173856250Y-75812500D01*
X173856250Y-73412500D02*
X167856250Y-73412500D01*
X173731250Y-75812500D02*
X173731250Y-73412500D01*
X173581250Y-73412500D02*
X173581250Y-75812500D01*
X173456250Y-73412500D02*
X173456250Y-75812500D01*
X167856250Y-73412500D02*
X167856250Y-75812500D01*
X192506250Y-73412500D02*
X192506250Y-75812500D01*
X186906250Y-73412500D02*
X186906250Y-75812500D01*
X192906250Y-73412500D02*
X186906250Y-73412500D01*
X192906250Y-75812500D02*
X192906250Y-73412500D01*
X192781250Y-75812500D02*
X192781250Y-73412500D01*
X186906250Y-75812500D02*
X192906250Y-75812500D01*
X192631250Y-73412500D02*
X192631250Y-75812500D01*
X211956250Y-75812500D02*
X211956250Y-73412500D01*
X211681250Y-73412500D02*
X211681250Y-75812500D01*
X205956250Y-75812500D02*
X211956250Y-75812500D01*
X205956250Y-73412500D02*
X205956250Y-75812500D01*
X211956250Y-73412500D02*
X205956250Y-73412500D01*
X211831250Y-75812500D02*
X211831250Y-73412500D01*
X211556250Y-73412500D02*
X211556250Y-75812500D01*
X230606250Y-73412500D02*
X230606250Y-75812500D01*
X230881250Y-75812500D02*
X230881250Y-73412500D01*
X231006250Y-75812500D02*
X231006250Y-73412500D01*
X230731250Y-73412500D02*
X230731250Y-75812500D01*
X225006250Y-73412500D02*
X225006250Y-75812500D01*
X231006250Y-73412500D02*
X225006250Y-73412500D01*
X225006250Y-75812500D02*
X231006250Y-75812500D01*
X249656250Y-73412500D02*
X249656250Y-75812500D01*
X244056250Y-73412500D02*
X244056250Y-75812500D01*
X250056250Y-75812500D02*
X250056250Y-73412500D01*
X249931250Y-75812500D02*
X249931250Y-73412500D01*
X249781250Y-73412500D02*
X249781250Y-75812500D01*
X244056250Y-75812500D02*
X250056250Y-75812500D01*
X250056250Y-73412500D02*
X244056250Y-73412500D01*
X268981250Y-75812500D02*
X268981250Y-73412500D01*
X263106250Y-75812500D02*
X269106250Y-75812500D01*
X269106250Y-73412500D02*
X263106250Y-73412500D01*
X269106250Y-75812500D02*
X269106250Y-73412500D01*
X268706250Y-73412500D02*
X268706250Y-75812500D01*
X263106250Y-73412500D02*
X263106250Y-75812500D01*
X268831250Y-73412500D02*
X268831250Y-75812500D01*
X34506250Y-92462500D02*
X34506250Y-94862500D01*
X40381250Y-94862500D02*
X40381250Y-92462500D01*
X34506250Y-94862500D02*
X40506250Y-94862500D01*
X40231250Y-92462500D02*
X40231250Y-94862500D01*
X40106250Y-92462500D02*
X40106250Y-94862500D01*
X40506250Y-94862500D02*
X40506250Y-92462500D01*
X40506250Y-92462500D02*
X34506250Y-92462500D01*
X59556250Y-92462500D02*
X53556250Y-92462500D01*
X59281250Y-92462500D02*
X59281250Y-94862500D01*
X59156250Y-92462500D02*
X59156250Y-94862500D01*
X59556250Y-94862500D02*
X59556250Y-92462500D01*
X53556250Y-94862500D02*
X59556250Y-94862500D01*
X53556250Y-92462500D02*
X53556250Y-94862500D01*
X59431250Y-94862500D02*
X59431250Y-92462500D01*
X78481250Y-94862500D02*
X78481250Y-92462500D01*
X72606250Y-92462500D02*
X72606250Y-94862500D01*
X72606250Y-94862500D02*
X78606250Y-94862500D01*
X78606250Y-94862500D02*
X78606250Y-92462500D01*
X78331250Y-92462500D02*
X78331250Y-94862500D01*
X78206250Y-92462500D02*
X78206250Y-94862500D01*
X78606250Y-92462500D02*
X72606250Y-92462500D01*
X97531250Y-94862500D02*
X97531250Y-92462500D01*
X97656250Y-92462500D02*
X91656250Y-92462500D01*
X97381250Y-92462500D02*
X97381250Y-94862500D01*
X97256250Y-92462500D02*
X97256250Y-94862500D01*
X91656250Y-92462500D02*
X91656250Y-94862500D01*
X97656250Y-94862500D02*
X97656250Y-92462500D01*
X91656250Y-94862500D02*
X97656250Y-94862500D01*
X116306250Y-92462500D02*
X116306250Y-94862500D01*
X110706250Y-94862500D02*
X116706250Y-94862500D01*
X110706250Y-92462500D02*
X110706250Y-94862500D01*
X116706250Y-92462500D02*
X110706250Y-92462500D01*
X116706250Y-94862500D02*
X116706250Y-92462500D01*
X116581250Y-94862500D02*
X116581250Y-92462500D01*
X116431250Y-92462500D02*
X116431250Y-94862500D01*
X173731250Y-94862500D02*
X173731250Y-92462500D01*
X173856250Y-92462500D02*
X167856250Y-92462500D01*
X173456250Y-92462500D02*
X173456250Y-94862500D01*
X167856250Y-92462500D02*
X167856250Y-94862500D01*
X173856250Y-94862500D02*
X173856250Y-92462500D01*
X167856250Y-94862500D02*
X173856250Y-94862500D01*
X173581250Y-92462500D02*
X173581250Y-94862500D01*
X186906250Y-92462500D02*
X186906250Y-94862500D01*
X186906250Y-94862500D02*
X192906250Y-94862500D01*
X192781250Y-94862500D02*
X192781250Y-92462500D01*
X192906250Y-92462500D02*
X186906250Y-92462500D01*
X192506250Y-92462500D02*
X192506250Y-94862500D01*
X192631250Y-92462500D02*
X192631250Y-94862500D01*
X192906250Y-94862500D02*
X192906250Y-92462500D01*
X211556250Y-92462500D02*
X211556250Y-94862500D01*
X205956250Y-94862500D02*
X211956250Y-94862500D01*
X211956250Y-94862500D02*
X211956250Y-92462500D01*
X211681250Y-92462500D02*
X211681250Y-94862500D01*
X211956250Y-92462500D02*
X205956250Y-92462500D01*
X211831250Y-94862500D02*
X211831250Y-92462500D01*
X205956250Y-92462500D02*
X205956250Y-94862500D01*
X231006250Y-92462500D02*
X225006250Y-92462500D01*
X230731250Y-92462500D02*
X230731250Y-94862500D01*
X230881250Y-94862500D02*
X230881250Y-92462500D01*
X225006250Y-92462500D02*
X225006250Y-94862500D01*
X230606250Y-92462500D02*
X230606250Y-94862500D01*
X225006250Y-94862500D02*
X231006250Y-94862500D01*
X231006250Y-94862500D02*
X231006250Y-92462500D01*
X250056250Y-94862500D02*
X250056250Y-92462500D01*
X249931250Y-94862500D02*
X249931250Y-92462500D01*
X244056250Y-92462500D02*
X244056250Y-94862500D01*
X249781250Y-92462500D02*
X249781250Y-94862500D01*
X249656250Y-92462500D02*
X249656250Y-94862500D01*
X250056250Y-92462500D02*
X244056250Y-92462500D01*
X244056250Y-94862500D02*
X250056250Y-94862500D01*
X263106250Y-92462500D02*
X263106250Y-94862500D01*
X268706250Y-92462500D02*
X268706250Y-94862500D01*
X263106250Y-94862500D02*
X269106250Y-94862500D01*
X269106250Y-94862500D02*
X269106250Y-92462500D01*
X268981250Y-94862500D02*
X268981250Y-92462500D01*
X269106250Y-92462500D02*
X263106250Y-92462500D01*
X268831250Y-92462500D02*
X268831250Y-94862500D01*
X72606250Y-132962500D02*
X78606250Y-132962500D01*
X78606250Y-132962500D02*
X78606250Y-130562500D01*
X78331250Y-130562500D02*
X78331250Y-132962500D01*
X78206250Y-130562500D02*
X78206250Y-132962500D01*
X72606250Y-130562500D02*
X72606250Y-132962500D01*
X78481250Y-132962500D02*
X78481250Y-130562500D01*
X78606250Y-130562500D02*
X72606250Y-130562500D01*
X97381250Y-130562500D02*
X97381250Y-132962500D01*
X97656250Y-130562500D02*
X91656250Y-130562500D01*
X97531250Y-132962500D02*
X97531250Y-130562500D01*
X91656250Y-132962500D02*
X97656250Y-132962500D01*
X97656250Y-132962500D02*
X97656250Y-130562500D01*
X97256250Y-130562500D02*
X97256250Y-132962500D01*
X91656250Y-130562500D02*
X91656250Y-132962500D01*
X173731250Y-132962500D02*
X173731250Y-130562500D01*
X167856250Y-132962500D02*
X173856250Y-132962500D01*
X173856250Y-132962500D02*
X173856250Y-130562500D01*
X173856250Y-130562500D02*
X167856250Y-130562500D01*
X167856250Y-130562500D02*
X167856250Y-132962500D01*
X173581250Y-130562500D02*
X173581250Y-132962500D01*
X173456250Y-130562500D02*
X173456250Y-132962500D01*
X192906250Y-130562500D02*
X186906250Y-130562500D01*
X192781250Y-132962500D02*
X192781250Y-130562500D01*
X192631250Y-130562500D02*
X192631250Y-132962500D01*
X192506250Y-130562500D02*
X192506250Y-132962500D01*
X192906250Y-132962500D02*
X192906250Y-130562500D01*
X186906250Y-130562500D02*
X186906250Y-132962500D01*
X186906250Y-132962500D02*
X192906250Y-132962500D01*
D12*
X150971250Y-95014250D02*
X133191250Y-95014250D01*
X133191250Y-95014250D02*
X133191250Y-64534250D01*
X148431250Y-64534250D02*
X148431250Y-67074250D01*
X148431250Y-64534250D02*
X150971250Y-64534250D01*
X150971250Y-64534250D02*
X150971250Y-95014250D01*
X133191250Y-64534250D02*
X133191250Y-61994250D01*
X148431250Y-67074250D02*
X150971250Y-67074250D01*
X150971250Y-61994250D02*
X150971250Y-64534250D01*
X133191250Y-61994250D02*
X150971250Y-61994250D01*
D10*
X137149682Y-71013610D02*
X137149682Y-71213610D01*
X137149682Y-71213610D02*
X137249682Y-71213610D01*
X137249682Y-71213610D02*
X137249682Y-71013610D01*
X137249682Y-71013610D02*
X137149682Y-71013610D01*
G36*
X137249682Y-71213610D02*
G01*
X137149682Y-71213610D01*
X137149682Y-71013610D01*
X137249682Y-71013610D01*
X137249682Y-71213610D01*
G37*
X137249682Y-71213610D02*
X137149682Y-71213610D01*
X137149682Y-71013610D01*
X137249682Y-71013610D01*
X137249682Y-71213610D01*
X137349682Y-70813610D02*
X137349682Y-70913610D01*
X137349682Y-70913610D02*
X137449682Y-70913610D01*
X137449682Y-70913610D02*
X137449682Y-70813610D01*
X137449682Y-70813610D02*
X137349682Y-70813610D01*
G36*
X137449682Y-70913610D02*
G01*
X137349682Y-70913610D01*
X137349682Y-70813610D01*
X137449682Y-70813610D01*
X137449682Y-70913610D01*
G37*
X137449682Y-70913610D02*
X137349682Y-70913610D01*
X137349682Y-70813610D01*
X137449682Y-70813610D01*
X137449682Y-70913610D01*
X137149682Y-70413610D02*
X137149682Y-70513610D01*
X137149682Y-70513610D02*
X137649682Y-70513610D01*
X137649682Y-70513610D02*
X137649682Y-70413610D01*
X137649682Y-70413610D02*
X137149682Y-70413610D01*
G36*
X137649682Y-70513610D02*
G01*
X137149682Y-70513610D01*
X137149682Y-70413610D01*
X137649682Y-70413610D01*
X137649682Y-70513610D01*
G37*
X137649682Y-70513610D02*
X137149682Y-70513610D01*
X137149682Y-70413610D01*
X137649682Y-70413610D01*
X137649682Y-70513610D01*
X137149682Y-70413610D02*
X137149682Y-70713610D01*
X137149682Y-70713610D02*
X137249682Y-70713610D01*
X137249682Y-70713610D02*
X137249682Y-70413610D01*
X137249682Y-70413610D02*
X137149682Y-70413610D01*
G36*
X137249682Y-70713610D02*
G01*
X137149682Y-70713610D01*
X137149682Y-70413610D01*
X137249682Y-70413610D01*
X137249682Y-70713610D01*
G37*
X137249682Y-70713610D02*
X137149682Y-70713610D01*
X137149682Y-70413610D01*
X137249682Y-70413610D01*
X137249682Y-70713610D01*
X137549682Y-70413610D02*
X137549682Y-71213610D01*
X137549682Y-71213610D02*
X137649682Y-71213610D01*
X137649682Y-71213610D02*
X137649682Y-70413610D01*
X137649682Y-70413610D02*
X137549682Y-70413610D01*
G36*
X137649682Y-71213610D02*
G01*
X137549682Y-71213610D01*
X137549682Y-70413610D01*
X137649682Y-70413610D01*
X137649682Y-71213610D01*
G37*
X137649682Y-71213610D02*
X137549682Y-71213610D01*
X137549682Y-70413610D01*
X137649682Y-70413610D01*
X137649682Y-71213610D01*
D11*
X116706250Y-132962500D02*
X116706250Y-130562500D01*
X116306250Y-130562500D02*
X116306250Y-132962500D01*
X110706250Y-130562500D02*
X110706250Y-132962500D01*
X116706250Y-130562500D02*
X110706250Y-130562500D01*
X116581250Y-132962500D02*
X116581250Y-130562500D01*
X116431250Y-130562500D02*
X116431250Y-132962500D01*
X110706250Y-132962500D02*
X116706250Y-132962500D01*
X205956250Y-130562500D02*
X205956250Y-132962500D01*
X211556250Y-130562500D02*
X211556250Y-132962500D01*
X211831250Y-132962500D02*
X211831250Y-130562500D01*
X211681250Y-130562500D02*
X211681250Y-132962500D01*
X211956250Y-130562500D02*
X205956250Y-130562500D01*
X205956250Y-132962500D02*
X211956250Y-132962500D01*
X211956250Y-132962500D02*
X211956250Y-130562500D01*
D13*
X129493750Y-67550000D02*
X129043750Y-67100000D01*
X126543750Y-72600000D02*
X129043750Y-72600000D01*
X129493750Y-72150000D02*
X129043750Y-72600000D01*
X126093750Y-67550000D02*
X126543750Y-67100000D01*
X126093750Y-72150000D02*
X126543750Y-72600000D01*
X125043750Y-70850000D02*
X125043750Y-68850000D01*
X130543750Y-70850000D02*
X130543750Y-68850000D01*
X126543750Y-67100000D02*
X129043750Y-67100000D01*
D14*
X149701250Y-65804250D03*
D15*
X149701250Y-68344250D03*
X149701250Y-70884250D03*
X149701250Y-73424250D03*
X149701250Y-75964250D03*
X149701250Y-78504250D03*
X149701250Y-81044250D03*
X149701250Y-83584250D03*
X149701250Y-86124250D03*
X149701250Y-88664250D03*
X149701250Y-91204250D03*
X149701250Y-93744250D03*
X134461250Y-93744250D03*
X134461250Y-91204250D03*
X134461250Y-88664250D03*
X134461250Y-86124250D03*
X134461250Y-83584250D03*
X134461250Y-81044250D03*
X134461250Y-78504250D03*
X134461250Y-75964250D03*
X134461250Y-73424250D03*
X134461250Y-70884250D03*
X134461250Y-68344250D03*
X134461250Y-65804250D03*
%LPC*%
D11*
X156763785Y-127238023D02*
X156573309Y-127333261D01*
X156192357Y-127333261D01*
X156001880Y-127238023D01*
X155906642Y-127047547D01*
X155906642Y-126952309D01*
X156001880Y-126761833D01*
X156192357Y-126666595D01*
X156478071Y-126666595D01*
X156668547Y-126571357D01*
X156763785Y-126380880D01*
X156763785Y-126285642D01*
X156668547Y-126095166D01*
X156478071Y-125999928D01*
X156192357Y-125999928D01*
X156001880Y-126095166D01*
X155335214Y-125999928D02*
X154573309Y-125999928D01*
X155049500Y-125333261D02*
X155049500Y-127047547D01*
X154954261Y-127238023D01*
X154763785Y-127333261D01*
X154573309Y-127333261D01*
X153144738Y-127238023D02*
X153335214Y-127333261D01*
X153716166Y-127333261D01*
X153906642Y-127238023D01*
X154001880Y-127047547D01*
X154001880Y-126285642D01*
X153906642Y-126095166D01*
X153716166Y-125999928D01*
X153335214Y-125999928D01*
X153144738Y-126095166D01*
X153049500Y-126285642D01*
X153049500Y-126476119D01*
X154001880Y-126666595D01*
X152192357Y-125999928D02*
X152192357Y-127333261D01*
X152192357Y-126190404D02*
X152097119Y-126095166D01*
X151906642Y-125999928D01*
X151620928Y-125999928D01*
X151430452Y-126095166D01*
X151335214Y-126285642D01*
X151335214Y-127333261D01*
X150097119Y-127333261D02*
X150287595Y-127238023D01*
X150382833Y-127142785D01*
X150478071Y-126952309D01*
X150478071Y-126380880D01*
X150382833Y-126190404D01*
X150287595Y-126095166D01*
X150097119Y-125999928D01*
X149811404Y-125999928D01*
X149620928Y-126095166D01*
X149525690Y-126190404D01*
X149430452Y-126380880D01*
X149430452Y-126952309D01*
X149525690Y-127142785D01*
X149620928Y-127238023D01*
X149811404Y-127333261D01*
X150097119Y-127333261D01*
X148573309Y-127333261D02*
X148573309Y-125333261D01*
X148382833Y-126571357D02*
X147811404Y-127333261D01*
X147811404Y-125999928D02*
X148573309Y-126761833D01*
X146192357Y-127238023D02*
X146382833Y-127333261D01*
X146763785Y-127333261D01*
X146954261Y-127238023D01*
X147049500Y-127047547D01*
X147049500Y-126285642D01*
X146954261Y-126095166D01*
X146763785Y-125999928D01*
X146382833Y-125999928D01*
X146192357Y-126095166D01*
X146097119Y-126285642D01*
X146097119Y-126476119D01*
X147049500Y-126666595D01*
X145430452Y-125999928D02*
X144954261Y-127333261D01*
X144478071Y-125999928D02*
X144954261Y-127333261D01*
X145144738Y-127809452D01*
X145239976Y-127904690D01*
X145430452Y-127999928D01*
X143716166Y-127333261D02*
X143716166Y-125333261D01*
X143716166Y-126095166D02*
X143525690Y-125999928D01*
X143144738Y-125999928D01*
X142954261Y-126095166D01*
X142859023Y-126190404D01*
X142763785Y-126380880D01*
X142763785Y-126952309D01*
X142859023Y-127142785D01*
X142954261Y-127238023D01*
X143144738Y-127333261D01*
X143525690Y-127333261D01*
X143716166Y-127238023D01*
X141620928Y-127333261D02*
X141811404Y-127238023D01*
X141906642Y-127142785D01*
X142001880Y-126952309D01*
X142001880Y-126380880D01*
X141906642Y-126190404D01*
X141811404Y-126095166D01*
X141620928Y-125999928D01*
X141335214Y-125999928D01*
X141144738Y-126095166D01*
X141049500Y-126190404D01*
X140954261Y-126380880D01*
X140954261Y-126952309D01*
X141049500Y-127142785D01*
X141144738Y-127238023D01*
X141335214Y-127333261D01*
X141620928Y-127333261D01*
X139239976Y-127333261D02*
X139239976Y-126285642D01*
X139335214Y-126095166D01*
X139525690Y-125999928D01*
X139906642Y-125999928D01*
X140097119Y-126095166D01*
X139239976Y-127238023D02*
X139430452Y-127333261D01*
X139906642Y-127333261D01*
X140097119Y-127238023D01*
X140192357Y-127047547D01*
X140192357Y-126857071D01*
X140097119Y-126666595D01*
X139906642Y-126571357D01*
X139430452Y-126571357D01*
X139239976Y-126476119D01*
X138287595Y-127333261D02*
X138287595Y-125999928D01*
X138287595Y-126380880D02*
X138192357Y-126190404D01*
X138097119Y-126095166D01*
X137906642Y-125999928D01*
X137716166Y-125999928D01*
X136192357Y-127333261D02*
X136192357Y-125333261D01*
X136192357Y-127238023D02*
X136382833Y-127333261D01*
X136763785Y-127333261D01*
X136954261Y-127238023D01*
X137049500Y-127142785D01*
X137144738Y-126952309D01*
X137144738Y-126380880D01*
X137049500Y-126190404D01*
X136954261Y-126095166D01*
X136763785Y-125999928D01*
X136382833Y-125999928D01*
X136192357Y-126095166D01*
X135335214Y-127238023D02*
X135144738Y-127333261D01*
X134763785Y-127333261D01*
X134573309Y-127238023D01*
X134478071Y-127047547D01*
X134478071Y-126952309D01*
X134573309Y-126761833D01*
X134763785Y-126666595D01*
X135049500Y-126666595D01*
X135239976Y-126571357D01*
X135335214Y-126380880D01*
X135335214Y-126285642D01*
X135239976Y-126095166D01*
X135049500Y-125999928D01*
X134763785Y-125999928D01*
X134573309Y-126095166D01*
X133620928Y-127142785D02*
X133525690Y-127238023D01*
X133620928Y-127333261D01*
X133716166Y-127238023D01*
X133620928Y-127142785D01*
X133620928Y-127333261D01*
X131811404Y-127238023D02*
X132001880Y-127333261D01*
X132382833Y-127333261D01*
X132573309Y-127238023D01*
X132668547Y-127142785D01*
X132763785Y-126952309D01*
X132763785Y-126380880D01*
X132668547Y-126190404D01*
X132573309Y-126095166D01*
X132382833Y-125999928D01*
X132001880Y-125999928D01*
X131811404Y-126095166D01*
X130668547Y-127333261D02*
X130859023Y-127238023D01*
X130954261Y-127142785D01*
X131049500Y-126952309D01*
X131049500Y-126380880D01*
X130954261Y-126190404D01*
X130859023Y-126095166D01*
X130668547Y-125999928D01*
X130382833Y-125999928D01*
X130192357Y-126095166D01*
X130097119Y-126190404D01*
X130001880Y-126380880D01*
X130001880Y-126952309D01*
X130097119Y-127142785D01*
X130192357Y-127238023D01*
X130382833Y-127333261D01*
X130668547Y-127333261D01*
X129144738Y-127333261D02*
X129144738Y-125999928D01*
X129144738Y-126190404D02*
X129049500Y-126095166D01*
X128859023Y-125999928D01*
X128573309Y-125999928D01*
X128382833Y-126095166D01*
X128287595Y-126285642D01*
X128287595Y-127333261D01*
X128287595Y-126285642D02*
X128192357Y-126095166D01*
X128001880Y-125999928D01*
X127716166Y-125999928D01*
X127525690Y-126095166D01*
X127430452Y-126285642D01*
X127430452Y-127333261D01*
G36*
X139501510Y-120797154D02*
G01*
X139517723Y-120798585D01*
X139535079Y-120800957D01*
X139554913Y-120804785D01*
X139578558Y-120810585D01*
X139607347Y-120818873D01*
X139642613Y-120830164D01*
X139685692Y-120844975D01*
X139737915Y-120863822D01*
X139800616Y-120887221D01*
X139875129Y-120915687D01*
X139962787Y-120949737D01*
X140064924Y-120989886D01*
X140182874Y-121036650D01*
X140317969Y-121090545D01*
X140471543Y-121152088D01*
X140644930Y-121221794D01*
X140839463Y-121300179D01*
X141056476Y-121387758D01*
X141297301Y-121485049D01*
X141563274Y-121592567D01*
X141855727Y-121710827D01*
X142032578Y-121782367D01*
X142276411Y-121881071D01*
X142512184Y-121976589D01*
X142738375Y-122068304D01*
X142953465Y-122155596D01*
X143155934Y-122237845D01*
X143344261Y-122314432D01*
X143516927Y-122384740D01*
X143672410Y-122448147D01*
X143809191Y-122504035D01*
X143925750Y-122551786D01*
X144020566Y-122590779D01*
X144092119Y-122620396D01*
X144138888Y-122640017D01*
X144159354Y-122649024D01*
X144215649Y-122686546D01*
X144280542Y-122747197D01*
X144338680Y-122818221D01*
X144381299Y-122890098D01*
X144385557Y-122899994D01*
X144405318Y-122973642D01*
X144414663Y-123062820D01*
X144413612Y-123156711D01*
X144402189Y-123244498D01*
X144380417Y-123315362D01*
X144336205Y-123392081D01*
X144256143Y-123482459D01*
X144156386Y-123555519D01*
X144041866Y-123607011D01*
X144020685Y-123612674D01*
X143952448Y-123621657D01*
X143873624Y-123622101D01*
X143863091Y-123621340D01*
X143846999Y-123619315D01*
X143828013Y-123615703D01*
X143804823Y-123609994D01*
X143776117Y-123601679D01*
X143740582Y-123590247D01*
X143696909Y-123575190D01*
X143643786Y-123555997D01*
X143579901Y-123532159D01*
X143503943Y-123503166D01*
X143414600Y-123468509D01*
X143310563Y-123427678D01*
X143190518Y-123380163D01*
X143053155Y-123325456D01*
X142897162Y-123263045D01*
X142721229Y-123192422D01*
X142524043Y-123113076D01*
X142304293Y-123024499D01*
X142060669Y-122926181D01*
X141791859Y-122817611D01*
X141496550Y-122698281D01*
X141295977Y-122617149D01*
X141051075Y-122517895D01*
X140814342Y-122421742D01*
X140587290Y-122329314D01*
X140371432Y-122241233D01*
X140168282Y-122158122D01*
X139979352Y-122080606D01*
X139806155Y-122009306D01*
X139650204Y-121944846D01*
X139513013Y-121887848D01*
X139396093Y-121838937D01*
X139300959Y-121798734D01*
X139229122Y-121767863D01*
X139182097Y-121746948D01*
X139161395Y-121736611D01*
X139143876Y-121723532D01*
X139093750Y-121678004D01*
X139051672Y-121629801D01*
X139023179Y-121587275D01*
X138971246Y-121475342D01*
X138946936Y-121359040D01*
X138949874Y-121242327D01*
X138979683Y-121129161D01*
X139035984Y-121023501D01*
X139118401Y-120929305D01*
X139186518Y-120874209D01*
X139278407Y-120824339D01*
X139377993Y-120799351D01*
X139492761Y-120796590D01*
X139501510Y-120797154D01*
G37*
G36*
X142500854Y-120399833D02*
G01*
X142664704Y-120463733D01*
X142910195Y-120559521D01*
X143147940Y-120652346D01*
X143376384Y-120741598D01*
X143593973Y-120826668D01*
X143799150Y-120906946D01*
X143990362Y-120981823D01*
X144166052Y-121050688D01*
X144324667Y-121112933D01*
X144464651Y-121167947D01*
X144584449Y-121215121D01*
X144682507Y-121253846D01*
X144757268Y-121283512D01*
X144807179Y-121303508D01*
X144830684Y-121313226D01*
X144903507Y-121354924D01*
X144990907Y-121432324D01*
X145001613Y-121444392D01*
X145069027Y-121543580D01*
X145110398Y-121650757D01*
X145126803Y-121761902D01*
X145119323Y-121872992D01*
X145089038Y-121980008D01*
X145037027Y-122078929D01*
X144964370Y-122165734D01*
X144872146Y-122236401D01*
X144761436Y-122286910D01*
X144738128Y-122293002D01*
X144668727Y-122301592D01*
X144586264Y-122301894D01*
X144584239Y-122301791D01*
X144568674Y-122300645D01*
X144551678Y-122298495D01*
X144531927Y-122294847D01*
X144508093Y-122289204D01*
X144478851Y-122281072D01*
X144442875Y-122269956D01*
X144398838Y-122255360D01*
X144345414Y-122236789D01*
X144281277Y-122213749D01*
X144205100Y-122185743D01*
X144115559Y-122152277D01*
X144011326Y-122112855D01*
X143891075Y-122066982D01*
X143753480Y-122014164D01*
X143597216Y-121953904D01*
X143420955Y-121885708D01*
X143223372Y-121809080D01*
X143003141Y-121723525D01*
X142758934Y-121628549D01*
X142489427Y-121523655D01*
X142193293Y-121408349D01*
X141993847Y-121330635D01*
X141747868Y-121234661D01*
X141510095Y-121141746D01*
X141282049Y-121052493D01*
X141065250Y-120967500D01*
X140861218Y-120887367D01*
X140671474Y-120812695D01*
X140497539Y-120744083D01*
X140340932Y-120682131D01*
X140203175Y-120627440D01*
X140085787Y-120580608D01*
X139990289Y-120542237D01*
X139918202Y-120512925D01*
X139871046Y-120493273D01*
X139850341Y-120483881D01*
X139843831Y-120479978D01*
X139770332Y-120421671D01*
X139702262Y-120343408D01*
X139647624Y-120254256D01*
X139646722Y-120252424D01*
X139629803Y-120212136D01*
X139619559Y-120169878D01*
X139614471Y-120116331D01*
X139613018Y-120042172D01*
X139613187Y-120001556D01*
X139615534Y-119942720D01*
X139622073Y-119898891D01*
X139634631Y-119860287D01*
X139655032Y-119817128D01*
X139710956Y-119728455D01*
X139798531Y-119636802D01*
X139903006Y-119568145D01*
X139915608Y-119561940D01*
X139959845Y-119542994D01*
X140002022Y-119531987D01*
X140052811Y-119526848D01*
X140122885Y-119525509D01*
X140257912Y-119525300D01*
X142500854Y-120399833D01*
G37*
G36*
X149377892Y-118607308D02*
G01*
X149372226Y-118718110D01*
X149363678Y-118813637D01*
X149352309Y-118886586D01*
X149327883Y-118989939D01*
X149251459Y-119235617D01*
X149153098Y-119466430D01*
X149034107Y-119680438D01*
X148895795Y-119875704D01*
X148739470Y-120050291D01*
X148566440Y-120202261D01*
X148378015Y-120329675D01*
X148259427Y-120391716D01*
X148087764Y-120461913D01*
X147907333Y-120516376D01*
X147729383Y-120551260D01*
X147675967Y-120556343D01*
X147588104Y-120559940D01*
X147482231Y-120560733D01*
X147364893Y-120558903D01*
X147242630Y-120554626D01*
X147121986Y-120548083D01*
X147009503Y-120539451D01*
X146911722Y-120528911D01*
X146868306Y-120523002D01*
X146595869Y-120472327D01*
X146339364Y-120400633D01*
X146100510Y-120308665D01*
X145881026Y-120197171D01*
X145682630Y-120066897D01*
X145507043Y-119918592D01*
X145398630Y-119806852D01*
X145263488Y-119637467D01*
X145154362Y-119457749D01*
X145069032Y-119263865D01*
X145005277Y-119051977D01*
X145000231Y-119029558D01*
X144982893Y-118919317D01*
X144972158Y-118791280D01*
X144968123Y-118654749D01*
X144969403Y-118591943D01*
X146015323Y-118591943D01*
X146015597Y-118736647D01*
X146043388Y-118871262D01*
X146098080Y-118995101D01*
X146179058Y-119107481D01*
X146285709Y-119207716D01*
X146417416Y-119295120D01*
X146573565Y-119369009D01*
X146753542Y-119428697D01*
X146956731Y-119473498D01*
X146978617Y-119477139D01*
X147084267Y-119491393D01*
X147197341Y-119502066D01*
X147311662Y-119508968D01*
X147421054Y-119511908D01*
X147519342Y-119510698D01*
X147600349Y-119505146D01*
X147657901Y-119495063D01*
X147784186Y-119447804D01*
X147917718Y-119368798D01*
X148036614Y-119265021D01*
X148139527Y-119137911D01*
X148225108Y-118988902D01*
X148292011Y-118819432D01*
X148308211Y-118755773D01*
X148324336Y-118651761D01*
X148333535Y-118536101D01*
X148335408Y-118418898D01*
X148329560Y-118310257D01*
X148315591Y-118220283D01*
X148282786Y-118110788D01*
X148216550Y-117972145D01*
X148127573Y-117852539D01*
X148016639Y-117752962D01*
X147884533Y-117674406D01*
X147842489Y-117654924D01*
X147758834Y-117620385D01*
X147679106Y-117594981D01*
X147596547Y-117577464D01*
X147504397Y-117566584D01*
X147395898Y-117561091D01*
X147264291Y-117559735D01*
X147252655Y-117559760D01*
X147158329Y-117560206D01*
X147086965Y-117561562D01*
X147032195Y-117564576D01*
X146987652Y-117569993D01*
X146946968Y-117578561D01*
X146903777Y-117591028D01*
X146851710Y-117608139D01*
X146744775Y-117648906D01*
X146574315Y-117736791D01*
X146422669Y-117845476D01*
X146291610Y-117973122D01*
X146182909Y-118117889D01*
X146098338Y-118277938D01*
X146039666Y-118451429D01*
X146015323Y-118591943D01*
X144969403Y-118591943D01*
X144970888Y-118519028D01*
X144980551Y-118393420D01*
X144997208Y-118287230D01*
X145042150Y-118115125D01*
X145126557Y-117883566D01*
X145234998Y-117660826D01*
X145364200Y-117454336D01*
X145420414Y-117381092D01*
X145505478Y-117283347D01*
X145602856Y-117181822D01*
X145705562Y-117083444D01*
X145806613Y-116995141D01*
X145899023Y-116923842D01*
X145933866Y-116900130D01*
X146025072Y-116843553D01*
X146128071Y-116785522D01*
X146235567Y-116729740D01*
X146340263Y-116679906D01*
X146434863Y-116639722D01*
X146512070Y-116612889D01*
X146561554Y-116596344D01*
X146598067Y-116578944D01*
X146611663Y-116564786D01*
X146611298Y-116560306D01*
X146603751Y-116527275D01*
X146587807Y-116472859D01*
X146565261Y-116402327D01*
X146537913Y-116320949D01*
X146507559Y-116233998D01*
X146475997Y-116146742D01*
X146445025Y-116064452D01*
X146416440Y-115992399D01*
X146380897Y-115908029D01*
X146212834Y-115555898D01*
X146019425Y-115219660D01*
X145800451Y-114898986D01*
X145555689Y-114593546D01*
X145284920Y-114303010D01*
X145089391Y-114117878D01*
X144849105Y-113915736D01*
X144603846Y-113735795D01*
X144355456Y-113579018D01*
X144105775Y-113446369D01*
X143856646Y-113338809D01*
X143609909Y-113257303D01*
X143367406Y-113202814D01*
X143130978Y-113176305D01*
X143050753Y-113174137D01*
X142883252Y-113182960D01*
X142727508Y-113209350D01*
X142590454Y-113252333D01*
X142534304Y-113277113D01*
X142456707Y-113323041D01*
X142402255Y-113376764D01*
X142367669Y-113443403D01*
X142349673Y-113528079D01*
X142344991Y-113635911D01*
X142346082Y-113674926D01*
X142365509Y-113836736D01*
X142408798Y-114015058D01*
X142475555Y-114209093D01*
X142565384Y-114418043D01*
X142677887Y-114641107D01*
X142812671Y-114877487D01*
X142969339Y-115126383D01*
X143147494Y-115386997D01*
X143346742Y-115658529D01*
X143412349Y-115745420D01*
X143487092Y-115846019D01*
X143546274Y-115928899D01*
X143591602Y-115997460D01*
X143624787Y-116055101D01*
X143647534Y-116105223D01*
X143661554Y-116151225D01*
X143668554Y-116196506D01*
X143670242Y-116244466D01*
X143668326Y-116298505D01*
X143662392Y-116354779D01*
X143629222Y-116472592D01*
X143569857Y-116577575D01*
X143485921Y-116667255D01*
X143379036Y-116739162D01*
X143303512Y-116779030D01*
X141685439Y-116783044D01*
X141439684Y-116783671D01*
X141211373Y-116784311D01*
X141009840Y-116784968D01*
X140833440Y-116785670D01*
X140680525Y-116786451D01*
X140549449Y-116787339D01*
X140438564Y-116788367D01*
X140346224Y-116789564D01*
X140270782Y-116790962D01*
X140210591Y-116792591D01*
X140164004Y-116794482D01*
X140129375Y-116796665D01*
X140105056Y-116799172D01*
X140089401Y-116802034D01*
X140080763Y-116805280D01*
X140077495Y-116808942D01*
X140077950Y-116813050D01*
X140099264Y-116869096D01*
X140132658Y-116969128D01*
X140163256Y-117073934D01*
X140186486Y-117168535D01*
X140187462Y-117173195D01*
X140202651Y-117276708D01*
X140210980Y-117399852D01*
X140211809Y-117470202D01*
X140212555Y-117533544D01*
X140207483Y-117668701D01*
X140195870Y-117796240D01*
X140177823Y-117907078D01*
X140157462Y-117995039D01*
X140080458Y-118245561D01*
X139977937Y-118481849D01*
X139849055Y-118705430D01*
X139692973Y-118917830D01*
X139508848Y-119120575D01*
X139421033Y-119205095D01*
X139231182Y-119365111D01*
X139035676Y-119498335D01*
X138830631Y-119606957D01*
X138612161Y-119693168D01*
X138376381Y-119759159D01*
X138301411Y-119772821D01*
X138194671Y-119785351D01*
X138073296Y-119794291D01*
X137945403Y-119799336D01*
X137819112Y-119800183D01*
X137702541Y-119796529D01*
X137603808Y-119788069D01*
X137575273Y-119784299D01*
X137341133Y-119738710D01*
X137124901Y-119669158D01*
X136926231Y-119575483D01*
X136744778Y-119457526D01*
X136580196Y-119315128D01*
X136571902Y-119306869D01*
X136434029Y-119151524D01*
X136321236Y-118985801D01*
X136231845Y-118806364D01*
X136164179Y-118609875D01*
X136116559Y-118392996D01*
X136110758Y-118353245D01*
X136100256Y-118233302D01*
X136096642Y-118111998D01*
X137143260Y-118111998D01*
X137161147Y-118255592D01*
X137198291Y-118383680D01*
X137254424Y-118493544D01*
X137329278Y-118582465D01*
X137345756Y-118597371D01*
X137399974Y-118640672D01*
X137454900Y-118672721D01*
X137520231Y-118698439D01*
X137605664Y-118722750D01*
X137613255Y-118724636D01*
X137719094Y-118742637D01*
X137841172Y-118751282D01*
X137968293Y-118750599D01*
X138089262Y-118740613D01*
X138192881Y-118721351D01*
X138364273Y-118662155D01*
X138530030Y-118575520D01*
X138682430Y-118465599D01*
X138818914Y-118335207D01*
X138936918Y-118187156D01*
X139033881Y-118024262D01*
X139107240Y-117849339D01*
X139154434Y-117665200D01*
X139161471Y-117619093D01*
X139167613Y-117470202D01*
X139147049Y-117333005D01*
X139100445Y-117208923D01*
X139028462Y-117099376D01*
X138931765Y-117005785D01*
X138811015Y-116929570D01*
X138738778Y-116897163D01*
X138594004Y-116850128D01*
X138428381Y-116815466D01*
X138246382Y-116794020D01*
X138052478Y-116786632D01*
X137980128Y-116786872D01*
X137919027Y-116788491D01*
X137874033Y-116792651D01*
X137837730Y-116800508D01*
X137802699Y-116813216D01*
X137761524Y-116831930D01*
X137728136Y-116849397D01*
X137630197Y-116918965D01*
X137534030Y-117012970D01*
X137442664Y-117127327D01*
X137359129Y-117257954D01*
X137286452Y-117400767D01*
X137227664Y-117551682D01*
X137207818Y-117615365D01*
X137166327Y-117789166D01*
X137144897Y-117955617D01*
X137143260Y-118111998D01*
X136096642Y-118111998D01*
X136096182Y-118096546D01*
X136098291Y-117951945D01*
X136106339Y-117808470D01*
X136120080Y-117675090D01*
X136139269Y-117560774D01*
X136148440Y-117519403D01*
X136218593Y-117264338D01*
X136308579Y-117022568D01*
X136416982Y-116795856D01*
X136542383Y-116585964D01*
X136683365Y-116394657D01*
X136838511Y-116223695D01*
X137006403Y-116074842D01*
X137185624Y-115949860D01*
X137374757Y-115850513D01*
X137572383Y-115778562D01*
X137692407Y-115744198D01*
X139901730Y-115736510D01*
X142111052Y-115728823D01*
X142055351Y-115646307D01*
X141996728Y-115556393D01*
X141906202Y-115407446D01*
X141813802Y-115244871D01*
X141723515Y-115076187D01*
X141639327Y-114908912D01*
X141565224Y-114750565D01*
X141505192Y-114608663D01*
X141431124Y-114404423D01*
X141358405Y-114150386D01*
X141312345Y-113909439D01*
X141292972Y-113681750D01*
X141300318Y-113467489D01*
X141311561Y-113377626D01*
X141356247Y-113172336D01*
X141425524Y-112984101D01*
X141519173Y-112813147D01*
X141636973Y-112659698D01*
X141778705Y-112523978D01*
X141944148Y-112406211D01*
X142133082Y-112306622D01*
X142345287Y-112225435D01*
X142580543Y-112162875D01*
X142614486Y-112156301D01*
X142725486Y-112141648D01*
X142855849Y-112132157D01*
X142998087Y-112127833D01*
X143144715Y-112128681D01*
X143288244Y-112134704D01*
X143421187Y-112145909D01*
X143536057Y-112162298D01*
X143556763Y-112166166D01*
X143872778Y-112240941D01*
X144187540Y-112344363D01*
X144499453Y-112475158D01*
X144806919Y-112632055D01*
X145108338Y-112813780D01*
X145402113Y-113019061D01*
X145686647Y-113246624D01*
X145960340Y-113495199D01*
X146221595Y-113763510D01*
X146468813Y-114050287D01*
X146700397Y-114354257D01*
X146914749Y-114674146D01*
X147110269Y-115008682D01*
X147128155Y-115041914D01*
X147242069Y-115268701D01*
X147351340Y-115511491D01*
X147452974Y-115762539D01*
X147543978Y-116014105D01*
X147621359Y-116258445D01*
X147682123Y-116487816D01*
X147685628Y-116499789D01*
X147696181Y-116515672D01*
X147717704Y-116527674D01*
X147756411Y-116538706D01*
X147818516Y-116551675D01*
X147818784Y-116551728D01*
X148001875Y-116597575D01*
X148189223Y-116662558D01*
X148367008Y-116741885D01*
X148436812Y-116778870D01*
X148634569Y-116905502D01*
X148811953Y-117053555D01*
X148967982Y-117221720D01*
X149101679Y-117408686D01*
X149212064Y-117613142D01*
X149298158Y-117833778D01*
X149358981Y-118069284D01*
X149360909Y-118079697D01*
X149370546Y-118157362D01*
X149377003Y-118256257D01*
X149380340Y-118369080D01*
X149380455Y-118418898D01*
X149380616Y-118488531D01*
X149377892Y-118607308D01*
G37*
D16*
X42806250Y-69850000D03*
D17*
X37306250Y-69850000D03*
D18*
X32086250Y-74050000D03*
D19*
X42386250Y-69850000D03*
D16*
X31806250Y-69850000D03*
D19*
X32226250Y-69850000D03*
D20*
X39826021Y-65059984D03*
D21*
X42306250Y-66050000D03*
D22*
X39846250Y-64770000D03*
X34806250Y-65850000D03*
D21*
X37306250Y-63950000D03*
D23*
X34151245Y-66579996D03*
D17*
X56356250Y-69850000D03*
D16*
X61856250Y-69850000D03*
D19*
X61436250Y-69850000D03*
X51276250Y-69850000D03*
D18*
X51136250Y-74050000D03*
D16*
X50856250Y-69850000D03*
D20*
X58876021Y-65059984D03*
D21*
X61356250Y-66050000D03*
D22*
X58896250Y-64770000D03*
D21*
X56356250Y-63950000D03*
D23*
X53201245Y-66579996D03*
D22*
X53856250Y-65850000D03*
D16*
X69906250Y-69850000D03*
X80906250Y-69850000D03*
D19*
X80486250Y-69850000D03*
D17*
X75406250Y-69850000D03*
D19*
X70326250Y-69850000D03*
D18*
X70186250Y-74050000D03*
D20*
X77926021Y-65059984D03*
D22*
X77946250Y-64770000D03*
D21*
X80406250Y-66050000D03*
X75406250Y-63950000D03*
D23*
X72251245Y-66579996D03*
D22*
X72906250Y-65850000D03*
D19*
X99536250Y-69850000D03*
D17*
X94456250Y-69850000D03*
D16*
X88956250Y-69850000D03*
D18*
X89236250Y-74050000D03*
D19*
X89376250Y-69850000D03*
D16*
X99956250Y-69850000D03*
D22*
X96996250Y-64770000D03*
D21*
X99456250Y-66050000D03*
D20*
X96976021Y-65059984D03*
D23*
X91301245Y-66579996D03*
D21*
X94456250Y-63950000D03*
D22*
X91956250Y-65850000D03*
D19*
X118586250Y-69850000D03*
D16*
X108006250Y-69850000D03*
X119006250Y-69850000D03*
D18*
X108286250Y-74050000D03*
D19*
X108426250Y-69850000D03*
D17*
X113506250Y-69850000D03*
D20*
X116026021Y-65059984D03*
D21*
X118506250Y-66050000D03*
D22*
X116046250Y-64770000D03*
X111006250Y-65850000D03*
D21*
X113506250Y-63950000D03*
D23*
X110351245Y-66579996D03*
D18*
X165436250Y-74050000D03*
D19*
X165576250Y-69850000D03*
X175736250Y-69850000D03*
D16*
X165156250Y-69850000D03*
D17*
X170656250Y-69850000D03*
D16*
X176156250Y-69850000D03*
D20*
X173176021Y-65059984D03*
D22*
X173196250Y-64770000D03*
D21*
X175656250Y-66050000D03*
D23*
X167501245Y-66579996D03*
D21*
X170656250Y-63950000D03*
D22*
X168156250Y-65850000D03*
D16*
X195206250Y-69850000D03*
D18*
X184486250Y-74050000D03*
D19*
X184626250Y-69850000D03*
D16*
X184206250Y-69850000D03*
D19*
X194786250Y-69850000D03*
D17*
X189706250Y-69850000D03*
D20*
X192226021Y-65059984D03*
D22*
X192246250Y-64770000D03*
D21*
X194706250Y-66050000D03*
X189706250Y-63950000D03*
D22*
X187206250Y-65850000D03*
D23*
X186551245Y-66579996D03*
D19*
X213836250Y-69850000D03*
X203676250Y-69850000D03*
D17*
X208756250Y-69850000D03*
D18*
X203536250Y-74050000D03*
D16*
X203256250Y-69850000D03*
X214256250Y-69850000D03*
D22*
X211296250Y-64770000D03*
D21*
X213756250Y-66050000D03*
D20*
X211276021Y-65059984D03*
D22*
X206256250Y-65850000D03*
D23*
X205601245Y-66579996D03*
D21*
X208756250Y-63950000D03*
D19*
X232886250Y-69850000D03*
D16*
X233306250Y-69850000D03*
D17*
X227806250Y-69850000D03*
D19*
X222726250Y-69850000D03*
D16*
X222306250Y-69850000D03*
D18*
X222586250Y-74050000D03*
D21*
X232806250Y-66050000D03*
D20*
X230326021Y-65059984D03*
D22*
X230346250Y-64770000D03*
D21*
X227806250Y-63950000D03*
D22*
X225306250Y-65850000D03*
D23*
X224651245Y-66579996D03*
D19*
X241776250Y-69850000D03*
X251936250Y-69850000D03*
D16*
X252356250Y-69850000D03*
D18*
X241636250Y-74050000D03*
D16*
X241356250Y-69850000D03*
D17*
X246856250Y-69850000D03*
D21*
X251856250Y-66050000D03*
D20*
X249376021Y-65059984D03*
D22*
X249396250Y-64770000D03*
X244356250Y-65850000D03*
D23*
X243701245Y-66579996D03*
D21*
X246856250Y-63950000D03*
D19*
X260826250Y-69850000D03*
D16*
X271406250Y-69850000D03*
D19*
X270986250Y-69850000D03*
D16*
X260406250Y-69850000D03*
D18*
X260686250Y-74050000D03*
D17*
X265906250Y-69850000D03*
D22*
X268446250Y-64770000D03*
D21*
X270906250Y-66050000D03*
D20*
X268426021Y-65059984D03*
D21*
X265906250Y-63950000D03*
D23*
X262751245Y-66579996D03*
D22*
X263406250Y-65850000D03*
D16*
X42806250Y-88900000D03*
D19*
X32226250Y-88900000D03*
D17*
X37306250Y-88900000D03*
D18*
X32086250Y-93100000D03*
D16*
X31806250Y-88900000D03*
D19*
X42386250Y-88900000D03*
D22*
X39846250Y-83820000D03*
D21*
X42306250Y-85100000D03*
D20*
X39826021Y-84109984D03*
D21*
X37306250Y-83000000D03*
D22*
X34806250Y-84900000D03*
D23*
X34151245Y-85629996D03*
D17*
X56356250Y-88900000D03*
D19*
X61436250Y-88900000D03*
D16*
X50856250Y-88900000D03*
D19*
X51276250Y-88900000D03*
D16*
X61856250Y-88900000D03*
D18*
X51136250Y-93100000D03*
D21*
X61356250Y-85100000D03*
D22*
X58896250Y-83820000D03*
D20*
X58876021Y-84109984D03*
D22*
X53856250Y-84900000D03*
D21*
X56356250Y-83000000D03*
D23*
X53201245Y-85629996D03*
D17*
X75406250Y-88900000D03*
D19*
X80486250Y-88900000D03*
D16*
X69906250Y-88900000D03*
D18*
X70186250Y-93100000D03*
D16*
X80906250Y-88900000D03*
D19*
X70326250Y-88900000D03*
D22*
X77946250Y-83820000D03*
D21*
X80406250Y-85100000D03*
D20*
X77926021Y-84109984D03*
D21*
X75406250Y-83000000D03*
D22*
X72906250Y-84900000D03*
D23*
X72251245Y-85629996D03*
D18*
X89236250Y-93100000D03*
D19*
X89376250Y-88900000D03*
D17*
X94456250Y-88900000D03*
D19*
X99536250Y-88900000D03*
D16*
X99956250Y-88900000D03*
X88956250Y-88900000D03*
D21*
X99456250Y-85100000D03*
D22*
X96996250Y-83820000D03*
D20*
X96976021Y-84109984D03*
D22*
X91956250Y-84900000D03*
D23*
X91301245Y-85629996D03*
D21*
X94456250Y-83000000D03*
D19*
X118586250Y-88900000D03*
D18*
X108286250Y-93100000D03*
D16*
X108006250Y-88900000D03*
D17*
X113506250Y-88900000D03*
D19*
X108426250Y-88900000D03*
D16*
X119006250Y-88900000D03*
D22*
X116046250Y-83820000D03*
D20*
X116026021Y-84109984D03*
D21*
X118506250Y-85100000D03*
D22*
X111006250Y-84900000D03*
D21*
X113506250Y-83000000D03*
D23*
X110351245Y-85629996D03*
D16*
X176156250Y-88900000D03*
D18*
X165436250Y-93100000D03*
D16*
X165156250Y-88900000D03*
D19*
X165576250Y-88900000D03*
D17*
X170656250Y-88900000D03*
D19*
X175736250Y-88900000D03*
D22*
X173196250Y-83820000D03*
D20*
X173176021Y-84109984D03*
D21*
X175656250Y-85100000D03*
D23*
X167501245Y-85629996D03*
D21*
X170656250Y-83000000D03*
D22*
X168156250Y-84900000D03*
D19*
X194786250Y-88900000D03*
D18*
X184486250Y-93100000D03*
D17*
X189706250Y-88900000D03*
D16*
X195206250Y-88900000D03*
D19*
X184626250Y-88900000D03*
D16*
X184206250Y-88900000D03*
D22*
X192246250Y-83820000D03*
D21*
X194706250Y-85100000D03*
D20*
X192226021Y-84109984D03*
D23*
X186551245Y-85629996D03*
D21*
X189706250Y-83000000D03*
D22*
X187206250Y-84900000D03*
D18*
X203536250Y-93100000D03*
D19*
X203676250Y-88900000D03*
D16*
X214256250Y-88900000D03*
D17*
X208756250Y-88900000D03*
D19*
X213836250Y-88900000D03*
D16*
X203256250Y-88900000D03*
D21*
X213756250Y-85100000D03*
D22*
X211296250Y-83820000D03*
D20*
X211276021Y-84109984D03*
D21*
X208756250Y-83000000D03*
D22*
X206256250Y-84900000D03*
D23*
X205601245Y-85629996D03*
D16*
X233306250Y-88900000D03*
X222306250Y-88900000D03*
D19*
X232886250Y-88900000D03*
X222726250Y-88900000D03*
D17*
X227806250Y-88900000D03*
D18*
X222586250Y-93100000D03*
D22*
X230346250Y-83820000D03*
D20*
X230326021Y-84109984D03*
D21*
X232806250Y-85100000D03*
X227806250Y-83000000D03*
D22*
X225306250Y-84900000D03*
D23*
X224651245Y-85629996D03*
D16*
X241356250Y-88900000D03*
D18*
X241636250Y-93100000D03*
D19*
X241776250Y-88900000D03*
D16*
X252356250Y-88900000D03*
D17*
X246856250Y-88900000D03*
D19*
X251936250Y-88900000D03*
D22*
X249396250Y-83820000D03*
D21*
X251856250Y-85100000D03*
D20*
X249376021Y-84109984D03*
D21*
X246856250Y-83000000D03*
D23*
X243701245Y-85629996D03*
D22*
X244356250Y-84900000D03*
D18*
X260686250Y-93100000D03*
D19*
X260826250Y-88900000D03*
D16*
X260406250Y-88900000D03*
D17*
X265906250Y-88900000D03*
D16*
X271406250Y-88900000D03*
D19*
X270986250Y-88900000D03*
D20*
X268426021Y-84109984D03*
D22*
X268446250Y-83820000D03*
D21*
X270906250Y-85100000D03*
D22*
X263406250Y-84900000D03*
D23*
X262751245Y-85629996D03*
D21*
X265906250Y-83000000D03*
D16*
X80906250Y-127000000D03*
X69906250Y-127000000D03*
D18*
X70186250Y-131200000D03*
D17*
X75406250Y-127000000D03*
D19*
X70326250Y-127000000D03*
X80486250Y-127000000D03*
D22*
X77946250Y-121920000D03*
D21*
X80406250Y-123200000D03*
D20*
X77926021Y-122209984D03*
D21*
X75406250Y-121100000D03*
D22*
X72906250Y-123000000D03*
D23*
X72251245Y-123729996D03*
D16*
X88956250Y-127000000D03*
X99956250Y-127000000D03*
D19*
X99536250Y-127000000D03*
X89376250Y-127000000D03*
D17*
X94456250Y-127000000D03*
D18*
X89236250Y-131200000D03*
D21*
X99456250Y-123200000D03*
D22*
X96996250Y-121920000D03*
D20*
X96976021Y-122209984D03*
D22*
X91956250Y-123000000D03*
D21*
X94456250Y-121100000D03*
D23*
X91301245Y-123729996D03*
D18*
X165436250Y-131200000D03*
D19*
X165576250Y-127000000D03*
X175736250Y-127000000D03*
D17*
X170656250Y-127000000D03*
D16*
X176156250Y-127000000D03*
X165156250Y-127000000D03*
D22*
X173196250Y-121920000D03*
D20*
X173176021Y-122209984D03*
D21*
X175656250Y-123200000D03*
D22*
X168156250Y-123000000D03*
D23*
X167501245Y-123729996D03*
D21*
X170656250Y-121100000D03*
D16*
X195206250Y-127000000D03*
D19*
X184626250Y-127000000D03*
D16*
X184206250Y-127000000D03*
D18*
X184486250Y-131200000D03*
D19*
X194786250Y-127000000D03*
D17*
X189706250Y-127000000D03*
D20*
X192226021Y-122209984D03*
D21*
X194706250Y-123200000D03*
D22*
X192246250Y-121920000D03*
X187206250Y-123000000D03*
D23*
X186551245Y-123729996D03*
D21*
X189706250Y-121100000D03*
D19*
X118586250Y-127000000D03*
D16*
X119006250Y-127000000D03*
X108006250Y-127000000D03*
D19*
X108426250Y-127000000D03*
D17*
X113506250Y-127000000D03*
D18*
X108286250Y-131200000D03*
D20*
X116026021Y-122209984D03*
D22*
X116046250Y-121920000D03*
D21*
X118506250Y-123200000D03*
X113506250Y-121100000D03*
D23*
X110351245Y-123729996D03*
D22*
X111006250Y-123000000D03*
D18*
X203536250Y-131200000D03*
D16*
X214256250Y-127000000D03*
X203256250Y-127000000D03*
D17*
X208756250Y-127000000D03*
D19*
X213836250Y-127000000D03*
X203676250Y-127000000D03*
D22*
X211296250Y-121920000D03*
D21*
X213756250Y-123200000D03*
D20*
X211276021Y-122209984D03*
D23*
X205601245Y-123729996D03*
D21*
X208756250Y-121100000D03*
D22*
X206256250Y-123000000D03*
D24*
X84931250Y-127000000D03*
X103981250Y-79375000D03*
X180181250Y-79375000D03*
X256381250Y-79375000D03*
X46831250Y-79375000D03*
X199231250Y-127000000D03*
D25*
X39006250Y-74612500D03*
X35606250Y-74612500D03*
X58056250Y-74612500D03*
X54656250Y-74612500D03*
X76993750Y-74612500D03*
X73593750Y-74612500D03*
X96156250Y-74612500D03*
X92756250Y-74612500D03*
X115206250Y-74612500D03*
X111806250Y-74612500D03*
X172356250Y-74612500D03*
X168956250Y-74612500D03*
X191406250Y-74612500D03*
X188006250Y-74612500D03*
X210456250Y-74612500D03*
X207056250Y-74612500D03*
X229506250Y-74612500D03*
X226106250Y-74612500D03*
X248556250Y-74612500D03*
X245156250Y-74612500D03*
X267606250Y-74612500D03*
X264206250Y-74612500D03*
X39006250Y-93662500D03*
X35606250Y-93662500D03*
X58056250Y-93662500D03*
X54656250Y-93662500D03*
X77106250Y-93662500D03*
X73706250Y-93662500D03*
X96156250Y-93662500D03*
X92756250Y-93662500D03*
X115206250Y-93662500D03*
X111806250Y-93662500D03*
X172356250Y-93662500D03*
X168956250Y-93662500D03*
X191406250Y-93662500D03*
X188006250Y-93662500D03*
X210456250Y-93662500D03*
X207056250Y-93662500D03*
X229506250Y-93662500D03*
X226106250Y-93662500D03*
X248556250Y-93662500D03*
X245156250Y-93662500D03*
X267606250Y-93662500D03*
X264206250Y-93662500D03*
X77106250Y-131762500D03*
X73706250Y-131762500D03*
X96156250Y-131762500D03*
X92756250Y-131762500D03*
X172356250Y-131762500D03*
X168956250Y-131762500D03*
X191406250Y-131762500D03*
X188006250Y-131762500D03*
D14*
X149701250Y-65804250D03*
D15*
X149701250Y-68344250D03*
X149701250Y-70884250D03*
X149701250Y-73424250D03*
X149701250Y-75964250D03*
X149701250Y-78504250D03*
X149701250Y-81044250D03*
X149701250Y-83584250D03*
X149701250Y-86124250D03*
X149701250Y-88664250D03*
X149701250Y-91204250D03*
X149701250Y-93744250D03*
X134461250Y-93744250D03*
X134461250Y-91204250D03*
X134461250Y-88664250D03*
X134461250Y-86124250D03*
X134461250Y-83584250D03*
X134461250Y-81044250D03*
X134461250Y-78504250D03*
X134461250Y-75964250D03*
X134461250Y-73424250D03*
X134461250Y-70884250D03*
X134461250Y-68344250D03*
X134461250Y-65804250D03*
D25*
X115206250Y-131762500D03*
X111806250Y-131762500D03*
X210456250Y-131762500D03*
X207056250Y-131762500D03*
D26*
X124643750Y-71750000D03*
X130943750Y-71750000D03*
X124643750Y-67950000D03*
X130943750Y-67950000D03*
M02*
